<?xml version="1.0" encoding="utf-8" standalone="no"?>
<!DOCTYPE svg PUBLIC "-//W3C//DTD SVG 1.1//EN"
  "http://www.w3.org/Graphics/SVG/1.1/DTD/svg11.dtd">
<svg xmlns:xlink="http://www.w3.org/1999/xlink" width="360pt" height="360pt" viewBox="0 0 360 360" xmlns="http://www.w3.org/2000/svg" version="1.1">
 <metadata>
  <rdf:RDF xmlns:dc="http://purl.org/dc/elements/1.1/" xmlns:cc="http://creativecommons.org/ns#" xmlns:rdf="http://www.w3.org/1999/02/22-rdf-syntax-ns#">
   <cc:Work>
    <dc:type rdf:resource="http://purl.org/dc/dcmitype/StillImage"/>
    <dc:date>2024-05-20T18:37:26.116578</dc:date>
    <dc:format>image/svg+xml</dc:format>
    <dc:creator>
     <cc:Agent>
      <dc:title>Matplotlib v3.5.2, https://matplotlib.org/</dc:title>
     </cc:Agent>
    </dc:creator>
   </cc:Work>
  </rdf:RDF>
 </metadata>
 <defs>
  <style type="text/css">*{stroke-linejoin: round; stroke-linecap: butt}</style>
 </defs>
 <g id="figure_1">
  <g id="patch_1">
   <path d="M 0 360 
L 360 360 
L 360 0 
L 0 0 
L 0 360 
z
" style="fill: none"/>
  </g>
  <g id="axes_1">
   <g id="patch_2">
    <path d="M 52.8 318.2 
L 349.2 318.2 
L 349.2 10.8 
L 52.8 10.8 
z
" style="fill: #ffffff"/>
   </g>
   <g id="patch_3">
    <path d="M 102.2 229.823706 
L 102.2 229.823706 
L 102.2 229.823706 
L 102.2 229.823706 
z
" clip-path="url(#pdb883ffaf2)" style="fill: #3274a1; stroke: #3f3f3f; stroke-width: 0.75; stroke-linejoin: miter"/>
   </g>
   <g id="PolyCollection_1">
    <defs>
     <path id="m712aded81a" d="M 82.6079 -102.411032 
L 82.2721 -102.411032 
L 82.208733 -103.445159 
L 82.127315 -104.479287 
L 82.024932 -105.513415 
L 81.898932 -106.547543 
L 81.747179 -107.58167 
L 81.568319 -108.615798 
L 81.362014 -109.649926 
L 81.129128 -110.684054 
L 80.871809 -111.718181 
L 80.593453 -112.752309 
L 80.298534 -113.786437 
L 79.992294 -114.820565 
L 79.680333 -115.854692 
L 79.368128 -116.88882 
L 79.060543 -117.922948 
L 78.761408 -118.957076 
L 78.473204 -119.991203 
L 78.196923 -121.025331 
L 77.932114 -122.059459 
L 77.677116 -123.093586 
L 77.429435 -124.127714 
L 77.186203 -125.161842 
L 76.94466 -126.19597 
L 76.702548 -127.230097 
L 76.45838 -128.264225 
L 76.21151 -129.298353 
L 75.962002 -130.332481 
L 75.710313 -131.366608 
L 75.456832 -132.400736 
L 75.201353 -133.434864 
L 74.942574 -134.468992 
L 74.677706 -135.503119 
L 74.402281 -136.537247 
L 74.110202 -137.571375 
L 73.794073 -138.605503 
L 73.44579 -139.63963 
L 73.057333 -140.673758 
L 72.621672 -141.707886 
L 72.133682 -142.742014 
L 71.590934 -143.776141 
L 70.994262 -144.810269 
L 70.348017 -145.844397 
L 69.659981 -146.878525 
L 68.940942 -147.912652 
L 68.204012 -148.94678 
L 67.463777 -149.980908 
L 66.735396 -151.015036 
L 66.033772 -152.049163 
L 65.372874 -153.083291 
L 64.765254 -154.117419 
L 64.221756 -155.151547 
L 63.751388 -156.185674 
L 63.361282 -157.219802 
L 63.056692 -158.25393 
L 62.840982 -159.288058 
L 62.715593 -160.322185 
L 62.68 -161.356313 
L 62.731715 -162.390441 
L 62.866374 -163.424568 
L 63.077952 -164.458696 
L 63.359127 -165.492824 
L 63.701762 -166.526952 
L 64.097463 -167.561079 
L 64.538138 -168.595207 
L 65.016466 -169.629335 
L 65.526233 -170.663463 
L 66.062482 -171.69759 
L 66.621469 -172.731718 
L 67.200481 -173.765846 
L 67.797537 -174.799974 
L 68.411072 -175.834101 
L 69.039641 -176.868229 
L 69.681702 -177.902357 
L 70.335494 -178.936485 
L 70.999005 -179.970612 
L 71.670007 -181.00474 
L 72.346119 -182.038868 
L 73.024864 -183.072996 
L 73.703681 -184.107123 
L 74.379889 -185.141251 
L 75.05061 -186.175379 
L 75.712653 -187.209507 
L 76.362427 -188.243634 
L 76.995879 -189.277762 
L 77.608524 -190.31189 
L 78.195558 -191.346018 
L 78.752066 -192.380145 
L 79.273306 -193.414273 
L 79.755026 -194.448401 
L 80.193779 -195.482529 
L 80.587191 -196.516656 
L 80.934141 -197.550784 
L 81.234834 -198.584912 
L 81.490764 -199.61904 
L 81.704561 -200.653167 
L 81.879773 -201.687295 
L 82.020579 -202.721423 
L 82.131508 -203.755551 
L 82.217155 -204.789678 
L 82.662845 -204.789678 
L 82.662845 -204.789678 
L 82.748492 -203.755551 
L 82.859421 -202.721423 
L 83.000227 -201.687295 
L 83.175439 -200.653167 
L 83.389236 -199.61904 
L 83.645166 -198.584912 
L 83.945859 -197.550784 
L 84.292809 -196.516656 
L 84.686221 -195.482529 
L 85.124974 -194.448401 
L 85.606694 -193.414273 
L 86.127934 -192.380145 
L 86.684442 -191.346018 
L 87.271476 -190.31189 
L 87.884121 -189.277762 
L 88.517573 -188.243634 
L 89.167347 -187.209507 
L 89.82939 -186.175379 
L 90.500111 -185.141251 
L 91.176319 -184.107123 
L 91.855136 -183.072996 
L 92.533881 -182.038868 
L 93.209993 -181.00474 
L 93.880995 -179.970612 
L 94.544506 -178.936485 
L 95.198298 -177.902357 
L 95.840359 -176.868229 
L 96.468928 -175.834101 
L 97.082463 -174.799974 
L 97.679519 -173.765846 
L 98.258531 -172.731718 
L 98.817518 -171.69759 
L 99.353767 -170.663463 
L 99.863534 -169.629335 
L 100.341862 -168.595207 
L 100.782537 -167.561079 
L 101.178238 -166.526952 
L 101.520873 -165.492824 
L 101.802048 -164.458696 
L 102.013626 -163.424568 
L 102.148285 -162.390441 
L 102.2 -161.356313 
L 102.164407 -160.322185 
L 102.039018 -159.288058 
L 101.823308 -158.25393 
L 101.518718 -157.219802 
L 101.128612 -156.185674 
L 100.658244 -155.151547 
L 100.114746 -154.117419 
L 99.507126 -153.083291 
L 98.846228 -152.049163 
L 98.144604 -151.015036 
L 97.416223 -149.980908 
L 96.675988 -148.94678 
L 95.939058 -147.912652 
L 95.220019 -146.878525 
L 94.531983 -145.844397 
L 93.885738 -144.810269 
L 93.289066 -143.776141 
L 92.746318 -142.742014 
L 92.258328 -141.707886 
L 91.822667 -140.673758 
L 91.43421 -139.63963 
L 91.085927 -138.605503 
L 90.769798 -137.571375 
L 90.477719 -136.537247 
L 90.202294 -135.503119 
L 89.937426 -134.468992 
L 89.678647 -133.434864 
L 89.423168 -132.400736 
L 89.169687 -131.366608 
L 88.917998 -130.332481 
L 88.66849 -129.298353 
L 88.42162 -128.264225 
L 88.177452 -127.230097 
L 87.93534 -126.19597 
L 87.693797 -125.161842 
L 87.450565 -124.127714 
L 87.202884 -123.093586 
L 86.947886 -122.059459 
L 86.683077 -121.025331 
L 86.406796 -119.991203 
L 86.118592 -118.957076 
L 85.819457 -117.922948 
L 85.511872 -116.88882 
L 85.199667 -115.854692 
L 84.887706 -114.820565 
L 84.581466 -113.786437 
L 84.286547 -112.752309 
L 84.008191 -111.718181 
L 83.750872 -110.684054 
L 83.517986 -109.649926 
L 83.311681 -108.615798 
L 83.132821 -107.58167 
L 82.981068 -106.547543 
L 82.855068 -105.513415 
L 82.752685 -104.479287 
L 82.671267 -103.445159 
L 82.6079 -102.411032 
z
" style="stroke: #3f3f3f; stroke-width: 1.5"/>
    </defs>
    <g clip-path="url(#pdb883ffaf2)">
     <use xlink:href="#m712aded81a" x="0" y="360" style="fill: #3274a1; stroke: #3f3f3f; stroke-width: 1.5"/>
    </g>
   </g>
   <g id="patch_4">
    <path d="M 102.2 229.823706 
L 102.2 229.823706 
L 102.2 229.823706 
L 102.2 229.823706 
z
" clip-path="url(#pdb883ffaf2)" style="fill: #e1812c; stroke: #3f3f3f; stroke-width: 0.75; stroke-linejoin: miter"/>
   </g>
   <g id="PolyCollection_2">
    <defs>
     <path id="m53bb74268c" d="M 122.03885 -58.494094 
L 121.88115 -58.494094 
L 121.850835 -61.289379 
L 121.811831 -64.084663 
L 121.762793 -66.879948 
L 121.702552 -69.675233 
L 121.630257 -72.470517 
L 121.545522 -75.265802 
L 121.448561 -78.061087 
L 121.340297 -80.856371 
L 121.222426 -83.651656 
L 121.097421 -86.446941 
L 120.968463 -89.242225 
L 120.839308 -92.03751 
L 120.714076 -94.832794 
L 120.596986 -97.628079 
L 120.492056 -100.423364 
L 120.402782 -103.218648 
L 120.331835 -106.013933 
L 120.280783 -108.809218 
L 120.249895 -111.604502 
L 120.23801 -114.399787 
L 120.242518 -117.195071 
L 120.25945 -119.990356 
L 120.283662 -122.785641 
L 120.309129 -125.580925 
L 120.329314 -128.37621 
L 120.337581 -131.171495 
L 120.32764 -133.966779 
L 120.29397 -136.762064 
L 120.232196 -139.557349 
L 120.139385 -142.352633 
L 120.014227 -145.147918 
L 119.857097 -147.943202 
L 119.669964 -150.738487 
L 119.45617 -153.533772 
L 119.220083 -156.329056 
L 118.966656 -159.124341 
L 118.700935 -161.919626 
L 118.427575 -164.71491 
L 118.150406 -167.510195 
L 117.872122 -170.305479 
L 117.594126 -173.100764 
L 117.316553 -175.896049 
L 117.03848 -178.691333 
L 116.758296 -181.486618 
L 116.474179 -184.281903 
L 116.184634 -187.077187 
L 115.889012 -189.872472 
L 115.587956 -192.667757 
L 115.283718 -195.463041 
L 114.980321 -198.258326 
L 114.683535 -201.05361 
L 114.400689 -203.848895 
L 114.140304 -206.64418 
L 113.911599 -209.439464 
L 113.723885 -212.234749 
L 113.58589 -215.030034 
L 113.505082 -217.825318 
L 113.487014 -220.620603 
L 113.53479 -223.415887 
L 113.648687 -226.211172 
L 113.825994 -229.006457 
L 114.061104 -231.801741 
L 114.345861 -234.597026 
L 114.670135 -237.392311 
L 115.022587 -240.187595 
L 115.391525 -242.98288 
L 115.765776 -245.778165 
L 116.135474 -248.573449 
L 116.492687 -251.368734 
L 116.831825 -254.164018 
L 117.149795 -256.959303 
L 117.445907 -259.754588 
L 117.721558 -262.549872 
L 117.97974 -265.345157 
L 118.224444 -268.140442 
L 118.460028 -270.935726 
L 118.690614 -273.731011 
L 118.919588 -276.526295 
L 119.149238 -279.32158 
L 119.380559 -282.116865 
L 119.613234 -284.912149 
L 119.84577 -287.707434 
L 120.07575 -290.502719 
L 120.300175 -293.298003 
L 120.515817 -296.093288 
L 120.719568 -298.888573 
L 120.908726 -301.683857 
L 121.0812 -304.479142 
L 121.235626 -307.274426 
L 121.371401 -310.069711 
L 121.488637 -312.864996 
L 121.588062 -315.66028 
L 121.670891 -318.455565 
L 121.738681 -321.25085 
L 121.79319 -324.046134 
L 121.83625 -326.841419 
L 121.869667 -329.636703 
L 121.89514 -332.431988 
L 121.914209 -335.227273 
L 122.005791 -335.227273 
L 122.005791 -335.227273 
L 122.02486 -332.431988 
L 122.050333 -329.636703 
L 122.08375 -326.841419 
L 122.12681 -324.046134 
L 122.181319 -321.25085 
L 122.249109 -318.455565 
L 122.331938 -315.66028 
L 122.431363 -312.864996 
L 122.548599 -310.069711 
L 122.684374 -307.274426 
L 122.8388 -304.479142 
L 123.011274 -301.683857 
L 123.200432 -298.888573 
L 123.404183 -296.093288 
L 123.619825 -293.298003 
L 123.84425 -290.502719 
L 124.07423 -287.707434 
L 124.306766 -284.912149 
L 124.539441 -282.116865 
L 124.770762 -279.32158 
L 125.000412 -276.526295 
L 125.229386 -273.731011 
L 125.459972 -270.935726 
L 125.695556 -268.140442 
L 125.94026 -265.345157 
L 126.198442 -262.549872 
L 126.474093 -259.754588 
L 126.770205 -256.959303 
L 127.088175 -254.164018 
L 127.427313 -251.368734 
L 127.784526 -248.573449 
L 128.154224 -245.778165 
L 128.528475 -242.98288 
L 128.897413 -240.187595 
L 129.249865 -237.392311 
L 129.574139 -234.597026 
L 129.858896 -231.801741 
L 130.094006 -229.006457 
L 130.271313 -226.211172 
L 130.38521 -223.415887 
L 130.432986 -220.620603 
L 130.414918 -217.825318 
L 130.33411 -215.030034 
L 130.196115 -212.234749 
L 130.008401 -209.439464 
L 129.779696 -206.64418 
L 129.519311 -203.848895 
L 129.236465 -201.05361 
L 128.939679 -198.258326 
L 128.636282 -195.463041 
L 128.332044 -192.667757 
L 128.030988 -189.872472 
L 127.735366 -187.077187 
L 127.445821 -184.281903 
L 127.161704 -181.486618 
L 126.88152 -178.691333 
L 126.603447 -175.896049 
L 126.325874 -173.100764 
L 126.047878 -170.305479 
L 125.769594 -167.510195 
L 125.492425 -164.71491 
L 125.219065 -161.919626 
L 124.953344 -159.124341 
L 124.699917 -156.329056 
L 124.46383 -153.533772 
L 124.250036 -150.738487 
L 124.062903 -147.943202 
L 123.905773 -145.147918 
L 123.780615 -142.352633 
L 123.687804 -139.557349 
L 123.62603 -136.762064 
L 123.59236 -133.966779 
L 123.582419 -131.171495 
L 123.590686 -128.37621 
L 123.610871 -125.580925 
L 123.636338 -122.785641 
L 123.66055 -119.990356 
L 123.677482 -117.195071 
L 123.68199 -114.399787 
L 123.670105 -111.604502 
L 123.639217 -108.809218 
L 123.588165 -106.013933 
L 123.517218 -103.218648 
L 123.427944 -100.423364 
L 123.323014 -97.628079 
L 123.205924 -94.832794 
L 123.080692 -92.03751 
L 122.951537 -89.242225 
L 122.822579 -86.446941 
L 122.697574 -83.651656 
L 122.579703 -80.856371 
L 122.471439 -78.061087 
L 122.374478 -75.265802 
L 122.289743 -72.470517 
L 122.217448 -69.675233 
L 122.157207 -66.879948 
L 122.108169 -64.084663 
L 122.069165 -61.289379 
L 122.03885 -58.494094 
z
" style="stroke: #3f3f3f; stroke-width: 1.5"/>
    </defs>
    <g clip-path="url(#pdb883ffaf2)">
     <use xlink:href="#m53bb74268c" x="0" y="360" style="fill: #e1812c; stroke: #3f3f3f; stroke-width: 1.5"/>
    </g>
   </g>
   <g id="PolyCollection_3">
    <defs>
     <path id="mf12f6517b8" d="M 181.448908 -123.999546 
L 181.031092 -123.999546 
L 180.986046 -124.8055 
L 180.933785 -125.611454 
L 180.873721 -126.417408 
L 180.80533 -127.223362 
L 180.728179 -128.029316 
L 180.641943 -128.83527 
L 180.546427 -129.641225 
L 180.441585 -130.447179 
L 180.327527 -131.253133 
L 180.204532 -132.059087 
L 180.073042 -132.865041 
L 179.933666 -133.670995 
L 179.787162 -134.476949 
L 179.634429 -135.282903 
L 179.47648 -136.088857 
L 179.314425 -136.894811 
L 179.149445 -137.700765 
L 178.982763 -138.506719 
L 178.815625 -139.312673 
L 178.649271 -140.118627 
L 178.484918 -140.924581 
L 178.323733 -141.730535 
L 178.166821 -142.536489 
L 178.015203 -143.342443 
L 177.869799 -144.148397 
L 177.731411 -144.954351 
L 177.600699 -145.760305 
L 177.478168 -146.566259 
L 177.364134 -147.372213 
L 177.258704 -148.178167 
L 177.161751 -148.984122 
L 177.072883 -149.790076 
L 176.991424 -150.59603 
L 176.916393 -151.401984 
L 176.84649 -152.207938 
L 176.780094 -153.013892 
L 176.71527 -153.819846 
L 176.649786 -154.6258 
L 176.581148 -155.431754 
L 176.506646 -156.237708 
L 176.42341 -157.043662 
L 176.32849 -157.849616 
L 176.218932 -158.65557 
L 176.091871 -159.461524 
L 175.944632 -160.267478 
L 175.774825 -161.073432 
L 175.58045 -161.879386 
L 175.359989 -162.68534 
L 175.112496 -163.491294 
L 174.837678 -164.297248 
L 174.535958 -165.103202 
L 174.20853 -165.909156 
L 173.857388 -166.71511 
L 173.485345 -167.521064 
L 173.096023 -168.327019 
L 172.693829 -169.132973 
L 172.283902 -169.938927 
L 171.872041 -170.744881 
L 171.464615 -171.550835 
L 171.068438 -172.356789 
L 170.690643 -173.162743 
L 170.338519 -173.968697 
L 170.019343 -174.774651 
L 169.740202 -175.580605 
L 169.507796 -176.386559 
L 169.328254 -177.192513 
L 169.20694 -177.998467 
L 169.148283 -178.804421 
L 169.155617 -179.610375 
L 169.23105 -180.416329 
L 169.375366 -181.222283 
L 169.587968 -182.028237 
L 169.866858 -182.834191 
L 170.20867 -183.640145 
L 170.608745 -184.446099 
L 171.061257 -185.252053 
L 171.559376 -186.058007 
L 172.095465 -186.863962 
L 172.661306 -187.669916 
L 173.248347 -188.47587 
L 173.847945 -189.281824 
L 174.451618 -190.087778 
L 175.051267 -190.893732 
L 175.639387 -191.699686 
L 176.209239 -192.50564 
L 176.754981 -193.311594 
L 177.271765 -194.117548 
L 177.755788 -194.923502 
L 178.204294 -195.729456 
L 178.615553 -196.53541 
L 178.988791 -197.341364 
L 179.324105 -198.147318 
L 179.622347 -198.953272 
L 179.885006 -199.759226 
L 180.114073 -200.56518 
L 180.311917 -201.371134 
L 180.481158 -202.177088 
L 180.624555 -202.983042 
L 180.744907 -203.788996 
L 181.735093 -203.788996 
L 181.735093 -203.788996 
L 181.855445 -202.983042 
L 181.998842 -202.177088 
L 182.168083 -201.371134 
L 182.365927 -200.56518 
L 182.594994 -199.759226 
L 182.857653 -198.953272 
L 183.155895 -198.147318 
L 183.491209 -197.341364 
L 183.864447 -196.53541 
L 184.275706 -195.729456 
L 184.724212 -194.923502 
L 185.208235 -194.117548 
L 185.725019 -193.311594 
L 186.270761 -192.50564 
L 186.840613 -191.699686 
L 187.428733 -190.893732 
L 188.028382 -190.087778 
L 188.632055 -189.281824 
L 189.231653 -188.47587 
L 189.818694 -187.669916 
L 190.384535 -186.863962 
L 190.920624 -186.058007 
L 191.418743 -185.252053 
L 191.871255 -184.446099 
L 192.27133 -183.640145 
L 192.613142 -182.834191 
L 192.892032 -182.028237 
L 193.104634 -181.222283 
L 193.24895 -180.416329 
L 193.324383 -179.610375 
L 193.331717 -178.804421 
L 193.27306 -177.998467 
L 193.151746 -177.192513 
L 192.972204 -176.386559 
L 192.739798 -175.580605 
L 192.460657 -174.774651 
L 192.141481 -173.968697 
L 191.789357 -173.162743 
L 191.411562 -172.356789 
L 191.015385 -171.550835 
L 190.607959 -170.744881 
L 190.196098 -169.938927 
L 189.786171 -169.132973 
L 189.383977 -168.327019 
L 188.994655 -167.521064 
L 188.622612 -166.71511 
L 188.27147 -165.909156 
L 187.944042 -165.103202 
L 187.642322 -164.297248 
L 187.367504 -163.491294 
L 187.120011 -162.68534 
L 186.89955 -161.879386 
L 186.705175 -161.073432 
L 186.535368 -160.267478 
L 186.388129 -159.461524 
L 186.261068 -158.65557 
L 186.15151 -157.849616 
L 186.05659 -157.043662 
L 185.973354 -156.237708 
L 185.898852 -155.431754 
L 185.830214 -154.6258 
L 185.76473 -153.819846 
L 185.699906 -153.013892 
L 185.63351 -152.207938 
L 185.563607 -151.401984 
L 185.488576 -150.59603 
L 185.407117 -149.790076 
L 185.318249 -148.984122 
L 185.221296 -148.178167 
L 185.115866 -147.372213 
L 185.001832 -146.566259 
L 184.879301 -145.760305 
L 184.748589 -144.954351 
L 184.610201 -144.148397 
L 184.464797 -143.342443 
L 184.313179 -142.536489 
L 184.156267 -141.730535 
L 183.995082 -140.924581 
L 183.830729 -140.118627 
L 183.664375 -139.312673 
L 183.497237 -138.506719 
L 183.330555 -137.700765 
L 183.165575 -136.894811 
L 183.00352 -136.088857 
L 182.845571 -135.282903 
L 182.692838 -134.476949 
L 182.546334 -133.670995 
L 182.406958 -132.865041 
L 182.275468 -132.059087 
L 182.152473 -131.253133 
L 182.038415 -130.447179 
L 181.933573 -129.641225 
L 181.838057 -128.83527 
L 181.751821 -128.029316 
L 181.67467 -127.223362 
L 181.606279 -126.417408 
L 181.546215 -125.611454 
L 181.493954 -124.8055 
L 181.448908 -123.999546 
z
" style="stroke: #3f3f3f; stroke-width: 1.5"/>
    </defs>
    <g clip-path="url(#pdb883ffaf2)">
     <use xlink:href="#mf12f6517b8" x="0" y="360" style="fill: #3274a1; stroke: #3f3f3f; stroke-width: 1.5"/>
    </g>
   </g>
   <g id="PolyCollection_4">
    <defs>
     <path id="ma56800eb8a" d="M 221.120263 -91.78859 
L 220.399737 -91.78859 
L 220.323145 -92.272016 
L 220.234784 -92.755443 
L 220.133871 -93.23887 
L 220.019779 -93.722296 
L 219.892072 -94.205723 
L 219.750537 -94.689149 
L 219.595209 -95.172576 
L 219.426385 -95.656003 
L 219.244624 -96.139429 
L 219.050737 -96.622856 
L 218.845761 -97.106282 
L 218.63092 -97.589709 
L 218.407581 -98.073135 
L 218.177191 -98.556562 
L 217.941222 -99.039989 
L 217.70111 -99.523415 
L 217.458199 -100.006842 
L 217.213693 -100.490268 
L 216.96863 -100.973695 
L 216.723856 -101.457121 
L 216.480027 -101.940548 
L 216.23762 -102.423975 
L 215.996961 -102.907401 
L 215.758252 -103.390828 
L 215.52162 -103.874254 
L 215.28714 -104.357681 
L 215.054876 -104.841107 
L 214.82489 -105.324534 
L 214.597246 -105.807961 
L 214.371994 -106.291387 
L 214.149134 -106.774814 
L 213.928571 -107.25824 
L 213.710048 -107.741667 
L 213.493084 -108.225093 
L 213.276913 -108.70852 
L 213.060421 -109.191947 
L 212.842113 -109.675373 
L 212.620096 -110.1588 
L 212.392083 -110.642226 
L 212.155441 -111.125653 
L 211.90725 -111.60908 
L 211.644404 -112.092506 
L 211.363731 -112.575933 
L 211.062126 -113.059359 
L 210.736702 -113.542786 
L 210.384942 -114.026212 
L 210.004845 -114.509639 
L 209.595067 -114.993066 
L 209.155042 -115.476492 
L 208.685088 -115.959919 
L 208.186487 -116.443345 
L 207.661541 -116.926772 
L 207.113609 -117.410198 
L 206.547105 -117.893625 
L 205.967491 -118.377052 
L 205.381222 -118.860478 
L 204.79569 -119.343905 
L 204.219117 -119.827331 
L 203.660443 -120.310758 
L 203.129173 -120.794184 
L 202.635195 -121.277611 
L 202.188581 -121.761038 
L 201.799349 -122.244464 
L 201.477208 -122.727891 
L 201.231285 -123.211317 
L 201.069844 -123.694744 
L 201 -124.178171 
L 201.027454 -124.661597 
L 201.15625 -125.145024 
L 201.388567 -125.62845 
L 201.724572 -126.111877 
L 202.162333 -126.595303 
L 202.697796 -127.07873 
L 203.324851 -127.562157 
L 204.035467 -128.045583 
L 204.819904 -128.52901 
L 205.666985 -129.012436 
L 206.56443 -129.495863 
L 207.499221 -129.979289 
L 208.457994 -130.462716 
L 209.427431 -130.946143 
L 210.394634 -131.429569 
L 211.347479 -131.912996 
L 212.274906 -132.396422 
L 213.167173 -132.879849 
L 214.016025 -133.363275 
L 214.814814 -133.846702 
L 215.558535 -134.330129 
L 216.243812 -134.813555 
L 216.868819 -135.296982 
L 217.433154 -135.780408 
L 217.937684 -136.263835 
L 218.384357 -136.747262 
L 218.776002 -137.230688 
L 219.116124 -137.714115 
L 219.408712 -138.197541 
L 219.658048 -138.680968 
L 219.868548 -139.164394 
L 220.044616 -139.647821 
L 221.475384 -139.647821 
L 221.475384 -139.647821 
L 221.651452 -139.164394 
L 221.861952 -138.680968 
L 222.111288 -138.197541 
L 222.403876 -137.714115 
L 222.743998 -137.230688 
L 223.135643 -136.747262 
L 223.582316 -136.263835 
L 224.086846 -135.780408 
L 224.651181 -135.296982 
L 225.276188 -134.813555 
L 225.961465 -134.330129 
L 226.705186 -133.846702 
L 227.503975 -133.363275 
L 228.352827 -132.879849 
L 229.245094 -132.396422 
L 230.172521 -131.912996 
L 231.125366 -131.429569 
L 232.092569 -130.946143 
L 233.062006 -130.462716 
L 234.020779 -129.979289 
L 234.95557 -129.495863 
L 235.853015 -129.012436 
L 236.700096 -128.52901 
L 237.484533 -128.045583 
L 238.195149 -127.562157 
L 238.822204 -127.07873 
L 239.357667 -126.595303 
L 239.795428 -126.111877 
L 240.131433 -125.62845 
L 240.36375 -125.145024 
L 240.492546 -124.661597 
L 240.52 -124.178171 
L 240.450156 -123.694744 
L 240.288715 -123.211317 
L 240.042792 -122.727891 
L 239.720651 -122.244464 
L 239.331419 -121.761038 
L 238.884805 -121.277611 
L 238.390827 -120.794184 
L 237.859557 -120.310758 
L 237.300883 -119.827331 
L 236.72431 -119.343905 
L 236.138778 -118.860478 
L 235.552509 -118.377052 
L 234.972895 -117.893625 
L 234.406391 -117.410198 
L 233.858459 -116.926772 
L 233.333513 -116.443345 
L 232.834912 -115.959919 
L 232.364958 -115.476492 
L 231.924933 -114.993066 
L 231.515155 -114.509639 
L 231.135058 -114.026212 
L 230.783298 -113.542786 
L 230.457874 -113.059359 
L 230.156269 -112.575933 
L 229.875596 -112.092506 
L 229.61275 -111.60908 
L 229.364559 -111.125653 
L 229.127917 -110.642226 
L 228.899904 -110.1588 
L 228.677887 -109.675373 
L 228.459579 -109.191947 
L 228.243087 -108.70852 
L 228.026916 -108.225093 
L 227.809952 -107.741667 
L 227.591429 -107.25824 
L 227.370866 -106.774814 
L 227.148006 -106.291387 
L 226.922754 -105.807961 
L 226.69511 -105.324534 
L 226.465124 -104.841107 
L 226.23286 -104.357681 
L 225.99838 -103.874254 
L 225.761748 -103.390828 
L 225.523039 -102.907401 
L 225.28238 -102.423975 
L 225.039973 -101.940548 
L 224.796144 -101.457121 
L 224.55137 -100.973695 
L 224.306307 -100.490268 
L 224.061801 -100.006842 
L 223.81889 -99.523415 
L 223.578778 -99.039989 
L 223.342809 -98.556562 
L 223.112419 -98.073135 
L 222.88908 -97.589709 
L 222.674239 -97.106282 
L 222.469263 -96.622856 
L 222.275376 -96.139429 
L 222.093615 -95.656003 
L 221.924791 -95.172576 
L 221.769463 -94.689149 
L 221.627928 -94.205723 
L 221.500221 -93.722296 
L 221.386129 -93.23887 
L 221.285216 -92.755443 
L 221.196855 -92.272016 
L 221.120263 -91.78859 
z
" style="stroke: #3f3f3f; stroke-width: 1.5"/>
    </defs>
    <g clip-path="url(#pdb883ffaf2)">
     <use xlink:href="#ma56800eb8a" x="0" y="360" style="fill: #e1812c; stroke: #3f3f3f; stroke-width: 1.5"/>
    </g>
   </g>
   <g id="PolyCollection_5">
    <defs>
     <path id="m79f0e39e19" d="M 280.07611 -83.812404 
L 280.00389 -83.812404 
L 279.982929 -84.523799 
L 279.952451 -85.235195 
L 279.909363 -85.946591 
L 279.849981 -86.657987 
L 279.770046 -87.369383 
L 279.664801 -88.080779 
L 279.529196 -88.792175 
L 279.358244 -89.50357 
L 279.147515 -90.214966 
L 278.893695 -90.926362 
L 278.595041 -91.637758 
L 278.251569 -92.349154 
L 277.864849 -93.06055 
L 277.437452 -93.771946 
L 276.97229 -94.483341 
L 276.472217 -95.194737 
L 275.940251 -95.906133 
L 275.380542 -96.617529 
L 274.79983 -97.328925 
L 274.208765 -98.040321 
L 273.622297 -98.751717 
L 273.058522 -99.463112 
L 272.535923 -100.174508 
L 272.069559 -100.885904 
L 271.667328 -101.5973 
L 271.327494 -102.308696 
L 271.038326 -103.020092 
L 270.779957 -103.731488 
L 270.527799 -104.442883 
L 270.256417 -105.154279 
L 269.942735 -105.865675 
L 269.567951 -106.577071 
L 269.118175 -107.288467 
L 268.584364 -107.999863 
L 267.962332 -108.711259 
L 267.253397 -109.422654 
L 266.465713 -110.13405 
L 265.615737 -110.845446 
L 264.728984 -111.556842 
L 263.83921 -112.268238 
L 262.985578 -112.979634 
L 262.208038 -113.69103 
L 261.541765 -114.402425 
L 261.011919 -115.113821 
L 260.630037 -115.825217 
L 260.392947 -116.536613 
L 260.284542 -117.248009 
L 260.28 -117.959405 
L 260.351515 -118.670801 
L 260.474326 -119.382196 
L 260.631816 -120.093592 
L 260.818746 -120.804988 
L 261.042094 -121.516384 
L 261.319426 -122.22778 
L 261.675178 -122.939176 
L 262.135536 -123.650572 
L 262.72282 -124.361967 
L 263.45033 -125.073363 
L 264.318559 -125.784759 
L 265.313418 -126.496155 
L 266.406841 -127.207551 
L 267.5597 -127.918947 
L 268.726556 -128.630343 
L 269.861417 -129.341738 
L 270.923456 -130.053134 
L 271.881674 -130.76453 
L 272.717708 -131.475926 
L 273.426425 -132.187322 
L 274.014437 -132.898718 
L 274.497098 -133.610113 
L 274.894814 -134.321509 
L 275.2295 -135.032905 
L 275.521802 -135.744301 
L 275.789382 -136.455697 
L 276.046187 -137.167093 
L 276.302425 -137.878489 
L 276.564853 -138.589884 
L 276.837096 -139.30128 
L 277.119873 -140.012676 
L 277.411163 -140.724072 
L 277.706499 -141.435468 
L 277.9995 -142.146864 
L 278.282735 -142.85826 
L 278.54881 -143.569655 
L 278.791474 -144.281051 
L 279.006509 -144.992447 
L 279.192174 -145.703843 
L 279.349141 -146.415239 
L 279.479971 -147.126635 
L 279.588318 -147.838031 
L 279.678102 -148.549426 
L 279.752848 -149.260822 
L 279.815323 -149.972218 
L 279.867473 -150.683614 
L 279.910591 -151.39501 
L 279.945587 -152.106406 
L 279.973242 -152.817802 
L 279.994385 -153.529197 
L 280.00995 -154.240593 
L 280.07005 -154.240593 
L 280.07005 -154.240593 
L 280.085615 -153.529197 
L 280.106758 -152.817802 
L 280.134413 -152.106406 
L 280.169409 -151.39501 
L 280.212527 -150.683614 
L 280.264677 -149.972218 
L 280.327152 -149.260822 
L 280.401898 -148.549426 
L 280.491682 -147.838031 
L 280.600029 -147.126635 
L 280.730859 -146.415239 
L 280.887826 -145.703843 
L 281.073491 -144.992447 
L 281.288526 -144.281051 
L 281.53119 -143.569655 
L 281.797265 -142.85826 
L 282.0805 -142.146864 
L 282.373501 -141.435468 
L 282.668837 -140.724072 
L 282.960127 -140.012676 
L 283.242904 -139.30128 
L 283.515147 -138.589884 
L 283.777575 -137.878489 
L 284.033813 -137.167093 
L 284.290618 -136.455697 
L 284.558198 -135.744301 
L 284.8505 -135.032905 
L 285.185186 -134.321509 
L 285.582902 -133.610113 
L 286.065563 -132.898718 
L 286.653575 -132.187322 
L 287.362292 -131.475926 
L 288.198326 -130.76453 
L 289.156544 -130.053134 
L 290.218583 -129.341738 
L 291.353444 -128.630343 
L 292.5203 -127.918947 
L 293.673159 -127.207551 
L 294.766582 -126.496155 
L 295.761441 -125.784759 
L 296.62967 -125.073363 
L 297.35718 -124.361967 
L 297.944464 -123.650572 
L 298.404822 -122.939176 
L 298.760574 -122.22778 
L 299.037906 -121.516384 
L 299.261254 -120.804988 
L 299.448184 -120.093592 
L 299.605674 -119.382196 
L 299.728485 -118.670801 
L 299.8 -117.959405 
L 299.795458 -117.248009 
L 299.687053 -116.536613 
L 299.449963 -115.825217 
L 299.068081 -115.113821 
L 298.538235 -114.402425 
L 297.871962 -113.69103 
L 297.094422 -112.979634 
L 296.24079 -112.268238 
L 295.351016 -111.556842 
L 294.464263 -110.845446 
L 293.614287 -110.13405 
L 292.826603 -109.422654 
L 292.117668 -108.711259 
L 291.495636 -107.999863 
L 290.961825 -107.288467 
L 290.512049 -106.577071 
L 290.137265 -105.865675 
L 289.823583 -105.154279 
L 289.552201 -104.442883 
L 289.300043 -103.731488 
L 289.041674 -103.020092 
L 288.752506 -102.308696 
L 288.412672 -101.5973 
L 288.010441 -100.885904 
L 287.544077 -100.174508 
L 287.021478 -99.463112 
L 286.457703 -98.751717 
L 285.871235 -98.040321 
L 285.28017 -97.328925 
L 284.699458 -96.617529 
L 284.139749 -95.906133 
L 283.607783 -95.194737 
L 283.10771 -94.483341 
L 282.642548 -93.771946 
L 282.215151 -93.06055 
L 281.828431 -92.349154 
L 281.484959 -91.637758 
L 281.186305 -90.926362 
L 280.932485 -90.214966 
L 280.721756 -89.50357 
L 280.550804 -88.792175 
L 280.415199 -88.080779 
L 280.309954 -87.369383 
L 280.230019 -86.657987 
L 280.170637 -85.946591 
L 280.127549 -85.235195 
L 280.097071 -84.523799 
L 280.07611 -83.812404 
z
" style="stroke: #3f3f3f; stroke-width: 1.5"/>
    </defs>
    <g clip-path="url(#pdb883ffaf2)">
     <use xlink:href="#m79f0e39e19" x="0" y="360" style="fill: #3274a1; stroke: #3f3f3f; stroke-width: 1.5"/>
    </g>
   </g>
   <g id="PolyCollection_6">
    <defs>
     <path id="m9e0f5b61d2" d="M 319.589997 -55.977672 
L 319.530003 -55.977672 
L 319.512743 -56.861067 
L 319.487954 -57.744462 
L 319.453484 -58.627857 
L 319.406942 -59.511253 
L 319.345729 -60.394648 
L 319.267075 -61.278043 
L 319.168097 -62.161438 
L 319.045914 -63.044833 
L 318.897872 -63.928228 
L 318.721895 -64.811623 
L 318.516932 -65.695019 
L 318.283406 -66.578414 
L 318.023537 -67.461809 
L 317.741387 -68.345204 
L 317.442557 -69.228599 
L 317.133514 -70.111994 
L 316.820688 -70.995389 
L 316.509469 -71.878785 
L 316.203291 -72.76218 
L 315.902938 -73.645575 
L 315.606136 -74.52897 
L 315.307508 -75.412365 
L 314.99891 -76.29576 
L 314.670189 -77.179155 
L 314.310333 -78.06255 
L 313.908869 -78.945946 
L 313.457265 -79.829341 
L 312.950028 -80.712736 
L 312.38528 -81.596131 
L 311.764794 -82.479526 
L 311.093733 -83.362921 
L 310.380463 -84.246316 
L 309.636772 -85.129712 
L 308.878479 -86.013107 
L 308.12607 -86.896502 
L 307.404619 -87.779897 
L 306.742326 -88.663292 
L 306.167342 -89.546687 
L 305.703231 -90.430082 
L 305.364129 -91.313477 
L 305.151021 -92.196873 
L 305.050488 -93.080268 
L 305.036633 -93.963663 
L 305.075966 -94.847058 
L 305.134099 -95.730453 
L 305.182535 -96.613848 
L 305.20383 -97.497243 
L 305.193931 -98.380639 
L 305.161368 -99.264034 
L 305.123881 -100.147429 
L 305.103694 -101.030824 
L 305.122798 -101.914219 
L 305.199394 -102.797614 
L 305.346008 -103.681009 
L 305.569193 -104.564404 
L 305.870252 -105.4478 
L 306.246288 -106.331195 
L 306.691056 -107.21459 
L 307.195495 -108.097985 
L 307.748157 -108.98138 
L 308.335897 -109.864775 
L 308.945064 -110.74817 
L 309.563064 -111.631566 
L 310.179872 -112.514961 
L 310.788927 -113.398356 
L 311.387014 -114.281751 
L 311.973147 -115.165146 
L 312.546909 -116.048541 
L 313.106919 -116.931936 
L 313.650044 -117.815332 
L 314.171623 -118.698727 
L 314.666499 -119.582122 
L 315.130373 -120.465517 
L 315.560859 -121.348912 
L 315.957828 -122.232307 
L 316.322996 -123.115702 
L 316.658977 -123.999097 
L 316.96825 -124.882493 
L 317.252447 -125.765888 
L 317.512172 -126.649283 
L 317.747349 -127.532678 
L 317.957876 -128.416073 
L 318.144303 -129.299468 
L 318.308265 -130.182863 
L 318.452546 -131.066259 
L 318.580759 -131.949654 
L 318.696775 -132.833049 
L 318.80407 -133.716444 
L 318.905182 -134.599839 
L 319.001401 -135.483234 
L 319.09276 -136.366629 
L 319.178297 -137.250024 
L 319.256498 -138.13342 
L 319.325807 -139.016815 
L 319.385054 -139.90021 
L 319.433736 -140.783605 
L 319.472101 -141.667 
L 319.501056 -142.550395 
L 319.521967 -143.43379 
L 319.598033 -143.43379 
L 319.598033 -143.43379 
L 319.618944 -142.550395 
L 319.647899 -141.667 
L 319.686264 -140.783605 
L 319.734946 -139.90021 
L 319.794193 -139.016815 
L 319.863502 -138.13342 
L 319.941703 -137.250024 
L 320.02724 -136.366629 
L 320.118599 -135.483234 
L 320.214818 -134.599839 
L 320.31593 -133.716444 
L 320.423225 -132.833049 
L 320.539241 -131.949654 
L 320.667454 -131.066259 
L 320.811735 -130.182863 
L 320.975697 -129.299468 
L 321.162124 -128.416073 
L 321.372651 -127.532678 
L 321.607828 -126.649283 
L 321.867553 -125.765888 
L 322.15175 -124.882493 
L 322.461023 -123.999097 
L 322.797004 -123.115702 
L 323.162172 -122.232307 
L 323.559141 -121.348912 
L 323.989627 -120.465517 
L 324.453501 -119.582122 
L 324.948377 -118.698727 
L 325.469956 -117.815332 
L 326.013081 -116.931936 
L 326.573091 -116.048541 
L 327.146853 -115.165146 
L 327.732986 -114.281751 
L 328.331073 -113.398356 
L 328.940128 -112.514961 
L 329.556936 -111.631566 
L 330.174936 -110.74817 
L 330.784103 -109.864775 
L 331.371843 -108.98138 
L 331.924505 -108.097985 
L 332.428944 -107.21459 
L 332.873712 -106.331195 
L 333.249748 -105.4478 
L 333.550807 -104.564404 
L 333.773992 -103.681009 
L 333.920606 -102.797614 
L 333.997202 -101.914219 
L 334.016306 -101.030824 
L 333.996119 -100.147429 
L 333.958632 -99.264034 
L 333.926069 -98.380639 
L 333.91617 -97.497243 
L 333.937465 -96.613848 
L 333.985901 -95.730453 
L 334.044034 -94.847058 
L 334.083367 -93.963663 
L 334.069512 -93.080268 
L 333.968979 -92.196873 
L 333.755871 -91.313477 
L 333.416769 -90.430082 
L 332.952658 -89.546687 
L 332.377674 -88.663292 
L 331.715381 -87.779897 
L 330.99393 -86.896502 
L 330.241521 -86.013107 
L 329.483228 -85.129712 
L 328.739537 -84.246316 
L 328.026267 -83.362921 
L 327.355206 -82.479526 
L 326.73472 -81.596131 
L 326.169972 -80.712736 
L 325.662735 -79.829341 
L 325.211131 -78.945946 
L 324.809667 -78.06255 
L 324.449811 -77.179155 
L 324.12109 -76.29576 
L 323.812492 -75.412365 
L 323.513864 -74.52897 
L 323.217062 -73.645575 
L 322.916709 -72.76218 
L 322.610531 -71.878785 
L 322.299312 -70.995389 
L 321.986486 -70.111994 
L 321.677443 -69.228599 
L 321.378613 -68.345204 
L 321.096463 -67.461809 
L 320.836594 -66.578414 
L 320.603068 -65.695019 
L 320.398105 -64.811623 
L 320.222128 -63.928228 
L 320.074086 -63.044833 
L 319.951903 -62.161438 
L 319.852925 -61.278043 
L 319.774271 -60.394648 
L 319.713058 -59.511253 
L 319.666516 -58.627857 
L 319.632046 -57.744462 
L 319.607257 -56.861067 
L 319.589997 -55.977672 
z
" style="stroke: #3f3f3f; stroke-width: 1.5"/>
    </defs>
    <g clip-path="url(#pdb883ffaf2)">
     <use xlink:href="#m9e0f5b61d2" x="0" y="360" style="fill: #e1812c; stroke: #3f3f3f; stroke-width: 1.5"/>
    </g>
   </g>
   <g id="PathCollection_1"/>
   <g id="PathCollection_2"/>
   <g id="matplotlib.axis_1">
    <g id="xtick_1">
     <g id="line2d_1">
      <defs>
       <path id="m9c4bbf56b0" d="M 0 0 
L 0 3.5 
" style="stroke: #000000; stroke-width: 0.8"/>
      </defs>
      <g>
       <use xlink:href="#m9c4bbf56b0" x="102.2" y="318.2" style="stroke: #000000; stroke-width: 0.8"/>
      </g>
     </g>
     <g id="text_1">
      <!-- Muscle -->
      <g transform="translate(84.897656 332.798437)scale(0.1 -0.1)">
       <defs>
        <path id="DejaVuSans-4d" d="M 628 4666 
L 1569 4666 
L 2759 1491 
L 3956 4666 
L 4897 4666 
L 4897 0 
L 4281 0 
L 4281 4097 
L 3078 897 
L 2444 897 
L 1241 4097 
L 1241 0 
L 628 0 
L 628 4666 
z
" transform="scale(0.015625)"/>
        <path id="DejaVuSans-75" d="M 544 1381 
L 544 3500 
L 1119 3500 
L 1119 1403 
Q 1119 906 1312 657 
Q 1506 409 1894 409 
Q 2359 409 2629 706 
Q 2900 1003 2900 1516 
L 2900 3500 
L 3475 3500 
L 3475 0 
L 2900 0 
L 2900 538 
Q 2691 219 2414 64 
Q 2138 -91 1772 -91 
Q 1169 -91 856 284 
Q 544 659 544 1381 
z
M 1991 3584 
L 1991 3584 
z
" transform="scale(0.015625)"/>
        <path id="DejaVuSans-73" d="M 2834 3397 
L 2834 2853 
Q 2591 2978 2328 3040 
Q 2066 3103 1784 3103 
Q 1356 3103 1142 2972 
Q 928 2841 928 2578 
Q 928 2378 1081 2264 
Q 1234 2150 1697 2047 
L 1894 2003 
Q 2506 1872 2764 1633 
Q 3022 1394 3022 966 
Q 3022 478 2636 193 
Q 2250 -91 1575 -91 
Q 1294 -91 989 -36 
Q 684 19 347 128 
L 347 722 
Q 666 556 975 473 
Q 1284 391 1588 391 
Q 1994 391 2212 530 
Q 2431 669 2431 922 
Q 2431 1156 2273 1281 
Q 2116 1406 1581 1522 
L 1381 1569 
Q 847 1681 609 1914 
Q 372 2147 372 2553 
Q 372 3047 722 3315 
Q 1072 3584 1716 3584 
Q 2034 3584 2315 3537 
Q 2597 3491 2834 3397 
z
" transform="scale(0.015625)"/>
        <path id="DejaVuSans-63" d="M 3122 3366 
L 3122 2828 
Q 2878 2963 2633 3030 
Q 2388 3097 2138 3097 
Q 1578 3097 1268 2742 
Q 959 2388 959 1747 
Q 959 1106 1268 751 
Q 1578 397 2138 397 
Q 2388 397 2633 464 
Q 2878 531 3122 666 
L 3122 134 
Q 2881 22 2623 -34 
Q 2366 -91 2075 -91 
Q 1284 -91 818 406 
Q 353 903 353 1747 
Q 353 2603 823 3093 
Q 1294 3584 2113 3584 
Q 2378 3584 2631 3529 
Q 2884 3475 3122 3366 
z
" transform="scale(0.015625)"/>
        <path id="DejaVuSans-6c" d="M 603 4863 
L 1178 4863 
L 1178 0 
L 603 0 
L 603 4863 
z
" transform="scale(0.015625)"/>
        <path id="DejaVuSans-65" d="M 3597 1894 
L 3597 1613 
L 953 1613 
Q 991 1019 1311 708 
Q 1631 397 2203 397 
Q 2534 397 2845 478 
Q 3156 559 3463 722 
L 3463 178 
Q 3153 47 2828 -22 
Q 2503 -91 2169 -91 
Q 1331 -91 842 396 
Q 353 884 353 1716 
Q 353 2575 817 3079 
Q 1281 3584 2069 3584 
Q 2775 3584 3186 3129 
Q 3597 2675 3597 1894 
z
M 3022 2063 
Q 3016 2534 2758 2815 
Q 2500 3097 2075 3097 
Q 1594 3097 1305 2825 
Q 1016 2553 972 2059 
L 3022 2063 
z
" transform="scale(0.015625)"/>
       </defs>
       <use xlink:href="#DejaVuSans-4d"/>
       <use xlink:href="#DejaVuSans-75" x="86.279297"/>
       <use xlink:href="#DejaVuSans-73" x="149.658203"/>
       <use xlink:href="#DejaVuSans-63" x="201.757812"/>
       <use xlink:href="#DejaVuSans-6c" x="256.738281"/>
       <use xlink:href="#DejaVuSans-65" x="284.521484"/>
      </g>
     </g>
    </g>
    <g id="xtick_2">
     <g id="line2d_2">
      <g>
       <use xlink:href="#m9c4bbf56b0" x="201" y="318.2" style="stroke: #000000; stroke-width: 0.8"/>
      </g>
     </g>
     <g id="text_2">
      <!-- Vitellocytes -->
      <g transform="translate(172.078906 332.798437)scale(0.1 -0.1)">
       <defs>
        <path id="DejaVuSans-56" d="M 1831 0 
L 50 4666 
L 709 4666 
L 2188 738 
L 3669 4666 
L 4325 4666 
L 2547 0 
L 1831 0 
z
" transform="scale(0.015625)"/>
        <path id="DejaVuSans-69" d="M 603 3500 
L 1178 3500 
L 1178 0 
L 603 0 
L 603 3500 
z
M 603 4863 
L 1178 4863 
L 1178 4134 
L 603 4134 
L 603 4863 
z
" transform="scale(0.015625)"/>
        <path id="DejaVuSans-74" d="M 1172 4494 
L 1172 3500 
L 2356 3500 
L 2356 3053 
L 1172 3053 
L 1172 1153 
Q 1172 725 1289 603 
Q 1406 481 1766 481 
L 2356 481 
L 2356 0 
L 1766 0 
Q 1100 0 847 248 
Q 594 497 594 1153 
L 594 3053 
L 172 3053 
L 172 3500 
L 594 3500 
L 594 4494 
L 1172 4494 
z
" transform="scale(0.015625)"/>
        <path id="DejaVuSans-6f" d="M 1959 3097 
Q 1497 3097 1228 2736 
Q 959 2375 959 1747 
Q 959 1119 1226 758 
Q 1494 397 1959 397 
Q 2419 397 2687 759 
Q 2956 1122 2956 1747 
Q 2956 2369 2687 2733 
Q 2419 3097 1959 3097 
z
M 1959 3584 
Q 2709 3584 3137 3096 
Q 3566 2609 3566 1747 
Q 3566 888 3137 398 
Q 2709 -91 1959 -91 
Q 1206 -91 779 398 
Q 353 888 353 1747 
Q 353 2609 779 3096 
Q 1206 3584 1959 3584 
z
" transform="scale(0.015625)"/>
        <path id="DejaVuSans-79" d="M 2059 -325 
Q 1816 -950 1584 -1140 
Q 1353 -1331 966 -1331 
L 506 -1331 
L 506 -850 
L 844 -850 
Q 1081 -850 1212 -737 
Q 1344 -625 1503 -206 
L 1606 56 
L 191 3500 
L 800 3500 
L 1894 763 
L 2988 3500 
L 3597 3500 
L 2059 -325 
z
" transform="scale(0.015625)"/>
       </defs>
       <use xlink:href="#DejaVuSans-56"/>
       <use xlink:href="#DejaVuSans-69" x="66.158203"/>
       <use xlink:href="#DejaVuSans-74" x="93.941406"/>
       <use xlink:href="#DejaVuSans-65" x="133.150391"/>
       <use xlink:href="#DejaVuSans-6c" x="194.673828"/>
       <use xlink:href="#DejaVuSans-6c" x="222.457031"/>
       <use xlink:href="#DejaVuSans-6f" x="250.240234"/>
       <use xlink:href="#DejaVuSans-63" x="311.421875"/>
       <use xlink:href="#DejaVuSans-79" x="366.402344"/>
       <use xlink:href="#DejaVuSans-74" x="425.582031"/>
       <use xlink:href="#DejaVuSans-65" x="464.791016"/>
       <use xlink:href="#DejaVuSans-73" x="526.314453"/>
      </g>
     </g>
    </g>
    <g id="xtick_3">
     <g id="line2d_3">
      <g>
       <use xlink:href="#m9c4bbf56b0" x="299.8" y="318.2" style="stroke: #000000; stroke-width: 0.8"/>
      </g>
     </g>
     <g id="text_3">
      <!-- Background -->
      <g transform="translate(269.972656 332.798437)scale(0.1 -0.1)">
       <defs>
        <path id="DejaVuSans-42" d="M 1259 2228 
L 1259 519 
L 2272 519 
Q 2781 519 3026 730 
Q 3272 941 3272 1375 
Q 3272 1813 3026 2020 
Q 2781 2228 2272 2228 
L 1259 2228 
z
M 1259 4147 
L 1259 2741 
L 2194 2741 
Q 2656 2741 2882 2914 
Q 3109 3088 3109 3444 
Q 3109 3797 2882 3972 
Q 2656 4147 2194 4147 
L 1259 4147 
z
M 628 4666 
L 2241 4666 
Q 2963 4666 3353 4366 
Q 3744 4066 3744 3513 
Q 3744 3084 3544 2831 
Q 3344 2578 2956 2516 
Q 3422 2416 3680 2098 
Q 3938 1781 3938 1306 
Q 3938 681 3513 340 
Q 3088 0 2303 0 
L 628 0 
L 628 4666 
z
" transform="scale(0.015625)"/>
        <path id="DejaVuSans-61" d="M 2194 1759 
Q 1497 1759 1228 1600 
Q 959 1441 959 1056 
Q 959 750 1161 570 
Q 1363 391 1709 391 
Q 2188 391 2477 730 
Q 2766 1069 2766 1631 
L 2766 1759 
L 2194 1759 
z
M 3341 1997 
L 3341 0 
L 2766 0 
L 2766 531 
Q 2569 213 2275 61 
Q 1981 -91 1556 -91 
Q 1019 -91 701 211 
Q 384 513 384 1019 
Q 384 1609 779 1909 
Q 1175 2209 1959 2209 
L 2766 2209 
L 2766 2266 
Q 2766 2663 2505 2880 
Q 2244 3097 1772 3097 
Q 1472 3097 1187 3025 
Q 903 2953 641 2809 
L 641 3341 
Q 956 3463 1253 3523 
Q 1550 3584 1831 3584 
Q 2591 3584 2966 3190 
Q 3341 2797 3341 1997 
z
" transform="scale(0.015625)"/>
        <path id="DejaVuSans-6b" d="M 581 4863 
L 1159 4863 
L 1159 1991 
L 2875 3500 
L 3609 3500 
L 1753 1863 
L 3688 0 
L 2938 0 
L 1159 1709 
L 1159 0 
L 581 0 
L 581 4863 
z
" transform="scale(0.015625)"/>
        <path id="DejaVuSans-67" d="M 2906 1791 
Q 2906 2416 2648 2759 
Q 2391 3103 1925 3103 
Q 1463 3103 1205 2759 
Q 947 2416 947 1791 
Q 947 1169 1205 825 
Q 1463 481 1925 481 
Q 2391 481 2648 825 
Q 2906 1169 2906 1791 
z
M 3481 434 
Q 3481 -459 3084 -895 
Q 2688 -1331 1869 -1331 
Q 1566 -1331 1297 -1286 
Q 1028 -1241 775 -1147 
L 775 -588 
Q 1028 -725 1275 -790 
Q 1522 -856 1778 -856 
Q 2344 -856 2625 -561 
Q 2906 -266 2906 331 
L 2906 616 
Q 2728 306 2450 153 
Q 2172 0 1784 0 
Q 1141 0 747 490 
Q 353 981 353 1791 
Q 353 2603 747 3093 
Q 1141 3584 1784 3584 
Q 2172 3584 2450 3431 
Q 2728 3278 2906 2969 
L 2906 3500 
L 3481 3500 
L 3481 434 
z
" transform="scale(0.015625)"/>
        <path id="DejaVuSans-72" d="M 2631 2963 
Q 2534 3019 2420 3045 
Q 2306 3072 2169 3072 
Q 1681 3072 1420 2755 
Q 1159 2438 1159 1844 
L 1159 0 
L 581 0 
L 581 3500 
L 1159 3500 
L 1159 2956 
Q 1341 3275 1631 3429 
Q 1922 3584 2338 3584 
Q 2397 3584 2469 3576 
Q 2541 3569 2628 3553 
L 2631 2963 
z
" transform="scale(0.015625)"/>
        <path id="DejaVuSans-6e" d="M 3513 2113 
L 3513 0 
L 2938 0 
L 2938 2094 
Q 2938 2591 2744 2837 
Q 2550 3084 2163 3084 
Q 1697 3084 1428 2787 
Q 1159 2491 1159 1978 
L 1159 0 
L 581 0 
L 581 3500 
L 1159 3500 
L 1159 2956 
Q 1366 3272 1645 3428 
Q 1925 3584 2291 3584 
Q 2894 3584 3203 3211 
Q 3513 2838 3513 2113 
z
" transform="scale(0.015625)"/>
        <path id="DejaVuSans-64" d="M 2906 2969 
L 2906 4863 
L 3481 4863 
L 3481 0 
L 2906 0 
L 2906 525 
Q 2725 213 2448 61 
Q 2172 -91 1784 -91 
Q 1150 -91 751 415 
Q 353 922 353 1747 
Q 353 2572 751 3078 
Q 1150 3584 1784 3584 
Q 2172 3584 2448 3432 
Q 2725 3281 2906 2969 
z
M 947 1747 
Q 947 1113 1208 752 
Q 1469 391 1925 391 
Q 2381 391 2643 752 
Q 2906 1113 2906 1747 
Q 2906 2381 2643 2742 
Q 2381 3103 1925 3103 
Q 1469 3103 1208 2742 
Q 947 2381 947 1747 
z
" transform="scale(0.015625)"/>
       </defs>
       <use xlink:href="#DejaVuSans-42"/>
       <use xlink:href="#DejaVuSans-61" x="68.603516"/>
       <use xlink:href="#DejaVuSans-63" x="129.882812"/>
       <use xlink:href="#DejaVuSans-6b" x="184.863281"/>
       <use xlink:href="#DejaVuSans-67" x="242.773438"/>
       <use xlink:href="#DejaVuSans-72" x="306.25"/>
       <use xlink:href="#DejaVuSans-6f" x="345.113281"/>
       <use xlink:href="#DejaVuSans-75" x="406.294922"/>
       <use xlink:href="#DejaVuSans-6e" x="469.673828"/>
       <use xlink:href="#DejaVuSans-64" x="533.052734"/>
      </g>
     </g>
    </g>
    <g id="text_4">
     <!-- Tissue -->
     <g transform="translate(185.258594 346.476562)scale(0.1 -0.1)">
      <defs>
       <path id="DejaVuSans-54" d="M -19 4666 
L 3928 4666 
L 3928 4134 
L 2272 4134 
L 2272 0 
L 1638 0 
L 1638 4134 
L -19 4134 
L -19 4666 
z
" transform="scale(0.015625)"/>
      </defs>
      <use xlink:href="#DejaVuSans-54"/>
      <use xlink:href="#DejaVuSans-69" x="57.958984"/>
      <use xlink:href="#DejaVuSans-73" x="85.742188"/>
      <use xlink:href="#DejaVuSans-73" x="137.841797"/>
      <use xlink:href="#DejaVuSans-75" x="189.941406"/>
      <use xlink:href="#DejaVuSans-65" x="253.320312"/>
     </g>
    </g>
   </g>
   <g id="matplotlib.axis_2">
    <g id="ytick_1">
     <g id="line2d_4">
      <defs>
       <path id="m0084dcaf33" d="M 0 0 
L -3.5 0 
" style="stroke: #000000; stroke-width: 0.8"/>
      </defs>
      <g>
       <use xlink:href="#m0084dcaf33" x="52.8" y="274.847904" style="stroke: #000000; stroke-width: 0.8"/>
      </g>
     </g>
     <g id="text_5">
      <!-- −10 -->
      <g transform="translate(24.695312 278.647122)scale(0.1 -0.1)">
       <defs>
        <path id="DejaVuSans-2212" d="M 678 2272 
L 4684 2272 
L 4684 1741 
L 678 1741 
L 678 2272 
z
" transform="scale(0.015625)"/>
        <path id="DejaVuSans-31" d="M 794 531 
L 1825 531 
L 1825 4091 
L 703 3866 
L 703 4441 
L 1819 4666 
L 2450 4666 
L 2450 531 
L 3481 531 
L 3481 0 
L 794 0 
L 794 531 
z
" transform="scale(0.015625)"/>
        <path id="DejaVuSans-30" d="M 2034 4250 
Q 1547 4250 1301 3770 
Q 1056 3291 1056 2328 
Q 1056 1369 1301 889 
Q 1547 409 2034 409 
Q 2525 409 2770 889 
Q 3016 1369 3016 2328 
Q 3016 3291 2770 3770 
Q 2525 4250 2034 4250 
z
M 2034 4750 
Q 2819 4750 3233 4129 
Q 3647 3509 3647 2328 
Q 3647 1150 3233 529 
Q 2819 -91 2034 -91 
Q 1250 -91 836 529 
Q 422 1150 422 2328 
Q 422 3509 836 4129 
Q 1250 4750 2034 4750 
z
" transform="scale(0.015625)"/>
       </defs>
       <use xlink:href="#DejaVuSans-2212"/>
       <use xlink:href="#DejaVuSans-31" x="83.789062"/>
       <use xlink:href="#DejaVuSans-30" x="147.412109"/>
      </g>
     </g>
    </g>
    <g id="ytick_2">
     <g id="line2d_5">
      <g>
       <use xlink:href="#m0084dcaf33" x="52.8" y="229.823706" style="stroke: #000000; stroke-width: 0.8"/>
      </g>
     </g>
     <g id="text_6">
      <!-- 0 -->
      <g transform="translate(39.4375 233.622925)scale(0.1 -0.1)">
       <use xlink:href="#DejaVuSans-30"/>
      </g>
     </g>
    </g>
    <g id="ytick_3">
     <g id="line2d_6">
      <g>
       <use xlink:href="#m0084dcaf33" x="52.8" y="184.799508" style="stroke: #000000; stroke-width: 0.8"/>
      </g>
     </g>
     <g id="text_7">
      <!-- 10 -->
      <g transform="translate(33.075 188.598727)scale(0.1 -0.1)">
       <use xlink:href="#DejaVuSans-31"/>
       <use xlink:href="#DejaVuSans-30" x="63.623047"/>
      </g>
     </g>
    </g>
    <g id="ytick_4">
     <g id="line2d_7">
      <g>
       <use xlink:href="#m0084dcaf33" x="52.8" y="139.775311" style="stroke: #000000; stroke-width: 0.8"/>
      </g>
     </g>
     <g id="text_8">
      <!-- 20 -->
      <g transform="translate(33.075 143.57453)scale(0.1 -0.1)">
       <defs>
        <path id="DejaVuSans-32" d="M 1228 531 
L 3431 531 
L 3431 0 
L 469 0 
L 469 531 
Q 828 903 1448 1529 
Q 2069 2156 2228 2338 
Q 2531 2678 2651 2914 
Q 2772 3150 2772 3378 
Q 2772 3750 2511 3984 
Q 2250 4219 1831 4219 
Q 1534 4219 1204 4116 
Q 875 4013 500 3803 
L 500 4441 
Q 881 4594 1212 4672 
Q 1544 4750 1819 4750 
Q 2544 4750 2975 4387 
Q 3406 4025 3406 3419 
Q 3406 3131 3298 2873 
Q 3191 2616 2906 2266 
Q 2828 2175 2409 1742 
Q 1991 1309 1228 531 
z
" transform="scale(0.015625)"/>
       </defs>
       <use xlink:href="#DejaVuSans-32"/>
       <use xlink:href="#DejaVuSans-30" x="63.623047"/>
      </g>
     </g>
    </g>
    <g id="ytick_5">
     <g id="line2d_8">
      <g>
       <use xlink:href="#m0084dcaf33" x="52.8" y="94.751113" style="stroke: #000000; stroke-width: 0.8"/>
      </g>
     </g>
     <g id="text_9">
      <!-- 30 -->
      <g transform="translate(33.075 98.550332)scale(0.1 -0.1)">
       <defs>
        <path id="DejaVuSans-33" d="M 2597 2516 
Q 3050 2419 3304 2112 
Q 3559 1806 3559 1356 
Q 3559 666 3084 287 
Q 2609 -91 1734 -91 
Q 1441 -91 1130 -33 
Q 819 25 488 141 
L 488 750 
Q 750 597 1062 519 
Q 1375 441 1716 441 
Q 2309 441 2620 675 
Q 2931 909 2931 1356 
Q 2931 1769 2642 2001 
Q 2353 2234 1838 2234 
L 1294 2234 
L 1294 2753 
L 1863 2753 
Q 2328 2753 2575 2939 
Q 2822 3125 2822 3475 
Q 2822 3834 2567 4026 
Q 2313 4219 1838 4219 
Q 1578 4219 1281 4162 
Q 984 4106 628 3988 
L 628 4550 
Q 988 4650 1302 4700 
Q 1616 4750 1894 4750 
Q 2613 4750 3031 4423 
Q 3450 4097 3450 3541 
Q 3450 3153 3228 2886 
Q 3006 2619 2597 2516 
z
" transform="scale(0.015625)"/>
       </defs>
       <use xlink:href="#DejaVuSans-33"/>
       <use xlink:href="#DejaVuSans-30" x="63.623047"/>
      </g>
     </g>
    </g>
    <g id="ytick_6">
     <g id="line2d_9">
      <g>
       <use xlink:href="#m0084dcaf33" x="52.8" y="49.726916" style="stroke: #000000; stroke-width: 0.8"/>
      </g>
     </g>
     <g id="text_10">
      <!-- 40 -->
      <g transform="translate(33.075 53.526135)scale(0.1 -0.1)">
       <defs>
        <path id="DejaVuSans-34" d="M 2419 4116 
L 825 1625 
L 2419 1625 
L 2419 4116 
z
M 2253 4666 
L 3047 4666 
L 3047 1625 
L 3713 1625 
L 3713 1100 
L 3047 1100 
L 3047 0 
L 2419 0 
L 2419 1100 
L 313 1100 
L 313 1709 
L 2253 4666 
z
" transform="scale(0.015625)"/>
       </defs>
       <use xlink:href="#DejaVuSans-34"/>
       <use xlink:href="#DejaVuSans-30" x="63.623047"/>
      </g>
     </g>
    </g>
    <g id="text_11">
     <!-- Motif Deviations -->
     <g transform="translate(18.615625 205.092969)rotate(-90)scale(0.1 -0.1)">
      <defs>
       <path id="DejaVuSans-66" d="M 2375 4863 
L 2375 4384 
L 1825 4384 
Q 1516 4384 1395 4259 
Q 1275 4134 1275 3809 
L 1275 3500 
L 2222 3500 
L 2222 3053 
L 1275 3053 
L 1275 0 
L 697 0 
L 697 3053 
L 147 3053 
L 147 3500 
L 697 3500 
L 697 3744 
Q 697 4328 969 4595 
Q 1241 4863 1831 4863 
L 2375 4863 
z
" transform="scale(0.015625)"/>
       <path id="DejaVuSans-20" transform="scale(0.015625)"/>
       <path id="DejaVuSans-44" d="M 1259 4147 
L 1259 519 
L 2022 519 
Q 2988 519 3436 956 
Q 3884 1394 3884 2338 
Q 3884 3275 3436 3711 
Q 2988 4147 2022 4147 
L 1259 4147 
z
M 628 4666 
L 1925 4666 
Q 3281 4666 3915 4102 
Q 4550 3538 4550 2338 
Q 4550 1131 3912 565 
Q 3275 0 1925 0 
L 628 0 
L 628 4666 
z
" transform="scale(0.015625)"/>
       <path id="DejaVuSans-76" d="M 191 3500 
L 800 3500 
L 1894 563 
L 2988 3500 
L 3597 3500 
L 2284 0 
L 1503 0 
L 191 3500 
z
" transform="scale(0.015625)"/>
      </defs>
      <use xlink:href="#DejaVuSans-4d"/>
      <use xlink:href="#DejaVuSans-6f" x="86.279297"/>
      <use xlink:href="#DejaVuSans-74" x="147.460938"/>
      <use xlink:href="#DejaVuSans-69" x="186.669922"/>
      <use xlink:href="#DejaVuSans-66" x="214.453125"/>
      <use xlink:href="#DejaVuSans-20" x="249.658203"/>
      <use xlink:href="#DejaVuSans-44" x="281.445312"/>
      <use xlink:href="#DejaVuSans-65" x="358.447266"/>
      <use xlink:href="#DejaVuSans-76" x="419.970703"/>
      <use xlink:href="#DejaVuSans-69" x="479.150391"/>
      <use xlink:href="#DejaVuSans-61" x="506.933594"/>
      <use xlink:href="#DejaVuSans-74" x="568.212891"/>
      <use xlink:href="#DejaVuSans-69" x="607.421875"/>
      <use xlink:href="#DejaVuSans-6f" x="635.205078"/>
      <use xlink:href="#DejaVuSans-6e" x="696.386719"/>
      <use xlink:href="#DejaVuSans-73" x="759.765625"/>
     </g>
    </g>
   </g>
   <g id="line2d_10">
    <path d="M 82.44 241.954726 
L 82.44 169.438688 
" clip-path="url(#pdb883ffaf2)" style="fill: none; stroke: #3f3f3f; stroke-width: 1.5; stroke-linecap: square"/>
   </g>
   <g id="line2d_11">
    <path d="M 82.44 210.445657 
L 82.44 188.575805 
" clip-path="url(#pdb883ffaf2)" style="fill: none; stroke: #3f3f3f; stroke-width: 4.5; stroke-linecap: square"/>
   </g>
   <g id="line2d_12">
    <path d="M 121.96 255.45871 
L 121.96 61.854117 
" clip-path="url(#pdb883ffaf2)" style="fill: none; stroke: #3f3f3f; stroke-width: 1.5; stroke-linecap: square"/>
   </g>
   <g id="line2d_13">
    <path d="M 121.96 177.512141 
L 121.96 124.194433 
" clip-path="url(#pdb883ffaf2)" style="fill: none; stroke: #3f3f3f; stroke-width: 4.5; stroke-linecap: square"/>
   </g>
   <g id="line2d_14">
    <path d="M 181.24 219.09475 
L 181.24 173.116707 
" clip-path="url(#pdb883ffaf2)" style="fill: none; stroke: #3f3f3f; stroke-width: 1.5; stroke-linecap: square"/>
   </g>
   <g id="line2d_15">
    <path d="M 181.24 196.160033 
L 181.24 177.18404 
" clip-path="url(#pdb883ffaf2)" style="fill: none; stroke: #3f3f3f; stroke-width: 4.5; stroke-linecap: square"/>
   </g>
   <g id="line2d_16">
    <path d="M 220.76 258.161393 
L 220.76 230.402196 
" clip-path="url(#pdb883ffaf2)" style="fill: none; stroke: #3f3f3f; stroke-width: 1.5; stroke-linecap: square"/>
   </g>
   <g id="line2d_17">
    <path d="M 220.76 244.311769 
L 220.76 233.724673 
" clip-path="url(#pdb883ffaf2)" style="fill: none; stroke: #3f3f3f; stroke-width: 4.5; stroke-linecap: square"/>
   </g>
   <g id="line2d_18">
    <path d="M 280.04 269.374084 
L 280.04 216.554526 
" clip-path="url(#pdb883ffaf2)" style="fill: none; stroke: #3f3f3f; stroke-width: 1.5; stroke-linecap: square"/>
   </g>
   <g id="line2d_19">
    <path d="M 280.04 249.759452 
L 280.04 235.449321 
" clip-path="url(#pdb883ffaf2)" style="fill: none; stroke: #3f3f3f; stroke-width: 4.5; stroke-linecap: square"/>
   </g>
   <g id="line2d_20">
    <path d="M 319.56 295.594452 
L 319.56 226.030976 
" clip-path="url(#pdb883ffaf2)" style="fill: none; stroke: #3f3f3f; stroke-width: 1.5; stroke-linecap: square"/>
   </g>
   <g id="line2d_21">
    <path d="M 319.56 270.247898 
L 319.56 252.408619 
" clip-path="url(#pdb883ffaf2)" style="fill: none; stroke: #3f3f3f; stroke-width: 4.5; stroke-linecap: square"/>
   </g>
   <g id="line2d_22">
    <path d="M 52.8 229.823706 
L 349.2 229.823706 
" clip-path="url(#pdb883ffaf2)" style="fill: none; stroke: #1f77b4; stroke-width: 1.5; stroke-linecap: square"/>
   </g>
   <g id="PathCollection_3">
    <defs>
     <path id="meb212ca952" d="M 0 1.5 
C 0.397805 1.5 0.77937 1.341951 1.06066 1.06066 
C 1.341951 0.77937 1.5 0.397805 1.5 0 
C 1.5 -0.397805 1.341951 -0.77937 1.06066 -1.06066 
C 0.77937 -1.341951 0.397805 -1.5 0 -1.5 
C -0.397805 -1.5 -0.77937 -1.341951 -1.06066 -1.06066 
C -1.341951 -0.77937 -1.5 -0.397805 -1.5 0 
C -1.5 0.397805 -1.341951 0.77937 -1.06066 1.06066 
C -0.77937 1.341951 -0.397805 1.5 0 1.5 
z
" style="stroke: #3f3f3f"/>
    </defs>
    <g clip-path="url(#pdb883ffaf2)">
     <use xlink:href="#meb212ca952" x="82.44" y="199.160319" style="fill: #ffffff; stroke: #3f3f3f"/>
    </g>
   </g>
   <g id="PathCollection_4">
    <g clip-path="url(#pdb883ffaf2)">
     <use xlink:href="#meb212ca952" x="121.96" y="143.027798" style="fill: #ffffff; stroke: #3f3f3f"/>
    </g>
   </g>
   <g id="PathCollection_5">
    <g clip-path="url(#pdb883ffaf2)">
     <use xlink:href="#meb212ca952" x="181.24" y="183.514196" style="fill: #ffffff; stroke: #3f3f3f"/>
    </g>
   </g>
   <g id="PathCollection_6">
    <g clip-path="url(#pdb883ffaf2)">
     <use xlink:href="#meb212ca952" x="220.76" y="237.375482" style="fill: #ffffff; stroke: #3f3f3f"/>
    </g>
   </g>
   <g id="PathCollection_7">
    <g clip-path="url(#pdb883ffaf2)">
     <use xlink:href="#meb212ca952" x="280.04" y="242.455169" style="fill: #ffffff; stroke: #3f3f3f"/>
    </g>
   </g>
   <g id="PathCollection_8">
    <g clip-path="url(#pdb883ffaf2)">
     <use xlink:href="#meb212ca952" x="319.56" y="261.421905" style="fill: #ffffff; stroke: #3f3f3f"/>
    </g>
   </g>
   <g id="PathCollection_9">
    <defs>
     <path id="m615d6cd66e" d="M -0 1.767767 
L 1.767767 0 
L 0 -1.767767 
L -1.767767 -0 
z
"/>
    </defs>
    <g clip-path="url(#pdb883ffaf2)">
     <use xlink:href="#m615d6cd66e" x="82.44" y="245.242271" style="fill: #1f77b4"/>
    </g>
   </g>
   <g id="PathCollection_10">
    <path d="M 121.96 276.56782 
L 123.727767 274.800053 
L 121.96 273.032286 
L 120.192233 274.800053 
z
" clip-path="url(#pdb883ffaf2)" style="fill: #ff7f0e"/>
    <path d="M 121.96 273.636234 
L 123.727767 271.868467 
L 121.96 270.1007 
L 120.192233 271.868467 
z
" clip-path="url(#pdb883ffaf2)" style="fill: #ff7f0e"/>
   </g>
   <g id="PathCollection_11">
    <path d="M 0.767767 361 
L 1.767767 360 
L 0 358.232233 
L -1 359.232233 
M -1 360.767767 
L -0.767767 361 
" clip-path="url(#pdb883ffaf2)" style="fill: none"/>
   </g>
   <g id="PathCollection_12">
    <defs>
     <path id="m5ad960079a" d="M -0 1.767767 
L 1.767767 0 
L 0 -1.767767 
L -1.767767 -0 
z
"/>
    </defs>
    <g clip-path="url(#pdb883ffaf2)">
     <use xlink:href="#m5ad960079a" x="220.76" y="170.780608" style="fill: #ff7f0e"/>
    </g>
   </g>
   <g id="PathCollection_13">
    <defs>
     <path id="C0_0_035b48f390" d="M -0 1.767767 
L 1.767767 -0 
L 0 -1.767767 
L -1.767767 -0 
z
"/>
    </defs>
    <g clip-path="url(#pdb883ffaf2)">
     <use xlink:href="#C0_0_035b48f390" x="280.04" y="197.229114" style="fill: #1f77b4"/>
    </g>
    <g clip-path="url(#pdb883ffaf2)">
     <use xlink:href="#C0_0_035b48f390" x="280.04" y="207.024993" style="fill: #1f77b4"/>
    </g>
    <g clip-path="url(#pdb883ffaf2)">
     <use xlink:href="#C0_0_035b48f390" x="280.04" y="197.308778" style="fill: #1f77b4"/>
    </g>
    <g clip-path="url(#pdb883ffaf2)">
     <use xlink:href="#C0_0_035b48f390" x="280.04" y="198.384572" style="fill: #1f77b4"/>
    </g>
    <g clip-path="url(#pdb883ffaf2)">
     <use xlink:href="#C0_0_035b48f390" x="280.04" y="197.581894" style="fill: #1f77b4"/>
    </g>
    <g clip-path="url(#pdb883ffaf2)">
     <use xlink:href="#C0_0_035b48f390" x="280.04" y="197.319888" style="fill: #1f77b4"/>
    </g>
    <g clip-path="url(#pdb883ffaf2)">
     <use xlink:href="#C0_0_035b48f390" x="280.04" y="202.319028" style="fill: #1f77b4"/>
    </g>
    <g clip-path="url(#pdb883ffaf2)">
     <use xlink:href="#C0_0_035b48f390" x="280.04" y="200.333498" style="fill: #1f77b4"/>
    </g>
    <g clip-path="url(#pdb883ffaf2)">
     <use xlink:href="#C0_0_035b48f390" x="280.04" y="198.823869" style="fill: #1f77b4"/>
    </g>
    <g clip-path="url(#pdb883ffaf2)">
     <use xlink:href="#C0_0_035b48f390" x="280.04" y="200.971842" style="fill: #1f77b4"/>
    </g>
    <g clip-path="url(#pdb883ffaf2)">
     <use xlink:href="#C0_0_035b48f390" x="280.04" y="204.825747" style="fill: #1f77b4"/>
    </g>
    <g clip-path="url(#pdb883ffaf2)">
     <use xlink:href="#C0_0_035b48f390" x="280.04" y="197.272525" style="fill: #1f77b4"/>
    </g>
    <g clip-path="url(#pdb883ffaf2)">
     <use xlink:href="#C0_0_035b48f390" x="280.04" y="199.912933" style="fill: #1f77b4"/>
    </g>
    <g clip-path="url(#pdb883ffaf2)">
     <use xlink:href="#C0_0_035b48f390" x="280.04" y="206.351405" style="fill: #1f77b4"/>
    </g>
    <g clip-path="url(#pdb883ffaf2)">
     <use xlink:href="#C0_0_035b48f390" x="280.04" y="199.120773" style="fill: #1f77b4"/>
    </g>
    <g clip-path="url(#pdb883ffaf2)">
     <use xlink:href="#C0_0_035b48f390" x="280.04" y="193.464937" style="fill: #1f77b4"/>
    </g>
    <g clip-path="url(#pdb883ffaf2)">
     <use xlink:href="#C0_0_035b48f390" x="280.04" y="195.265081" style="fill: #1f77b4"/>
    </g>
    <g clip-path="url(#pdb883ffaf2)">
     <use xlink:href="#C0_0_035b48f390" x="280.04" y="200.0209" style="fill: #1f77b4"/>
    </g>
    <g clip-path="url(#pdb883ffaf2)">
     <use xlink:href="#C0_0_035b48f390" x="280.04" y="197.634751" style="fill: #1f77b4"/>
    </g>
    <g clip-path="url(#pdb883ffaf2)">
     <use xlink:href="#C0_0_035b48f390" x="280.04" y="202.077611" style="fill: #1f77b4"/>
    </g>
    <g clip-path="url(#pdb883ffaf2)">
     <use xlink:href="#C0_0_035b48f390" x="280.04" y="200.751797" style="fill: #1f77b4"/>
    </g>
   </g>
   <g id="PathCollection_14">
    <path d="M 319.56 213.080026 
L 321.327767 211.312259 
L 319.56 209.544492 
L 317.792233 211.312259 
z
" clip-path="url(#pdb883ffaf2)" style="fill: #ff7f0e"/>
    <path d="M 319.56 224.9054 
L 321.327767 223.137634 
L 319.56 221.369867 
L 317.792233 223.137634 
z
" clip-path="url(#pdb883ffaf2)" style="fill: #ff7f0e"/>
    <path d="M 319.56 217.246864 
L 321.327767 215.479097 
L 319.56 213.71133 
L 317.792233 215.479097 
z
" clip-path="url(#pdb883ffaf2)" style="fill: #ff7f0e"/>
    <path d="M 319.56 195.787956 
L 321.327767 194.020189 
L 319.56 192.252422 
L 317.792233 194.020189 
z
" clip-path="url(#pdb883ffaf2)" style="fill: #ff7f0e"/>
    <path d="M 319.56 304.36709 
L 321.327767 302.599323 
L 319.56 300.831556 
L 317.792233 302.599323 
z
" clip-path="url(#pdb883ffaf2)" style="fill: #ff7f0e"/>
    <path d="M 319.56 225.987477 
L 321.327767 224.21971 
L 319.56 222.451943 
L 317.792233 224.21971 
z
" clip-path="url(#pdb883ffaf2)" style="fill: #ff7f0e"/>
    <path d="M 319.56 305.99504 
L 321.327767 304.227273 
L 319.56 302.459506 
L 317.792233 304.227273 
z
" clip-path="url(#pdb883ffaf2)" style="fill: #ff7f0e"/>
   </g>
   <g id="legend_1">
    <g id="patch_5">
     <path d="M 261.1125 92.190625 
L 342.2 92.190625 
Q 344.2 92.190625 344.2 90.190625 
L 344.2 17.8 
Q 344.2 15.8 342.2 15.8 
L 261.1125 15.8 
Q 259.1125 15.8 259.1125 17.8 
L 259.1125 90.190625 
Q 259.1125 92.190625 261.1125 92.190625 
z
" style="fill: #ffffff; opacity: 0.8; stroke: #cccccc; stroke-linejoin: miter"/>
    </g>
    <g id="text_12">
     <!-- Motif -->
     <g transform="translate(289.173437 27.398438)scale(0.1 -0.1)">
      <use xlink:href="#DejaVuSans-4d"/>
      <use xlink:href="#DejaVuSans-6f" x="86.279297"/>
      <use xlink:href="#DejaVuSans-74" x="147.460938"/>
      <use xlink:href="#DejaVuSans-69" x="186.669922"/>
      <use xlink:href="#DejaVuSans-66" x="214.453125"/>
     </g>
    </g>
    <g id="patch_6">
     <path d="M 263.1125 42.076563 
L 283.1125 42.076563 
L 283.1125 35.076563 
L 263.1125 35.076563 
z
" style="fill: #3274a1; stroke: #3f3f3f; stroke-width: 0.75; stroke-linejoin: miter"/>
    </g>
    <g id="text_13">
     <!-- Canonical -->
     <g transform="translate(291.1125 42.076563)scale(0.1 -0.1)">
      <defs>
       <path id="DejaVuSans-43" d="M 4122 4306 
L 4122 3641 
Q 3803 3938 3442 4084 
Q 3081 4231 2675 4231 
Q 1875 4231 1450 3742 
Q 1025 3253 1025 2328 
Q 1025 1406 1450 917 
Q 1875 428 2675 428 
Q 3081 428 3442 575 
Q 3803 722 4122 1019 
L 4122 359 
Q 3791 134 3420 21 
Q 3050 -91 2638 -91 
Q 1578 -91 968 557 
Q 359 1206 359 2328 
Q 359 3453 968 4101 
Q 1578 4750 2638 4750 
Q 3056 4750 3426 4639 
Q 3797 4528 4122 4306 
z
" transform="scale(0.015625)"/>
      </defs>
      <use xlink:href="#DejaVuSans-43"/>
      <use xlink:href="#DejaVuSans-61" x="69.824219"/>
      <use xlink:href="#DejaVuSans-6e" x="131.103516"/>
      <use xlink:href="#DejaVuSans-6f" x="194.482422"/>
      <use xlink:href="#DejaVuSans-6e" x="255.664062"/>
      <use xlink:href="#DejaVuSans-69" x="319.042969"/>
      <use xlink:href="#DejaVuSans-63" x="346.826172"/>
      <use xlink:href="#DejaVuSans-61" x="401.806641"/>
      <use xlink:href="#DejaVuSans-6c" x="463.085938"/>
     </g>
    </g>
    <g id="patch_7">
     <path d="M 263.1125 56.754688 
L 283.1125 56.754688 
L 283.1125 49.754688 
L 263.1125 49.754688 
z
" style="fill: #e1812c; stroke: #3f3f3f; stroke-width: 0.75; stroke-linejoin: miter"/>
    </g>
    <g id="text_14">
     <!-- Novel -->
     <g transform="translate(291.1125 56.754688)scale(0.1 -0.1)">
      <defs>
       <path id="DejaVuSans-4e" d="M 628 4666 
L 1478 4666 
L 3547 763 
L 3547 4666 
L 4159 4666 
L 4159 0 
L 3309 0 
L 1241 3903 
L 1241 0 
L 628 0 
L 628 4666 
z
" transform="scale(0.015625)"/>
      </defs>
      <use xlink:href="#DejaVuSans-4e"/>
      <use xlink:href="#DejaVuSans-6f" x="74.804688"/>
      <use xlink:href="#DejaVuSans-76" x="135.986328"/>
      <use xlink:href="#DejaVuSans-65" x="195.166016"/>
      <use xlink:href="#DejaVuSans-6c" x="256.689453"/>
     </g>
    </g>
    <g id="PathCollection_15">
     <defs>
      <path id="m00da1bcfd0" d="M 0 3.872983 
C 1.027127 3.872983 2.012324 3.464901 2.738613 2.738613 
C 3.464901 2.012324 3.872983 1.027127 3.872983 0 
C 3.872983 -1.027127 3.464901 -2.012324 2.738613 -2.738613 
C 2.012324 -3.464901 1.027127 -3.872983 0 -3.872983 
C -1.027127 -3.872983 -2.012324 -3.464901 -2.738613 -2.738613 
C -3.464901 -2.012324 -3.872983 -1.027127 -3.872983 0 
C -3.872983 1.027127 -3.464901 2.012324 -2.738613 2.738613 
C -2.012324 3.464901 -1.027127 3.872983 0 3.872983 
z
" style="stroke: #1f77b4"/>
     </defs>
     <g>
      <use xlink:href="#m00da1bcfd0" x="273.1125" y="68.807813" style="fill: #1f77b4; stroke: #1f77b4"/>
     </g>
    </g>
    <g id="text_15">
     <!-- Canonical -->
     <g transform="translate(291.1125 71.432813)scale(0.1 -0.1)">
      <use xlink:href="#DejaVuSans-43"/>
      <use xlink:href="#DejaVuSans-61" x="69.824219"/>
      <use xlink:href="#DejaVuSans-6e" x="131.103516"/>
      <use xlink:href="#DejaVuSans-6f" x="194.482422"/>
      <use xlink:href="#DejaVuSans-6e" x="255.664062"/>
      <use xlink:href="#DejaVuSans-69" x="319.042969"/>
      <use xlink:href="#DejaVuSans-63" x="346.826172"/>
      <use xlink:href="#DejaVuSans-61" x="401.806641"/>
      <use xlink:href="#DejaVuSans-6c" x="463.085938"/>
     </g>
    </g>
    <g id="PathCollection_16">
     <defs>
      <path id="me1f3f7cc90" d="M 0 3.872983 
C 1.027127 3.872983 2.012324 3.464901 2.738613 2.738613 
C 3.464901 2.012324 3.872983 1.027127 3.872983 0 
C 3.872983 -1.027127 3.464901 -2.012324 2.738613 -2.738613 
C 2.012324 -3.464901 1.027127 -3.872983 0 -3.872983 
C -1.027127 -3.872983 -2.012324 -3.464901 -2.738613 -2.738613 
C -3.464901 -2.012324 -3.872983 -1.027127 -3.872983 0 
C -3.872983 1.027127 -3.464901 2.012324 -2.738613 2.738613 
C -2.012324 3.464901 -1.027127 3.872983 0 3.872983 
z
" style="stroke: #ff7f0e"/>
     </defs>
     <g>
      <use xlink:href="#me1f3f7cc90" x="273.1125" y="83.485938" style="fill: #ff7f0e; stroke: #ff7f0e"/>
     </g>
    </g>
    <g id="text_16">
     <!-- Novel -->
     <g transform="translate(291.1125 86.110938)scale(0.1 -0.1)">
      <use xlink:href="#DejaVuSans-4e"/>
      <use xlink:href="#DejaVuSans-6f" x="74.804688"/>
      <use xlink:href="#DejaVuSans-76" x="135.986328"/>
      <use xlink:href="#DejaVuSans-65" x="195.166016"/>
      <use xlink:href="#DejaVuSans-6c" x="256.689453"/>
     </g>
    </g>
   </g>
  </g>
 </g>
 <defs>
  <clipPath id="pdb883ffaf2">
   <rect x="52.8" y="10.8" width="296.4" height="307.4"/>
  </clipPath>
 </defs>
</svg>
