<?xml version="1.0" encoding="utf-8" standalone="no"?>
<!DOCTYPE svg PUBLIC "-//W3C//DTD SVG 1.1//EN"
  "http://www.w3.org/Graphics/SVG/1.1/DTD/svg11.dtd">
<svg xmlns:xlink="http://www.w3.org/1999/xlink" width="432pt" height="864pt" viewBox="0 0 432 864" xmlns="http://www.w3.org/2000/svg" version="1.1">
 <metadata>
  <rdf:RDF xmlns:dc="http://purl.org/dc/elements/1.1/" xmlns:cc="http://creativecommons.org/ns#" xmlns:rdf="http://www.w3.org/1999/02/22-rdf-syntax-ns#">
   <cc:Work>
    <dc:type rdf:resource="http://purl.org/dc/dcmitype/StillImage"/>
    <dc:date>2024-04-22T18:19:01.976022</dc:date>
    <dc:format>image/svg+xml</dc:format>
    <dc:creator>
     <cc:Agent>
      <dc:title>Matplotlib v3.5.3, https://matplotlib.org/</dc:title>
     </cc:Agent>
    </dc:creator>
   </cc:Work>
  </rdf:RDF>
 </metadata>
 <defs>
  <style type="text/css">*{stroke-linejoin: round; stroke-linecap: butt}</style>
 </defs>
 <g id="figure_1">
  <g id="patch_1">
   <path d="M 0 864 
L 432 864 
L 432 0 
L 0 0 
L 0 864 
z
" style="fill: none"/>
  </g>
  <g id="axes_1">
   <g id="patch_2">
    <path d="M 54 756 
L 388.8 756 
L 388.8 103.68 
L 54 103.68 
z
" style="fill: #ffffff"/>
   </g>
   <g id="patch_3">
    <path d="M 54 111.092727 
L 154.928914 111.092727 
L 154.928914 125.918182 
L 54 125.918182 
z
" clip-path="url(#p9dada3ea61)" style="fill: #1f77b4"/>
   </g>
   <g id="patch_4">
    <path d="M 54 140.743636 
L 182.918789 140.743636 
L 182.918789 155.569091 
L 54 155.569091 
z
" clip-path="url(#p9dada3ea61)" style="fill: #1f77b4"/>
   </g>
   <g id="patch_5">
    <path d="M 54 170.394545 
L 291.791768 170.394545 
L 291.791768 185.22 
L 54 185.22 
z
" clip-path="url(#p9dada3ea61)" style="fill: #1f77b4"/>
   </g>
   <g id="patch_6">
    <path d="M 54 200.045455 
L 220.360248 200.045455 
L 220.360248 214.870909 
L 54 214.870909 
z
" clip-path="url(#p9dada3ea61)" style="fill: #1f77b4"/>
   </g>
   <g id="patch_7">
    <path d="M 54 229.696364 
L 114.335649 229.696364 
L 114.335649 244.521818 
L 54 244.521818 
z
" clip-path="url(#p9dada3ea61)" style="fill: #1f77b4"/>
   </g>
   <g id="patch_8">
    <path d="M 54 259.347273 
L 56.604096 259.347273 
L 56.604096 274.172727 
L 54 274.172727 
z
" clip-path="url(#p9dada3ea61)" style="fill: #1f77b4"/>
   </g>
   <g id="patch_9">
    <path d="M 54 288.998182 
L 101.679573 288.998182 
L 101.679573 303.823636 
L 54 303.823636 
z
" clip-path="url(#p9dada3ea61)" style="fill: #1f77b4"/>
   </g>
   <g id="patch_10">
    <path d="M 54 318.649091 
L 122.60771 318.649091 
L 122.60771 333.474545 
L 54 333.474545 
z
" clip-path="url(#p9dada3ea61)" style="fill: #1f77b4"/>
   </g>
   <g id="patch_11">
    <path d="M 54 348.3 
L 122.275464 348.3 
L 122.275464 363.125455 
L 54 363.125455 
z
" clip-path="url(#p9dada3ea61)" style="fill: #1f77b4"/>
   </g>
   <g id="patch_12">
    <path d="M 54 377.950909 
L 114.957983 377.950909 
L 114.957983 392.776364 
L 54 392.776364 
z
" clip-path="url(#p9dada3ea61)" style="fill: #1f77b4"/>
   </g>
   <g id="patch_13">
    <path d="M 54 407.601818 
L 114.777465 407.601818 
L 114.777465 422.427273 
L 54 422.427273 
z
" clip-path="url(#p9dada3ea61)" style="fill: #1f77b4"/>
   </g>
   <g id="patch_14">
    <path d="M 54 437.252727 
L 135.593074 437.252727 
L 135.593074 452.078182 
L 54 452.078182 
z
" clip-path="url(#p9dada3ea61)" style="fill: #1f77b4"/>
   </g>
   <g id="patch_15">
    <path d="M 54 466.903636 
L 109.731478 466.903636 
L 109.731478 481.729091 
L 54 481.729091 
z
" clip-path="url(#p9dada3ea61)" style="fill: #1f77b4"/>
   </g>
   <g id="patch_16">
    <path d="M 54 496.554545 
L 139.107798 496.554545 
L 139.107798 511.38 
L 54 511.38 
z
" clip-path="url(#p9dada3ea61)" style="fill: #1f77b4"/>
   </g>
   <g id="patch_17">
    <path d="M 54 526.205455 
L 139.846154 526.205455 
L 139.846154 541.030909 
L 54 541.030909 
z
" clip-path="url(#p9dada3ea61)" style="fill: #1f77b4"/>
   </g>
   <g id="patch_18">
    <path d="M 54 555.856364 
L 144.475714 555.856364 
L 144.475714 570.681818 
L 54 570.681818 
z
" clip-path="url(#p9dada3ea61)" style="fill: #1f77b4"/>
   </g>
   <g id="patch_19">
    <path d="M 54 585.507273 
L 125.065721 585.507273 
L 125.065721 600.332727 
L 54 600.332727 
z
" clip-path="url(#p9dada3ea61)" style="fill: #1f77b4"/>
   </g>
   <g id="patch_20">
    <path d="M 54 615.158182 
L 164.194714 615.158182 
L 164.194714 629.983636 
L 54 629.983636 
z
" clip-path="url(#p9dada3ea61)" style="fill: #1f77b4"/>
   </g>
   <g id="patch_21">
    <path d="M 54 644.809091 
L 141.090301 644.809091 
L 141.090301 659.634545 
L 54 659.634545 
z
" clip-path="url(#p9dada3ea61)" style="fill: #1f77b4"/>
   </g>
   <g id="patch_22">
    <path d="M 54 674.46 
L 292.442732 674.46 
L 292.442732 689.285455 
L 54 689.285455 
z
" clip-path="url(#p9dada3ea61)" style="fill: #1f77b4"/>
   </g>
   <g id="patch_23">
    <path d="M 54 704.110909 
L 158.04812 704.110909 
L 158.04812 718.936364 
L 54 718.936364 
z
" clip-path="url(#p9dada3ea61)" style="fill: #1f77b4"/>
   </g>
   <g id="patch_24">
    <path d="M 54 733.761818 
L 142.034632 733.761818 
L 142.034632 748.587273 
L 54 748.587273 
z
" clip-path="url(#p9dada3ea61)" style="fill: #1f77b4"/>
   </g>
   <g id="patch_25">
    <path d="M 154.928914 111.092727 
L 254.497371 111.092727 
L 254.497371 125.918182 
L 154.928914 125.918182 
z
" clip-path="url(#p9dada3ea61)" style="fill: #ff7f0e"/>
   </g>
   <g id="patch_26">
    <path d="M 182.918789 140.743636 
L 352.816403 140.743636 
L 352.816403 155.569091 
L 182.918789 155.569091 
z
" clip-path="url(#p9dada3ea61)" style="fill: #ff7f0e"/>
   </g>
   <g id="patch_27">
    <path d="M 291.791768 170.394545 
L 367.452785 170.394545 
L 367.452785 185.22 
L 291.791768 185.22 
z
" clip-path="url(#p9dada3ea61)" style="fill: #ff7f0e"/>
   </g>
   <g id="patch_28">
    <path d="M 220.360248 200.045455 
L 372.857143 200.045455 
L 372.857143 214.870909 
L 220.360248 214.870909 
z
" clip-path="url(#p9dada3ea61)" style="fill: #ff7f0e"/>
   </g>
   <g id="patch_29">
    <path d="M 114.335649 229.696364 
L 158.74939 229.696364 
L 158.74939 244.521818 
L 114.335649 244.521818 
z
" clip-path="url(#p9dada3ea61)" style="fill: #ff7f0e"/>
   </g>
   <g id="patch_30">
    <path d="M 56.604096 259.347273 
L 60.365569 259.347273 
L 60.365569 274.172727 
L 56.604096 274.172727 
z
" clip-path="url(#p9dada3ea61)" style="fill: #ff7f0e"/>
   </g>
   <g id="patch_31">
    <path d="M 101.679573 288.998182 
L 159.29239 288.998182 
L 159.29239 303.823636 
L 101.679573 303.823636 
z
" clip-path="url(#p9dada3ea61)" style="fill: #ff7f0e"/>
   </g>
   <g id="patch_32">
    <path d="M 122.60771 318.649091 
L 193.652305 318.649091 
L 193.652305 333.474545 
L 122.60771 333.474545 
z
" clip-path="url(#p9dada3ea61)" style="fill: #ff7f0e"/>
   </g>
   <g id="patch_33">
    <path d="M 122.275464 348.3 
L 180.184497 348.3 
L 180.184497 363.125455 
L 122.275464 363.125455 
z
" clip-path="url(#p9dada3ea61)" style="fill: #ff7f0e"/>
   </g>
   <g id="patch_34">
    <path d="M 114.957983 377.950909 
L 180.605042 377.950909 
L 180.605042 392.776364 
L 114.957983 392.776364 
z
" clip-path="url(#p9dada3ea61)" style="fill: #ff7f0e"/>
   </g>
   <g id="patch_35">
    <path d="M 114.777465 407.601818 
L 162.830584 407.601818 
L 162.830584 422.427273 
L 114.777465 422.427273 
z
" clip-path="url(#p9dada3ea61)" style="fill: #ff7f0e"/>
   </g>
   <g id="patch_36">
    <path d="M 135.593074 437.252727 
L 202.155844 437.252727 
L 202.155844 452.078182 
L 135.593074 452.078182 
z
" clip-path="url(#p9dada3ea61)" style="fill: #ff7f0e"/>
   </g>
   <g id="patch_37">
    <path d="M 109.731478 466.903636 
L 156.326648 466.903636 
L 156.326648 481.729091 
L 109.731478 481.729091 
z
" clip-path="url(#p9dada3ea61)" style="fill: #ff7f0e"/>
   </g>
   <g id="patch_38">
    <path d="M 139.107798 496.554545 
L 225.129751 496.554545 
L 225.129751 511.38 
L 139.107798 511.38 
z
" clip-path="url(#p9dada3ea61)" style="fill: #ff7f0e"/>
   </g>
   <g id="patch_39">
    <path d="M 139.846154 526.205455 
L 218.027473 526.205455 
L 218.027473 541.030909 
L 139.846154 541.030909 
z
" clip-path="url(#p9dada3ea61)" style="fill: #ff7f0e"/>
   </g>
   <g id="patch_40">
    <path d="M 144.475714 555.856364 
L 233.157857 555.856364 
L 233.157857 570.681818 
L 144.475714 570.681818 
z
" clip-path="url(#p9dada3ea61)" style="fill: #ff7f0e"/>
   </g>
   <g id="patch_41">
    <path d="M 125.065721 585.507273 
L 184.868197 585.507273 
L 184.868197 600.332727 
L 125.065721 600.332727 
z
" clip-path="url(#p9dada3ea61)" style="fill: #ff7f0e"/>
   </g>
   <g id="patch_42">
    <path d="M 164.194714 615.158182 
L 282.793779 615.158182 
L 282.793779 629.983636 
L 164.194714 629.983636 
z
" clip-path="url(#p9dada3ea61)" style="fill: #ff7f0e"/>
   </g>
   <g id="patch_43">
    <path d="M 141.090301 644.809091 
L 221.07119 644.809091 
L 221.07119 659.634545 
L 141.090301 659.634545 
z
" clip-path="url(#p9dada3ea61)" style="fill: #ff7f0e"/>
   </g>
   <g id="patch_44">
    <path d="M 292.442732 674.46 
L 372.857143 674.46 
L 372.857143 689.285455 
L 292.442732 689.285455 
z
" clip-path="url(#p9dada3ea61)" style="fill: #ff7f0e"/>
   </g>
   <g id="patch_45">
    <path d="M 158.04812 704.110909 
L 305.729323 704.110909 
L 305.729323 718.936364 
L 158.04812 718.936364 
z
" clip-path="url(#p9dada3ea61)" style="fill: #ff7f0e"/>
   </g>
   <g id="patch_46">
    <path d="M 142.034632 733.761818 
L 233.290043 733.761818 
L 233.290043 748.587273 
L 142.034632 748.587273 
z
" clip-path="url(#p9dada3ea61)" style="fill: #ff7f0e"/>
   </g>
   <g id="patch_47">
    <path d="M 254.497371 111.092727 
L 316.908343 111.092727 
L 316.908343 125.918182 
L 254.497371 125.918182 
z
" clip-path="url(#p9dada3ea61)" style="fill: #2ca02c"/>
   </g>
   <g id="patch_48">
    <path d="M 352.816403 140.743636 
L 359.396945 140.743636 
L 359.396945 155.569091 
L 352.816403 155.569091 
z
" clip-path="url(#p9dada3ea61)" style="fill: #2ca02c"/>
   </g>
   <g id="patch_49">
    <path d="M 367.452785 170.394545 
L 369.254237 170.394545 
L 369.254237 185.22 
L 367.452785 185.22 
z
" clip-path="url(#p9dada3ea61)" style="fill: #2ca02c"/>
   </g>
   <g id="patch_50">
    <path d="M 54 200.045455 
L 54 200.045455 
L 54 214.870909 
L 54 214.870909 
z
" clip-path="url(#p9dada3ea61)" style="fill: #2ca02c"/>
   </g>
   <g id="patch_51">
    <path d="M 158.74939 229.696364 
L 258.051812 229.696364 
L 258.051812 244.521818 
L 158.74939 244.521818 
z
" clip-path="url(#p9dada3ea61)" style="fill: #2ca02c"/>
   </g>
   <g id="patch_52">
    <path d="M 60.365569 259.347273 
L 217.479388 259.347273 
L 217.479388 274.172727 
L 60.365569 274.172727 
z
" clip-path="url(#p9dada3ea61)" style="fill: #2ca02c"/>
   </g>
   <g id="patch_53">
    <path d="M 159.29239 288.998182 
L 266.571429 288.998182 
L 266.571429 303.823636 
L 159.29239 303.823636 
z
" clip-path="url(#p9dada3ea61)" style="fill: #2ca02c"/>
   </g>
   <g id="patch_54">
    <path d="M 193.652305 318.649091 
L 280.442933 318.649091 
L 280.442933 333.474545 
L 193.652305 333.474545 
z
" clip-path="url(#p9dada3ea61)" style="fill: #2ca02c"/>
   </g>
   <g id="patch_55">
    <path d="M 180.184497 348.3 
L 277.414478 348.3 
L 277.414478 363.125455 
L 180.184497 363.125455 
z
" clip-path="url(#p9dada3ea61)" style="fill: #2ca02c"/>
   </g>
   <g id="patch_56">
    <path d="M 180.605042 377.950909 
L 274.386555 377.950909 
L 274.386555 392.776364 
L 180.605042 392.776364 
z
" clip-path="url(#p9dada3ea61)" style="fill: #2ca02c"/>
   </g>
   <g id="patch_57">
    <path d="M 162.830584 407.601818 
L 267.769014 407.601818 
L 267.769014 422.427273 
L 162.830584 422.427273 
z
" clip-path="url(#p9dada3ea61)" style="fill: #2ca02c"/>
   </g>
   <g id="patch_58">
    <path d="M 202.155844 437.252727 
L 283.748918 437.252727 
L 283.748918 452.078182 
L 202.155844 452.078182 
z
" clip-path="url(#p9dada3ea61)" style="fill: #2ca02c"/>
   </g>
   <g id="patch_59">
    <path d="M 156.326648 466.903636 
L 264.13508 466.903636 
L 264.13508 481.729091 
L 156.326648 481.729091 
z
" clip-path="url(#p9dada3ea61)" style="fill: #2ca02c"/>
   </g>
   <g id="patch_60">
    <path d="M 225.129751 496.554545 
L 300.273263 496.554545 
L 300.273263 511.38 
L 225.129751 511.38 
z
" clip-path="url(#p9dada3ea61)" style="fill: #2ca02c"/>
   </g>
   <g id="patch_61">
    <path d="M 218.027473 526.205455 
L 295.902198 526.205455 
L 295.902198 541.030909 
L 218.027473 541.030909 
z
" clip-path="url(#p9dada3ea61)" style="fill: #2ca02c"/>
   </g>
   <g id="patch_62">
    <path d="M 233.157857 555.856364 
L 301.014643 555.856364 
L 301.014643 570.681818 
L 233.157857 570.681818 
z
" clip-path="url(#p9dada3ea61)" style="fill: #2ca02c"/>
   </g>
   <g id="patch_63">
    <path d="M 184.868197 585.507273 
L 284.360207 585.507273 
L 284.360207 600.332727 
L 184.868197 600.332727 
z
" clip-path="url(#p9dada3ea61)" style="fill: #2ca02c"/>
   </g>
   <g id="patch_64">
    <path d="M 282.793779 615.158182 
L 327.786371 615.158182 
L 327.786371 629.983636 
L 282.793779 629.983636 
z
" clip-path="url(#p9dada3ea61)" style="fill: #2ca02c"/>
   </g>
   <g id="patch_65">
    <path d="M 221.07119 644.809091 
L 305.317726 644.809091 
L 305.317726 659.634545 
L 221.07119 659.634545 
z
" clip-path="url(#p9dada3ea61)" style="fill: #2ca02c"/>
   </g>
   <g id="patch_66">
    <path d="M 54 674.46 
L 54 674.46 
L 54 689.285455 
L 54 689.285455 
z
" clip-path="url(#p9dada3ea61)" style="fill: #2ca02c"/>
   </g>
   <g id="patch_67">
    <path d="M 305.729323 704.110909 
L 309.085714 704.110909 
L 309.085714 718.936364 
L 305.729323 718.936364 
z
" clip-path="url(#p9dada3ea61)" style="fill: #2ca02c"/>
   </g>
   <g id="patch_68">
    <path d="M 233.290043 733.761818 
L 301.463203 733.761818 
L 301.463203 748.587273 
L 233.290043 748.587273 
z
" clip-path="url(#p9dada3ea61)" style="fill: #2ca02c"/>
   </g>
   <g id="patch_69">
    <path d="M 316.908343 111.092727 
L 372.857143 111.092727 
L 372.857143 125.918182 
L 316.908343 125.918182 
z
" clip-path="url(#p9dada3ea61)" style="fill: #d62728"/>
   </g>
   <g id="patch_70">
    <path d="M 359.396945 140.743636 
L 372.857143 140.743636 
L 372.857143 155.569091 
L 359.396945 155.569091 
z
" clip-path="url(#p9dada3ea61)" style="fill: #d62728"/>
   </g>
   <g id="patch_71">
    <path d="M 369.254237 170.394545 
L 372.857143 170.394545 
L 372.857143 185.22 
L 369.254237 185.22 
z
" clip-path="url(#p9dada3ea61)" style="fill: #d62728"/>
   </g>
   <g id="patch_72">
    <path d="M 54 200.045455 
L 54 200.045455 
L 54 214.870909 
L 54 214.870909 
z
" clip-path="url(#p9dada3ea61)" style="fill: #d62728"/>
   </g>
   <g id="patch_73">
    <path d="M 258.051812 229.696364 
L 372.857143 229.696364 
L 372.857143 244.521818 
L 258.051812 244.521818 
z
" clip-path="url(#p9dada3ea61)" style="fill: #d62728"/>
   </g>
   <g id="patch_74">
    <path d="M 217.479388 259.347273 
L 372.857143 259.347273 
L 372.857143 274.172727 
L 217.479388 274.172727 
z
" clip-path="url(#p9dada3ea61)" style="fill: #d62728"/>
   </g>
   <g id="patch_75">
    <path d="M 266.571429 288.998182 
L 372.857143 288.998182 
L 372.857143 303.823636 
L 266.571429 303.823636 
z
" clip-path="url(#p9dada3ea61)" style="fill: #d62728"/>
   </g>
   <g id="patch_76">
    <path d="M 280.442933 318.649091 
L 372.857143 318.649091 
L 372.857143 333.474545 
L 280.442933 333.474545 
z
" clip-path="url(#p9dada3ea61)" style="fill: #d62728"/>
   </g>
   <g id="patch_77">
    <path d="M 277.414478 348.3 
L 372.857143 348.3 
L 372.857143 363.125455 
L 277.414478 363.125455 
z
" clip-path="url(#p9dada3ea61)" style="fill: #d62728"/>
   </g>
   <g id="patch_78">
    <path d="M 274.386555 377.950909 
L 372.857143 377.950909 
L 372.857143 392.776364 
L 274.386555 392.776364 
z
" clip-path="url(#p9dada3ea61)" style="fill: #d62728"/>
   </g>
   <g id="patch_79">
    <path d="M 267.769014 407.601818 
L 372.857143 407.601818 
L 372.857143 422.427273 
L 267.769014 422.427273 
z
" clip-path="url(#p9dada3ea61)" style="fill: #d62728"/>
   </g>
   <g id="patch_80">
    <path d="M 283.748918 437.252727 
L 372.857143 437.252727 
L 372.857143 452.078182 
L 283.748918 452.078182 
z
" clip-path="url(#p9dada3ea61)" style="fill: #d62728"/>
   </g>
   <g id="patch_81">
    <path d="M 264.13508 466.903636 
L 372.857143 466.903636 
L 372.857143 481.729091 
L 264.13508 481.729091 
z
" clip-path="url(#p9dada3ea61)" style="fill: #d62728"/>
   </g>
   <g id="patch_82">
    <path d="M 300.273263 496.554545 
L 372.857143 496.554545 
L 372.857143 511.38 
L 300.273263 511.38 
z
" clip-path="url(#p9dada3ea61)" style="fill: #d62728"/>
   </g>
   <g id="patch_83">
    <path d="M 295.902198 526.205455 
L 372.857143 526.205455 
L 372.857143 541.030909 
L 295.902198 541.030909 
z
" clip-path="url(#p9dada3ea61)" style="fill: #d62728"/>
   </g>
   <g id="patch_84">
    <path d="M 301.014643 555.856364 
L 372.857143 555.856364 
L 372.857143 570.681818 
L 301.014643 570.681818 
z
" clip-path="url(#p9dada3ea61)" style="fill: #d62728"/>
   </g>
   <g id="patch_85">
    <path d="M 284.360207 585.507273 
L 372.857143 585.507273 
L 372.857143 600.332727 
L 284.360207 600.332727 
z
" clip-path="url(#p9dada3ea61)" style="fill: #d62728"/>
   </g>
   <g id="patch_86">
    <path d="M 327.786371 615.158182 
L 372.857143 615.158182 
L 372.857143 629.983636 
L 327.786371 629.983636 
z
" clip-path="url(#p9dada3ea61)" style="fill: #d62728"/>
   </g>
   <g id="patch_87">
    <path d="M 305.317726 644.809091 
L 372.857143 644.809091 
L 372.857143 659.634545 
L 305.317726 659.634545 
z
" clip-path="url(#p9dada3ea61)" style="fill: #d62728"/>
   </g>
   <g id="patch_88">
    <path d="M 54 674.46 
L 54 674.46 
L 54 689.285455 
L 54 689.285455 
z
" clip-path="url(#p9dada3ea61)" style="fill: #d62728"/>
   </g>
   <g id="patch_89">
    <path d="M 309.085714 704.110909 
L 372.857143 704.110909 
L 372.857143 718.936364 
L 309.085714 718.936364 
z
" clip-path="url(#p9dada3ea61)" style="fill: #d62728"/>
   </g>
   <g id="patch_90">
    <path d="M 301.463203 733.761818 
L 372.857143 733.761818 
L 372.857143 748.587273 
L 301.463203 748.587273 
z
" clip-path="url(#p9dada3ea61)" style="fill: #d62728"/>
   </g>
   <g id="matplotlib.axis_1">
    <g id="xtick_1">
     <g id="line2d_1">
      <defs>
       <path id="m84de3d9cb4" d="M 0 0 
L 0 3.5 
" style="stroke: #000000; stroke-width: 0.8"/>
      </defs>
      <g>
       <use xlink:href="#m84de3d9cb4" x="54" y="756" style="stroke: #000000; stroke-width: 0.8"/>
      </g>
     </g>
     <g id="text_1">
      <!-- 0.0 -->
      <g transform="translate(46.048437 770.598438)scale(0.1 -0.1)">
       <defs>
        <path id="DejaVuSans-30" d="M 2034 4250 
Q 1547 4250 1301 3770 
Q 1056 3291 1056 2328 
Q 1056 1369 1301 889 
Q 1547 409 2034 409 
Q 2525 409 2770 889 
Q 3016 1369 3016 2328 
Q 3016 3291 2770 3770 
Q 2525 4250 2034 4250 
z
M 2034 4750 
Q 2819 4750 3233 4129 
Q 3647 3509 3647 2328 
Q 3647 1150 3233 529 
Q 2819 -91 2034 -91 
Q 1250 -91 836 529 
Q 422 1150 422 2328 
Q 422 3509 836 4129 
Q 1250 4750 2034 4750 
z
" transform="scale(0.015625)"/>
        <path id="DejaVuSans-2e" d="M 684 794 
L 1344 794 
L 1344 0 
L 684 0 
L 684 794 
z
" transform="scale(0.015625)"/>
       </defs>
       <use xlink:href="#DejaVuSans-30"/>
       <use xlink:href="#DejaVuSans-2e" x="63.623047"/>
       <use xlink:href="#DejaVuSans-30" x="95.410156"/>
      </g>
     </g>
    </g>
    <g id="xtick_2">
     <g id="line2d_2">
      <g>
       <use xlink:href="#m84de3d9cb4" x="117.771429" y="756" style="stroke: #000000; stroke-width: 0.8"/>
      </g>
     </g>
     <g id="text_2">
      <!-- 0.2 -->
      <g transform="translate(109.819866 770.598438)scale(0.1 -0.1)">
       <defs>
        <path id="DejaVuSans-32" d="M 1228 531 
L 3431 531 
L 3431 0 
L 469 0 
L 469 531 
Q 828 903 1448 1529 
Q 2069 2156 2228 2338 
Q 2531 2678 2651 2914 
Q 2772 3150 2772 3378 
Q 2772 3750 2511 3984 
Q 2250 4219 1831 4219 
Q 1534 4219 1204 4116 
Q 875 4013 500 3803 
L 500 4441 
Q 881 4594 1212 4672 
Q 1544 4750 1819 4750 
Q 2544 4750 2975 4387 
Q 3406 4025 3406 3419 
Q 3406 3131 3298 2873 
Q 3191 2616 2906 2266 
Q 2828 2175 2409 1742 
Q 1991 1309 1228 531 
z
" transform="scale(0.015625)"/>
       </defs>
       <use xlink:href="#DejaVuSans-30"/>
       <use xlink:href="#DejaVuSans-2e" x="63.623047"/>
       <use xlink:href="#DejaVuSans-32" x="95.410156"/>
      </g>
     </g>
    </g>
    <g id="xtick_3">
     <g id="line2d_3">
      <g>
       <use xlink:href="#m84de3d9cb4" x="181.542857" y="756" style="stroke: #000000; stroke-width: 0.8"/>
      </g>
     </g>
     <g id="text_3">
      <!-- 0.4 -->
      <g transform="translate(173.591295 770.598438)scale(0.1 -0.1)">
       <defs>
        <path id="DejaVuSans-34" d="M 2419 4116 
L 825 1625 
L 2419 1625 
L 2419 4116 
z
M 2253 4666 
L 3047 4666 
L 3047 1625 
L 3713 1625 
L 3713 1100 
L 3047 1100 
L 3047 0 
L 2419 0 
L 2419 1100 
L 313 1100 
L 313 1709 
L 2253 4666 
z
" transform="scale(0.015625)"/>
       </defs>
       <use xlink:href="#DejaVuSans-30"/>
       <use xlink:href="#DejaVuSans-2e" x="63.623047"/>
       <use xlink:href="#DejaVuSans-34" x="95.410156"/>
      </g>
     </g>
    </g>
    <g id="xtick_4">
     <g id="line2d_4">
      <g>
       <use xlink:href="#m84de3d9cb4" x="245.314286" y="756" style="stroke: #000000; stroke-width: 0.8"/>
      </g>
     </g>
     <g id="text_4">
      <!-- 0.6 -->
      <g transform="translate(237.362723 770.598438)scale(0.1 -0.1)">
       <defs>
        <path id="DejaVuSans-36" d="M 2113 2584 
Q 1688 2584 1439 2293 
Q 1191 2003 1191 1497 
Q 1191 994 1439 701 
Q 1688 409 2113 409 
Q 2538 409 2786 701 
Q 3034 994 3034 1497 
Q 3034 2003 2786 2293 
Q 2538 2584 2113 2584 
z
M 3366 4563 
L 3366 3988 
Q 3128 4100 2886 4159 
Q 2644 4219 2406 4219 
Q 1781 4219 1451 3797 
Q 1122 3375 1075 2522 
Q 1259 2794 1537 2939 
Q 1816 3084 2150 3084 
Q 2853 3084 3261 2657 
Q 3669 2231 3669 1497 
Q 3669 778 3244 343 
Q 2819 -91 2113 -91 
Q 1303 -91 875 529 
Q 447 1150 447 2328 
Q 447 3434 972 4092 
Q 1497 4750 2381 4750 
Q 2619 4750 2861 4703 
Q 3103 4656 3366 4563 
z
" transform="scale(0.015625)"/>
       </defs>
       <use xlink:href="#DejaVuSans-30"/>
       <use xlink:href="#DejaVuSans-2e" x="63.623047"/>
       <use xlink:href="#DejaVuSans-36" x="95.410156"/>
      </g>
     </g>
    </g>
    <g id="xtick_5">
     <g id="line2d_5">
      <g>
       <use xlink:href="#m84de3d9cb4" x="309.085714" y="756" style="stroke: #000000; stroke-width: 0.8"/>
      </g>
     </g>
     <g id="text_5">
      <!-- 0.8 -->
      <g transform="translate(301.134152 770.598438)scale(0.1 -0.1)">
       <defs>
        <path id="DejaVuSans-38" d="M 2034 2216 
Q 1584 2216 1326 1975 
Q 1069 1734 1069 1313 
Q 1069 891 1326 650 
Q 1584 409 2034 409 
Q 2484 409 2743 651 
Q 3003 894 3003 1313 
Q 3003 1734 2745 1975 
Q 2488 2216 2034 2216 
z
M 1403 2484 
Q 997 2584 770 2862 
Q 544 3141 544 3541 
Q 544 4100 942 4425 
Q 1341 4750 2034 4750 
Q 2731 4750 3128 4425 
Q 3525 4100 3525 3541 
Q 3525 3141 3298 2862 
Q 3072 2584 2669 2484 
Q 3125 2378 3379 2068 
Q 3634 1759 3634 1313 
Q 3634 634 3220 271 
Q 2806 -91 2034 -91 
Q 1263 -91 848 271 
Q 434 634 434 1313 
Q 434 1759 690 2068 
Q 947 2378 1403 2484 
z
M 1172 3481 
Q 1172 3119 1398 2916 
Q 1625 2713 2034 2713 
Q 2441 2713 2670 2916 
Q 2900 3119 2900 3481 
Q 2900 3844 2670 4047 
Q 2441 4250 2034 4250 
Q 1625 4250 1398 4047 
Q 1172 3844 1172 3481 
z
" transform="scale(0.015625)"/>
       </defs>
       <use xlink:href="#DejaVuSans-30"/>
       <use xlink:href="#DejaVuSans-2e" x="63.623047"/>
       <use xlink:href="#DejaVuSans-38" x="95.410156"/>
      </g>
     </g>
    </g>
    <g id="xtick_6">
     <g id="line2d_6">
      <g>
       <use xlink:href="#m84de3d9cb4" x="372.857143" y="756" style="stroke: #000000; stroke-width: 0.8"/>
      </g>
     </g>
     <g id="text_6">
      <!-- 1.0 -->
      <g transform="translate(364.90558 770.598438)scale(0.1 -0.1)">
       <defs>
        <path id="DejaVuSans-31" d="M 794 531 
L 1825 531 
L 1825 4091 
L 703 3866 
L 703 4441 
L 1819 4666 
L 2450 4666 
L 2450 531 
L 3481 531 
L 3481 0 
L 794 0 
L 794 531 
z
" transform="scale(0.015625)"/>
       </defs>
       <use xlink:href="#DejaVuSans-31"/>
       <use xlink:href="#DejaVuSans-2e" x="63.623047"/>
       <use xlink:href="#DejaVuSans-30" x="95.410156"/>
      </g>
     </g>
    </g>
   </g>
   <g id="matplotlib.axis_2">
    <g id="ytick_1">
     <g id="line2d_7">
      <defs>
       <path id="m7a1a4c3400" d="M 0 0 
L -3.5 0 
" style="stroke: #000000; stroke-width: 0.8"/>
      </defs>
      <g>
       <use xlink:href="#m7a1a4c3400" x="54" y="118.505455" style="stroke: #000000; stroke-width: 0.8"/>
      </g>
     </g>
     <g id="text_7">
      <!-- Cathepsin -->
      <g transform="translate(-3.195312 122.304673)scale(0.1 -0.1)">
       <defs>
        <path id="DejaVuSans-43" d="M 4122 4306 
L 4122 3641 
Q 3803 3938 3442 4084 
Q 3081 4231 2675 4231 
Q 1875 4231 1450 3742 
Q 1025 3253 1025 2328 
Q 1025 1406 1450 917 
Q 1875 428 2675 428 
Q 3081 428 3442 575 
Q 3803 722 4122 1019 
L 4122 359 
Q 3791 134 3420 21 
Q 3050 -91 2638 -91 
Q 1578 -91 968 557 
Q 359 1206 359 2328 
Q 359 3453 968 4101 
Q 1578 4750 2638 4750 
Q 3056 4750 3426 4639 
Q 3797 4528 4122 4306 
z
" transform="scale(0.015625)"/>
        <path id="DejaVuSans-61" d="M 2194 1759 
Q 1497 1759 1228 1600 
Q 959 1441 959 1056 
Q 959 750 1161 570 
Q 1363 391 1709 391 
Q 2188 391 2477 730 
Q 2766 1069 2766 1631 
L 2766 1759 
L 2194 1759 
z
M 3341 1997 
L 3341 0 
L 2766 0 
L 2766 531 
Q 2569 213 2275 61 
Q 1981 -91 1556 -91 
Q 1019 -91 701 211 
Q 384 513 384 1019 
Q 384 1609 779 1909 
Q 1175 2209 1959 2209 
L 2766 2209 
L 2766 2266 
Q 2766 2663 2505 2880 
Q 2244 3097 1772 3097 
Q 1472 3097 1187 3025 
Q 903 2953 641 2809 
L 641 3341 
Q 956 3463 1253 3523 
Q 1550 3584 1831 3584 
Q 2591 3584 2966 3190 
Q 3341 2797 3341 1997 
z
" transform="scale(0.015625)"/>
        <path id="DejaVuSans-74" d="M 1172 4494 
L 1172 3500 
L 2356 3500 
L 2356 3053 
L 1172 3053 
L 1172 1153 
Q 1172 725 1289 603 
Q 1406 481 1766 481 
L 2356 481 
L 2356 0 
L 1766 0 
Q 1100 0 847 248 
Q 594 497 594 1153 
L 594 3053 
L 172 3053 
L 172 3500 
L 594 3500 
L 594 4494 
L 1172 4494 
z
" transform="scale(0.015625)"/>
        <path id="DejaVuSans-68" d="M 3513 2113 
L 3513 0 
L 2938 0 
L 2938 2094 
Q 2938 2591 2744 2837 
Q 2550 3084 2163 3084 
Q 1697 3084 1428 2787 
Q 1159 2491 1159 1978 
L 1159 0 
L 581 0 
L 581 4863 
L 1159 4863 
L 1159 2956 
Q 1366 3272 1645 3428 
Q 1925 3584 2291 3584 
Q 2894 3584 3203 3211 
Q 3513 2838 3513 2113 
z
" transform="scale(0.015625)"/>
        <path id="DejaVuSans-65" d="M 3597 1894 
L 3597 1613 
L 953 1613 
Q 991 1019 1311 708 
Q 1631 397 2203 397 
Q 2534 397 2845 478 
Q 3156 559 3463 722 
L 3463 178 
Q 3153 47 2828 -22 
Q 2503 -91 2169 -91 
Q 1331 -91 842 396 
Q 353 884 353 1716 
Q 353 2575 817 3079 
Q 1281 3584 2069 3584 
Q 2775 3584 3186 3129 
Q 3597 2675 3597 1894 
z
M 3022 2063 
Q 3016 2534 2758 2815 
Q 2500 3097 2075 3097 
Q 1594 3097 1305 2825 
Q 1016 2553 972 2059 
L 3022 2063 
z
" transform="scale(0.015625)"/>
        <path id="DejaVuSans-70" d="M 1159 525 
L 1159 -1331 
L 581 -1331 
L 581 3500 
L 1159 3500 
L 1159 2969 
Q 1341 3281 1617 3432 
Q 1894 3584 2278 3584 
Q 2916 3584 3314 3078 
Q 3713 2572 3713 1747 
Q 3713 922 3314 415 
Q 2916 -91 2278 -91 
Q 1894 -91 1617 61 
Q 1341 213 1159 525 
z
M 3116 1747 
Q 3116 2381 2855 2742 
Q 2594 3103 2138 3103 
Q 1681 3103 1420 2742 
Q 1159 2381 1159 1747 
Q 1159 1113 1420 752 
Q 1681 391 2138 391 
Q 2594 391 2855 752 
Q 3116 1113 3116 1747 
z
" transform="scale(0.015625)"/>
        <path id="DejaVuSans-73" d="M 2834 3397 
L 2834 2853 
Q 2591 2978 2328 3040 
Q 2066 3103 1784 3103 
Q 1356 3103 1142 2972 
Q 928 2841 928 2578 
Q 928 2378 1081 2264 
Q 1234 2150 1697 2047 
L 1894 2003 
Q 2506 1872 2764 1633 
Q 3022 1394 3022 966 
Q 3022 478 2636 193 
Q 2250 -91 1575 -91 
Q 1294 -91 989 -36 
Q 684 19 347 128 
L 347 722 
Q 666 556 975 473 
Q 1284 391 1588 391 
Q 1994 391 2212 530 
Q 2431 669 2431 922 
Q 2431 1156 2273 1281 
Q 2116 1406 1581 1522 
L 1381 1569 
Q 847 1681 609 1914 
Q 372 2147 372 2553 
Q 372 3047 722 3315 
Q 1072 3584 1716 3584 
Q 2034 3584 2315 3537 
Q 2597 3491 2834 3397 
z
" transform="scale(0.015625)"/>
        <path id="DejaVuSans-69" d="M 603 3500 
L 1178 3500 
L 1178 0 
L 603 0 
L 603 3500 
z
M 603 4863 
L 1178 4863 
L 1178 4134 
L 603 4134 
L 603 4863 
z
" transform="scale(0.015625)"/>
        <path id="DejaVuSans-6e" d="M 3513 2113 
L 3513 0 
L 2938 0 
L 2938 2094 
Q 2938 2591 2744 2837 
Q 2550 3084 2163 3084 
Q 1697 3084 1428 2787 
Q 1159 2491 1159 1978 
L 1159 0 
L 581 0 
L 581 3500 
L 1159 3500 
L 1159 2956 
Q 1366 3272 1645 3428 
Q 1925 3584 2291 3584 
Q 2894 3584 3203 3211 
Q 3513 2838 3513 2113 
z
" transform="scale(0.015625)"/>
       </defs>
       <use xlink:href="#DejaVuSans-43"/>
       <use xlink:href="#DejaVuSans-61" x="69.824219"/>
       <use xlink:href="#DejaVuSans-74" x="131.103516"/>
       <use xlink:href="#DejaVuSans-68" x="170.3125"/>
       <use xlink:href="#DejaVuSans-65" x="233.691406"/>
       <use xlink:href="#DejaVuSans-70" x="295.214844"/>
       <use xlink:href="#DejaVuSans-73" x="358.691406"/>
       <use xlink:href="#DejaVuSans-69" x="410.791016"/>
       <use xlink:href="#DejaVuSans-6e" x="438.574219"/>
      </g>
     </g>
    </g>
    <g id="ytick_2">
     <g id="line2d_8">
      <g>
       <use xlink:href="#m7a1a4c3400" x="54" y="148.156364" style="stroke: #000000; stroke-width: 0.8"/>
      </g>
     </g>
     <g id="text_8">
      <!-- Intestine -->
      <g transform="translate(3.240625 151.955582)scale(0.1 -0.1)">
       <defs>
        <path id="DejaVuSans-49" d="M 628 4666 
L 1259 4666 
L 1259 0 
L 628 0 
L 628 4666 
z
" transform="scale(0.015625)"/>
       </defs>
       <use xlink:href="#DejaVuSans-49"/>
       <use xlink:href="#DejaVuSans-6e" x="29.492188"/>
       <use xlink:href="#DejaVuSans-74" x="92.871094"/>
       <use xlink:href="#DejaVuSans-65" x="132.080078"/>
       <use xlink:href="#DejaVuSans-73" x="193.603516"/>
       <use xlink:href="#DejaVuSans-74" x="245.703125"/>
       <use xlink:href="#DejaVuSans-69" x="284.912109"/>
       <use xlink:href="#DejaVuSans-6e" x="312.695312"/>
       <use xlink:href="#DejaVuSans-65" x="376.074219"/>
      </g>
     </g>
    </g>
    <g id="ytick_3">
     <g id="line2d_9">
      <g>
       <use xlink:href="#m7a1a4c3400" x="54" y="177.807273" style="stroke: #000000; stroke-width: 0.8"/>
      </g>
     </g>
     <g id="text_9">
      <!-- S1 -->
      <g transform="translate(34.289062 181.606491)scale(0.1 -0.1)">
       <defs>
        <path id="DejaVuSans-53" d="M 3425 4513 
L 3425 3897 
Q 3066 4069 2747 4153 
Q 2428 4238 2131 4238 
Q 1616 4238 1336 4038 
Q 1056 3838 1056 3469 
Q 1056 3159 1242 3001 
Q 1428 2844 1947 2747 
L 2328 2669 
Q 3034 2534 3370 2195 
Q 3706 1856 3706 1288 
Q 3706 609 3251 259 
Q 2797 -91 1919 -91 
Q 1588 -91 1214 -16 
Q 841 59 441 206 
L 441 856 
Q 825 641 1194 531 
Q 1563 422 1919 422 
Q 2459 422 2753 634 
Q 3047 847 3047 1241 
Q 3047 1584 2836 1778 
Q 2625 1972 2144 2069 
L 1759 2144 
Q 1053 2284 737 2584 
Q 422 2884 422 3419 
Q 422 4038 858 4394 
Q 1294 4750 2059 4750 
Q 2388 4750 2728 4690 
Q 3069 4631 3425 4513 
z
" transform="scale(0.015625)"/>
       </defs>
       <use xlink:href="#DejaVuSans-53"/>
       <use xlink:href="#DejaVuSans-31" x="63.476562"/>
      </g>
     </g>
    </g>
    <g id="ytick_4">
     <g id="line2d_10">
      <g>
       <use xlink:href="#m7a1a4c3400" x="54" y="207.458182" style="stroke: #000000; stroke-width: 0.8"/>
      </g>
     </g>
     <g id="text_10">
      <!-- GSC -->
      <g transform="translate(25.920312 211.257401)scale(0.1 -0.1)">
       <defs>
        <path id="DejaVuSans-47" d="M 3809 666 
L 3809 1919 
L 2778 1919 
L 2778 2438 
L 4434 2438 
L 4434 434 
Q 4069 175 3628 42 
Q 3188 -91 2688 -91 
Q 1594 -91 976 548 
Q 359 1188 359 2328 
Q 359 3472 976 4111 
Q 1594 4750 2688 4750 
Q 3144 4750 3555 4637 
Q 3966 4525 4313 4306 
L 4313 3634 
Q 3963 3931 3569 4081 
Q 3175 4231 2741 4231 
Q 1884 4231 1454 3753 
Q 1025 3275 1025 2328 
Q 1025 1384 1454 906 
Q 1884 428 2741 428 
Q 3075 428 3337 486 
Q 3600 544 3809 666 
z
" transform="scale(0.015625)"/>
       </defs>
       <use xlink:href="#DejaVuSans-47"/>
       <use xlink:href="#DejaVuSans-53" x="77.490234"/>
       <use xlink:href="#DejaVuSans-43" x="140.966797"/>
      </g>
     </g>
    </g>
    <g id="ytick_5">
     <g id="line2d_11">
      <g>
       <use xlink:href="#m7a1a4c3400" x="54" y="237.109091" style="stroke: #000000; stroke-width: 0.8"/>
      </g>
     </g>
     <g id="text_11">
      <!-- Neoblast -->
      <g transform="translate(2.8625 240.90831)scale(0.1 -0.1)">
       <defs>
        <path id="DejaVuSans-4e" d="M 628 4666 
L 1478 4666 
L 3547 763 
L 3547 4666 
L 4159 4666 
L 4159 0 
L 3309 0 
L 1241 3903 
L 1241 0 
L 628 0 
L 628 4666 
z
" transform="scale(0.015625)"/>
        <path id="DejaVuSans-6f" d="M 1959 3097 
Q 1497 3097 1228 2736 
Q 959 2375 959 1747 
Q 959 1119 1226 758 
Q 1494 397 1959 397 
Q 2419 397 2687 759 
Q 2956 1122 2956 1747 
Q 2956 2369 2687 2733 
Q 2419 3097 1959 3097 
z
M 1959 3584 
Q 2709 3584 3137 3096 
Q 3566 2609 3566 1747 
Q 3566 888 3137 398 
Q 2709 -91 1959 -91 
Q 1206 -91 779 398 
Q 353 888 353 1747 
Q 353 2609 779 3096 
Q 1206 3584 1959 3584 
z
" transform="scale(0.015625)"/>
        <path id="DejaVuSans-62" d="M 3116 1747 
Q 3116 2381 2855 2742 
Q 2594 3103 2138 3103 
Q 1681 3103 1420 2742 
Q 1159 2381 1159 1747 
Q 1159 1113 1420 752 
Q 1681 391 2138 391 
Q 2594 391 2855 752 
Q 3116 1113 3116 1747 
z
M 1159 2969 
Q 1341 3281 1617 3432 
Q 1894 3584 2278 3584 
Q 2916 3584 3314 3078 
Q 3713 2572 3713 1747 
Q 3713 922 3314 415 
Q 2916 -91 2278 -91 
Q 1894 -91 1617 61 
Q 1341 213 1159 525 
L 1159 0 
L 581 0 
L 581 4863 
L 1159 4863 
L 1159 2969 
z
" transform="scale(0.015625)"/>
        <path id="DejaVuSans-6c" d="M 603 4863 
L 1178 4863 
L 1178 0 
L 603 0 
L 603 4863 
z
" transform="scale(0.015625)"/>
       </defs>
       <use xlink:href="#DejaVuSans-4e"/>
       <use xlink:href="#DejaVuSans-65" x="74.804688"/>
       <use xlink:href="#DejaVuSans-6f" x="136.328125"/>
       <use xlink:href="#DejaVuSans-62" x="197.509766"/>
       <use xlink:href="#DejaVuSans-6c" x="260.986328"/>
       <use xlink:href="#DejaVuSans-61" x="288.769531"/>
       <use xlink:href="#DejaVuSans-73" x="350.048828"/>
       <use xlink:href="#DejaVuSans-74" x="402.148438"/>
      </g>
     </g>
    </g>
    <g id="ytick_6">
     <g id="line2d_12">
      <g>
       <use xlink:href="#m7a1a4c3400" x="54" y="266.76" style="stroke: #000000; stroke-width: 0.8"/>
      </g>
     </g>
     <g id="text_12">
      <!-- Neural Progenitors -->
      <g transform="translate(-46.003125 270.559219)scale(0.1 -0.1)">
       <defs>
        <path id="DejaVuSans-75" d="M 544 1381 
L 544 3500 
L 1119 3500 
L 1119 1403 
Q 1119 906 1312 657 
Q 1506 409 1894 409 
Q 2359 409 2629 706 
Q 2900 1003 2900 1516 
L 2900 3500 
L 3475 3500 
L 3475 0 
L 2900 0 
L 2900 538 
Q 2691 219 2414 64 
Q 2138 -91 1772 -91 
Q 1169 -91 856 284 
Q 544 659 544 1381 
z
M 1991 3584 
L 1991 3584 
z
" transform="scale(0.015625)"/>
        <path id="DejaVuSans-72" d="M 2631 2963 
Q 2534 3019 2420 3045 
Q 2306 3072 2169 3072 
Q 1681 3072 1420 2755 
Q 1159 2438 1159 1844 
L 1159 0 
L 581 0 
L 581 3500 
L 1159 3500 
L 1159 2956 
Q 1341 3275 1631 3429 
Q 1922 3584 2338 3584 
Q 2397 3584 2469 3576 
Q 2541 3569 2628 3553 
L 2631 2963 
z
" transform="scale(0.015625)"/>
        <path id="DejaVuSans-20" transform="scale(0.015625)"/>
        <path id="DejaVuSans-50" d="M 1259 4147 
L 1259 2394 
L 2053 2394 
Q 2494 2394 2734 2622 
Q 2975 2850 2975 3272 
Q 2975 3691 2734 3919 
Q 2494 4147 2053 4147 
L 1259 4147 
z
M 628 4666 
L 2053 4666 
Q 2838 4666 3239 4311 
Q 3641 3956 3641 3272 
Q 3641 2581 3239 2228 
Q 2838 1875 2053 1875 
L 1259 1875 
L 1259 0 
L 628 0 
L 628 4666 
z
" transform="scale(0.015625)"/>
        <path id="DejaVuSans-67" d="M 2906 1791 
Q 2906 2416 2648 2759 
Q 2391 3103 1925 3103 
Q 1463 3103 1205 2759 
Q 947 2416 947 1791 
Q 947 1169 1205 825 
Q 1463 481 1925 481 
Q 2391 481 2648 825 
Q 2906 1169 2906 1791 
z
M 3481 434 
Q 3481 -459 3084 -895 
Q 2688 -1331 1869 -1331 
Q 1566 -1331 1297 -1286 
Q 1028 -1241 775 -1147 
L 775 -588 
Q 1028 -725 1275 -790 
Q 1522 -856 1778 -856 
Q 2344 -856 2625 -561 
Q 2906 -266 2906 331 
L 2906 616 
Q 2728 306 2450 153 
Q 2172 0 1784 0 
Q 1141 0 747 490 
Q 353 981 353 1791 
Q 353 2603 747 3093 
Q 1141 3584 1784 3584 
Q 2172 3584 2450 3431 
Q 2728 3278 2906 2969 
L 2906 3500 
L 3481 3500 
L 3481 434 
z
" transform="scale(0.015625)"/>
       </defs>
       <use xlink:href="#DejaVuSans-4e"/>
       <use xlink:href="#DejaVuSans-65" x="74.804688"/>
       <use xlink:href="#DejaVuSans-75" x="136.328125"/>
       <use xlink:href="#DejaVuSans-72" x="199.707031"/>
       <use xlink:href="#DejaVuSans-61" x="240.820312"/>
       <use xlink:href="#DejaVuSans-6c" x="302.099609"/>
       <use xlink:href="#DejaVuSans-20" x="329.882812"/>
       <use xlink:href="#DejaVuSans-50" x="361.669922"/>
       <use xlink:href="#DejaVuSans-72" x="420.222656"/>
       <use xlink:href="#DejaVuSans-6f" x="459.085938"/>
       <use xlink:href="#DejaVuSans-67" x="520.267578"/>
       <use xlink:href="#DejaVuSans-65" x="583.744141"/>
       <use xlink:href="#DejaVuSans-6e" x="645.267578"/>
       <use xlink:href="#DejaVuSans-69" x="708.646484"/>
       <use xlink:href="#DejaVuSans-74" x="736.429688"/>
       <use xlink:href="#DejaVuSans-6f" x="775.638672"/>
       <use xlink:href="#DejaVuSans-72" x="836.820312"/>
       <use xlink:href="#DejaVuSans-73" x="877.933594"/>
      </g>
     </g>
    </g>
    <g id="ytick_7">
     <g id="line2d_13">
      <g>
       <use xlink:href="#m7a1a4c3400" x="54" y="296.410909" style="stroke: #000000; stroke-width: 0.8"/>
      </g>
     </g>
     <g id="text_13">
      <!-- Neural-1 -->
      <g transform="translate(4.040625 300.210128)scale(0.1 -0.1)">
       <defs>
        <path id="DejaVuSans-2d" d="M 313 2009 
L 1997 2009 
L 1997 1497 
L 313 1497 
L 313 2009 
z
" transform="scale(0.015625)"/>
       </defs>
       <use xlink:href="#DejaVuSans-4e"/>
       <use xlink:href="#DejaVuSans-65" x="74.804688"/>
       <use xlink:href="#DejaVuSans-75" x="136.328125"/>
       <use xlink:href="#DejaVuSans-72" x="199.707031"/>
       <use xlink:href="#DejaVuSans-61" x="240.820312"/>
       <use xlink:href="#DejaVuSans-6c" x="302.099609"/>
       <use xlink:href="#DejaVuSans-2d" x="329.882812"/>
       <use xlink:href="#DejaVuSans-31" x="365.966797"/>
      </g>
     </g>
    </g>
    <g id="ytick_8">
     <g id="line2d_14">
      <g>
       <use xlink:href="#m7a1a4c3400" x="54" y="326.061818" style="stroke: #000000; stroke-width: 0.8"/>
      </g>
     </g>
     <g id="text_14">
      <!-- Neural-2 -->
      <g transform="translate(4.040625 329.861037)scale(0.1 -0.1)">
       <use xlink:href="#DejaVuSans-4e"/>
       <use xlink:href="#DejaVuSans-65" x="74.804688"/>
       <use xlink:href="#DejaVuSans-75" x="136.328125"/>
       <use xlink:href="#DejaVuSans-72" x="199.707031"/>
       <use xlink:href="#DejaVuSans-61" x="240.820312"/>
       <use xlink:href="#DejaVuSans-6c" x="302.099609"/>
       <use xlink:href="#DejaVuSans-2d" x="329.882812"/>
       <use xlink:href="#DejaVuSans-32" x="365.966797"/>
      </g>
     </g>
    </g>
    <g id="ytick_9">
     <g id="line2d_15">
      <g>
       <use xlink:href="#m7a1a4c3400" x="54" y="355.712727" style="stroke: #000000; stroke-width: 0.8"/>
      </g>
     </g>
     <g id="text_15">
      <!-- Neural-POU4 -->
      <g transform="translate(-17.179688 359.511946)scale(0.1 -0.1)">
       <defs>
        <path id="DejaVuSans-4f" d="M 2522 4238 
Q 1834 4238 1429 3725 
Q 1025 3213 1025 2328 
Q 1025 1447 1429 934 
Q 1834 422 2522 422 
Q 3209 422 3611 934 
Q 4013 1447 4013 2328 
Q 4013 3213 3611 3725 
Q 3209 4238 2522 4238 
z
M 2522 4750 
Q 3503 4750 4090 4092 
Q 4678 3434 4678 2328 
Q 4678 1225 4090 567 
Q 3503 -91 2522 -91 
Q 1538 -91 948 565 
Q 359 1222 359 2328 
Q 359 3434 948 4092 
Q 1538 4750 2522 4750 
z
" transform="scale(0.015625)"/>
        <path id="DejaVuSans-55" d="M 556 4666 
L 1191 4666 
L 1191 1831 
Q 1191 1081 1462 751 
Q 1734 422 2344 422 
Q 2950 422 3222 751 
Q 3494 1081 3494 1831 
L 3494 4666 
L 4128 4666 
L 4128 1753 
Q 4128 841 3676 375 
Q 3225 -91 2344 -91 
Q 1459 -91 1007 375 
Q 556 841 556 1753 
L 556 4666 
z
" transform="scale(0.015625)"/>
       </defs>
       <use xlink:href="#DejaVuSans-4e"/>
       <use xlink:href="#DejaVuSans-65" x="74.804688"/>
       <use xlink:href="#DejaVuSans-75" x="136.328125"/>
       <use xlink:href="#DejaVuSans-72" x="199.707031"/>
       <use xlink:href="#DejaVuSans-61" x="240.820312"/>
       <use xlink:href="#DejaVuSans-6c" x="302.099609"/>
       <use xlink:href="#DejaVuSans-2d" x="329.882812"/>
       <use xlink:href="#DejaVuSans-50" x="365.966797"/>
       <use xlink:href="#DejaVuSans-4f" x="426.269531"/>
       <use xlink:href="#DejaVuSans-55" x="504.980469"/>
       <use xlink:href="#DejaVuSans-34" x="578.173828"/>
      </g>
     </g>
    </g>
    <g id="ytick_10">
     <g id="line2d_16">
      <g>
       <use xlink:href="#m7a1a4c3400" x="54" y="385.363636" style="stroke: #000000; stroke-width: 0.8"/>
      </g>
     </g>
     <g id="text_16">
      <!-- Neural-3 -->
      <g transform="translate(4.040625 389.162855)scale(0.1 -0.1)">
       <defs>
        <path id="DejaVuSans-33" d="M 2597 2516 
Q 3050 2419 3304 2112 
Q 3559 1806 3559 1356 
Q 3559 666 3084 287 
Q 2609 -91 1734 -91 
Q 1441 -91 1130 -33 
Q 819 25 488 141 
L 488 750 
Q 750 597 1062 519 
Q 1375 441 1716 441 
Q 2309 441 2620 675 
Q 2931 909 2931 1356 
Q 2931 1769 2642 2001 
Q 2353 2234 1838 2234 
L 1294 2234 
L 1294 2753 
L 1863 2753 
Q 2328 2753 2575 2939 
Q 2822 3125 2822 3475 
Q 2822 3834 2567 4026 
Q 2313 4219 1838 4219 
Q 1578 4219 1281 4162 
Q 984 4106 628 3988 
L 628 4550 
Q 988 4650 1302 4700 
Q 1616 4750 1894 4750 
Q 2613 4750 3031 4423 
Q 3450 4097 3450 3541 
Q 3450 3153 3228 2886 
Q 3006 2619 2597 2516 
z
" transform="scale(0.015625)"/>
       </defs>
       <use xlink:href="#DejaVuSans-4e"/>
       <use xlink:href="#DejaVuSans-65" x="74.804688"/>
       <use xlink:href="#DejaVuSans-75" x="136.328125"/>
       <use xlink:href="#DejaVuSans-72" x="199.707031"/>
       <use xlink:href="#DejaVuSans-61" x="240.820312"/>
       <use xlink:href="#DejaVuSans-6c" x="302.099609"/>
       <use xlink:href="#DejaVuSans-2d" x="329.882812"/>
       <use xlink:href="#DejaVuSans-33" x="365.966797"/>
      </g>
     </g>
    </g>
    <g id="ytick_11">
     <g id="line2d_17">
      <g>
       <use xlink:href="#m7a1a4c3400" x="54" y="415.014545" style="stroke: #000000; stroke-width: 0.8"/>
      </g>
     </g>
     <g id="text_17">
      <!-- Neural-4 -->
      <g transform="translate(4.040625 418.813764)scale(0.1 -0.1)">
       <use xlink:href="#DejaVuSans-4e"/>
       <use xlink:href="#DejaVuSans-65" x="74.804688"/>
       <use xlink:href="#DejaVuSans-75" x="136.328125"/>
       <use xlink:href="#DejaVuSans-72" x="199.707031"/>
       <use xlink:href="#DejaVuSans-61" x="240.820312"/>
       <use xlink:href="#DejaVuSans-6c" x="302.099609"/>
       <use xlink:href="#DejaVuSans-2d" x="329.882812"/>
       <use xlink:href="#DejaVuSans-34" x="365.966797"/>
      </g>
     </g>
    </g>
    <g id="ytick_12">
     <g id="line2d_18">
      <g>
       <use xlink:href="#m7a1a4c3400" x="54" y="444.665455" style="stroke: #000000; stroke-width: 0.8"/>
      </g>
     </g>
     <g id="text_18">
      <!-- Neural-5 -->
      <g transform="translate(4.040625 448.464673)scale(0.1 -0.1)">
       <defs>
        <path id="DejaVuSans-35" d="M 691 4666 
L 3169 4666 
L 3169 4134 
L 1269 4134 
L 1269 2991 
Q 1406 3038 1543 3061 
Q 1681 3084 1819 3084 
Q 2600 3084 3056 2656 
Q 3513 2228 3513 1497 
Q 3513 744 3044 326 
Q 2575 -91 1722 -91 
Q 1428 -91 1123 -41 
Q 819 9 494 109 
L 494 744 
Q 775 591 1075 516 
Q 1375 441 1709 441 
Q 2250 441 2565 725 
Q 2881 1009 2881 1497 
Q 2881 1984 2565 2268 
Q 2250 2553 1709 2553 
Q 1456 2553 1204 2497 
Q 953 2441 691 2322 
L 691 4666 
z
" transform="scale(0.015625)"/>
       </defs>
       <use xlink:href="#DejaVuSans-4e"/>
       <use xlink:href="#DejaVuSans-65" x="74.804688"/>
       <use xlink:href="#DejaVuSans-75" x="136.328125"/>
       <use xlink:href="#DejaVuSans-72" x="199.707031"/>
       <use xlink:href="#DejaVuSans-61" x="240.820312"/>
       <use xlink:href="#DejaVuSans-6c" x="302.099609"/>
       <use xlink:href="#DejaVuSans-2d" x="329.882812"/>
       <use xlink:href="#DejaVuSans-35" x="365.966797"/>
      </g>
     </g>
    </g>
    <g id="ytick_13">
     <g id="line2d_19">
      <g>
       <use xlink:href="#m7a1a4c3400" x="54" y="474.316364" style="stroke: #000000; stroke-width: 0.8"/>
      </g>
     </g>
     <g id="text_19">
      <!-- Muscle Progenitors -->
      <g transform="translate(-47.61875 478.115582)scale(0.1 -0.1)">
       <defs>
        <path id="DejaVuSans-4d" d="M 628 4666 
L 1569 4666 
L 2759 1491 
L 3956 4666 
L 4897 4666 
L 4897 0 
L 4281 0 
L 4281 4097 
L 3078 897 
L 2444 897 
L 1241 4097 
L 1241 0 
L 628 0 
L 628 4666 
z
" transform="scale(0.015625)"/>
        <path id="DejaVuSans-63" d="M 3122 3366 
L 3122 2828 
Q 2878 2963 2633 3030 
Q 2388 3097 2138 3097 
Q 1578 3097 1268 2742 
Q 959 2388 959 1747 
Q 959 1106 1268 751 
Q 1578 397 2138 397 
Q 2388 397 2633 464 
Q 2878 531 3122 666 
L 3122 134 
Q 2881 22 2623 -34 
Q 2366 -91 2075 -91 
Q 1284 -91 818 406 
Q 353 903 353 1747 
Q 353 2603 823 3093 
Q 1294 3584 2113 3584 
Q 2378 3584 2631 3529 
Q 2884 3475 3122 3366 
z
" transform="scale(0.015625)"/>
       </defs>
       <use xlink:href="#DejaVuSans-4d"/>
       <use xlink:href="#DejaVuSans-75" x="86.279297"/>
       <use xlink:href="#DejaVuSans-73" x="149.658203"/>
       <use xlink:href="#DejaVuSans-63" x="201.757812"/>
       <use xlink:href="#DejaVuSans-6c" x="256.738281"/>
       <use xlink:href="#DejaVuSans-65" x="284.521484"/>
       <use xlink:href="#DejaVuSans-20" x="346.044922"/>
       <use xlink:href="#DejaVuSans-50" x="377.832031"/>
       <use xlink:href="#DejaVuSans-72" x="436.384766"/>
       <use xlink:href="#DejaVuSans-6f" x="475.248047"/>
       <use xlink:href="#DejaVuSans-67" x="536.429688"/>
       <use xlink:href="#DejaVuSans-65" x="599.90625"/>
       <use xlink:href="#DejaVuSans-6e" x="661.429688"/>
       <use xlink:href="#DejaVuSans-69" x="724.808594"/>
       <use xlink:href="#DejaVuSans-74" x="752.591797"/>
       <use xlink:href="#DejaVuSans-6f" x="791.800781"/>
       <use xlink:href="#DejaVuSans-72" x="852.982422"/>
       <use xlink:href="#DejaVuSans-73" x="894.095703"/>
      </g>
     </g>
    </g>
    <g id="ytick_14">
     <g id="line2d_20">
      <g>
       <use xlink:href="#m7a1a4c3400" x="54" y="503.967273" style="stroke: #000000; stroke-width: 0.8"/>
      </g>
     </g>
     <g id="text_20">
      <!-- Muscle-1 -->
      <g transform="translate(2.425 507.766491)scale(0.1 -0.1)">
       <use xlink:href="#DejaVuSans-4d"/>
       <use xlink:href="#DejaVuSans-75" x="86.279297"/>
       <use xlink:href="#DejaVuSans-73" x="149.658203"/>
       <use xlink:href="#DejaVuSans-63" x="201.757812"/>
       <use xlink:href="#DejaVuSans-6c" x="256.738281"/>
       <use xlink:href="#DejaVuSans-65" x="284.521484"/>
       <use xlink:href="#DejaVuSans-2d" x="346.044922"/>
       <use xlink:href="#DejaVuSans-31" x="382.128906"/>
      </g>
     </g>
    </g>
    <g id="ytick_15">
     <g id="line2d_21">
      <g>
       <use xlink:href="#m7a1a4c3400" x="54" y="533.618182" style="stroke: #000000; stroke-width: 0.8"/>
      </g>
     </g>
     <g id="text_21">
      <!-- Muscle-2 -->
      <g transform="translate(2.425 537.417401)scale(0.1 -0.1)">
       <use xlink:href="#DejaVuSans-4d"/>
       <use xlink:href="#DejaVuSans-75" x="86.279297"/>
       <use xlink:href="#DejaVuSans-73" x="149.658203"/>
       <use xlink:href="#DejaVuSans-63" x="201.757812"/>
       <use xlink:href="#DejaVuSans-6c" x="256.738281"/>
       <use xlink:href="#DejaVuSans-65" x="284.521484"/>
       <use xlink:href="#DejaVuSans-2d" x="346.044922"/>
       <use xlink:href="#DejaVuSans-32" x="382.128906"/>
      </g>
     </g>
    </g>
    <g id="ytick_16">
     <g id="line2d_22">
      <g>
       <use xlink:href="#m7a1a4c3400" x="54" y="563.269091" style="stroke: #000000; stroke-width: 0.8"/>
      </g>
     </g>
     <g id="text_22">
      <!-- Muscle-3 -->
      <g transform="translate(2.425 567.06831)scale(0.1 -0.1)">
       <use xlink:href="#DejaVuSans-4d"/>
       <use xlink:href="#DejaVuSans-75" x="86.279297"/>
       <use xlink:href="#DejaVuSans-73" x="149.658203"/>
       <use xlink:href="#DejaVuSans-63" x="201.757812"/>
       <use xlink:href="#DejaVuSans-6c" x="256.738281"/>
       <use xlink:href="#DejaVuSans-65" x="284.521484"/>
       <use xlink:href="#DejaVuSans-2d" x="346.044922"/>
       <use xlink:href="#DejaVuSans-33" x="382.128906"/>
      </g>
     </g>
    </g>
    <g id="ytick_17">
     <g id="line2d_23">
      <g>
       <use xlink:href="#m7a1a4c3400" x="54" y="592.92" style="stroke: #000000; stroke-width: 0.8"/>
      </g>
     </g>
     <g id="text_23">
      <!-- Tegument Progenitors -->
      <g transform="translate(-62.4125 596.719219)scale(0.1 -0.1)">
       <defs>
        <path id="DejaVuSans-54" d="M -19 4666 
L 3928 4666 
L 3928 4134 
L 2272 4134 
L 2272 0 
L 1638 0 
L 1638 4134 
L -19 4134 
L -19 4666 
z
" transform="scale(0.015625)"/>
        <path id="DejaVuSans-6d" d="M 3328 2828 
Q 3544 3216 3844 3400 
Q 4144 3584 4550 3584 
Q 5097 3584 5394 3201 
Q 5691 2819 5691 2113 
L 5691 0 
L 5113 0 
L 5113 2094 
Q 5113 2597 4934 2840 
Q 4756 3084 4391 3084 
Q 3944 3084 3684 2787 
Q 3425 2491 3425 1978 
L 3425 0 
L 2847 0 
L 2847 2094 
Q 2847 2600 2669 2842 
Q 2491 3084 2119 3084 
Q 1678 3084 1418 2786 
Q 1159 2488 1159 1978 
L 1159 0 
L 581 0 
L 581 3500 
L 1159 3500 
L 1159 2956 
Q 1356 3278 1631 3431 
Q 1906 3584 2284 3584 
Q 2666 3584 2933 3390 
Q 3200 3197 3328 2828 
z
" transform="scale(0.015625)"/>
       </defs>
       <use xlink:href="#DejaVuSans-54"/>
       <use xlink:href="#DejaVuSans-65" x="44.083984"/>
       <use xlink:href="#DejaVuSans-67" x="105.607422"/>
       <use xlink:href="#DejaVuSans-75" x="169.083984"/>
       <use xlink:href="#DejaVuSans-6d" x="232.462891"/>
       <use xlink:href="#DejaVuSans-65" x="329.875"/>
       <use xlink:href="#DejaVuSans-6e" x="391.398438"/>
       <use xlink:href="#DejaVuSans-74" x="454.777344"/>
       <use xlink:href="#DejaVuSans-20" x="493.986328"/>
       <use xlink:href="#DejaVuSans-50" x="525.773438"/>
       <use xlink:href="#DejaVuSans-72" x="584.326172"/>
       <use xlink:href="#DejaVuSans-6f" x="623.189453"/>
       <use xlink:href="#DejaVuSans-67" x="684.371094"/>
       <use xlink:href="#DejaVuSans-65" x="747.847656"/>
       <use xlink:href="#DejaVuSans-6e" x="809.371094"/>
       <use xlink:href="#DejaVuSans-69" x="872.75"/>
       <use xlink:href="#DejaVuSans-74" x="900.533203"/>
       <use xlink:href="#DejaVuSans-6f" x="939.742188"/>
       <use xlink:href="#DejaVuSans-72" x="1000.923828"/>
       <use xlink:href="#DejaVuSans-73" x="1042.037109"/>
      </g>
     </g>
    </g>
    <g id="ytick_18">
     <g id="line2d_24">
      <g>
       <use xlink:href="#m7a1a4c3400" x="54" y="622.570909" style="stroke: #000000; stroke-width: 0.8"/>
      </g>
     </g>
     <g id="text_24">
      <!-- Tegument-1 -->
      <g transform="translate(-12.36875 626.370128)scale(0.1 -0.1)">
       <use xlink:href="#DejaVuSans-54"/>
       <use xlink:href="#DejaVuSans-65" x="44.083984"/>
       <use xlink:href="#DejaVuSans-67" x="105.607422"/>
       <use xlink:href="#DejaVuSans-75" x="169.083984"/>
       <use xlink:href="#DejaVuSans-6d" x="232.462891"/>
       <use xlink:href="#DejaVuSans-65" x="329.875"/>
       <use xlink:href="#DejaVuSans-6e" x="391.398438"/>
       <use xlink:href="#DejaVuSans-74" x="454.777344"/>
       <use xlink:href="#DejaVuSans-2d" x="493.986328"/>
       <use xlink:href="#DejaVuSans-31" x="530.070312"/>
      </g>
     </g>
    </g>
    <g id="ytick_19">
     <g id="line2d_25">
      <g>
       <use xlink:href="#m7a1a4c3400" x="54" y="652.221818" style="stroke: #000000; stroke-width: 0.8"/>
      </g>
     </g>
     <g id="text_25">
      <!-- Tegument-2 -->
      <g transform="translate(-12.36875 656.021037)scale(0.1 -0.1)">
       <use xlink:href="#DejaVuSans-54"/>
       <use xlink:href="#DejaVuSans-65" x="44.083984"/>
       <use xlink:href="#DejaVuSans-67" x="105.607422"/>
       <use xlink:href="#DejaVuSans-75" x="169.083984"/>
       <use xlink:href="#DejaVuSans-6d" x="232.462891"/>
       <use xlink:href="#DejaVuSans-65" x="329.875"/>
       <use xlink:href="#DejaVuSans-6e" x="391.398438"/>
       <use xlink:href="#DejaVuSans-74" x="454.777344"/>
       <use xlink:href="#DejaVuSans-2d" x="493.986328"/>
       <use xlink:href="#DejaVuSans-32" x="530.070312"/>
      </g>
     </g>
    </g>
    <g id="ytick_20">
     <g id="line2d_26">
      <g>
       <use xlink:href="#m7a1a4c3400" x="54" y="681.872727" style="stroke: #000000; stroke-width: 0.8"/>
      </g>
     </g>
     <g id="text_26">
      <!-- Vitellocytes -->
      <g transform="translate(-10.842188 685.671946)scale(0.1 -0.1)">
       <defs>
        <path id="DejaVuSans-56" d="M 1831 0 
L 50 4666 
L 709 4666 
L 2188 738 
L 3669 4666 
L 4325 4666 
L 2547 0 
L 1831 0 
z
" transform="scale(0.015625)"/>
        <path id="DejaVuSans-79" d="M 2059 -325 
Q 1816 -950 1584 -1140 
Q 1353 -1331 966 -1331 
L 506 -1331 
L 506 -850 
L 844 -850 
Q 1081 -850 1212 -737 
Q 1344 -625 1503 -206 
L 1606 56 
L 191 3500 
L 800 3500 
L 1894 763 
L 2988 3500 
L 3597 3500 
L 2059 -325 
z
" transform="scale(0.015625)"/>
       </defs>
       <use xlink:href="#DejaVuSans-56"/>
       <use xlink:href="#DejaVuSans-69" x="66.158203"/>
       <use xlink:href="#DejaVuSans-74" x="93.941406"/>
       <use xlink:href="#DejaVuSans-65" x="133.150391"/>
       <use xlink:href="#DejaVuSans-6c" x="194.673828"/>
       <use xlink:href="#DejaVuSans-6c" x="222.457031"/>
       <use xlink:href="#DejaVuSans-6f" x="250.240234"/>
       <use xlink:href="#DejaVuSans-63" x="311.421875"/>
       <use xlink:href="#DejaVuSans-79" x="366.402344"/>
       <use xlink:href="#DejaVuSans-74" x="425.582031"/>
       <use xlink:href="#DejaVuSans-65" x="464.791016"/>
       <use xlink:href="#DejaVuSans-73" x="526.314453"/>
      </g>
     </g>
    </g>
    <g id="ytick_21">
     <g id="line2d_27">
      <g>
       <use xlink:href="#m7a1a4c3400" x="54" y="711.523636" style="stroke: #000000; stroke-width: 0.8"/>
      </g>
     </g>
     <g id="text_27">
      <!-- Oesophageal Gland -->
      <g transform="translate(-51.09375 715.322855)scale(0.1 -0.1)">
       <defs>
        <path id="DejaVuSans-64" d="M 2906 2969 
L 2906 4863 
L 3481 4863 
L 3481 0 
L 2906 0 
L 2906 525 
Q 2725 213 2448 61 
Q 2172 -91 1784 -91 
Q 1150 -91 751 415 
Q 353 922 353 1747 
Q 353 2572 751 3078 
Q 1150 3584 1784 3584 
Q 2172 3584 2448 3432 
Q 2725 3281 2906 2969 
z
M 947 1747 
Q 947 1113 1208 752 
Q 1469 391 1925 391 
Q 2381 391 2643 752 
Q 2906 1113 2906 1747 
Q 2906 2381 2643 2742 
Q 2381 3103 1925 3103 
Q 1469 3103 1208 2742 
Q 947 2381 947 1747 
z
" transform="scale(0.015625)"/>
       </defs>
       <use xlink:href="#DejaVuSans-4f"/>
       <use xlink:href="#DejaVuSans-65" x="78.710938"/>
       <use xlink:href="#DejaVuSans-73" x="140.234375"/>
       <use xlink:href="#DejaVuSans-6f" x="192.333984"/>
       <use xlink:href="#DejaVuSans-70" x="253.515625"/>
       <use xlink:href="#DejaVuSans-68" x="316.992188"/>
       <use xlink:href="#DejaVuSans-61" x="380.371094"/>
       <use xlink:href="#DejaVuSans-67" x="441.650391"/>
       <use xlink:href="#DejaVuSans-65" x="505.126953"/>
       <use xlink:href="#DejaVuSans-61" x="566.650391"/>
       <use xlink:href="#DejaVuSans-6c" x="627.929688"/>
       <use xlink:href="#DejaVuSans-20" x="655.712891"/>
       <use xlink:href="#DejaVuSans-47" x="687.5"/>
       <use xlink:href="#DejaVuSans-6c" x="764.990234"/>
       <use xlink:href="#DejaVuSans-61" x="792.773438"/>
       <use xlink:href="#DejaVuSans-6e" x="854.052734"/>
       <use xlink:href="#DejaVuSans-64" x="917.431641"/>
      </g>
     </g>
    </g>
    <g id="ytick_22">
     <g id="line2d_28">
      <g>
       <use xlink:href="#m7a1a4c3400" x="54" y="741.174545" style="stroke: #000000; stroke-width: 0.8"/>
      </g>
     </g>
     <g id="text_28">
      <!-- Protonephridia -->
      <g transform="translate(-26.21875 744.973764)scale(0.1 -0.1)">
       <use xlink:href="#DejaVuSans-50"/>
       <use xlink:href="#DejaVuSans-72" x="58.552734"/>
       <use xlink:href="#DejaVuSans-6f" x="97.416016"/>
       <use xlink:href="#DejaVuSans-74" x="158.597656"/>
       <use xlink:href="#DejaVuSans-6f" x="197.806641"/>
       <use xlink:href="#DejaVuSans-6e" x="258.988281"/>
       <use xlink:href="#DejaVuSans-65" x="322.367188"/>
       <use xlink:href="#DejaVuSans-70" x="383.890625"/>
       <use xlink:href="#DejaVuSans-68" x="447.367188"/>
       <use xlink:href="#DejaVuSans-72" x="510.746094"/>
       <use xlink:href="#DejaVuSans-69" x="551.859375"/>
       <use xlink:href="#DejaVuSans-64" x="579.642578"/>
       <use xlink:href="#DejaVuSans-69" x="643.119141"/>
       <use xlink:href="#DejaVuSans-61" x="670.902344"/>
      </g>
     </g>
    </g>
    <g id="text_29">
     <!-- GroupFigure -->
     <g transform="translate(-68.492188 460.324375)rotate(-90)scale(0.1 -0.1)">
      <defs>
       <path id="DejaVuSans-46" d="M 628 4666 
L 3309 4666 
L 3309 4134 
L 1259 4134 
L 1259 2759 
L 3109 2759 
L 3109 2228 
L 1259 2228 
L 1259 0 
L 628 0 
L 628 4666 
z
" transform="scale(0.015625)"/>
      </defs>
      <use xlink:href="#DejaVuSans-47"/>
      <use xlink:href="#DejaVuSans-72" x="77.490234"/>
      <use xlink:href="#DejaVuSans-6f" x="116.353516"/>
      <use xlink:href="#DejaVuSans-75" x="177.535156"/>
      <use xlink:href="#DejaVuSans-70" x="240.914062"/>
      <use xlink:href="#DejaVuSans-46" x="304.390625"/>
      <use xlink:href="#DejaVuSans-69" x="354.660156"/>
      <use xlink:href="#DejaVuSans-67" x="382.443359"/>
      <use xlink:href="#DejaVuSans-75" x="445.919922"/>
      <use xlink:href="#DejaVuSans-72" x="509.298828"/>
      <use xlink:href="#DejaVuSans-65" x="548.162109"/>
     </g>
    </g>
   </g>
   <g id="patch_91">
    <path d="M 54 756 
L 54 103.68 
" style="fill: none; stroke: #000000; stroke-width: 0.8; stroke-linejoin: miter; stroke-linecap: square"/>
   </g>
   <g id="patch_92">
    <path d="M 388.8 756 
L 388.8 103.68 
" style="fill: none; stroke: #000000; stroke-width: 0.8; stroke-linejoin: miter; stroke-linecap: square"/>
   </g>
   <g id="patch_93">
    <path d="M 54 756 
L 388.8 756 
" style="fill: none; stroke: #000000; stroke-width: 0.8; stroke-linejoin: miter; stroke-linecap: square"/>
   </g>
   <g id="patch_94">
    <path d="M 54 103.68 
L 388.8 103.68 
" style="fill: none; stroke: #000000; stroke-width: 0.8; stroke-linejoin: miter; stroke-linecap: square"/>
   </g>
   <g id="legend_1">
    <g id="patch_95">
     <path d="M 395.8 171.505 
L 506.828125 171.505 
Q 508.828125 171.505 508.828125 169.505 
L 508.828125 110.68 
Q 508.828125 108.68 506.828125 108.68 
L 395.8 108.68 
Q 393.8 108.68 393.8 110.68 
L 393.8 169.505 
Q 393.8 171.505 395.8 171.505 
z
" style="fill: #ffffff; opacity: 0.8; stroke: #cccccc; stroke-linejoin: miter"/>
    </g>
    <g id="patch_96">
     <path d="M 397.8 120.278437 
L 417.8 120.278437 
L 417.8 113.278437 
L 397.8 113.278437 
z
" style="fill: #1f77b4"/>
    </g>
    <g id="text_30">
     <!-- adult_cut -->
     <g transform="translate(425.8 120.278437)scale(0.1 -0.1)">
      <defs>
       <path id="DejaVuSans-5f" d="M 3263 -1063 
L 3263 -1509 
L -63 -1509 
L -63 -1063 
L 3263 -1063 
z
" transform="scale(0.015625)"/>
      </defs>
      <use xlink:href="#DejaVuSans-61"/>
      <use xlink:href="#DejaVuSans-64" x="61.279297"/>
      <use xlink:href="#DejaVuSans-75" x="124.755859"/>
      <use xlink:href="#DejaVuSans-6c" x="188.134766"/>
      <use xlink:href="#DejaVuSans-74" x="215.917969"/>
      <use xlink:href="#DejaVuSans-5f" x="255.126953"/>
      <use xlink:href="#DejaVuSans-63" x="305.126953"/>
      <use xlink:href="#DejaVuSans-75" x="360.107422"/>
      <use xlink:href="#DejaVuSans-74" x="423.486328"/>
     </g>
    </g>
    <g id="patch_97">
     <path d="M 397.8 135.234687 
L 417.8 135.234687 
L 417.8 128.234687 
L 397.8 128.234687 
z
" style="fill: #ff7f0e"/>
    </g>
    <g id="text_31">
     <!-- adult_uncut -->
     <g transform="translate(425.8 135.234687)scale(0.1 -0.1)">
      <use xlink:href="#DejaVuSans-61"/>
      <use xlink:href="#DejaVuSans-64" x="61.279297"/>
      <use xlink:href="#DejaVuSans-75" x="124.755859"/>
      <use xlink:href="#DejaVuSans-6c" x="188.134766"/>
      <use xlink:href="#DejaVuSans-74" x="215.917969"/>
      <use xlink:href="#DejaVuSans-5f" x="255.126953"/>
      <use xlink:href="#DejaVuSans-75" x="305.126953"/>
      <use xlink:href="#DejaVuSans-6e" x="368.505859"/>
      <use xlink:href="#DejaVuSans-63" x="431.884766"/>
      <use xlink:href="#DejaVuSans-75" x="486.865234"/>
      <use xlink:href="#DejaVuSans-74" x="550.244141"/>
     </g>
    </g>
    <g id="patch_98">
     <path d="M 397.8 150.190938 
L 417.8 150.190938 
L 417.8 143.190938 
L 397.8 143.190938 
z
" style="fill: #2ca02c"/>
    </g>
    <g id="text_32">
     <!-- juvenile1_uncut -->
     <g transform="translate(425.8 150.190938)scale(0.1 -0.1)">
      <defs>
       <path id="DejaVuSans-6a" d="M 603 3500 
L 1178 3500 
L 1178 -63 
Q 1178 -731 923 -1031 
Q 669 -1331 103 -1331 
L -116 -1331 
L -116 -844 
L 38 -844 
Q 366 -844 484 -692 
Q 603 -541 603 -63 
L 603 3500 
z
M 603 4863 
L 1178 4863 
L 1178 4134 
L 603 4134 
L 603 4863 
z
" transform="scale(0.015625)"/>
       <path id="DejaVuSans-76" d="M 191 3500 
L 800 3500 
L 1894 563 
L 2988 3500 
L 3597 3500 
L 2284 0 
L 1503 0 
L 191 3500 
z
" transform="scale(0.015625)"/>
      </defs>
      <use xlink:href="#DejaVuSans-6a"/>
      <use xlink:href="#DejaVuSans-75" x="27.783203"/>
      <use xlink:href="#DejaVuSans-76" x="91.162109"/>
      <use xlink:href="#DejaVuSans-65" x="150.341797"/>
      <use xlink:href="#DejaVuSans-6e" x="211.865234"/>
      <use xlink:href="#DejaVuSans-69" x="275.244141"/>
      <use xlink:href="#DejaVuSans-6c" x="303.027344"/>
      <use xlink:href="#DejaVuSans-65" x="330.810547"/>
      <use xlink:href="#DejaVuSans-31" x="392.333984"/>
      <use xlink:href="#DejaVuSans-5f" x="455.957031"/>
      <use xlink:href="#DejaVuSans-75" x="505.957031"/>
      <use xlink:href="#DejaVuSans-6e" x="569.335938"/>
      <use xlink:href="#DejaVuSans-63" x="632.714844"/>
      <use xlink:href="#DejaVuSans-75" x="687.695312"/>
      <use xlink:href="#DejaVuSans-74" x="751.074219"/>
     </g>
    </g>
    <g id="patch_99">
     <path d="M 397.8 165.147187 
L 417.8 165.147187 
L 417.8 158.147187 
L 397.8 158.147187 
z
" style="fill: #d62728"/>
    </g>
    <g id="text_33">
     <!-- juvenile2_uncut -->
     <g transform="translate(425.8 165.147187)scale(0.1 -0.1)">
      <use xlink:href="#DejaVuSans-6a"/>
      <use xlink:href="#DejaVuSans-75" x="27.783203"/>
      <use xlink:href="#DejaVuSans-76" x="91.162109"/>
      <use xlink:href="#DejaVuSans-65" x="150.341797"/>
      <use xlink:href="#DejaVuSans-6e" x="211.865234"/>
      <use xlink:href="#DejaVuSans-69" x="275.244141"/>
      <use xlink:href="#DejaVuSans-6c" x="303.027344"/>
      <use xlink:href="#DejaVuSans-65" x="330.810547"/>
      <use xlink:href="#DejaVuSans-32" x="392.333984"/>
      <use xlink:href="#DejaVuSans-5f" x="455.957031"/>
      <use xlink:href="#DejaVuSans-75" x="505.957031"/>
      <use xlink:href="#DejaVuSans-6e" x="569.335938"/>
      <use xlink:href="#DejaVuSans-63" x="632.714844"/>
      <use xlink:href="#DejaVuSans-75" x="687.695312"/>
      <use xlink:href="#DejaVuSans-74" x="751.074219"/>
     </g>
    </g>
   </g>
  </g>
 </g>
 <defs>
  <clipPath id="p9dada3ea61">
   <rect x="54" y="103.68" width="334.8" height="652.32"/>
  </clipPath>
 </defs>
</svg>
