<?xml version="1.0" encoding="utf-8" standalone="no"?>
<!DOCTYPE svg PUBLIC "-//W3C//DTD SVG 1.1//EN"
  "http://www.w3.org/Graphics/SVG/1.1/DTD/svg11.dtd">
<svg xmlns:xlink="http://www.w3.org/1999/xlink" width="432pt" height="864pt" viewBox="0 0 432 864" xmlns="http://www.w3.org/2000/svg" version="1.1">
 <metadata>
  <rdf:RDF xmlns:dc="http://purl.org/dc/elements/1.1/" xmlns:cc="http://creativecommons.org/ns#" xmlns:rdf="http://www.w3.org/1999/02/22-rdf-syntax-ns#">
   <cc:Work>
    <dc:type rdf:resource="http://purl.org/dc/dcmitype/StillImage"/>
    <dc:date>2024-04-22T18:21:53.194075</dc:date>
    <dc:format>image/svg+xml</dc:format>
    <dc:creator>
     <cc:Agent>
      <dc:title>Matplotlib v3.5.3, https://matplotlib.org/</dc:title>
     </cc:Agent>
    </dc:creator>
   </cc:Work>
  </rdf:RDF>
 </metadata>
 <defs>
  <style type="text/css">*{stroke-linejoin: round; stroke-linecap: butt}</style>
 </defs>
 <g id="figure_1">
  <g id="patch_1">
   <path d="M 0 864 
L 432 864 
L 432 0 
L 0 0 
L 0 864 
z
" style="fill: none"/>
  </g>
  <g id="axes_1">
   <g id="patch_2">
    <path d="M 54 756 
L 388.8 756 
L 388.8 103.68 
L 54 103.68 
z
" style="fill: #ffffff"/>
   </g>
   <g id="patch_3">
    <path d="M 54 111.834 
L 79.618133 111.834 
L 79.618133 128.142 
L 54 128.142 
z
" clip-path="url(#pb7521e71f1)" style="fill: #1f77b4"/>
   </g>
   <g id="patch_4">
    <path d="M 54 144.45 
L 90.993748 144.45 
L 90.993748 160.758 
L 54 160.758 
z
" clip-path="url(#pb7521e71f1)" style="fill: #1f77b4"/>
   </g>
   <g id="patch_5">
    <path d="M 54 177.066 
L 83.98209 177.066 
L 83.98209 193.374 
L 54 193.374 
z
" clip-path="url(#pb7521e71f1)" style="fill: #1f77b4"/>
   </g>
   <g id="patch_6">
    <path d="M 54 209.682 
L 152.955665 209.682 
L 152.955665 225.99 
L 54 225.99 
z
" clip-path="url(#pb7521e71f1)" style="fill: #1f77b4"/>
   </g>
   <g id="patch_7">
    <path d="M 54 242.298 
L 138.978437 242.298 
L 138.978437 258.606 
L 54 258.606 
z
" clip-path="url(#pb7521e71f1)" style="fill: #1f77b4"/>
   </g>
   <g id="patch_8">
    <path d="M 54 274.914 
L 118.712704 274.914 
L 118.712704 291.222 
L 54 291.222 
z
" clip-path="url(#pb7521e71f1)" style="fill: #1f77b4"/>
   </g>
   <g id="patch_9">
    <path d="M 54 307.53 
L 87.721672 307.53 
L 87.721672 323.838 
L 54 323.838 
z
" clip-path="url(#pb7521e71f1)" style="fill: #1f77b4"/>
   </g>
   <g id="patch_10">
    <path d="M 54 340.146 
L 83.764961 340.146 
L 83.764961 356.454 
L 54 356.454 
z
" clip-path="url(#pb7521e71f1)" style="fill: #1f77b4"/>
   </g>
   <g id="patch_11">
    <path d="M 54 372.762 
L 66.492537 372.762 
L 66.492537 389.07 
L 54 389.07 
z
" clip-path="url(#pb7521e71f1)" style="fill: #1f77b4"/>
   </g>
   <g id="patch_12">
    <path d="M 54 405.378 
L 69.921342 405.378 
L 69.921342 421.686 
L 54 421.686 
z
" clip-path="url(#pb7521e71f1)" style="fill: #1f77b4"/>
   </g>
   <g id="patch_13">
    <path d="M 54 437.994 
L 79.281553 437.994 
L 79.281553 454.302 
L 54 454.302 
z
" clip-path="url(#pb7521e71f1)" style="fill: #1f77b4"/>
   </g>
   <g id="patch_14">
    <path d="M 54 470.61 
L 67.506808 470.61 
L 67.506808 486.918 
L 54 486.918 
z
" clip-path="url(#pb7521e71f1)" style="fill: #1f77b4"/>
   </g>
   <g id="patch_15">
    <path d="M 54 503.226 
L 60.218845 503.226 
L 60.218845 519.534 
L 54 519.534 
z
" clip-path="url(#pb7521e71f1)" style="fill: #1f77b4"/>
   </g>
   <g id="patch_16">
    <path d="M 54 535.842 
L 79.694313 535.842 
L 79.694313 552.15 
L 54 552.15 
z
" clip-path="url(#pb7521e71f1)" style="fill: #1f77b4"/>
   </g>
   <g id="patch_17">
    <path d="M 54 568.458 
L 77.228004 568.458 
L 77.228004 584.766 
L 54 584.766 
z
" clip-path="url(#pb7521e71f1)" style="fill: #1f77b4"/>
   </g>
   <g id="patch_18">
    <path d="M 54 601.074 
L 89.105023 601.074 
L 89.105023 617.382 
L 54 617.382 
z
" clip-path="url(#pb7521e71f1)" style="fill: #1f77b4"/>
   </g>
   <g id="patch_19">
    <path d="M 54 633.69 
L 94.691425 633.69 
L 94.691425 649.998 
L 54 649.998 
z
" clip-path="url(#pb7521e71f1)" style="fill: #1f77b4"/>
   </g>
   <g id="patch_20">
    <path d="M 54 666.306 
L 59.77117 666.306 
L 59.77117 682.614 
L 54 682.614 
z
" clip-path="url(#pb7521e71f1)" style="fill: #1f77b4"/>
   </g>
   <g id="patch_21">
    <path d="M 54 698.922 
L 87.499562 698.922 
L 87.499562 715.23 
L 54 715.23 
z
" clip-path="url(#pb7521e71f1)" style="fill: #1f77b4"/>
   </g>
   <g id="patch_22">
    <path d="M 54 731.538 
L 70.468949 731.538 
L 70.468949 747.846 
L 54 747.846 
z
" clip-path="url(#pb7521e71f1)" style="fill: #1f77b4"/>
   </g>
   <g id="patch_23">
    <path d="M 79.618133 111.834 
L 120.864939 111.834 
L 120.864939 128.142 
L 79.618133 128.142 
z
" clip-path="url(#pb7521e71f1)" style="fill: #ff7f0e"/>
   </g>
   <g id="patch_24">
    <path d="M 90.993748 144.45 
L 135.228265 144.45 
L 135.228265 160.758 
L 90.993748 160.758 
z
" clip-path="url(#pb7521e71f1)" style="fill: #ff7f0e"/>
   </g>
   <g id="patch_25">
    <path d="M 83.98209 177.066 
L 120.626866 177.066 
L 120.626866 193.374 
L 83.98209 193.374 
z
" clip-path="url(#pb7521e71f1)" style="fill: #ff7f0e"/>
   </g>
   <g id="patch_26">
    <path d="M 152.955665 209.682 
L 273.901478 209.682 
L 273.901478 225.99 
L 152.955665 225.99 
z
" clip-path="url(#pb7521e71f1)" style="fill: #ff7f0e"/>
   </g>
   <g id="patch_27">
    <path d="M 138.978437 242.298 
L 260.053908 242.298 
L 260.053908 258.606 
L 138.978437 258.606 
z
" clip-path="url(#pb7521e71f1)" style="fill: #ff7f0e"/>
   </g>
   <g id="patch_28">
    <path d="M 118.712704 274.914 
L 218.723247 274.914 
L 218.723247 291.222 
L 118.712704 291.222 
z
" clip-path="url(#pb7521e71f1)" style="fill: #ff7f0e"/>
   </g>
   <g id="patch_29">
    <path d="M 87.721672 307.53 
L 126.688937 307.53 
L 126.688937 323.838 
L 87.721672 323.838 
z
" clip-path="url(#pb7521e71f1)" style="fill: #ff7f0e"/>
   </g>
   <g id="patch_30">
    <path d="M 83.764961 340.146 
L 119.668945 340.146 
L 119.668945 356.454 
L 83.764961 356.454 
z
" clip-path="url(#pb7521e71f1)" style="fill: #ff7f0e"/>
   </g>
   <g id="patch_31">
    <path d="M 66.492537 372.762 
L 82.554371 372.762 
L 82.554371 389.07 
L 66.492537 389.07 
z
" clip-path="url(#pb7521e71f1)" style="fill: #ff7f0e"/>
   </g>
   <g id="patch_32">
    <path d="M 69.921342 405.378 
L 91.580104 405.378 
L 91.580104 421.686 
L 69.921342 421.686 
z
" clip-path="url(#pb7521e71f1)" style="fill: #ff7f0e"/>
   </g>
   <g id="patch_33">
    <path d="M 79.281553 437.994 
L 109.722607 437.994 
L 109.722607 454.302 
L 79.281553 454.302 
z
" clip-path="url(#pb7521e71f1)" style="fill: #ff7f0e"/>
   </g>
   <g id="patch_34">
    <path d="M 67.506808 470.61 
L 82.460774 470.61 
L 82.460774 486.918 
L 67.506808 486.918 
z
" clip-path="url(#pb7521e71f1)" style="fill: #ff7f0e"/>
   </g>
   <g id="patch_35">
    <path d="M 60.218845 503.226 
L 69.829787 503.226 
L 69.829787 519.534 
L 60.218845 519.534 
z
" clip-path="url(#pb7521e71f1)" style="fill: #ff7f0e"/>
   </g>
   <g id="patch_36">
    <path d="M 79.694313 535.842 
L 109.722607 535.842 
L 109.722607 552.15 
L 79.694313 552.15 
z
" clip-path="url(#pb7521e71f1)" style="fill: #ff7f0e"/>
   </g>
   <g id="patch_37">
    <path d="M 77.228004 568.458 
L 107.494797 568.458 
L 107.494797 584.766 
L 77.228004 584.766 
z
" clip-path="url(#pb7521e71f1)" style="fill: #ff7f0e"/>
   </g>
   <g id="patch_38">
    <path d="M 89.105023 601.074 
L 126.313112 601.074 
L 126.313112 617.382 
L 89.105023 617.382 
z
" clip-path="url(#pb7521e71f1)" style="fill: #ff7f0e"/>
   </g>
   <g id="patch_39">
    <path d="M 94.691425 633.69 
L 149.592553 633.69 
L 149.592553 649.998 
L 94.691425 649.998 
z
" clip-path="url(#pb7521e71f1)" style="fill: #ff7f0e"/>
   </g>
   <g id="patch_40">
    <path d="M 59.77117 666.306 
L 65.54234 666.306 
L 65.54234 682.614 
L 59.77117 682.614 
z
" clip-path="url(#pb7521e71f1)" style="fill: #ff7f0e"/>
   </g>
   <g id="patch_41">
    <path d="M 87.499562 698.922 
L 120.999124 698.922 
L 120.999124 715.23 
L 87.499562 715.23 
z
" clip-path="url(#pb7521e71f1)" style="fill: #ff7f0e"/>
   </g>
   <g id="patch_42">
    <path d="M 70.468949 731.538 
L 97.917196 731.538 
L 97.917196 747.846 
L 70.468949 747.846 
z
" clip-path="url(#pb7521e71f1)" style="fill: #ff7f0e"/>
   </g>
   <g id="patch_43">
    <path d="M 120.864939 111.834 
L 167.106475 111.834 
L 167.106475 128.142 
L 120.864939 128.142 
z
" clip-path="url(#pb7521e71f1)" style="fill: #2ca02c"/>
   </g>
   <g id="patch_44">
    <path d="M 135.228265 144.45 
L 185.518698 144.45 
L 185.518698 160.758 
L 135.228265 160.758 
z
" clip-path="url(#pb7521e71f1)" style="fill: #2ca02c"/>
   </g>
   <g id="patch_45">
    <path d="M 120.626866 177.066 
L 157.747548 177.066 
L 157.747548 193.374 
L 120.626866 193.374 
z
" clip-path="url(#pb7521e71f1)" style="fill: #2ca02c"/>
   </g>
   <g id="patch_46">
    <path d="M 273.901478 209.682 
L 367.359606 209.682 
L 367.359606 225.99 
L 273.901478 225.99 
z
" clip-path="url(#pb7521e71f1)" style="fill: #2ca02c"/>
   </g>
   <g id="patch_47">
    <path d="M 260.053908 242.298 
L 365.336927 242.298 
L 365.336927 258.606 
L 260.053908 258.606 
z
" clip-path="url(#pb7521e71f1)" style="fill: #2ca02c"/>
   </g>
   <g id="patch_48">
    <path d="M 218.723247 274.914 
L 341.089088 274.914 
L 341.089088 291.222 
L 218.723247 291.222 
z
" clip-path="url(#pb7521e71f1)" style="fill: #2ca02c"/>
   </g>
   <g id="patch_49">
    <path d="M 126.688937 307.53 
L 172.025852 307.53 
L 172.025852 323.838 
L 126.688937 323.838 
z
" clip-path="url(#pb7521e71f1)" style="fill: #2ca02c"/>
   </g>
   <g id="patch_50">
    <path d="M 119.668945 340.146 
L 162.642107 340.146 
L 162.642107 356.454 
L 119.668945 356.454 
z
" clip-path="url(#pb7521e71f1)" style="fill: #2ca02c"/>
   </g>
   <g id="patch_51">
    <path d="M 82.554371 372.762 
L 96.831557 372.762 
L 96.831557 389.07 
L 82.554371 389.07 
z
" clip-path="url(#pb7521e71f1)" style="fill: #2ca02c"/>
   </g>
   <g id="patch_52">
    <path d="M 91.580104 405.378 
L 118.115674 405.378 
L 118.115674 421.686 
L 91.580104 421.686 
z
" clip-path="url(#pb7521e71f1)" style="fill: #2ca02c"/>
   </g>
   <g id="patch_53">
    <path d="M 109.722607 437.994 
L 143.775312 437.994 
L 143.775312 454.302 
L 109.722607 454.302 
z
" clip-path="url(#pb7521e71f1)" style="fill: #2ca02c"/>
   </g>
   <g id="patch_54">
    <path d="M 82.460774 470.61 
L 106.580073 470.61 
L 106.580073 486.918 
L 82.460774 486.918 
z
" clip-path="url(#pb7521e71f1)" style="fill: #2ca02c"/>
   </g>
   <g id="patch_55">
    <path d="M 69.829787 503.226 
L 80.006079 503.226 
L 80.006079 519.534 
L 69.829787 519.534 
z
" clip-path="url(#pb7521e71f1)" style="fill: #2ca02c"/>
   </g>
   <g id="patch_56">
    <path d="M 109.722607 535.842 
L 144.084882 535.842 
L 144.084882 552.15 
L 109.722607 552.15 
z
" clip-path="url(#pb7521e71f1)" style="fill: #2ca02c"/>
   </g>
   <g id="patch_57">
    <path d="M 107.494797 568.458 
L 143.040681 568.458 
L 143.040681 584.766 
L 107.494797 584.766 
z
" clip-path="url(#pb7521e71f1)" style="fill: #2ca02c"/>
   </g>
   <g id="patch_58">
    <path d="M 126.313112 601.074 
L 170.477495 601.074 
L 170.477495 617.382 
L 126.313112 617.382 
z
" clip-path="url(#pb7521e71f1)" style="fill: #2ca02c"/>
   </g>
   <g id="patch_59">
    <path d="M 149.592553 633.69 
L 205.785473 633.69 
L 205.785473 649.998 
L 149.592553 649.998 
z
" clip-path="url(#pb7521e71f1)" style="fill: #2ca02c"/>
   </g>
   <g id="patch_60">
    <path d="M 65.54234 666.306 
L 71.31351 666.306 
L 71.31351 682.614 
L 65.54234 682.614 
z
" clip-path="url(#pb7521e71f1)" style="fill: #2ca02c"/>
   </g>
   <g id="patch_61">
    <path d="M 120.999124 698.922 
L 164.524102 698.922 
L 164.524102 715.23 
L 120.999124 715.23 
z
" clip-path="url(#pb7521e71f1)" style="fill: #2ca02c"/>
   </g>
   <g id="patch_62">
    <path d="M 97.917196 731.538 
L 122.620619 731.538 
L 122.620619 747.846 
L 97.917196 747.846 
z
" clip-path="url(#pb7521e71f1)" style="fill: #2ca02c"/>
   </g>
   <g id="patch_63">
    <path d="M 167.106475 111.834 
L 292.458096 111.834 
L 292.458096 128.142 
L 167.106475 128.142 
z
" clip-path="url(#pb7521e71f1)" style="fill: #d62728"/>
   </g>
   <g id="patch_64">
    <path d="M 185.518698 144.45 
L 287.942668 144.45 
L 287.942668 160.758 
L 185.518698 160.758 
z
" clip-path="url(#pb7521e71f1)" style="fill: #d62728"/>
   </g>
   <g id="patch_65">
    <path d="M 157.747548 177.066 
L 286.242217 177.066 
L 286.242217 193.374 
L 157.747548 193.374 
z
" clip-path="url(#pb7521e71f1)" style="fill: #d62728"/>
   </g>
   <g id="patch_66">
    <path d="M 367.359606 209.682 
L 372.857143 209.682 
L 372.857143 225.99 
L 367.359606 225.99 
z
" clip-path="url(#pb7521e71f1)" style="fill: #d62728"/>
   </g>
   <g id="patch_67">
    <path d="M 54 242.298 
L 54 242.298 
L 54 258.606 
L 54 258.606 
z
" clip-path="url(#pb7521e71f1)" style="fill: #d62728"/>
   </g>
   <g id="patch_68">
    <path d="M 341.089088 274.914 
L 370.503954 274.914 
L 370.503954 291.222 
L 341.089088 291.222 
z
" clip-path="url(#pb7521e71f1)" style="fill: #d62728"/>
   </g>
   <g id="patch_69">
    <path d="M 172.025852 307.53 
L 285.555481 307.53 
L 285.555481 323.838 
L 172.025852 323.838 
z
" clip-path="url(#pb7521e71f1)" style="fill: #d62728"/>
   </g>
   <g id="patch_70">
    <path d="M 162.642107 340.146 
L 298.072679 340.146 
L 298.072679 356.454 
L 162.642107 356.454 
z
" clip-path="url(#pb7521e71f1)" style="fill: #d62728"/>
   </g>
   <g id="patch_71">
    <path d="M 96.831557 372.762 
L 285.409382 372.762 
L 285.409382 389.07 
L 96.831557 389.07 
z
" clip-path="url(#pb7521e71f1)" style="fill: #d62728"/>
   </g>
   <g id="patch_72">
    <path d="M 118.115674 405.378 
L 233.581261 405.378 
L 233.581261 421.686 
L 118.115674 421.686 
z
" clip-path="url(#pb7521e71f1)" style="fill: #d62728"/>
   </g>
   <g id="patch_73">
    <path d="M 143.775312 437.994 
L 267.603329 437.994 
L 267.603329 454.302 
L 143.775312 454.302 
z
" clip-path="url(#pb7521e71f1)" style="fill: #d62728"/>
   </g>
   <g id="patch_74">
    <path d="M 106.580073 470.61 
L 206.91636 470.61 
L 206.91636 486.918 
L 106.580073 486.918 
z
" clip-path="url(#pb7521e71f1)" style="fill: #d62728"/>
   </g>
   <g id="patch_75">
    <path d="M 80.006079 503.226 
L 238.869301 503.226 
L 238.869301 519.534 
L 80.006079 519.534 
z
" clip-path="url(#pb7521e71f1)" style="fill: #d62728"/>
   </g>
   <g id="patch_76">
    <path d="M 144.084882 535.842 
L 250.576976 535.842 
L 250.576976 552.15 
L 144.084882 552.15 
z
" clip-path="url(#pb7521e71f1)" style="fill: #d62728"/>
   </g>
   <g id="patch_77">
    <path d="M 143.040681 568.458 
L 256.013245 568.458 
L 256.013245 584.766 
L 143.040681 584.766 
z
" clip-path="url(#pb7521e71f1)" style="fill: #d62728"/>
   </g>
   <g id="patch_78">
    <path d="M 170.477495 601.074 
L 296.823222 601.074 
L 296.823222 617.382 
L 170.477495 617.382 
z
" clip-path="url(#pb7521e71f1)" style="fill: #d62728"/>
   </g>
   <g id="patch_79">
    <path d="M 205.785473 633.69 
L 313.219446 633.69 
L 313.219446 649.998 
L 205.785473 649.998 
z
" clip-path="url(#pb7521e71f1)" style="fill: #d62728"/>
   </g>
   <g id="patch_80">
    <path d="M 71.31351 666.306 
L 237.234648 666.306 
L 237.234648 682.614 
L 71.31351 682.614 
z
" clip-path="url(#pb7521e71f1)" style="fill: #d62728"/>
   </g>
   <g id="patch_81">
    <path d="M 164.524102 698.922 
L 287.518843 698.922 
L 287.518843 715.23 
L 164.524102 715.23 
z
" clip-path="url(#pb7521e71f1)" style="fill: #d62728"/>
   </g>
   <g id="patch_82">
    <path d="M 122.620619 731.538 
L 262.606682 731.538 
L 262.606682 747.846 
L 122.620619 747.846 
z
" clip-path="url(#pb7521e71f1)" style="fill: #d62728"/>
   </g>
   <g id="patch_83">
    <path d="M 292.458096 111.834 
L 372.857143 111.834 
L 372.857143 128.142 
L 292.458096 128.142 
z
" clip-path="url(#pb7521e71f1)" style="fill: #9467bd"/>
   </g>
   <g id="patch_84">
    <path d="M 287.942668 144.45 
L 372.857143 144.45 
L 372.857143 160.758 
L 287.942668 160.758 
z
" clip-path="url(#pb7521e71f1)" style="fill: #9467bd"/>
   </g>
   <g id="patch_85">
    <path d="M 286.242217 177.066 
L 372.857143 177.066 
L 372.857143 193.374 
L 286.242217 193.374 
z
" clip-path="url(#pb7521e71f1)" style="fill: #9467bd"/>
   </g>
   <g id="patch_86">
    <path d="M 54 209.682 
L 54 209.682 
L 54 225.99 
L 54 225.99 
z
" clip-path="url(#pb7521e71f1)" style="fill: #9467bd"/>
   </g>
   <g id="patch_87">
    <path d="M 365.336927 242.298 
L 372.857143 242.298 
L 372.857143 258.606 
L 365.336927 258.606 
z
" clip-path="url(#pb7521e71f1)" style="fill: #9467bd"/>
   </g>
   <g id="patch_88">
    <path d="M 370.503954 274.914 
L 372.857143 274.914 
L 372.857143 291.222 
L 370.503954 291.222 
z
" clip-path="url(#pb7521e71f1)" style="fill: #9467bd"/>
   </g>
   <g id="patch_89">
    <path d="M 285.555481 307.53 
L 372.857143 307.53 
L 372.857143 323.838 
L 285.555481 323.838 
z
" clip-path="url(#pb7521e71f1)" style="fill: #9467bd"/>
   </g>
   <g id="patch_90">
    <path d="M 298.072679 340.146 
L 372.857143 340.146 
L 372.857143 356.454 
L 298.072679 356.454 
z
" clip-path="url(#pb7521e71f1)" style="fill: #9467bd"/>
   </g>
   <g id="patch_91">
    <path d="M 285.409382 372.762 
L 372.857143 372.762 
L 372.857143 389.07 
L 285.409382 389.07 
z
" clip-path="url(#pb7521e71f1)" style="fill: #9467bd"/>
   </g>
   <g id="patch_92">
    <path d="M 233.581261 405.378 
L 372.857143 405.378 
L 372.857143 421.686 
L 233.581261 421.686 
z
" clip-path="url(#pb7521e71f1)" style="fill: #9467bd"/>
   </g>
   <g id="patch_93">
    <path d="M 267.603329 437.994 
L 372.857143 437.994 
L 372.857143 454.302 
L 267.603329 454.302 
z
" clip-path="url(#pb7521e71f1)" style="fill: #9467bd"/>
   </g>
   <g id="patch_94">
    <path d="M 206.91636 470.61 
L 372.857143 470.61 
L 372.857143 486.918 
L 206.91636 486.918 
z
" clip-path="url(#pb7521e71f1)" style="fill: #9467bd"/>
   </g>
   <g id="patch_95">
    <path d="M 238.869301 503.226 
L 372.857143 503.226 
L 372.857143 519.534 
L 238.869301 519.534 
z
" clip-path="url(#pb7521e71f1)" style="fill: #9467bd"/>
   </g>
   <g id="patch_96">
    <path d="M 250.576976 535.842 
L 372.857143 535.842 
L 372.857143 552.15 
L 250.576976 552.15 
z
" clip-path="url(#pb7521e71f1)" style="fill: #9467bd"/>
   </g>
   <g id="patch_97">
    <path d="M 256.013245 568.458 
L 372.857143 568.458 
L 372.857143 584.766 
L 256.013245 584.766 
z
" clip-path="url(#pb7521e71f1)" style="fill: #9467bd"/>
   </g>
   <g id="patch_98">
    <path d="M 296.823222 601.074 
L 372.857143 601.074 
L 372.857143 617.382 
L 296.823222 617.382 
z
" clip-path="url(#pb7521e71f1)" style="fill: #9467bd"/>
   </g>
   <g id="patch_99">
    <path d="M 313.219446 633.69 
L 372.857143 633.69 
L 372.857143 649.998 
L 313.219446 649.998 
z
" clip-path="url(#pb7521e71f1)" style="fill: #9467bd"/>
   </g>
   <g id="patch_100">
    <path d="M 237.234648 666.306 
L 372.857143 666.306 
L 372.857143 682.614 
L 237.234648 682.614 
z
" clip-path="url(#pb7521e71f1)" style="fill: #9467bd"/>
   </g>
   <g id="patch_101">
    <path d="M 287.518843 698.922 
L 372.857143 698.922 
L 372.857143 715.23 
L 287.518843 715.23 
z
" clip-path="url(#pb7521e71f1)" style="fill: #9467bd"/>
   </g>
   <g id="patch_102">
    <path d="M 262.606682 731.538 
L 372.857143 731.538 
L 372.857143 747.846 
L 262.606682 747.846 
z
" clip-path="url(#pb7521e71f1)" style="fill: #9467bd"/>
   </g>
   <g id="matplotlib.axis_1">
    <g id="xtick_1">
     <g id="line2d_1">
      <defs>
       <path id="mac125918ff" d="M 0 0 
L 0 3.5 
" style="stroke: #000000; stroke-width: 0.8"/>
      </defs>
      <g>
       <use xlink:href="#mac125918ff" x="54" y="756" style="stroke: #000000; stroke-width: 0.8"/>
      </g>
     </g>
     <g id="text_1">
      <!-- 0.0 -->
      <g transform="translate(46.048437 770.598438)scale(0.1 -0.1)">
       <defs>
        <path id="DejaVuSans-30" d="M 2034 4250 
Q 1547 4250 1301 3770 
Q 1056 3291 1056 2328 
Q 1056 1369 1301 889 
Q 1547 409 2034 409 
Q 2525 409 2770 889 
Q 3016 1369 3016 2328 
Q 3016 3291 2770 3770 
Q 2525 4250 2034 4250 
z
M 2034 4750 
Q 2819 4750 3233 4129 
Q 3647 3509 3647 2328 
Q 3647 1150 3233 529 
Q 2819 -91 2034 -91 
Q 1250 -91 836 529 
Q 422 1150 422 2328 
Q 422 3509 836 4129 
Q 1250 4750 2034 4750 
z
" transform="scale(0.015625)"/>
        <path id="DejaVuSans-2e" d="M 684 794 
L 1344 794 
L 1344 0 
L 684 0 
L 684 794 
z
" transform="scale(0.015625)"/>
       </defs>
       <use xlink:href="#DejaVuSans-30"/>
       <use xlink:href="#DejaVuSans-2e" x="63.623047"/>
       <use xlink:href="#DejaVuSans-30" x="95.410156"/>
      </g>
     </g>
    </g>
    <g id="xtick_2">
     <g id="line2d_2">
      <g>
       <use xlink:href="#mac125918ff" x="117.771429" y="756" style="stroke: #000000; stroke-width: 0.8"/>
      </g>
     </g>
     <g id="text_2">
      <!-- 0.2 -->
      <g transform="translate(109.819866 770.598438)scale(0.1 -0.1)">
       <defs>
        <path id="DejaVuSans-32" d="M 1228 531 
L 3431 531 
L 3431 0 
L 469 0 
L 469 531 
Q 828 903 1448 1529 
Q 2069 2156 2228 2338 
Q 2531 2678 2651 2914 
Q 2772 3150 2772 3378 
Q 2772 3750 2511 3984 
Q 2250 4219 1831 4219 
Q 1534 4219 1204 4116 
Q 875 4013 500 3803 
L 500 4441 
Q 881 4594 1212 4672 
Q 1544 4750 1819 4750 
Q 2544 4750 2975 4387 
Q 3406 4025 3406 3419 
Q 3406 3131 3298 2873 
Q 3191 2616 2906 2266 
Q 2828 2175 2409 1742 
Q 1991 1309 1228 531 
z
" transform="scale(0.015625)"/>
       </defs>
       <use xlink:href="#DejaVuSans-30"/>
       <use xlink:href="#DejaVuSans-2e" x="63.623047"/>
       <use xlink:href="#DejaVuSans-32" x="95.410156"/>
      </g>
     </g>
    </g>
    <g id="xtick_3">
     <g id="line2d_3">
      <g>
       <use xlink:href="#mac125918ff" x="181.542857" y="756" style="stroke: #000000; stroke-width: 0.8"/>
      </g>
     </g>
     <g id="text_3">
      <!-- 0.4 -->
      <g transform="translate(173.591295 770.598438)scale(0.1 -0.1)">
       <defs>
        <path id="DejaVuSans-34" d="M 2419 4116 
L 825 1625 
L 2419 1625 
L 2419 4116 
z
M 2253 4666 
L 3047 4666 
L 3047 1625 
L 3713 1625 
L 3713 1100 
L 3047 1100 
L 3047 0 
L 2419 0 
L 2419 1100 
L 313 1100 
L 313 1709 
L 2253 4666 
z
" transform="scale(0.015625)"/>
       </defs>
       <use xlink:href="#DejaVuSans-30"/>
       <use xlink:href="#DejaVuSans-2e" x="63.623047"/>
       <use xlink:href="#DejaVuSans-34" x="95.410156"/>
      </g>
     </g>
    </g>
    <g id="xtick_4">
     <g id="line2d_4">
      <g>
       <use xlink:href="#mac125918ff" x="245.314286" y="756" style="stroke: #000000; stroke-width: 0.8"/>
      </g>
     </g>
     <g id="text_4">
      <!-- 0.6 -->
      <g transform="translate(237.362723 770.598438)scale(0.1 -0.1)">
       <defs>
        <path id="DejaVuSans-36" d="M 2113 2584 
Q 1688 2584 1439 2293 
Q 1191 2003 1191 1497 
Q 1191 994 1439 701 
Q 1688 409 2113 409 
Q 2538 409 2786 701 
Q 3034 994 3034 1497 
Q 3034 2003 2786 2293 
Q 2538 2584 2113 2584 
z
M 3366 4563 
L 3366 3988 
Q 3128 4100 2886 4159 
Q 2644 4219 2406 4219 
Q 1781 4219 1451 3797 
Q 1122 3375 1075 2522 
Q 1259 2794 1537 2939 
Q 1816 3084 2150 3084 
Q 2853 3084 3261 2657 
Q 3669 2231 3669 1497 
Q 3669 778 3244 343 
Q 2819 -91 2113 -91 
Q 1303 -91 875 529 
Q 447 1150 447 2328 
Q 447 3434 972 4092 
Q 1497 4750 2381 4750 
Q 2619 4750 2861 4703 
Q 3103 4656 3366 4563 
z
" transform="scale(0.015625)"/>
       </defs>
       <use xlink:href="#DejaVuSans-30"/>
       <use xlink:href="#DejaVuSans-2e" x="63.623047"/>
       <use xlink:href="#DejaVuSans-36" x="95.410156"/>
      </g>
     </g>
    </g>
    <g id="xtick_5">
     <g id="line2d_5">
      <g>
       <use xlink:href="#mac125918ff" x="309.085714" y="756" style="stroke: #000000; stroke-width: 0.8"/>
      </g>
     </g>
     <g id="text_5">
      <!-- 0.8 -->
      <g transform="translate(301.134152 770.598438)scale(0.1 -0.1)">
       <defs>
        <path id="DejaVuSans-38" d="M 2034 2216 
Q 1584 2216 1326 1975 
Q 1069 1734 1069 1313 
Q 1069 891 1326 650 
Q 1584 409 2034 409 
Q 2484 409 2743 651 
Q 3003 894 3003 1313 
Q 3003 1734 2745 1975 
Q 2488 2216 2034 2216 
z
M 1403 2484 
Q 997 2584 770 2862 
Q 544 3141 544 3541 
Q 544 4100 942 4425 
Q 1341 4750 2034 4750 
Q 2731 4750 3128 4425 
Q 3525 4100 3525 3541 
Q 3525 3141 3298 2862 
Q 3072 2584 2669 2484 
Q 3125 2378 3379 2068 
Q 3634 1759 3634 1313 
Q 3634 634 3220 271 
Q 2806 -91 2034 -91 
Q 1263 -91 848 271 
Q 434 634 434 1313 
Q 434 1759 690 2068 
Q 947 2378 1403 2484 
z
M 1172 3481 
Q 1172 3119 1398 2916 
Q 1625 2713 2034 2713 
Q 2441 2713 2670 2916 
Q 2900 3119 2900 3481 
Q 2900 3844 2670 4047 
Q 2441 4250 2034 4250 
Q 1625 4250 1398 4047 
Q 1172 3844 1172 3481 
z
" transform="scale(0.015625)"/>
       </defs>
       <use xlink:href="#DejaVuSans-30"/>
       <use xlink:href="#DejaVuSans-2e" x="63.623047"/>
       <use xlink:href="#DejaVuSans-38" x="95.410156"/>
      </g>
     </g>
    </g>
    <g id="xtick_6">
     <g id="line2d_6">
      <g>
       <use xlink:href="#mac125918ff" x="372.857143" y="756" style="stroke: #000000; stroke-width: 0.8"/>
      </g>
     </g>
     <g id="text_6">
      <!-- 1.0 -->
      <g transform="translate(364.90558 770.598438)scale(0.1 -0.1)">
       <defs>
        <path id="DejaVuSans-31" d="M 794 531 
L 1825 531 
L 1825 4091 
L 703 3866 
L 703 4441 
L 1819 4666 
L 2450 4666 
L 2450 531 
L 3481 531 
L 3481 0 
L 794 0 
L 794 531 
z
" transform="scale(0.015625)"/>
       </defs>
       <use xlink:href="#DejaVuSans-31"/>
       <use xlink:href="#DejaVuSans-2e" x="63.623047"/>
       <use xlink:href="#DejaVuSans-30" x="95.410156"/>
      </g>
     </g>
    </g>
   </g>
   <g id="matplotlib.axis_2">
    <g id="ytick_1">
     <g id="line2d_7">
      <defs>
       <path id="m6020e33952" d="M 0 0 
L -3.5 0 
" style="stroke: #000000; stroke-width: 0.8"/>
      </defs>
      <g>
       <use xlink:href="#m6020e33952" x="54" y="119.988" style="stroke: #000000; stroke-width: 0.8"/>
      </g>
     </g>
     <g id="text_7">
      <!-- Cathepsin -->
      <g transform="translate(-3.195312 123.787219)scale(0.1 -0.1)">
       <defs>
        <path id="DejaVuSans-43" d="M 4122 4306 
L 4122 3641 
Q 3803 3938 3442 4084 
Q 3081 4231 2675 4231 
Q 1875 4231 1450 3742 
Q 1025 3253 1025 2328 
Q 1025 1406 1450 917 
Q 1875 428 2675 428 
Q 3081 428 3442 575 
Q 3803 722 4122 1019 
L 4122 359 
Q 3791 134 3420 21 
Q 3050 -91 2638 -91 
Q 1578 -91 968 557 
Q 359 1206 359 2328 
Q 359 3453 968 4101 
Q 1578 4750 2638 4750 
Q 3056 4750 3426 4639 
Q 3797 4528 4122 4306 
z
" transform="scale(0.015625)"/>
        <path id="DejaVuSans-61" d="M 2194 1759 
Q 1497 1759 1228 1600 
Q 959 1441 959 1056 
Q 959 750 1161 570 
Q 1363 391 1709 391 
Q 2188 391 2477 730 
Q 2766 1069 2766 1631 
L 2766 1759 
L 2194 1759 
z
M 3341 1997 
L 3341 0 
L 2766 0 
L 2766 531 
Q 2569 213 2275 61 
Q 1981 -91 1556 -91 
Q 1019 -91 701 211 
Q 384 513 384 1019 
Q 384 1609 779 1909 
Q 1175 2209 1959 2209 
L 2766 2209 
L 2766 2266 
Q 2766 2663 2505 2880 
Q 2244 3097 1772 3097 
Q 1472 3097 1187 3025 
Q 903 2953 641 2809 
L 641 3341 
Q 956 3463 1253 3523 
Q 1550 3584 1831 3584 
Q 2591 3584 2966 3190 
Q 3341 2797 3341 1997 
z
" transform="scale(0.015625)"/>
        <path id="DejaVuSans-74" d="M 1172 4494 
L 1172 3500 
L 2356 3500 
L 2356 3053 
L 1172 3053 
L 1172 1153 
Q 1172 725 1289 603 
Q 1406 481 1766 481 
L 2356 481 
L 2356 0 
L 1766 0 
Q 1100 0 847 248 
Q 594 497 594 1153 
L 594 3053 
L 172 3053 
L 172 3500 
L 594 3500 
L 594 4494 
L 1172 4494 
z
" transform="scale(0.015625)"/>
        <path id="DejaVuSans-68" d="M 3513 2113 
L 3513 0 
L 2938 0 
L 2938 2094 
Q 2938 2591 2744 2837 
Q 2550 3084 2163 3084 
Q 1697 3084 1428 2787 
Q 1159 2491 1159 1978 
L 1159 0 
L 581 0 
L 581 4863 
L 1159 4863 
L 1159 2956 
Q 1366 3272 1645 3428 
Q 1925 3584 2291 3584 
Q 2894 3584 3203 3211 
Q 3513 2838 3513 2113 
z
" transform="scale(0.015625)"/>
        <path id="DejaVuSans-65" d="M 3597 1894 
L 3597 1613 
L 953 1613 
Q 991 1019 1311 708 
Q 1631 397 2203 397 
Q 2534 397 2845 478 
Q 3156 559 3463 722 
L 3463 178 
Q 3153 47 2828 -22 
Q 2503 -91 2169 -91 
Q 1331 -91 842 396 
Q 353 884 353 1716 
Q 353 2575 817 3079 
Q 1281 3584 2069 3584 
Q 2775 3584 3186 3129 
Q 3597 2675 3597 1894 
z
M 3022 2063 
Q 3016 2534 2758 2815 
Q 2500 3097 2075 3097 
Q 1594 3097 1305 2825 
Q 1016 2553 972 2059 
L 3022 2063 
z
" transform="scale(0.015625)"/>
        <path id="DejaVuSans-70" d="M 1159 525 
L 1159 -1331 
L 581 -1331 
L 581 3500 
L 1159 3500 
L 1159 2969 
Q 1341 3281 1617 3432 
Q 1894 3584 2278 3584 
Q 2916 3584 3314 3078 
Q 3713 2572 3713 1747 
Q 3713 922 3314 415 
Q 2916 -91 2278 -91 
Q 1894 -91 1617 61 
Q 1341 213 1159 525 
z
M 3116 1747 
Q 3116 2381 2855 2742 
Q 2594 3103 2138 3103 
Q 1681 3103 1420 2742 
Q 1159 2381 1159 1747 
Q 1159 1113 1420 752 
Q 1681 391 2138 391 
Q 2594 391 2855 752 
Q 3116 1113 3116 1747 
z
" transform="scale(0.015625)"/>
        <path id="DejaVuSans-73" d="M 2834 3397 
L 2834 2853 
Q 2591 2978 2328 3040 
Q 2066 3103 1784 3103 
Q 1356 3103 1142 2972 
Q 928 2841 928 2578 
Q 928 2378 1081 2264 
Q 1234 2150 1697 2047 
L 1894 2003 
Q 2506 1872 2764 1633 
Q 3022 1394 3022 966 
Q 3022 478 2636 193 
Q 2250 -91 1575 -91 
Q 1294 -91 989 -36 
Q 684 19 347 128 
L 347 722 
Q 666 556 975 473 
Q 1284 391 1588 391 
Q 1994 391 2212 530 
Q 2431 669 2431 922 
Q 2431 1156 2273 1281 
Q 2116 1406 1581 1522 
L 1381 1569 
Q 847 1681 609 1914 
Q 372 2147 372 2553 
Q 372 3047 722 3315 
Q 1072 3584 1716 3584 
Q 2034 3584 2315 3537 
Q 2597 3491 2834 3397 
z
" transform="scale(0.015625)"/>
        <path id="DejaVuSans-69" d="M 603 3500 
L 1178 3500 
L 1178 0 
L 603 0 
L 603 3500 
z
M 603 4863 
L 1178 4863 
L 1178 4134 
L 603 4134 
L 603 4863 
z
" transform="scale(0.015625)"/>
        <path id="DejaVuSans-6e" d="M 3513 2113 
L 3513 0 
L 2938 0 
L 2938 2094 
Q 2938 2591 2744 2837 
Q 2550 3084 2163 3084 
Q 1697 3084 1428 2787 
Q 1159 2491 1159 1978 
L 1159 0 
L 581 0 
L 581 3500 
L 1159 3500 
L 1159 2956 
Q 1366 3272 1645 3428 
Q 1925 3584 2291 3584 
Q 2894 3584 3203 3211 
Q 3513 2838 3513 2113 
z
" transform="scale(0.015625)"/>
       </defs>
       <use xlink:href="#DejaVuSans-43"/>
       <use xlink:href="#DejaVuSans-61" x="69.824219"/>
       <use xlink:href="#DejaVuSans-74" x="131.103516"/>
       <use xlink:href="#DejaVuSans-68" x="170.3125"/>
       <use xlink:href="#DejaVuSans-65" x="233.691406"/>
       <use xlink:href="#DejaVuSans-70" x="295.214844"/>
       <use xlink:href="#DejaVuSans-73" x="358.691406"/>
       <use xlink:href="#DejaVuSans-69" x="410.791016"/>
       <use xlink:href="#DejaVuSans-6e" x="438.574219"/>
      </g>
     </g>
    </g>
    <g id="ytick_2">
     <g id="line2d_8">
      <g>
       <use xlink:href="#m6020e33952" x="54" y="152.604" style="stroke: #000000; stroke-width: 0.8"/>
      </g>
     </g>
     <g id="text_8">
      <!-- Intestine-1 -->
      <g transform="translate(-6.729688 156.403219)scale(0.1 -0.1)">
       <defs>
        <path id="DejaVuSans-49" d="M 628 4666 
L 1259 4666 
L 1259 0 
L 628 0 
L 628 4666 
z
" transform="scale(0.015625)"/>
        <path id="DejaVuSans-2d" d="M 313 2009 
L 1997 2009 
L 1997 1497 
L 313 1497 
L 313 2009 
z
" transform="scale(0.015625)"/>
       </defs>
       <use xlink:href="#DejaVuSans-49"/>
       <use xlink:href="#DejaVuSans-6e" x="29.492188"/>
       <use xlink:href="#DejaVuSans-74" x="92.871094"/>
       <use xlink:href="#DejaVuSans-65" x="132.080078"/>
       <use xlink:href="#DejaVuSans-73" x="193.603516"/>
       <use xlink:href="#DejaVuSans-74" x="245.703125"/>
       <use xlink:href="#DejaVuSans-69" x="284.912109"/>
       <use xlink:href="#DejaVuSans-6e" x="312.695312"/>
       <use xlink:href="#DejaVuSans-65" x="376.074219"/>
       <use xlink:href="#DejaVuSans-2d" x="437.597656"/>
       <use xlink:href="#DejaVuSans-31" x="473.681641"/>
      </g>
     </g>
    </g>
    <g id="ytick_3">
     <g id="line2d_9">
      <g>
       <use xlink:href="#m6020e33952" x="54" y="185.22" style="stroke: #000000; stroke-width: 0.8"/>
      </g>
     </g>
     <g id="text_9">
      <!-- Intestine-2 -->
      <g transform="translate(-6.729688 189.019219)scale(0.1 -0.1)">
       <use xlink:href="#DejaVuSans-49"/>
       <use xlink:href="#DejaVuSans-6e" x="29.492188"/>
       <use xlink:href="#DejaVuSans-74" x="92.871094"/>
       <use xlink:href="#DejaVuSans-65" x="132.080078"/>
       <use xlink:href="#DejaVuSans-73" x="193.603516"/>
       <use xlink:href="#DejaVuSans-74" x="245.703125"/>
       <use xlink:href="#DejaVuSans-69" x="284.912109"/>
       <use xlink:href="#DejaVuSans-6e" x="312.695312"/>
       <use xlink:href="#DejaVuSans-65" x="376.074219"/>
       <use xlink:href="#DejaVuSans-2d" x="437.597656"/>
       <use xlink:href="#DejaVuSans-32" x="473.681641"/>
      </g>
     </g>
    </g>
    <g id="ytick_4">
     <g id="line2d_10">
      <g>
       <use xlink:href="#m6020e33952" x="54" y="217.836" style="stroke: #000000; stroke-width: 0.8"/>
      </g>
     </g>
     <g id="text_10">
      <!-- Ophis -->
      <g transform="translate(18.454687 221.635219)scale(0.1 -0.1)">
       <defs>
        <path id="DejaVuSans-4f" d="M 2522 4238 
Q 1834 4238 1429 3725 
Q 1025 3213 1025 2328 
Q 1025 1447 1429 934 
Q 1834 422 2522 422 
Q 3209 422 3611 934 
Q 4013 1447 4013 2328 
Q 4013 3213 3611 3725 
Q 3209 4238 2522 4238 
z
M 2522 4750 
Q 3503 4750 4090 4092 
Q 4678 3434 4678 2328 
Q 4678 1225 4090 567 
Q 3503 -91 2522 -91 
Q 1538 -91 948 565 
Q 359 1222 359 2328 
Q 359 3434 948 4092 
Q 1538 4750 2522 4750 
z
" transform="scale(0.015625)"/>
       </defs>
       <use xlink:href="#DejaVuSans-4f"/>
       <use xlink:href="#DejaVuSans-70" x="78.710938"/>
       <use xlink:href="#DejaVuSans-68" x="142.1875"/>
       <use xlink:href="#DejaVuSans-69" x="205.566406"/>
       <use xlink:href="#DejaVuSans-73" x="233.349609"/>
      </g>
     </g>
    </g>
    <g id="ytick_5">
     <g id="line2d_11">
      <g>
       <use xlink:href="#m6020e33952" x="54" y="250.452" style="stroke: #000000; stroke-width: 0.8"/>
      </g>
     </g>
     <g id="text_11">
      <!-- GSC -->
      <g transform="translate(25.920312 254.251219)scale(0.1 -0.1)">
       <defs>
        <path id="DejaVuSans-47" d="M 3809 666 
L 3809 1919 
L 2778 1919 
L 2778 2438 
L 4434 2438 
L 4434 434 
Q 4069 175 3628 42 
Q 3188 -91 2688 -91 
Q 1594 -91 976 548 
Q 359 1188 359 2328 
Q 359 3472 976 4111 
Q 1594 4750 2688 4750 
Q 3144 4750 3555 4637 
Q 3966 4525 4313 4306 
L 4313 3634 
Q 3963 3931 3569 4081 
Q 3175 4231 2741 4231 
Q 1884 4231 1454 3753 
Q 1025 3275 1025 2328 
Q 1025 1384 1454 906 
Q 1884 428 2741 428 
Q 3075 428 3337 486 
Q 3600 544 3809 666 
z
" transform="scale(0.015625)"/>
        <path id="DejaVuSans-53" d="M 3425 4513 
L 3425 3897 
Q 3066 4069 2747 4153 
Q 2428 4238 2131 4238 
Q 1616 4238 1336 4038 
Q 1056 3838 1056 3469 
Q 1056 3159 1242 3001 
Q 1428 2844 1947 2747 
L 2328 2669 
Q 3034 2534 3370 2195 
Q 3706 1856 3706 1288 
Q 3706 609 3251 259 
Q 2797 -91 1919 -91 
Q 1588 -91 1214 -16 
Q 841 59 441 206 
L 441 856 
Q 825 641 1194 531 
Q 1563 422 1919 422 
Q 2459 422 2753 634 
Q 3047 847 3047 1241 
Q 3047 1584 2836 1778 
Q 2625 1972 2144 2069 
L 1759 2144 
Q 1053 2284 737 2584 
Q 422 2884 422 3419 
Q 422 4038 858 4394 
Q 1294 4750 2059 4750 
Q 2388 4750 2728 4690 
Q 3069 4631 3425 4513 
z
" transform="scale(0.015625)"/>
       </defs>
       <use xlink:href="#DejaVuSans-47"/>
       <use xlink:href="#DejaVuSans-53" x="77.490234"/>
       <use xlink:href="#DejaVuSans-43" x="140.966797"/>
      </g>
     </g>
    </g>
    <g id="ytick_6">
     <g id="line2d_12">
      <g>
       <use xlink:href="#m6020e33952" x="54" y="283.068" style="stroke: #000000; stroke-width: 0.8"/>
      </g>
     </g>
     <g id="text_12">
      <!-- GSC progeny/diff germline -->
      <g transform="translate(-85.307813 286.867219)scale(0.1 -0.1)">
       <defs>
        <path id="DejaVuSans-20" transform="scale(0.015625)"/>
        <path id="DejaVuSans-72" d="M 2631 2963 
Q 2534 3019 2420 3045 
Q 2306 3072 2169 3072 
Q 1681 3072 1420 2755 
Q 1159 2438 1159 1844 
L 1159 0 
L 581 0 
L 581 3500 
L 1159 3500 
L 1159 2956 
Q 1341 3275 1631 3429 
Q 1922 3584 2338 3584 
Q 2397 3584 2469 3576 
Q 2541 3569 2628 3553 
L 2631 2963 
z
" transform="scale(0.015625)"/>
        <path id="DejaVuSans-6f" d="M 1959 3097 
Q 1497 3097 1228 2736 
Q 959 2375 959 1747 
Q 959 1119 1226 758 
Q 1494 397 1959 397 
Q 2419 397 2687 759 
Q 2956 1122 2956 1747 
Q 2956 2369 2687 2733 
Q 2419 3097 1959 3097 
z
M 1959 3584 
Q 2709 3584 3137 3096 
Q 3566 2609 3566 1747 
Q 3566 888 3137 398 
Q 2709 -91 1959 -91 
Q 1206 -91 779 398 
Q 353 888 353 1747 
Q 353 2609 779 3096 
Q 1206 3584 1959 3584 
z
" transform="scale(0.015625)"/>
        <path id="DejaVuSans-67" d="M 2906 1791 
Q 2906 2416 2648 2759 
Q 2391 3103 1925 3103 
Q 1463 3103 1205 2759 
Q 947 2416 947 1791 
Q 947 1169 1205 825 
Q 1463 481 1925 481 
Q 2391 481 2648 825 
Q 2906 1169 2906 1791 
z
M 3481 434 
Q 3481 -459 3084 -895 
Q 2688 -1331 1869 -1331 
Q 1566 -1331 1297 -1286 
Q 1028 -1241 775 -1147 
L 775 -588 
Q 1028 -725 1275 -790 
Q 1522 -856 1778 -856 
Q 2344 -856 2625 -561 
Q 2906 -266 2906 331 
L 2906 616 
Q 2728 306 2450 153 
Q 2172 0 1784 0 
Q 1141 0 747 490 
Q 353 981 353 1791 
Q 353 2603 747 3093 
Q 1141 3584 1784 3584 
Q 2172 3584 2450 3431 
Q 2728 3278 2906 2969 
L 2906 3500 
L 3481 3500 
L 3481 434 
z
" transform="scale(0.015625)"/>
        <path id="DejaVuSans-79" d="M 2059 -325 
Q 1816 -950 1584 -1140 
Q 1353 -1331 966 -1331 
L 506 -1331 
L 506 -850 
L 844 -850 
Q 1081 -850 1212 -737 
Q 1344 -625 1503 -206 
L 1606 56 
L 191 3500 
L 800 3500 
L 1894 763 
L 2988 3500 
L 3597 3500 
L 2059 -325 
z
" transform="scale(0.015625)"/>
        <path id="DejaVuSans-2f" d="M 1625 4666 
L 2156 4666 
L 531 -594 
L 0 -594 
L 1625 4666 
z
" transform="scale(0.015625)"/>
        <path id="DejaVuSans-64" d="M 2906 2969 
L 2906 4863 
L 3481 4863 
L 3481 0 
L 2906 0 
L 2906 525 
Q 2725 213 2448 61 
Q 2172 -91 1784 -91 
Q 1150 -91 751 415 
Q 353 922 353 1747 
Q 353 2572 751 3078 
Q 1150 3584 1784 3584 
Q 2172 3584 2448 3432 
Q 2725 3281 2906 2969 
z
M 947 1747 
Q 947 1113 1208 752 
Q 1469 391 1925 391 
Q 2381 391 2643 752 
Q 2906 1113 2906 1747 
Q 2906 2381 2643 2742 
Q 2381 3103 1925 3103 
Q 1469 3103 1208 2742 
Q 947 2381 947 1747 
z
" transform="scale(0.015625)"/>
        <path id="DejaVuSans-66" d="M 2375 4863 
L 2375 4384 
L 1825 4384 
Q 1516 4384 1395 4259 
Q 1275 4134 1275 3809 
L 1275 3500 
L 2222 3500 
L 2222 3053 
L 1275 3053 
L 1275 0 
L 697 0 
L 697 3053 
L 147 3053 
L 147 3500 
L 697 3500 
L 697 3744 
Q 697 4328 969 4595 
Q 1241 4863 1831 4863 
L 2375 4863 
z
" transform="scale(0.015625)"/>
        <path id="DejaVuSans-6d" d="M 3328 2828 
Q 3544 3216 3844 3400 
Q 4144 3584 4550 3584 
Q 5097 3584 5394 3201 
Q 5691 2819 5691 2113 
L 5691 0 
L 5113 0 
L 5113 2094 
Q 5113 2597 4934 2840 
Q 4756 3084 4391 3084 
Q 3944 3084 3684 2787 
Q 3425 2491 3425 1978 
L 3425 0 
L 2847 0 
L 2847 2094 
Q 2847 2600 2669 2842 
Q 2491 3084 2119 3084 
Q 1678 3084 1418 2786 
Q 1159 2488 1159 1978 
L 1159 0 
L 581 0 
L 581 3500 
L 1159 3500 
L 1159 2956 
Q 1356 3278 1631 3431 
Q 1906 3584 2284 3584 
Q 2666 3584 2933 3390 
Q 3200 3197 3328 2828 
z
" transform="scale(0.015625)"/>
        <path id="DejaVuSans-6c" d="M 603 4863 
L 1178 4863 
L 1178 0 
L 603 0 
L 603 4863 
z
" transform="scale(0.015625)"/>
       </defs>
       <use xlink:href="#DejaVuSans-47"/>
       <use xlink:href="#DejaVuSans-53" x="77.490234"/>
       <use xlink:href="#DejaVuSans-43" x="140.966797"/>
       <use xlink:href="#DejaVuSans-20" x="210.791016"/>
       <use xlink:href="#DejaVuSans-70" x="242.578125"/>
       <use xlink:href="#DejaVuSans-72" x="306.054688"/>
       <use xlink:href="#DejaVuSans-6f" x="344.917969"/>
       <use xlink:href="#DejaVuSans-67" x="406.099609"/>
       <use xlink:href="#DejaVuSans-65" x="469.576172"/>
       <use xlink:href="#DejaVuSans-6e" x="531.099609"/>
       <use xlink:href="#DejaVuSans-79" x="594.478516"/>
       <use xlink:href="#DejaVuSans-2f" x="653.658203"/>
       <use xlink:href="#DejaVuSans-64" x="687.349609"/>
       <use xlink:href="#DejaVuSans-69" x="750.826172"/>
       <use xlink:href="#DejaVuSans-66" x="778.609375"/>
       <use xlink:href="#DejaVuSans-66" x="813.814453"/>
       <use xlink:href="#DejaVuSans-20" x="849.019531"/>
       <use xlink:href="#DejaVuSans-67" x="880.806641"/>
       <use xlink:href="#DejaVuSans-65" x="944.283203"/>
       <use xlink:href="#DejaVuSans-72" x="1005.806641"/>
       <use xlink:href="#DejaVuSans-6d" x="1045.169922"/>
       <use xlink:href="#DejaVuSans-6c" x="1142.582031"/>
       <use xlink:href="#DejaVuSans-69" x="1170.365234"/>
       <use xlink:href="#DejaVuSans-6e" x="1198.148438"/>
       <use xlink:href="#DejaVuSans-65" x="1261.527344"/>
      </g>
     </g>
    </g>
    <g id="ytick_7">
     <g id="line2d_13">
      <g>
       <use xlink:href="#m6020e33952" x="54" y="315.684" style="stroke: #000000; stroke-width: 0.8"/>
      </g>
     </g>
     <g id="text_13">
      <!-- Neoblast-1 -->
      <g transform="translate(-7.107813 319.483219)scale(0.1 -0.1)">
       <defs>
        <path id="DejaVuSans-4e" d="M 628 4666 
L 1478 4666 
L 3547 763 
L 3547 4666 
L 4159 4666 
L 4159 0 
L 3309 0 
L 1241 3903 
L 1241 0 
L 628 0 
L 628 4666 
z
" transform="scale(0.015625)"/>
        <path id="DejaVuSans-62" d="M 3116 1747 
Q 3116 2381 2855 2742 
Q 2594 3103 2138 3103 
Q 1681 3103 1420 2742 
Q 1159 2381 1159 1747 
Q 1159 1113 1420 752 
Q 1681 391 2138 391 
Q 2594 391 2855 752 
Q 3116 1113 3116 1747 
z
M 1159 2969 
Q 1341 3281 1617 3432 
Q 1894 3584 2278 3584 
Q 2916 3584 3314 3078 
Q 3713 2572 3713 1747 
Q 3713 922 3314 415 
Q 2916 -91 2278 -91 
Q 1894 -91 1617 61 
Q 1341 213 1159 525 
L 1159 0 
L 581 0 
L 581 4863 
L 1159 4863 
L 1159 2969 
z
" transform="scale(0.015625)"/>
       </defs>
       <use xlink:href="#DejaVuSans-4e"/>
       <use xlink:href="#DejaVuSans-65" x="74.804688"/>
       <use xlink:href="#DejaVuSans-6f" x="136.328125"/>
       <use xlink:href="#DejaVuSans-62" x="197.509766"/>
       <use xlink:href="#DejaVuSans-6c" x="260.986328"/>
       <use xlink:href="#DejaVuSans-61" x="288.769531"/>
       <use xlink:href="#DejaVuSans-73" x="350.048828"/>
       <use xlink:href="#DejaVuSans-74" x="402.148438"/>
       <use xlink:href="#DejaVuSans-2d" x="441.357422"/>
       <use xlink:href="#DejaVuSans-31" x="477.441406"/>
      </g>
     </g>
    </g>
    <g id="ytick_8">
     <g id="line2d_14">
      <g>
       <use xlink:href="#m6020e33952" x="54" y="348.3" style="stroke: #000000; stroke-width: 0.8"/>
      </g>
     </g>
     <g id="text_14">
      <!-- Neoblast-2 -->
      <g transform="translate(-7.107813 352.099219)scale(0.1 -0.1)">
       <use xlink:href="#DejaVuSans-4e"/>
       <use xlink:href="#DejaVuSans-65" x="74.804688"/>
       <use xlink:href="#DejaVuSans-6f" x="136.328125"/>
       <use xlink:href="#DejaVuSans-62" x="197.509766"/>
       <use xlink:href="#DejaVuSans-6c" x="260.986328"/>
       <use xlink:href="#DejaVuSans-61" x="288.769531"/>
       <use xlink:href="#DejaVuSans-73" x="350.048828"/>
       <use xlink:href="#DejaVuSans-74" x="402.148438"/>
       <use xlink:href="#DejaVuSans-2d" x="441.357422"/>
       <use xlink:href="#DejaVuSans-32" x="477.441406"/>
      </g>
     </g>
    </g>
    <g id="ytick_9">
     <g id="line2d_15">
      <g>
       <use xlink:href="#m6020e33952" x="54" y="380.916" style="stroke: #000000; stroke-width: 0.8"/>
      </g>
     </g>
     <g id="text_15">
      <!-- Neural Progenitors -->
      <g transform="translate(-46.003125 384.715219)scale(0.1 -0.1)">
       <defs>
        <path id="DejaVuSans-75" d="M 544 1381 
L 544 3500 
L 1119 3500 
L 1119 1403 
Q 1119 906 1312 657 
Q 1506 409 1894 409 
Q 2359 409 2629 706 
Q 2900 1003 2900 1516 
L 2900 3500 
L 3475 3500 
L 3475 0 
L 2900 0 
L 2900 538 
Q 2691 219 2414 64 
Q 2138 -91 1772 -91 
Q 1169 -91 856 284 
Q 544 659 544 1381 
z
M 1991 3584 
L 1991 3584 
z
" transform="scale(0.015625)"/>
        <path id="DejaVuSans-50" d="M 1259 4147 
L 1259 2394 
L 2053 2394 
Q 2494 2394 2734 2622 
Q 2975 2850 2975 3272 
Q 2975 3691 2734 3919 
Q 2494 4147 2053 4147 
L 1259 4147 
z
M 628 4666 
L 2053 4666 
Q 2838 4666 3239 4311 
Q 3641 3956 3641 3272 
Q 3641 2581 3239 2228 
Q 2838 1875 2053 1875 
L 1259 1875 
L 1259 0 
L 628 0 
L 628 4666 
z
" transform="scale(0.015625)"/>
       </defs>
       <use xlink:href="#DejaVuSans-4e"/>
       <use xlink:href="#DejaVuSans-65" x="74.804688"/>
       <use xlink:href="#DejaVuSans-75" x="136.328125"/>
       <use xlink:href="#DejaVuSans-72" x="199.707031"/>
       <use xlink:href="#DejaVuSans-61" x="240.820312"/>
       <use xlink:href="#DejaVuSans-6c" x="302.099609"/>
       <use xlink:href="#DejaVuSans-20" x="329.882812"/>
       <use xlink:href="#DejaVuSans-50" x="361.669922"/>
       <use xlink:href="#DejaVuSans-72" x="420.222656"/>
       <use xlink:href="#DejaVuSans-6f" x="459.085938"/>
       <use xlink:href="#DejaVuSans-67" x="520.267578"/>
       <use xlink:href="#DejaVuSans-65" x="583.744141"/>
       <use xlink:href="#DejaVuSans-6e" x="645.267578"/>
       <use xlink:href="#DejaVuSans-69" x="708.646484"/>
       <use xlink:href="#DejaVuSans-74" x="736.429688"/>
       <use xlink:href="#DejaVuSans-6f" x="775.638672"/>
       <use xlink:href="#DejaVuSans-72" x="836.820312"/>
       <use xlink:href="#DejaVuSans-73" x="877.933594"/>
      </g>
     </g>
    </g>
    <g id="ytick_10">
     <g id="line2d_16">
      <g>
       <use xlink:href="#m6020e33952" x="54" y="413.532" style="stroke: #000000; stroke-width: 0.8"/>
      </g>
     </g>
     <g id="text_16">
      <!-- Neural-1 -->
      <g transform="translate(4.040625 417.331219)scale(0.1 -0.1)">
       <use xlink:href="#DejaVuSans-4e"/>
       <use xlink:href="#DejaVuSans-65" x="74.804688"/>
       <use xlink:href="#DejaVuSans-75" x="136.328125"/>
       <use xlink:href="#DejaVuSans-72" x="199.707031"/>
       <use xlink:href="#DejaVuSans-61" x="240.820312"/>
       <use xlink:href="#DejaVuSans-6c" x="302.099609"/>
       <use xlink:href="#DejaVuSans-2d" x="329.882812"/>
       <use xlink:href="#DejaVuSans-31" x="365.966797"/>
      </g>
     </g>
    </g>
    <g id="ytick_11">
     <g id="line2d_17">
      <g>
       <use xlink:href="#m6020e33952" x="54" y="446.148" style="stroke: #000000; stroke-width: 0.8"/>
      </g>
     </g>
     <g id="text_17">
      <!-- Neural-2 -->
      <g transform="translate(4.040625 449.947219)scale(0.1 -0.1)">
       <use xlink:href="#DejaVuSans-4e"/>
       <use xlink:href="#DejaVuSans-65" x="74.804688"/>
       <use xlink:href="#DejaVuSans-75" x="136.328125"/>
       <use xlink:href="#DejaVuSans-72" x="199.707031"/>
       <use xlink:href="#DejaVuSans-61" x="240.820312"/>
       <use xlink:href="#DejaVuSans-6c" x="302.099609"/>
       <use xlink:href="#DejaVuSans-2d" x="329.882812"/>
       <use xlink:href="#DejaVuSans-32" x="365.966797"/>
      </g>
     </g>
    </g>
    <g id="ytick_12">
     <g id="line2d_18">
      <g>
       <use xlink:href="#m6020e33952" x="54" y="478.764" style="stroke: #000000; stroke-width: 0.8"/>
      </g>
     </g>
     <g id="text_18">
      <!-- Neural-POU4 -->
      <g transform="translate(-17.179688 482.563219)scale(0.1 -0.1)">
       <defs>
        <path id="DejaVuSans-55" d="M 556 4666 
L 1191 4666 
L 1191 1831 
Q 1191 1081 1462 751 
Q 1734 422 2344 422 
Q 2950 422 3222 751 
Q 3494 1081 3494 1831 
L 3494 4666 
L 4128 4666 
L 4128 1753 
Q 4128 841 3676 375 
Q 3225 -91 2344 -91 
Q 1459 -91 1007 375 
Q 556 841 556 1753 
L 556 4666 
z
" transform="scale(0.015625)"/>
       </defs>
       <use xlink:href="#DejaVuSans-4e"/>
       <use xlink:href="#DejaVuSans-65" x="74.804688"/>
       <use xlink:href="#DejaVuSans-75" x="136.328125"/>
       <use xlink:href="#DejaVuSans-72" x="199.707031"/>
       <use xlink:href="#DejaVuSans-61" x="240.820312"/>
       <use xlink:href="#DejaVuSans-6c" x="302.099609"/>
       <use xlink:href="#DejaVuSans-2d" x="329.882812"/>
       <use xlink:href="#DejaVuSans-50" x="365.966797"/>
       <use xlink:href="#DejaVuSans-4f" x="426.269531"/>
       <use xlink:href="#DejaVuSans-55" x="504.980469"/>
       <use xlink:href="#DejaVuSans-34" x="578.173828"/>
      </g>
     </g>
    </g>
    <g id="ytick_13">
     <g id="line2d_19">
      <g>
       <use xlink:href="#m6020e33952" x="54" y="511.38" style="stroke: #000000; stroke-width: 0.8"/>
      </g>
     </g>
     <g id="text_19">
      <!-- Muscle-1 -->
      <g transform="translate(2.425 515.179219)scale(0.1 -0.1)">
       <defs>
        <path id="DejaVuSans-4d" d="M 628 4666 
L 1569 4666 
L 2759 1491 
L 3956 4666 
L 4897 4666 
L 4897 0 
L 4281 0 
L 4281 4097 
L 3078 897 
L 2444 897 
L 1241 4097 
L 1241 0 
L 628 0 
L 628 4666 
z
" transform="scale(0.015625)"/>
        <path id="DejaVuSans-63" d="M 3122 3366 
L 3122 2828 
Q 2878 2963 2633 3030 
Q 2388 3097 2138 3097 
Q 1578 3097 1268 2742 
Q 959 2388 959 1747 
Q 959 1106 1268 751 
Q 1578 397 2138 397 
Q 2388 397 2633 464 
Q 2878 531 3122 666 
L 3122 134 
Q 2881 22 2623 -34 
Q 2366 -91 2075 -91 
Q 1284 -91 818 406 
Q 353 903 353 1747 
Q 353 2603 823 3093 
Q 1294 3584 2113 3584 
Q 2378 3584 2631 3529 
Q 2884 3475 3122 3366 
z
" transform="scale(0.015625)"/>
       </defs>
       <use xlink:href="#DejaVuSans-4d"/>
       <use xlink:href="#DejaVuSans-75" x="86.279297"/>
       <use xlink:href="#DejaVuSans-73" x="149.658203"/>
       <use xlink:href="#DejaVuSans-63" x="201.757812"/>
       <use xlink:href="#DejaVuSans-6c" x="256.738281"/>
       <use xlink:href="#DejaVuSans-65" x="284.521484"/>
       <use xlink:href="#DejaVuSans-2d" x="346.044922"/>
       <use xlink:href="#DejaVuSans-31" x="382.128906"/>
      </g>
     </g>
    </g>
    <g id="ytick_14">
     <g id="line2d_20">
      <g>
       <use xlink:href="#m6020e33952" x="54" y="543.996" style="stroke: #000000; stroke-width: 0.8"/>
      </g>
     </g>
     <g id="text_20">
      <!-- Muscle-2 -->
      <g transform="translate(2.425 547.795219)scale(0.1 -0.1)">
       <use xlink:href="#DejaVuSans-4d"/>
       <use xlink:href="#DejaVuSans-75" x="86.279297"/>
       <use xlink:href="#DejaVuSans-73" x="149.658203"/>
       <use xlink:href="#DejaVuSans-63" x="201.757812"/>
       <use xlink:href="#DejaVuSans-6c" x="256.738281"/>
       <use xlink:href="#DejaVuSans-65" x="284.521484"/>
       <use xlink:href="#DejaVuSans-2d" x="346.044922"/>
       <use xlink:href="#DejaVuSans-32" x="382.128906"/>
      </g>
     </g>
    </g>
    <g id="ytick_15">
     <g id="line2d_21">
      <g>
       <use xlink:href="#m6020e33952" x="54" y="576.612" style="stroke: #000000; stroke-width: 0.8"/>
      </g>
     </g>
     <g id="text_21">
      <!-- Muscle-3 -->
      <g transform="translate(2.425 580.411219)scale(0.1 -0.1)">
       <defs>
        <path id="DejaVuSans-33" d="M 2597 2516 
Q 3050 2419 3304 2112 
Q 3559 1806 3559 1356 
Q 3559 666 3084 287 
Q 2609 -91 1734 -91 
Q 1441 -91 1130 -33 
Q 819 25 488 141 
L 488 750 
Q 750 597 1062 519 
Q 1375 441 1716 441 
Q 2309 441 2620 675 
Q 2931 909 2931 1356 
Q 2931 1769 2642 2001 
Q 2353 2234 1838 2234 
L 1294 2234 
L 1294 2753 
L 1863 2753 
Q 2328 2753 2575 2939 
Q 2822 3125 2822 3475 
Q 2822 3834 2567 4026 
Q 2313 4219 1838 4219 
Q 1578 4219 1281 4162 
Q 984 4106 628 3988 
L 628 4550 
Q 988 4650 1302 4700 
Q 1616 4750 1894 4750 
Q 2613 4750 3031 4423 
Q 3450 4097 3450 3541 
Q 3450 3153 3228 2886 
Q 3006 2619 2597 2516 
z
" transform="scale(0.015625)"/>
       </defs>
       <use xlink:href="#DejaVuSans-4d"/>
       <use xlink:href="#DejaVuSans-75" x="86.279297"/>
       <use xlink:href="#DejaVuSans-73" x="149.658203"/>
       <use xlink:href="#DejaVuSans-63" x="201.757812"/>
       <use xlink:href="#DejaVuSans-6c" x="256.738281"/>
       <use xlink:href="#DejaVuSans-65" x="284.521484"/>
       <use xlink:href="#DejaVuSans-2d" x="346.044922"/>
       <use xlink:href="#DejaVuSans-33" x="382.128906"/>
      </g>
     </g>
    </g>
    <g id="ytick_16">
     <g id="line2d_22">
      <g>
       <use xlink:href="#m6020e33952" x="54" y="609.228" style="stroke: #000000; stroke-width: 0.8"/>
      </g>
     </g>
     <g id="text_22">
      <!-- Epidermal-1 -->
      <g transform="translate(-13.5 613.027219)scale(0.1 -0.1)">
       <defs>
        <path id="DejaVuSans-45" d="M 628 4666 
L 3578 4666 
L 3578 4134 
L 1259 4134 
L 1259 2753 
L 3481 2753 
L 3481 2222 
L 1259 2222 
L 1259 531 
L 3634 531 
L 3634 0 
L 628 0 
L 628 4666 
z
" transform="scale(0.015625)"/>
       </defs>
       <use xlink:href="#DejaVuSans-45"/>
       <use xlink:href="#DejaVuSans-70" x="63.183594"/>
       <use xlink:href="#DejaVuSans-69" x="126.660156"/>
       <use xlink:href="#DejaVuSans-64" x="154.443359"/>
       <use xlink:href="#DejaVuSans-65" x="217.919922"/>
       <use xlink:href="#DejaVuSans-72" x="279.443359"/>
       <use xlink:href="#DejaVuSans-6d" x="318.806641"/>
       <use xlink:href="#DejaVuSans-61" x="416.21875"/>
       <use xlink:href="#DejaVuSans-6c" x="477.498047"/>
       <use xlink:href="#DejaVuSans-2d" x="505.28125"/>
       <use xlink:href="#DejaVuSans-31" x="541.365234"/>
      </g>
     </g>
    </g>
    <g id="ytick_17">
     <g id="line2d_23">
      <g>
       <use xlink:href="#m6020e33952" x="54" y="641.844" style="stroke: #000000; stroke-width: 0.8"/>
      </g>
     </g>
     <g id="text_23">
      <!-- Epidermal-2 -->
      <g transform="translate(-13.5 645.643219)scale(0.1 -0.1)">
       <use xlink:href="#DejaVuSans-45"/>
       <use xlink:href="#DejaVuSans-70" x="63.183594"/>
       <use xlink:href="#DejaVuSans-69" x="126.660156"/>
       <use xlink:href="#DejaVuSans-64" x="154.443359"/>
       <use xlink:href="#DejaVuSans-65" x="217.919922"/>
       <use xlink:href="#DejaVuSans-72" x="279.443359"/>
       <use xlink:href="#DejaVuSans-6d" x="318.806641"/>
       <use xlink:href="#DejaVuSans-61" x="416.21875"/>
       <use xlink:href="#DejaVuSans-6c" x="477.498047"/>
       <use xlink:href="#DejaVuSans-2d" x="505.28125"/>
       <use xlink:href="#DejaVuSans-32" x="541.365234"/>
      </g>
     </g>
    </g>
    <g id="ytick_18">
     <g id="line2d_24">
      <g>
       <use xlink:href="#m6020e33952" x="54" y="674.46" style="stroke: #000000; stroke-width: 0.8"/>
      </g>
     </g>
     <g id="text_24">
      <!-- Pharynx -->
      <g transform="translate(6.21875 678.259219)scale(0.1 -0.1)">
       <defs>
        <path id="DejaVuSans-78" d="M 3513 3500 
L 2247 1797 
L 3578 0 
L 2900 0 
L 1881 1375 
L 863 0 
L 184 0 
L 1544 1831 
L 300 3500 
L 978 3500 
L 1906 2253 
L 2834 3500 
L 3513 3500 
z
" transform="scale(0.015625)"/>
       </defs>
       <use xlink:href="#DejaVuSans-50"/>
       <use xlink:href="#DejaVuSans-68" x="60.302734"/>
       <use xlink:href="#DejaVuSans-61" x="123.681641"/>
       <use xlink:href="#DejaVuSans-72" x="184.960938"/>
       <use xlink:href="#DejaVuSans-79" x="226.074219"/>
       <use xlink:href="#DejaVuSans-6e" x="285.253906"/>
       <use xlink:href="#DejaVuSans-78" x="348.632812"/>
      </g>
     </g>
    </g>
    <g id="ytick_19">
     <g id="line2d_25">
      <g>
       <use xlink:href="#m6020e33952" x="54" y="707.076" style="stroke: #000000; stroke-width: 0.8"/>
      </g>
     </g>
     <g id="text_25">
      <!-- Parenchymal -->
      <g transform="translate(-17.485938 710.875219)scale(0.1 -0.1)">
       <use xlink:href="#DejaVuSans-50"/>
       <use xlink:href="#DejaVuSans-61" x="55.802734"/>
       <use xlink:href="#DejaVuSans-72" x="117.082031"/>
       <use xlink:href="#DejaVuSans-65" x="155.945312"/>
       <use xlink:href="#DejaVuSans-6e" x="217.46875"/>
       <use xlink:href="#DejaVuSans-63" x="280.847656"/>
       <use xlink:href="#DejaVuSans-68" x="335.828125"/>
       <use xlink:href="#DejaVuSans-79" x="399.207031"/>
       <use xlink:href="#DejaVuSans-6d" x="458.386719"/>
       <use xlink:href="#DejaVuSans-61" x="555.798828"/>
       <use xlink:href="#DejaVuSans-6c" x="617.078125"/>
      </g>
     </g>
    </g>
    <g id="ytick_20">
     <g id="line2d_26">
      <g>
       <use xlink:href="#m6020e33952" x="54" y="739.692" style="stroke: #000000; stroke-width: 0.8"/>
      </g>
     </g>
     <g id="text_26">
      <!-- Protonephridia -->
      <g transform="translate(-26.21875 743.491219)scale(0.1 -0.1)">
       <use xlink:href="#DejaVuSans-50"/>
       <use xlink:href="#DejaVuSans-72" x="58.552734"/>
       <use xlink:href="#DejaVuSans-6f" x="97.416016"/>
       <use xlink:href="#DejaVuSans-74" x="158.597656"/>
       <use xlink:href="#DejaVuSans-6f" x="197.806641"/>
       <use xlink:href="#DejaVuSans-6e" x="258.988281"/>
       <use xlink:href="#DejaVuSans-65" x="322.367188"/>
       <use xlink:href="#DejaVuSans-70" x="383.890625"/>
       <use xlink:href="#DejaVuSans-68" x="447.367188"/>
       <use xlink:href="#DejaVuSans-72" x="510.746094"/>
       <use xlink:href="#DejaVuSans-69" x="551.859375"/>
       <use xlink:href="#DejaVuSans-64" x="579.642578"/>
       <use xlink:href="#DejaVuSans-69" x="643.119141"/>
       <use xlink:href="#DejaVuSans-61" x="670.902344"/>
      </g>
     </g>
    </g>
    <g id="text_27">
     <!-- GroupFigure -->
     <g transform="translate(-91.3875 460.324375)rotate(-90)scale(0.1 -0.1)">
      <defs>
       <path id="DejaVuSans-46" d="M 628 4666 
L 3309 4666 
L 3309 4134 
L 1259 4134 
L 1259 2759 
L 3109 2759 
L 3109 2228 
L 1259 2228 
L 1259 0 
L 628 0 
L 628 4666 
z
" transform="scale(0.015625)"/>
      </defs>
      <use xlink:href="#DejaVuSans-47"/>
      <use xlink:href="#DejaVuSans-72" x="77.490234"/>
      <use xlink:href="#DejaVuSans-6f" x="116.353516"/>
      <use xlink:href="#DejaVuSans-75" x="177.535156"/>
      <use xlink:href="#DejaVuSans-70" x="240.914062"/>
      <use xlink:href="#DejaVuSans-46" x="304.390625"/>
      <use xlink:href="#DejaVuSans-69" x="354.660156"/>
      <use xlink:href="#DejaVuSans-67" x="382.443359"/>
      <use xlink:href="#DejaVuSans-75" x="445.919922"/>
      <use xlink:href="#DejaVuSans-72" x="509.298828"/>
      <use xlink:href="#DejaVuSans-65" x="548.162109"/>
     </g>
    </g>
   </g>
   <g id="patch_103">
    <path d="M 54 756 
L 54 103.68 
" style="fill: none; stroke: #000000; stroke-width: 0.8; stroke-linejoin: miter; stroke-linecap: square"/>
   </g>
   <g id="patch_104">
    <path d="M 388.8 756 
L 388.8 103.68 
" style="fill: none; stroke: #000000; stroke-width: 0.8; stroke-linejoin: miter; stroke-linecap: square"/>
   </g>
   <g id="patch_105">
    <path d="M 54 756 
L 388.8 756 
" style="fill: none; stroke: #000000; stroke-width: 0.8; stroke-linejoin: miter; stroke-linecap: square"/>
   </g>
   <g id="patch_106">
    <path d="M 54 103.68 
L 388.8 103.68 
" style="fill: none; stroke: #000000; stroke-width: 0.8; stroke-linejoin: miter; stroke-linecap: square"/>
   </g>
   <g id="legend_1">
    <g id="patch_107">
     <path d="M 395.8 186.46125 
L 533.773438 186.46125 
Q 535.773438 186.46125 535.773438 184.46125 
L 535.773438 110.68 
Q 535.773438 108.68 533.773438 108.68 
L 395.8 108.68 
Q 393.8 108.68 393.8 110.68 
L 393.8 184.46125 
Q 393.8 186.46125 395.8 186.46125 
z
" style="fill: #ffffff; opacity: 0.8; stroke: #cccccc; stroke-linejoin: miter"/>
    </g>
    <g id="patch_108">
     <path d="M 397.8 120.278437 
L 417.8 120.278437 
L 417.8 113.278437 
L 397.8 113.278437 
z
" style="fill: #1f77b4"/>
    </g>
    <g id="text_28">
     <!-- S2F2_uncut1_g4_v03 -->
     <g transform="translate(425.8 120.278437)scale(0.1 -0.1)">
      <defs>
       <path id="DejaVuSans-5f" d="M 3263 -1063 
L 3263 -1509 
L -63 -1509 
L -63 -1063 
L 3263 -1063 
z
" transform="scale(0.015625)"/>
       <path id="DejaVuSans-76" d="M 191 3500 
L 800 3500 
L 1894 563 
L 2988 3500 
L 3597 3500 
L 2284 0 
L 1503 0 
L 191 3500 
z
" transform="scale(0.015625)"/>
      </defs>
      <use xlink:href="#DejaVuSans-53"/>
      <use xlink:href="#DejaVuSans-32" x="63.476562"/>
      <use xlink:href="#DejaVuSans-46" x="127.099609"/>
      <use xlink:href="#DejaVuSans-32" x="184.619141"/>
      <use xlink:href="#DejaVuSans-5f" x="248.242188"/>
      <use xlink:href="#DejaVuSans-75" x="298.242188"/>
      <use xlink:href="#DejaVuSans-6e" x="361.621094"/>
      <use xlink:href="#DejaVuSans-63" x="425"/>
      <use xlink:href="#DejaVuSans-75" x="479.980469"/>
      <use xlink:href="#DejaVuSans-74" x="543.359375"/>
      <use xlink:href="#DejaVuSans-31" x="582.568359"/>
      <use xlink:href="#DejaVuSans-5f" x="646.191406"/>
      <use xlink:href="#DejaVuSans-67" x="696.191406"/>
      <use xlink:href="#DejaVuSans-34" x="759.667969"/>
      <use xlink:href="#DejaVuSans-5f" x="823.291016"/>
      <use xlink:href="#DejaVuSans-76" x="873.291016"/>
      <use xlink:href="#DejaVuSans-30" x="932.470703"/>
      <use xlink:href="#DejaVuSans-33" x="996.09375"/>
     </g>
    </g>
    <g id="patch_109">
     <path d="M 397.8 135.234687 
L 417.8 135.234687 
L 417.8 128.234687 
L 397.8 128.234687 
z
" style="fill: #ff7f0e"/>
    </g>
    <g id="text_29">
     <!-- S2F2_uncut2_g4_v03 -->
     <g transform="translate(425.8 135.234687)scale(0.1 -0.1)">
      <use xlink:href="#DejaVuSans-53"/>
      <use xlink:href="#DejaVuSans-32" x="63.476562"/>
      <use xlink:href="#DejaVuSans-46" x="127.099609"/>
      <use xlink:href="#DejaVuSans-32" x="184.619141"/>
      <use xlink:href="#DejaVuSans-5f" x="248.242188"/>
      <use xlink:href="#DejaVuSans-75" x="298.242188"/>
      <use xlink:href="#DejaVuSans-6e" x="361.621094"/>
      <use xlink:href="#DejaVuSans-63" x="425"/>
      <use xlink:href="#DejaVuSans-75" x="479.980469"/>
      <use xlink:href="#DejaVuSans-74" x="543.359375"/>
      <use xlink:href="#DejaVuSans-32" x="582.568359"/>
      <use xlink:href="#DejaVuSans-5f" x="646.191406"/>
      <use xlink:href="#DejaVuSans-67" x="696.191406"/>
      <use xlink:href="#DejaVuSans-34" x="759.667969"/>
      <use xlink:href="#DejaVuSans-5f" x="823.291016"/>
      <use xlink:href="#DejaVuSans-76" x="873.291016"/>
      <use xlink:href="#DejaVuSans-30" x="932.470703"/>
      <use xlink:href="#DejaVuSans-33" x="996.09375"/>
     </g>
    </g>
    <g id="patch_110">
     <path d="M 397.8 150.190938 
L 417.8 150.190938 
L 417.8 143.190938 
L 397.8 143.190938 
z
" style="fill: #2ca02c"/>
    </g>
    <g id="text_30">
     <!-- S2F2_uncut3_g4_v03 -->
     <g transform="translate(425.8 150.190938)scale(0.1 -0.1)">
      <use xlink:href="#DejaVuSans-53"/>
      <use xlink:href="#DejaVuSans-32" x="63.476562"/>
      <use xlink:href="#DejaVuSans-46" x="127.099609"/>
      <use xlink:href="#DejaVuSans-32" x="184.619141"/>
      <use xlink:href="#DejaVuSans-5f" x="248.242188"/>
      <use xlink:href="#DejaVuSans-75" x="298.242188"/>
      <use xlink:href="#DejaVuSans-6e" x="361.621094"/>
      <use xlink:href="#DejaVuSans-63" x="425"/>
      <use xlink:href="#DejaVuSans-75" x="479.980469"/>
      <use xlink:href="#DejaVuSans-74" x="543.359375"/>
      <use xlink:href="#DejaVuSans-33" x="582.568359"/>
      <use xlink:href="#DejaVuSans-5f" x="646.191406"/>
      <use xlink:href="#DejaVuSans-67" x="696.191406"/>
      <use xlink:href="#DejaVuSans-34" x="759.667969"/>
      <use xlink:href="#DejaVuSans-5f" x="823.291016"/>
      <use xlink:href="#DejaVuSans-76" x="873.291016"/>
      <use xlink:href="#DejaVuSans-30" x="932.470703"/>
      <use xlink:href="#DejaVuSans-33" x="996.09375"/>
     </g>
    </g>
    <g id="patch_111">
     <path d="M 397.8 165.147187 
L 417.8 165.147187 
L 417.8 158.147187 
L 397.8 158.147187 
z
" style="fill: #d62728"/>
    </g>
    <g id="text_31">
     <!-- Smed_cut_g4_v03 -->
     <g transform="translate(425.8 165.147187)scale(0.1 -0.1)">
      <use xlink:href="#DejaVuSans-53"/>
      <use xlink:href="#DejaVuSans-6d" x="63.476562"/>
      <use xlink:href="#DejaVuSans-65" x="160.888672"/>
      <use xlink:href="#DejaVuSans-64" x="222.412109"/>
      <use xlink:href="#DejaVuSans-5f" x="285.888672"/>
      <use xlink:href="#DejaVuSans-63" x="335.888672"/>
      <use xlink:href="#DejaVuSans-75" x="390.869141"/>
      <use xlink:href="#DejaVuSans-74" x="454.248047"/>
      <use xlink:href="#DejaVuSans-5f" x="493.457031"/>
      <use xlink:href="#DejaVuSans-67" x="543.457031"/>
      <use xlink:href="#DejaVuSans-34" x="606.933594"/>
      <use xlink:href="#DejaVuSans-5f" x="670.556641"/>
      <use xlink:href="#DejaVuSans-76" x="720.556641"/>
      <use xlink:href="#DejaVuSans-30" x="779.736328"/>
      <use xlink:href="#DejaVuSans-33" x="843.359375"/>
     </g>
    </g>
    <g id="patch_112">
     <path d="M 397.8 180.103438 
L 417.8 180.103438 
L 417.8 173.103438 
L 397.8 173.103438 
z
" style="fill: #9467bd"/>
    </g>
    <g id="text_32">
     <!-- Smed_uncut_g4_v03 -->
     <g transform="translate(425.8 180.103438)scale(0.1 -0.1)">
      <use xlink:href="#DejaVuSans-53"/>
      <use xlink:href="#DejaVuSans-6d" x="63.476562"/>
      <use xlink:href="#DejaVuSans-65" x="160.888672"/>
      <use xlink:href="#DejaVuSans-64" x="222.412109"/>
      <use xlink:href="#DejaVuSans-5f" x="285.888672"/>
      <use xlink:href="#DejaVuSans-75" x="335.888672"/>
      <use xlink:href="#DejaVuSans-6e" x="399.267578"/>
      <use xlink:href="#DejaVuSans-63" x="462.646484"/>
      <use xlink:href="#DejaVuSans-75" x="517.626953"/>
      <use xlink:href="#DejaVuSans-74" x="581.005859"/>
      <use xlink:href="#DejaVuSans-5f" x="620.214844"/>
      <use xlink:href="#DejaVuSans-67" x="670.214844"/>
      <use xlink:href="#DejaVuSans-34" x="733.691406"/>
      <use xlink:href="#DejaVuSans-5f" x="797.314453"/>
      <use xlink:href="#DejaVuSans-76" x="847.314453"/>
      <use xlink:href="#DejaVuSans-30" x="906.494141"/>
      <use xlink:href="#DejaVuSans-33" x="970.117188"/>
     </g>
    </g>
   </g>
  </g>
 </g>
 <defs>
  <clipPath id="pb7521e71f1">
   <rect x="54" y="103.68" width="334.8" height="652.32"/>
  </clipPath>
 </defs>
</svg>
