<?xml version="1.0" encoding="UTF-8" standalone="no"?>
<!DOCTYPE svg PUBLIC "-//W3C//DTD SVG 1.1//EN" "http://www.w3.org/Graphics/SVG/1.1/DTD/svg11.dtd">
<svg xmlns:xlink="http://www.w3.org/1999/xlink" width="432pt" height="288pt" viewBox="0 0 432 288" xmlns="http://www.w3.org/2000/svg" version="1.1">
 <metadata>
  <rdf:RDF xmlns:dc="http://purl.org/dc/elements/1.1/" xmlns:cc="http://creativecommons.org/ns#" xmlns:rdf="http://www.w3.org/1999/02/22-rdf-syntax-ns#">
   <cc:Work>
    <dc:type rdf:resource="http://purl.org/dc/dcmitype/StillImage"/>
    <dc:date>2024-08-07T01:42:14.510269</dc:date>
    <dc:format>image/svg+xml</dc:format>
    <dc:creator>
     <cc:Agent>
      <dc:title>Matplotlib v3.5.1, https://matplotlib.org/</dc:title>
     </cc:Agent>
    </dc:creator>
   </cc:Work>
  </rdf:RDF>
 </metadata>
 <defs>
  <style type="text/css">*{stroke-linejoin: round; stroke-linecap: butt}</style>
 </defs>
 <g id="figure_1">
  <g id="patch_1">
   <path d="M 0 288  L 432 288  L 432 0  L 0 0  z " style="fill: #ffffff"/>
  </g>
  <g id="axes_1">
   <g id="patch_2">
    <path d="M 54 256.32  L 388.8 256.32  L 388.8 34.56  L 54 34.56  z " style="fill: #ffffff"/>
   </g>
   <g id="matplotlib.axis_1">
    <g id="xtick_1">
     <g id="line2d_1">
      <defs>
       <path id="m08862bb88f" d="M 0 0  L 0 3.5  " style="stroke: #000000; stroke-width: 0.8"/>
      </defs>
      <g>
       <use xlink:href="#m08862bb88f" x="69.218182" y="256.32" style="stroke: #000000; stroke-width: 0.8"/>
      </g>
     </g>
     <g id="text_1">
      <!-- 0 -->
      <g transform="translate(66.036932 270.918437)scale(0.1 -0.1)">
       <defs>
        <path id="DejaVuSans-30" d="M 2034 4250  Q 1547 4250 1301 3770  Q 1056 3291 1056 2328  Q 1056 1369 1301 889  Q 1547 409 2034 409  Q 2525 409 2770 889  Q 3016 1369 3016 2328  Q 3016 3291 2770 3770  Q 2525 4250 2034 4250  z M 2034 4750  Q 2819 4750 3233 4129  Q 3647 3509 3647 2328  Q 3647 1150 3233 529  Q 2819 -91 2034 -91  Q 1250 -91 836 529  Q 422 1150 422 2328  Q 422 3509 836 4129  Q 1250 4750 2034 4750  z " transform="scale(0.015625)"/>
       </defs>
       <use xlink:href="#DejaVuSans-30"/>
      </g>
     </g>
    </g>
    <g id="xtick_2">
     <g id="line2d_2">
      <g>
       <use xlink:href="#m08862bb88f" x="107.358988" y="256.32" style="stroke: #000000; stroke-width: 0.8"/>
      </g>
     </g>
     <g id="text_2">
      <!-- 50 -->
      <g transform="translate(100.996488 270.918437)scale(0.1 -0.1)">
       <defs>
        <path id="DejaVuSans-35" d="M 691 4666  L 3169 4666  L 3169 4134  L 1269 4134  L 1269 2991  Q 1406 3038 1543 3061  Q 1681 3084 1819 3084  Q 2600 3084 3056 2656  Q 3513 2228 3513 1497  Q 3513 744 3044 326  Q 2575 -91 1722 -91  Q 1428 -91 1123 -41  Q 819 9 494 109  L 494 744  Q 775 591 1075 516  Q 1375 441 1709 441  Q 2250 441 2565 725  Q 2881 1009 2881 1497  Q 2881 1984 2565 2268  Q 2250 2553 1709 2553  Q 1456 2553 1204 2497  Q 953 2441 691 2322  L 691 4666  z " transform="scale(0.015625)"/>
       </defs>
       <use xlink:href="#DejaVuSans-35"/>
       <use xlink:href="#DejaVuSans-30" x="63.623047"/>
      </g>
     </g>
    </g>
    <g id="xtick_3">
     <g id="line2d_3">
      <g>
       <use xlink:href="#m08862bb88f" x="145.499795" y="256.32" style="stroke: #000000; stroke-width: 0.8"/>
      </g>
     </g>
     <g id="text_3">
      <!-- 100 -->
      <g transform="translate(135.956045 270.918437)scale(0.1 -0.1)">
       <defs>
        <path id="DejaVuSans-31" d="M 794 531  L 1825 531  L 1825 4091  L 703 3866  L 703 4441  L 1819 4666  L 2450 4666  L 2450 531  L 3481 531  L 3481 0  L 794 0  L 794 531  z " transform="scale(0.015625)"/>
       </defs>
       <use xlink:href="#DejaVuSans-31"/>
       <use xlink:href="#DejaVuSans-30" x="63.623047"/>
       <use xlink:href="#DejaVuSans-30" x="127.246094"/>
      </g>
     </g>
    </g>
    <g id="xtick_4">
     <g id="line2d_4">
      <g>
       <use xlink:href="#m08862bb88f" x="183.640602" y="256.32" style="stroke: #000000; stroke-width: 0.8"/>
      </g>
     </g>
     <g id="text_4">
      <!-- 150 -->
      <g transform="translate(174.096852 270.918437)scale(0.1 -0.1)">
       <use xlink:href="#DejaVuSans-31"/>
       <use xlink:href="#DejaVuSans-35" x="63.623047"/>
       <use xlink:href="#DejaVuSans-30" x="127.246094"/>
      </g>
     </g>
    </g>
    <g id="xtick_5">
     <g id="line2d_5">
      <g>
       <use xlink:href="#m08862bb88f" x="221.781408" y="256.32" style="stroke: #000000; stroke-width: 0.8"/>
      </g>
     </g>
     <g id="text_5">
      <!-- 200 -->
      <g transform="translate(212.237658 270.918437)scale(0.1 -0.1)">
       <defs>
        <path id="DejaVuSans-32" d="M 1228 531  L 3431 531  L 3431 0  L 469 0  L 469 531  Q 828 903 1448 1529  Q 2069 2156 2228 2338  Q 2531 2678 2651 2914  Q 2772 3150 2772 3378  Q 2772 3750 2511 3984  Q 2250 4219 1831 4219  Q 1534 4219 1204 4116  Q 875 4013 500 3803  L 500 4441  Q 881 4594 1212 4672  Q 1544 4750 1819 4750  Q 2544 4750 2975 4387  Q 3406 4025 3406 3419  Q 3406 3131 3298 2873  Q 3191 2616 2906 2266  Q 2828 2175 2409 1742  Q 1991 1309 1228 531  z " transform="scale(0.015625)"/>
       </defs>
       <use xlink:href="#DejaVuSans-32"/>
       <use xlink:href="#DejaVuSans-30" x="63.623047"/>
       <use xlink:href="#DejaVuSans-30" x="127.246094"/>
      </g>
     </g>
    </g>
    <g id="xtick_6">
     <g id="line2d_6">
      <g>
       <use xlink:href="#m08862bb88f" x="259.922215" y="256.32" style="stroke: #000000; stroke-width: 0.8"/>
      </g>
     </g>
     <g id="text_6">
      <!-- 250 -->
      <g transform="translate(250.378465 270.918437)scale(0.1 -0.1)">
       <use xlink:href="#DejaVuSans-32"/>
       <use xlink:href="#DejaVuSans-35" x="63.623047"/>
       <use xlink:href="#DejaVuSans-30" x="127.246094"/>
      </g>
     </g>
    </g>
    <g id="xtick_7">
     <g id="line2d_7">
      <g>
       <use xlink:href="#m08862bb88f" x="298.063021" y="256.32" style="stroke: #000000; stroke-width: 0.8"/>
      </g>
     </g>
     <g id="text_7">
      <!-- 300 -->
      <g transform="translate(288.519271 270.918437)scale(0.1 -0.1)">
       <defs>
        <path id="DejaVuSans-33" d="M 2597 2516  Q 3050 2419 3304 2112  Q 3559 1806 3559 1356  Q 3559 666 3084 287  Q 2609 -91 1734 -91  Q 1441 -91 1130 -33  Q 819 25 488 141  L 488 750  Q 750 597 1062 519  Q 1375 441 1716 441  Q 2309 441 2620 675  Q 2931 909 2931 1356  Q 2931 1769 2642 2001  Q 2353 2234 1838 2234  L 1294 2234  L 1294 2753  L 1863 2753  Q 2328 2753 2575 2939  Q 2822 3125 2822 3475  Q 2822 3834 2567 4026  Q 2313 4219 1838 4219  Q 1578 4219 1281 4162  Q 984 4106 628 3988  L 628 4550  Q 988 4650 1302 4700  Q 1616 4750 1894 4750  Q 2613 4750 3031 4423  Q 3450 4097 3450 3541  Q 3450 3153 3228 2886  Q 3006 2619 2597 2516  z " transform="scale(0.015625)"/>
       </defs>
       <use xlink:href="#DejaVuSans-33"/>
       <use xlink:href="#DejaVuSans-30" x="63.623047"/>
       <use xlink:href="#DejaVuSans-30" x="127.246094"/>
      </g>
     </g>
    </g>
    <g id="xtick_8">
     <g id="line2d_8">
      <g>
       <use xlink:href="#m08862bb88f" x="336.203828" y="256.32" style="stroke: #000000; stroke-width: 0.8"/>
      </g>
     </g>
     <g id="text_8">
      <!-- 350 -->
      <g transform="translate(326.660078 270.918437)scale(0.1 -0.1)">
       <use xlink:href="#DejaVuSans-33"/>
       <use xlink:href="#DejaVuSans-35" x="63.623047"/>
       <use xlink:href="#DejaVuSans-30" x="127.246094"/>
      </g>
     </g>
    </g>
    <g id="xtick_9">
     <g id="line2d_9">
      <g>
       <use xlink:href="#m08862bb88f" x="374.344634" y="256.32" style="stroke: #000000; stroke-width: 0.8"/>
      </g>
     </g>
     <g id="text_9">
      <!-- 400 -->
      <g transform="translate(364.800884 270.918437)scale(0.1 -0.1)">
       <defs>
        <path id="DejaVuSans-34" d="M 2419 4116  L 825 1625  L 2419 1625  L 2419 4116  z M 2253 4666  L 3047 4666  L 3047 1625  L 3713 1625  L 3713 1100  L 3047 1100  L 3047 0  L 2419 0  L 2419 1100  L 313 1100  L 313 1709  L 2253 4666  z " transform="scale(0.015625)"/>
       </defs>
       <use xlink:href="#DejaVuSans-34"/>
       <use xlink:href="#DejaVuSans-30" x="63.623047"/>
       <use xlink:href="#DejaVuSans-30" x="127.246094"/>
      </g>
     </g>
    </g>
   </g>
   <g id="matplotlib.axis_2">
    <g id="ytick_1">
     <g id="line2d_10">
      <defs>
       <path id="m79f6b0b2df" d="M 0 0  L -3.5 0  " style="stroke: #000000; stroke-width: 0.8"/>
      </defs>
      <g>
       <use xlink:href="#m79f6b0b2df" x="54" y="256.32" style="stroke: #000000; stroke-width: 0.8"/>
      </g>
     </g>
     <g id="text_10">
      <!-- 0.00025 -->
      <g transform="translate(5.646875 260.119219)scale(0.1 -0.1)">
       <defs>
        <path id="DejaVuSans-2e" d="M 684 794  L 1344 794  L 1344 0  L 684 0  L 684 794  z " transform="scale(0.015625)"/>
       </defs>
       <use xlink:href="#DejaVuSans-30"/>
       <use xlink:href="#DejaVuSans-2e" x="63.623047"/>
       <use xlink:href="#DejaVuSans-30" x="95.410156"/>
       <use xlink:href="#DejaVuSans-30" x="159.033203"/>
       <use xlink:href="#DejaVuSans-30" x="222.65625"/>
       <use xlink:href="#DejaVuSans-32" x="286.279297"/>
       <use xlink:href="#DejaVuSans-35" x="349.902344"/>
      </g>
     </g>
    </g>
    <g id="ytick_2">
     <g id="line2d_11">
      <g>
       <use xlink:href="#m79f6b0b2df" x="54" y="231.68" style="stroke: #000000; stroke-width: 0.8"/>
      </g>
     </g>
     <g id="text_11">
      <!-- 0.00050 -->
      <g transform="translate(5.646875 235.479219)scale(0.1 -0.1)">
       <use xlink:href="#DejaVuSans-30"/>
       <use xlink:href="#DejaVuSans-2e" x="63.623047"/>
       <use xlink:href="#DejaVuSans-30" x="95.410156"/>
       <use xlink:href="#DejaVuSans-30" x="159.033203"/>
       <use xlink:href="#DejaVuSans-30" x="222.65625"/>
       <use xlink:href="#DejaVuSans-35" x="286.279297"/>
       <use xlink:href="#DejaVuSans-30" x="349.902344"/>
      </g>
     </g>
    </g>
    <g id="ytick_3">
     <g id="line2d_12">
      <g>
       <use xlink:href="#m79f6b0b2df" x="54" y="207.04" style="stroke: #000000; stroke-width: 0.8"/>
      </g>
     </g>
     <g id="text_12">
      <!-- 0.00075 -->
      <g transform="translate(5.646875 210.839219)scale(0.1 -0.1)">
       <defs>
        <path id="DejaVuSans-37" d="M 525 4666  L 3525 4666  L 3525 4397  L 1831 0  L 1172 0  L 2766 4134  L 525 4134  L 525 4666  z " transform="scale(0.015625)"/>
       </defs>
       <use xlink:href="#DejaVuSans-30"/>
       <use xlink:href="#DejaVuSans-2e" x="63.623047"/>
       <use xlink:href="#DejaVuSans-30" x="95.410156"/>
       <use xlink:href="#DejaVuSans-30" x="159.033203"/>
       <use xlink:href="#DejaVuSans-30" x="222.65625"/>
       <use xlink:href="#DejaVuSans-37" x="286.279297"/>
       <use xlink:href="#DejaVuSans-35" x="349.902344"/>
      </g>
     </g>
    </g>
    <g id="ytick_4">
     <g id="line2d_13">
      <g>
       <use xlink:href="#m79f6b0b2df" x="54" y="182.4" style="stroke: #000000; stroke-width: 0.8"/>
      </g>
     </g>
     <g id="text_13">
      <!-- 0.00100 -->
      <g transform="translate(5.646875 186.199219)scale(0.1 -0.1)">
       <use xlink:href="#DejaVuSans-30"/>
       <use xlink:href="#DejaVuSans-2e" x="63.623047"/>
       <use xlink:href="#DejaVuSans-30" x="95.410156"/>
       <use xlink:href="#DejaVuSans-30" x="159.033203"/>
       <use xlink:href="#DejaVuSans-31" x="222.65625"/>
       <use xlink:href="#DejaVuSans-30" x="286.279297"/>
       <use xlink:href="#DejaVuSans-30" x="349.902344"/>
      </g>
     </g>
    </g>
    <g id="ytick_5">
     <g id="line2d_14">
      <g>
       <use xlink:href="#m79f6b0b2df" x="54" y="157.76" style="stroke: #000000; stroke-width: 0.8"/>
      </g>
     </g>
     <g id="text_14">
      <!-- 0.00125 -->
      <g transform="translate(5.646875 161.559219)scale(0.1 -0.1)">
       <use xlink:href="#DejaVuSans-30"/>
       <use xlink:href="#DejaVuSans-2e" x="63.623047"/>
       <use xlink:href="#DejaVuSans-30" x="95.410156"/>
       <use xlink:href="#DejaVuSans-30" x="159.033203"/>
       <use xlink:href="#DejaVuSans-31" x="222.65625"/>
       <use xlink:href="#DejaVuSans-32" x="286.279297"/>
       <use xlink:href="#DejaVuSans-35" x="349.902344"/>
      </g>
     </g>
    </g>
    <g id="ytick_6">
     <g id="line2d_15">
      <g>
       <use xlink:href="#m79f6b0b2df" x="54" y="133.12" style="stroke: #000000; stroke-width: 0.8"/>
      </g>
     </g>
     <g id="text_15">
      <!-- 0.00150 -->
      <g transform="translate(5.646875 136.919219)scale(0.1 -0.1)">
       <use xlink:href="#DejaVuSans-30"/>
       <use xlink:href="#DejaVuSans-2e" x="63.623047"/>
       <use xlink:href="#DejaVuSans-30" x="95.410156"/>
       <use xlink:href="#DejaVuSans-30" x="159.033203"/>
       <use xlink:href="#DejaVuSans-31" x="222.65625"/>
       <use xlink:href="#DejaVuSans-35" x="286.279297"/>
       <use xlink:href="#DejaVuSans-30" x="349.902344"/>
      </g>
     </g>
    </g>
    <g id="ytick_7">
     <g id="line2d_16">
      <g>
       <use xlink:href="#m79f6b0b2df" x="54" y="108.48" style="stroke: #000000; stroke-width: 0.8"/>
      </g>
     </g>
     <g id="text_16">
      <!-- 0.00175 -->
      <g transform="translate(5.646875 112.279219)scale(0.1 -0.1)">
       <use xlink:href="#DejaVuSans-30"/>
       <use xlink:href="#DejaVuSans-2e" x="63.623047"/>
       <use xlink:href="#DejaVuSans-30" x="95.410156"/>
       <use xlink:href="#DejaVuSans-30" x="159.033203"/>
       <use xlink:href="#DejaVuSans-31" x="222.65625"/>
       <use xlink:href="#DejaVuSans-37" x="286.279297"/>
       <use xlink:href="#DejaVuSans-35" x="349.902344"/>
      </g>
     </g>
    </g>
    <g id="ytick_8">
     <g id="line2d_17">
      <g>
       <use xlink:href="#m79f6b0b2df" x="54" y="83.84" style="stroke: #000000; stroke-width: 0.8"/>
      </g>
     </g>
     <g id="text_17">
      <!-- 0.00200 -->
      <g transform="translate(5.646875 87.639219)scale(0.1 -0.1)">
       <use xlink:href="#DejaVuSans-30"/>
       <use xlink:href="#DejaVuSans-2e" x="63.623047"/>
       <use xlink:href="#DejaVuSans-30" x="95.410156"/>
       <use xlink:href="#DejaVuSans-30" x="159.033203"/>
       <use xlink:href="#DejaVuSans-32" x="222.65625"/>
       <use xlink:href="#DejaVuSans-30" x="286.279297"/>
       <use xlink:href="#DejaVuSans-30" x="349.902344"/>
      </g>
     </g>
    </g>
    <g id="ytick_9">
     <g id="line2d_18">
      <g>
       <use xlink:href="#m79f6b0b2df" x="54" y="59.2" style="stroke: #000000; stroke-width: 0.8"/>
      </g>
     </g>
     <g id="text_18">
      <!-- 0.00225 -->
      <g transform="translate(5.646875 62.999219)scale(0.1 -0.1)">
       <use xlink:href="#DejaVuSans-30"/>
       <use xlink:href="#DejaVuSans-2e" x="63.623047"/>
       <use xlink:href="#DejaVuSans-30" x="95.410156"/>
       <use xlink:href="#DejaVuSans-30" x="159.033203"/>
       <use xlink:href="#DejaVuSans-32" x="222.65625"/>
       <use xlink:href="#DejaVuSans-32" x="286.279297"/>
       <use xlink:href="#DejaVuSans-35" x="349.902344"/>
      </g>
     </g>
    </g>
    <g id="ytick_10">
     <g id="line2d_19">
      <g>
       <use xlink:href="#m79f6b0b2df" x="54" y="34.56" style="stroke: #000000; stroke-width: 0.8"/>
      </g>
     </g>
     <g id="text_19">
      <!-- 0.00250 -->
      <g transform="translate(5.646875 38.359219)scale(0.1 -0.1)">
       <use xlink:href="#DejaVuSans-30"/>
       <use xlink:href="#DejaVuSans-2e" x="63.623047"/>
       <use xlink:href="#DejaVuSans-30" x="95.410156"/>
       <use xlink:href="#DejaVuSans-30" x="159.033203"/>
       <use xlink:href="#DejaVuSans-32" x="222.65625"/>
       <use xlink:href="#DejaVuSans-35" x="286.279297"/>
       <use xlink:href="#DejaVuSans-30" x="349.902344"/>
      </g>
     </g>
    </g>
   </g>
   <g id="line2d_20">
    <path d="M 69.218182 186.812775  L 69.980998 189.57142  L 70.743814 189.539425  L 71.50663 186.568926  L 72.269446 185.592842  L 73.032262 187.093156  L 73.795079 189.437852  L 74.557895 188.948537  L 75.320711 188.823076  L 76.083527 186.07198  L 77.609159 188.034721  L 78.371975 185.052737  L 79.134792 187.788061  L 79.897608 186.221307  L 80.660424 188.487097  L 81.42324 186.06256  L 82.186056 187.173881  L 82.948872 187.006282  L 83.711688 185.968049  L 84.474504 184.404783  L 85.237321 184.881758  L 86.000137 182.942102  L 86.762953 182.716044  L 87.525769 181.427824  L 88.288585 181.510321  L 89.051401 179.822442  L 89.814217 181.815389  L 90.577033 180.248044  L 91.33985 187.786667  L 92.102666 185.039989  L 92.865482 186.793998  L 93.628298 184.757066  L 95.15393 184.909697  L 95.916746 181.682785  L 96.679563 183.523565  L 97.442379 179.417414  L 98.205195 183.115347  L 98.968011 180.405775  L 99.730827 181.128355  L 100.493643 179.799816  L 101.256459 177.879568  L 102.019275 180.768614  L 102.782092 177.241011  L 103.544908 181.171726  L 104.307724 183.270061  L 105.07054 179.783707  L 105.833356 184.583741  L 106.596172 175.846084  L 107.358988 181.312706  L 108.121805 177.227793  L 108.884621 178.93099  L 109.647437 175.715982  L 110.410253 180.763416  L 111.173069 179.152952  L 111.935885 178.47909  L 112.698701 176.46953  L 113.461517 171.814926  L 114.224334 182.539965  L 114.98715 179.959418  L 115.749966 175.366751  L 116.512782 179.517329  L 117.275598 176.884208  L 118.038414 180.57661  L 118.80123 178.524412  L 119.564046 181.407056  L 120.326863 180.383011  L 121.089679 178.3044  L 121.852495 174.39723  L 122.615311 179.123063  L 123.378127 173.155617  L 124.140943 175.884763  L 125.666576 182.146755  L 126.429392 181.267442  L 127.192208 176.533118  L 127.955024 180.592054  L 128.71784 174.813732  L 129.480656 177.915825  L 130.243472 175.275373  L 131.769105 173.644691  L 132.531921 173.635179  L 133.294737 177.079057  L 134.057553 175.418349  L 134.820369 178.440825  L 136.346001 174.164103  L 137.108817 175.15944  L 137.871634 175.116402  L 138.63445 173.37556  L 139.397266 170.215603  L 140.160082 175.256923  L 140.922898 173.772051  L 141.685714 170.879758  L 142.44853 176.734313  L 143.211347 174.57815  L 143.974163 175.049842  L 144.736979 172.16807  L 145.499795 167.724575  L 146.262611 169.782303  L 147.025427 173.173768  L 147.788243 174.353663  L 148.551059 171.970776  L 149.313876 167.175469  L 150.076692 168.269539  L 150.839508 164.791033  L 151.602324 162.747498  L 152.36514 169.268617  L 153.127956 168.082136  L 153.890772 167.742302  L 154.653589 168.419457  L 155.416405 165.050091  L 156.179221 165.117695  L 156.942037 159.220893  L 157.704853 166.441484  L 158.467669 164.193736  L 159.230485 168.824176  L 159.993301 163.319162  L 160.756118 163.752037  L 161.518934 161.776256  L 162.28175 161.869539  L 163.044566 160.243803  L 163.807382 161.117505  L 164.570198 163.110303  L 165.333014 163.545588  L 166.09583 155.6054  L 166.858647 163.998302  L 167.621463 163.006682  L 168.384279 164.847898  L 169.147095 163.034001  L 169.909911 163.271006  L 170.672727 156.486859  L 171.435543 158.375417  L 172.961176 150.14486  L 173.723992 155.155153  L 174.486808 153.682445  L 175.249624 154.158279  L 176.01244 161.993652  L 176.775256 155.224398  L 177.538072 157.292063  L 178.300889 161.101373  L 179.063705 157.73227  L 179.826521 162.722623  L 180.589337 156.95247  L 181.352153 156.903327  L 182.114969 139.35271  L 182.877785 155.729433  L 183.640602 137.281167  L 184.403418 148.383697  L 185.166234 138.088321  L 185.92905 140.9422  L 186.691866 147.255871  L 187.454682 146.510504  L 188.217498 128.576302  L 188.980314 140.440928  L 189.743131 144.741114  L 190.505947 156.117538  L 192.031579 148.763839  L 192.794395 138.903438  L 193.557211 154.190532  L 194.320027 151.869191  L 195.082843 151.522782  L 195.84566 148.749416  L 196.608476 113.008855  L 197.371292 134.368749  L 198.134108 131.345354  L 198.896924 110.762565  L 199.65974 106.22363  L 200.422556 135.003851  L 201.185373 137.001938  L 201.948189 128.426878  L 202.711005 123.200324  L 203.473821 150.634152  L 204.236637 160.110889  L 204.999453 175.271265  L 205.762269 162.843294  L 206.525085 155.648967  L 207.287902 158.965806  L 208.050718 187.890345  L 208.813534 129.306042  L 209.57635 148.554291  L 210.339166 109.293184  L 211.101982 167.266158  L 211.864798 174.731877  L 212.627614 188.513189  L 213.390431 159.675707  L 214.153247 193.091611  L 214.916063 196.045594  L 215.678879 181.553887  L 216.441695 189.095689  L 217.204511 141.926786  L 217.967327 163.831976  L 218.730144 205.882042  L 219.49296 162.039134  L 220.255776 222.757771  L 221.018592 103.035139  L 221.781408 165.182178  L 222.544224 189.392628  L 223.30704 236.134011  L 224.069856 144.174201  L 224.832673 181.280889  L 225.595489 123.666416  L 226.358305 136.901771  L 227.121121 169.766882  L 227.883937 55.719863  L 229.409569 194.343573  L 230.172386 131.873934  L 230.935202 188.664007  L 231.698018 171.123464  L 232.460834 194.46055  L 233.22365 146.505753  L 233.986466 194.911749  L 234.749282 145.955683  L 235.512098 105.697633  L 236.274915 121.168825  L 237.037731 117.71446  L 237.800547 121.163467  L 238.563363 105.663716  L 239.326179 139.62759  L 240.088995 138.232353  L 241.614627 163.244455  L 242.377444 141.055665  L 243.14026 157.499832  L 243.903076 139.455837  L 244.665892 126.256935  L 245.428708 132.481614  L 246.191524 117.142177  L 246.95434 91.931278  L 247.717157 124.227203  L 248.479973 140.389399  L 249.242789 143.568012  L 250.005605 147.981629  L 250.768421 148.110045  L 251.531237 129.205427  L 252.294053 156.741396  L 253.056869 136.622382  L 253.819686 143.764193  L 254.582502 129.125087  L 255.345318 143.642386  L 256.108134 136.346997  L 256.87095 150.233759  L 257.633766 134.211074  L 258.396582 153.417031  L 259.159398 144.128133  L 259.922215 144.315192  L 260.685031 147.805757  L 261.447847 145.6972  L 262.210663 151.26353  L 262.973479 153.022019  L 263.736295 139.893566  L 264.499111 151.691552  L 265.261928 139.54398  L 266.024744 147.959393  L 266.78756 144.087745  L 267.550376 163.590978  L 268.313192 156.769668  L 269.076008 159.603444  L 269.838824 157.212033  L 270.60164 157.315791  L 271.364457 145.16527  L 272.127273 152.485086  L 272.890089 149.315492  L 273.652905 150.511026  L 274.415721 151.394195  L 275.178537 151.467559  L 275.941353 154.703782  L 276.70417 154.705928  L 277.466986 158.274653  L 278.229802 155.003652  L 278.992618 150.310313  L 279.755434 147.533803  L 280.51825 150.690581  L 281.281066 155.55347  L 282.043882 151.549585  L 282.806699 156.299778  L 283.569515 151.999821  L 284.332331 154.578017  L 285.095147 158.864996  L 285.857963 154.367884  L 286.620779 161.706575  L 287.383595 155.895598  L 288.146411 155.154121  L 288.909228 155.977705  L 289.672044 156.187689  L 290.43486 157.119186  L 291.197676 149.921084  L 291.960492 153.30368  L 292.723308 158.868748  L 293.486124 160.481209  L 294.248941 163.044282  L 295.011757 155.876632  L 295.774573 154.50323  L 296.537389 163.906132  L 297.300205 159.830387  L 298.063021 158.782877  L 298.825837 160.059727  L 299.588653 155.820307  L 300.35147 161.941021  L 301.114286 161.439704  L 301.877102 160.578898  L 302.639918 158.387877  L 303.402734 157.404932  L 304.16555 164.487262  L 304.928366 166.70045  L 305.691183 168.500554  L 306.453999 163.832664  L 307.216815 170.23574  L 307.979631 169.74709  L 308.742447 168.414799  L 309.505263 167.675008  L 310.268079 171.806849  L 311.030895 169.996704  L 311.793712 173.219606  L 312.556528 169.112515  L 313.319344 168.900454  L 314.08216 168.040945  L 314.844976 166.415335  L 315.607792 170.309024  L 316.370608 176.389098  L 317.133424 175.935374  L 317.896241 175.982818  L 318.659057 165.158702  L 319.421873 175.227492  L 320.184689 170.685838  L 320.947505 172.771975  L 321.710321 173.186826  L 322.473137 168.821307  L 323.235954 171.384242  L 323.99877 171.326655  L 324.761586 172.550128  L 325.524402 171.591794  L 326.287218 171.186708  L 327.050034 175.893494  L 327.81285 172.517909  L 328.575666 173.408341  L 330.101299 176.524168  L 330.864115 178.453962  L 331.626931 176.212962  L 332.389747 172.809782  L 333.152563 176.615397  L 333.915379 174.30919  L 334.678195 177.333973  L 335.441012 175.689603  L 336.203828 178.655719  L 336.966644 178.144971  L 337.72946 182.015964  L 338.492276 179.792048  L 339.255092 179.134066  L 340.017908 177.202493  L 341.543541 178.459986  L 342.306357 178.209052  L 343.069173 179.231422  L 343.831989 183.369562  L 344.594805 178.559557  L 345.357621 183.116207  L 346.120437 184.921384  L 346.883254 182.087492  L 347.64607 178.475706  L 348.408886 182.517591  L 349.171702 182.652318  L 349.934518 181.232102  L 351.46015 182.38049  L 352.222967 177.700621  L 352.985783 183.392189  L 353.748599 183.063485  L 354.511415 185.233043  L 355.274231 183.914377  L 356.037047 182.88144  L 356.799863 181.157063  L 357.562679 182.814983  L 358.325496 183.404145  L 359.088312 187.214579  L 359.851128 185.247948  L 360.613944 186.132149  L 361.37676 183.220757  L 362.139576 189.136887  L 362.902392 187.66034  L 363.665208 185.152869  L 364.428025 183.455949  L 365.190841 186.377662  L 365.953657 185.280235  L 366.716473 186.543953  L 367.479289 186.145642  L 368.242105 187.475013  L 369.004921 184.765419  L 369.767738 188.838462  L 370.530554 183.788635  L 371.29337 185.043357  L 372.056186 186.995124  L 372.819002 187.97722  L 373.581818 186.540258  L 373.581818 186.540258  " clip-path="url(#pb640cb528f)" style="fill: none; stroke: #1f77b4; stroke-width: 1.5; stroke-linecap: square"/>
   </g>
   <g id="line2d_21">
    <path d="M 69.218182 185.956977  L 69.980998 195.370275  L 70.743814 185.794954  L 71.50663 186.46215  L 72.269446 176.266694  L 73.032262 178.57274  L 73.795079 183.939367  L 74.557895 192.584637  L 75.320711 189.306792  L 76.083527 190.897274  L 76.846343 171.665961  L 77.609159 188.527273  L 78.371975 191.286257  L 79.134792 186.997384  L 79.897608 200.982827  L 80.660424 183.820704  L 81.42324 182.94076  L 82.186056 178.072088  L 82.948872 185.285794  L 83.711688 184.659492  L 84.474504 186.073317  L 85.237321 183.782359  L 86.000137 187.272144  L 86.762953 175.974511  L 87.525769 185.971939  L 88.288585 174.215024  L 89.051401 192.142553  L 89.814217 186.023652  L 90.577033 187.067352  L 91.33985 191.748368  L 92.102666 181.813656  L 92.865482 180.857961  L 93.628298 185.09332  L 94.391114 176.196531  L 95.15393 181.166437  L 95.916746 181.555172  L 97.442379 185.915528  L 98.205195 186.287597  L 98.968011 195.078218  L 100.493643 177.788075  L 101.256459 181.730161  L 102.019275 186.560733  L 102.782092 185.413918  L 103.544908 187.183376  L 104.307724 190.956451  L 105.07054 182.585276  L 105.833356 180.792262  L 106.596172 189.843196  L 107.358988 186.863036  L 108.121805 195.312067  L 109.647437 171.294815  L 110.410253 176.127917  L 111.173069 194.661251  L 111.935885 188.196492  L 112.698701 189.784106  L 113.461517 178.123067  L 114.224334 184.659721  L 114.98715 182.262699  L 115.749966 183.151249  L 116.512782 193.560027  L 117.275598 179.563981  L 118.038414 188.220008  L 118.80123 180.622999  L 119.564046 187.812283  L 120.326863 186.881285  L 121.089679 186.737254  L 121.852495 190.756266  L 122.615311 185.654973  L 123.378127 195.273039  L 124.140943 187.648005  L 124.903759 188.561023  L 125.666576 193.16373  L 126.429392 191.439892  L 127.192208 192.740584  L 127.955024 189.389926  L 128.71784 179.074608  L 129.480656 195.011383  L 130.243472 187.385018  L 131.006288 196.646894  L 131.769105 182.765955  L 132.531921 192.663411  L 134.057553 180.638477  L 134.820369 186.565185  L 135.583185 185.135389  L 136.346001 191.578766  L 137.108817 187.743657  L 137.871634 196.735565  L 138.63445 188.889303  L 139.397266 167.530551  L 140.922898 191.667511  L 141.685714 187.070381  L 142.44853 187.433644  L 143.211347 188.041904  L 143.974163 189.186735  L 144.736979 180.446622  L 145.499795 196.616644  L 146.262611 179.74777  L 147.025427 185.585108  L 147.788243 178.140048  L 149.313876 191.455032  L 150.076692 193.071204  L 150.839508 188.418747  L 151.602324 177.843815  L 152.36514 191.523915  L 153.127956 196.38911  L 153.890772 189.623523  L 154.653589 188.276815  L 155.416405 176.828261  L 156.179221 196.558052  L 156.942037 188.574075  L 157.704853 183.511873  L 159.230485 186.990815  L 159.993301 195.721588  L 160.756118 196.633625  L 162.28175 186.515876  L 163.044566 183.243992  L 163.807382 199.388667  L 164.570198 183.966515  L 165.333014 191.007584  L 166.09583 185.878054  L 166.858647 189.680847  L 167.621463 190.210986  L 168.384279 187.062458  L 169.147095 185.327187  L 169.909911 188.159689  L 170.672727 186.048063  L 171.435543 188.824171  L 172.19836 193.666768  L 173.723992 192.975277  L 174.486808 187.056211  L 175.249624 185.351385  L 176.01244 184.492742  L 176.775256 194.063559  L 177.538072 187.322543  L 178.300889 194.096167  L 179.063705 192.033752  L 179.826521 190.964529  L 180.589337 185.59104  L 181.352153 188.834595  L 182.114969 185.304279  L 182.877785 188.940482  L 183.640602 189.095867  L 184.403418 170.66694  L 185.166234 179.317316  L 185.92905 172.900311  L 186.691866 175.437453  L 187.454682 188.26502  L 188.217498 178.948223  L 188.980314 196.116795  L 189.743131 186.69196  L 190.505947 192.640119  L 191.268763 191.73819  L 192.031579 182.424286  L 192.794395 188.431581  L 193.557211 186.10308  L 194.320027 196.415919  L 195.082843 187.249764  L 195.84566 187.654523  L 196.608476 181.175455  L 197.371292 189.363777  L 198.134108 189.284814  L 198.896924 186.186558  L 199.65974 193.588344  L 200.422556 195.36292  L 201.185373 185.71746  L 201.948189 191.506269  L 202.711005 183.796403  L 203.473821 187.007142  L 204.236637 195.452032  L 204.999453 181.7054  L 206.525085 192.35038  L 207.287902 178.34846  L 208.050718 194.35468  L 208.813534 195.700212  L 209.57635 196.744371  L 210.339166 184.307966  L 211.101982 190.187195  L 211.864798 189.026708  L 212.627614 178.882317  L 213.390431 177.654003  L 214.153247 186.075543  L 214.916063 181.009336  L 215.678879 197.471139  L 216.441695 183.454595  L 217.204511 183.889697  L 217.967327 184.92805  L 218.730144 199.029334  L 219.49296 189.423516  L 220.255776 185.233634  L 221.018592 186.318583  L 221.781408 183.471083  L 222.544224 182.111817  L 223.30704 191.83032  L 224.069856 187.648631  L 224.832673 192.031159  L 225.595489 180.200117  L 226.358305 193.639162  L 227.121121 191.736171  L 227.883937 187.600452  L 228.646753 177.854096  L 229.409569 189.696646  L 230.172386 185.912212  L 230.935202 199.319463  L 232.460834 192.467982  L 233.22365 194.395005  L 233.986466 193.258831  L 234.749282 183.529589  L 235.512098 191.240304  L 236.274915 184.457712  L 237.037731 183.876123  L 237.800547 192.910696  L 238.563363 195.45128  L 239.326179 195.249747  L 240.088995 183.88731  L 240.851811 188.315235  L 241.614627 191.885102  L 242.377444 187.747931  L 243.14026 187.483728  L 243.903076 185.024706  L 244.665892 188.804975  L 245.428708 188.519924  L 246.191524 187.669886  L 246.95434 193.609709  L 247.717157 186.81527  L 248.479973 188.956798  L 249.242789 179.51477  L 250.005605 199.273911  L 250.768421 192.309619  L 251.531237 191.183462  L 252.294053 185.308937  L 253.056869 188.405225  L 253.819686 185.385135  L 254.582502 190.923091  L 255.345318 183.864317  L 256.108134 190.502561  L 256.87095 189.518657  L 257.633766 187.58888  L 258.396582 186.877941  L 259.159398 186.898651  L 259.922215 186.377094  L 260.685031 185.653401  L 261.447847 180.427438  L 262.210663 190.784561  L 262.973479 187.604307  L 263.736295 185.570135  L 264.499111 192.065518  L 265.261928 176.194179  L 266.024744 199.479088  L 266.78756 195.456059  L 267.550376 200.741451  L 268.313192 188.566795  L 269.076008 182.056054  L 269.838824 199.718387  L 270.60164 188.115016  L 271.364457 195.39052  L 272.127273 184.288897  L 272.890089 190.720456  L 273.652905 188.720178  L 274.415721 182.084934  L 275.178537 183.540317  L 275.941353 191.530846  L 276.70417 191.680402  L 277.466986 195.371324  L 278.229802 184.69342  L 278.992618 178.645278  L 279.755434 192.351596  L 280.51825 181.126496  L 281.281066 187.662749  L 282.043882 186.634952  L 282.806699 184.712197  L 283.569515 190.408871  L 284.332331 171.905054  L 285.095147 189.162565  L 285.857963 177.331081  L 286.620779 181.756574  L 287.383595 187.360544  L 288.146411 185.719754  L 288.909228 191.953859  L 289.672044 194.083988  L 291.197676 180.524759  L 291.960492 188.490981  L 292.723308 176.867421  L 293.486124 191.977731  L 294.248941 192.852093  L 295.011757 186.190052  L 295.774573 186.097108  L 296.537389 193.507712  L 297.300205 182.659374  L 298.063021 198.350819  L 298.825837 186.717421  L 299.588653 188.9247  L 300.35147 195.335268  L 301.114286 184.94483  L 301.877102 194.111479  L 302.639918 182.372343  L 303.402734 190.656644  L 304.16555 192.900221  L 304.928366 188.411375  L 305.691183 194.290822  L 306.453999 191.735092  L 307.216815 184.90131  L 307.979631 194.674136  L 308.742447 190.021868  L 309.505263 187.495368  L 310.268079 188.902974  L 311.030895 186.718425  L 311.793712 196.383092  L 312.556528 179.662382  L 313.319344 188.063521  L 314.08216 194.032516  L 314.844976 176.017045  L 315.607792 190.964242  L 316.370608 190.602699  L 317.133424 191.46576  L 317.896241 190.314022  L 318.659057 178.715762  L 319.421873 198.771797  L 320.184689 184.679032  L 320.947505 191.32844  L 321.710321 196.965806  L 322.473137 185.375962  L 323.235954 190.81799  L 323.99877 190.732871  L 324.761586 190.07369  L 325.524402 193.710163  L 326.287218 190.355879  L 327.050034 191.335554  L 327.81285 181.328345  L 328.575666 181.230748  L 329.338483 184.980732  L 330.101299 191.98555  L 330.864115 187.3674  L 331.626931 189.610988  L 332.389747 188.785831  L 333.152563 180.814842  L 333.915379 179.321768  L 334.678195 184.39417  L 335.441012 188.516482  L 336.203828 190.873782  L 336.966644 176.288976  L 337.72946 188.91197  L 338.492276 188.778098  L 339.255092 183.839556  L 340.017908 182.676654  L 340.780725 188.283682  L 341.543541 186.036055  L 342.306357 185.717517  L 343.069173 184.608617  L 343.831989 184.672951  L 344.594805 193.609399  L 345.357621 187.525958  L 346.120437 190.393961  L 346.883254 188.952013  L 347.64607 182.49703  L 348.408886 185.770107  L 349.171702 180.514536  L 349.934518 191.500813  L 350.697334 193.440096  L 351.46015 189.10776  L 352.222967 186.873707  L 352.985783 188.751742  L 353.748599 183.743611  L 354.511415 185.799819  L 355.274231 198.993495  L 356.037047 182.298199  L 356.799863 187.600836  L 357.562679 189.449131  L 358.325496 188.95977  L 359.088312 185.895167  L 359.851128 193.850328  L 360.613944 195.728013  L 361.37676 186.88128  L 362.139576 187.441045  L 362.902392 180.347855  L 363.665208 183.096759  L 364.428025 186.515469  L 365.190841 194.358621  L 365.953657 192.759556  L 366.716473 186.9573  L 367.479289 192.303681  L 368.242105 193.501028  L 369.004921 192.718617  L 369.767738 182.302651  L 370.530554 191.609907  L 371.29337 194.7278  L 372.056186 187.800149  L 373.581818 188.218103  L 373.581818 188.218103  " clip-path="url(#pb640cb528f)" style="fill: none; stroke-dasharray: 5.55,2.4; stroke-dashoffset: 0; stroke: #ff7f0e; stroke-width: 1.5"/>
   </g>
   <g id="patch_3">
    <path d="M 54 256.32  L 54 34.56  " style="fill: none; stroke: #000000; stroke-width: 0.8; stroke-linejoin: miter; stroke-linecap: square"/>
   </g>
   <g id="patch_4">
    <path d="M 388.8 256.32  L 388.8 34.56  " style="fill: none; stroke: #000000; stroke-width: 0.8; stroke-linejoin: miter; stroke-linecap: square"/>
   </g>
   <g id="patch_5">
    <path d="M 54 256.32  L 388.8 256.32  " style="fill: none; stroke: #000000; stroke-width: 0.8; stroke-linejoin: miter; stroke-linecap: square"/>
   </g>
   <g id="patch_6">
    <path d="M 54 34.56  L 388.8 34.56  " style="fill: none; stroke: #000000; stroke-width: 0.8; stroke-linejoin: miter; stroke-linecap: square"/>
   </g>
  </g>
 </g>
 <defs>
  <clipPath id="pb640cb528f">
   <rect x="54" y="34.56" width="334.8" height="221.76"/>
  </clipPath>
 </defs>
</svg>