<?xml version="1.0" encoding="utf-8" standalone="no"?>
<!DOCTYPE svg PUBLIC "-//W3C//DTD SVG 1.1//EN"
  "http://www.w3.org/Graphics/SVG/1.1/DTD/svg11.dtd">
<svg xmlns:xlink="http://www.w3.org/1999/xlink" width="180pt" height="180pt" viewBox="0 0 180 180" xmlns="http://www.w3.org/2000/svg" version="1.1">
 <metadata>
  <rdf:RDF xmlns:dc="http://purl.org/dc/elements/1.1/" xmlns:cc="http://creativecommons.org/ns#" xmlns:rdf="http://www.w3.org/1999/02/22-rdf-syntax-ns#">
   <cc:Work>
    <dc:type rdf:resource="http://purl.org/dc/dcmitype/StillImage"/>
    <dc:date>2024-03-18T00:58:55.589779</dc:date>
    <dc:format>image/svg+xml</dc:format>
    <dc:creator>
     <cc:Agent>
      <dc:title>Matplotlib v3.5.1, https://matplotlib.org/</dc:title>
     </cc:Agent>
    </dc:creator>
   </cc:Work>
  </rdf:RDF>
 </metadata>
 <defs>
  <style type="text/css">*{stroke-linejoin: round; stroke-linecap: butt}</style>
 </defs>
 <g id="figure_1">
  <g id="patch_1">
   <path d="M 0 180 
L 180 180 
L 180 0 
L 0 0 
z
" style="fill: #ffffff"/>
  </g>
  <g id="axes_1">
   <g id="patch_2">
    <path d="M 22.5 160.2 
L 162 160.2 
L 162 21.6 
L 22.5 21.6 
z
" style="fill: #ffffff"/>
   </g>
   <g id="matplotlib.axis_1">
    <g id="xtick_1">
     <g id="line2d_1">
      <defs>
       <path id="ma5598ee31d" d="M 0 0 
L 0 3.5 
" style="stroke: #000000; stroke-width: 0.8"/>
      </defs>
      <g>
       <use xlink:href="#ma5598ee31d" x="28.840909" y="160.2" style="stroke: #000000; stroke-width: 0.8"/>
      </g>
     </g>
     <g id="text_1">
      <!-- 0 -->
      <g transform="translate(25.659659 174.798438)scale(0.1 -0.1)">
       <defs>
        <path id="DejaVuSans-30" d="M 2034 4250 
Q 1547 4250 1301 3770 
Q 1056 3291 1056 2328 
Q 1056 1369 1301 889 
Q 1547 409 2034 409 
Q 2525 409 2770 889 
Q 3016 1369 3016 2328 
Q 3016 3291 2770 3770 
Q 2525 4250 2034 4250 
z
M 2034 4750 
Q 2819 4750 3233 4129 
Q 3647 3509 3647 2328 
Q 3647 1150 3233 529 
Q 2819 -91 2034 -91 
Q 1250 -91 836 529 
Q 422 1150 422 2328 
Q 422 3509 836 4129 
Q 1250 4750 2034 4750 
z
" transform="scale(0.015625)"/>
       </defs>
       <use xlink:href="#DejaVuSans-30"/>
      </g>
     </g>
    </g>
    <g id="xtick_2">
     <g id="line2d_2">
      <g>
       <use xlink:href="#ma5598ee31d" x="92.568639" y="160.2" style="stroke: #000000; stroke-width: 0.8"/>
      </g>
     </g>
     <g id="text_2">
      <!-- 100 -->
      <g transform="translate(83.024889 174.798438)scale(0.1 -0.1)">
       <defs>
        <path id="DejaVuSans-31" d="M 794 531 
L 1825 531 
L 1825 4091 
L 703 3866 
L 703 4441 
L 1819 4666 
L 2450 4666 
L 2450 531 
L 3481 531 
L 3481 0 
L 794 0 
L 794 531 
z
" transform="scale(0.015625)"/>
       </defs>
       <use xlink:href="#DejaVuSans-31"/>
       <use xlink:href="#DejaVuSans-30" x="63.623047"/>
       <use xlink:href="#DejaVuSans-30" x="127.246094"/>
      </g>
     </g>
    </g>
    <g id="xtick_3">
     <g id="line2d_3">
      <g>
       <use xlink:href="#ma5598ee31d" x="156.296368" y="160.2" style="stroke: #000000; stroke-width: 0.8"/>
      </g>
     </g>
     <g id="text_3">
      <!-- 200 -->
      <g transform="translate(146.752618 174.798438)scale(0.1 -0.1)">
       <defs>
        <path id="DejaVuSans-32" d="M 1228 531 
L 3431 531 
L 3431 0 
L 469 0 
L 469 531 
Q 828 903 1448 1529 
Q 2069 2156 2228 2338 
Q 2531 2678 2651 2914 
Q 2772 3150 2772 3378 
Q 2772 3750 2511 3984 
Q 2250 4219 1831 4219 
Q 1534 4219 1204 4116 
Q 875 4013 500 3803 
L 500 4441 
Q 881 4594 1212 4672 
Q 1544 4750 1819 4750 
Q 2544 4750 2975 4387 
Q 3406 4025 3406 3419 
Q 3406 3131 3298 2873 
Q 3191 2616 2906 2266 
Q 2828 2175 2409 1742 
Q 1991 1309 1228 531 
z
" transform="scale(0.015625)"/>
       </defs>
       <use xlink:href="#DejaVuSans-32"/>
       <use xlink:href="#DejaVuSans-30" x="63.623047"/>
       <use xlink:href="#DejaVuSans-30" x="127.246094"/>
      </g>
     </g>
    </g>
   </g>
   <g id="matplotlib.axis_2">
    <g id="ytick_1">
     <g id="line2d_4">
      <defs>
       <path id="ma32ae799e7" d="M 0 0 
L -3.5 0 
" style="stroke: #000000; stroke-width: 0.8"/>
      </defs>
      <g>
       <use xlink:href="#ma32ae799e7" x="22.5" y="122.4" style="stroke: #000000; stroke-width: 0.8"/>
      </g>
     </g>
     <g id="text_4">
      <!-- 0.0 -->
      <g transform="translate(-0.403125 126.199219)scale(0.1 -0.1)">
       <defs>
        <path id="DejaVuSans-2e" d="M 684 794 
L 1344 794 
L 1344 0 
L 684 0 
L 684 794 
z
" transform="scale(0.015625)"/>
       </defs>
       <use xlink:href="#DejaVuSans-30"/>
       <use xlink:href="#DejaVuSans-2e" x="63.623047"/>
       <use xlink:href="#DejaVuSans-30" x="95.410156"/>
      </g>
     </g>
    </g>
    <g id="ytick_2">
     <g id="line2d_5">
      <g>
       <use xlink:href="#ma32ae799e7" x="22.5" y="80.4" style="stroke: #000000; stroke-width: 0.8"/>
      </g>
     </g>
     <g id="text_5">
      <!-- 0.5 -->
      <g transform="translate(-0.403125 84.199219)scale(0.1 -0.1)">
       <defs>
        <path id="DejaVuSans-35" d="M 691 4666 
L 3169 4666 
L 3169 4134 
L 1269 4134 
L 1269 2991 
Q 1406 3038 1543 3061 
Q 1681 3084 1819 3084 
Q 2600 3084 3056 2656 
Q 3513 2228 3513 1497 
Q 3513 744 3044 326 
Q 2575 -91 1722 -91 
Q 1428 -91 1123 -41 
Q 819 9 494 109 
L 494 744 
Q 775 591 1075 516 
Q 1375 441 1709 441 
Q 2250 441 2565 725 
Q 2881 1009 2881 1497 
Q 2881 1984 2565 2268 
Q 2250 2553 1709 2553 
Q 1456 2553 1204 2497 
Q 953 2441 691 2322 
L 691 4666 
z
" transform="scale(0.015625)"/>
       </defs>
       <use xlink:href="#DejaVuSans-30"/>
       <use xlink:href="#DejaVuSans-2e" x="63.623047"/>
       <use xlink:href="#DejaVuSans-35" x="95.410156"/>
      </g>
     </g>
    </g>
    <g id="ytick_3">
     <g id="line2d_6">
      <g>
       <use xlink:href="#ma32ae799e7" x="22.5" y="38.4" style="stroke: #000000; stroke-width: 0.8"/>
      </g>
     </g>
     <g id="text_6">
      <!-- 1.0 -->
      <g transform="translate(-0.403125 42.199219)scale(0.1 -0.1)">
       <use xlink:href="#DejaVuSans-31"/>
       <use xlink:href="#DejaVuSans-2e" x="63.623047"/>
       <use xlink:href="#DejaVuSans-30" x="95.410156"/>
      </g>
     </g>
    </g>
   </g>
   <g id="line2d_7">
    <path d="M 28.840909 121.854481 
L 29.478186 122.10051 
L 30.752741 123.256998 
L 31.390018 122.727468 
L 32.027296 122.534275 
L 32.664573 121.342568 
L 33.30185 120.924754 
L 33.939127 121.490079 
L 34.576405 121.625484 
L 35.850959 123.286238 
L 36.488237 122.225602 
L 37.125514 123.004378 
L 37.762791 121.638404 
L 38.400069 120.863761 
L 39.674623 122.550221 
L 40.3119 122.640464 
L 40.949178 122.910665 
L 41.586455 121.598576 
L 42.223732 122.1188 
L 42.86101 121.455076 
L 43.498287 120.201252 
L 44.135564 120.891825 
L 44.772841 120.914185 
L 45.410119 121.686462 
L 46.047396 123.332287 
L 46.684673 121.265054 
L 47.321951 121.931084 
L 47.959228 120.901884 
L 48.596505 120.894862 
L 49.233783 120.435867 
L 49.87106 121.209938 
L 50.508337 120.146988 
L 51.145614 122.488281 
L 51.782892 121.094292 
L 52.420169 121.054913 
L 53.057446 119.880186 
L 53.694724 120.227375 
L 54.332001 120.91709 
L 54.969278 120.961765 
L 55.606556 119.367532 
L 56.243833 121.114614 
L 56.88111 120.805811 
L 57.518387 121.332921 
L 58.155665 119.49831 
L 58.792942 120.21754 
L 59.430219 119.942197 
L 60.067497 121.317943 
L 60.704774 118.142686 
L 61.342051 120.744405 
L 61.979328 120.219825 
L 62.616606 120.134776 
L 63.253883 117.787269 
L 63.89116 119.375619 
L 64.528438 120.052903 
L 65.165715 123.085393 
L 65.802992 120.826122 
L 66.44027 120.292485 
L 67.077547 120.156375 
L 67.714824 118.795407 
L 68.352101 118.447661 
L 68.989379 119.372599 
L 69.626656 117.766454 
L 70.263933 119.791516 
L 70.901211 118.303308 
L 71.538488 118.348595 
L 72.175765 120.288866 
L 73.45032 117.700483 
L 74.087597 114.700517 
L 74.724874 119.784865 
L 75.362152 118.904479 
L 75.999429 115.389969 
L 76.636706 114.397542 
L 77.273984 117.651062 
L 77.911261 115.882749 
L 78.548538 117.138665 
L 79.185815 115.411973 
L 79.823093 118.424136 
L 80.46037 119.109082 
L 81.097647 114.87836 
L 81.734925 117.268493 
L 82.372202 117.96466 
L 83.009479 120.691413 
L 84.284034 113.615968 
L 84.921311 100.506461 
L 86.195866 125.541191 
L 86.833143 124.196375 
L 87.47042 125.691107 
L 88.107698 126.050597 
L 88.744975 115.702892 
L 89.382252 117.492987 
L 90.019529 109.764146 
L 90.656807 125.728563 
L 91.294084 122.22462 
L 91.931361 126.956558 
L 92.568639 123.542396 
L 93.205916 122.774515 
L 93.843193 115.095809 
L 94.480471 122.479637 
L 95.117748 113.943953 
L 95.755025 118.899625 
L 96.392302 125.031018 
L 97.02958 126.713352 
L 97.666857 115.453753 
L 98.304134 122.515761 
L 98.941412 112.511829 
L 99.578689 116.633431 
L 100.215966 119.049165 
L 100.853243 122.003786 
L 101.490521 118.491272 
L 102.127798 117.08845 
L 102.765075 109.485091 
L 103.402353 122.79433 
L 104.03963 114.457308 
L 104.676907 112.078605 
L 105.314185 112.237881 
L 105.951462 114.687303 
L 106.588739 121.12396 
L 107.226016 119.774163 
L 107.863294 117.052044 
L 108.500571 122.465502 
L 109.137848 116.021622 
L 109.775126 116.090826 
L 110.412403 114.443556 
L 111.04968 116.909366 
L 111.686958 115.586306 
L 112.324235 115.471515 
L 112.961512 117.686012 
L 113.598789 120.944115 
L 114.236067 117.552462 
L 114.873344 121.015761 
L 115.510621 116.020357 
L 116.147899 115.957046 
L 116.785176 115.54327 
L 117.422453 117.63849 
L 118.697008 119.973617 
L 119.334285 117.635293 
L 119.971562 121.1333 
L 120.60884 119.054459 
L 121.246117 115.409947 
L 121.883394 118.772911 
L 122.520672 118.642505 
L 123.157949 118.945136 
L 123.795226 118.528437 
L 124.432503 119.189303 
L 125.069781 118.67227 
L 125.707058 119.297388 
L 126.344335 119.686592 
L 126.981613 120.663564 
L 127.61889 119.743731 
L 128.256167 120.272301 
L 128.893444 120.372694 
L 129.530722 119.197118 
L 130.805276 119.802206 
L 131.442554 121.083313 
L 132.079831 121.28297 
L 132.717108 120.823641 
L 133.354386 119.513371 
L 133.991663 120.82933 
L 134.62894 120.195374 
L 135.266217 121.009794 
L 135.903495 120.275498 
L 136.540772 122.035223 
L 137.178049 121.200586 
L 137.815327 120.161751 
L 138.452604 119.826698 
L 139.089881 121.716735 
L 139.727159 120.55074 
L 140.364436 121.572023 
L 141.001713 120.318101 
L 141.63899 122.149978 
L 142.913545 120.756405 
L 143.550822 120.504926 
L 144.1881 121.060994 
L 144.825377 120.58697 
L 145.462654 122.045586 
L 146.099931 121.107298 
L 146.737209 122.928083 
L 147.374486 121.120359 
L 148.649041 122.054778 
L 150.560873 121.901089 
L 151.19815 121.160169 
L 151.835427 121.881643 
L 152.472704 122.064947 
L 153.109982 122.487919 
L 153.747259 121.342922 
L 154.384536 121.442271 
L 155.021814 122.316069 
L 155.659091 121.59167 
L 155.659091 121.59167 
" clip-path="url(#p9ad521deb0)" style="fill: none; stroke: #1f77b4; stroke-linecap: square"/>
   </g>
   <g id="line2d_8">
    <path d="M 28.840909 125.083427 
L 30.115464 121.624163 
L 30.752741 123.742685 
L 31.390018 120.56159 
L 32.027296 123.065843 
L 32.664573 123.802854 
L 33.30185 122.293959 
L 33.939127 123.020995 
L 34.576405 120.412094 
L 35.213682 120.148386 
L 35.850959 123.459023 
L 36.488237 122.113342 
L 37.125514 122.854725 
L 37.762791 121.548029 
L 38.400069 122.529238 
L 39.037346 122.138536 
L 39.674623 122.347745 
L 40.3119 122.363546 
L 40.949178 121.809635 
L 41.586455 123.139829 
L 42.223732 123.568677 
L 42.86101 123.292058 
L 43.498287 120.705152 
L 44.135564 118.895609 
L 45.410119 121.549542 
L 46.047396 124.043872 
L 46.684673 122.75357 
L 47.959228 121.743554 
L 48.596505 122.363251 
L 49.233783 122.344958 
L 49.87106 122.901466 
L 50.508337 122.429877 
L 51.145614 121.704157 
L 51.782892 123.502867 
L 52.420169 121.367222 
L 53.057446 122.884254 
L 53.694724 122.4789 
L 54.332001 124.000205 
L 54.969278 120.83115 
L 55.606556 123.595592 
L 56.243833 123.329292 
L 56.88111 122.490676 
L 57.518387 124.334595 
L 58.155665 122.615918 
L 58.792942 123.838325 
L 59.430219 124.725366 
L 60.067497 120.022029 
L 60.704774 123.613246 
L 61.342051 120.150804 
L 61.979328 122.964571 
L 62.616606 124.005844 
L 63.253883 123.634319 
L 63.89116 123.714493 
L 65.165715 121.776475 
L 65.802992 121.70897 
L 66.44027 122.177249 
L 67.714824 125.180591 
L 68.352101 121.665515 
L 68.989379 123.579246 
L 70.263933 120.954142 
L 70.901211 123.203559 
L 71.538488 121.428844 
L 72.175765 122.194176 
L 72.813042 124.237248 
L 73.45032 121.224642 
L 74.087597 123.593856 
L 74.724874 121.010004 
L 75.362152 123.865638 
L 75.999429 121.186735 
L 76.636706 123.152675 
L 77.273984 123.916838 
L 77.911261 121.636033 
L 78.548538 123.643741 
L 79.185815 122.484173 
L 79.823093 124.183363 
L 80.46037 121.447609 
L 81.097647 122.794177 
L 82.372202 121.026097 
L 83.009479 124.083255 
L 83.646757 122.30355 
L 84.284034 122.623562 
L 84.921311 124.862076 
L 85.558588 123.165303 
L 86.195866 122.787851 
L 86.833143 120.414637 
L 87.47042 121.601124 
L 88.107698 120.5402 
L 88.744975 123.840382 
L 89.382252 122.496418 
L 90.019529 123.151684 
L 90.656807 121.303115 
L 91.294084 121.810776 
L 91.931361 121.809667 
L 92.568639 122.797503 
L 93.205916 122.446153 
L 93.843193 123.562998 
L 94.480471 121.778684 
L 95.117748 123.360971 
L 95.755025 121.01124 
L 96.392302 122.636836 
L 97.02958 122.154482 
L 98.304134 123.532071 
L 98.941412 122.46688 
L 99.578689 122.518235 
L 100.215966 122.330047 
L 100.853243 122.458761 
L 101.490521 121.977397 
L 102.127798 120.698399 
L 102.765075 121.456037 
L 103.402353 121.194252 
L 104.03963 121.211938 
L 104.676907 120.477753 
L 105.314185 122.709579 
L 105.951462 122.878353 
L 106.588739 121.290561 
L 107.226016 120.883847 
L 107.863294 123.536984 
L 108.500571 123.865444 
L 109.137848 123.550136 
L 109.775126 123.59187 
L 110.412403 121.73967 
L 111.04968 123.958496 
L 111.686958 122.865509 
L 112.324235 119.738414 
L 112.961512 122.933724 
L 113.598789 121.846448 
L 114.236067 122.158722 
L 114.873344 123.811159 
L 115.510621 122.990048 
L 116.147899 120.964806 
L 116.785176 122.165095 
L 117.422453 120.120753 
L 118.05973 123.029448 
L 118.697008 121.986701 
L 119.334285 120.728008 
L 119.971562 122.074018 
L 120.60884 122.195987 
L 121.246117 121.328445 
L 121.883394 123.501548 
L 122.520672 122.474367 
L 123.157949 122.752877 
L 123.795226 121.754917 
L 124.432503 123.013346 
L 125.707058 122.800871 
L 126.344335 124.276897 
L 126.981613 121.608972 
L 127.61889 121.393873 
L 128.256167 121.384985 
L 128.893444 122.121803 
L 129.530722 122.166461 
L 130.167999 122.391533 
L 130.805276 121.669806 
L 132.717108 123.402119 
L 133.991663 119.614537 
L 134.62894 123.396154 
L 135.266217 121.414001 
L 135.903495 122.408467 
L 136.540772 120.960663 
L 137.178049 119.862707 
L 137.815327 123.011403 
L 138.452604 119.945795 
L 139.089881 123.372157 
L 139.727159 123.669098 
L 140.364436 121.046408 
L 141.001713 120.188948 
L 141.63899 122.992243 
L 142.276268 122.818799 
L 142.913545 120.751492 
L 143.550822 123.640927 
L 144.1881 117.442534 
L 144.825377 123.004321 
L 145.462654 122.370244 
L 146.099931 118.294508 
L 146.737209 124.052081 
L 147.374486 121.293232 
L 148.011763 121.193718 
L 148.649041 120.795404 
L 149.286318 121.555921 
L 149.923595 121.498944 
L 150.560873 120.776506 
L 151.19815 122.145021 
L 151.835427 124.134529 
L 152.472704 121.311375 
L 153.109982 123.357686 
L 153.747259 122.061632 
L 154.384536 123.681721 
L 155.021814 122.416111 
L 155.659091 123.718295 
L 155.659091 123.718295 
" clip-path="url(#p9ad521deb0)" style="fill: none; stroke-dasharray: 3.7,1.6; stroke-dashoffset: 0; stroke: #ff7f0e"/>
   </g>
   <g id="patch_3">
    <path d="M 22.5 160.2 
L 22.5 21.6 
" style="fill: none; stroke: #000000; stroke-width: 0.8; stroke-linejoin: miter; stroke-linecap: square"/>
   </g>
   <g id="patch_4">
    <path d="M 162 160.2 
L 162 21.6 
" style="fill: none; stroke: #000000; stroke-width: 0.8; stroke-linejoin: miter; stroke-linecap: square"/>
   </g>
   <g id="patch_5">
    <path d="M 22.5 160.2 
L 162 160.2 
" style="fill: none; stroke: #000000; stroke-width: 0.8; stroke-linejoin: miter; stroke-linecap: square"/>
   </g>
   <g id="patch_6">
    <path d="M 22.5 21.6 
L 162 21.6 
" style="fill: none; stroke: #000000; stroke-width: 0.8; stroke-linejoin: miter; stroke-linecap: square"/>
   </g>
   <g id="legend_1">
    <g id="patch_7">
     <path d="M 56.153125 58.95625 
L 155 58.95625 
Q 157 58.95625 157 56.95625 
L 157 28.6 
Q 157 26.6 155 26.6 
L 56.153125 26.6 
Q 54.153125 26.6 54.153125 28.6 
L 54.153125 56.95625 
Q 54.153125 58.95625 56.153125 58.95625 
z
" style="fill: #ffffff; opacity: 0.8; stroke: #cccccc; stroke-linejoin: miter"/>
    </g>
    <g id="line2d_9">
     <path d="M 58.153125 34.698437 
L 68.153125 34.698437 
L 78.153125 34.698437 
" style="fill: none; stroke: #1f77b4; stroke-linecap: square"/>
    </g>
    <g id="text_7">
     <!-- with motif -->
     <g transform="translate(86.153125 38.198437)scale(0.1 -0.1)">
      <defs>
       <path id="DejaVuSans-77" d="M 269 3500 
L 844 3500 
L 1563 769 
L 2278 3500 
L 2956 3500 
L 3675 769 
L 4391 3500 
L 4966 3500 
L 4050 0 
L 3372 0 
L 2619 2869 
L 1863 0 
L 1184 0 
L 269 3500 
z
" transform="scale(0.015625)"/>
       <path id="DejaVuSans-69" d="M 603 3500 
L 1178 3500 
L 1178 0 
L 603 0 
L 603 3500 
z
M 603 4863 
L 1178 4863 
L 1178 4134 
L 603 4134 
L 603 4863 
z
" transform="scale(0.015625)"/>
       <path id="DejaVuSans-74" d="M 1172 4494 
L 1172 3500 
L 2356 3500 
L 2356 3053 
L 1172 3053 
L 1172 1153 
Q 1172 725 1289 603 
Q 1406 481 1766 481 
L 2356 481 
L 2356 0 
L 1766 0 
Q 1100 0 847 248 
Q 594 497 594 1153 
L 594 3053 
L 172 3053 
L 172 3500 
L 594 3500 
L 594 4494 
L 1172 4494 
z
" transform="scale(0.015625)"/>
       <path id="DejaVuSans-68" d="M 3513 2113 
L 3513 0 
L 2938 0 
L 2938 2094 
Q 2938 2591 2744 2837 
Q 2550 3084 2163 3084 
Q 1697 3084 1428 2787 
Q 1159 2491 1159 1978 
L 1159 0 
L 581 0 
L 581 4863 
L 1159 4863 
L 1159 2956 
Q 1366 3272 1645 3428 
Q 1925 3584 2291 3584 
Q 2894 3584 3203 3211 
Q 3513 2838 3513 2113 
z
" transform="scale(0.015625)"/>
       <path id="DejaVuSans-20" transform="scale(0.015625)"/>
       <path id="DejaVuSans-6d" d="M 3328 2828 
Q 3544 3216 3844 3400 
Q 4144 3584 4550 3584 
Q 5097 3584 5394 3201 
Q 5691 2819 5691 2113 
L 5691 0 
L 5113 0 
L 5113 2094 
Q 5113 2597 4934 2840 
Q 4756 3084 4391 3084 
Q 3944 3084 3684 2787 
Q 3425 2491 3425 1978 
L 3425 0 
L 2847 0 
L 2847 2094 
Q 2847 2600 2669 2842 
Q 2491 3084 2119 3084 
Q 1678 3084 1418 2786 
Q 1159 2488 1159 1978 
L 1159 0 
L 581 0 
L 581 3500 
L 1159 3500 
L 1159 2956 
Q 1356 3278 1631 3431 
Q 1906 3584 2284 3584 
Q 2666 3584 2933 3390 
Q 3200 3197 3328 2828 
z
" transform="scale(0.015625)"/>
       <path id="DejaVuSans-6f" d="M 1959 3097 
Q 1497 3097 1228 2736 
Q 959 2375 959 1747 
Q 959 1119 1226 758 
Q 1494 397 1959 397 
Q 2419 397 2687 759 
Q 2956 1122 2956 1747 
Q 2956 2369 2687 2733 
Q 2419 3097 1959 3097 
z
M 1959 3584 
Q 2709 3584 3137 3096 
Q 3566 2609 3566 1747 
Q 3566 888 3137 398 
Q 2709 -91 1959 -91 
Q 1206 -91 779 398 
Q 353 888 353 1747 
Q 353 2609 779 3096 
Q 1206 3584 1959 3584 
z
" transform="scale(0.015625)"/>
       <path id="DejaVuSans-66" d="M 2375 4863 
L 2375 4384 
L 1825 4384 
Q 1516 4384 1395 4259 
Q 1275 4134 1275 3809 
L 1275 3500 
L 2222 3500 
L 2222 3053 
L 1275 3053 
L 1275 0 
L 697 0 
L 697 3053 
L 147 3053 
L 147 3500 
L 697 3500 
L 697 3744 
Q 697 4328 969 4595 
Q 1241 4863 1831 4863 
L 2375 4863 
z
" transform="scale(0.015625)"/>
      </defs>
      <use xlink:href="#DejaVuSans-77"/>
      <use xlink:href="#DejaVuSans-69" x="81.787109"/>
      <use xlink:href="#DejaVuSans-74" x="109.570312"/>
      <use xlink:href="#DejaVuSans-68" x="148.779297"/>
      <use xlink:href="#DejaVuSans-20" x="212.158203"/>
      <use xlink:href="#DejaVuSans-6d" x="243.945312"/>
      <use xlink:href="#DejaVuSans-6f" x="341.357422"/>
      <use xlink:href="#DejaVuSans-74" x="402.539062"/>
      <use xlink:href="#DejaVuSans-69" x="441.748047"/>
      <use xlink:href="#DejaVuSans-66" x="469.53125"/>
     </g>
    </g>
    <g id="line2d_10">
     <path d="M 58.153125 49.376562 
L 68.153125 49.376562 
L 78.153125 49.376562 
" style="fill: none; stroke-dasharray: 3.7,1.6; stroke-dashoffset: 0; stroke: #ff7f0e"/>
    </g>
    <g id="text_8">
     <!-- without motif -->
     <g transform="translate(86.153125 52.876562)scale(0.1 -0.1)">
      <defs>
       <path id="DejaVuSans-75" d="M 544 1381 
L 544 3500 
L 1119 3500 
L 1119 1403 
Q 1119 906 1312 657 
Q 1506 409 1894 409 
Q 2359 409 2629 706 
Q 2900 1003 2900 1516 
L 2900 3500 
L 3475 3500 
L 3475 0 
L 2900 0 
L 2900 538 
Q 2691 219 2414 64 
Q 2138 -91 1772 -91 
Q 1169 -91 856 284 
Q 544 659 544 1381 
z
M 1991 3584 
L 1991 3584 
z
" transform="scale(0.015625)"/>
      </defs>
      <use xlink:href="#DejaVuSans-77"/>
      <use xlink:href="#DejaVuSans-69" x="81.787109"/>
      <use xlink:href="#DejaVuSans-74" x="109.570312"/>
      <use xlink:href="#DejaVuSans-68" x="148.779297"/>
      <use xlink:href="#DejaVuSans-6f" x="212.158203"/>
      <use xlink:href="#DejaVuSans-75" x="273.339844"/>
      <use xlink:href="#DejaVuSans-74" x="336.71875"/>
      <use xlink:href="#DejaVuSans-20" x="375.927734"/>
      <use xlink:href="#DejaVuSans-6d" x="407.714844"/>
      <use xlink:href="#DejaVuSans-6f" x="505.126953"/>
      <use xlink:href="#DejaVuSans-74" x="566.308594"/>
      <use xlink:href="#DejaVuSans-69" x="605.517578"/>
      <use xlink:href="#DejaVuSans-66" x="633.300781"/>
     </g>
    </g>
   </g>
  </g>
 </g>
 <defs>
  <clipPath id="p9ad521deb0">
   <rect x="22.5" y="21.6" width="139.5" height="138.6"/>
  </clipPath>
 </defs>
</svg>
