<svg class="main-svg" xmlns="http://www.w3.org/2000/svg" xmlns:xlink="http://www.w3.org/1999/xlink" width="850" height="550" style="" viewBox="0 0 850 550"><rect x="0" y="0" width="850" height="550" style="fill: rgb(255, 255, 255); fill-opacity: 1;"/><defs id="defs-5202ba"><g class="clips"/><g class="gradients"/></defs><g class="bglayer"/><g class="layer-below"><g class="imagelayer"/><g class="shapelayer"/></g><g class="cartesianlayer"/><g class="polarlayer"/><g class="ternarylayer"/><g class="geolayer"/><g class="funnelarealayer"/><g class="pielayer"/><g class="sunburstlayer"/><g class="glimages"/><g class="sankey" transform="translate(80,100)matrix(1 0 0 1 0 0)" style="box-sizing: content-box; position: absolute; left: 0px; shape-rendering: geometricprecision; pointer-events: auto;"><g class="sankey-links" style="fill: none;"><path class="sankey-link" d="M44.5,0C138,0 138,0 231.49999999999997,0L231.49999999999997,16.8991100542095C138,16.8991100542095 138,16.8991100542095 44.5,16.8991100542095Z" style="stroke: rgb(68, 68, 68); stroke-opacity: 1; fill: rgb(0, 0, 0); fill-opacity: 0.2; stroke-width: 0; opacity: 1;"/><path class="sankey-link" d="M44.5,16.8991100542095C138,16.8991100542095 138,43.90016047943237 231.49999999999997,43.90016047943237L231.49999999999997,61.03651411348052C138,61.03651411348052 138,34.03546368825765 44.5,34.03546368825765Z" style="stroke: rgb(68, 68, 68); stroke-opacity: 1; fill: rgb(0, 0, 0); fill-opacity: 0.2; stroke-width: 0; opacity: 1;"/><path class="sankey-link" d="M44.5,234.1956877117317C138,234.1956877117317 138,287.2053842048695 231.49999999999997,287.2053842048695L231.49999999999997,298.3395827105474C138,298.3395827105474 138,245.32988621740952 44.5,245.32988621740952Z" style="stroke: rgb(68, 68, 68); stroke-opacity: 1; fill: rgb(0, 0, 0); fill-opacity: 0.2; stroke-width: 0; opacity: 1;"/><path class="sankey-link" d="M44.5,49.035463688257636C138,49.035463688257636 138,16.8991100542095 231.49999999999997,16.8991100542095L231.49999999999997,28.90016047943236C138,28.90016047943236 138,61.03651411348049 44.5,61.03651411348049Z" style="stroke: rgb(68, 68, 68); stroke-opacity: 1; fill: rgb(0, 0, 0); fill-opacity: 0.2; stroke-width: 0; opacity: 1;"/><path class="sankey-link" d="M44.5,61.03651411348049C138,61.03651411348049 138,61.03651411348052 231.49999999999997,61.03651411348052L231.49999999999997,73.3878850645287C138,73.3878850645287 138,73.38788506452867 44.5,73.38788506452867Z" style="stroke: rgb(68, 68, 68); stroke-opacity: 1; fill: rgb(0, 0, 0); fill-opacity: 0.2; stroke-width: 0; opacity: 1;"/><path class="sankey-link" d="M44.5,88.3878850645286C138,88.3878850645286 138,88.38788506452869 231.49999999999997,88.38788506452869L231.49999999999997,111.97399255924967C138,111.97399255924967 138,111.97399255924958 44.5,111.97399255924958Z" style="stroke: rgb(68, 68, 68); stroke-opacity: 1; fill: rgb(0, 0, 0); fill-opacity: 0.2; stroke-width: 0; opacity: 1;"/><path class="sankey-link" d="M44.5,111.97399255924957C138,111.97399255924957 138,151.0604911621881 231.49999999999997,151.0604911621881L231.49999999999997,175.29360775584666C138,175.29360775584666 138,136.20710915290815 44.5,136.20710915290815Z" style="stroke: rgb(68, 68, 68); stroke-opacity: 1; fill: rgb(0, 0, 0); fill-opacity: 0.2; stroke-width: 0; opacity: 1;"/><path class="sankey-link" d="M44.5,151.20710915290812C138,151.20710915290812 138,111.97399255924965 231.49999999999997,111.97399255924965L231.49999999999997,125.22166260397024C138,125.22166260397024 138,164.45477919762874 44.5,164.45477919762874Z" style="stroke: rgb(68, 68, 68); stroke-opacity: 1; fill: rgb(0, 0, 0); fill-opacity: 0.2; stroke-width: 0; opacity: 1;"/><path class="sankey-link" d="M44.5,164.45477919762874C138,164.45477919762874 138,175.2936077558467 231.49999999999997,175.2936077558467L231.49999999999997,189.97678363049013C138,189.97678363049013 138,179.13795507227218 44.5,179.13795507227218Z" style="stroke: rgb(68, 68, 68); stroke-opacity: 1; fill: rgb(0, 0, 0); fill-opacity: 0.2; stroke-width: 0; opacity: 1;"/><path class="sankey-link" d="M44.5,194.13795507227218C138,194.13795507227218 138,125.22166260397024 231.49999999999997,125.22166260397024L231.49999999999997,136.0604911621881C138,136.0604911621881 138,204.97678363049005 44.5,204.97678363049005Z" style="stroke: rgb(68, 68, 68); stroke-opacity: 1; fill: rgb(0, 0, 0); fill-opacity: 0.2; stroke-width: 0; opacity: 1;"/><path class="sankey-link" d="M44.5,204.97678363049002C138,204.97678363049002 138,189.97678363049013 231.49999999999997,189.97678363049013L231.49999999999997,204.1956877117316C138,204.1956877117316 138,219.1956877117315 44.5,219.1956877117315Z" style="stroke: rgb(68, 68, 68); stroke-opacity: 1; fill: rgb(0, 0, 0); fill-opacity: 0.2; stroke-width: 0; opacity: 1;"/><path class="sankey-link" d="M251.49999999999997,0C345,0 345,0 438.5,0L438.5,15.417426798649279C345,15.417426798649279 345,15.417426798649279 251.49999999999997,15.417426798649279Z" style="stroke: rgb(68, 68, 68); stroke-opacity: 1; fill: rgb(0, 0, 0); fill-opacity: 0.2; stroke-width: 0; opacity: 1;"/><path class="sankey-link" d="M251.49999999999997,43.90016047943237C345,43.90016047943237 345,15.417426798649279 438.5,15.417426798649279L438.5,31.85588769534273C345,31.85588769534273 345,60.33862137612583 251.49999999999997,60.33862137612583Z" style="stroke: rgb(68, 68, 68); stroke-opacity: 1; fill: rgb(0, 0, 0); fill-opacity: 0.2; stroke-width: 0; opacity: 1;"/><path class="sankey-link" d="M251.49999999999997,88.38788506452869C345,88.38788506452869 345,46.85588769534279 438.5,46.85588769534279L438.5,60.109754623339256C345,60.109754623339256 345,101.64175199252514 251.49999999999997,101.64175199252514Z" style="stroke: rgb(68, 68, 68); stroke-opacity: 1; fill: rgb(0, 0, 0); fill-opacity: 0.2; stroke-width: 0; opacity: 1;"/><path class="sankey-link" d="M251.49999999999997,101.64175199252516C345,101.64175199252516 345,88.31004452823971 438.5,88.31004452823971L438.5,99.89335505471557C345,99.89335505471557 345,113.22506251900101 251.49999999999997,113.22506251900101Z" style="stroke: rgb(68, 68, 68); stroke-opacity: 1; fill: rgb(0, 0, 0); fill-opacity: 0.2; stroke-width: 0; opacity: 1;"/><path class="sankey-link" d="M251.49999999999997,113.22506251900101C345,113.22506251900101 345,146.33862497313095 438.5,146.33862497313095L438.5,161.135449054233C345,161.135449054233 345,128.02188660010307 251.49999999999997,128.02188660010307Z" style="stroke: rgb(68, 68, 68); stroke-opacity: 1; fill: rgb(0, 0, 0); fill-opacity: 0.2; stroke-width: 0; opacity: 1;"/><path class="sankey-link" d="M251.49999999999997,258.1310386324185C345,258.1310386324185 345,232.04572237984718 438.5,232.04572237984718L438.5,246.1200679522982C345,246.1200679522982 345,272.2053842048696 251.49999999999997,272.2053842048696Z" style="stroke: rgb(68, 68, 68); stroke-opacity: 1; fill: rgb(0, 0, 0); fill-opacity: 0.2; stroke-width: 0; opacity: 1;"/><path class="sankey-link" d="M251.49999999999997,151.0604911621881C345,151.0604911621881 345,99.89335505471557 438.5,99.89335505471557L438.5,111.67007425297125C345,111.67007425297125 345,162.83721036044375 251.49999999999997,162.83721036044375Z" style="stroke: rgb(68, 68, 68); stroke-opacity: 1; fill: rgb(0, 0, 0); fill-opacity: 0.2; stroke-width: 0; opacity: 1;"/><path class="sankey-link" d="M251.49999999999997,162.83721036044378C345,162.83721036044378 345,161.13544905423302 438.5,161.13544905423302L438.5,178.1103714591603C345,178.1103714591603 345,179.81213276537105 251.49999999999997,179.81213276537105Z" style="stroke: rgb(68, 68, 68); stroke-opacity: 1; fill: rgb(0, 0, 0); fill-opacity: 0.2; stroke-width: 0; opacity: 1;"/><path class="sankey-link" d="M251.49999999999997,287.2053842048695C345,287.2053842048695 345,246.12006795229823 438.5,246.12006795229823L438.5,261.7093569561694C345,261.7093569561694 345,302.7946732087407 251.49999999999997,302.7946732087407Z" style="stroke: rgb(68, 68, 68); stroke-opacity: 1; fill: rgb(0, 0, 0); fill-opacity: 0.2; stroke-width: 0; opacity: 1;"/><path class="sankey-link" d="M251.49999999999997,219.19568771173158C345,219.19568771173158 345,193.11037145916026 438.5,193.11037145916026L438.5,217.04572237984718C345,217.04572237984718 345,243.1310386324185 251.49999999999997,243.1310386324185Z" style="stroke: rgb(68, 68, 68); stroke-opacity: 1; fill: rgb(0, 0, 0); fill-opacity: 0.2; stroke-width: 0; opacity: 1;"/><path class="sankey-link" d="M458.5,46.85588769534279C552,46.85588769534279 552,0 645.5,0L645.5,26.45415683289688C552,26.45415683289688 552,73.31004452823967 458.5,73.31004452823967Z" style="stroke: rgb(68, 68, 68); stroke-opacity: 1; fill: rgb(0, 0, 0); fill-opacity: 0.2; stroke-width: 0; opacity: 1;"/><path class="sankey-link" d="M458.5,193.11037145916026C552,193.11037145916026 552,83.1739774802517 645.5,83.1739774802517L645.5,102.71149785605351C552,102.71149785605351 552,212.64789183496208 458.5,212.64789183496208Z" style="stroke: rgb(68, 68, 68); stroke-opacity: 1; fill: rgb(0, 0, 0); fill-opacity: 0.2; stroke-width: 0; opacity: 1;"/><path class="sankey-link" d="M458.5,0C552,0 552,117.71149785605358 645.5,117.71149785605358L645.5,138.72739639940994C552,138.72739639940994 552,21.015898543356364 458.5,21.015898543356364Z" style="stroke: rgb(68, 68, 68); stroke-opacity: 1; fill: rgb(0, 0, 0); fill-opacity: 0.2; stroke-width: 0; opacity: 1;"/><path class="sankey-link" d="M458.5,88.31004452823971C552,88.31004452823971 552,26.454156832896878 645.5,26.454156832896878L645.5,54.90546754842989C552,54.90546754842989 552,116.76135524377271 458.5,116.76135524377271Z" style="stroke: rgb(68, 68, 68); stroke-opacity: 1; fill: rgb(0, 0, 0); fill-opacity: 0.2; stroke-width: 0; opacity: 1;"/><path class="sankey-link" d="M458.5,116.76135524377273C552,116.76135524377273 552,153.72739639940997 645.5,153.72739639940997L645.5,168.30466612876833C552,168.30466612876833 552,131.3386249731311 458.5,131.3386249731311Z" style="stroke: rgb(68, 68, 68); stroke-opacity: 1; fill: rgb(0, 0, 0); fill-opacity: 0.2; stroke-width: 0; opacity: 1;"/><path class="sankey-link" d="M458.5,232.04572237984718C552,232.04572237984718 552,183.30466612876856 645.5,183.30466612876856L645.5,197.69858200399378C552,197.69858200399378 552,246.4396382550724 458.5,246.4396382550724Z" style="stroke: rgb(68, 68, 68); stroke-opacity: 1; fill: rgb(0, 0, 0); fill-opacity: 0.2; stroke-width: 0; opacity: 1;"/><path class="sankey-link" d="M458.5,276.7093569561694C552,276.7093569561694 552,228.82260857518924 645.5,228.82260857518924L645.5,239.3589992934464C552,239.3589992934464 552,287.2457476744266 458.5,287.2457476744266Z" style="stroke: rgb(68, 68, 68); stroke-opacity: 1; fill: rgb(0, 0, 0); fill-opacity: 0.2; stroke-width: 0; opacity: 1;"/><path class="sankey-link" d="M458.5,146.33862497313095C552,146.33862497313095 552,54.90546754842988 645.5,54.90546754842988L645.5,83.17397748025168C552,83.17397748025168 552,174.60713490495272 458.5,174.60713490495272Z" style="stroke: rgb(68, 68, 68); stroke-opacity: 1; fill: rgb(0, 0, 0); fill-opacity: 0.2; stroke-width: 0; opacity: 1;"/><path class="sankey-link" d="M458.5,302.2457476744266C552,302.2457476744266 552,197.69858200399378 645.5,197.69858200399378L645.5,213.8226085751892C552,213.8226085751892 552,318.36977424562207 458.5,318.36977424562207Z" style="stroke: rgb(68, 68, 68); stroke-opacity: 1; fill: rgb(0, 0, 0); fill-opacity: 0.2; stroke-width: 0; opacity: 1;"/></g><g class="sankey-node-set" style="cursor: move;"><g class="sankey-node" transform="translate(24.500, 0.000)" style="opacity: 1;"><rect class="node-rect" width="20" height="34.035463688257636" style="stroke-width: 1; stroke: rgb(0, 0, 0); stroke-opacity: 1; fill: rgb(31, 119, 180); fill-opacity: 1;"/><rect class="node-capture" x="-10" y="-7.5" width="40" height="49.035463688257636" style="fill-opacity: 0;"/><g class="node-entered" transform="translate(0 18.017731844128818)"><path class="node-label-guide" id="75f273_0_node_0" d="M24,0L690,0" transform="matrix(1 0 0 1 0 0)"/><text class="node-label" transform="scale(1 1)" style="user-select: none; cursor: default; fill: rgb(0, 0, 0); text-shadow: rgb(255, 255, 255) -1px 1px 1px, rgb(255, 255, 255) 1px 1px 1px, rgb(255, 255, 255) 1px -1px 1px, rgb(255, 255, 255) -1px -1px 1px; font-family: Arial; font-size: 10px; fill-opacity: 1;"><textPath class="node-label-text-path" alignment-baseline="middle" xlink:href="#75f273_0_node_0" startOffset="0%" text-anchor="start" style="fill: rgb(0, 0, 0);">Ml_0</textPath></text></g></g><g class="sankey-node" transform="translate(24.500, 49.035)" style="opacity: 1;"><rect class="node-rect" width="20" height="24.352421376270968" style="stroke-width: 1; stroke: rgb(0, 0, 0); stroke-opacity: 1; fill: rgb(255, 127, 14); fill-opacity: 1;"/><rect class="node-capture" x="-10" y="-7.5" width="40" height="39.35242137627097" style="fill-opacity: 0;"/><g class="node-entered" transform="translate(0 13.176210688135484)"><path class="node-label-guide" id="75f273_0_node_1" d="M24,0L690,0" transform="matrix(1 0 0 1 0 0)"/><text class="node-label" transform="scale(1 1)" style="user-select: none; cursor: default; fill: rgb(0, 0, 0); text-shadow: rgb(255, 255, 255) -1px 1px 1px, rgb(255, 255, 255) 1px 1px 1px, rgb(255, 255, 255) 1px -1px 1px, rgb(255, 255, 255) -1px -1px 1px; font-family: Arial; font-size: 10px; fill-opacity: 1;"><textPath class="node-label-text-path" alignment-baseline="middle" xlink:href="#75f273_0_node_1" startOffset="0%" text-anchor="start" style="fill: rgb(0, 0, 0);">Ml_2</textPath></text></g></g><g class="sankey-node" transform="translate(24.500, 88.388)" style="opacity: 1;"><rect class="node-rect" width="20" height="47.81922408837954" style="stroke-width: 1; stroke: rgb(0, 0, 0); stroke-opacity: 1; fill: rgb(255, 187, 120); fill-opacity: 1;"/><rect class="node-capture" x="-10" y="-7.5" width="40" height="62.81922408837954" style="fill-opacity: 0;"/><g class="node-entered" transform="translate(0 24.90961204418977)"><path class="node-label-guide" id="75f273_0_node_2" d="M24,0L690,0" transform="matrix(1 0 0 1 0 0)"/><text class="node-label" transform="scale(1 1)" style="user-select: none; cursor: default; fill: rgb(0, 0, 0); text-shadow: rgb(255, 255, 255) -1px 1px 1px, rgb(255, 255, 255) 1px 1px 1px, rgb(255, 255, 255) 1px -1px 1px, rgb(255, 255, 255) -1px -1px 1px; font-family: Arial; font-size: 10px; fill-opacity: 1;"><textPath class="node-label-text-path" alignment-baseline="middle" xlink:href="#75f273_0_node_2" startOffset="0%" text-anchor="start" style="fill: rgb(0, 0, 0);">Ml_3</textPath></text></g></g><g class="sankey-node" transform="translate(24.500, 151.207)" style="opacity: 1;"><rect class="node-rect" width="20" height="27.930845919364003" style="stroke-width: 1; stroke: rgb(0, 0, 0); stroke-opacity: 1; fill: rgb(152, 223, 138); fill-opacity: 1;"/><rect class="node-capture" x="-10" y="-7.5" width="40" height="42.930845919364" style="fill-opacity: 0;"/><g class="node-entered" transform="translate(0 14.965422959682002)"><path class="node-label-guide" id="75f273_0_node_3" d="M24,0L690,0" transform="matrix(1 0 0 1 0 0)"/><text class="node-label" transform="scale(1 1)" style="user-select: none; cursor: default; fill: rgb(0, 0, 0); text-shadow: rgb(255, 255, 255) -1px 1px 1px, rgb(255, 255, 255) 1px 1px 1px, rgb(255, 255, 255) 1px -1px 1px, rgb(255, 255, 255) -1px -1px 1px; font-family: Arial; font-size: 10px; fill-opacity: 1;"><textPath class="node-label-text-path" alignment-baseline="middle" xlink:href="#75f273_0_node_3" startOffset="0%" text-anchor="start" style="fill: rgb(0, 0, 0);">Ml_5</textPath></text></g></g><g class="sankey-node" transform="translate(24.500, 194.138)" style="opacity: 1;"><rect class="node-rect" width="20" height="25.057732639459516" style="stroke-width: 1; stroke: rgb(0, 0, 0); stroke-opacity: 1; fill: rgb(148, 103, 189); fill-opacity: 1;"/><rect class="node-capture" x="-10" y="-7.5" width="40" height="40.057732639459516" style="fill-opacity: 0;"/><g class="node-entered" transform="translate(0 13.528866319729758)"><path class="node-label-guide" id="75f273_0_node_4" d="M24,0L690,0" transform="matrix(1 0 0 1 0 0)"/><text class="node-label" transform="scale(1 1)" style="user-select: none; cursor: default; fill: rgb(0, 0, 0); text-shadow: rgb(255, 255, 255) -1px 1px 1px, rgb(255, 255, 255) 1px 1px 1px, rgb(255, 255, 255) 1px -1px 1px, rgb(255, 255, 255) -1px -1px 1px; font-family: Arial; font-size: 10px; fill-opacity: 1;"><textPath class="node-label-text-path" alignment-baseline="middle" xlink:href="#75f273_0_node_4" startOffset="0%" text-anchor="start" style="fill: rgb(0, 0, 0);">Ml_8</textPath></text></g></g><g class="sankey-node" transform="translate(24.500, 234.196)" style="opacity: 1;"><rect class="node-rect" width="20" height="11.134198505677773" style="stroke-width: 1; stroke: rgb(0, 0, 0); stroke-opacity: 1; fill: rgb(174, 199, 232); fill-opacity: 1;"/><rect class="node-capture" x="-10" y="-7.5" width="40" height="26.134198505677773" style="fill-opacity: 0;"/><g class="node-entered" transform="translate(0 6.5670992528388865)"><path class="node-label-guide" id="75f273_0_node_5" d="M24,0L690,0" transform="matrix(1 0 0 1 0 0)"/><text class="node-label" transform="scale(1 1)" style="user-select: none; cursor: default; fill: rgb(0, 0, 0); text-shadow: rgb(255, 255, 255) -1px 1px 1px, rgb(255, 255, 255) 1px 1px 1px, rgb(255, 255, 255) 1px -1px 1px, rgb(255, 255, 255) -1px -1px 1px; font-family: Arial; font-size: 10px; fill-opacity: 1;"><textPath class="node-label-text-path" alignment-baseline="middle" xlink:href="#75f273_0_node_5" startOffset="0%" text-anchor="start" style="fill: rgb(0, 0, 0);">Ml_1</textPath></text></g></g><g class="sankey-node" transform="translate(231.500, 0.000)" style="opacity: 1;"><rect class="node-rect" width="20" height="28.90016047943238" style="stroke-width: 1; stroke: rgb(0, 0, 0); stroke-opacity: 1; fill: rgb(31, 119, 180); fill-opacity: 1;"/><rect class="node-capture" x="-10" y="-7.5" width="40" height="43.90016047943238" style="fill-opacity: 0;"/><g class="node-entered" transform="translate(0 15.45008023971619)"><path class="node-label-guide" id="75f273_0_node_6" d="M24,0L690,0" transform="matrix(1 0 0 1 0 0)"/><text class="node-label" transform="scale(1 1)" style="user-select: none; cursor: default; fill: rgb(0, 0, 0); text-shadow: rgb(255, 255, 255) -1px 1px 1px, rgb(255, 255, 255) 1px 1px 1px, rgb(255, 255, 255) 1px -1px 1px, rgb(255, 255, 255) -1px -1px 1px; font-family: Arial; font-size: 10px; fill-opacity: 1;"><textPath class="node-label-text-path" alignment-baseline="middle" xlink:href="#75f273_0_node_6" startOffset="0%" text-anchor="start" style="fill: rgb(0, 0, 0);">Pl_0</textPath></text></g></g><g class="sankey-node" transform="translate(231.500, 43.900)" style="opacity: 1;"><rect class="node-rect" width="20" height="29.487724585096316" style="stroke-width: 1; stroke: rgb(0, 0, 0); stroke-opacity: 1; fill: rgb(174, 199, 232); fill-opacity: 1;"/><rect class="node-capture" x="-10" y="-7.5" width="40" height="44.487724585096316" style="fill-opacity: 0;"/><g class="node-entered" transform="translate(0 15.743862292548158)"><path class="node-label-guide" id="75f273_0_node_7" d="M24,0L690,0" transform="matrix(1 0 0 1 0 0)"/><text class="node-label" transform="scale(1 1)" style="user-select: none; cursor: default; fill: rgb(0, 0, 0); text-shadow: rgb(255, 255, 255) -1px 1px 1px, rgb(255, 255, 255) 1px 1px 1px, rgb(255, 255, 255) 1px -1px 1px, rgb(255, 255, 255) -1px -1px 1px; font-family: Arial; font-size: 10px; fill-opacity: 1;"><textPath class="node-label-text-path" alignment-baseline="middle" xlink:href="#75f273_0_node_7" startOffset="0%" text-anchor="start" style="fill: rgb(0, 0, 0);">Pl_1</textPath></text></g></g><g class="sankey-node" transform="translate(231.500, 88.388)" style="opacity: 1;"><rect class="node-rect" width="20" height="47.67260609765941" style="stroke-width: 1; stroke: rgb(0, 0, 0); stroke-opacity: 1; fill: rgb(255, 127, 14); fill-opacity: 1;"/><rect class="node-capture" x="-10" y="-7.5" width="40" height="62.67260609765941" style="fill-opacity: 0;"/><g class="node-entered" transform="translate(0 24.836303048829706)"><path class="node-label-guide" id="75f273_0_node_8" d="M24,0L690,0" transform="matrix(1 0 0 1 0 0)"/><text class="node-label" transform="scale(1 1)" style="user-select: none; cursor: default; fill: rgb(0, 0, 0); text-shadow: rgb(255, 255, 255) -1px 1px 1px, rgb(255, 255, 255) 1px 1px 1px, rgb(255, 255, 255) 1px -1px 1px, rgb(255, 255, 255) -1px -1px 1px; font-family: Arial; font-size: 10px; fill-opacity: 1;"><textPath class="node-label-text-path" alignment-baseline="middle" xlink:href="#75f273_0_node_8" startOffset="0%" text-anchor="start" style="fill: rgb(0, 0, 0);">Pl_2</textPath></text></g></g><g class="sankey-node" transform="translate(231.500, 151.060)" style="opacity: 1;"><rect class="node-rect" width="20" height="53.13519654954348" style="stroke-width: 1; stroke: rgb(0, 0, 0); stroke-opacity: 1; fill: rgb(44, 160, 44); fill-opacity: 1;"/><rect class="node-capture" x="-10" y="-7.5" width="40" height="68.13519654954348" style="fill-opacity: 0;"/><g class="node-entered" transform="translate(0 27.56759827477174)"><path class="node-label-guide" id="75f273_0_node_9" d="M24,0L690,0" transform="matrix(1 0 0 1 0 0)"/><text class="node-label" transform="scale(1 1)" style="user-select: none; cursor: default; fill: rgb(0, 0, 0); text-shadow: rgb(255, 255, 255) -1px 1px 1px, rgb(255, 255, 255) 1px 1px 1px, rgb(255, 255, 255) 1px -1px 1px, rgb(255, 255, 255) -1px -1px 1px; font-family: Arial; font-size: 10px; fill-opacity: 1;"><textPath class="node-label-text-path" alignment-baseline="middle" xlink:href="#75f273_0_node_9" startOffset="0%" text-anchor="start" style="fill: rgb(0, 0, 0);">Pl_4</textPath></text></g></g><g class="sankey-node" transform="translate(231.500, 219.196)" style="opacity: 1;"><rect class="node-rect" width="20" height="23.935350920686915" style="stroke-width: 1; stroke: rgb(0, 0, 0); stroke-opacity: 1; fill: rgb(255, 152, 150); fill-opacity: 1;"/><rect class="node-capture" x="-10" y="-7.5" width="40" height="38.935350920686915" style="fill-opacity: 0;"/><g class="node-entered" transform="translate(0 12.967675460343457)"><path class="node-label-guide" id="75f273_0_node_10" d="M24,0L690,0" transform="matrix(1 0 0 1 0 0)"/><text class="node-label" transform="scale(1 1)" style="user-select: none; cursor: default; fill: rgb(0, 0, 0); text-shadow: rgb(255, 255, 255) -1px 1px 1px, rgb(255, 255, 255) 1px 1px 1px, rgb(255, 255, 255) 1px -1px 1px, rgb(255, 255, 255) -1px -1px 1px; font-family: Arial; font-size: 10px; fill-opacity: 1;"><textPath class="node-label-text-path" alignment-baseline="middle" xlink:href="#75f273_0_node_10" startOffset="0%" text-anchor="start" style="fill: rgb(0, 0, 0);">Pl_7</textPath></text></g></g><g class="sankey-node" transform="translate(231.500, 258.131)" style="opacity: 1;"><rect class="node-rect" width="20" height="14.074345572451023" style="stroke-width: 1; stroke: rgb(0, 0, 0); stroke-opacity: 1; fill: rgb(255, 187, 120); fill-opacity: 1;"/><rect class="node-capture" x="-10" y="-7.5" width="40" height="29.074345572451023" style="fill-opacity: 0;"/><g class="node-entered" transform="translate(0 8.037172786225511)"><path class="node-label-guide" id="75f273_0_node_11" d="M24,0L690,0" transform="matrix(1 0 0 1 0 0)"/><text class="node-label" transform="scale(1 1)" style="user-select: none; cursor: default; fill: rgb(0, 0, 0); text-shadow: rgb(255, 255, 255) -1px 1px 1px, rgb(255, 255, 255) 1px 1px 1px, rgb(255, 255, 255) 1px -1px 1px, rgb(255, 255, 255) -1px -1px 1px; font-family: Arial; font-size: 10px; fill-opacity: 1;"><textPath class="node-label-text-path" alignment-baseline="middle" xlink:href="#75f273_0_node_11" startOffset="0%" text-anchor="start" style="fill: rgb(0, 0, 0);">Pl_3</textPath></text></g></g><g class="sankey-node" transform="translate(231.500, 287.205)" style="opacity: 1;"><rect class="node-rect" width="20" height="15.589289003871158" style="stroke-width: 1; stroke: rgb(0, 0, 0); stroke-opacity: 1; fill: rgb(214, 39, 40); fill-opacity: 1;"/><rect class="node-capture" x="-10" y="-7.5" width="40" height="30.58928900387116" style="fill-opacity: 0;"/><g class="node-entered" transform="translate(0 8.79464450193558)"><path class="node-label-guide" id="75f273_0_node_12" d="M24,0L690,0" transform="matrix(1 0 0 1 0 0)"/><text class="node-label" transform="scale(1 1)" style="user-select: none; cursor: default; fill: rgb(0, 0, 0); text-shadow: rgb(255, 255, 255) -1px 1px 1px, rgb(255, 255, 255) 1px 1px 1px, rgb(255, 255, 255) 1px -1px 1px, rgb(255, 255, 255) -1px -1px 1px; font-family: Arial; font-size: 10px; fill-opacity: 1;"><textPath class="node-label-text-path" alignment-baseline="middle" xlink:href="#75f273_0_node_12" startOffset="0%" text-anchor="start" style="fill: rgb(0, 0, 0);">Pl_6</textPath></text></g></g><g class="sankey-node" transform="translate(438.500, 0.000)" style="opacity: 1;"><rect class="node-rect" width="20" height="31.85588769534278" style="stroke-width: 1; stroke: rgb(0, 0, 0); stroke-opacity: 1; fill: rgb(255, 127, 14); fill-opacity: 1;"/><rect class="node-capture" x="-10" y="-7.5" width="40" height="46.85588769534278" style="fill-opacity: 0;"/><g class="node-entered" transform="translate(0 16.92794384767139)"><path class="node-label-guide" id="75f273_0_node_13" d="M24,0L690,0" transform="matrix(1 0 0 1 0 0)"/><text class="node-label" transform="scale(1 1)" style="user-select: none; cursor: default; fill: rgb(0, 0, 0); text-shadow: rgb(255, 255, 255) -1px 1px 1px, rgb(255, 255, 255) 1px 1px 1px, rgb(255, 255, 255) 1px -1px 1px, rgb(255, 255, 255) -1px -1px 1px; font-family: Arial; font-size: 10px; fill-opacity: 1;"><textPath class="node-label-text-path" alignment-baseline="middle" xlink:href="#75f273_0_node_13" startOffset="0%" text-anchor="start" style="fill: rgb(0, 0, 0);">Sm_2</textPath></text></g></g><g class="sankey-node" transform="translate(438.500, 46.856)" style="opacity: 1;"><rect class="node-rect" width="20" height="26.454156832896928" style="stroke-width: 1; stroke: rgb(0, 0, 0); stroke-opacity: 1; fill: rgb(31, 119, 180); fill-opacity: 1;"/><rect class="node-capture" x="-10" y="-7.5" width="40" height="41.45415683289693" style="fill-opacity: 0;"/><g class="node-entered" transform="translate(0 14.227078416448464)"><path class="node-label-guide" id="75f273_0_node_14" d="M24,0L690,0" transform="matrix(1 0 0 1 0 0)"/><text class="node-label" transform="scale(1 1)" style="user-select: none; cursor: default; fill: rgb(0, 0, 0); text-shadow: rgb(255, 255, 255) -1px 1px 1px, rgb(255, 255, 255) 1px 1px 1px, rgb(255, 255, 255) 1px -1px 1px, rgb(255, 255, 255) -1px -1px 1px; font-family: Arial; font-size: 10px; fill-opacity: 1;"><textPath class="node-label-text-path" alignment-baseline="middle" xlink:href="#75f273_0_node_14" startOffset="0%" text-anchor="start" style="fill: rgb(0, 0, 0);">Sm_0</textPath></text></g></g><g class="sankey-node" transform="translate(438.500, 88.310)" style="opacity: 1;"><rect class="node-rect" width="20" height="43.02858044489123" style="stroke-width: 1; stroke: rgb(0, 0, 0); stroke-opacity: 1; fill: rgb(255, 187, 120); fill-opacity: 1;"/><rect class="node-capture" x="-10" y="-7.5" width="40" height="58.02858044489123" style="fill-opacity: 0;"/><g class="node-entered" transform="translate(0 22.514290222445617)"><path class="node-label-guide" id="75f273_0_node_15" d="M24,0L690,0" transform="matrix(1 0 0 1 0 0)"/><text class="node-label" transform="scale(1 1)" style="user-select: none; cursor: default; fill: rgb(0, 0, 0); text-shadow: rgb(255, 255, 255) -1px 1px 1px, rgb(255, 255, 255) 1px 1px 1px, rgb(255, 255, 255) 1px -1px 1px, rgb(255, 255, 255) -1px -1px 1px; font-family: Arial; font-size: 10px; fill-opacity: 1;"><textPath class="node-label-text-path" alignment-baseline="middle" xlink:href="#75f273_0_node_15" startOffset="0%" text-anchor="start" style="fill: rgb(0, 0, 0);">Sm_3</textPath></text></g></g><g class="sankey-node" transform="translate(438.500, 146.339)" style="opacity: 1;"><rect class="node-rect" width="20" height="31.771746486029315" style="stroke-width: 1; stroke: rgb(0, 0, 0); stroke-opacity: 1; fill: rgb(214, 39, 40); fill-opacity: 1;"/><rect class="node-capture" x="-10" y="-7.5" width="40" height="46.771746486029315" style="fill-opacity: 0;"/><g class="node-entered" transform="translate(0 16.885873243014657)"><path class="node-label-guide" id="75f273_0_node_16" d="M24,0L690,0" transform="matrix(1 0 0 1 0 0)"/><text class="node-label" transform="scale(1 1)" style="user-select: none; cursor: default; fill: rgb(0, 0, 0); text-shadow: rgb(255, 255, 255) -1px 1px 1px, rgb(255, 255, 255) 1px 1px 1px, rgb(255, 255, 255) 1px -1px 1px, rgb(255, 255, 255) -1px -1px 1px; font-family: Arial; font-size: 10px; fill-opacity: 1;"><textPath class="node-label-text-path" alignment-baseline="middle" xlink:href="#75f273_0_node_16" startOffset="0%" text-anchor="start" style="fill: rgb(0, 0, 0);">Sm_6</textPath></text></g></g><g class="sankey-node" transform="translate(438.500, 193.110)" style="opacity: 1;"><rect class="node-rect" width="20" height="23.935350920686915" style="stroke-width: 1; stroke: rgb(0, 0, 0); stroke-opacity: 1; fill: rgb(140, 86, 75); fill-opacity: 1;"/><rect class="node-capture" x="-10" y="-7.5" width="40" height="38.935350920686915" style="fill-opacity: 0;"/><g class="node-entered" transform="translate(0 12.967675460343457)"><path class="node-label-guide" id="75f273_0_node_17" d="M24,0L690,0" transform="matrix(1 0 0 1 0 0)"/><text class="node-label" transform="scale(1 1)" style="user-select: none; cursor: default; fill: rgb(0, 0, 0); text-shadow: rgb(255, 255, 255) -1px 1px 1px, rgb(255, 255, 255) 1px 1px 1px, rgb(255, 255, 255) 1px -1px 1px, rgb(255, 255, 255) -1px -1px 1px; font-family: Arial; font-size: 10px; fill-opacity: 1;"><textPath class="node-label-text-path" alignment-baseline="middle" xlink:href="#75f273_0_node_17" startOffset="0%" text-anchor="start" style="fill: rgb(0, 0, 0);">Sm_10</textPath></text></g></g><g class="sankey-node" transform="translate(438.500, 276.709)" style="opacity: 1;"><rect class="node-rect" width="20" height="10.536390718257167" style="stroke-width: 1; stroke: rgb(0, 0, 0); stroke-opacity: 1; fill: rgb(152, 223, 138); fill-opacity: 1;"/><rect class="node-capture" x="-10" y="-7.5" width="40" height="25.536390718257167" style="fill-opacity: 0;"/><g class="node-entered" transform="translate(0 6.268195359128583)"><path class="node-label-guide" id="75f273_0_node_18" d="M24,0L690,0" transform="matrix(1 0 0 1 0 0)"/><text class="node-label" transform="scale(1 1)" style="user-select: none; cursor: default; fill: rgb(0, 0, 0); text-shadow: rgb(255, 255, 255) -1px 1px 1px, rgb(255, 255, 255) 1px 1px 1px, rgb(255, 255, 255) 1px -1px 1px, rgb(255, 255, 255) -1px -1px 1px; font-family: Arial; font-size: 10px; fill-opacity: 1;"><textPath class="node-label-text-path" alignment-baseline="middle" xlink:href="#75f273_0_node_18" startOffset="0%" text-anchor="start" style="fill: rgb(0, 0, 0);">Sm_5</textPath></text></g></g><g class="sankey-node" transform="translate(438.500, 232.046)" style="opacity: 1;"><rect class="node-rect" width="20" height="29.663634576322238" style="stroke-width: 1; stroke: rgb(0, 0, 0); stroke-opacity: 1; fill: rgb(44, 160, 44); fill-opacity: 1;"/><rect class="node-capture" x="-10" y="-7.5" width="40" height="44.66363457632224" style="fill-opacity: 0;"/><g class="node-entered" transform="translate(0 15.831817288161119)"><path class="node-label-guide" id="75f273_0_node_19" d="M24,0L690,0" transform="matrix(1 0 0 1 0 0)"/><text class="node-label" transform="scale(1 1)" style="user-select: none; cursor: default; fill: rgb(0, 0, 0); text-shadow: rgb(255, 255, 255) -1px 1px 1px, rgb(255, 255, 255) 1px 1px 1px, rgb(255, 255, 255) 1px -1px 1px, rgb(255, 255, 255) -1px -1px 1px; font-family: Arial; font-size: 10px; fill-opacity: 1;"><textPath class="node-label-text-path" alignment-baseline="middle" xlink:href="#75f273_0_node_19" startOffset="0%" text-anchor="start" style="fill: rgb(0, 0, 0);">Sm_4</textPath></text></g></g><g class="sankey-node" transform="translate(438.500, 302.246)" style="opacity: 1;"><rect class="node-rect" width="20" height="16.124026571195373" style="stroke-width: 1; stroke: rgb(0, 0, 0); stroke-opacity: 1; fill: rgb(148, 103, 189); fill-opacity: 1;"/><rect class="node-capture" x="-10" y="-7.5" width="40" height="31.124026571195373" style="fill-opacity: 0;"/><g class="node-entered" transform="translate(0 9.062013285597686)"><path class="node-label-guide" id="75f273_0_node_20" d="M24,0L690,0" transform="matrix(1 0 0 1 0 0)"/><text class="node-label" transform="scale(1 1)" style="user-select: none; cursor: default; fill: rgb(0, 0, 0); text-shadow: rgb(255, 255, 255) -1px 1px 1px, rgb(255, 255, 255) 1px 1px 1px, rgb(255, 255, 255) 1px -1px 1px, rgb(255, 255, 255) -1px -1px 1px; font-family: Arial; font-size: 10px; fill-opacity: 1;"><textPath class="node-label-text-path" alignment-baseline="middle" xlink:href="#75f273_0_node_20" startOffset="0%" text-anchor="start" style="fill: rgb(0, 0, 0);">Sm_8</textPath></text></g></g><g class="sankey-node" transform="translate(645.500, 117.711)" style="opacity: 1;"><rect class="node-rect" width="20" height="21.01589854335637" style="stroke-width: 1; stroke: rgb(0, 0, 0); stroke-opacity: 1; fill: rgb(255, 127, 14); fill-opacity: 1;"/><rect class="node-capture" x="-10" y="-7.5" width="40" height="36.01589854335637" style="fill-opacity: 0;"/><g class="node-entered" transform="translate(0 11.507949271678186)"><path class="node-label-guide" id="75f273_0_node_21" d="M-690,0L-4,0" transform="matrix(1 0 0 1 0 0)"/><text class="node-label" transform="scale(1 1)" style="user-select: none; cursor: default; fill: rgb(0, 0, 0); text-shadow: rgb(255, 255, 255) -1px 1px 1px, rgb(255, 255, 255) 1px 1px 1px, rgb(255, 255, 255) 1px -1px 1px, rgb(255, 255, 255) -1px -1px 1px; font-family: Arial; font-size: 10px; fill-opacity: 1;"><textPath class="node-label-text-path" alignment-baseline="middle" xlink:href="#75f273_0_node_21" startOffset="100%" text-anchor="end" style="fill: rgb(0, 0, 0);">Ml2_2</textPath></text></g></g><g class="sankey-node" transform="translate(645.500, 0.000)" style="opacity: 1;"><rect class="node-rect" width="20" height="102.7114978560536" style="stroke-width: 1; stroke: rgb(0, 0, 0); stroke-opacity: 1; fill: rgb(255, 187, 120); fill-opacity: 1;"/><rect class="node-capture" x="-10" y="-7.5" width="40" height="117.7114978560536" style="fill-opacity: 0;"/><g class="node-entered" transform="translate(0 52.3557489280268)"><path class="node-label-guide" id="75f273_0_node_22" d="M-690,0L-4,0" transform="matrix(1 0 0 1 0 0)"/><text class="node-label" transform="scale(1 1)" style="user-select: none; cursor: default; fill: rgb(0, 0, 0); text-shadow: rgb(255, 255, 255) -1px 1px 1px, rgb(255, 255, 255) 1px 1px 1px, rgb(255, 255, 255) 1px -1px 1px, rgb(255, 255, 255) -1px -1px 1px; font-family: Arial; font-size: 10px; fill-opacity: 1;"><textPath class="node-label-text-path" alignment-baseline="middle" xlink:href="#75f273_0_node_22" startOffset="100%" text-anchor="end" style="fill: rgb(0, 0, 0);">Ml2_3</textPath></text></g></g><g class="sankey-node" transform="translate(645.500, 153.727)" style="opacity: 1;"><rect class="node-rect" width="20" height="14.57726972935859" style="stroke-width: 1; stroke: rgb(0, 0, 0); stroke-opacity: 1; fill: rgb(148, 103, 189); fill-opacity: 1;"/><rect class="node-capture" x="-10" y="-7.5" width="40" height="29.57726972935859" style="fill-opacity: 0;"/><g class="node-entered" transform="translate(0 8.288634864679295)"><path class="node-label-guide" id="75f273_0_node_23" d="M-690,0L-4,0" transform="matrix(1 0 0 1 0 0)"/><text class="node-label" transform="scale(1 1)" style="user-select: none; cursor: default; fill: rgb(0, 0, 0); text-shadow: rgb(255, 255, 255) -1px 1px 1px, rgb(255, 255, 255) 1px 1px 1px, rgb(255, 255, 255) 1px -1px 1px, rgb(255, 255, 255) -1px -1px 1px; font-family: Arial; font-size: 10px; fill-opacity: 1;"><textPath class="node-label-text-path" alignment-baseline="middle" xlink:href="#75f273_0_node_23" startOffset="100%" text-anchor="end" style="fill: rgb(0, 0, 0);">Ml2_8</textPath></text></g></g><g class="sankey-node" transform="translate(645.500, 228.823)" style="opacity: 1;"><rect class="node-rect" width="20" height="10.536390718257167" style="stroke-width: 1; stroke: rgb(0, 0, 0); stroke-opacity: 1; fill: rgb(214, 39, 40); fill-opacity: 1;"/><rect class="node-capture" x="-10" y="-7.5" width="40" height="25.536390718257167" style="fill-opacity: 0;"/><g class="node-entered" transform="translate(0 6.268195359128583)"><path class="node-label-guide" id="75f273_0_node_24" d="M-690,0L-4,0" transform="matrix(1 0 0 1 0 0)"/><text class="node-label" transform="scale(1 1)" style="user-select: none; cursor: default; fill: rgb(0, 0, 0); text-shadow: rgb(255, 255, 255) -1px 1px 1px, rgb(255, 255, 255) 1px 1px 1px, rgb(255, 255, 255) 1px -1px 1px, rgb(255, 255, 255) -1px -1px 1px; font-family: Arial; font-size: 10px; fill-opacity: 1;"><textPath class="node-label-text-path" alignment-baseline="middle" xlink:href="#75f273_0_node_24" startOffset="100%" text-anchor="end" style="fill: rgb(0, 0, 0);">Ml2_6</textPath></text></g></g><g class="sankey-node" transform="translate(645.500, 183.305)" style="opacity: 1;"><rect class="node-rect" width="20" height="30.517942446420648" style="stroke-width: 1; stroke: rgb(0, 0, 0); stroke-opacity: 1; fill: rgb(197, 176, 213); fill-opacity: 1;"/><rect class="node-capture" x="-10" y="-7.5" width="40" height="45.51794244642065" style="fill-opacity: 0;"/><g class="node-entered" transform="translate(0 16.258971223210324)"><path class="node-label-guide" id="75f273_0_node_25" d="M-690,0L-4,0" transform="matrix(1 0 0 1 0 0)"/><text class="node-label" transform="scale(1 1)" style="user-select: none; cursor: default; fill: rgb(0, 0, 0); text-shadow: rgb(255, 255, 255) -1px 1px 1px, rgb(255, 255, 255) 1px 1px 1px, rgb(255, 255, 255) 1px -1px 1px, rgb(255, 255, 255) -1px -1px 1px; font-family: Arial; font-size: 10px; fill-opacity: 1;"><textPath class="node-label-text-path" alignment-baseline="middle" xlink:href="#75f273_0_node_25" startOffset="100%" text-anchor="end" style="fill: rgb(0, 0, 0);">Ml2_9</textPath></text></g></g></g></g><defs id="topdefs-5202ba"><g class="clips"/></defs><g class="layer-above"><g class="imagelayer"/><g class="shapelayer"/></g><g class="infolayer"><g class="g-gtitle"/><g class="first-render"/></g></svg>