<?xml version="1.0" encoding="UTF-8" standalone="no"?>
<!DOCTYPE svg PUBLIC "-//W3C//DTD SVG 1.1//EN" "http://www.w3.org/Graphics/SVG/1.1/DTD/svg11.dtd">
<svg xmlns:xlink="http://www.w3.org/1999/xlink" width="777.6pt" height="432pt" viewBox="0 0 777.6 432" xmlns="http://www.w3.org/2000/svg" version="1.1">
 <metadata>
  <rdf:RDF xmlns:dc="http://purl.org/dc/elements/1.1/" xmlns:cc="http://creativecommons.org/ns#" xmlns:rdf="http://www.w3.org/1999/02/22-rdf-syntax-ns#">
   <cc:Work>
    <dc:type rdf:resource="http://purl.org/dc/dcmitype/StillImage"/>
    <dc:date>2024-08-05T21:26:49.104250</dc:date>
    <dc:format>image/svg+xml</dc:format>
    <dc:creator>
     <cc:Agent>
      <dc:title>Matplotlib v3.5.1, https://matplotlib.org/</dc:title>
     </cc:Agent>
    </dc:creator>
   </cc:Work>
  </rdf:RDF>
 </metadata>
 <defs>
  <style type="text/css">*{stroke-linejoin: round; stroke-linecap: butt}</style>
 </defs>
 <g id="figure_1">
  <g id="patch_1">
   <path d="M 0 432  L 777.6 432  L 777.6 0  L 0 0  z " style="fill: #ffffff"/>
  </g>
  <g id="axes_1">
   <g id="patch_2">
    <path d="M 44.28 324.55  L 764.64 324.55  L 764.64 27.6  L 44.28 27.6  L 44.28 324.55  z " style="fill: none"/>
   </g>
   <g id="matplotlib.axis_1">
    <g id="xtick_1"/>
    <g id="xtick_2"/>
    <g id="xtick_3"/>
    <g id="xtick_4"/>
    <g id="xtick_5"/>
    <g id="xtick_6"/>
    <g id="xtick_7"/>
    <g id="xtick_8"/>
    <g id="xtick_9"/>
   </g>
   <g id="matplotlib.axis_2">
    <g id="text_1">
     <!-- Density -->
     <g style="fill: #262626" transform="translate(37.784375 198.885312)rotate(-90)scale(0.12 -0.12)">
      <defs>
       <path id="DejaVuSans-44" d="M 1259 4147  L 1259 519  L 2022 519  Q 2988 519 3436 956  Q 3884 1394 3884 2338  Q 3884 3275 3436 3711  Q 2988 4147 2022 4147  L 1259 4147  z M 628 4666  L 1925 4666  Q 3281 4666 3915 4102  Q 4550 3538 4550 2338  Q 4550 1131 3912 565  Q 3275 0 1925 0  L 628 0  L 628 4666  z " transform="scale(0.015625)"/>
       <path id="DejaVuSans-65" d="M 3597 1894  L 3597 1613  L 953 1613  Q 991 1019 1311 708  Q 1631 397 2203 397  Q 2534 397 2845 478  Q 3156 559 3463 722  L 3463 178  Q 3153 47 2828 -22  Q 2503 -91 2169 -91  Q 1331 -91 842 396  Q 353 884 353 1716  Q 353 2575 817 3079  Q 1281 3584 2069 3584  Q 2775 3584 3186 3129  Q 3597 2675 3597 1894  z M 3022 2063  Q 3016 2534 2758 2815  Q 2500 3097 2075 3097  Q 1594 3097 1305 2825  Q 1016 2553 972 2059  L 3022 2063  z " transform="scale(0.015625)"/>
       <path id="DejaVuSans-6e" d="M 3513 2113  L 3513 0  L 2938 0  L 2938 2094  Q 2938 2591 2744 2837  Q 2550 3084 2163 3084  Q 1697 3084 1428 2787  Q 1159 2491 1159 1978  L 1159 0  L 581 0  L 581 3500  L 1159 3500  L 1159 2956  Q 1366 3272 1645 3428  Q 1925 3584 2291 3584  Q 2894 3584 3203 3211  Q 3513 2838 3513 2113  z " transform="scale(0.015625)"/>
       <path id="DejaVuSans-73" d="M 2834 3397  L 2834 2853  Q 2591 2978 2328 3040  Q 2066 3103 1784 3103  Q 1356 3103 1142 2972  Q 928 2841 928 2578  Q 928 2378 1081 2264  Q 1234 2150 1697 2047  L 1894 2003  Q 2506 1872 2764 1633  Q 3022 1394 3022 966  Q 3022 478 2636 193  Q 2250 -91 1575 -91  Q 1294 -91 989 -36  Q 684 19 347 128  L 347 722  Q 666 556 975 473  Q 1284 391 1588 391  Q 1994 391 2212 530  Q 2431 669 2431 922  Q 2431 1156 2273 1281  Q 2116 1406 1581 1522  L 1381 1569  Q 847 1681 609 1914  Q 372 2147 372 2553  Q 372 3047 722 3315  Q 1072 3584 1716 3584  Q 2034 3584 2315 3537  Q 2597 3491 2834 3397  z " transform="scale(0.015625)"/>
       <path id="DejaVuSans-69" d="M 603 3500  L 1178 3500  L 1178 0  L 603 0  L 603 3500  z M 603 4863  L 1178 4863  L 1178 4134  L 603 4134  L 603 4863  z " transform="scale(0.015625)"/>
       <path id="DejaVuSans-74" d="M 1172 4494  L 1172 3500  L 2356 3500  L 2356 3053  L 1172 3053  L 1172 1153  Q 1172 725 1289 603  Q 1406 481 1766 481  L 2356 481  L 2356 0  L 1766 0  Q 1100 0 847 248  Q 594 497 594 1153  L 594 3053  L 172 3053  L 172 3500  L 594 3500  L 594 4494  L 1172 4494  z " transform="scale(0.015625)"/>
       <path id="DejaVuSans-79" d="M 2059 -325  Q 1816 -950 1584 -1140  Q 1353 -1331 966 -1331  L 506 -1331  L 506 -850  L 844 -850  Q 1081 -850 1212 -737  Q 1344 -625 1503 -206  L 1606 56  L 191 3500  L 800 3500  L 1894 763  L 2988 3500  L 3597 3500  L 2059 -325  z " transform="scale(0.015625)"/>
      </defs>
      <use xlink:href="#DejaVuSans-44"/>
      <use xlink:href="#DejaVuSans-65" x="77.001953"/>
      <use xlink:href="#DejaVuSans-6e" x="138.525391"/>
      <use xlink:href="#DejaVuSans-73" x="201.904297"/>
      <use xlink:href="#DejaVuSans-69" x="254.003906"/>
      <use xlink:href="#DejaVuSans-74" x="281.787109"/>
      <use xlink:href="#DejaVuSans-79" x="320.996094"/>
     </g>
    </g>
   </g>
   <g id="PolyCollection_1">
    <defs>
     <path id="m1a399ed23c" d="M 89.758074 -107.451824  L 89.758074 -107.45  L 93.042648 -107.45  L 96.327222 -107.45  L 99.611796 -107.45  L 102.89637 -107.45  L 106.180944 -107.45  L 109.465518 -107.45  L 112.750092 -107.45  L 116.034666 -107.45  L 119.31924 -107.45  L 122.603814 -107.45  L 125.888388 -107.45  L 129.172962 -107.45  L 132.457536 -107.45  L 135.74211 -107.45  L 139.026685 -107.45  L 142.311259 -107.45  L 145.595833 -107.45  L 148.880407 -107.45  L 152.164981 -107.45  L 155.449555 -107.45  L 158.734129 -107.45  L 162.018703 -107.45  L 165.303277 -107.45  L 168.587851 -107.45  L 171.872425 -107.45  L 175.156999 -107.45  L 178.441573 -107.45  L 181.726147 -107.45  L 185.010721 -107.45  L 188.295295 -107.45  L 191.57987 -107.45  L 194.864444 -107.45  L 198.149018 -107.45  L 201.433592 -107.45  L 204.718166 -107.45  L 208.00274 -107.45  L 211.287314 -107.45  L 214.571888 -107.45  L 217.856462 -107.45  L 221.141036 -107.45  L 224.42561 -107.45  L 227.710184 -107.45  L 230.994758 -107.45  L 234.279332 -107.45  L 237.563906 -107.45  L 240.84848 -107.45  L 244.133055 -107.45  L 247.417629 -107.45  L 250.702203 -107.45  L 253.986777 -107.45  L 257.271351 -107.45  L 260.555925 -107.45  L 263.840499 -107.45  L 267.125073 -107.45  L 270.409647 -107.45  L 273.694221 -107.45  L 276.978795 -107.45  L 280.263369 -107.45  L 283.547943 -107.45  L 286.832517 -107.45  L 290.117091 -107.45  L 293.401665 -107.45  L 296.68624 -107.45  L 299.970814 -107.45  L 303.255388 -107.45  L 306.539962 -107.45  L 309.824536 -107.45  L 313.10911 -107.45  L 316.393684 -107.45  L 319.678258 -107.45  L 322.962832 -107.45  L 326.247406 -107.45  L 329.53198 -107.45  L 332.816554 -107.45  L 336.101128 -107.45  L 339.385702 -107.45  L 342.670276 -107.45  L 345.95485 -107.45  L 349.239425 -107.45  L 352.523999 -107.45  L 355.808573 -107.45  L 359.093147 -107.45  L 362.377721 -107.45  L 365.662295 -107.45  L 368.946869 -107.45  L 372.231443 -107.45  L 375.516017 -107.45  L 378.800591 -107.45  L 382.085165 -107.45  L 385.369739 -107.45  L 388.654313 -107.45  L 391.938887 -107.45  L 395.223461 -107.45  L 398.508035 -107.45  L 401.79261 -107.45  L 405.077184 -107.45  L 408.361758 -107.45  L 411.646332 -107.45  L 414.930906 -107.45  L 418.21548 -107.45  L 421.500054 -107.45  L 424.784628 -107.45  L 428.069202 -107.45  L 431.353776 -107.45  L 434.63835 -107.45  L 437.922924 -107.45  L 441.207498 -107.45  L 444.492072 -107.45  L 447.776646 -107.45  L 451.06122 -107.45  L 454.345794 -107.45  L 457.630369 -107.45  L 460.914943 -107.45  L 464.199517 -107.45  L 467.484091 -107.45  L 470.768665 -107.45  L 474.053239 -107.45  L 477.337813 -107.45  L 480.622387 -107.45  L 483.906961 -107.45  L 487.191535 -107.45  L 490.476109 -107.45  L 493.760683 -107.45  L 497.045257 -107.45  L 500.329831 -107.45  L 503.614405 -107.45  L 506.898979 -107.45  L 510.183554 -107.45  L 513.468128 -107.45  L 516.752702 -107.45  L 520.037276 -107.45  L 523.32185 -107.45  L 526.606424 -107.45  L 529.890998 -107.45  L 533.175572 -107.45  L 536.460146 -107.45  L 539.74472 -107.45  L 543.029294 -107.45  L 546.313868 -107.45  L 549.598442 -107.45  L 552.883016 -107.45  L 556.16759 -107.45  L 559.452164 -107.45  L 562.736739 -107.45  L 566.021313 -107.45  L 569.305887 -107.45  L 572.590461 -107.45  L 575.875035 -107.45  L 579.159609 -107.45  L 582.444183 -107.45  L 585.728757 -107.45  L 589.013331 -107.45  L 592.297905 -107.45  L 595.582479 -107.45  L 598.867053 -107.45  L 602.151627 -107.45  L 605.436201 -107.45  L 608.720775 -107.45  L 612.005349 -107.45  L 615.289924 -107.45  L 618.574498 -107.45  L 621.859072 -107.45  L 625.143646 -107.45  L 628.42822 -107.45  L 631.712794 -107.45  L 634.997368 -107.45  L 638.281942 -107.45  L 641.566516 -107.45  L 644.85109 -107.45  L 648.135664 -107.45  L 651.420238 -107.45  L 654.704812 -107.45  L 657.989386 -107.45  L 661.27396 -107.45  L 664.558534 -107.45  L 667.843109 -107.45  L 671.127683 -107.45  L 674.412257 -107.45  L 677.696831 -107.45  L 680.981405 -107.45  L 684.265979 -107.45  L 687.550553 -107.45  L 690.835127 -107.45  L 694.119701 -107.45  L 697.404275 -107.45  L 700.688849 -107.45  L 703.973423 -107.45  L 707.257997 -107.45  L 710.542571 -107.45  L 713.827145 -107.45  L 717.111719 -107.45  L 720.396294 -107.45  L 723.680868 -107.45  L 726.965442 -107.45  L 730.250016 -107.45  L 733.53459 -107.45  L 736.819164 -107.45  L 740.103738 -107.45  L 743.388312 -107.45  L 743.388312 -107.459974  L 743.388312 -107.459974  L 740.103738 -107.468157  L 736.819164 -107.481996  L 733.53459 -107.504599  L 730.250016 -107.540263  L 726.965442 -107.59465  L 723.680868 -107.674847  L 720.396294 -107.789273  L 717.111719 -107.947396  L 713.827145 -108.159262  L 710.542571 -108.43492  L 707.257997 -108.783838  L 703.973423 -109.214447  L 700.688849 -109.733947  L 697.404275 -110.348412  L 694.119701 -111.063155  L 690.835127 -111.8832  L 687.550553 -112.813624  L 684.265979 -113.859539  L 680.981405 -115.02557  L 677.696831 -116.314806  L 674.412257 -117.727404  L 671.127683 -119.25916  L 667.843109 -120.900404  L 664.558534 -122.635544  L 661.27396 -124.443434  L 657.989386 -126.298557  L 654.704812 -128.17284  L 651.420238 -130.037806  L 648.135664 -131.866743  L 644.85109 -133.636623  L 641.566516 -135.329599  L 638.281942 -136.933993  L 634.997368 -138.444749  L 631.712794 -139.86333  L 628.42822 -141.19705  L 625.143646 -142.457837  L 621.859072 -143.660464  L 618.574498 -144.820396  L 615.289924 -145.951488  L 612.005349 -147.06388  L 608.720775 -148.162411  L 605.436201 -149.245834  L 602.151627 -150.306949  L 598.867053 -151.333587  L 595.582479 -152.310248  L 592.297905 -153.220113  L 589.013331 -154.047138  L 585.728757 -154.778022  L 582.444183 -155.403872  L 579.159609 -155.921448  L 575.875035 -156.333854  L 572.590461 -156.650551  L 569.305887 -156.886561  L 566.021313 -157.060858  L 562.736739 -157.194064  L 559.452164 -157.305773  L 556.16759 -157.411976  L 552.883016 -157.523104  L 549.598442 -157.643119  L 546.313868 -157.769923  L 543.029294 -157.897054  L 539.74472 -158.01642  L 536.460146 -158.121592  L 533.175572 -158.211076  L 529.890998 -158.290972  L 526.606424 -158.376493  L 523.32185 -158.491961  L 520.037276 -158.66915  L 516.752702 -158.944071  L 513.468128 -159.352593  L 510.183554 -159.925557  L 506.898979 -160.684163  L 503.614405 -161.636486  L 500.329831 -162.775796  L 497.045257 -164.08109  L 493.760683 -165.519832  L 490.476109 -167.052472  L 487.191535 -168.637971  L 483.906961 -170.239354  L 480.622387 -171.828333  L 477.337813 -173.388283  L 474.053239 -174.915195  L 470.768665 -176.416704  L 467.484091 -177.909647  L 464.199517 -179.416841  L 460.914943 -180.963826  L 457.630369 -182.576146  L 454.345794 -184.277494  L 451.06122 -186.088744  L 447.776646 -188.027661  L 444.492072 -190.108993  L 441.207498 -192.344697  L 437.922924 -194.744148  L 434.63835 -197.314356  L 431.353776 -200.060257  L 428.069202 -202.98519  L 424.784628 -206.091617  L 421.500054 -209.382093  L 418.21548 -212.860492  L 414.930906 -216.533452  L 411.646332 -220.411997  L 408.361758 -224.513154  L 405.077184 -228.861244  L 401.79261 -233.488306  L 398.508035 -238.43307  L 395.223461 -243.737987  L 391.938887 -249.444243  L 388.654313 -255.585186  L 385.369739 -262.179171  L 382.085165 -269.223154  L 378.800591 -276.688352  L 375.516017 -284.518874  L 372.231443 -292.633539  L 368.946869 -300.930341  L 365.662295 -309.292487  L 362.377721 -317.594698  L 359.093147 -325.708659  L 355.808573 -333.506984  L 352.523999 -340.865604  L 349.239425 -347.664959  L 345.95485 -353.790565  L 342.670276 -359.133503  L 339.385702 -363.591144  L 336.101128 -367.068181  L 332.816554 -369.477865  L 329.53198 -370.743338  L 326.247406 -370.798979  L 322.962832 -369.591866  L 319.678258 -367.083424  L 316.393684 -363.251407  L 313.10911 -358.092164  L 309.824536 -351.623114  L 306.539962 -343.885163  L 303.255388 -334.944774  L 299.970814 -324.895348  L 296.68624 -313.857548  L 293.401665 -301.978214  L 290.117091 -289.427589  L 286.832517 -276.394685  L 283.547943 -263.08087  L 280.263369 -249.692038  L 276.978795 -236.430041  L 273.694221 -223.48422  L 270.409647 -211.023956  L 267.125073 -199.192955  L 263.840499 -188.105663  L 260.555925 -177.845845  L 257.271351 -168.467009  L 253.986777 -159.994211  L 250.702203 -152.426747  L 247.417629 -145.741399  L 244.133055 -139.896033  L 240.84848 -134.83352  L 237.563906 -130.485918  L 234.279332 -126.778832  L 230.994758 -123.635705  L 227.710184 -120.981718  L 224.42561 -118.746957  L 221.141036 -116.868564  L 217.856462 -115.291783  L 214.571888 -113.96997  L 211.287314 -112.863848  L 208.00274 -111.94032  L 204.718166 -111.171215  L 201.433592 -110.53223  L 198.149018 -110.002191  L 194.864444 -109.562661  L 191.57987 -109.197791  L 188.295295 -108.894269  L 185.010721 -108.641265  L 181.726147 -108.430252  L 178.441573 -108.254712  L 175.156999 -108.109728  L 171.872425 -107.991525  L 168.587851 -107.897018  L 165.303277 -107.823415  L 162.018703 -107.767928  L 158.734129 -107.727605  L 155.449555 -107.699287  L 152.164981 -107.679699  L 148.880407 -107.665633  L 145.595833 -107.654185  L 142.311259 -107.642986  L 139.026685 -107.630384  L 135.74211 -107.615525  L 132.457536 -107.598313  L 129.172962 -107.579269  L 125.888388 -107.559316  L 122.603814 -107.539532  L 119.31924 -107.520937  L 116.034666 -107.504327  L 112.750092 -107.490197  L 109.465518 -107.478724  L 106.180944 -107.469819  L 102.89637 -107.463201  L 99.611796 -107.458488  L 96.327222 -107.455268  L 93.042648 -107.453155  L 89.758074 -107.451824  z " style="stroke: #66c2a5"/>
    </defs>
    <g clip-path="url(#p5670e3f724)">
     <use xlink:href="#m1a399ed23c" x="0" y="432" style="fill: #66c2a5; stroke: #66c2a5"/>
    </g>
   </g>
   <g id="line2d_1">
    <path d="M 89.758074 324.548176  L 125.888388 324.440684  L 168.587851 324.102982  L 178.441573 323.745288  L 185.010721 323.358735  L 191.57987 322.802209  L 198.149018 321.997809  L 204.718166 320.828785  L 208.00274 320.05968  L 211.287314 319.136152  L 214.571888 318.03003  L 217.856462 316.708217  L 221.141036 315.131436  L 224.42561 313.253043  L 227.710184 311.018282  L 230.994758 308.364295  L 234.279332 305.221168  L 237.563906 301.514082  L 240.84848 297.16648  L 244.133055 292.103967  L 247.417629 286.258601  L 250.702203 279.573253  L 253.986777 272.005789  L 257.271351 263.532991  L 260.555925 254.154155  L 263.840499 243.894337  L 267.125073 232.807045  L 270.409647 220.976044  L 273.694221 208.51578  L 280.263369 182.307962  L 290.117091 142.572411  L 293.401665 130.021786  L 296.68624 118.142452  L 299.970814 107.104652  L 303.255388 97.055226  L 306.539962 88.114837  L 309.824536 80.376886  L 313.10911 73.907836  L 316.393684 68.748593  L 319.678258 64.916576  L 322.962832 62.408134  L 326.247406 61.201021  L 329.53198 61.256662  L 332.816554 62.522135  L 336.101128 64.931819  L 339.385702 68.408856  L 342.670276 72.866497  L 345.95485 78.209435  L 349.239425 84.335041  L 352.523999 91.134396  L 355.808573 98.493016  L 359.093147 106.291341  L 365.662295 122.707513  L 372.231443 139.366461  L 378.800591 155.311648  L 382.085165 162.776846  L 385.369739 169.820829  L 388.654313 176.414814  L 391.938887 182.555757  L 395.223461 188.262013  L 398.508035 193.56693  L 401.79261 198.511694  L 405.077184 203.138756  L 408.361758 207.486846  L 411.646332 211.588003  L 414.930906 215.466548  L 418.21548 219.139508  L 421.500054 222.617907  L 424.784628 225.908383  L 428.069202 229.01481  L 431.353776 231.939743  L 434.63835 234.685644  L 437.922924 237.255852  L 441.207498 239.655303  L 444.492072 241.891007  L 447.776646 243.972339  L 454.345794 247.722506  L 460.914943 251.036174  L 470.768665 255.583296  L 480.622387 260.171667  L 493.760683 266.480168  L 497.045257 267.91891  L 500.329831 269.224204  L 503.614405 270.363514  L 506.898979 271.315837  L 510.183554 272.074443  L 513.468128 272.647407  L 516.752702 273.055929  L 523.32185 273.508039  L 572.590461 275.349449  L 579.159609 276.078552  L 585.728757 277.221978  L 592.297905 278.779887  L 598.867053 280.666413  L 608.720775 283.837589  L 621.859072 288.339536  L 628.42822 290.80295  L 634.997368 293.555251  L 641.566516 296.670401  L 648.135664 300.133257  L 667.843109 311.099596  L 674.412257 314.272596  L 677.696831 315.685194  L 680.981405 316.97443  L 684.265979 318.140461  L 690.835127 320.1168  L 697.404275 321.651588  L 703.973423 322.785553  L 710.542571 323.56508  L 717.111719 324.052604  L 723.680868 324.325153  L 733.53459 324.495401  L 743.388312 324.540026  L 743.388312 324.540026  " clip-path="url(#p5670e3f724)" style="fill: none; stroke: #000000; stroke-width: 1.5; stroke-linecap: round"/>
   </g>
   <g id="patch_3">
    <path d="M 44.28 324.55  L 764.64 324.55  " style="fill: none; stroke: #262626; stroke-width: 2; stroke-linejoin: miter; stroke-linecap: square"/>
   </g>
   <g id="text_2">
    <!-- intestine -->
    <g transform="translate(44.28 313.289687)scale(0.13 -0.13)">
     <use xlink:href="#DejaVuSans-69"/>
     <use xlink:href="#DejaVuSans-6e" x="27.783203"/>
     <use xlink:href="#DejaVuSans-74" x="91.162109"/>
     <use xlink:href="#DejaVuSans-65" x="130.371094"/>
     <use xlink:href="#DejaVuSans-73" x="191.894531"/>
     <use xlink:href="#DejaVuSans-74" x="243.994141"/>
     <use xlink:href="#DejaVuSans-69" x="283.203125"/>
     <use xlink:href="#DejaVuSans-6e" x="310.986328"/>
     <use xlink:href="#DejaVuSans-65" x="374.365234"/>
    </g>
   </g>
  </g>
  <g id="axes_2">
   <g id="patch_4">
    <path d="M 44.28 339.3975  L 764.64 339.3975  L 764.64 42.4475  L 44.28 42.4475  L 44.28 339.3975  z " style="fill: none"/>
   </g>
   <g id="matplotlib.axis_3">
    <g id="xtick_10"/>
    <g id="xtick_11"/>
    <g id="xtick_12"/>
    <g id="xtick_13"/>
    <g id="xtick_14"/>
    <g id="xtick_15"/>
    <g id="xtick_16"/>
    <g id="xtick_17"/>
    <g id="xtick_18"/>
   </g>
   <g id="matplotlib.axis_4">
    <g id="text_3">
     <!-- Density -->
     <g style="fill: #262626" transform="translate(37.784375 213.732812)rotate(-90)scale(0.12 -0.12)">
      <use xlink:href="#DejaVuSans-44"/>
      <use xlink:href="#DejaVuSans-65" x="77.001953"/>
      <use xlink:href="#DejaVuSans-6e" x="138.525391"/>
      <use xlink:href="#DejaVuSans-73" x="201.904297"/>
      <use xlink:href="#DejaVuSans-69" x="254.003906"/>
      <use xlink:href="#DejaVuSans-74" x="281.787109"/>
      <use xlink:href="#DejaVuSans-79" x="320.996094"/>
     </g>
    </g>
   </g>
   <g id="PolyCollection_2">
    <defs>
     <path id="m30456d39e1" d="M 145.618733 -92.607843  L 145.618733 -92.6025  L 148.542987 -92.6025  L 151.467241 -92.6025  L 154.391496 -92.6025  L 157.31575 -92.6025  L 160.240004 -92.6025  L 163.164258 -92.6025  L 166.088512 -92.6025  L 169.012766 -92.6025  L 171.93702 -92.6025  L 174.861274 -92.6025  L 177.785528 -92.6025  L 180.709782 -92.6025  L 183.634037 -92.6025  L 186.558291 -92.6025  L 189.482545 -92.6025  L 192.406799 -92.6025  L 195.331053 -92.6025  L 198.255307 -92.6025  L 201.179561 -92.6025  L 204.103815 -92.6025  L 207.028069 -92.6025  L 209.952324 -92.6025  L 212.876578 -92.6025  L 215.800832 -92.6025  L 218.725086 -92.6025  L 221.64934 -92.6025  L 224.573594 -92.6025  L 227.497848 -92.6025  L 230.422102 -92.6025  L 233.346356 -92.6025  L 236.27061 -92.6025  L 239.194865 -92.6025  L 242.119119 -92.6025  L 245.043373 -92.6025  L 247.967627 -92.6025  L 250.891881 -92.6025  L 253.816135 -92.6025  L 256.740389 -92.6025  L 259.664643 -92.6025  L 262.588897 -92.6025  L 265.513152 -92.6025  L 268.437406 -92.6025  L 271.36166 -92.6025  L 274.285914 -92.6025  L 277.210168 -92.6025  L 280.134422 -92.6025  L 283.058676 -92.6025  L 285.98293 -92.6025  L 288.907184 -92.6025  L 291.831438 -92.6025  L 294.755693 -92.6025  L 297.679947 -92.6025  L 300.604201 -92.6025  L 303.528455 -92.6025  L 306.452709 -92.6025  L 309.376963 -92.6025  L 312.301217 -92.6025  L 315.225471 -92.6025  L 318.149725 -92.6025  L 321.07398 -92.6025  L 323.998234 -92.6025  L 326.922488 -92.6025  L 329.846742 -92.6025  L 332.770996 -92.6025  L 335.69525 -92.6025  L 338.619504 -92.6025  L 341.543758 -92.6025  L 344.468012 -92.6025  L 347.392266 -92.6025  L 350.316521 -92.6025  L 353.240775 -92.6025  L 356.165029 -92.6025  L 359.089283 -92.6025  L 362.013537 -92.6025  L 364.937791 -92.6025  L 367.862045 -92.6025  L 370.786299 -92.6025  L 373.710553 -92.6025  L 376.634808 -92.6025  L 379.559062 -92.6025  L 382.483316 -92.6025  L 385.40757 -92.6025  L 388.331824 -92.6025  L 391.256078 -92.6025  L 394.180332 -92.6025  L 397.104586 -92.6025  L 400.02884 -92.6025  L 402.953094 -92.6025  L 405.877349 -92.6025  L 408.801603 -92.6025  L 411.725857 -92.6025  L 414.650111 -92.6025  L 417.574365 -92.6025  L 420.498619 -92.6025  L 423.422873 -92.6025  L 426.347127 -92.6025  L 429.271381 -92.6025  L 432.195636 -92.6025  L 435.11989 -92.6025  L 438.044144 -92.6025  L 440.968398 -92.6025  L 443.892652 -92.6025  L 446.816906 -92.6025  L 449.74116 -92.6025  L 452.665414 -92.6025  L 455.589668 -92.6025  L 458.513922 -92.6025  L 461.438177 -92.6025  L 464.362431 -92.6025  L 467.286685 -92.6025  L 470.210939 -92.6025  L 473.135193 -92.6025  L 476.059447 -92.6025  L 478.983701 -92.6025  L 481.907955 -92.6025  L 484.832209 -92.6025  L 487.756463 -92.6025  L 490.680718 -92.6025  L 493.604972 -92.6025  L 496.529226 -92.6025  L 499.45348 -92.6025  L 502.377734 -92.6025  L 505.301988 -92.6025  L 508.226242 -92.6025  L 511.150496 -92.6025  L 514.07475 -92.6025  L 516.999005 -92.6025  L 519.923259 -92.6025  L 522.847513 -92.6025  L 525.771767 -92.6025  L 528.696021 -92.6025  L 531.620275 -92.6025  L 534.544529 -92.6025  L 537.468783 -92.6025  L 540.393037 -92.6025  L 543.317291 -92.6025  L 546.241546 -92.6025  L 549.1658 -92.6025  L 552.090054 -92.6025  L 555.014308 -92.6025  L 557.938562 -92.6025  L 560.862816 -92.6025  L 563.78707 -92.6025  L 566.711324 -92.6025  L 569.635578 -92.6025  L 572.559833 -92.6025  L 575.484087 -92.6025  L 578.408341 -92.6025  L 581.332595 -92.6025  L 584.256849 -92.6025  L 587.181103 -92.6025  L 590.105357 -92.6025  L 593.029611 -92.6025  L 595.953865 -92.6025  L 598.878119 -92.6025  L 601.802374 -92.6025  L 604.726628 -92.6025  L 607.650882 -92.6025  L 610.575136 -92.6025  L 613.49939 -92.6025  L 616.423644 -92.6025  L 619.347898 -92.6025  L 622.272152 -92.6025  L 625.196406 -92.6025  L 628.120661 -92.6025  L 631.044915 -92.6025  L 633.969169 -92.6025  L 636.893423 -92.6025  L 639.817677 -92.6025  L 642.741931 -92.6025  L 645.666185 -92.6025  L 648.590439 -92.6025  L 651.514693 -92.6025  L 654.438947 -92.6025  L 657.363202 -92.6025  L 660.287456 -92.6025  L 663.21171 -92.6025  L 666.135964 -92.6025  L 669.060218 -92.6025  L 671.984472 -92.6025  L 674.908726 -92.6025  L 677.83298 -92.6025  L 680.757234 -92.6025  L 683.681489 -92.6025  L 686.605743 -92.6025  L 689.529997 -92.6025  L 692.454251 -92.6025  L 695.378505 -92.6025  L 698.302759 -92.6025  L 701.227013 -92.6025  L 704.151267 -92.6025  L 707.075521 -92.6025  L 709.999775 -92.6025  L 712.92403 -92.6025  L 715.848284 -92.6025  L 718.772538 -92.6025  L 721.696792 -92.6025  L 724.621046 -92.6025  L 727.5453 -92.6025  L 727.5453 -92.606771  L 727.5453 -92.606771  L 724.621046 -92.610138  L 721.696792 -92.615648  L 718.772538 -92.624291  L 715.848284 -92.637288  L 712.92403 -92.656023  L 709.999775 -92.681926  L 707.075521 -92.716293  L 704.151267 -92.760107  L 701.227013 -92.813882  L 698.302759 -92.877636  L 695.378505 -92.951005  L 692.454251 -93.033558  L 689.529997 -93.12525  L 686.605743 -93.226938  L 683.681489 -93.340839  L 680.757234 -93.470809  L 677.83298 -93.622378  L 674.908726 -93.802572  L 671.984472 -94.019592  L 669.060218 -94.282526  L 666.135964 -94.601189  L 663.21171 -94.98616  L 660.287456 -95.448917  L 657.363202 -96.001894  L 654.438947 -96.658176  L 651.514693 -97.430636  L 648.590439 -98.330399  L 645.666185 -99.364778  L 642.741931 -100.534987  L 639.817677 -101.834118  L 636.893423 -103.245884  L 633.969169 -104.744515  L 631.044915 -106.295989  L 628.120661 -107.860547  L 625.196406 -109.396182  L 622.272152 -110.862663  L 619.347898 -112.225596  L 616.423644 -113.459993  L 613.49939 -114.552962  L 610.575136 -115.505154  L 607.650882 -116.3308  L 604.726628 -117.056269  L 601.802374 -117.717252  L 598.878119 -118.354807  L 595.953865 -119.010645  L 593.029611 -119.722123  L 590.105357 -120.517506  L 587.181103 -121.412087  L 584.256849 -122.405749  L 581.332595 -123.482431  L 578.408341 -124.611781  L 575.484087 -125.752926  L 572.559833 -126.859941  L 569.635578 -127.888231  L 566.711324 -128.800837  L 563.78707 -129.573628  L 560.862816 -130.198545  L 557.938562 -130.684384  L 555.014308 -131.055007  L 552.090054 -131.345294  L 549.1658 -131.595506  L 546.241546 -131.845014  L 543.317291 -132.126562  L 540.393037 -132.462204  L 537.468783 -132.861839  L 534.544529 -133.32469  L 531.620275 -133.84333  L 528.696021 -134.409087  L 525.771767 -135.01718  L 522.847513 -135.669957  L 519.923259 -136.377242  L 516.999005 -137.153782  L 514.07475 -138.014847  L 511.150496 -138.971701  L 508.226242 -140.028621  L 505.301988 -141.182478  L 502.377734 -142.424787  L 499.45348 -143.745148  L 496.529226 -145.134451  L 493.604972 -146.586494  L 490.680718 -148.097434  L 487.756463 -149.663616  L 484.832209 -151.279098  L 481.907955 -152.934431  L 478.983701 -154.617724  L 476.059447 -156.31807  L 473.135193 -158.030334  L 470.210939 -159.759664  L 467.286685 -161.524036  L 464.362431 -163.353735  L 461.438177 -165.287616  L 458.513922 -167.366959  L 455.589668 -169.628328  L 452.665414 -172.097037  L 449.74116 -174.7826  L 446.816906 -177.677011  L 443.892652 -180.7562  L 440.968398 -183.984462  L 438.044144 -187.321256  L 435.11989 -190.729361  L 432.195636 -194.183088  L 429.271381 -197.674998  L 426.347127 -201.219625  L 423.422873 -204.853058  L 420.498619 -208.627984  L 417.574365 -212.604791  L 414.650111 -216.84037  L 411.725857 -221.376937  L 408.801603 -226.2334  L 405.877349 -231.401237  L 402.953094 -236.845849  L 400.02884 -242.513009  L 397.104586 -248.338926  L 394.180332 -254.261739  L 391.256078 -260.232154  L 388.331824 -266.221357  L 385.40757 -272.224947  L 382.483316 -278.262366  L 379.559062 -284.371809  L 376.634808 -290.601138  L 373.710553 -296.995821  L 370.786299 -303.585557  L 367.862045 -310.371855  L 364.937791 -317.319209  L 362.013537 -324.352223  L 359.089283 -331.360043  L 356.165029 -338.207707  L 353.240775 -344.752141  L 350.316521 -350.85906  L 347.392266 -356.416598  L 344.468012 -361.342391  L 341.543758 -365.582701  L 338.619504 -369.104535  L 335.69525 -371.883588  L 332.770996 -373.891757  L 329.846742 -375.087622  L 326.922488 -375.412024  L 323.998234 -374.789178  L 321.07398 -373.132381  L 318.149725 -370.352585  L 315.225471 -366.36806  L 312.301217 -361.113813  L 309.376963 -354.549952  L 306.452709 -346.668612  L 303.528455 -337.499187  L 300.604201 -327.111592  L 297.679947 -315.617223  L 294.755693 -303.167348  L 291.831438 -289.94886  L 288.907184 -276.177598  L 285.98293 -262.089598  L 283.058676 -247.930748  L 280.134422 -233.945299  L 277.210168 -220.363729  L 274.285914 -207.390651  L 271.36166 -195.193786  L 268.437406 -183.89531  L 265.513152 -173.567023  L 262.588897 -164.230376  L 259.664643 -155.861647  L 256.740389 -148.401517  L 253.816135 -141.767331  L 250.891881 -135.86588  L 247.967627 -130.604591  L 245.043373 -125.899695  L 242.119119 -121.680812  L 239.194865 -117.89227  L 236.27061 -114.49198  L 233.346356 -111.448879  L 230.422102 -108.739782  L 227.497848 -106.346231  L 224.573594 -104.251666  L 221.64934 -102.439108  L 218.725086 -100.889456  L 215.800832 -99.580518  L 212.876578 -98.486821  L 209.952324 -97.580195  L 207.028069 -96.831014  L 204.103815 -96.209848  L 201.179561 -95.689247  L 198.255307 -95.245329  L 195.331053 -94.858909  L 192.406799 -94.516004  L 189.482545 -94.207661  L 186.558291 -93.929209  L 183.634037 -93.679095  L 180.709782 -93.45757  L 177.785528 -93.265452  L 174.861274 -93.103157  L 171.93702 -92.970107  L 169.012766 -92.864533  L 166.088512 -92.783597  L 163.164258 -92.723724  L 160.240004 -92.681023  L 157.31575 -92.651682  L 154.391496 -92.632266  L 151.467241 -92.619898  L 148.542987 -92.612316  L 145.618733 -92.607843  z " style="stroke: #fc8d62"/>
    </defs>
    <g clip-path="url(#pcff4bcd79d)">
     <use xlink:href="#m30456d39e1" x="0" y="432" style="fill: #fc8d62; stroke: #fc8d62"/>
    </g>
   </g>
   <g id="line2d_2">
    <path d="M 145.618733 339.392157  L 163.164258 339.276276  L 171.93702 339.029893  L 180.709782 338.54243  L 189.482545 337.792339  L 195.331053 337.141091  L 201.179561 336.310753  L 207.028069 335.168986  L 209.952324 334.419805  L 212.876578 333.513179  L 215.800832 332.419482  L 218.725086 331.110544  L 221.64934 329.560892  L 224.573594 327.748334  L 227.497848 325.653769  L 230.422102 323.260218  L 233.346356 320.551121  L 236.27061 317.50802  L 239.194865 314.10773  L 242.119119 310.319188  L 245.043373 306.100305  L 247.967627 301.395409  L 250.891881 296.13412  L 253.816135 290.232669  L 256.740389 283.598483  L 259.664643 276.138353  L 262.588897 267.769624  L 265.513152 258.432977  L 268.437406 248.10469  L 271.36166 236.806214  L 274.285914 224.609349  L 277.210168 211.636271  L 283.058676 184.069252  L 291.831438 142.05114  L 294.755693 128.832652  L 297.679947 116.382777  L 300.604201 104.888408  L 303.528455 94.500813  L 306.452709 85.331388  L 309.376963 77.450048  L 312.301217 70.886187  L 315.225471 65.63194  L 318.149725 61.647415  L 321.07398 58.867619  L 323.998234 57.210822  L 326.922488 56.587976  L 329.846742 56.912378  L 332.770996 58.108243  L 335.69525 60.116412  L 338.619504 62.895465  L 341.543758 66.417299  L 344.468012 70.657609  L 347.392266 75.583402  L 350.316521 81.14094  L 353.240775 87.247859  L 356.165029 93.792293  L 362.013537 107.647777  L 367.862045 121.628145  L 373.710553 135.004179  L 379.559062 147.628191  L 388.331824 165.778643  L 400.02884 189.486991  L 405.877349 200.598763  L 408.801603 205.7666  L 411.725857 210.623063  L 414.650111 215.15963  L 417.574365 219.395209  L 420.498619 223.372016  L 426.347127 230.780375  L 435.11989 241.270639  L 440.968398 248.015538  L 446.816906 254.322989  L 449.74116 257.2174  L 452.665414 259.902963  L 455.589668 262.371672  L 458.513922 264.633041  L 461.438177 266.712384  L 467.286685 270.475964  L 476.059447 275.68193  L 484.832209 280.720902  L 490.680718 283.902566  L 496.529226 286.865549  L 502.377734 289.575213  L 508.226242 291.971379  L 514.07475 293.985153  L 519.923259 295.622758  L 525.771767 296.98282  L 531.620275 298.15667  L 537.468783 299.138161  L 543.317291 299.873438  L 557.938562 301.315616  L 560.862816 301.801455  L 563.78707 302.426372  L 566.711324 303.199163  L 572.559833 305.140059  L 587.181103 310.587913  L 593.029611 312.277877  L 598.878119 313.645193  L 607.650882 315.6692  L 610.575136 316.494846  L 613.49939 317.447038  L 616.423644 318.540007  L 619.347898 319.774404  L 625.196406 322.603818  L 639.817677 330.165882  L 642.741931 331.465013  L 645.666185 332.635222  L 648.590439 333.669601  L 651.514693 334.569364  L 654.438947 335.341824  L 660.287456 336.551083  L 666.135964 337.398811  L 671.984472 337.980408  L 680.757234 338.529191  L 692.454251 338.966442  L 707.075521 339.283707  L 724.621046 339.389862  L 727.5453 339.393229  L 727.5453 339.393229  " clip-path="url(#pcff4bcd79d)" style="fill: none; stroke: #000000; stroke-width: 1.5; stroke-linecap: round"/>
   </g>
   <g id="patch_5">
    <path d="M 44.28 339.3975  L 764.64 339.3975  " style="fill: none; stroke: #262626; stroke-width: 2; stroke-linejoin: miter; stroke-linecap: square"/>
   </g>
   <g id="text_4">
    <!-- cathepsin -->
    <g transform="translate(44.28 328.137187)scale(0.13 -0.13)">
     <defs>
      <path id="DejaVuSans-63" d="M 3122 3366  L 3122 2828  Q 2878 2963 2633 3030  Q 2388 3097 2138 3097  Q 1578 3097 1268 2742  Q 959 2388 959 1747  Q 959 1106 1268 751  Q 1578 397 2138 397  Q 2388 397 2633 464  Q 2878 531 3122 666  L 3122 134  Q 2881 22 2623 -34  Q 2366 -91 2075 -91  Q 1284 -91 818 406  Q 353 903 353 1747  Q 353 2603 823 3093  Q 1294 3584 2113 3584  Q 2378 3584 2631 3529  Q 2884 3475 3122 3366  z " transform="scale(0.015625)"/>
      <path id="DejaVuSans-61" d="M 2194 1759  Q 1497 1759 1228 1600  Q 959 1441 959 1056  Q 959 750 1161 570  Q 1363 391 1709 391  Q 2188 391 2477 730  Q 2766 1069 2766 1631  L 2766 1759  L 2194 1759  z M 3341 1997  L 3341 0  L 2766 0  L 2766 531  Q 2569 213 2275 61  Q 1981 -91 1556 -91  Q 1019 -91 701 211  Q 384 513 384 1019  Q 384 1609 779 1909  Q 1175 2209 1959 2209  L 2766 2209  L 2766 2266  Q 2766 2663 2505 2880  Q 2244 3097 1772 3097  Q 1472 3097 1187 3025  Q 903 2953 641 2809  L 641 3341  Q 956 3463 1253 3523  Q 1550 3584 1831 3584  Q 2591 3584 2966 3190  Q 3341 2797 3341 1997  z " transform="scale(0.015625)"/>
      <path id="DejaVuSans-68" d="M 3513 2113  L 3513 0  L 2938 0  L 2938 2094  Q 2938 2591 2744 2837  Q 2550 3084 2163 3084  Q 1697 3084 1428 2787  Q 1159 2491 1159 1978  L 1159 0  L 581 0  L 581 4863  L 1159 4863  L 1159 2956  Q 1366 3272 1645 3428  Q 1925 3584 2291 3584  Q 2894 3584 3203 3211  Q 3513 2838 3513 2113  z " transform="scale(0.015625)"/>
      <path id="DejaVuSans-70" d="M 1159 525  L 1159 -1331  L 581 -1331  L 581 3500  L 1159 3500  L 1159 2969  Q 1341 3281 1617 3432  Q 1894 3584 2278 3584  Q 2916 3584 3314 3078  Q 3713 2572 3713 1747  Q 3713 922 3314 415  Q 2916 -91 2278 -91  Q 1894 -91 1617 61  Q 1341 213 1159 525  z M 3116 1747  Q 3116 2381 2855 2742  Q 2594 3103 2138 3103  Q 1681 3103 1420 2742  Q 1159 2381 1159 1747  Q 1159 1113 1420 752  Q 1681 391 2138 391  Q 2594 391 2855 752  Q 3116 1113 3116 1747  z " transform="scale(0.015625)"/>
     </defs>
     <use xlink:href="#DejaVuSans-63"/>
     <use xlink:href="#DejaVuSans-61" x="54.980469"/>
     <use xlink:href="#DejaVuSans-74" x="116.259766"/>
     <use xlink:href="#DejaVuSans-68" x="155.46875"/>
     <use xlink:href="#DejaVuSans-65" x="218.847656"/>
     <use xlink:href="#DejaVuSans-70" x="280.371094"/>
     <use xlink:href="#DejaVuSans-73" x="343.847656"/>
     <use xlink:href="#DejaVuSans-69" x="395.947266"/>
     <use xlink:href="#DejaVuSans-6e" x="423.730469"/>
    </g>
   </g>
  </g>
  <g id="axes_3">
   <g id="patch_6">
    <path d="M 44.28 354.245  L 764.64 354.245  L 764.64 57.295  L 44.28 57.295  L 44.28 354.245  z " style="fill: none"/>
   </g>
   <g id="matplotlib.axis_5">
    <g id="xtick_19"/>
    <g id="xtick_20"/>
    <g id="xtick_21"/>
    <g id="xtick_22"/>
    <g id="xtick_23"/>
    <g id="xtick_24"/>
    <g id="xtick_25"/>
    <g id="xtick_26"/>
    <g id="xtick_27"/>
   </g>
   <g id="matplotlib.axis_6">
    <g id="text_5">
     <!-- Density -->
     <g style="fill: #262626" transform="translate(37.784375 228.580313)rotate(-90)scale(0.12 -0.12)">
      <use xlink:href="#DejaVuSans-44"/>
      <use xlink:href="#DejaVuSans-65" x="77.001953"/>
      <use xlink:href="#DejaVuSans-6e" x="138.525391"/>
      <use xlink:href="#DejaVuSans-73" x="201.904297"/>
      <use xlink:href="#DejaVuSans-69" x="254.003906"/>
      <use xlink:href="#DejaVuSans-74" x="281.787109"/>
      <use xlink:href="#DejaVuSans-79" x="320.996094"/>
     </g>
    </g>
   </g>
   <g id="PolyCollection_3">
    <defs>
     <path id="mf4b9118fe2" d="M 98.982405 -77.757094  L 98.982405 -77.755  L 102.084397 -77.755  L 105.186388 -77.755  L 108.28838 -77.755  L 111.390371 -77.755  L 114.492362 -77.755  L 117.594354 -77.755  L 120.696345 -77.755  L 123.798336 -77.755  L 126.900328 -77.755  L 130.002319 -77.755  L 133.10431 -77.755  L 136.206302 -77.755  L 139.308293 -77.755  L 142.410284 -77.755  L 145.512276 -77.755  L 148.614267 -77.755  L 151.716258 -77.755  L 154.81825 -77.755  L 157.920241 -77.755  L 161.022232 -77.755  L 164.124224 -77.755  L 167.226215 -77.755  L 170.328206 -77.755  L 173.430198 -77.755  L 176.532189 -77.755  L 179.634181 -77.755  L 182.736172 -77.755  L 185.838163 -77.755  L 188.940155 -77.755  L 192.042146 -77.755  L 195.144137 -77.755  L 198.246129 -77.755  L 201.34812 -77.755  L 204.450111 -77.755  L 207.552103 -77.755  L 210.654094 -77.755  L 213.756085 -77.755  L 216.858077 -77.755  L 219.960068 -77.755  L 223.062059 -77.755  L 226.164051 -77.755  L 229.266042 -77.755  L 232.368033 -77.755  L 235.470025 -77.755  L 238.572016 -77.755  L 241.674008 -77.755  L 244.775999 -77.755  L 247.87799 -77.755  L 250.979982 -77.755  L 254.081973 -77.755  L 257.183964 -77.755  L 260.285956 -77.755  L 263.387947 -77.755  L 266.489938 -77.755  L 269.59193 -77.755  L 272.693921 -77.755  L 275.795912 -77.755  L 278.897904 -77.755  L 281.999895 -77.755  L 285.101886 -77.755  L 288.203878 -77.755  L 291.305869 -77.755  L 294.40786 -77.755  L 297.509852 -77.755  L 300.611843 -77.755  L 303.713835 -77.755  L 306.815826 -77.755  L 309.917817 -77.755  L 313.019809 -77.755  L 316.1218 -77.755  L 319.223791 -77.755  L 322.325783 -77.755  L 325.427774 -77.755  L 328.529765 -77.755  L 331.631757 -77.755  L 334.733748 -77.755  L 337.835739 -77.755  L 340.937731 -77.755  L 344.039722 -77.755  L 347.141713 -77.755  L 350.243705 -77.755  L 353.345696 -77.755  L 356.447687 -77.755  L 359.549679 -77.755  L 362.65167 -77.755  L 365.753662 -77.755  L 368.855653 -77.755  L 371.957644 -77.755  L 375.059636 -77.755  L 378.161627 -77.755  L 381.263618 -77.755  L 384.36561 -77.755  L 387.467601 -77.755  L 390.569592 -77.755  L 393.671584 -77.755  L 396.773575 -77.755  L 399.875566 -77.755  L 402.977558 -77.755  L 406.079549 -77.755  L 409.18154 -77.755  L 412.283532 -77.755  L 415.385523 -77.755  L 418.487514 -77.755  L 421.589506 -77.755  L 424.691497 -77.755  L 427.793489 -77.755  L 430.89548 -77.755  L 433.997471 -77.755  L 437.099463 -77.755  L 440.201454 -77.755  L 443.303445 -77.755  L 446.405437 -77.755  L 449.507428 -77.755  L 452.609419 -77.755  L 455.711411 -77.755  L 458.813402 -77.755  L 461.915393 -77.755  L 465.017385 -77.755  L 468.119376 -77.755  L 471.221367 -77.755  L 474.323359 -77.755  L 477.42535 -77.755  L 480.527341 -77.755  L 483.629333 -77.755  L 486.731324 -77.755  L 489.833316 -77.755  L 492.935307 -77.755  L 496.037298 -77.755  L 499.13929 -77.755  L 502.241281 -77.755  L 505.343272 -77.755  L 508.445264 -77.755  L 511.547255 -77.755  L 514.649246 -77.755  L 517.751238 -77.755  L 520.853229 -77.755  L 523.95522 -77.755  L 527.057212 -77.755  L 530.159203 -77.755  L 533.261194 -77.755  L 536.363186 -77.755  L 539.465177 -77.755  L 542.567168 -77.755  L 545.66916 -77.755  L 548.771151 -77.755  L 551.873143 -77.755  L 554.975134 -77.755  L 558.077125 -77.755  L 561.179117 -77.755  L 564.281108 -77.755  L 567.383099 -77.755  L 570.485091 -77.755  L 573.587082 -77.755  L 576.689073 -77.755  L 579.791065 -77.755  L 582.893056 -77.755  L 585.995047 -77.755  L 589.097039 -77.755  L 592.19903 -77.755  L 595.301021 -77.755  L 598.403013 -77.755  L 601.505004 -77.755  L 604.606995 -77.755  L 607.708987 -77.755  L 610.810978 -77.755  L 613.912969 -77.755  L 617.014961 -77.755  L 620.116952 -77.755  L 623.218944 -77.755  L 626.320935 -77.755  L 629.422926 -77.755  L 632.524918 -77.755  L 635.626909 -77.755  L 638.7289 -77.755  L 641.830892 -77.755  L 644.932883 -77.755  L 648.034874 -77.755  L 651.136866 -77.755  L 654.238857 -77.755  L 657.340848 -77.755  L 660.44284 -77.755  L 663.544831 -77.755  L 666.646822 -77.755  L 669.748814 -77.755  L 672.850805 -77.755  L 675.952796 -77.755  L 679.054788 -77.755  L 682.156779 -77.755  L 685.258771 -77.755  L 688.360762 -77.755  L 691.462753 -77.755  L 694.564745 -77.755  L 697.666736 -77.755  L 700.768727 -77.755  L 703.870719 -77.755  L 706.97271 -77.755  L 710.074701 -77.755  L 713.176693 -77.755  L 716.278684 -77.755  L 716.278684 -77.758694  L 716.278684 -77.758694  L 713.176693 -77.761914  L 710.074701 -77.767449  L 706.97271 -77.776576  L 703.870719 -77.791014  L 700.768727 -77.812949  L 697.666736 -77.844982  L 694.564745 -77.890016  L 691.462753 -77.9511  L 688.360762 -78.031272  L 685.258771 -78.133509  L 682.156779 -78.26084  L 679.054788 -78.416727  L 675.952796 -78.605687  L 672.850805 -78.834101  L 669.748814 -79.111052  L 666.646822 -79.448946  L 663.544831 -79.863679  L 660.44284 -80.374092  L 657.340848 -81.000563  L 654.238857 -81.762697  L 651.136866 -82.676266  L 648.034874 -83.7498  L 644.932883 -84.98142  L 641.830892 -86.356698  L 638.7289 -87.848271  L 635.626909 -89.417738  L 632.524918 -91.019873  L 629.422926 -92.608613  L 626.320935 -94.143712  L 623.218944 -95.596636  L 620.116952 -96.954363  L 617.014961 -98.220208  L 613.912969 -99.411587  L 610.810978 -100.555446  L 607.708987 -101.682643  L 604.606995 -102.822695  L 601.505004 -103.999922  L 598.403013 -105.231347  L 595.301021 -106.525949  L 592.19903 -107.884503  L 589.097039 -109.299283  L 585.995047 -110.753446  L 582.893056 -112.220626  L 579.791065 -113.665761  L 576.689073 -115.048182  L 573.587082 -116.32737  L 570.485091 -117.470771  L 567.383099 -118.46196  L 564.281108 -119.306855  L 561.179117 -120.03575  L 558.077125 -120.699879  L 554.975134 -121.362748  L 551.873143 -122.088022  L 548.771151 -122.926992  L 545.66916 -123.908915  L 542.567168 -125.036799  L 539.465177 -126.289701  L 536.363186 -127.630652  L 533.261194 -129.017737  L 530.159203 -130.415017  L 527.057212 -131.80023  L 523.95522 -133.167426  L 520.853229 -134.524464  L 517.751238 -135.886914  L 514.649246 -137.270977  L 511.547255 -138.68801  L 508.445264 -140.142403  L 505.343272 -141.633078  L 502.241281 -143.157483  L 499.13929 -144.716068  L 496.037298 -146.315216  L 492.935307 -147.967358  L 489.833316 -149.688259  L 486.731324 -151.492598  L 483.629333 -153.389671  L 480.527341 -155.380925  L 477.42535 -157.460288  L 474.323359 -159.617171  L 471.221367 -161.840971  L 468.119376 -164.12543  L 465.017385 -166.471269  L 461.915393 -168.886241  L 458.813402 -171.382715  L 455.711411 -173.97377  L 452.609419 -176.669283  L 449.507428 -179.473389  L 446.405437 -182.384153  L 443.303445 -185.395365  L 440.201454 -188.499639  L 437.099463 -191.69148  L 433.997471 -194.969077  L 430.89548 -198.334129  L 427.793489 -201.789857  L 424.691497 -205.338086  L 421.589506 -208.976719  L 418.487514 -212.698731  L 415.385523 -216.493217  L 412.283532 -220.348154  L 409.18154 -224.253859  L 406.079549 -228.205859  L 402.977558 -232.206142  L 399.875566 -236.262432  L 396.773575 -240.385897  L 393.671584 -244.588294  L 390.569592 -248.879676  L 387.467601 -253.267501  L 384.36561 -257.757301  L 381.263618 -262.354292  L 378.161627 -267.064702  L 375.059636 -271.895394  L 371.957644 -276.850699  L 368.855653 -281.926258  L 365.753662 -287.100864  L 362.65167 -292.328425  L 359.549679 -297.532771  L 356.447687 -302.607772  L 353.345696 -307.424021  L 350.243705 -311.841422  L 347.141713 -315.725114  L 344.039722 -318.960841  L 340.937731 -321.465803  L 337.835739 -323.192216  L 334.733748 -324.122981  L 331.631757 -324.261225  L 328.529765 -323.617242  L 325.427774 -322.196893  L 322.325783 -319.994741  L 319.223791 -316.993366  L 316.1218 -313.168171  L 313.019809 -308.495387  L 309.917817 -302.960345  L 306.815826 -296.563665  L 303.713835 -289.324288  L 300.611843 -281.279693  L 297.509852 -272.484565  L 294.40786 -263.009236  L 291.305869 -252.938657  L 288.203878 -242.371842  L 285.101886 -231.421115  L 281.999895 -220.21045  L 278.897904 -208.872522  L 275.795912 -197.544663  L 272.693921 -186.36426  L 269.59193 -175.464248  L 266.489938 -164.969104  L 263.387947 -154.991423  L 260.285956 -145.628876  L 257.183964 -136.961328  L 254.081973 -129.048031  L 250.979982 -121.925106  L 247.87799 -115.603798  L 244.775999 -110.070063  L 241.674008 -105.285983  L 238.572016 -101.193183  L 235.470025 -97.718046  L 232.368033 -94.778167  L 229.266042 -92.28921  L 226.164051 -90.17125  L 223.062059 -88.353802  L 219.960068 -86.778961  L 216.858077 -85.402454  L 213.756085 -84.192752  L 210.654094 -83.128741  L 207.552103 -82.196617  L 204.450111 -81.386726  L 201.34812 -80.690949  L 198.246129 -80.100973  L 195.144137 -79.607524  L 192.042146 -79.200404  L 188.940155 -78.869  L 185.838163 -78.602966  L 182.736172 -78.392775  L 179.634181 -78.230039  L 176.532189 -78.107549  L 173.430198 -78.019114  L 170.328206 -77.959288  L 167.226215 -77.923079  L 164.124224 -77.905712  L 161.022232 -77.902482  L 157.920241 -77.908736  L 154.81825 -77.919966  L 151.716258 -77.932028  L 148.614267 -77.941413  L 145.512276 -77.945534  L 142.410284 -77.942931  L 139.308293 -77.933338  L 136.206302 -77.917569  L 133.10431 -77.897244  L 130.002319 -77.874417  L 126.900328 -77.85117  L 123.798336 -77.829287  L 120.696345 -77.810038  L 117.594354 -77.794109  L 114.492362 -77.781653  L 111.390371 -77.772421  L 108.28838 -77.765921  L 105.186388 -77.761566  L 102.084397 -77.758786  L 98.982405 -77.757094  z " style="stroke: #8da0cb"/>
    </defs>
    <g clip-path="url(#p10ceaa320c)">
     <use xlink:href="#mf4b9118fe2" x="0" y="432" style="fill: #8da0cb; stroke: #8da0cb"/>
    </g>
   </g>
   <g id="line2d_3">
    <path d="M 98.982405 354.242906  L 130.002319 354.125583  L 151.716258 354.067972  L 170.328206 354.040712  L 179.634181 353.769961  L 185.838163 353.397034  L 192.042146 352.799596  L 198.246129 351.899027  L 204.450111 350.613274  L 207.552103 349.803383  L 210.654094 348.871259  L 213.756085 347.807248  L 216.858077 346.597546  L 219.960068 345.221039  L 223.062059 343.646198  L 226.164051 341.82875  L 229.266042 339.71079  L 232.368033 337.221833  L 235.470025 334.281954  L 238.572016 330.806817  L 241.674008 326.714017  L 244.775999 321.929937  L 247.87799 316.396202  L 250.979982 310.074894  L 254.081973 302.951969  L 257.183964 295.038672  L 260.285956 286.371124  L 263.387947 277.008577  L 266.489938 267.030896  L 269.59193 256.535752  L 275.795912 234.455337  L 285.101886 200.578885  L 291.305869 179.061343  L 294.40786 168.990764  L 297.509852 159.515435  L 300.611843 150.720307  L 303.713835 142.675712  L 306.815826 135.436335  L 309.917817 129.039655  L 313.019809 123.504613  L 316.1218 118.831829  L 319.223791 115.006634  L 322.325783 112.005259  L 325.427774 109.803107  L 328.529765 108.382758  L 331.631757 107.738775  L 334.733748 107.877019  L 337.835739 108.807784  L 340.937731 110.534197  L 344.039722 113.039159  L 347.141713 116.274886  L 350.243705 120.158578  L 353.345696 124.575979  L 356.447687 129.392228  L 362.65167 139.671575  L 371.957644 155.149301  L 378.161627 164.935298  L 384.36561 174.242699  L 390.569592 183.120324  L 396.773575 191.614103  L 402.977558 199.793858  L 412.283532 211.651846  L 418.487514 219.301269  L 424.691497 226.661914  L 430.89548 233.665871  L 437.099463 240.30852  L 443.303445 246.604635  L 449.507428 252.526611  L 455.711411 258.02623  L 461.915393 263.113759  L 468.119376 267.87457  L 474.323359 272.382829  L 480.527341 276.619075  L 486.731324 280.507402  L 492.935307 284.032642  L 499.13929 287.283932  L 508.445264 291.857597  L 517.751238 296.113086  L 542.567168 306.963201  L 545.66916 308.091085  L 548.771151 309.073008  L 554.975134 310.637252  L 564.281108 312.693145  L 567.383099 313.53804  L 570.485091 314.529229  L 573.587082 315.67263  L 579.791065 318.334239  L 595.301021 325.474051  L 601.505004 328.000078  L 610.810978 331.444554  L 617.014961 333.779792  L 623.218944 336.403364  L 629.422926 339.391387  L 641.830892 345.643302  L 644.932883 347.01858  L 648.034874 348.2502  L 651.136866 349.323734  L 654.238857 350.237303  L 657.340848 350.999437  L 660.44284 351.625908  L 666.646822 352.551054  L 672.850805 353.165899  L 679.054788 353.583273  L 688.360762 353.968728  L 700.768727 354.187051  L 716.278684 354.241306  L 716.278684 354.241306  " clip-path="url(#p10ceaa320c)" style="fill: none; stroke: #000000; stroke-width: 1.5; stroke-linecap: round"/>
   </g>
   <g id="patch_7">
    <path d="M 44.28 354.245  L 764.64 354.245  " style="fill: none; stroke: #262626; stroke-width: 2; stroke-linejoin: miter; stroke-linecap: square"/>
   </g>
   <g id="text_6">
    <!-- tegument -->
    <g transform="translate(44.28 342.984688)scale(0.13 -0.13)">
     <defs>
      <path id="DejaVuSans-67" d="M 2906 1791  Q 2906 2416 2648 2759  Q 2391 3103 1925 3103  Q 1463 3103 1205 2759  Q 947 2416 947 1791  Q 947 1169 1205 825  Q 1463 481 1925 481  Q 2391 481 2648 825  Q 2906 1169 2906 1791  z M 3481 434  Q 3481 -459 3084 -895  Q 2688 -1331 1869 -1331  Q 1566 -1331 1297 -1286  Q 1028 -1241 775 -1147  L 775 -588  Q 1028 -725 1275 -790  Q 1522 -856 1778 -856  Q 2344 -856 2625 -561  Q 2906 -266 2906 331  L 2906 616  Q 2728 306 2450 153  Q 2172 0 1784 0  Q 1141 0 747 490  Q 353 981 353 1791  Q 353 2603 747 3093  Q 1141 3584 1784 3584  Q 2172 3584 2450 3431  Q 2728 3278 2906 2969  L 2906 3500  L 3481 3500  L 3481 434  z " transform="scale(0.015625)"/>
      <path id="DejaVuSans-75" d="M 544 1381  L 544 3500  L 1119 3500  L 1119 1403  Q 1119 906 1312 657  Q 1506 409 1894 409  Q 2359 409 2629 706  Q 2900 1003 2900 1516  L 2900 3500  L 3475 3500  L 3475 0  L 2900 0  L 2900 538  Q 2691 219 2414 64  Q 2138 -91 1772 -91  Q 1169 -91 856 284  Q 544 659 544 1381  z M 1991 3584  L 1991 3584  z " transform="scale(0.015625)"/>
      <path id="DejaVuSans-6d" d="M 3328 2828  Q 3544 3216 3844 3400  Q 4144 3584 4550 3584  Q 5097 3584 5394 3201  Q 5691 2819 5691 2113  L 5691 0  L 5113 0  L 5113 2094  Q 5113 2597 4934 2840  Q 4756 3084 4391 3084  Q 3944 3084 3684 2787  Q 3425 2491 3425 1978  L 3425 0  L 2847 0  L 2847 2094  Q 2847 2600 2669 2842  Q 2491 3084 2119 3084  Q 1678 3084 1418 2786  Q 1159 2488 1159 1978  L 1159 0  L 581 0  L 581 3500  L 1159 3500  L 1159 2956  Q 1356 3278 1631 3431  Q 1906 3584 2284 3584  Q 2666 3584 2933 3390  Q 3200 3197 3328 2828  z " transform="scale(0.015625)"/>
     </defs>
     <use xlink:href="#DejaVuSans-74"/>
     <use xlink:href="#DejaVuSans-65" x="39.208984"/>
     <use xlink:href="#DejaVuSans-67" x="100.732422"/>
     <use xlink:href="#DejaVuSans-75" x="164.208984"/>
     <use xlink:href="#DejaVuSans-6d" x="227.587891"/>
     <use xlink:href="#DejaVuSans-65" x="325"/>
     <use xlink:href="#DejaVuSans-6e" x="386.523438"/>
     <use xlink:href="#DejaVuSans-74" x="449.902344"/>
    </g>
   </g>
  </g>
  <g id="axes_4">
   <g id="patch_8">
    <path d="M 44.28 369.0925  L 764.64 369.0925  L 764.64 72.1425  L 44.28 72.1425  L 44.28 369.0925  z " style="fill: none"/>
   </g>
   <g id="matplotlib.axis_7">
    <g id="xtick_28"/>
    <g id="xtick_29"/>
    <g id="xtick_30"/>
    <g id="xtick_31"/>
    <g id="xtick_32"/>
    <g id="xtick_33"/>
    <g id="xtick_34"/>
    <g id="xtick_35"/>
    <g id="xtick_36"/>
   </g>
   <g id="matplotlib.axis_8">
    <g id="text_7">
     <!-- Density -->
     <g style="fill: #262626" transform="translate(37.784375 243.427813)rotate(-90)scale(0.12 -0.12)">
      <use xlink:href="#DejaVuSans-44"/>
      <use xlink:href="#DejaVuSans-65" x="77.001953"/>
      <use xlink:href="#DejaVuSans-6e" x="138.525391"/>
      <use xlink:href="#DejaVuSans-73" x="201.904297"/>
      <use xlink:href="#DejaVuSans-69" x="254.003906"/>
      <use xlink:href="#DejaVuSans-74" x="281.787109"/>
      <use xlink:href="#DejaVuSans-79" x="320.996094"/>
     </g>
    </g>
   </g>
   <g id="PolyCollection_4">
    <defs>
     <path id="m75e8b6ba89" d="M 75.881289 -62.909262  L 75.881289 -62.9075  L 79.269559 -62.9075  L 82.657829 -62.9075  L 86.046099 -62.9075  L 89.434369 -62.9075  L 92.822639 -62.9075  L 96.210909 -62.9075  L 99.599179 -62.9075  L 102.987449 -62.9075  L 106.375719 -62.9075  L 109.763989 -62.9075  L 113.152259 -62.9075  L 116.540529 -62.9075  L 119.928799 -62.9075  L 123.317069 -62.9075  L 126.705339 -62.9075  L 130.093609 -62.9075  L 133.481879 -62.9075  L 136.870149 -62.9075  L 140.25842 -62.9075  L 143.64669 -62.9075  L 147.03496 -62.9075  L 150.42323 -62.9075  L 153.8115 -62.9075  L 157.19977 -62.9075  L 160.58804 -62.9075  L 163.97631 -62.9075  L 167.36458 -62.9075  L 170.75285 -62.9075  L 174.14112 -62.9075  L 177.52939 -62.9075  L 180.91766 -62.9075  L 184.30593 -62.9075  L 187.6942 -62.9075  L 191.08247 -62.9075  L 194.47074 -62.9075  L 197.85901 -62.9075  L 201.24728 -62.9075  L 204.63555 -62.9075  L 208.02382 -62.9075  L 211.412091 -62.9075  L 214.800361 -62.9075  L 218.188631 -62.9075  L 221.576901 -62.9075  L 224.965171 -62.9075  L 228.353441 -62.9075  L 231.741711 -62.9075  L 235.129981 -62.9075  L 238.518251 -62.9075  L 241.906521 -62.9075  L 245.294791 -62.9075  L 248.683061 -62.9075  L 252.071331 -62.9075  L 255.459601 -62.9075  L 258.847871 -62.9075  L 262.236141 -62.9075  L 265.624411 -62.9075  L 269.012681 -62.9075  L 272.400951 -62.9075  L 275.789221 -62.9075  L 279.177491 -62.9075  L 282.565762 -62.9075  L 285.954032 -62.9075  L 289.342302 -62.9075  L 292.730572 -62.9075  L 296.118842 -62.9075  L 299.507112 -62.9075  L 302.895382 -62.9075  L 306.283652 -62.9075  L 309.671922 -62.9075  L 313.060192 -62.9075  L 316.448462 -62.9075  L 319.836732 -62.9075  L 323.225002 -62.9075  L 326.613272 -62.9075  L 330.001542 -62.9075  L 333.389812 -62.9075  L 336.778082 -62.9075  L 340.166352 -62.9075  L 343.554622 -62.9075  L 346.942892 -62.9075  L 350.331163 -62.9075  L 353.719433 -62.9075  L 357.107703 -62.9075  L 360.495973 -62.9075  L 363.884243 -62.9075  L 367.272513 -62.9075  L 370.660783 -62.9075  L 374.049053 -62.9075  L 377.437323 -62.9075  L 380.825593 -62.9075  L 384.213863 -62.9075  L 387.602133 -62.9075  L 390.990403 -62.9075  L 394.378673 -62.9075  L 397.766943 -62.9075  L 401.155213 -62.9075  L 404.543483 -62.9075  L 407.931753 -62.9075  L 411.320023 -62.9075  L 414.708293 -62.9075  L 418.096563 -62.9075  L 421.484834 -62.9075  L 424.873104 -62.9075  L 428.261374 -62.9075  L 431.649644 -62.9075  L 435.037914 -62.9075  L 438.426184 -62.9075  L 441.814454 -62.9075  L 445.202724 -62.9075  L 448.590994 -62.9075  L 451.979264 -62.9075  L 455.367534 -62.9075  L 458.755804 -62.9075  L 462.144074 -62.9075  L 465.532344 -62.9075  L 468.920614 -62.9075  L 472.308884 -62.9075  L 475.697154 -62.9075  L 479.085424 -62.9075  L 482.473694 -62.9075  L 485.861964 -62.9075  L 489.250235 -62.9075  L 492.638505 -62.9075  L 496.026775 -62.9075  L 499.415045 -62.9075  L 502.803315 -62.9075  L 506.191585 -62.9075  L 509.579855 -62.9075  L 512.968125 -62.9075  L 516.356395 -62.9075  L 519.744665 -62.9075  L 523.132935 -62.9075  L 526.521205 -62.9075  L 529.909475 -62.9075  L 533.297745 -62.9075  L 536.686015 -62.9075  L 540.074285 -62.9075  L 543.462555 -62.9075  L 546.850825 -62.9075  L 550.239095 -62.9075  L 553.627365 -62.9075  L 557.015635 -62.9075  L 560.403906 -62.9075  L 563.792176 -62.9075  L 567.180446 -62.9075  L 570.568716 -62.9075  L 573.956986 -62.9075  L 577.345256 -62.9075  L 580.733526 -62.9075  L 584.121796 -62.9075  L 587.510066 -62.9075  L 590.898336 -62.9075  L 594.286606 -62.9075  L 597.674876 -62.9075  L 601.063146 -62.9075  L 604.451416 -62.9075  L 607.839686 -62.9075  L 611.227956 -62.9075  L 614.616226 -62.9075  L 618.004496 -62.9075  L 621.392766 -62.9075  L 624.781036 -62.9075  L 628.169307 -62.9075  L 631.557577 -62.9075  L 634.945847 -62.9075  L 638.334117 -62.9075  L 641.722387 -62.9075  L 645.110657 -62.9075  L 648.498927 -62.9075  L 651.887197 -62.9075  L 655.275467 -62.9075  L 658.663737 -62.9075  L 662.052007 -62.9075  L 665.440277 -62.9075  L 668.828547 -62.9075  L 672.216817 -62.9075  L 675.605087 -62.9075  L 678.993357 -62.9075  L 682.381627 -62.9075  L 685.769897 -62.9075  L 689.158167 -62.9075  L 692.546437 -62.9075  L 695.934707 -62.9075  L 699.322978 -62.9075  L 702.711248 -62.9075  L 706.099518 -62.9075  L 709.487788 -62.9075  L 712.876058 -62.9075  L 716.264328 -62.9075  L 719.652598 -62.9075  L 723.040868 -62.9075  L 726.429138 -62.9075  L 729.817408 -62.9075  L 733.205678 -62.9075  L 736.593948 -62.9075  L 739.982218 -62.9075  L 743.370488 -62.9075  L 746.758758 -62.9075  L 750.147028 -62.9075  L 750.147028 -62.912539  L 750.147028 -62.912539  L 746.758758 -62.916946  L 743.370488 -62.924731  L 739.982218 -62.938093  L 736.593948 -62.960387  L 733.205678 -62.996554  L 729.817408 -63.053615  L 726.429138 -63.141194  L 723.040868 -63.272  L 719.652598 -63.462187  L 716.264328 -63.731487  L 712.876058 -64.103016  L 709.487788 -64.602686  L 706.099518 -65.258179  L 702.711248 -66.097505  L 699.322978 -67.147247  L 695.934707 -68.430599  L 692.546437 -69.965399  L 689.158167 -71.762308  L 685.769897 -73.823323  L 682.381627 -76.140773  L 678.993357 -78.696926  L 675.605087 -81.464314  L 672.216817 -84.406837  L 668.828547 -87.481644  L 665.440277 -90.641659  L 662.052007 -93.8385  L 658.663737 -97.025424  L 655.275467 -100.159835  L 651.887197 -103.204978  L 648.498927 -106.130567  L 645.110657 -108.912381  L 641.722387 -111.531099  L 638.334117 -113.970891  L 634.945847 -116.218321  L 631.557577 -118.262011  L 628.169307 -120.093295  L 624.781036 -121.707762  L 621.392766 -123.107357  L 618.004496 -124.302493  L 614.616226 -125.31367  L 611.227956 -126.172119  L 607.839686 -126.919197  L 604.451416 -127.604435  L 601.063146 -128.282324  L 597.674876 -129.008145  L 594.286606 -129.833343  L 590.898336 -130.801072  L 587.510066 -131.942691  L 584.121796 -133.275869  L 580.733526 -134.804772  L 577.345256 -136.522373  L 573.956986 -138.414451  L 570.568716 -140.464437  L 567.180446 -142.658034  L 563.792176 -144.986613  L 560.403906 -147.448734  L 557.015635 -150.049637  L 553.627365 -152.799046  L 550.239095 -155.707934  L 546.850825 -158.785002  L 543.462555 -162.033427  L 540.074285 -165.448217  L 536.686015 -169.014268  L 533.297745 -172.705162  L 529.909475 -176.482825  L 526.521205 -180.298323  L 523.132935 -184.094137  L 519.744665 -187.808172  L 516.356395 -191.37938  L 512.968125 -194.754416  L 509.579855 -197.89429  L 506.191585 -200.779685  L 502.803315 -203.413723  L 499.415045 -205.821348  L 496.026775 -208.04515  L 492.638505 -210.138192  L 489.250235 -212.154991  L 485.861964 -214.142171  L 482.473694 -216.130303  L 479.085424 -218.128228  L 475.697154 -220.120641  L 472.308884 -222.06917  L 468.920614 -223.916619  L 465.532344 -225.593619  L 462.144074 -227.026623  L 458.755804 -228.146136  L 455.367534 -228.89411  L 451.979264 -229.229706  L 448.590994 -229.132885  L 445.202724 -228.60567  L 441.814454 -227.671196  L 438.426184 -226.370924  L 435.037914 -224.760502  L 431.649644 -222.904842  L 428.261374 -220.872867  L 424.873104 -218.732384  L 421.484834 -216.545379  L 418.096563 -214.364033  L 414.708293 -212.22772  L 411.320023 -210.161235  L 407.931753 -208.174442  L 404.543483 -206.263426  L 401.155213 -204.413006  L 397.766943 -202.60028  L 394.378673 -200.798643  L 390.990403 -198.981672  L 387.602133 -197.126296  L 384.213863 -195.214844  L 380.825593 -193.235826  L 377.437323 -191.183546  L 374.049053 -189.056833  L 370.660783 -186.857311  L 367.272513 -184.587609  L 363.884243 -182.249895  L 360.495973 -179.845001  L 357.107703 -177.37232  L 353.719433 -174.830516  L 350.331163 -172.218969  L 346.942892 -169.539698  L 343.554622 -166.799345  L 340.166352 -164.010718  L 336.778082 -161.193333  L 333.389812 -158.372603  L 330.001542 -155.577568  L 326.613272 -152.837473  L 323.225002 -150.177863  L 319.836732 -147.617083  L 316.448462 -145.164023  L 313.060192 -142.817716  L 309.671922 -140.568888  L 306.283652 -138.403076  L 302.895382 -136.30449  L 299.507112 -134.25963  L 296.118842 -132.259705  L 292.730572 -130.301251  L 289.342302 -128.384786  L 285.954032 -126.511847  L 282.565762 -124.681188  L 279.177491 -122.885123  L 275.789221 -121.107036  L 272.400951 -119.320831  L 269.012681 -117.492674  L 265.624411 -115.584882  L 262.236141 -113.561272  L 258.847871 -111.392964  L 255.459601 -109.063458  L 252.071331 -106.571983  L 248.683061 -103.934459  L 245.294791 -101.181933  L 241.906521 -98.356898  L 238.518251 -95.508256  L 235.129981 -92.685932  L 231.741711 -89.936036  L 228.353441 -87.29731  L 224.965171 -84.799155  L 221.576901 -82.461269  L 218.188631 -80.294556  L 214.800361 -78.302861  L 211.412091 -76.485022  L 208.02382 -74.836791  L 204.63555 -73.352327  L 201.24728 -72.025105  L 197.85901 -70.848236  L 194.47074 -69.814318  L 191.08247 -68.915019  L 187.6942 -68.140612  L 184.30593 -67.479665  L 180.91766 -66.91905  L 177.52939 -66.444312  L 174.14112 -66.040389  L 170.75285 -65.692547  L 167.36458 -65.387377  L 163.97631 -65.113662  L 160.58804 -64.862957  L 157.19977 -64.629782  L 153.8115 -64.41141  L 150.42323 -64.207312  L 147.03496 -64.01838  L 143.64669 -63.846105  L 140.25842 -63.691846  L 136.870149 -63.556325  L 133.481879 -63.439393  L 130.093609 -63.340048  L 126.705339 -63.256641  L 123.317069 -63.18718  L 119.928799 -63.129615  L 116.540529 -63.082067  L 113.152259 -63.042939  L 109.763989 -63.010942  L 106.375719 -62.985045  L 102.987449 -62.964401  L 99.599179 -62.948267  L 96.210909 -62.935956  L 92.822639 -62.926819  L 89.434369 -62.920237  L 86.046099 -62.915646  L 82.657829 -62.91255  L 79.269559 -62.910532  L 75.881289 -62.909262  z " style="stroke: #e78ac3"/>
    </defs>
    <g clip-path="url(#p5e3beb47d6)">
     <use xlink:href="#m75e8b6ba89" x="0" y="432" style="fill: #e78ac3; stroke: #e78ac3"/>
    </g>
   </g>
   <g id="line2d_4">
    <path d="M 75.881289 369.090738  L 109.763989 368.989058  L 126.705339 368.743359  L 140.25842 368.308154  L 153.8115 367.58859  L 167.36458 366.612623  L 174.14112 365.959611  L 180.91766 365.08095  L 187.6942 363.859388  L 191.08247 363.084981  L 194.47074 362.185682  L 197.85901 361.151764  L 201.24728 359.974895  L 204.63555 358.647673  L 208.02382 357.163209  L 211.412091 355.514978  L 214.800361 353.697139  L 218.188631 351.705444  L 221.576901 349.538731  L 224.965171 347.200845  L 228.353441 344.70269  L 235.129981 339.314068  L 248.683061 328.065541  L 252.071331 325.428017  L 255.459601 322.936542  L 258.847871 320.607036  L 262.236141 318.438728  L 269.012681 314.507326  L 292.730572 301.698749  L 302.895382 295.69551  L 309.671922 291.431112  L 316.448462 286.835977  L 323.225002 281.822137  L 330.001542 276.422432  L 350.331163 259.781031  L 357.107703 254.62768  L 363.884243 249.750105  L 370.660783 245.142689  L 377.437323 240.816454  L 384.213863 236.785156  L 390.990403 233.018328  L 407.931753 223.825558  L 414.708293 219.77228  L 431.649644 209.095158  L 435.037914 207.239498  L 438.426184 205.629076  L 441.814454 204.328804  L 445.202724 203.39433  L 448.590994 202.867115  L 451.979264 202.770294  L 455.367534 203.10589  L 458.755804 203.853864  L 462.144074 204.973377  L 465.532344 206.406381  L 468.920614 208.083381  L 475.697154 211.879359  L 496.026775 223.95485  L 499.415045 226.178652  L 502.803315 228.586277  L 506.191585 231.220315  L 509.579855 234.10571  L 512.968125 237.245584  L 516.356395 240.62062  L 523.132935 247.905863  L 536.686015 262.985732  L 543.462555 269.966573  L 546.850825 273.214998  L 550.239095 276.292066  L 553.627365 279.200954  L 557.015635 281.950363  L 563.792176 287.013387  L 567.180446 289.341966  L 570.568716 291.535563  L 573.956986 293.585549  L 577.345256 295.477627  L 580.733526 297.195228  L 584.121796 298.724131  L 587.510066 300.057309  L 590.898336 301.198928  L 594.286606 302.166657  L 601.063146 303.717676  L 611.227956 305.827881  L 614.616226 306.68633  L 618.004496 307.697507  L 621.392766 308.892643  L 624.781036 310.292238  L 628.169307 311.906705  L 631.557577 313.737989  L 634.945847 315.781679  L 638.334117 318.029109  L 641.722387 320.468901  L 645.110657 323.087619  L 648.498927 325.869433  L 655.275467 331.840165  L 675.605087 350.535686  L 678.993357 353.303074  L 682.381627 355.859227  L 685.769897 358.176677  L 689.158167 360.237692  L 692.546437 362.034601  L 695.934707 363.569401  L 699.322978 364.852753  L 702.711248 365.902495  L 706.099518 366.741821  L 709.487788 367.397314  L 712.876058 367.896984  L 719.652598 368.537813  L 726.429138 368.858806  L 736.593948 369.039613  L 750.147028 369.087461  L 750.147028 369.087461  " clip-path="url(#p5e3beb47d6)" style="fill: none; stroke: #000000; stroke-width: 1.5; stroke-linecap: round"/>
   </g>
   <g id="patch_9">
    <path d="M 44.28 369.0925  L 764.64 369.0925  " style="fill: none; stroke: #262626; stroke-width: 2; stroke-linejoin: miter; stroke-linecap: square"/>
   </g>
   <g id="text_8">
    <!-- parenchyma -->
    <g transform="translate(44.28 357.832188)scale(0.13 -0.13)">
     <defs>
      <path id="DejaVuSans-72" d="M 2631 2963  Q 2534 3019 2420 3045  Q 2306 3072 2169 3072  Q 1681 3072 1420 2755  Q 1159 2438 1159 1844  L 1159 0  L 581 0  L 581 3500  L 1159 3500  L 1159 2956  Q 1341 3275 1631 3429  Q 1922 3584 2338 3584  Q 2397 3584 2469 3576  Q 2541 3569 2628 3553  L 2631 2963  z " transform="scale(0.015625)"/>
     </defs>
     <use xlink:href="#DejaVuSans-70"/>
     <use xlink:href="#DejaVuSans-61" x="63.476562"/>
     <use xlink:href="#DejaVuSans-72" x="124.755859"/>
     <use xlink:href="#DejaVuSans-65" x="163.619141"/>
     <use xlink:href="#DejaVuSans-6e" x="225.142578"/>
     <use xlink:href="#DejaVuSans-63" x="288.521484"/>
     <use xlink:href="#DejaVuSans-68" x="343.501953"/>
     <use xlink:href="#DejaVuSans-79" x="406.880859"/>
     <use xlink:href="#DejaVuSans-6d" x="466.060547"/>
     <use xlink:href="#DejaVuSans-61" x="563.472656"/>
    </g>
   </g>
  </g>
  <g id="axes_5">
   <g id="patch_10">
    <path d="M 44.28 383.94  L 764.64 383.94  L 764.64 86.99  L 44.28 86.99  L 44.28 383.94  z " style="fill: none"/>
   </g>
   <g id="matplotlib.axis_9">
    <g id="xtick_37">
     <g id="text_9">
      <!-- 0.6 -->
      <g style="fill: #262626" transform="translate(70.944453 401.798281)scale(0.11 -0.11)">
       <defs>
        <path id="DejaVuSans-2212" d="M 678 2272  L 4684 2272  L 4684 1741  L 678 1741  L 678 2272  z " transform="scale(0.015625)"/>
        <path id="DejaVuSans-30" d="M 2034 4250  Q 1547 4250 1301 3770  Q 1056 3291 1056 2328  Q 1056 1369 1301 889  Q 1547 409 2034 409  Q 2525 409 2770 889  Q 3016 1369 3016 2328  Q 3016 3291 2770 3770  Q 2525 4250 2034 4250  z M 2034 4750  Q 2819 4750 3233 4129  Q 3647 3509 3647 2328  Q 3647 1150 3233 529  Q 2819 -91 2034 -91  Q 1250 -91 836 529  Q 422 1150 422 2328  Q 422 3509 836 4129  Q 1250 4750 2034 4750  z " transform="scale(0.015625)"/>
        <path id="DejaVuSans-2e" d="M 684 794  L 1344 794  L 1344 0  L 684 0  L 684 794  z " transform="scale(0.015625)"/>
        <path id="DejaVuSans-36" d="M 2113 2584  Q 1688 2584 1439 2293  Q 1191 2003 1191 1497  Q 1191 994 1439 701  Q 1688 409 2113 409  Q 2538 409 2786 701  Q 3034 994 3034 1497  Q 3034 2003 2786 2293  Q 2538 2584 2113 2584  z M 3366 4563  L 3366 3988  Q 3128 4100 2886 4159  Q 2644 4219 2406 4219  Q 1781 4219 1451 3797  Q 1122 3375 1075 2522  Q 1259 2794 1537 2939  Q 1816 3084 2150 3084  Q 2853 3084 3261 2657  Q 3669 2231 3669 1497  Q 3669 778 3244 343  Q 2819 -91 2113 -91  Q 1303 -91 875 529  Q 447 1150 447 2328  Q 447 3434 972 4092  Q 1497 4750 2381 4750  Q 2619 4750 2861 4703  Q 3103 4656 3366 4563  z " transform="scale(0.015625)"/>
       </defs>
       <use xlink:href="#DejaVuSans-2212"/>
       <use xlink:href="#DejaVuSans-30" x="83.789062"/>
       <use xlink:href="#DejaVuSans-2e" x="147.412109"/>
       <use xlink:href="#DejaVuSans-36" x="179.199219"/>
      </g>
     </g>
    </g>
    <g id="xtick_38">
     <g id="text_10">
      <!-- 0.4 -->
      <g style="fill: #262626" transform="translate(150.984453 401.798281)scale(0.11 -0.11)">
       <defs>
        <path id="DejaVuSans-34" d="M 2419 4116  L 825 1625  L 2419 1625  L 2419 4116  z M 2253 4666  L 3047 4666  L 3047 1625  L 3713 1625  L 3713 1100  L 3047 1100  L 3047 0  L 2419 0  L 2419 1100  L 313 1100  L 313 1709  L 2253 4666  z " transform="scale(0.015625)"/>
       </defs>
       <use xlink:href="#DejaVuSans-2212"/>
       <use xlink:href="#DejaVuSans-30" x="83.789062"/>
       <use xlink:href="#DejaVuSans-2e" x="147.412109"/>
       <use xlink:href="#DejaVuSans-34" x="179.199219"/>
      </g>
     </g>
    </g>
    <g id="xtick_39">
     <g id="text_11">
      <!-- 0.2 -->
      <g style="fill: #262626" transform="translate(231.024453 401.798281)scale(0.11 -0.11)">
       <defs>
        <path id="DejaVuSans-32" d="M 1228 531  L 3431 531  L 3431 0  L 469 0  L 469 531  Q 828 903 1448 1529  Q 2069 2156 2228 2338  Q 2531 2678 2651 2914  Q 2772 3150 2772 3378  Q 2772 3750 2511 3984  Q 2250 4219 1831 4219  Q 1534 4219 1204 4116  Q 875 4013 500 3803  L 500 4441  Q 881 4594 1212 4672  Q 1544 4750 1819 4750  Q 2544 4750 2975 4387  Q 3406 4025 3406 3419  Q 3406 3131 3298 2873  Q 3191 2616 2906 2266  Q 2828 2175 2409 1742  Q 1991 1309 1228 531  z " transform="scale(0.015625)"/>
       </defs>
       <use xlink:href="#DejaVuSans-2212"/>
       <use xlink:href="#DejaVuSans-30" x="83.789062"/>
       <use xlink:href="#DejaVuSans-2e" x="147.412109"/>
       <use xlink:href="#DejaVuSans-32" x="179.199219"/>
      </g>
     </g>
    </g>
    <g id="xtick_40">
     <g id="text_12">
      <!-- 0.0 -->
      <g style="fill: #262626" transform="translate(315.673281 401.798281)scale(0.11 -0.11)">
       <use xlink:href="#DejaVuSans-30"/>
       <use xlink:href="#DejaVuSans-2e" x="63.623047"/>
       <use xlink:href="#DejaVuSans-30" x="95.410156"/>
      </g>
     </g>
    </g>
    <g id="xtick_41">
     <g id="text_13">
      <!-- 0.2 -->
      <g style="fill: #262626" transform="translate(395.713281 401.798281)scale(0.11 -0.11)">
       <use xlink:href="#DejaVuSans-30"/>
       <use xlink:href="#DejaVuSans-2e" x="63.623047"/>
       <use xlink:href="#DejaVuSans-32" x="95.410156"/>
      </g>
     </g>
    </g>
    <g id="xtick_42">
     <g id="text_14">
      <!-- 0.4 -->
      <g style="fill: #262626" transform="translate(475.753281 401.798281)scale(0.11 -0.11)">
       <use xlink:href="#DejaVuSans-30"/>
       <use xlink:href="#DejaVuSans-2e" x="63.623047"/>
       <use xlink:href="#DejaVuSans-34" x="95.410156"/>
      </g>
     </g>
    </g>
    <g id="xtick_43">
     <g id="text_15">
      <!-- 0.6 -->
      <g style="fill: #262626" transform="translate(555.793281 401.798281)scale(0.11 -0.11)">
       <use xlink:href="#DejaVuSans-30"/>
       <use xlink:href="#DejaVuSans-2e" x="63.623047"/>
       <use xlink:href="#DejaVuSans-36" x="95.410156"/>
      </g>
     </g>
    </g>
    <g id="xtick_44">
     <g id="text_16">
      <!-- 0.8 -->
      <g style="fill: #262626" transform="translate(635.833281 401.798281)scale(0.11 -0.11)">
       <defs>
        <path id="DejaVuSans-38" d="M 2034 2216  Q 1584 2216 1326 1975  Q 1069 1734 1069 1313  Q 1069 891 1326 650  Q 1584 409 2034 409  Q 2484 409 2743 651  Q 3003 894 3003 1313  Q 3003 1734 2745 1975  Q 2488 2216 2034 2216  z M 1403 2484  Q 997 2584 770 2862  Q 544 3141 544 3541  Q 544 4100 942 4425  Q 1341 4750 2034 4750  Q 2731 4750 3128 4425  Q 3525 4100 3525 3541  Q 3525 3141 3298 2862  Q 3072 2584 2669 2484  Q 3125 2378 3379 2068  Q 3634 1759 3634 1313  Q 3634 634 3220 271  Q 2806 -91 2034 -91  Q 1263 -91 848 271  Q 434 634 434 1313  Q 434 1759 690 2068  Q 947 2378 1403 2484  z M 1172 3481  Q 1172 3119 1398 2916  Q 1625 2713 2034 2713  Q 2441 2713 2670 2916  Q 2900 3119 2900 3481  Q 2900 3844 2670 4047  Q 2441 4250 2034 4250  Q 1625 4250 1398 4047  Q 1172 3844 1172 3481  z " transform="scale(0.015625)"/>
       </defs>
       <use xlink:href="#DejaVuSans-30"/>
       <use xlink:href="#DejaVuSans-2e" x="63.623047"/>
       <use xlink:href="#DejaVuSans-38" x="95.410156"/>
      </g>
     </g>
    </g>
    <g id="xtick_45">
     <g id="text_17">
      <!-- 1.0 -->
      <g style="fill: #262626" transform="translate(715.873281 401.798281)scale(0.11 -0.11)">
       <defs>
        <path id="DejaVuSans-31" d="M 794 531  L 1825 531  L 1825 4091  L 703 3866  L 703 4441  L 1819 4666  L 2450 4666  L 2450 531  L 3481 531  L 3481 0  L 794 0  L 794 531  z " transform="scale(0.015625)"/>
       </defs>
       <use xlink:href="#DejaVuSans-31"/>
       <use xlink:href="#DejaVuSans-2e" x="63.623047"/>
       <use xlink:href="#DejaVuSans-30" x="95.410156"/>
      </g>
     </g>
    </g>
    <g id="text_18">
     <!--  Smed all other cell types SHAP correlation to neural -->
     <g style="fill: #262626" transform="translate(246.928125 417.204063)scale(0.12 -0.12)">
      <defs>
       <path id="DejaVuSans-20" transform="scale(0.015625)"/>
       <path id="DejaVuSans-53" d="M 3425 4513  L 3425 3897  Q 3066 4069 2747 4153  Q 2428 4238 2131 4238  Q 1616 4238 1336 4038  Q 1056 3838 1056 3469  Q 1056 3159 1242 3001  Q 1428 2844 1947 2747  L 2328 2669  Q 3034 2534 3370 2195  Q 3706 1856 3706 1288  Q 3706 609 3251 259  Q 2797 -91 1919 -91  Q 1588 -91 1214 -16  Q 841 59 441 206  L 441 856  Q 825 641 1194 531  Q 1563 422 1919 422  Q 2459 422 2753 634  Q 3047 847 3047 1241  Q 3047 1584 2836 1778  Q 2625 1972 2144 2069  L 1759 2144  Q 1053 2284 737 2584  Q 422 2884 422 3419  Q 422 4038 858 4394  Q 1294 4750 2059 4750  Q 2388 4750 2728 4690  Q 3069 4631 3425 4513  z " transform="scale(0.015625)"/>
       <path id="DejaVuSans-64" d="M 2906 2969  L 2906 4863  L 3481 4863  L 3481 0  L 2906 0  L 2906 525  Q 2725 213 2448 61  Q 2172 -91 1784 -91  Q 1150 -91 751 415  Q 353 922 353 1747  Q 353 2572 751 3078  Q 1150 3584 1784 3584  Q 2172 3584 2448 3432  Q 2725 3281 2906 2969  z M 947 1747  Q 947 1113 1208 752  Q 1469 391 1925 391  Q 2381 391 2643 752  Q 2906 1113 2906 1747  Q 2906 2381 2643 2742  Q 2381 3103 1925 3103  Q 1469 3103 1208 2742  Q 947 2381 947 1747  z " transform="scale(0.015625)"/>
       <path id="DejaVuSans-6c" d="M 603 4863  L 1178 4863  L 1178 0  L 603 0  L 603 4863  z " transform="scale(0.015625)"/>
       <path id="DejaVuSans-6f" d="M 1959 3097  Q 1497 3097 1228 2736  Q 959 2375 959 1747  Q 959 1119 1226 758  Q 1494 397 1959 397  Q 2419 397 2687 759  Q 2956 1122 2956 1747  Q 2956 2369 2687 2733  Q 2419 3097 1959 3097  z M 1959 3584  Q 2709 3584 3137 3096  Q 3566 2609 3566 1747  Q 3566 888 3137 398  Q 2709 -91 1959 -91  Q 1206 -91 779 398  Q 353 888 353 1747  Q 353 2609 779 3096  Q 1206 3584 1959 3584  z " transform="scale(0.015625)"/>
       <path id="DejaVuSans-48" d="M 628 4666  L 1259 4666  L 1259 2753  L 3553 2753  L 3553 4666  L 4184 4666  L 4184 0  L 3553 0  L 3553 2222  L 1259 2222  L 1259 0  L 628 0  L 628 4666  z " transform="scale(0.015625)"/>
       <path id="DejaVuSans-41" d="M 2188 4044  L 1331 1722  L 3047 1722  L 2188 4044  z M 1831 4666  L 2547 4666  L 4325 0  L 3669 0  L 3244 1197  L 1141 1197  L 716 0  L 50 0  L 1831 4666  z " transform="scale(0.015625)"/>
       <path id="DejaVuSans-50" d="M 1259 4147  L 1259 2394  L 2053 2394  Q 2494 2394 2734 2622  Q 2975 2850 2975 3272  Q 2975 3691 2734 3919  Q 2494 4147 2053 4147  L 1259 4147  z M 628 4666  L 2053 4666  Q 2838 4666 3239 4311  Q 3641 3956 3641 3272  Q 3641 2581 3239 2228  Q 2838 1875 2053 1875  L 1259 1875  L 1259 0  L 628 0  L 628 4666  z " transform="scale(0.015625)"/>
      </defs>
      <use xlink:href="#DejaVuSans-20"/>
      <use xlink:href="#DejaVuSans-53" x="31.787109"/>
      <use xlink:href="#DejaVuSans-6d" x="95.263672"/>
      <use xlink:href="#DejaVuSans-65" x="192.675781"/>
      <use xlink:href="#DejaVuSans-64" x="254.199219"/>
      <use xlink:href="#DejaVuSans-20" x="317.675781"/>
      <use xlink:href="#DejaVuSans-61" x="349.462891"/>
      <use xlink:href="#DejaVuSans-6c" x="410.742188"/>
      <use xlink:href="#DejaVuSans-6c" x="438.525391"/>
      <use xlink:href="#DejaVuSans-20" x="466.308594"/>
      <use xlink:href="#DejaVuSans-6f" x="498.095703"/>
      <use xlink:href="#DejaVuSans-74" x="559.277344"/>
      <use xlink:href="#DejaVuSans-68" x="598.486328"/>
      <use xlink:href="#DejaVuSans-65" x="661.865234"/>
      <use xlink:href="#DejaVuSans-72" x="723.388672"/>
      <use xlink:href="#DejaVuSans-20" x="764.501953"/>
      <use xlink:href="#DejaVuSans-63" x="796.289062"/>
      <use xlink:href="#DejaVuSans-65" x="851.269531"/>
      <use xlink:href="#DejaVuSans-6c" x="912.792969"/>
      <use xlink:href="#DejaVuSans-6c" x="940.576172"/>
      <use xlink:href="#DejaVuSans-20" x="968.359375"/>
      <use xlink:href="#DejaVuSans-74" x="1000.146484"/>
      <use xlink:href="#DejaVuSans-79" x="1039.355469"/>
      <use xlink:href="#DejaVuSans-70" x="1098.535156"/>
      <use xlink:href="#DejaVuSans-65" x="1162.011719"/>
      <use xlink:href="#DejaVuSans-73" x="1223.535156"/>
      <use xlink:href="#DejaVuSans-20" x="1275.634766"/>
      <use xlink:href="#DejaVuSans-53" x="1307.421875"/>
      <use xlink:href="#DejaVuSans-48" x="1370.898438"/>
      <use xlink:href="#DejaVuSans-41" x="1446.09375"/>
      <use xlink:href="#DejaVuSans-50" x="1514.501953"/>
      <use xlink:href="#DejaVuSans-20" x="1574.804688"/>
      <use xlink:href="#DejaVuSans-63" x="1606.591797"/>
      <use xlink:href="#DejaVuSans-6f" x="1661.572266"/>
      <use xlink:href="#DejaVuSans-72" x="1722.753906"/>
      <use xlink:href="#DejaVuSans-72" x="1762.117188"/>
      <use xlink:href="#DejaVuSans-65" x="1800.980469"/>
      <use xlink:href="#DejaVuSans-6c" x="1862.503906"/>
      <use xlink:href="#DejaVuSans-61" x="1890.287109"/>
      <use xlink:href="#DejaVuSans-74" x="1951.566406"/>
      <use xlink:href="#DejaVuSans-69" x="1990.775391"/>
      <use xlink:href="#DejaVuSans-6f" x="2018.558594"/>
      <use xlink:href="#DejaVuSans-6e" x="2079.740234"/>
      <use xlink:href="#DejaVuSans-20" x="2143.119141"/>
      <use xlink:href="#DejaVuSans-74" x="2174.90625"/>
      <use xlink:href="#DejaVuSans-6f" x="2214.115234"/>
      <use xlink:href="#DejaVuSans-20" x="2275.296875"/>
      <use xlink:href="#DejaVuSans-6e" x="2307.083984"/>
      <use xlink:href="#DejaVuSans-65" x="2370.462891"/>
      <use xlink:href="#DejaVuSans-75" x="2431.986328"/>
      <use xlink:href="#DejaVuSans-72" x="2495.365234"/>
      <use xlink:href="#DejaVuSans-61" x="2536.478516"/>
      <use xlink:href="#DejaVuSans-6c" x="2597.757812"/>
     </g>
    </g>
   </g>
   <g id="matplotlib.axis_10">
    <g id="text_19">
     <!-- Density -->
     <g style="fill: #262626" transform="translate(37.784375 258.275313)rotate(-90)scale(0.12 -0.12)">
      <use xlink:href="#DejaVuSans-44"/>
      <use xlink:href="#DejaVuSans-65" x="77.001953"/>
      <use xlink:href="#DejaVuSans-6e" x="138.525391"/>
      <use xlink:href="#DejaVuSans-73" x="201.904297"/>
      <use xlink:href="#DejaVuSans-69" x="254.003906"/>
      <use xlink:href="#DejaVuSans-74" x="281.787109"/>
      <use xlink:href="#DejaVuSans-79" x="320.996094"/>
     </g>
    </g>
   </g>
   <g id="PolyCollection_5">
    <defs>
     <path id="m7440a63fee" d="M 98.731961 -48.063697  L 98.731961 -48.06  L 101.960381 -48.06  L 105.188802 -48.06  L 108.417223 -48.06  L 111.645644 -48.06  L 114.874065 -48.06  L 118.102485 -48.06  L 121.330906 -48.06  L 124.559327 -48.06  L 127.787748 -48.06  L 131.016169 -48.06  L 134.244589 -48.06  L 137.47301 -48.06  L 140.701431 -48.06  L 143.929852 -48.06  L 147.158273 -48.06  L 150.386693 -48.06  L 153.615114 -48.06  L 156.843535 -48.06  L 160.071956 -48.06  L 163.300376 -48.06  L 166.528797 -48.06  L 169.757218 -48.06  L 172.985639 -48.06  L 176.21406 -48.06  L 179.44248 -48.06  L 182.670901 -48.06  L 185.899322 -48.06  L 189.127743 -48.06  L 192.356164 -48.06  L 195.584584 -48.06  L 198.813005 -48.06  L 202.041426 -48.06  L 205.269847 -48.06  L 208.498268 -48.06  L 211.726688 -48.06  L 214.955109 -48.06  L 218.18353 -48.06  L 221.411951 -48.06  L 224.640372 -48.06  L 227.868792 -48.06  L 231.097213 -48.06  L 234.325634 -48.06  L 237.554055 -48.06  L 240.782475 -48.06  L 244.010896 -48.06  L 247.239317 -48.06  L 250.467738 -48.06  L 253.696159 -48.06  L 256.924579 -48.06  L 260.153 -48.06  L 263.381421 -48.06  L 266.609842 -48.06  L 269.838263 -48.06  L 273.066683 -48.06  L 276.295104 -48.06  L 279.523525 -48.06  L 282.751946 -48.06  L 285.980367 -48.06  L 289.208787 -48.06  L 292.437208 -48.06  L 295.665629 -48.06  L 298.89405 -48.06  L 302.122471 -48.06  L 305.350891 -48.06  L 308.579312 -48.06  L 311.807733 -48.06  L 315.036154 -48.06  L 318.264574 -48.06  L 321.492995 -48.06  L 324.721416 -48.06  L 327.949837 -48.06  L 331.178258 -48.06  L 334.406678 -48.06  L 337.635099 -48.06  L 340.86352 -48.06  L 344.091941 -48.06  L 347.320362 -48.06  L 350.548782 -48.06  L 353.777203 -48.06  L 357.005624 -48.06  L 360.234045 -48.06  L 363.462466 -48.06  L 366.690886 -48.06  L 369.919307 -48.06  L 373.147728 -48.06  L 376.376149 -48.06  L 379.60457 -48.06  L 382.83299 -48.06  L 386.061411 -48.06  L 389.289832 -48.06  L 392.518253 -48.06  L 395.746673 -48.06  L 398.975094 -48.06  L 402.203515 -48.06  L 405.431936 -48.06  L 408.660357 -48.06  L 411.888777 -48.06  L 415.117198 -48.06  L 418.345619 -48.06  L 421.57404 -48.06  L 424.802461 -48.06  L 428.030881 -48.06  L 431.259302 -48.06  L 434.487723 -48.06  L 437.716144 -48.06  L 440.944565 -48.06  L 444.172985 -48.06  L 447.401406 -48.06  L 450.629827 -48.06  L 453.858248 -48.06  L 457.086669 -48.06  L 460.315089 -48.06  L 463.54351 -48.06  L 466.771931 -48.06  L 470.000352 -48.06  L 473.228772 -48.06  L 476.457193 -48.06  L 479.685614 -48.06  L 482.914035 -48.06  L 486.142456 -48.06  L 489.370876 -48.06  L 492.599297 -48.06  L 495.827718 -48.06  L 499.056139 -48.06  L 502.28456 -48.06  L 505.51298 -48.06  L 508.741401 -48.06  L 511.969822 -48.06  L 515.198243 -48.06  L 518.426664 -48.06  L 521.655084 -48.06  L 524.883505 -48.06  L 528.111926 -48.06  L 531.340347 -48.06  L 534.568768 -48.06  L 537.797188 -48.06  L 541.025609 -48.06  L 544.25403 -48.06  L 547.482451 -48.06  L 550.710871 -48.06  L 553.939292 -48.06  L 557.167713 -48.06  L 560.396134 -48.06  L 563.624555 -48.06  L 566.852975 -48.06  L 570.081396 -48.06  L 573.309817 -48.06  L 576.538238 -48.06  L 579.766659 -48.06  L 582.995079 -48.06  L 586.2235 -48.06  L 589.451921 -48.06  L 592.680342 -48.06  L 595.908763 -48.06  L 599.137183 -48.06  L 602.365604 -48.06  L 605.594025 -48.06  L 608.822446 -48.06  L 612.050867 -48.06  L 615.279287 -48.06  L 618.507708 -48.06  L 621.736129 -48.06  L 624.96455 -48.06  L 628.19297 -48.06  L 631.421391 -48.06  L 634.649812 -48.06  L 637.878233 -48.06  L 641.106654 -48.06  L 644.335074 -48.06  L 647.563495 -48.06  L 650.791916 -48.06  L 654.020337 -48.06  L 657.248758 -48.06  L 660.477178 -48.06  L 663.705599 -48.06  L 666.93402 -48.06  L 670.162441 -48.06  L 673.390862 -48.06  L 676.619282 -48.06  L 679.847703 -48.06  L 683.076124 -48.06  L 686.304545 -48.06  L 689.532966 -48.06  L 692.761386 -48.06  L 695.989807 -48.06  L 699.218228 -48.06  L 702.446649 -48.06  L 705.675069 -48.06  L 708.90349 -48.06  L 712.131911 -48.06  L 715.360332 -48.06  L 718.588753 -48.06  L 721.817173 -48.06  L 725.045594 -48.06  L 728.274015 -48.06  L 731.502436 -48.06  L 734.730857 -48.06  L 737.959277 -48.06  L 741.187698 -48.06  L 741.187698 -48.065542  L 741.187698 -48.065542  L 737.959277 -48.070014  L 734.730857 -48.077579  L 731.502436 -48.090004  L 728.274015 -48.109823  L 725.045594 -48.140559  L 721.817173 -48.186952  L 718.588753 -48.255189  L 715.360332 -48.353125  L 712.131911 -48.490496  L 708.90349 -48.679097  L 705.675069 -48.932944  L 702.446649 -49.26838  L 699.218228 -49.704081  L 695.989807 -50.2609  L 692.761386 -50.961436  L 689.532966 -51.829243  L 686.304545 -52.887597  L 683.076124 -54.157843  L 679.847703 -55.657427  L 676.619282 -57.397847  L 673.390862 -59.382832  L 670.162441 -61.607098  L 666.93402 -64.055943  L 663.705599 -66.705817  L 660.477178 -69.52583  L 657.248758 -72.479932  L 654.020337 -75.529416  L 650.791916 -78.635313  L 647.563495 -81.760339  L 644.335074 -84.870164  L 641.106654 -87.933999  L 637.878233 -90.924637  L 634.649812 -93.818223  L 631.421391 -96.594063  L 628.19297 -99.23472  L 624.96455 -101.72653  L 621.736129 -104.060495  L 618.507708 -106.233364  L 615.279287 -108.248647  L 612.050867 -110.117252  L 608.822446 -111.857554  L 605.594025 -113.494826  L 602.365604 -115.060096  L 599.137183 -116.588637  L 595.908763 -118.118314  L 592.680342 -119.687979  L 589.451921 -121.336017  L 586.2235 -123.099003  L 582.995079 -125.010357  L 579.766659 -127.098824  L 576.538238 -129.386679  L 573.309817 -131.887661  L 570.081396 -134.6048  L 566.852975 -137.52853  L 563.624555 -140.63556  L 560.396134 -143.889097  L 557.167713 -147.240849  L 553.939292 -150.63504  L 550.710871 -154.014239  L 547.482451 -157.326353  L 544.25403 -160.531707  L 541.025609 -163.60893  L 537.797188 -166.558335  L 534.568768 -169.40186  L 531.340347 -172.179193  L 528.111926 -174.940424  L 524.883505 -177.736284  L 521.655084 -180.607552  L 518.426664 -183.575484  L 515.198243 -186.635046  L 511.969822 -189.752362  L 508.741401 -192.867122  L 505.51298 -195.899894  L 502.28456 -198.763397  L 499.056139 -201.376007  L 495.827718 -203.675203  L 492.599297 -205.628471  L 489.370876 -207.239433  L 486.142456 -208.547737  L 482.914035 -209.622346  L 479.685614 -210.549199  L 476.457193 -211.415426  L 473.228772 -212.293108  L 470.000352 -213.225811  L 466.771931 -214.220546  L 463.54351 -215.246737  L 460.315089 -216.242206  L 457.086669 -217.124744  L 453.858248 -217.806649  L 450.629827 -218.209206  L 447.401406 -218.27427  L 444.172985 -217.971097  L 440.944565 -217.297729  L 437.716144 -216.277531  L 434.487723 -214.952337  L 431.259302 -213.374049  L 428.030881 -211.596408  L 424.802461 -209.668135  L 421.57404 -207.628057  L 418.345619 -205.502296  L 415.117198 -203.303347  L 411.888777 -201.030774  L 408.660357 -198.673349  L 405.431936 -196.212449  L 402.203515 -193.626497  L 398.975094 -190.896045  L 395.746673 -188.00889  L 392.518253 -184.964457  L 389.289832 -181.77671  L 386.061411 -178.47504  L 382.83299 -175.102908  L 379.60457 -171.714428  L 376.376149 -168.369407  L 373.147728 -165.127614  L 369.919307 -162.043105  L 366.690886 -159.159379  L 363.462466 -156.505959  L 360.234045 -154.096712  L 357.005624 -151.929948  L 353.777203 -149.990066  L 350.548782 -148.250283  L 347.320362 -146.675865  L 344.091941 -145.227273  L 340.86352 -143.862745  L 337.635099 -142.540026  L 334.406678 -141.21723  L 331.178258 -139.853046  L 327.949837 -138.406655  L 324.721416 -136.837826  L 321.492995 -135.107604  L 318.264574 -133.179865  L 315.036154 -131.023819  L 311.807733 -128.617286  L 308.579312 -125.950324  L 305.350891 -123.028589  L 302.122471 -119.875696  L 298.89405 -116.533874  L 295.665629 -113.062405  L 292.437208 -109.533684  L 289.208787 -106.02718  L 285.980367 -102.622055  L 282.751946 -99.389513  L 279.523525 -96.386135  L 276.295104 -93.649277  L 273.066683 -91.195243  L 269.838263 -89.020368  L 266.609842 -87.104571  L 263.381421 -85.416453  L 260.153 -83.918799  L 256.924579 -82.573419  L 253.696159 -81.344574  L 250.467738 -80.200715  L 247.239317 -79.114705  L 244.010896 -78.06304  L 240.782475 -77.02472  L 237.554055 -75.980342  L 234.325634 -74.91178  L 231.097213 -73.802569  L 227.868792 -72.638855  L 224.640372 -71.410652  L 221.411951 -70.113088  L 218.18353 -68.747343  L 214.955109 -67.321086  L 211.726688 -65.848283  L 208.498268 -64.348353  L 205.269847 -62.844757  L 202.041426 -61.363136  L 198.813005 -59.929213  L 195.584584 -58.566687  L 192.356164 -57.295381  L 189.127743 -56.129845  L 185.899322 -55.078588  L 182.670901 -54.143984  L 179.44248 -53.322834  L 176.21406 -52.607433  L 172.985639 -51.986964  L 169.757218 -51.448991  L 166.528797 -50.980856  L 163.300376 -50.570821  L 160.071956 -50.208857  L 156.843535 -49.887051  L 153.615114 -49.599663  L 150.386693 -49.342896  L 147.158273 -49.114469  L 143.929852 -48.913097  L 140.701431 -48.737968  L 137.47301 -48.588293  L 134.244589 -48.462987  L 131.016169 -48.360493  L 127.787748 -48.278755  L 124.559327 -48.215303  L 121.330906 -48.167419  L 118.102485 -48.132326  L 114.874065 -48.10737  L 111.645644 -48.09016  L 108.417223 -48.078656  L 105.188802 -48.071207  L 101.960381 -48.066535  L 98.731961 -48.063697  z " style="stroke: #a6d854"/>
    </defs>
    <g clip-path="url(#pe7f6240ddb)">
     <use xlink:href="#m7440a63fee" x="0" y="432" style="fill: #a6d854; stroke: #a6d854"/>
    </g>
   </g>
   <g id="line2d_5">
    <path d="M 98.731961 383.936303  L 121.330906 383.832581  L 134.244589 383.537013  L 143.929852 383.086903  L 153.615114 382.400337  L 163.300376 381.429179  L 169.757218 380.551009  L 176.21406 379.392567  L 182.670901 377.856016  L 185.899322 376.921412  L 192.356164 374.704619  L 198.813005 372.070787  L 208.498268 367.651647  L 218.18353 363.252657  L 224.640372 360.589348  L 231.097213 358.197431  L 240.782475 354.97528  L 250.467738 351.799285  L 256.924579 349.426581  L 260.153 348.081201  L 263.381421 346.583547  L 266.609842 344.895429  L 269.838263 342.979632  L 273.066683 340.804757  L 276.295104 338.350723  L 279.523525 335.613865  L 282.751946 332.610487  L 285.980367 329.377945  L 292.437208 322.466316  L 298.89405 315.466126  L 302.122471 312.124304  L 305.350891 308.971411  L 308.579312 306.049676  L 311.807733 303.382714  L 315.036154 300.976181  L 318.264574 298.820135  L 321.492995 296.892396  L 324.721416 295.162174  L 331.178258 292.146954  L 347.320362 285.324135  L 350.548782 283.749717  L 353.777203 282.009934  L 357.005624 280.070052  L 360.234045 277.903288  L 363.462466 275.494041  L 366.690886 272.840621  L 369.919307 269.956895  L 373.147728 266.872386  L 379.60457 260.285572  L 389.289832 250.22329  L 395.746673 243.99111  L 398.975094 241.103955  L 405.431936 235.787551  L 411.888777 230.969226  L 418.345619 226.497704  L 424.802461 222.331865  L 428.030881 220.403592  L 431.259302 218.625951  L 434.487723 217.047663  L 437.716144 215.722469  L 440.944565 214.702271  L 444.172985 214.028903  L 447.401406 213.72573  L 450.629827 213.790794  L 453.858248 214.193351  L 457.086669 214.875256  L 463.54351 216.753263  L 470.000352 218.774189  L 476.457193 220.584574  L 482.914035 222.377654  L 486.142456 223.452263  L 489.370876 224.760567  L 492.599297 226.371529  L 495.827718 228.324797  L 499.056139 230.623993  L 502.28456 233.236603  L 505.51298 236.100106  L 511.969822 242.247638  L 518.426664 248.424516  L 524.883505 254.263716  L 537.797188 265.441665  L 544.25403 271.468293  L 550.710871 277.985761  L 563.624555 291.36444  L 566.852975 294.47147  L 570.081396 297.3952  L 573.309817 300.112339  L 576.538238 302.613321  L 579.766659 304.901176  L 582.995079 306.989643  L 586.2235 308.900997  L 592.680342 312.312021  L 608.822446 320.142446  L 612.050867 321.882748  L 615.279287 323.751353  L 618.507708 325.766636  L 621.736129 327.939505  L 624.96455 330.27347  L 628.19297 332.76528  L 634.649812 338.181777  L 641.106654 344.066001  L 660.477178 362.47417  L 663.705599 365.294183  L 666.93402 367.944057  L 670.162441 370.392902  L 673.390862 372.617168  L 676.619282 374.602153  L 679.847703 376.342573  L 683.076124 377.842157  L 686.304545 379.112403  L 689.532966 380.170757  L 692.761386 381.038564  L 695.989807 381.7391  L 699.218228 382.295919  L 705.675069 383.067056  L 712.131911 383.509504  L 721.817173 383.813048  L 734.730857 383.922421  L 741.187698 383.934458  L 741.187698 383.934458  " clip-path="url(#pe7f6240ddb)" style="fill: none; stroke: #000000; stroke-width: 1.5; stroke-linecap: round"/>
   </g>
   <g id="patch_11">
    <path d="M 44.28 383.94  L 764.64 383.94  " style="fill: none; stroke: #262626; stroke-width: 2; stroke-linejoin: miter; stroke-linecap: square"/>
   </g>
   <g id="text_20">
    <!-- muscle -->
    <g transform="translate(44.28 372.679688)scale(0.13 -0.13)">
     <use xlink:href="#DejaVuSans-6d"/>
     <use xlink:href="#DejaVuSans-75" x="97.412109"/>
     <use xlink:href="#DejaVuSans-73" x="160.791016"/>
     <use xlink:href="#DejaVuSans-63" x="212.890625"/>
     <use xlink:href="#DejaVuSans-6c" x="267.871094"/>
     <use xlink:href="#DejaVuSans-65" x="295.654297"/>
    </g>
   </g>
  </g>
 </g>
 <defs>
  <clipPath id="p5670e3f724">
   <rect x="44.28" y="27.6" width="720.36" height="296.95"/>
  </clipPath>
  <clipPath id="pcff4bcd79d">
   <rect x="44.28" y="42.4475" width="720.36" height="296.95"/>
  </clipPath>
  <clipPath id="p10ceaa320c">
   <rect x="44.28" y="57.295" width="720.36" height="296.95"/>
  </clipPath>
  <clipPath id="p5e3beb47d6">
   <rect x="44.28" y="72.1425" width="720.36" height="296.95"/>
  </clipPath>
  <clipPath id="pe7f6240ddb">
   <rect x="44.28" y="86.99" width="720.36" height="296.95"/>
  </clipPath>
 </defs>
</svg>