<?xml version="1.0" encoding="UTF-8" standalone="no"?>
<!DOCTYPE svg PUBLIC "-//W3C//DTD SVG 1.1//EN" "http://www.w3.org/Graphics/SVG/1.1/DTD/svg11.dtd">
<svg xmlns:xlink="http://www.w3.org/1999/xlink" width="777.6pt" height="345.6pt" viewBox="0 0 777.6 345.6" xmlns="http://www.w3.org/2000/svg" version="1.1">
 <metadata>
  <rdf:RDF xmlns:dc="http://purl.org/dc/elements/1.1/" xmlns:cc="http://creativecommons.org/ns#" xmlns:rdf="http://www.w3.org/1999/02/22-rdf-syntax-ns#">
   <cc:Work>
    <dc:type rdf:resource="http://purl.org/dc/dcmitype/StillImage"/>
    <dc:date>2024-08-05T22:22:48.680972</dc:date>
    <dc:format>image/svg+xml</dc:format>
    <dc:creator>
     <cc:Agent>
      <dc:title>Matplotlib v3.5.1, https://matplotlib.org/</dc:title>
     </cc:Agent>
    </dc:creator>
   </cc:Work>
  </rdf:RDF>
 </metadata>
 <defs>
  <style type="text/css">*{stroke-linejoin: round; stroke-linecap: butt}</style>
 </defs>
 <g id="figure_1">
  <g id="patch_1">
   <path d="M 0 345.6  L 777.6 345.6  L 777.6 0  L 0 0  z " style="fill: #ffffff"/>
  </g>
  <g id="axes_1">
   <g id="patch_2">
    <path d="M 44.28 262.330435  L 764.64 262.330435  L 764.64 27.6  L 44.28 27.6  L 44.28 262.330435  z " style="fill: none"/>
   </g>
   <g id="matplotlib.axis_1">
    <g id="xtick_1"/>
    <g id="xtick_2"/>
    <g id="xtick_3"/>
    <g id="xtick_4"/>
    <g id="xtick_5"/>
    <g id="xtick_6"/>
    <g id="xtick_7"/>
    <g id="xtick_8"/>
    <g id="xtick_9"/>
   </g>
   <g id="matplotlib.axis_2">
    <g id="text_1">
     <!-- Density -->
     <g style="fill: #262626" transform="translate(37.784375 167.77553)rotate(-90)scale(0.12 -0.12)">
      <defs>
       <path id="DejaVuSans-44" d="M 1259 4147  L 1259 519  L 2022 519  Q 2988 519 3436 956  Q 3884 1394 3884 2338  Q 3884 3275 3436 3711  Q 2988 4147 2022 4147  L 1259 4147  z M 628 4666  L 1925 4666  Q 3281 4666 3915 4102  Q 4550 3538 4550 2338  Q 4550 1131 3912 565  Q 3275 0 1925 0  L 628 0  L 628 4666  z " transform="scale(0.015625)"/>
       <path id="DejaVuSans-65" d="M 3597 1894  L 3597 1613  L 953 1613  Q 991 1019 1311 708  Q 1631 397 2203 397  Q 2534 397 2845 478  Q 3156 559 3463 722  L 3463 178  Q 3153 47 2828 -22  Q 2503 -91 2169 -91  Q 1331 -91 842 396  Q 353 884 353 1716  Q 353 2575 817 3079  Q 1281 3584 2069 3584  Q 2775 3584 3186 3129  Q 3597 2675 3597 1894  z M 3022 2063  Q 3016 2534 2758 2815  Q 2500 3097 2075 3097  Q 1594 3097 1305 2825  Q 1016 2553 972 2059  L 3022 2063  z " transform="scale(0.015625)"/>
       <path id="DejaVuSans-6e" d="M 3513 2113  L 3513 0  L 2938 0  L 2938 2094  Q 2938 2591 2744 2837  Q 2550 3084 2163 3084  Q 1697 3084 1428 2787  Q 1159 2491 1159 1978  L 1159 0  L 581 0  L 581 3500  L 1159 3500  L 1159 2956  Q 1366 3272 1645 3428  Q 1925 3584 2291 3584  Q 2894 3584 3203 3211  Q 3513 2838 3513 2113  z " transform="scale(0.015625)"/>
       <path id="DejaVuSans-73" d="M 2834 3397  L 2834 2853  Q 2591 2978 2328 3040  Q 2066 3103 1784 3103  Q 1356 3103 1142 2972  Q 928 2841 928 2578  Q 928 2378 1081 2264  Q 1234 2150 1697 2047  L 1894 2003  Q 2506 1872 2764 1633  Q 3022 1394 3022 966  Q 3022 478 2636 193  Q 2250 -91 1575 -91  Q 1294 -91 989 -36  Q 684 19 347 128  L 347 722  Q 666 556 975 473  Q 1284 391 1588 391  Q 1994 391 2212 530  Q 2431 669 2431 922  Q 2431 1156 2273 1281  Q 2116 1406 1581 1522  L 1381 1569  Q 847 1681 609 1914  Q 372 2147 372 2553  Q 372 3047 722 3315  Q 1072 3584 1716 3584  Q 2034 3584 2315 3537  Q 2597 3491 2834 3397  z " transform="scale(0.015625)"/>
       <path id="DejaVuSans-69" d="M 603 3500  L 1178 3500  L 1178 0  L 603 0  L 603 3500  z M 603 4863  L 1178 4863  L 1178 4134  L 603 4134  L 603 4863  z " transform="scale(0.015625)"/>
       <path id="DejaVuSans-74" d="M 1172 4494  L 1172 3500  L 2356 3500  L 2356 3053  L 1172 3053  L 1172 1153  Q 1172 725 1289 603  Q 1406 481 1766 481  L 2356 481  L 2356 0  L 1766 0  Q 1100 0 847 248  Q 594 497 594 1153  L 594 3053  L 172 3053  L 172 3500  L 594 3500  L 594 4494  L 1172 4494  z " transform="scale(0.015625)"/>
       <path id="DejaVuSans-79" d="M 2059 -325  Q 1816 -950 1584 -1140  Q 1353 -1331 966 -1331  L 506 -1331  L 506 -850  L 844 -850  Q 1081 -850 1212 -737  Q 1344 -625 1503 -206  L 1606 56  L 191 3500  L 800 3500  L 1894 763  L 2988 3500  L 3597 3500  L 2059 -325  z " transform="scale(0.015625)"/>
      </defs>
      <use xlink:href="#DejaVuSans-44"/>
      <use xlink:href="#DejaVuSans-65" x="77.001953"/>
      <use xlink:href="#DejaVuSans-6e" x="138.525391"/>
      <use xlink:href="#DejaVuSans-73" x="201.904297"/>
      <use xlink:href="#DejaVuSans-69" x="254.003906"/>
      <use xlink:href="#DejaVuSans-74" x="281.787109"/>
      <use xlink:href="#DejaVuSans-79" x="320.996094"/>
     </g>
    </g>
   </g>
   <g id="PolyCollection_1">
    <defs>
     <path id="mf9e6ffe5e7" d="M 36.251302 -83.271503  L 36.251302 -83.269565  L 39.939855 -83.269565  L 43.628408 -83.269565  L 47.316962 -83.269565  L 51.005515 -83.269565  L 54.694068 -83.269565  L 58.382622 -83.269565  L 62.071175 -83.269565  L 65.759728 -83.269565  L 69.448282 -83.269565  L 73.136835 -83.269565  L 76.825388 -83.269565  L 80.513942 -83.269565  L 84.202495 -83.269565  L 87.891048 -83.269565  L 91.579602 -83.269565  L 95.268155 -83.269565  L 98.956708 -83.269565  L 102.645261 -83.269565  L 106.333815 -83.269565  L 110.022368 -83.269565  L 113.710921 -83.269565  L 117.399475 -83.269565  L 121.088028 -83.269565  L 124.776581 -83.269565  L 128.465135 -83.269565  L 132.153688 -83.269565  L 135.842241 -83.269565  L 139.530795 -83.269565  L 143.219348 -83.269565  L 146.907901 -83.269565  L 150.596455 -83.269565  L 154.285008 -83.269565  L 157.973561 -83.269565  L 161.662115 -83.269565  L 165.350668 -83.269565  L 169.039221 -83.269565  L 172.727775 -83.269565  L 176.416328 -83.269565  L 180.104881 -83.269565  L 183.793434 -83.269565  L 187.481988 -83.269565  L 191.170541 -83.269565  L 194.859094 -83.269565  L 198.547648 -83.269565  L 202.236201 -83.269565  L 205.924754 -83.269565  L 209.613308 -83.269565  L 213.301861 -83.269565  L 216.990414 -83.269565  L 220.678968 -83.269565  L 224.367521 -83.269565  L 228.056074 -83.269565  L 231.744628 -83.269565  L 235.433181 -83.269565  L 239.121734 -83.269565  L 242.810288 -83.269565  L 246.498841 -83.269565  L 250.187394 -83.269565  L 253.875948 -83.269565  L 257.564501 -83.269565  L 261.253054 -83.269565  L 264.941607 -83.269565  L 268.630161 -83.269565  L 272.318714 -83.269565  L 276.007267 -83.269565  L 279.695821 -83.269565  L 283.384374 -83.269565  L 287.072927 -83.269565  L 290.761481 -83.269565  L 294.450034 -83.269565  L 298.138587 -83.269565  L 301.827141 -83.269565  L 305.515694 -83.269565  L 309.204247 -83.269565  L 312.892801 -83.269565  L 316.581354 -83.269565  L 320.269907 -83.269565  L 323.958461 -83.269565  L 327.647014 -83.269565  L 331.335567 -83.269565  L 335.024121 -83.269565  L 338.712674 -83.269565  L 342.401227 -83.269565  L 346.08978 -83.269565  L 349.778334 -83.269565  L 353.466887 -83.269565  L 357.15544 -83.269565  L 360.843994 -83.269565  L 364.532547 -83.269565  L 368.2211 -83.269565  L 371.909654 -83.269565  L 375.598207 -83.269565  L 379.28676 -83.269565  L 382.975314 -83.269565  L 386.663867 -83.269565  L 390.35242 -83.269565  L 394.040974 -83.269565  L 397.729527 -83.269565  L 401.41808 -83.269565  L 405.106634 -83.269565  L 408.795187 -83.269565  L 412.48374 -83.269565  L 416.172294 -83.269565  L 419.860847 -83.269565  L 423.5494 -83.269565  L 427.237953 -83.269565  L 430.926507 -83.269565  L 434.61506 -83.269565  L 438.303613 -83.269565  L 441.992167 -83.269565  L 445.68072 -83.269565  L 449.369273 -83.269565  L 453.057827 -83.269565  L 456.74638 -83.269565  L 460.434933 -83.269565  L 464.123487 -83.269565  L 467.81204 -83.269565  L 471.500593 -83.269565  L 475.189147 -83.269565  L 478.8777 -83.269565  L 482.566253 -83.269565  L 486.254807 -83.269565  L 489.94336 -83.269565  L 493.631913 -83.269565  L 497.320467 -83.269565  L 501.00902 -83.269565  L 504.697573 -83.269565  L 508.386126 -83.269565  L 512.07468 -83.269565  L 515.763233 -83.269565  L 519.451786 -83.269565  L 523.14034 -83.269565  L 526.828893 -83.269565  L 530.517446 -83.269565  L 534.206 -83.269565  L 537.894553 -83.269565  L 541.583106 -83.269565  L 545.27166 -83.269565  L 548.960213 -83.269565  L 552.648766 -83.269565  L 556.33732 -83.269565  L 560.025873 -83.269565  L 563.714426 -83.269565  L 567.40298 -83.269565  L 571.091533 -83.269565  L 574.780086 -83.269565  L 578.46864 -83.269565  L 582.157193 -83.269565  L 585.845746 -83.269565  L 589.5343 -83.269565  L 593.222853 -83.269565  L 596.911406 -83.269565  L 600.599959 -83.269565  L 604.288513 -83.269565  L 607.977066 -83.269565  L 611.665619 -83.269565  L 615.354173 -83.269565  L 619.042726 -83.269565  L 622.731279 -83.269565  L 626.419833 -83.269565  L 630.108386 -83.269565  L 633.796939 -83.269565  L 637.485493 -83.269565  L 641.174046 -83.269565  L 644.862599 -83.269565  L 648.551153 -83.269565  L 652.239706 -83.269565  L 655.928259 -83.269565  L 659.616813 -83.269565  L 663.305366 -83.269565  L 666.993919 -83.269565  L 670.682473 -83.269565  L 674.371026 -83.269565  L 678.059579 -83.269565  L 681.748132 -83.269565  L 685.436686 -83.269565  L 689.125239 -83.269565  L 692.813792 -83.269565  L 696.502346 -83.269565  L 700.190899 -83.269565  L 703.879452 -83.269565  L 707.568006 -83.269565  L 711.256559 -83.269565  L 714.945112 -83.269565  L 718.633666 -83.269565  L 722.322219 -83.269565  L 726.010772 -83.269565  L 729.699326 -83.269565  L 733.387879 -83.269565  L 737.076432 -83.269565  L 740.764986 -83.269565  L 744.453539 -83.269565  L 748.142092 -83.269565  L 751.830646 -83.269565  L 755.519199 -83.269565  L 759.207752 -83.269565  L 762.896305 -83.269565  L 766.584859 -83.269565  L 770.273412 -83.269565  L 770.273412 -83.303649  L 770.273412 -83.303649  L 766.584859 -83.331646  L 762.896305 -83.379079  L 759.207752 -83.4567  L 755.519199 -83.579368  L 751.830646 -83.766553  L 748.142092 -84.042314  L 744.453539 -84.434457  L 740.764986 -84.972655  L 737.076432 -85.685458  L 733.387879 -86.596399  L 729.699326 -87.719724  L 726.010772 -89.056573  L 722.322219 -90.592587  L 718.633666 -92.297854  L 714.945112 -94.129739  L 711.256559 -96.038511  L 707.568006 -97.975007  L 703.879452 -99.898921  L 700.190899 -101.785992  L 696.502346 -103.632502  L 692.813792 -105.456052  L 689.125239 -107.292394  L 685.436686 -109.189058  L 681.748132 -111.197114  L 678.059579 -113.362768  L 674.371026 -115.720289  L 670.682473 -118.287319  L 666.993919 -121.062981  L 663.305366 -124.028631  L 659.616813 -127.150736  L 655.928259 -130.385188  L 652.239706 -133.682383  L 648.551153 -136.992477  L 644.862599 -140.270322  L 641.174046 -143.479646  L 637.485493 -146.596102  L 633.796939 -149.608923  L 630.108386 -152.521038  L 626.419833 -155.347742  L 622.731279 -158.114172  L 619.042726 -160.852001  L 615.354173 -163.595774  L 611.665619 -166.379306  L 607.977066 -169.232432  L 604.288513 -172.178305  L 600.599959 -175.231373  L 596.911406 -178.396083  L 593.222853 -181.666358  L 589.5343 -185.025822  L 585.845746 -188.448714  L 582.157193 -191.901343  L 578.46864 -195.343938  L 574.780086 -198.732717  L 571.091533 -202.022102  L 567.40298 -205.167027  L 563.714426 -208.12538  L 560.025873 -210.860557  L 556.33732 -213.344028  L 552.648766 -215.55768  L 548.960213 -217.495573  L 545.27166 -219.164735  L 541.583106 -220.584704  L 537.894553 -221.785745  L 534.206 -222.805944  L 530.517446 -223.687567  L 526.828893 -224.473258  L 523.14034 -225.202566  L 519.451786 -225.909182  L 515.763233 -226.619033  L 512.07468 -227.349185  L 508.386126 -228.107396  L 504.697573 -228.892166  L 501.00902 -229.693205  L 497.320467 -230.492382  L 493.631913 -231.265257  L 489.94336 -231.983344  L 486.254807 -232.617073  L 482.566253 -233.13926  L 478.8777 -233.528666  L 475.189147 -233.773028  L 471.500593 -233.870936  L 467.81204 -233.831978  L 464.123487 -233.674908  L 460.434933 -233.423973  L 456.74638 -233.104036  L 453.057827 -232.735557  L 449.369273 -232.330719  L 445.68072 -231.891853  L 441.992167 -231.412835  L 438.303613 -230.883348  L 434.61506 -230.294966  L 430.926507 -229.647355  L 427.237953 -228.9526  L 423.5494 -228.236078  L 419.860847 -227.533183  L 416.172294 -226.882454  L 412.48374 -226.316807  L 408.795187 -225.855222  L 405.106634 -225.497196  L 401.41808 -225.221545  L 397.729527 -224.989879  L 394.040974 -224.753791  L 390.35242 -224.463812  L 386.663867 -224.077814  L 382.975314 -223.566894  L 379.28676 -222.9176  L 375.598207 -222.130508  L 371.909654 -221.216089  L 368.2211 -220.189392  L 364.532547 -219.065117  L 360.843994 -217.854191  L 357.15544 -216.56231  L 353.466887 -215.19017  L 349.778334 -213.734644  L 346.08978 -212.190039  L 342.401227 -210.548739  L 338.712674 -208.801001  L 335.024121 -206.934118  L 331.335567 -204.931512  L 327.647014 -202.772425  L 323.958461 -200.432698  L 320.269907 -197.886788  L 316.581354 -195.110774  L 312.892801 -192.085775  L 309.204247 -188.801082  L 305.515694 -185.256401  L 301.827141 -181.462846  L 298.138587 -177.442639  L 294.450034 -173.227769  L 290.761481 -168.857968  L 287.072927 -164.378398  L 283.384374 -159.837315  L 279.695821 -155.283839  L 276.007267 -150.765841  L 272.318714 -146.327925  L 268.630161 -142.009557  L 264.941607 -137.843437  L 261.253054 -133.85434  L 257.564501 -130.058619  L 253.875948 -126.464527  L 250.187394 -123.073358  L 246.498841 -119.881244  L 242.810288 -116.881285  L 239.121734 -114.065623  L 235.433181 -111.427094  L 231.744628 -108.960191  L 228.056074 -106.661272  L 224.367521 -104.528086  L 220.678968 -102.55886  L 216.990414 -100.751223  L 213.301861 -99.101211  L 209.613308 -97.602559  L 205.924754 -96.246355  L 202.236201 -95.021085  L 198.547648 -93.913043  L 194.859094 -92.907055  L 191.170541 -91.98746  L 187.481988 -91.139259  L 183.793434 -90.349291  L 180.104881 -89.607269  L 176.416328 -88.906477  L 172.727775 -88.243975  L 169.039221 -87.620221  L 165.350668 -87.038181  L 161.662115 -86.502068  L 157.973561 -86.016005  L 154.285008 -85.582859  L 150.596455 -85.203509  L 146.907901 -84.876618  L 143.219348 -84.598907  L 139.530795 -84.365766  L 135.842241 -84.171992  L 132.153688 -84.012441  L 128.465135 -83.882462  L 124.776581 -83.778039  L 121.088028 -83.695703  L 117.399475 -83.632301  L 113.710921 -83.584756  L 110.022368 -83.549911  L 106.333815 -83.524524  L 102.645261 -83.505398  L 98.956708 -83.489605  L 95.268155 -83.474736  L 91.579602 -83.459094  L 87.891048 -83.441775  L 84.202495 -83.422637  L 80.513942 -83.402145  L 76.825388 -83.381153  L 73.136835 -83.360664  L 69.448282 -83.341612  L 65.759728 -83.324719  L 62.071175 -83.310412  L 58.382622 -83.29882  L 54.694068 -83.289823  L 51.005515 -83.283126  L 47.316962 -83.27834  L 43.628408 -83.275053  L 39.939855 -83.272882  L 36.251302 -83.271503  z " style="stroke: #66c2a5"/>
    </defs>
    <g clip-path="url(#p9a04011dff)">
     <use xlink:href="#mf9e6ffe5e7" x="0" y="345.6" style="fill: #66c2a5; stroke: #66c2a5"/>
    </g>
   </g>
   <g id="line2d_1">
    <path d="M 36.251302 262.328497  L 76.825388 262.218847  L 121.088028 261.904297  L 132.153688 261.587559  L 143.219348 261.001093  L 150.596455 260.396491  L 157.973561 259.583995  L 165.350668 258.561819  L 172.727775 257.356025  L 180.104881 255.992731  L 187.481988 254.460741  L 194.859094 252.692945  L 202.236201 250.578915  L 205.924754 249.353645  L 209.613308 247.997441  L 213.301861 246.498789  L 216.990414 244.848777  L 220.678968 243.04114  L 224.367521 241.071914  L 228.056074 238.938728  L 231.744628 236.639809  L 235.433181 234.172906  L 239.121734 231.534377  L 242.810288 228.718715  L 246.498841 225.718756  L 250.187394 222.526642  L 253.875948 219.135473  L 257.564501 215.541381  L 261.253054 211.74566  L 264.941607 207.756563  L 272.318714 199.272075  L 279.695821 190.316161  L 290.761481 176.742032  L 298.138587 168.157361  L 301.827141 164.137154  L 305.515694 160.343599  L 309.204247 156.798918  L 312.892801 153.514225  L 316.581354 150.489226  L 320.269907 147.713212  L 323.958461 145.167302  L 327.647014 142.827575  L 331.335567 140.668488  L 335.024121 138.665882  L 342.401227 135.051261  L 349.778334 131.865356  L 357.15544 129.03769  L 364.532547 126.534883  L 371.909654 124.383911  L 375.598207 123.469492  L 379.28676 122.6824  L 382.975314 122.033106  L 386.663867 121.522186  L 394.040974 120.846209  L 405.106634 120.102804  L 412.48374 119.283193  L 419.860847 118.066817  L 434.61506 115.305034  L 441.992167 114.187165  L 449.369273 113.269281  L 456.74638 112.495964  L 464.123487 111.925092  L 467.81204 111.768022  L 471.500593 111.729064  L 475.189147 111.826972  L 478.8777 112.071334  L 482.566253 112.46074  L 489.94336 113.616656  L 497.320467 115.107618  L 512.07468 118.250815  L 530.517446 121.912433  L 534.206 122.794056  L 537.894553 123.814255  L 541.583106 125.015296  L 545.27166 126.435265  L 548.960213 128.104427  L 552.648766 130.04232  L 556.33732 132.255972  L 560.025873 134.739443  L 563.714426 137.47462  L 567.40298 140.432973  L 574.780086 146.867283  L 585.845746 157.151286  L 593.222853 163.933642  L 600.599959 170.368627  L 607.977066 176.367568  L 615.354173 182.004226  L 630.108386 193.078962  L 637.485493 199.003898  L 644.862599 205.329678  L 663.305366 221.571369  L 666.993919 224.537019  L 670.682473 227.312681  L 674.371026 229.879711  L 678.059579 232.237232  L 681.748132 234.402886  L 689.125239 238.307606  L 703.879452 245.701079  L 718.633666 253.302146  L 722.322219 255.007413  L 726.010772 256.543427  L 729.699326 257.880276  L 733.387879 259.003601  L 737.076432 259.914542  L 740.764986 260.627345  L 744.453539 261.165543  L 748.142092 261.557686  L 755.519199 262.020632  L 762.896305 262.220921  L 770.273412 262.296351  L 770.273412 262.296351  " clip-path="url(#p9a04011dff)" style="fill: none; stroke: #000000; stroke-width: 1.5; stroke-linecap: round"/>
   </g>
   <g id="patch_3">
    <path d="M 44.28 262.330435  L 764.64 262.330435  " style="fill: none; stroke: #262626; stroke-width: 2; stroke-linejoin: miter; stroke-linecap: square"/>
   </g>
   <g id="text_2">
    <!-- intestine -->
    <g transform="translate(44.28 254.181101)scale(0.13 -0.13)">
     <use xlink:href="#DejaVuSans-69"/>
     <use xlink:href="#DejaVuSans-6e" x="27.783203"/>
     <use xlink:href="#DejaVuSans-74" x="91.162109"/>
     <use xlink:href="#DejaVuSans-65" x="130.371094"/>
     <use xlink:href="#DejaVuSans-73" x="191.894531"/>
     <use xlink:href="#DejaVuSans-74" x="243.994141"/>
     <use xlink:href="#DejaVuSans-69" x="283.203125"/>
     <use xlink:href="#DejaVuSans-6e" x="310.986328"/>
     <use xlink:href="#DejaVuSans-65" x="374.365234"/>
    </g>
   </g>
  </g>
  <g id="axes_2">
   <g id="patch_4">
    <path d="M 44.28 274.066957  L 764.64 274.066957  L 764.64 39.336522  L 44.28 39.336522  L 44.28 274.066957  z " style="fill: none"/>
   </g>
   <g id="matplotlib.axis_3">
    <g id="xtick_10"/>
    <g id="xtick_11"/>
    <g id="xtick_12"/>
    <g id="xtick_13"/>
    <g id="xtick_14"/>
    <g id="xtick_15"/>
    <g id="xtick_16"/>
    <g id="xtick_17"/>
    <g id="xtick_18"/>
   </g>
   <g id="matplotlib.axis_4">
    <g id="text_3">
     <!-- Density -->
     <g style="fill: #262626" transform="translate(37.784375 179.512052)rotate(-90)scale(0.12 -0.12)">
      <use xlink:href="#DejaVuSans-44"/>
      <use xlink:href="#DejaVuSans-65" x="77.001953"/>
      <use xlink:href="#DejaVuSans-6e" x="138.525391"/>
      <use xlink:href="#DejaVuSans-73" x="201.904297"/>
      <use xlink:href="#DejaVuSans-69" x="254.003906"/>
      <use xlink:href="#DejaVuSans-74" x="281.787109"/>
      <use xlink:href="#DejaVuSans-79" x="320.996094"/>
     </g>
    </g>
   </g>
   <g id="PolyCollection_2">
    <defs>
     <path id="m465dd4f226" d="M 76.588327 -71.536714  L 76.588327 -71.533043  L 80.068332 -71.533043  L 83.548336 -71.533043  L 87.028341 -71.533043  L 90.508346 -71.533043  L 93.98835 -71.533043  L 97.468355 -71.533043  L 100.948359 -71.533043  L 104.428364 -71.533043  L 107.908368 -71.533043  L 111.388373 -71.533043  L 114.868377 -71.533043  L 118.348382 -71.533043  L 121.828386 -71.533043  L 125.308391 -71.533043  L 128.788396 -71.533043  L 132.2684 -71.533043  L 135.748405 -71.533043  L 139.228409 -71.533043  L 142.708414 -71.533043  L 146.188418 -71.533043  L 149.668423 -71.533043  L 153.148427 -71.533043  L 156.628432 -71.533043  L 160.108436 -71.533043  L 163.588441 -71.533043  L 167.068446 -71.533043  L 170.54845 -71.533043  L 174.028455 -71.533043  L 177.508459 -71.533043  L 180.988464 -71.533043  L 184.468468 -71.533043  L 187.948473 -71.533043  L 191.428477 -71.533043  L 194.908482 -71.533043  L 198.388487 -71.533043  L 201.868491 -71.533043  L 205.348496 -71.533043  L 208.8285 -71.533043  L 212.308505 -71.533043  L 215.788509 -71.533043  L 219.268514 -71.533043  L 222.748518 -71.533043  L 226.228523 -71.533043  L 229.708527 -71.533043  L 233.188532 -71.533043  L 236.668537 -71.533043  L 240.148541 -71.533043  L 243.628546 -71.533043  L 247.10855 -71.533043  L 250.588555 -71.533043  L 254.068559 -71.533043  L 257.548564 -71.533043  L 261.028568 -71.533043  L 264.508573 -71.533043  L 267.988577 -71.533043  L 271.468582 -71.533043  L 274.948587 -71.533043  L 278.428591 -71.533043  L 281.908596 -71.533043  L 285.3886 -71.533043  L 288.868605 -71.533043  L 292.348609 -71.533043  L 295.828614 -71.533043  L 299.308618 -71.533043  L 302.788623 -71.533043  L 306.268628 -71.533043  L 309.748632 -71.533043  L 313.228637 -71.533043  L 316.708641 -71.533043  L 320.188646 -71.533043  L 323.66865 -71.533043  L 327.148655 -71.533043  L 330.628659 -71.533043  L 334.108664 -71.533043  L 337.588668 -71.533043  L 341.068673 -71.533043  L 344.548678 -71.533043  L 348.028682 -71.533043  L 351.508687 -71.533043  L 354.988691 -71.533043  L 358.468696 -71.533043  L 361.9487 -71.533043  L 365.428705 -71.533043  L 368.908709 -71.533043  L 372.388714 -71.533043  L 375.868718 -71.533043  L 379.348723 -71.533043  L 382.828728 -71.533043  L 386.308732 -71.533043  L 389.788737 -71.533043  L 393.268741 -71.533043  L 396.748746 -71.533043  L 400.22875 -71.533043  L 403.708755 -71.533043  L 407.188759 -71.533043  L 410.668764 -71.533043  L 414.148768 -71.533043  L 417.628773 -71.533043  L 421.108778 -71.533043  L 424.588782 -71.533043  L 428.068787 -71.533043  L 431.548791 -71.533043  L 435.028796 -71.533043  L 438.5088 -71.533043  L 441.988805 -71.533043  L 445.468809 -71.533043  L 448.948814 -71.533043  L 452.428819 -71.533043  L 455.908823 -71.533043  L 459.388828 -71.533043  L 462.868832 -71.533043  L 466.348837 -71.533043  L 469.828841 -71.533043  L 473.308846 -71.533043  L 476.78885 -71.533043  L 480.268855 -71.533043  L 483.748859 -71.533043  L 487.228864 -71.533043  L 490.708869 -71.533043  L 494.188873 -71.533043  L 497.668878 -71.533043  L 501.148882 -71.533043  L 504.628887 -71.533043  L 508.108891 -71.533043  L 511.588896 -71.533043  L 515.0689 -71.533043  L 518.548905 -71.533043  L 522.028909 -71.533043  L 525.508914 -71.533043  L 528.988919 -71.533043  L 532.468923 -71.533043  L 535.948928 -71.533043  L 539.428932 -71.533043  L 542.908937 -71.533043  L 546.388941 -71.533043  L 549.868946 -71.533043  L 553.34895 -71.533043  L 556.828955 -71.533043  L 560.308959 -71.533043  L 563.788964 -71.533043  L 567.268969 -71.533043  L 570.748973 -71.533043  L 574.228978 -71.533043  L 577.708982 -71.533043  L 581.188987 -71.533043  L 584.668991 -71.533043  L 588.148996 -71.533043  L 591.629 -71.533043  L 595.109005 -71.533043  L 598.58901 -71.533043  L 602.069014 -71.533043  L 605.549019 -71.533043  L 609.029023 -71.533043  L 612.509028 -71.533043  L 615.989032 -71.533043  L 619.469037 -71.533043  L 622.949041 -71.533043  L 626.429046 -71.533043  L 629.90905 -71.533043  L 633.389055 -71.533043  L 636.86906 -71.533043  L 640.349064 -71.533043  L 643.829069 -71.533043  L 647.309073 -71.533043  L 650.789078 -71.533043  L 654.269082 -71.533043  L 657.749087 -71.533043  L 661.229091 -71.533043  L 664.709096 -71.533043  L 668.1891 -71.533043  L 671.669105 -71.533043  L 675.14911 -71.533043  L 678.629114 -71.533043  L 682.109119 -71.533043  L 685.589123 -71.533043  L 689.069128 -71.533043  L 692.549132 -71.533043  L 696.029137 -71.533043  L 699.509141 -71.533043  L 702.989146 -71.533043  L 706.46915 -71.533043  L 709.949155 -71.533043  L 713.42916 -71.533043  L 716.909164 -71.533043  L 720.389169 -71.533043  L 723.869173 -71.533043  L 727.349178 -71.533043  L 730.829182 -71.533043  L 734.309187 -71.533043  L 737.789191 -71.533043  L 741.269196 -71.533043  L 744.749201 -71.533043  L 748.229205 -71.533043  L 751.70921 -71.533043  L 755.189214 -71.533043  L 758.669219 -71.533043  L 762.149223 -71.533043  L 765.629228 -71.533043  L 769.109232 -71.533043  L 769.109232 -71.556555  L 769.109232 -71.556555  L 765.629228 -71.57646  L 762.149223 -71.610704  L 758.669219 -71.66763  L 755.189214 -71.759069  L 751.70921 -71.900982  L 748.229205 -72.113782  L 744.749201 -72.422081  L 741.269196 -72.853611  L 737.789191 -73.437173  L 734.309187 -74.199605  L 730.829182 -75.162022  L 727.349178 -76.335829  L 723.869173 -77.719208  L 720.389169 -79.29487  L 716.909164 -81.029757  L 713.42916 -82.877074  L 709.949155 -84.780603  L 706.46915 -86.680764  L 702.989146 -88.521527  L 699.509141 -90.257045  L 696.029137 -91.856968  L 692.549132 -93.309644  L 689.069128 -94.62283  L 685.589123 -95.82199  L 682.109119 -96.946624  L 678.629114 -98.045341  L 675.14911 -99.170488  L 671.669105 -100.373085  L 668.1891 -101.698722  L 664.709096 -103.1848  L 661.229091 -104.859248  L 657.749087 -106.740578  L 654.269082 -108.838854  L 650.789078 -111.15705  L 647.309073 -113.692217  L 643.829069 -116.436085  L 640.349064 -119.37497  L 636.86906 -122.489221  L 633.389055 -125.752713  L 629.90905 -129.133043  L 626.429046 -132.592964  L 622.949041 -136.093354  L 619.469037 -139.597543  L 615.989032 -143.076434  L 612.509028 -146.513455  L 609.029023 -149.908318  L 605.549019 -153.278592  L 602.069014 -156.658496  L 598.58901 -160.094761  L 595.109005 -163.639951  L 591.629 -167.344132  L 588.148996 -171.24608  L 584.668991 -175.365414  L 581.188987 -179.696973  L 577.708982 -184.208507  L 574.228978 -188.842358  L 570.748973 -193.521206  L 567.268969 -198.157288  L 563.788964 -202.663831  L 560.308959 -206.966862  L 556.828955 -211.015255  L 553.34895 -214.78706  L 549.868946 -218.290701  L 546.388941 -221.56068  L 542.908937 -224.648604  L 539.428932 -227.611418  L 535.948928 -230.499406  L 532.468923 -233.346517  L 528.988919 -236.164952  L 525.508914 -238.944783  L 522.028909 -241.658082  L 518.548905 -244.265937  L 515.0689 -246.726135  L 511.588896 -248.999373  L 508.108891 -251.052563  L 504.628887 -252.858818  L 501.148882 -254.394856  L 497.668878 -255.63733  L 494.188873 -256.559898  L 490.708869 -257.132568  L 487.228864 -257.324083  L 483.748859 -257.10714  L 480.268855 -256.465311  L 476.78885 -255.399959  L 473.308846 -253.93532  L 469.828841 -252.120265  L 466.348837 -250.026005  L 462.868832 -247.739847  L 459.388828 -245.355968  L 455.908823 -242.964732  L 452.428819 -240.642365  L 448.948814 -238.442687  L 445.468809 -236.392204  L 441.988805 -234.489238  L 438.5088 -232.707092  L 435.028796 -231.000539  L 431.548791 -229.31445  L 428.068787 -227.593042  L 424.588782 -225.788267  L 421.108778 -223.866108  L 417.628773 -221.810064  L 414.148768 -219.621667  L 410.668764 -217.31841  L 407.188759 -214.929841  L 403.708755 -212.492721  L 400.22875 -210.04606  L 396.748746 -207.626698  L 393.268741 -205.26582  L 389.788737 -202.986654  L 386.308732 -200.803469  L 382.828728 -198.721868  L 379.348723 -196.740284  L 375.868718 -194.852337  L 372.388714 -193.049516  L 368.908709 -191.323448  L 365.428705 -189.667032  L 361.9487 -188.073966  L 358.468696 -186.536674  L 354.988691 -185.043225  L 351.508687 -183.574327  L 348.028682 -182.1016  L 344.548678 -180.588112  L 341.068673 -178.991475  L 337.588668 -177.269004  L 334.108664 -175.383709  L 330.628659 -173.309556  L 327.148655 -171.034632  L 323.66865 -168.56147  L 320.188646 -165.904695  L 316.708641 -163.086941  L 313.228637 -160.134425  L 309.748632 -157.073479  L 306.268628 -153.928827  L 302.788623 -150.723608  L 299.308618 -147.480466  L 295.828614 -144.222692  L 292.348609 -140.974467  L 288.868605 -137.75976  L 285.3886 -134.600073  L 281.908596 -131.511755  L 278.428591 -128.503853  L 274.948587 -125.577298  L 271.468582 -122.725747  L 267.988577 -119.937909  L 264.508573 -117.200661  L 261.028568 -114.502198  L 257.548564 -111.834489  L 254.068559 -109.194703  L 250.588555 -106.585587  L 247.10855 -104.015051  L 243.628546 -101.495282  L 240.148541 -99.041662  L 236.668537 -96.671596  L 233.188532 -94.403264  L 229.708527 -92.254244  L 226.228523 -90.240022  L 222.748518 -88.372516  L 219.268514 -86.658816  L 215.788509 -85.100383  L 212.308505 -83.692928  L 208.8285 -82.427034  L 205.348496 -81.289471  L 201.868491 -80.264987  L 198.388487 -79.33826  L 194.908482 -78.495672  L 191.428477 -77.726597  L 187.948473 -77.024016  L 184.468468 -76.384392  L 180.988464 -75.806905  L 177.508459 -75.292255  L 174.028455 -74.841302  L 170.54845 -74.453814  L 167.068446 -74.127541  L 163.588441 -73.857753  L 160.108436 -73.637268  L 156.628432 -73.45694  L 153.148427 -73.306479  L 149.668423 -73.175466  L 146.188418 -73.054394  L 142.708414 -72.935573  L 139.228409 -72.813768  L 135.748405 -72.686478  L 132.2684 -72.553829  L 128.788396 -72.41811  L 125.308391 -72.283061  L 121.828386 -72.153047  L 118.348382 -72.032267  L 114.868377 -71.924122  L 111.388373 -71.830827  L 107.908368 -71.753279  L 104.428364 -71.691158  L 100.948359 -71.643185  L 97.468355 -71.607457  L 93.98835 -71.58179  L 90.508346 -71.563997  L 87.028341 -71.552092  L 83.548336 -71.544401  L 80.068332 -71.539604  L 76.588327 -71.536714  z " style="stroke: #fc8d62"/>
    </defs>
    <g clip-path="url(#p1fca4b1a47)">
     <use xlink:href="#m465dd4f226" x="0" y="345.6" style="fill: #fc8d62; stroke: #fc8d62"/>
    </g>
   </g>
   <g id="line2d_2">
    <path d="M 76.588327 274.063286  L 100.948359 273.956815  L 114.868377 273.675878  L 132.2684 273.046171  L 163.588441 271.742247  L 170.54845 271.146186  L 177.508459 270.307745  L 184.468468 269.215608  L 191.428477 267.873403  L 198.388487 266.26174  L 205.348496 264.310529  L 208.8285 263.172966  L 212.308505 261.907072  L 215.788509 260.499617  L 219.268514 258.941184  L 222.748518 257.227484  L 226.228523 255.359978  L 229.708527 253.345756  L 236.668537 248.928404  L 243.628546 244.104718  L 250.588555 239.014413  L 261.028568 231.097802  L 271.468582 222.874253  L 278.428591 217.096147  L 285.3886 210.999927  L 295.828614 201.377308  L 306.268628 191.671173  L 313.228637 185.465575  L 320.188646 179.695305  L 323.66865 177.03853  L 327.148655 174.565368  L 330.628659 172.290444  L 334.108664 170.216291  L 337.588668 168.330996  L 341.068673 166.608525  L 348.028682 163.4984  L 361.9487 157.526034  L 368.908709 154.276552  L 375.868718 150.747663  L 382.828728 146.878132  L 389.788737 142.613346  L 396.748746 137.973302  L 414.148768 125.978333  L 417.628773 123.789936  L 421.108778 121.733892  L 428.068787 118.006958  L 441.988805 111.110762  L 445.468809 109.207796  L 448.948814 107.157313  L 455.908823 102.635268  L 466.348837 95.573995  L 469.828841 93.479735  L 473.308846 91.66468  L 476.78885 90.200041  L 480.268855 89.134689  L 483.748859 88.49286  L 487.228864 88.275917  L 490.708869 88.467432  L 494.188873 89.040102  L 497.668878 89.96267  L 501.148882 91.205144  L 504.628887 92.741182  L 508.108891 94.547437  L 511.588896 96.600627  L 515.0689 98.873865  L 518.548905 101.334063  L 525.508914 106.655217  L 535.948928 115.100594  L 542.908937 120.951396  L 546.388941 124.03932  L 549.868946 127.309299  L 553.34895 130.81294  L 556.828955 134.584745  L 560.308959 138.633138  L 563.788964 142.936169  L 570.748973 152.078794  L 577.708982 161.391493  L 584.668991 170.234586  L 588.148996 174.35392  L 591.629 178.255868  L 598.58901 185.505239  L 609.029023 195.691682  L 619.469037 206.002457  L 629.90905 216.466957  L 636.86906 223.110779  L 640.349064 226.22503  L 643.829069 229.163915  L 647.309073 231.907783  L 650.789078 234.44295  L 654.269082 236.761146  L 657.749087 238.859422  L 661.229091 240.740752  L 664.709096 242.4152  L 668.1891 243.901278  L 671.669105 245.226915  L 678.629114 247.554659  L 685.589123 249.77801  L 692.549132 252.290356  L 696.029137 253.743032  L 699.509141 255.342955  L 706.46915 258.919236  L 716.909164 264.570243  L 720.389169 266.30513  L 723.869173 267.880792  L 727.349178 269.264171  L 730.829182 270.437978  L 734.309187 271.400395  L 737.789191 272.162827  L 741.269196 272.746389  L 744.749201 273.177919  L 751.70921 273.699018  L 758.669219 273.93237  L 769.109232 274.043445  L 769.109232 274.043445  " clip-path="url(#p1fca4b1a47)" style="fill: none; stroke: #000000; stroke-width: 1.5; stroke-linecap: round"/>
   </g>
   <g id="patch_5">
    <path d="M 44.28 274.066957  L 764.64 274.066957  " style="fill: none; stroke: #262626; stroke-width: 2; stroke-linejoin: miter; stroke-linecap: square"/>
   </g>
   <g id="text_4">
    <!-- cathepsin -->
    <g transform="translate(44.28 265.917622)scale(0.13 -0.13)">
     <defs>
      <path id="DejaVuSans-63" d="M 3122 3366  L 3122 2828  Q 2878 2963 2633 3030  Q 2388 3097 2138 3097  Q 1578 3097 1268 2742  Q 959 2388 959 1747  Q 959 1106 1268 751  Q 1578 397 2138 397  Q 2388 397 2633 464  Q 2878 531 3122 666  L 3122 134  Q 2881 22 2623 -34  Q 2366 -91 2075 -91  Q 1284 -91 818 406  Q 353 903 353 1747  Q 353 2603 823 3093  Q 1294 3584 2113 3584  Q 2378 3584 2631 3529  Q 2884 3475 3122 3366  z " transform="scale(0.015625)"/>
      <path id="DejaVuSans-61" d="M 2194 1759  Q 1497 1759 1228 1600  Q 959 1441 959 1056  Q 959 750 1161 570  Q 1363 391 1709 391  Q 2188 391 2477 730  Q 2766 1069 2766 1631  L 2766 1759  L 2194 1759  z M 3341 1997  L 3341 0  L 2766 0  L 2766 531  Q 2569 213 2275 61  Q 1981 -91 1556 -91  Q 1019 -91 701 211  Q 384 513 384 1019  Q 384 1609 779 1909  Q 1175 2209 1959 2209  L 2766 2209  L 2766 2266  Q 2766 2663 2505 2880  Q 2244 3097 1772 3097  Q 1472 3097 1187 3025  Q 903 2953 641 2809  L 641 3341  Q 956 3463 1253 3523  Q 1550 3584 1831 3584  Q 2591 3584 2966 3190  Q 3341 2797 3341 1997  z " transform="scale(0.015625)"/>
      <path id="DejaVuSans-68" d="M 3513 2113  L 3513 0  L 2938 0  L 2938 2094  Q 2938 2591 2744 2837  Q 2550 3084 2163 3084  Q 1697 3084 1428 2787  Q 1159 2491 1159 1978  L 1159 0  L 581 0  L 581 4863  L 1159 4863  L 1159 2956  Q 1366 3272 1645 3428  Q 1925 3584 2291 3584  Q 2894 3584 3203 3211  Q 3513 2838 3513 2113  z " transform="scale(0.015625)"/>
      <path id="DejaVuSans-70" d="M 1159 525  L 1159 -1331  L 581 -1331  L 581 3500  L 1159 3500  L 1159 2969  Q 1341 3281 1617 3432  Q 1894 3584 2278 3584  Q 2916 3584 3314 3078  Q 3713 2572 3713 1747  Q 3713 922 3314 415  Q 2916 -91 2278 -91  Q 1894 -91 1617 61  Q 1341 213 1159 525  z M 3116 1747  Q 3116 2381 2855 2742  Q 2594 3103 2138 3103  Q 1681 3103 1420 2742  Q 1159 2381 1159 1747  Q 1159 1113 1420 752  Q 1681 391 2138 391  Q 2594 391 2855 752  Q 3116 1113 3116 1747  z " transform="scale(0.015625)"/>
     </defs>
     <use xlink:href="#DejaVuSans-63"/>
     <use xlink:href="#DejaVuSans-61" x="54.980469"/>
     <use xlink:href="#DejaVuSans-74" x="116.259766"/>
     <use xlink:href="#DejaVuSans-68" x="155.46875"/>
     <use xlink:href="#DejaVuSans-65" x="218.847656"/>
     <use xlink:href="#DejaVuSans-70" x="280.371094"/>
     <use xlink:href="#DejaVuSans-73" x="343.847656"/>
     <use xlink:href="#DejaVuSans-69" x="395.947266"/>
     <use xlink:href="#DejaVuSans-6e" x="423.730469"/>
    </g>
   </g>
  </g>
  <g id="axes_3">
   <g id="patch_6">
    <path d="M 44.28 285.803478  L 764.64 285.803478  L 764.64 51.073043  L 44.28 51.073043  L 44.28 285.803478  z " style="fill: none"/>
   </g>
   <g id="matplotlib.axis_5">
    <g id="xtick_19"/>
    <g id="xtick_20"/>
    <g id="xtick_21"/>
    <g id="xtick_22"/>
    <g id="xtick_23"/>
    <g id="xtick_24"/>
    <g id="xtick_25"/>
    <g id="xtick_26"/>
    <g id="xtick_27"/>
   </g>
   <g id="matplotlib.axis_6">
    <g id="text_5">
     <!-- Density -->
     <g style="fill: #262626" transform="translate(37.784375 191.248573)rotate(-90)scale(0.12 -0.12)">
      <use xlink:href="#DejaVuSans-44"/>
      <use xlink:href="#DejaVuSans-65" x="77.001953"/>
      <use xlink:href="#DejaVuSans-6e" x="138.525391"/>
      <use xlink:href="#DejaVuSans-73" x="201.904297"/>
      <use xlink:href="#DejaVuSans-69" x="254.003906"/>
      <use xlink:href="#DejaVuSans-74" x="281.787109"/>
      <use xlink:href="#DejaVuSans-79" x="320.996094"/>
     </g>
    </g>
   </g>
   <g id="PolyCollection_3">
    <defs>
     <path id="mdbcf02973a" d="M 77.339299 -59.800293  L 77.339299 -59.796522  L 80.821898 -59.796522  L 84.304497 -59.796522  L 87.787096 -59.796522  L 91.269695 -59.796522  L 94.752293 -59.796522  L 98.234892 -59.796522  L 101.717491 -59.796522  L 105.20009 -59.796522  L 108.682688 -59.796522  L 112.165287 -59.796522  L 115.647886 -59.796522  L 119.130485 -59.796522  L 122.613084 -59.796522  L 126.095682 -59.796522  L 129.578281 -59.796522  L 133.06088 -59.796522  L 136.543479 -59.796522  L 140.026078 -59.796522  L 143.508676 -59.796522  L 146.991275 -59.796522  L 150.473874 -59.796522  L 153.956473 -59.796522  L 157.439071 -59.796522  L 160.92167 -59.796522  L 164.404269 -59.796522  L 167.886868 -59.796522  L 171.369467 -59.796522  L 174.852065 -59.796522  L 178.334664 -59.796522  L 181.817263 -59.796522  L 185.299862 -59.796522  L 188.782461 -59.796522  L 192.265059 -59.796522  L 195.747658 -59.796522  L 199.230257 -59.796522  L 202.712856 -59.796522  L 206.195454 -59.796522  L 209.678053 -59.796522  L 213.160652 -59.796522  L 216.643251 -59.796522  L 220.12585 -59.796522  L 223.608448 -59.796522  L 227.091047 -59.796522  L 230.573646 -59.796522  L 234.056245 -59.796522  L 237.538844 -59.796522  L 241.021442 -59.796522  L 244.504041 -59.796522  L 247.98664 -59.796522  L 251.469239 -59.796522  L 254.951837 -59.796522  L 258.434436 -59.796522  L 261.917035 -59.796522  L 265.399634 -59.796522  L 268.882233 -59.796522  L 272.364831 -59.796522  L 275.84743 -59.796522  L 279.330029 -59.796522  L 282.812628 -59.796522  L 286.295227 -59.796522  L 289.777825 -59.796522  L 293.260424 -59.796522  L 296.743023 -59.796522  L 300.225622 -59.796522  L 303.70822 -59.796522  L 307.190819 -59.796522  L 310.673418 -59.796522  L 314.156017 -59.796522  L 317.638616 -59.796522  L 321.121214 -59.796522  L 324.603813 -59.796522  L 328.086412 -59.796522  L 331.569011 -59.796522  L 335.05161 -59.796522  L 338.534208 -59.796522  L 342.016807 -59.796522  L 345.499406 -59.796522  L 348.982005 -59.796522  L 352.464603 -59.796522  L 355.947202 -59.796522  L 359.429801 -59.796522  L 362.9124 -59.796522  L 366.394999 -59.796522  L 369.877597 -59.796522  L 373.360196 -59.796522  L 376.842795 -59.796522  L 380.325394 -59.796522  L 383.807993 -59.796522  L 387.290591 -59.796522  L 390.77319 -59.796522  L 394.255789 -59.796522  L 397.738388 -59.796522  L 401.220986 -59.796522  L 404.703585 -59.796522  L 408.186184 -59.796522  L 411.668783 -59.796522  L 415.151382 -59.796522  L 418.63398 -59.796522  L 422.116579 -59.796522  L 425.599178 -59.796522  L 429.081777 -59.796522  L 432.564376 -59.796522  L 436.046974 -59.796522  L 439.529573 -59.796522  L 443.012172 -59.796522  L 446.494771 -59.796522  L 449.977369 -59.796522  L 453.459968 -59.796522  L 456.942567 -59.796522  L 460.425166 -59.796522  L 463.907765 -59.796522  L 467.390363 -59.796522  L 470.872962 -59.796522  L 474.355561 -59.796522  L 477.83816 -59.796522  L 481.320759 -59.796522  L 484.803357 -59.796522  L 488.285956 -59.796522  L 491.768555 -59.796522  L 495.251154 -59.796522  L 498.733752 -59.796522  L 502.216351 -59.796522  L 505.69895 -59.796522  L 509.181549 -59.796522  L 512.664148 -59.796522  L 516.146746 -59.796522  L 519.629345 -59.796522  L 523.111944 -59.796522  L 526.594543 -59.796522  L 530.077142 -59.796522  L 533.55974 -59.796522  L 537.042339 -59.796522  L 540.524938 -59.796522  L 544.007537 -59.796522  L 547.490135 -59.796522  L 550.972734 -59.796522  L 554.455333 -59.796522  L 557.937932 -59.796522  L 561.420531 -59.796522  L 564.903129 -59.796522  L 568.385728 -59.796522  L 571.868327 -59.796522  L 575.350926 -59.796522  L 578.833525 -59.796522  L 582.316123 -59.796522  L 585.798722 -59.796522  L 589.281321 -59.796522  L 592.76392 -59.796522  L 596.246519 -59.796522  L 599.729117 -59.796522  L 603.211716 -59.796522  L 606.694315 -59.796522  L 610.176914 -59.796522  L 613.659512 -59.796522  L 617.142111 -59.796522  L 620.62471 -59.796522  L 624.107309 -59.796522  L 627.589908 -59.796522  L 631.072506 -59.796522  L 634.555105 -59.796522  L 638.037704 -59.796522  L 641.520303 -59.796522  L 645.002902 -59.796522  L 648.4855 -59.796522  L 651.968099 -59.796522  L 655.450698 -59.796522  L 658.933297 -59.796522  L 662.415895 -59.796522  L 665.898494 -59.796522  L 669.381093 -59.796522  L 672.863692 -59.796522  L 676.346291 -59.796522  L 679.828889 -59.796522  L 683.311488 -59.796522  L 686.794087 -59.796522  L 690.276686 -59.796522  L 693.759285 -59.796522  L 697.241883 -59.796522  L 700.724482 -59.796522  L 704.207081 -59.796522  L 707.68968 -59.796522  L 711.172278 -59.796522  L 714.654877 -59.796522  L 718.137476 -59.796522  L 721.620075 -59.796522  L 725.102674 -59.796522  L 728.585272 -59.796522  L 732.067871 -59.796522  L 735.55047 -59.796522  L 739.033069 -59.796522  L 742.515668 -59.796522  L 745.998266 -59.796522  L 749.480865 -59.796522  L 752.963464 -59.796522  L 756.446063 -59.796522  L 759.928661 -59.796522  L 763.41126 -59.796522  L 766.893859 -59.796522  L 770.376458 -59.796522  L 770.376458 -59.82098  L 770.376458 -59.82098  L 766.893859 -59.841822  L 763.41126 -59.877797  L 759.928661 -59.937794  L 756.446063 -60.034464  L 752.963464 -60.184941  L 749.480865 -60.411205  L 745.998266 -60.739829  L 742.515668 -61.200818  L 739.033069 -61.825368  L 735.55047 -62.642551  L 732.067871 -63.675221  L 728.585272 -64.935725  L 725.102674 -66.422264  L 721.620075 -68.116824  L 718.137476 -69.985478  L 714.654877 -71.98144  L 711.172278 -74.050715  L 707.68968 -76.139557  L 704.207081 -78.202473  L 700.724482 -80.209316  L 697.241883 -82.150147  L 693.759285 -84.037029  L 690.276686 -85.902569  L 686.794087 -87.795652  L 683.311488 -89.775285  L 679.828889 -91.903657  L 676.346291 -94.239414  L 672.863692 -96.83189  L 669.381093 -99.716667  L 665.898494 -102.912615  L 662.415895 -106.420398  L 658.933297 -110.222454  L 655.450698 -114.284509  L 651.968099 -118.558698  L 648.4855 -122.988252  L 645.002902 -127.513472  L 641.520303 -132.078354  L 638.037704 -136.636901  L 634.555105 -141.158016  L 631.072506 -145.627982  L 627.589908 -150.049948  L 624.107309 -154.440493  L 620.62471 -158.823998  L 617.142111 -163.226066  L 613.659512 -167.667397  L 610.176914 -172.159282  L 606.694315 -176.701341  L 603.211716 -181.281478  L 599.729117 -185.877521  L 596.246519 -190.459761  L 592.76392 -194.993758  L 589.281321 -199.443093  L 585.798722 -203.772102  L 582.316123 -207.94878  L 578.833525 -211.947906  L 575.350926 -215.754077  L 571.868327 -219.363939  L 568.385728 -222.786699  L 564.903129 -226.042204  L 561.420531 -229.156394  L 557.937932 -232.154728  L 554.455333 -235.054824  L 550.972734 -237.85993  L 547.490135 -240.554695  L 544.007537 -243.104201  L 540.524938 -245.456446  L 537.042339 -247.547787  L 533.55974 -249.310367  L 530.077142 -250.680383  L 526.594543 -251.606095  L 523.111944 -252.054643  L 519.629345 -252.016899  L 516.146746 -251.509704  L 512.664148 -250.575049  L 509.181549 -249.276075  L 505.69895 -247.690262  L 502.216351 -245.900759  L 498.733752 -243.987264  L 495.251154 -242.018098  L 491.768555 -240.044832  L 488.285956 -238.100228  L 484.803357 -236.199384  L 481.320759 -234.343208  L 477.83816 -232.522897  L 474.355561 -230.724085  L 470.872962 -228.929778  L 467.390363 -227.121814  L 463.907765 -225.281169  L 460.425166 -223.387787  L 456.942567 -221.420613  L 453.459968 -219.358238  L 449.977369 -217.180256  L 446.494771 -214.869118  L 443.012172 -212.412184  L 439.529573 -209.803691  L 436.046974 -207.046457  L 432.564376 -204.15316  L 429.081777 -201.146969  L 425.599178 -198.061173  L 422.116579 -194.937413  L 418.63398 -191.822249  L 415.151382 -188.762191  L 411.668783 -185.797828  L 408.186184 -182.958185  L 404.703585 -180.256675  L 401.220986 -177.689759  L 397.738388 -175.238864  L 394.255789 -172.87518  L 390.77319 -170.566146  L 387.290591 -168.281888  L 383.807993 -165.999892  L 380.325394 -163.706695  L 376.842795 -161.396298  L 373.360196 -159.066014  L 369.877597 -156.711232  L 366.394999 -154.320941  L 362.9124 -151.875628  L 359.429801 -149.348472  L 355.947202 -146.709806  L 352.464603 -143.93385  L 348.982005 -141.00605  L 345.499406 -137.929158  L 342.016807 -134.726478  L 338.534208 -131.441377  L 335.05161 -128.133078  L 331.569011 -124.869558  L 328.086412 -121.71899  L 324.603813 -118.741365  L 321.121214 -115.981796  L 317.638616 -113.466534  L 314.156017 -111.202127  L 310.673418 -109.177532  L 307.190819 -107.36845  L 303.70822 -105.742878  L 300.225622 -104.26674  L 296.743023 -102.908591  L 293.260424 -101.642704  L 289.777825 -100.450224  L 286.295227 -99.318514  L 282.812628 -98.239168  L 279.330029 -97.205395  L 275.84743 -96.209496  L 272.364831 -95.24106  L 268.882233 -94.286227  L 265.399634 -93.328077  L 261.917035 -92.347959  L 258.434436 -91.327395  L 254.951837 -90.250163  L 251.469239 -89.104193  L 247.98664 -87.883034  L 244.504041 -86.586737  L 241.021442 -85.222121  L 237.538844 -83.80241  L 234.056245 -82.346294  L 230.573646 -80.876459  L 227.091047 -79.417694  L 223.608448 -77.994706  L 220.12585 -76.629866  L 216.643251 -75.341143  L 213.160652 -74.140536  L 209.678053 -73.03327  L 206.195454 -72.017933  L 202.712856 -71.087562  L 199.230257 -70.231489  L 195.747658 -69.437612  L 192.265059 -68.694598  L 188.782461 -67.993613  L 185.299862 -67.329225  L 181.817263 -66.699391  L 178.334664 -66.104637  L 174.852065 -65.546751  L 171.369467 -65.027375  L 167.886868 -64.546878  L 164.404269 -64.103763  L 160.92167 -63.694677  L 157.439071 -63.314956  L 153.956473 -62.959471  L 150.473874 -62.623545  L 146.991275 -62.303707  L 143.508676 -61.99813  L 140.026078 -61.706706  L 136.543479 -61.430799  L 133.06088 -61.172763  L 129.578281 -60.935356  L 126.095682 -60.721166  L 122.613084 -60.532136  L 119.130485 -60.369259  L 115.647886 -60.232436  L 112.165287 -60.120516  L 108.682688 -60.031456  L 105.20009 -59.962571  L 101.717491 -59.910822  L 98.234892 -59.873089  L 94.752293 -59.846401  L 91.269695 -59.828101  L 87.787096 -59.81594  L 84.304497 -59.808113  L 80.821898 -59.803235  L 77.339299 -59.800293  z " style="stroke: #8da0cb"/>
    </defs>
    <g clip-path="url(#pf869e56097)">
     <use xlink:href="#mdbcf02973a" x="0" y="345.6" style="fill: #8da0cb; stroke: #8da0cb"/>
    </g>
   </g>
   <g id="line2d_3">
    <path d="M 77.339299 285.799707  L 101.717491 285.689178  L 112.165287 285.479484  L 122.613084 285.067864  L 133.06088 284.427237  L 146.991275 283.296293  L 157.439071 282.285044  L 167.886868 281.053122  L 174.852065 280.053249  L 185.299862 278.270775  L 192.265059 276.905402  L 199.230257 275.368511  L 206.195454 273.582067  L 213.160652 271.459464  L 220.12585 268.970134  L 227.091047 266.182306  L 241.021442 260.377879  L 247.98664 257.716966  L 254.951837 255.349837  L 261.917035 253.252041  L 286.295227 246.281486  L 293.260424 243.957296  L 300.225622 241.33326  L 303.70822 239.857122  L 307.190819 238.23155  L 310.673418 236.422468  L 314.156017 234.397873  L 317.638616 232.133466  L 321.121214 229.618204  L 324.603813 226.858635  L 328.086412 223.88101  L 335.05161 217.466922  L 345.499406 207.670842  L 348.982005 204.59395  L 352.464603 201.66615  L 359.429801 196.251528  L 366.394999 191.279059  L 376.842795 184.203702  L 401.220986 167.910241  L 408.186184 162.641815  L 415.151382 156.837809  L 436.046974 138.553543  L 439.529573 135.796309  L 443.012172 133.187816  L 446.494771 130.730882  L 453.459968 126.241762  L 460.425166 122.212213  L 467.390363 118.478186  L 484.803357 109.400616  L 495.251154 103.581902  L 502.216351 99.699241  L 505.69895 97.909738  L 509.181549 96.323925  L 512.664148 95.024951  L 516.146746 94.090296  L 519.629345 93.583101  L 523.111944 93.545357  L 526.594543 93.993905  L 530.077142 94.919617  L 533.55974 96.289633  L 537.042339 98.052213  L 540.524938 100.143554  L 544.007537 102.495799  L 547.490135 105.045305  L 554.455333 110.545176  L 561.420531 116.443606  L 568.385728 122.813301  L 571.868327 126.236061  L 575.350926 129.845923  L 578.833525 133.652094  L 582.316123 137.65122  L 589.281321 146.156907  L 596.246519 155.140239  L 613.659512 177.932603  L 641.520303 213.521646  L 651.968099 227.041302  L 655.450698 231.315491  L 658.933297 235.377546  L 662.415895 239.179602  L 665.898494 242.687385  L 669.381093 245.883333  L 672.863692 248.76811  L 676.346291 251.360586  L 679.828889 253.696343  L 683.311488 255.824715  L 690.276686 259.697431  L 700.724482 265.390684  L 707.68968 269.460443  L 718.137476 275.614522  L 721.620075 277.483176  L 725.102674 279.177736  L 728.585272 280.664275  L 732.067871 281.924779  L 735.55047 282.957449  L 739.033069 283.774632  L 742.515668 284.399182  L 745.998266 284.860171  L 752.963464 285.415059  L 759.928661 285.662206  L 770.376458 285.77902  L 770.376458 285.77902  " clip-path="url(#pf869e56097)" style="fill: none; stroke: #000000; stroke-width: 1.5; stroke-linecap: round"/>
   </g>
   <g id="patch_7">
    <path d="M 44.28 285.803478  L 764.64 285.803478  " style="fill: none; stroke: #262626; stroke-width: 2; stroke-linejoin: miter; stroke-linecap: square"/>
   </g>
   <g id="text_6">
    <!-- tegument -->
    <g transform="translate(44.28 277.654144)scale(0.13 -0.13)">
     <defs>
      <path id="DejaVuSans-67" d="M 2906 1791  Q 2906 2416 2648 2759  Q 2391 3103 1925 3103  Q 1463 3103 1205 2759  Q 947 2416 947 1791  Q 947 1169 1205 825  Q 1463 481 1925 481  Q 2391 481 2648 825  Q 2906 1169 2906 1791  z M 3481 434  Q 3481 -459 3084 -895  Q 2688 -1331 1869 -1331  Q 1566 -1331 1297 -1286  Q 1028 -1241 775 -1147  L 775 -588  Q 1028 -725 1275 -790  Q 1522 -856 1778 -856  Q 2344 -856 2625 -561  Q 2906 -266 2906 331  L 2906 616  Q 2728 306 2450 153  Q 2172 0 1784 0  Q 1141 0 747 490  Q 353 981 353 1791  Q 353 2603 747 3093  Q 1141 3584 1784 3584  Q 2172 3584 2450 3431  Q 2728 3278 2906 2969  L 2906 3500  L 3481 3500  L 3481 434  z " transform="scale(0.015625)"/>
      <path id="DejaVuSans-75" d="M 544 1381  L 544 3500  L 1119 3500  L 1119 1403  Q 1119 906 1312 657  Q 1506 409 1894 409  Q 2359 409 2629 706  Q 2900 1003 2900 1516  L 2900 3500  L 3475 3500  L 3475 0  L 2900 0  L 2900 538  Q 2691 219 2414 64  Q 2138 -91 1772 -91  Q 1169 -91 856 284  Q 544 659 544 1381  z M 1991 3584  L 1991 3584  z " transform="scale(0.015625)"/>
      <path id="DejaVuSans-6d" d="M 3328 2828  Q 3544 3216 3844 3400  Q 4144 3584 4550 3584  Q 5097 3584 5394 3201  Q 5691 2819 5691 2113  L 5691 0  L 5113 0  L 5113 2094  Q 5113 2597 4934 2840  Q 4756 3084 4391 3084  Q 3944 3084 3684 2787  Q 3425 2491 3425 1978  L 3425 0  L 2847 0  L 2847 2094  Q 2847 2600 2669 2842  Q 2491 3084 2119 3084  Q 1678 3084 1418 2786  Q 1159 2488 1159 1978  L 1159 0  L 581 0  L 581 3500  L 1159 3500  L 1159 2956  Q 1356 3278 1631 3431  Q 1906 3584 2284 3584  Q 2666 3584 2933 3390  Q 3200 3197 3328 2828  z " transform="scale(0.015625)"/>
     </defs>
     <use xlink:href="#DejaVuSans-74"/>
     <use xlink:href="#DejaVuSans-65" x="39.208984"/>
     <use xlink:href="#DejaVuSans-67" x="100.732422"/>
     <use xlink:href="#DejaVuSans-75" x="164.208984"/>
     <use xlink:href="#DejaVuSans-6d" x="227.587891"/>
     <use xlink:href="#DejaVuSans-65" x="325"/>
     <use xlink:href="#DejaVuSans-6e" x="386.523438"/>
     <use xlink:href="#DejaVuSans-74" x="449.902344"/>
    </g>
   </g>
  </g>
  <g id="axes_4">
   <g id="patch_8">
    <path d="M 44.28 297.54  L 764.64 297.54  L 764.64 62.809565  L 44.28 62.809565  L 44.28 297.54  z " style="fill: none"/>
   </g>
   <g id="matplotlib.axis_7">
    <g id="xtick_28">
     <g id="text_7">
      <!-- 0.6 -->
      <g style="fill: #262626" transform="translate(70.944453 315.398281)scale(0.11 -0.11)">
       <defs>
        <path id="DejaVuSans-2212" d="M 678 2272  L 4684 2272  L 4684 1741  L 678 1741  L 678 2272  z " transform="scale(0.015625)"/>
        <path id="DejaVuSans-30" d="M 2034 4250  Q 1547 4250 1301 3770  Q 1056 3291 1056 2328  Q 1056 1369 1301 889  Q 1547 409 2034 409  Q 2525 409 2770 889  Q 3016 1369 3016 2328  Q 3016 3291 2770 3770  Q 2525 4250 2034 4250  z M 2034 4750  Q 2819 4750 3233 4129  Q 3647 3509 3647 2328  Q 3647 1150 3233 529  Q 2819 -91 2034 -91  Q 1250 -91 836 529  Q 422 1150 422 2328  Q 422 3509 836 4129  Q 1250 4750 2034 4750  z " transform="scale(0.015625)"/>
        <path id="DejaVuSans-2e" d="M 684 794  L 1344 794  L 1344 0  L 684 0  L 684 794  z " transform="scale(0.015625)"/>
        <path id="DejaVuSans-36" d="M 2113 2584  Q 1688 2584 1439 2293  Q 1191 2003 1191 1497  Q 1191 994 1439 701  Q 1688 409 2113 409  Q 2538 409 2786 701  Q 3034 994 3034 1497  Q 3034 2003 2786 2293  Q 2538 2584 2113 2584  z M 3366 4563  L 3366 3988  Q 3128 4100 2886 4159  Q 2644 4219 2406 4219  Q 1781 4219 1451 3797  Q 1122 3375 1075 2522  Q 1259 2794 1537 2939  Q 1816 3084 2150 3084  Q 2853 3084 3261 2657  Q 3669 2231 3669 1497  Q 3669 778 3244 343  Q 2819 -91 2113 -91  Q 1303 -91 875 529  Q 447 1150 447 2328  Q 447 3434 972 4092  Q 1497 4750 2381 4750  Q 2619 4750 2861 4703  Q 3103 4656 3366 4563  z " transform="scale(0.015625)"/>
       </defs>
       <use xlink:href="#DejaVuSans-2212"/>
       <use xlink:href="#DejaVuSans-30" x="83.789062"/>
       <use xlink:href="#DejaVuSans-2e" x="147.412109"/>
       <use xlink:href="#DejaVuSans-36" x="179.199219"/>
      </g>
     </g>
    </g>
    <g id="xtick_29">
     <g id="text_8">
      <!-- 0.4 -->
      <g style="fill: #262626" transform="translate(150.984453 315.398281)scale(0.11 -0.11)">
       <defs>
        <path id="DejaVuSans-34" d="M 2419 4116  L 825 1625  L 2419 1625  L 2419 4116  z M 2253 4666  L 3047 4666  L 3047 1625  L 3713 1625  L 3713 1100  L 3047 1100  L 3047 0  L 2419 0  L 2419 1100  L 313 1100  L 313 1709  L 2253 4666  z " transform="scale(0.015625)"/>
       </defs>
       <use xlink:href="#DejaVuSans-2212"/>
       <use xlink:href="#DejaVuSans-30" x="83.789062"/>
       <use xlink:href="#DejaVuSans-2e" x="147.412109"/>
       <use xlink:href="#DejaVuSans-34" x="179.199219"/>
      </g>
     </g>
    </g>
    <g id="xtick_30">
     <g id="text_9">
      <!-- 0.2 -->
      <g style="fill: #262626" transform="translate(231.024453 315.398281)scale(0.11 -0.11)">
       <defs>
        <path id="DejaVuSans-32" d="M 1228 531  L 3431 531  L 3431 0  L 469 0  L 469 531  Q 828 903 1448 1529  Q 2069 2156 2228 2338  Q 2531 2678 2651 2914  Q 2772 3150 2772 3378  Q 2772 3750 2511 3984  Q 2250 4219 1831 4219  Q 1534 4219 1204 4116  Q 875 4013 500 3803  L 500 4441  Q 881 4594 1212 4672  Q 1544 4750 1819 4750  Q 2544 4750 2975 4387  Q 3406 4025 3406 3419  Q 3406 3131 3298 2873  Q 3191 2616 2906 2266  Q 2828 2175 2409 1742  Q 1991 1309 1228 531  z " transform="scale(0.015625)"/>
       </defs>
       <use xlink:href="#DejaVuSans-2212"/>
       <use xlink:href="#DejaVuSans-30" x="83.789062"/>
       <use xlink:href="#DejaVuSans-2e" x="147.412109"/>
       <use xlink:href="#DejaVuSans-32" x="179.199219"/>
      </g>
     </g>
    </g>
    <g id="xtick_31">
     <g id="text_10">
      <!-- 0.0 -->
      <g style="fill: #262626" transform="translate(315.673281 315.398281)scale(0.11 -0.11)">
       <use xlink:href="#DejaVuSans-30"/>
       <use xlink:href="#DejaVuSans-2e" x="63.623047"/>
       <use xlink:href="#DejaVuSans-30" x="95.410156"/>
      </g>
     </g>
    </g>
    <g id="xtick_32">
     <g id="text_11">
      <!-- 0.2 -->
      <g style="fill: #262626" transform="translate(395.713281 315.398281)scale(0.11 -0.11)">
       <use xlink:href="#DejaVuSans-30"/>
       <use xlink:href="#DejaVuSans-2e" x="63.623047"/>
       <use xlink:href="#DejaVuSans-32" x="95.410156"/>
      </g>
     </g>
    </g>
    <g id="xtick_33">
     <g id="text_12">
      <!-- 0.4 -->
      <g style="fill: #262626" transform="translate(475.753281 315.398281)scale(0.11 -0.11)">
       <use xlink:href="#DejaVuSans-30"/>
       <use xlink:href="#DejaVuSans-2e" x="63.623047"/>
       <use xlink:href="#DejaVuSans-34" x="95.410156"/>
      </g>
     </g>
    </g>
    <g id="xtick_34">
     <g id="text_13">
      <!-- 0.6 -->
      <g style="fill: #262626" transform="translate(555.793281 315.398281)scale(0.11 -0.11)">
       <use xlink:href="#DejaVuSans-30"/>
       <use xlink:href="#DejaVuSans-2e" x="63.623047"/>
       <use xlink:href="#DejaVuSans-36" x="95.410156"/>
      </g>
     </g>
    </g>
    <g id="xtick_35">
     <g id="text_14">
      <!-- 0.8 -->
      <g style="fill: #262626" transform="translate(635.833281 315.398281)scale(0.11 -0.11)">
       <defs>
        <path id="DejaVuSans-38" d="M 2034 2216  Q 1584 2216 1326 1975  Q 1069 1734 1069 1313  Q 1069 891 1326 650  Q 1584 409 2034 409  Q 2484 409 2743 651  Q 3003 894 3003 1313  Q 3003 1734 2745 1975  Q 2488 2216 2034 2216  z M 1403 2484  Q 997 2584 770 2862  Q 544 3141 544 3541  Q 544 4100 942 4425  Q 1341 4750 2034 4750  Q 2731 4750 3128 4425  Q 3525 4100 3525 3541  Q 3525 3141 3298 2862  Q 3072 2584 2669 2484  Q 3125 2378 3379 2068  Q 3634 1759 3634 1313  Q 3634 634 3220 271  Q 2806 -91 2034 -91  Q 1263 -91 848 271  Q 434 634 434 1313  Q 434 1759 690 2068  Q 947 2378 1403 2484  z M 1172 3481  Q 1172 3119 1398 2916  Q 1625 2713 2034 2713  Q 2441 2713 2670 2916  Q 2900 3119 2900 3481  Q 2900 3844 2670 4047  Q 2441 4250 2034 4250  Q 1625 4250 1398 4047  Q 1172 3844 1172 3481  z " transform="scale(0.015625)"/>
       </defs>
       <use xlink:href="#DejaVuSans-30"/>
       <use xlink:href="#DejaVuSans-2e" x="63.623047"/>
       <use xlink:href="#DejaVuSans-38" x="95.410156"/>
      </g>
     </g>
    </g>
    <g id="xtick_36">
     <g id="text_15">
      <!-- 1.0 -->
      <g style="fill: #262626" transform="translate(715.873281 315.398281)scale(0.11 -0.11)">
       <defs>
        <path id="DejaVuSans-31" d="M 794 531  L 1825 531  L 1825 4091  L 703 3866  L 703 4441  L 1819 4666  L 2450 4666  L 2450 531  L 3481 531  L 3481 0  L 794 0  L 794 531  z " transform="scale(0.015625)"/>
       </defs>
       <use xlink:href="#DejaVuSans-31"/>
       <use xlink:href="#DejaVuSans-2e" x="63.623047"/>
       <use xlink:href="#DejaVuSans-30" x="95.410156"/>
      </g>
     </g>
    </g>
    <g id="text_16">
     <!-- Schisto correlation to muscle -->
     <g style="fill: #262626" transform="translate(317.367187 330.804062)scale(0.12 -0.12)">
      <defs>
       <path id="DejaVuSans-53" d="M 3425 4513  L 3425 3897  Q 3066 4069 2747 4153  Q 2428 4238 2131 4238  Q 1616 4238 1336 4038  Q 1056 3838 1056 3469  Q 1056 3159 1242 3001  Q 1428 2844 1947 2747  L 2328 2669  Q 3034 2534 3370 2195  Q 3706 1856 3706 1288  Q 3706 609 3251 259  Q 2797 -91 1919 -91  Q 1588 -91 1214 -16  Q 841 59 441 206  L 441 856  Q 825 641 1194 531  Q 1563 422 1919 422  Q 2459 422 2753 634  Q 3047 847 3047 1241  Q 3047 1584 2836 1778  Q 2625 1972 2144 2069  L 1759 2144  Q 1053 2284 737 2584  Q 422 2884 422 3419  Q 422 4038 858 4394  Q 1294 4750 2059 4750  Q 2388 4750 2728 4690  Q 3069 4631 3425 4513  z " transform="scale(0.015625)"/>
       <path id="DejaVuSans-6f" d="M 1959 3097  Q 1497 3097 1228 2736  Q 959 2375 959 1747  Q 959 1119 1226 758  Q 1494 397 1959 397  Q 2419 397 2687 759  Q 2956 1122 2956 1747  Q 2956 2369 2687 2733  Q 2419 3097 1959 3097  z M 1959 3584  Q 2709 3584 3137 3096  Q 3566 2609 3566 1747  Q 3566 888 3137 398  Q 2709 -91 1959 -91  Q 1206 -91 779 398  Q 353 888 353 1747  Q 353 2609 779 3096  Q 1206 3584 1959 3584  z " transform="scale(0.015625)"/>
       <path id="DejaVuSans-20" transform="scale(0.015625)"/>
       <path id="DejaVuSans-72" d="M 2631 2963  Q 2534 3019 2420 3045  Q 2306 3072 2169 3072  Q 1681 3072 1420 2755  Q 1159 2438 1159 1844  L 1159 0  L 581 0  L 581 3500  L 1159 3500  L 1159 2956  Q 1341 3275 1631 3429  Q 1922 3584 2338 3584  Q 2397 3584 2469 3576  Q 2541 3569 2628 3553  L 2631 2963  z " transform="scale(0.015625)"/>
       <path id="DejaVuSans-6c" d="M 603 4863  L 1178 4863  L 1178 0  L 603 0  L 603 4863  z " transform="scale(0.015625)"/>
      </defs>
      <use xlink:href="#DejaVuSans-53"/>
      <use xlink:href="#DejaVuSans-63" x="63.476562"/>
      <use xlink:href="#DejaVuSans-68" x="118.457031"/>
      <use xlink:href="#DejaVuSans-69" x="181.835938"/>
      <use xlink:href="#DejaVuSans-73" x="209.619141"/>
      <use xlink:href="#DejaVuSans-74" x="261.71875"/>
      <use xlink:href="#DejaVuSans-6f" x="300.927734"/>
      <use xlink:href="#DejaVuSans-20" x="362.109375"/>
      <use xlink:href="#DejaVuSans-63" x="393.896484"/>
      <use xlink:href="#DejaVuSans-6f" x="448.876953"/>
      <use xlink:href="#DejaVuSans-72" x="510.058594"/>
      <use xlink:href="#DejaVuSans-72" x="549.421875"/>
      <use xlink:href="#DejaVuSans-65" x="588.285156"/>
      <use xlink:href="#DejaVuSans-6c" x="649.808594"/>
      <use xlink:href="#DejaVuSans-61" x="677.591797"/>
      <use xlink:href="#DejaVuSans-74" x="738.871094"/>
      <use xlink:href="#DejaVuSans-69" x="778.080078"/>
      <use xlink:href="#DejaVuSans-6f" x="805.863281"/>
      <use xlink:href="#DejaVuSans-6e" x="867.044922"/>
      <use xlink:href="#DejaVuSans-20" x="930.423828"/>
      <use xlink:href="#DejaVuSans-74" x="962.210938"/>
      <use xlink:href="#DejaVuSans-6f" x="1001.419922"/>
      <use xlink:href="#DejaVuSans-20" x="1062.601562"/>
      <use xlink:href="#DejaVuSans-6d" x="1094.388672"/>
      <use xlink:href="#DejaVuSans-75" x="1191.800781"/>
      <use xlink:href="#DejaVuSans-73" x="1255.179688"/>
      <use xlink:href="#DejaVuSans-63" x="1307.279297"/>
      <use xlink:href="#DejaVuSans-6c" x="1362.259766"/>
      <use xlink:href="#DejaVuSans-65" x="1390.042969"/>
     </g>
    </g>
   </g>
   <g id="matplotlib.axis_8">
    <g id="text_17">
     <!-- Density -->
     <g style="fill: #262626" transform="translate(37.784375 202.985095)rotate(-90)scale(0.12 -0.12)">
      <use xlink:href="#DejaVuSans-44"/>
      <use xlink:href="#DejaVuSans-65" x="77.001953"/>
      <use xlink:href="#DejaVuSans-6e" x="138.525391"/>
      <use xlink:href="#DejaVuSans-73" x="201.904297"/>
      <use xlink:href="#DejaVuSans-69" x="254.003906"/>
      <use xlink:href="#DejaVuSans-74" x="281.787109"/>
      <use xlink:href="#DejaVuSans-79" x="320.996094"/>
     </g>
    </g>
   </g>
   <g id="PolyCollection_4">
    <defs>
     <path id="mc91d23ab49" d="M 30.776031 -48.062179  L 30.776031 -48.06  L 34.484105 -48.06  L 38.19218 -48.06  L 41.900255 -48.06  L 45.608329 -48.06  L 49.316404 -48.06  L 53.024478 -48.06  L 56.732553 -48.06  L 60.440627 -48.06  L 64.148702 -48.06  L 67.856777 -48.06  L 71.564851 -48.06  L 75.272926 -48.06  L 78.981 -48.06  L 82.689075 -48.06  L 86.397149 -48.06  L 90.105224 -48.06  L 93.813298 -48.06  L 97.521373 -48.06  L 101.229448 -48.06  L 104.937522 -48.06  L 108.645597 -48.06  L 112.353671 -48.06  L 116.061746 -48.06  L 119.76982 -48.06  L 123.477895 -48.06  L 127.18597 -48.06  L 130.894044 -48.06  L 134.602119 -48.06  L 138.310193 -48.06  L 142.018268 -48.06  L 145.726342 -48.06  L 149.434417 -48.06  L 153.142492 -48.06  L 156.850566 -48.06  L 160.558641 -48.06  L 164.266715 -48.06  L 167.97479 -48.06  L 171.682864 -48.06  L 175.390939 -48.06  L 179.099013 -48.06  L 182.807088 -48.06  L 186.515163 -48.06  L 190.223237 -48.06  L 193.931312 -48.06  L 197.639386 -48.06  L 201.347461 -48.06  L 205.055535 -48.06  L 208.76361 -48.06  L 212.471685 -48.06  L 216.179759 -48.06  L 219.887834 -48.06  L 223.595908 -48.06  L 227.303983 -48.06  L 231.012057 -48.06  L 234.720132 -48.06  L 238.428207 -48.06  L 242.136281 -48.06  L 245.844356 -48.06  L 249.55243 -48.06  L 253.260505 -48.06  L 256.968579 -48.06  L 260.676654 -48.06  L 264.384729 -48.06  L 268.092803 -48.06  L 271.800878 -48.06  L 275.508952 -48.06  L 279.217027 -48.06  L 282.925101 -48.06  L 286.633176 -48.06  L 290.34125 -48.06  L 294.049325 -48.06  L 297.7574 -48.06  L 301.465474 -48.06  L 305.173549 -48.06  L 308.881623 -48.06  L 312.589698 -48.06  L 316.297772 -48.06  L 320.005847 -48.06  L 323.713922 -48.06  L 327.421996 -48.06  L 331.130071 -48.06  L 334.838145 -48.06  L 338.54622 -48.06  L 342.254294 -48.06  L 345.962369 -48.06  L 349.670444 -48.06  L 353.378518 -48.06  L 357.086593 -48.06  L 360.794667 -48.06  L 364.502742 -48.06  L 368.210816 -48.06  L 371.918891 -48.06  L 375.626966 -48.06  L 379.33504 -48.06  L 383.043115 -48.06  L 386.751189 -48.06  L 390.459264 -48.06  L 394.167338 -48.06  L 397.875413 -48.06  L 401.583487 -48.06  L 405.291562 -48.06  L 408.999637 -48.06  L 412.707711 -48.06  L 416.415786 -48.06  L 420.12386 -48.06  L 423.831935 -48.06  L 427.540009 -48.06  L 431.248084 -48.06  L 434.956159 -48.06  L 438.664233 -48.06  L 442.372308 -48.06  L 446.080382 -48.06  L 449.788457 -48.06  L 453.496531 -48.06  L 457.204606 -48.06  L 460.912681 -48.06  L 464.620755 -48.06  L 468.32883 -48.06  L 472.036904 -48.06  L 475.744979 -48.06  L 479.453053 -48.06  L 483.161128 -48.06  L 486.869203 -48.06  L 490.577277 -48.06  L 494.285352 -48.06  L 497.993426 -48.06  L 501.701501 -48.06  L 505.409575 -48.06  L 509.11765 -48.06  L 512.825724 -48.06  L 516.533799 -48.06  L 520.241874 -48.06  L 523.949948 -48.06  L 527.658023 -48.06  L 531.366097 -48.06  L 535.074172 -48.06  L 538.782246 -48.06  L 542.490321 -48.06  L 546.198396 -48.06  L 549.90647 -48.06  L 553.614545 -48.06  L 557.322619 -48.06  L 561.030694 -48.06  L 564.738768 -48.06  L 568.446843 -48.06  L 572.154918 -48.06  L 575.862992 -48.06  L 579.571067 -48.06  L 583.279141 -48.06  L 586.987216 -48.06  L 590.69529 -48.06  L 594.403365 -48.06  L 598.111439 -48.06  L 601.819514 -48.06  L 605.527589 -48.06  L 609.235663 -48.06  L 612.943738 -48.06  L 616.651812 -48.06  L 620.359887 -48.06  L 624.067961 -48.06  L 627.776036 -48.06  L 631.484111 -48.06  L 635.192185 -48.06  L 638.90026 -48.06  L 642.608334 -48.06  L 646.316409 -48.06  L 650.024483 -48.06  L 653.732558 -48.06  L 657.440633 -48.06  L 661.148707 -48.06  L 664.856782 -48.06  L 668.564856 -48.06  L 672.272931 -48.06  L 675.981005 -48.06  L 679.68908 -48.06  L 683.397155 -48.06  L 687.105229 -48.06  L 690.813304 -48.06  L 694.521378 -48.06  L 698.229453 -48.06  L 701.937527 -48.06  L 705.645602 -48.06  L 709.353676 -48.06  L 713.061751 -48.06  L 716.769826 -48.06  L 720.4779 -48.06  L 724.185975 -48.06  L 727.894049 -48.06  L 731.602124 -48.06  L 735.310198 -48.06  L 739.018273 -48.06  L 742.726348 -48.06  L 746.434422 -48.06  L 750.142497 -48.06  L 753.850571 -48.06  L 757.558646 -48.06  L 761.26672 -48.06  L 764.974795 -48.06  L 768.68287 -48.06  L 768.68287 -48.082706  L 768.68287 -48.082706  L 764.974795 -48.106077  L 761.26672 -48.149877  L 757.558646 -48.228556  L 753.850571 -48.364029  L 750.142497 -48.587632  L 746.434422 -48.941443  L 742.726348 -49.478203  L 739.018273 -50.259082  L 735.310198 -51.348742  L 731.602124 -52.807756  L 727.894049 -54.683204  L 724.185975 -56.999134  L 720.4779 -59.749108  L 716.769826 -62.893003  L 713.061751 -66.359515  L 709.353676 -70.054483  L 705.645602 -73.873676  L 701.937527 -77.717516  L 698.229453 -81.504804  L 694.521378 -85.182954  L 690.813304 -88.733298  L 687.105229 -92.171273  L 683.397155 -95.542305  L 679.68908 -98.914651  L 675.981005 -102.37046  L 672.272931 -105.996073  L 668.564856 -109.872342  L 664.856782 -114.065735  L 661.148707 -118.621054  L 657.440633 -123.556717  L 653.732558 -128.863393  L 650.024483 -134.506357  L 646.316409 -140.431327  L 642.608334 -146.572804  L 638.90026 -152.863478  L 635.192185 -159.242999  L 631.484111 -165.66456  L 627.776036 -172.098147  L 624.067961 -178.52991  L 620.359887 -184.957773  L 616.651812 -191.384109  L 612.943738 -197.806922  L 609.235663 -204.211451  L 605.527589 -210.564298  L 601.819514 -216.811903  L 598.111439 -222.884359  L 594.403365 -228.704311  L 590.69529 -234.19917  L 586.987216 -239.313639  L 583.279141 -244.019008  L 579.571067 -248.316202  L 575.862992 -252.231075  L 572.154918 -255.802694  L 568.446843 -259.067548  L 564.738768 -262.044076  L 561.030694 -264.722014  L 557.322619 -267.059817  L 553.614545 -268.99104  L 549.90647 -270.437959  L 546.198396 -271.328636  L 542.490321 -271.612795  L 538.782246 -271.27241  L 535.074172 -270.324599  L 531.366097 -268.81668  L 527.658023 -266.815299  L 523.949948 -264.39288  L 520.241874 -261.615013  L 516.533799 -258.531765  L 512.825724 -255.174671  L 509.11765 -251.559524  L 505.409575 -247.693612  L 501.701501 -243.584883  L 497.993426 -239.250045  L 494.285352 -234.718956  L 490.577277 -230.033768  L 486.869203 -225.242986  L 483.161128 -220.392349  L 479.453053 -215.515632  L 475.744979 -210.628785  L 472.036904 -205.729867  L 468.32883 -200.805442  L 464.620755 -195.841854  L 460.912681 -190.83797  L 457.204606 -185.81508  L 453.496531 -180.820224  L 449.788457 -175.921018  L 446.080382 -171.192708  L 442.372308 -166.700779  L 438.664233 -162.484166  L 434.956159 -158.544289  L 431.248084 -154.843648  L 427.540009 -151.31495  L 423.831935 -147.878558  L 420.12386 -144.463477  L 416.415786 -141.026011  L 412.707711 -137.560909  L 408.999637 -134.102133  L 405.291562 -130.713415  L 401.583487 -127.471585  L 397.875413 -124.447338  L 394.167338 -121.688325  L 390.459264 -119.208333  L 386.751189 -116.984371  L 383.043115 -114.961464  L 379.33504 -113.063356  L 375.626966 -111.206497  L 371.918891 -109.314446  L 368.210816 -107.330204  L 364.502742 -105.22453  L 360.794667 -102.999059  L 357.086593 -100.683845  L 353.378518 -98.329861  L 349.670444 -95.997975  L 345.962369 -93.746733  L 342.254294 -91.621696  L 338.54622 -89.648809  L 334.838145 -87.833286  L 331.130071 -86.163879  L 327.421996 -84.620839  L 323.713922 -83.184733  L 320.005847 -81.843203  L 316.297772 -80.593613  L 312.589698 -79.441142  L 308.881623 -78.393451  L 305.173549 -77.454157  L 301.465474 -76.617498  L 297.7574 -75.865939  L 294.049325 -75.171332  L 290.34125 -74.499148  L 286.633176 -73.814515  L 282.925101 -73.088512  L 279.217027 -72.303276  L 275.508952 -71.454867  L 271.800878 -70.553278  L 268.092803 -69.61954  L 264.384729 -68.680462  L 260.676654 -67.762087  L 256.968579 -66.883386  L 253.260505 -66.051761  L 249.55243 -65.261551  L 245.844356 -64.495917  L 242.136281 -63.731564  L 238.428207 -62.944928  L 234.720132 -62.118159  L 231.012057 -61.243424  L 227.303983 -60.324695  L 223.595908 -59.376933  L 219.887834 -58.423265  L 216.179759 -57.49101  L 212.471685 -56.607486  L 208.76361 -55.796295  L 205.055535 -55.07454  L 201.347461 -54.451158  L 197.639386 -53.926417  L 193.931312 -53.492464  L 190.223237 -53.13475  L 186.515163 -52.834097  L 182.807088 -52.569128  L 179.099013 -52.31879  L 175.390939 -52.064708  L 171.682864 -51.793133  L 167.97479 -51.496286  L 164.266715 -51.172917  L 160.558641 -50.827988  L 156.850566 -50.471507  L 153.142492 -50.116653  L 149.434417 -49.777515  L 145.726342 -49.466829  L 142.018268 -49.194146  L 138.310193 -48.964731  L 134.602119 -48.779368  L 130.894044 -48.635005  L 127.18597 -48.525987  L 123.477895 -48.445531  L 119.76982 -48.387062  L 116.061746 -48.345117  L 112.353671 -48.3157  L 108.645597 -48.296121  L 104.937522 -48.284488  L 101.229448 -48.279124  L 97.521373 -48.278114  L 93.813298 -48.279143  L 90.105224 -48.279652  L 86.397149 -48.277218  L 82.689075 -48.270008  L 78.981 -48.257137  L 75.272926 -48.238806  L 71.564851 -48.216188  L 67.856777 -48.191106  L 64.148702 -48.165609  L 60.440627 -48.141561  L 56.732553 -48.120357  L 53.024478 -48.102783  L 49.316404 -48.089042  L 45.608329 -48.078876  L 41.900255 -48.071746  L 38.19218 -48.066998  L 34.484105 -48.063991  L 30.776031 -48.062179  z " style="stroke: #e78ac3"/>
    </defs>
    <g clip-path="url(#pd93b5d8360)">
     <use xlink:href="#mc91d23ab49" x="0" y="345.6" style="fill: #e78ac3; stroke: #e78ac3"/>
    </g>
   </g>
   <g id="line2d_4">
    <path d="M 30.776031 297.537821  L 67.856777 297.408894  L 93.813298 297.320857  L 116.061746 297.254883  L 127.18597 297.074013  L 134.602119 296.820632  L 142.018268 296.405854  L 153.142492 295.483347  L 171.682864 293.806867  L 193.931312 292.107536  L 201.347461 291.148842  L 208.76361 289.803705  L 216.179759 288.10899  L 234.720132 283.481841  L 245.844356 281.104083  L 256.968579 278.716614  L 268.092803 275.98046  L 275.508952 274.145133  L 282.925101 272.511488  L 294.049325 270.428668  L 301.465474 268.982502  L 308.881623 267.206549  L 316.297772 265.006387  L 323.713922 262.415267  L 331.130071 259.436121  L 334.838145 257.766714  L 338.54622 255.951191  L 342.254294 253.978304  L 349.670444 249.602025  L 364.502742 240.37547  L 371.918891 236.285554  L 386.751189 228.615629  L 390.459264 226.391667  L 394.167338 223.911675  L 397.875413 221.152662  L 401.583487 218.128415  L 408.999637 211.497867  L 431.248084 190.756352  L 434.956159 187.055711  L 438.664233 183.115834  L 442.372308 178.899221  L 446.080382 174.407292  L 453.496531 164.779776  L 475.744979 134.971215  L 490.577277 115.566232  L 497.993426 106.349955  L 501.701501 102.015117  L 505.409575 97.906388  L 509.11765 94.040476  L 512.825724 90.425329  L 516.533799 87.068235  L 520.241874 83.984987  L 523.949948 81.20712  L 527.658023 78.784701  L 531.366097 76.78332  L 535.074172 75.275401  L 538.782246 74.32759  L 542.490321 73.987205  L 546.198396 74.271364  L 549.90647 75.162041  L 553.614545 76.60896  L 557.322619 78.540183  L 561.030694 80.877986  L 564.738768 83.555924  L 568.446843 86.532452  L 572.154918 89.797306  L 575.862992 93.368925  L 579.571067 97.283798  L 583.279141 101.580992  L 586.987216 106.286361  L 590.69529 111.40083  L 594.403365 116.895689  L 598.111439 122.715641  L 605.527589 135.035702  L 620.359887 160.642227  L 642.608334 199.027196  L 646.316409 205.168673  L 650.024483 211.093643  L 653.732558 216.736607  L 657.440633 222.043283  L 661.148707 226.978946  L 664.856782 231.534265  L 668.564856 235.727658  L 672.272931 239.603927  L 675.981005 243.22954  L 683.397155 250.057695  L 690.813304 256.866702  L 698.229453 264.095196  L 713.061751 279.240485  L 716.769826 282.706997  L 720.4779 285.850892  L 724.185975 288.600866  L 727.894049 290.916796  L 731.602124 292.792244  L 735.310198 294.251258  L 739.018273 295.340918  L 742.726348 296.121797  L 746.434422 296.658557  L 750.142497 297.012368  L 757.558646 297.371444  L 768.68287 297.517294  L 768.68287 297.517294  " clip-path="url(#pd93b5d8360)" style="fill: none; stroke: #000000; stroke-width: 1.5; stroke-linecap: round"/>
   </g>
   <g id="patch_9">
    <path d="M 44.28 297.54  L 764.64 297.54  " style="fill: none; stroke: #262626; stroke-width: 2; stroke-linejoin: miter; stroke-linecap: square"/>
   </g>
   <g id="text_18">
    <!-- neural -->
    <g transform="translate(44.28 289.390666)scale(0.13 -0.13)">
     <use xlink:href="#DejaVuSans-6e"/>
     <use xlink:href="#DejaVuSans-65" x="63.378906"/>
     <use xlink:href="#DejaVuSans-75" x="124.902344"/>
     <use xlink:href="#DejaVuSans-72" x="188.28125"/>
     <use xlink:href="#DejaVuSans-61" x="229.394531"/>
     <use xlink:href="#DejaVuSans-6c" x="290.673828"/>
    </g>
   </g>
  </g>
 </g>
 <defs>
  <clipPath id="p9a04011dff">
   <rect x="44.28" y="27.6" width="720.36" height="234.730435"/>
  </clipPath>
  <clipPath id="p1fca4b1a47">
   <rect x="44.28" y="39.336522" width="720.36" height="234.730435"/>
  </clipPath>
  <clipPath id="pf869e56097">
   <rect x="44.28" y="51.073043" width="720.36" height="234.730435"/>
  </clipPath>
  <clipPath id="pd93b5d8360">
   <rect x="44.28" y="62.809565" width="720.36" height="234.730435"/>
  </clipPath>
 </defs>
</svg>