<?xml version="1.0" encoding="UTF-8" standalone="no"?>
<!DOCTYPE svg PUBLIC "-//W3C//DTD SVG 1.1//EN" "http://www.w3.org/Graphics/SVG/1.1/DTD/svg11.dtd">
<svg xmlns:xlink="http://www.w3.org/1999/xlink" width="777.6pt" height="432pt" viewBox="0 0 777.6 432" xmlns="http://www.w3.org/2000/svg" version="1.1">
 <metadata>
  <rdf:RDF xmlns:dc="http://purl.org/dc/elements/1.1/" xmlns:cc="http://creativecommons.org/ns#" xmlns:rdf="http://www.w3.org/1999/02/22-rdf-syntax-ns#">
   <cc:Work>
    <dc:type rdf:resource="http://purl.org/dc/dcmitype/StillImage"/>
    <dc:date>2024-08-05T21:26:50.830790</dc:date>
    <dc:format>image/svg+xml</dc:format>
    <dc:creator>
     <cc:Agent>
      <dc:title>Matplotlib v3.5.1, https://matplotlib.org/</dc:title>
     </cc:Agent>
    </dc:creator>
   </cc:Work>
  </rdf:RDF>
 </metadata>
 <defs>
  <style type="text/css">*{stroke-linejoin: round; stroke-linecap: butt}</style>
 </defs>
 <g id="figure_1">
  <g id="patch_1">
   <path d="M 0 432  L 777.6 432  L 777.6 0  L 0 0  z " style="fill: #ffffff"/>
  </g>
  <g id="axes_1">
   <g id="patch_2">
    <path d="M 44.28 324.55  L 764.64 324.55  L 764.64 27.6  L 44.28 27.6  L 44.28 324.55  z " style="fill: none"/>
   </g>
   <g id="matplotlib.axis_1">
    <g id="xtick_1"/>
    <g id="xtick_2"/>
    <g id="xtick_3"/>
    <g id="xtick_4"/>
    <g id="xtick_5"/>
    <g id="xtick_6"/>
    <g id="xtick_7"/>
    <g id="xtick_8"/>
    <g id="xtick_9"/>
   </g>
   <g id="matplotlib.axis_2">
    <g id="text_1">
     <!-- Density -->
     <g style="fill: #262626" transform="translate(37.784375 198.885312)rotate(-90)scale(0.12 -0.12)">
      <defs>
       <path id="DejaVuSans-44" d="M 1259 4147  L 1259 519  L 2022 519  Q 2988 519 3436 956  Q 3884 1394 3884 2338  Q 3884 3275 3436 3711  Q 2988 4147 2022 4147  L 1259 4147  z M 628 4666  L 1925 4666  Q 3281 4666 3915 4102  Q 4550 3538 4550 2338  Q 4550 1131 3912 565  Q 3275 0 1925 0  L 628 0  L 628 4666  z " transform="scale(0.015625)"/>
       <path id="DejaVuSans-65" d="M 3597 1894  L 3597 1613  L 953 1613  Q 991 1019 1311 708  Q 1631 397 2203 397  Q 2534 397 2845 478  Q 3156 559 3463 722  L 3463 178  Q 3153 47 2828 -22  Q 2503 -91 2169 -91  Q 1331 -91 842 396  Q 353 884 353 1716  Q 353 2575 817 3079  Q 1281 3584 2069 3584  Q 2775 3584 3186 3129  Q 3597 2675 3597 1894  z M 3022 2063  Q 3016 2534 2758 2815  Q 2500 3097 2075 3097  Q 1594 3097 1305 2825  Q 1016 2553 972 2059  L 3022 2063  z " transform="scale(0.015625)"/>
       <path id="DejaVuSans-6e" d="M 3513 2113  L 3513 0  L 2938 0  L 2938 2094  Q 2938 2591 2744 2837  Q 2550 3084 2163 3084  Q 1697 3084 1428 2787  Q 1159 2491 1159 1978  L 1159 0  L 581 0  L 581 3500  L 1159 3500  L 1159 2956  Q 1366 3272 1645 3428  Q 1925 3584 2291 3584  Q 2894 3584 3203 3211  Q 3513 2838 3513 2113  z " transform="scale(0.015625)"/>
       <path id="DejaVuSans-73" d="M 2834 3397  L 2834 2853  Q 2591 2978 2328 3040  Q 2066 3103 1784 3103  Q 1356 3103 1142 2972  Q 928 2841 928 2578  Q 928 2378 1081 2264  Q 1234 2150 1697 2047  L 1894 2003  Q 2506 1872 2764 1633  Q 3022 1394 3022 966  Q 3022 478 2636 193  Q 2250 -91 1575 -91  Q 1294 -91 989 -36  Q 684 19 347 128  L 347 722  Q 666 556 975 473  Q 1284 391 1588 391  Q 1994 391 2212 530  Q 2431 669 2431 922  Q 2431 1156 2273 1281  Q 2116 1406 1581 1522  L 1381 1569  Q 847 1681 609 1914  Q 372 2147 372 2553  Q 372 3047 722 3315  Q 1072 3584 1716 3584  Q 2034 3584 2315 3537  Q 2597 3491 2834 3397  z " transform="scale(0.015625)"/>
       <path id="DejaVuSans-69" d="M 603 3500  L 1178 3500  L 1178 0  L 603 0  L 603 3500  z M 603 4863  L 1178 4863  L 1178 4134  L 603 4134  L 603 4863  z " transform="scale(0.015625)"/>
       <path id="DejaVuSans-74" d="M 1172 4494  L 1172 3500  L 2356 3500  L 2356 3053  L 1172 3053  L 1172 1153  Q 1172 725 1289 603  Q 1406 481 1766 481  L 2356 481  L 2356 0  L 1766 0  Q 1100 0 847 248  Q 594 497 594 1153  L 594 3053  L 172 3053  L 172 3500  L 594 3500  L 594 4494  L 1172 4494  z " transform="scale(0.015625)"/>
       <path id="DejaVuSans-79" d="M 2059 -325  Q 1816 -950 1584 -1140  Q 1353 -1331 966 -1331  L 506 -1331  L 506 -850  L 844 -850  Q 1081 -850 1212 -737  Q 1344 -625 1503 -206  L 1606 56  L 191 3500  L 800 3500  L 1894 763  L 2988 3500  L 3597 3500  L 2059 -325  z " transform="scale(0.015625)"/>
      </defs>
      <use xlink:href="#DejaVuSans-44"/>
      <use xlink:href="#DejaVuSans-65" x="77.001953"/>
      <use xlink:href="#DejaVuSans-6e" x="138.525391"/>
      <use xlink:href="#DejaVuSans-73" x="201.904297"/>
      <use xlink:href="#DejaVuSans-69" x="254.003906"/>
      <use xlink:href="#DejaVuSans-74" x="281.787109"/>
      <use xlink:href="#DejaVuSans-79" x="320.996094"/>
     </g>
    </g>
   </g>
   <g id="PolyCollection_1">
    <defs>
     <path id="m493c7e05d4" d="M 150.184587 -107.455948  L 150.184587 -107.45  L 152.828274 -107.45  L 155.47196 -107.45  L 158.115647 -107.45  L 160.759334 -107.45  L 163.403021 -107.45  L 166.046708 -107.45  L 168.690395 -107.45  L 171.334082 -107.45  L 173.977768 -107.45  L 176.621455 -107.45  L 179.265142 -107.45  L 181.908829 -107.45  L 184.552516 -107.45  L 187.196203 -107.45  L 189.839889 -107.45  L 192.483576 -107.45  L 195.127263 -107.45  L 197.77095 -107.45  L 200.414637 -107.45  L 203.058324 -107.45  L 205.70201 -107.45  L 208.345697 -107.45  L 210.989384 -107.45  L 213.633071 -107.45  L 216.276758 -107.45  L 218.920445 -107.45  L 221.564131 -107.45  L 224.207818 -107.45  L 226.851505 -107.45  L 229.495192 -107.45  L 232.138879 -107.45  L 234.782566 -107.45  L 237.426252 -107.45  L 240.069939 -107.45  L 242.713626 -107.45  L 245.357313 -107.45  L 248.001 -107.45  L 250.644687 -107.45  L 253.288373 -107.45  L 255.93206 -107.45  L 258.575747 -107.45  L 261.219434 -107.45  L 263.863121 -107.45  L 266.506808 -107.45  L 269.150494 -107.45  L 271.794181 -107.45  L 274.437868 -107.45  L 277.081555 -107.45  L 279.725242 -107.45  L 282.368929 -107.45  L 285.012615 -107.45  L 287.656302 -107.45  L 290.299989 -107.45  L 292.943676 -107.45  L 295.587363 -107.45  L 298.23105 -107.45  L 300.874736 -107.45  L 303.518423 -107.45  L 306.16211 -107.45  L 308.805797 -107.45  L 311.449484 -107.45  L 314.093171 -107.45  L 316.736857 -107.45  L 319.380544 -107.45  L 322.024231 -107.45  L 324.667918 -107.45  L 327.311605 -107.45  L 329.955292 -107.45  L 332.598978 -107.45  L 335.242665 -107.45  L 337.886352 -107.45  L 340.530039 -107.45  L 343.173726 -107.45  L 345.817413 -107.45  L 348.461099 -107.45  L 351.104786 -107.45  L 353.748473 -107.45  L 356.39216 -107.45  L 359.035847 -107.45  L 361.679534 -107.45  L 364.323221 -107.45  L 366.966907 -107.45  L 369.610594 -107.45  L 372.254281 -107.45  L 374.897968 -107.45  L 377.541655 -107.45  L 380.185342 -107.45  L 382.829028 -107.45  L 385.472715 -107.45  L 388.116402 -107.45  L 390.760089 -107.45  L 393.403776 -107.45  L 396.047463 -107.45  L 398.691149 -107.45  L 401.334836 -107.45  L 403.978523 -107.45  L 406.62221 -107.45  L 409.265897 -107.45  L 411.909584 -107.45  L 414.55327 -107.45  L 417.196957 -107.45  L 419.840644 -107.45  L 422.484331 -107.45  L 425.128018 -107.45  L 427.771705 -107.45  L 430.415391 -107.45  L 433.059078 -107.45  L 435.702765 -107.45  L 438.346452 -107.45  L 440.990139 -107.45  L 443.633826 -107.45  L 446.277512 -107.45  L 448.921199 -107.45  L 451.564886 -107.45  L 454.208573 -107.45  L 456.85226 -107.45  L 459.495947 -107.45  L 462.139633 -107.45  L 464.78332 -107.45  L 467.427007 -107.45  L 470.070694 -107.45  L 472.714381 -107.45  L 475.358068 -107.45  L 478.001754 -107.45  L 480.645441 -107.45  L 483.289128 -107.45  L 485.932815 -107.45  L 488.576502 -107.45  L 491.220189 -107.45  L 493.863875 -107.45  L 496.507562 -107.45  L 499.151249 -107.45  L 501.794936 -107.45  L 504.438623 -107.45  L 507.08231 -107.45  L 509.725996 -107.45  L 512.369683 -107.45  L 515.01337 -107.45  L 517.657057 -107.45  L 520.300744 -107.45  L 522.944431 -107.45  L 525.588117 -107.45  L 528.231804 -107.45  L 530.875491 -107.45  L 533.519178 -107.45  L 536.162865 -107.45  L 538.806552 -107.45  L 541.450239 -107.45  L 544.093925 -107.45  L 546.737612 -107.45  L 549.381299 -107.45  L 552.024986 -107.45  L 554.668673 -107.45  L 557.31236 -107.45  L 559.956046 -107.45  L 562.599733 -107.45  L 565.24342 -107.45  L 567.887107 -107.45  L 570.530794 -107.45  L 573.174481 -107.45  L 575.818167 -107.45  L 578.461854 -107.45  L 581.105541 -107.45  L 583.749228 -107.45  L 586.392915 -107.45  L 589.036602 -107.45  L 591.680288 -107.45  L 594.323975 -107.45  L 596.967662 -107.45  L 599.611349 -107.45  L 602.255036 -107.45  L 604.898723 -107.45  L 607.542409 -107.45  L 610.186096 -107.45  L 612.829783 -107.45  L 615.47347 -107.45  L 618.117157 -107.45  L 620.760844 -107.45  L 623.40453 -107.45  L 626.048217 -107.45  L 628.691904 -107.45  L 631.335591 -107.45  L 633.979278 -107.45  L 636.622965 -107.45  L 639.266651 -107.45  L 641.910338 -107.45  L 644.554025 -107.45  L 647.197712 -107.45  L 649.841399 -107.45  L 652.485086 -107.45  L 655.128772 -107.45  L 657.772459 -107.45  L 660.416146 -107.45  L 663.059833 -107.45  L 665.70352 -107.45  L 668.347207 -107.45  L 670.990893 -107.45  L 673.63458 -107.45  L 676.278267 -107.45  L 676.278267 -107.456  L 676.278267 -107.456  L 673.63458 -107.460226  L 670.990893 -107.466966  L 668.347207 -107.477405  L 665.70352 -107.493121  L 663.059833 -107.516116  L 660.416146 -107.548837  L 657.772459 -107.594132  L 655.128772 -107.655166  L 652.485086 -107.735274  L 649.841399 -107.837773  L 647.197712 -107.965741  L 644.554025 -108.121811  L 641.910338 -108.307997  L 639.266651 -108.525592  L 636.622965 -108.77516  L 633.979278 -109.056624  L 631.335591 -109.369439  L 628.691904 -109.712821  L 626.048217 -110.085997  L 623.40453 -110.488429  L 620.760844 -110.919983  L 618.117157 -111.381002  L 615.47347 -111.872287  L 612.829783 -112.394952  L 610.186096 -112.950179  L 607.542409 -113.538862  L 604.898723 -114.161171  L 602.255036 -114.816064  L 599.611349 -115.500815  L 596.967662 -116.210645  L 594.323975 -116.938578  L 591.680288 -117.675618  L 589.036602 -118.411354  L 586.392915 -119.134992  L 583.749228 -119.836729  L 581.105541 -120.509281  L 578.461854 -121.14926  L 575.818167 -121.758072  L 573.174481 -122.342063  L 570.530794 -122.911723  L 567.887107 -123.480011  L 565.24342 -124.060026  L 562.599733 -124.662445  L 559.956046 -125.293257  L 557.31236 -125.952265  L 554.668673 -126.632699  L 552.024986 -127.322066  L 549.381299 -128.004089  L 546.737612 -128.661378  L 544.093925 -129.278367  L 541.450239 -129.843969  L 538.806552 -130.353547  L 536.162865 -130.80989  L 533.519178 -131.223121  L 530.875491 -131.609583  L 528.231804 -131.989953  L 525.588117 -132.386861  L 522.944431 -132.822368  L 520.300744 -133.315573  L 517.657057 -133.880615  L 515.01337 -134.525202  L 512.369683 -135.24977  L 509.725996 -136.047271  L 507.08231 -136.903603  L 504.438623 -137.798647  L 501.794936 -138.707908  L 499.151249 -139.604693  L 496.507562 -140.462722  L 493.863875 -141.258998  L 491.220189 -141.976609  L 488.576502 -142.607138  L 485.932815 -143.1523  L 483.289128 -143.624544  L 480.645441 -144.046487  L 478.001754 -144.449264  L 475.358068 -144.870034  L 472.714381 -145.348984  L 470.070694 -145.926182  L 467.427007 -146.638561  L 464.78332 -147.517191  L 462.139633 -148.584945  L 459.495947 -149.854584  L 456.85226 -151.327397  L 454.208573 -152.992553  L 451.564886 -154.827433  L 448.921199 -156.79917  L 446.277512 -158.86751  L 443.633826 -160.988892  L 440.990139 -163.121344  L 438.346452 -165.229567  L 435.702765 -167.289425  L 433.059078 -169.291082  L 430.415391 -171.240231  L 427.771705 -173.157156  L 425.128018 -175.073785  L 422.484331 -177.029216  L 419.840644 -179.064464  L 417.196957 -181.217243  L 414.55327 -183.517575  L 411.909584 -185.984777  L 409.265897 -188.626141  L 406.62221 -191.437302  L 403.978523 -194.404056  L 401.334836 -197.505217  L 398.691149 -200.716007  L 396.047463 -204.011528  L 393.403776 -207.369931  L 390.760089 -210.7751  L 388.116402 -214.218762  L 385.472715 -217.702128  L 382.829028 -221.237178  L 380.185342 -224.847706  L 377.541655 -228.570122  L 374.897968 -232.453841  L 372.254281 -236.560935  L 369.610594 -240.964614  L 366.966907 -245.746121  L 364.323221 -250.989808  L 361.679534 -256.776421  L 359.035847 -263.175051  L 356.39216 -270.234518  L 353.748473 -277.975214  L 351.104786 -286.382496  L 348.461099 -295.402507  L 345.817413 -304.940969  L 343.173726 -314.864976  L 340.530039 -325.007382  L 337.886352 -335.17297  L 335.242665 -345.145484  L 332.598978 -354.69467  L 329.955292 -363.582804  L 327.311605 -371.570569  L 324.667918 -378.422608  L 322.024231 -383.913343  L 319.380544 -387.833713  L 316.736857 -389.999257  L 314.093171 -390.259524  L 311.449484 -388.508214  L 308.805797 -384.692914  L 306.16211 -378.822949  L 303.518423 -370.973841  L 300.874736 -361.287204  L 298.23105 -349.965491  L 295.587363 -337.261837  L 292.943676 -323.465978  L 290.299989 -308.887838  L 287.656302 -293.840668  L 285.012615 -278.625515  L 282.368929 -263.518488  L 279.725242 -248.761644  L 277.081555 -234.557739  L 274.437868 -221.068472  L 271.794181 -208.415515  L 269.150494 -196.683414  L 266.506808 -185.923504  L 263.863121 -176.158152  L 261.219434 -167.384882  L 258.575747 -159.58018  L 255.93206 -152.702955  L 253.288373 -146.697746  L 250.644687 -141.497782  L 248.001 -137.028014  L 245.357313 -133.208157  L 242.713626 -129.955754  L 240.069939 -127.189176  L 237.426252 -124.830478  L 234.782566 -122.807912  L 232.138879 -121.057971  L 229.495192 -119.526773  L 226.851505 -118.170693  L 224.207818 -116.956195  L 221.564131 -115.858937  L 218.920445 -114.862281  L 216.276758 -113.955465  L 213.633071 -113.131671  L 210.989384 -112.386267  L 208.345697 -111.715417  L 205.70201 -111.115158  L 203.058324 -110.580977  L 200.414637 -110.107795  L 197.77095 -109.690229  L 195.127263 -109.32296  L 192.483576 -109.001081  L 189.839889 -108.72031  L 187.196203 -108.477039  L 184.552516 -108.268224  L 181.908829 -108.091185  L 179.265142 -107.943378  L 176.621455 -107.822205  L 173.977768 -107.724906  L 171.334082 -107.648543  L 168.690395 -107.590067  L 166.046708 -107.546436  L 163.403021 -107.514749  L 160.759334 -107.492369  L 158.115647 -107.477005  L 155.47196 -107.466758  L 152.828274 -107.460121  L 150.184587 -107.455948  z " style="stroke: #66c2a5"/>
    </defs>
    <g clip-path="url(#p4de77c27f2)">
     <use xlink:href="#m493c7e05d4" x="0" y="432" style="fill: #66c2a5; stroke: #66c2a5"/>
    </g>
   </g>
   <g id="line2d_1">
    <path d="M 150.184587 324.544052  L 168.690395 324.409933  L 176.621455 324.177795  L 184.552516 323.731776  L 192.483576 322.998919  L 197.77095 322.309771  L 203.058324 321.419023  L 208.345697 320.284583  L 213.633071 318.868329  L 218.920445 317.137719  L 224.207818 315.043805  L 226.851505 313.829307  L 229.495192 312.473227  L 232.138879 310.942029  L 234.782566 309.192088  L 237.426252 307.169522  L 240.069939 304.810824  L 242.713626 302.044246  L 245.357313 298.791843  L 248.001 294.971986  L 250.644687 290.502218  L 253.288373 285.302254  L 255.93206 279.297045  L 258.575747 272.41982  L 261.219434 264.615118  L 263.863121 255.841848  L 266.506808 246.076496  L 269.150494 235.316586  L 271.794181 223.584485  L 274.437868 210.931528  L 277.081555 197.442261  L 282.368929 168.481512  L 292.943676 108.534022  L 295.587363 94.738163  L 298.23105 82.034509  L 300.874736 70.712796  L 303.518423 61.026159  L 306.16211 53.177051  L 308.805797 47.307086  L 311.449484 43.491786  L 314.093171 41.740476  L 316.736857 42.000743  L 319.380544 44.166287  L 322.024231 48.086657  L 324.667918 53.577392  L 327.311605 60.429431  L 329.955292 68.417196  L 332.598978 77.30533  L 335.242665 86.854516  L 348.461099 136.597493  L 351.104786 145.617504  L 353.748473 154.024786  L 356.39216 161.765482  L 359.035847 168.824949  L 361.679534 175.223579  L 364.323221 181.010192  L 366.966907 186.253879  L 369.610594 191.035386  L 372.254281 195.439065  L 374.897968 199.546159  L 380.185342 207.152294  L 385.472715 214.297872  L 393.403776 224.630069  L 398.691149 231.283993  L 403.978523 237.595944  L 409.265897 243.373859  L 411.909584 246.015223  L 414.55327 248.482425  L 417.196957 250.782757  L 422.484331 254.970784  L 438.346452 266.770433  L 451.564886 277.172567  L 454.208573 279.007447  L 456.85226 280.672603  L 459.495947 282.145416  L 462.139633 283.415055  L 464.78332 284.482809  L 467.427007 285.361439  L 470.070694 286.073818  L 475.358068 287.129966  L 485.932815 288.8477  L 491.220189 290.023391  L 496.507562 291.537278  L 504.438623 294.201353  L 509.725996 295.952729  L 515.01337 297.474798  L 520.300744 298.684427  L 525.588117 299.613139  L 538.806552 301.646453  L 544.093925 302.721633  L 552.024986 304.677934  L 562.599733 307.337555  L 586.392915 312.865008  L 604.898723 317.838829  L 612.829783 319.605048  L 620.760844 321.080017  L 628.691904 322.287179  L 636.622965 323.22484  L 644.554025 323.878189  L 652.485086 324.264726  L 663.059833 324.483884  L 676.278267 324.544  L 676.278267 324.544  " clip-path="url(#p4de77c27f2)" style="fill: none; stroke: #000000; stroke-width: 1.5; stroke-linecap: round"/>
   </g>
   <g id="patch_3">
    <path d="M 44.28 324.55  L 764.64 324.55  " style="fill: none; stroke: #262626; stroke-width: 2; stroke-linejoin: miter; stroke-linecap: square"/>
   </g>
   <g id="text_2">
    <!-- intestine -->
    <g transform="translate(44.28 313.289687)scale(0.13 -0.13)">
     <use xlink:href="#DejaVuSans-69"/>
     <use xlink:href="#DejaVuSans-6e" x="27.783203"/>
     <use xlink:href="#DejaVuSans-74" x="91.162109"/>
     <use xlink:href="#DejaVuSans-65" x="130.371094"/>
     <use xlink:href="#DejaVuSans-73" x="191.894531"/>
     <use xlink:href="#DejaVuSans-74" x="243.994141"/>
     <use xlink:href="#DejaVuSans-69" x="283.203125"/>
     <use xlink:href="#DejaVuSans-6e" x="310.986328"/>
     <use xlink:href="#DejaVuSans-65" x="374.365234"/>
    </g>
   </g>
  </g>
  <g id="axes_2">
   <g id="patch_4">
    <path d="M 44.28 339.3975  L 764.64 339.3975  L 764.64 42.4475  L 44.28 42.4475  L 44.28 339.3975  z " style="fill: none"/>
   </g>
   <g id="matplotlib.axis_3">
    <g id="xtick_10"/>
    <g id="xtick_11"/>
    <g id="xtick_12"/>
    <g id="xtick_13"/>
    <g id="xtick_14"/>
    <g id="xtick_15"/>
    <g id="xtick_16"/>
    <g id="xtick_17"/>
    <g id="xtick_18"/>
   </g>
   <g id="matplotlib.axis_4">
    <g id="text_3">
     <!-- Density -->
     <g style="fill: #262626" transform="translate(37.784375 213.732812)rotate(-90)scale(0.12 -0.12)">
      <use xlink:href="#DejaVuSans-44"/>
      <use xlink:href="#DejaVuSans-65" x="77.001953"/>
      <use xlink:href="#DejaVuSans-6e" x="138.525391"/>
      <use xlink:href="#DejaVuSans-73" x="201.904297"/>
      <use xlink:href="#DejaVuSans-69" x="254.003906"/>
      <use xlink:href="#DejaVuSans-74" x="281.787109"/>
      <use xlink:href="#DejaVuSans-79" x="320.996094"/>
     </g>
    </g>
   </g>
   <g id="PolyCollection_2">
    <defs>
     <path id="mc9b6982022" d="M 117.625481 -92.606601  L 117.625481 -92.6025  L 120.58096 -92.6025  L 123.536439 -92.6025  L 126.491918 -92.6025  L 129.447397 -92.6025  L 132.402876 -92.6025  L 135.358355 -92.6025  L 138.313834 -92.6025  L 141.269312 -92.6025  L 144.224791 -92.6025  L 147.18027 -92.6025  L 150.135749 -92.6025  L 153.091228 -92.6025  L 156.046707 -92.6025  L 159.002186 -92.6025  L 161.957665 -92.6025  L 164.913144 -92.6025  L 167.868623 -92.6025  L 170.824102 -92.6025  L 173.779581 -92.6025  L 176.73506 -92.6025  L 179.690539 -92.6025  L 182.646018 -92.6025  L 185.601497 -92.6025  L 188.556976 -92.6025  L 191.512455 -92.6025  L 194.467934 -92.6025  L 197.423413 -92.6025  L 200.378892 -92.6025  L 203.33437 -92.6025  L 206.289849 -92.6025  L 209.245328 -92.6025  L 212.200807 -92.6025  L 215.156286 -92.6025  L 218.111765 -92.6025  L 221.067244 -92.6025  L 224.022723 -92.6025  L 226.978202 -92.6025  L 229.933681 -92.6025  L 232.88916 -92.6025  L 235.844639 -92.6025  L 238.800118 -92.6025  L 241.755597 -92.6025  L 244.711076 -92.6025  L 247.666555 -92.6025  L 250.622034 -92.6025  L 253.577513 -92.6025  L 256.532992 -92.6025  L 259.488471 -92.6025  L 262.44395 -92.6025  L 265.399428 -92.6025  L 268.354907 -92.6025  L 271.310386 -92.6025  L 274.265865 -92.6025  L 277.221344 -92.6025  L 280.176823 -92.6025  L 283.132302 -92.6025  L 286.087781 -92.6025  L 289.04326 -92.6025  L 291.998739 -92.6025  L 294.954218 -92.6025  L 297.909697 -92.6025  L 300.865176 -92.6025  L 303.820655 -92.6025  L 306.776134 -92.6025  L 309.731613 -92.6025  L 312.687092 -92.6025  L 315.642571 -92.6025  L 318.59805 -92.6025  L 321.553529 -92.6025  L 324.509008 -92.6025  L 327.464486 -92.6025  L 330.419965 -92.6025  L 333.375444 -92.6025  L 336.330923 -92.6025  L 339.286402 -92.6025  L 342.241881 -92.6025  L 345.19736 -92.6025  L 348.152839 -92.6025  L 351.108318 -92.6025  L 354.063797 -92.6025  L 357.019276 -92.6025  L 359.974755 -92.6025  L 362.930234 -92.6025  L 365.885713 -92.6025  L 368.841192 -92.6025  L 371.796671 -92.6025  L 374.75215 -92.6025  L 377.707629 -92.6025  L 380.663108 -92.6025  L 383.618587 -92.6025  L 386.574066 -92.6025  L 389.529544 -92.6025  L 392.485023 -92.6025  L 395.440502 -92.6025  L 398.395981 -92.6025  L 401.35146 -92.6025  L 404.306939 -92.6025  L 407.262418 -92.6025  L 410.217897 -92.6025  L 413.173376 -92.6025  L 416.128855 -92.6025  L 419.084334 -92.6025  L 422.039813 -92.6025  L 424.995292 -92.6025  L 427.950771 -92.6025  L 430.90625 -92.6025  L 433.861729 -92.6025  L 436.817208 -92.6025  L 439.772687 -92.6025  L 442.728166 -92.6025  L 445.683645 -92.6025  L 448.639124 -92.6025  L 451.594602 -92.6025  L 454.550081 -92.6025  L 457.50556 -92.6025  L 460.461039 -92.6025  L 463.416518 -92.6025  L 466.371997 -92.6025  L 469.327476 -92.6025  L 472.282955 -92.6025  L 475.238434 -92.6025  L 478.193913 -92.6025  L 481.149392 -92.6025  L 484.104871 -92.6025  L 487.06035 -92.6025  L 490.015829 -92.6025  L 492.971308 -92.6025  L 495.926787 -92.6025  L 498.882266 -92.6025  L 501.837745 -92.6025  L 504.793224 -92.6025  L 507.748703 -92.6025  L 510.704182 -92.6025  L 513.65966 -92.6025  L 516.615139 -92.6025  L 519.570618 -92.6025  L 522.526097 -92.6025  L 525.481576 -92.6025  L 528.437055 -92.6025  L 531.392534 -92.6025  L 534.348013 -92.6025  L 537.303492 -92.6025  L 540.258971 -92.6025  L 543.21445 -92.6025  L 546.169929 -92.6025  L 549.125408 -92.6025  L 552.080887 -92.6025  L 555.036366 -92.6025  L 557.991845 -92.6025  L 560.947324 -92.6025  L 563.902803 -92.6025  L 566.858282 -92.6025  L 569.813761 -92.6025  L 572.769239 -92.6025  L 575.724718 -92.6025  L 578.680197 -92.6025  L 581.635676 -92.6025  L 584.591155 -92.6025  L 587.546634 -92.6025  L 590.502113 -92.6025  L 593.457592 -92.6025  L 596.413071 -92.6025  L 599.36855 -92.6025  L 602.324029 -92.6025  L 605.279508 -92.6025  L 608.234987 -92.6025  L 611.190466 -92.6025  L 614.145945 -92.6025  L 617.101424 -92.6025  L 620.056903 -92.6025  L 623.012382 -92.6025  L 625.967861 -92.6025  L 628.92334 -92.6025  L 631.878819 -92.6025  L 634.834297 -92.6025  L 637.789776 -92.6025  L 640.745255 -92.6025  L 643.700734 -92.6025  L 646.656213 -92.6025  L 649.611692 -92.6025  L 652.567171 -92.6025  L 655.52265 -92.6025  L 658.478129 -92.6025  L 661.433608 -92.6025  L 664.389087 -92.6025  L 667.344566 -92.6025  L 670.300045 -92.6025  L 673.255524 -92.6025  L 676.211003 -92.6025  L 679.166482 -92.6025  L 682.121961 -92.6025  L 685.07744 -92.6025  L 688.032919 -92.6025  L 690.988398 -92.6025  L 693.943877 -92.6025  L 696.899355 -92.6025  L 699.854834 -92.6025  L 702.810313 -92.6025  L 705.765792 -92.6025  L 705.765792 -92.605937  L 705.765792 -92.605937  L 702.810313 -92.608118  L 699.854834 -92.611443  L 696.899355 -92.616368  L 693.943877 -92.623458  L 690.988398 -92.63338  L 688.032919 -92.646888  L 685.07744 -92.664789  L 682.121961 -92.687906  L 679.166482 -92.71704  L 676.211003 -92.752945  L 673.255524 -92.796323  L 670.300045 -92.847865  L 667.344566 -92.908328  L 664.389087 -92.978663  L 661.433608 -93.060169  L 658.478129 -93.154661  L 655.52265 -93.264629  L 652.567171 -93.393349  L 649.611692 -93.544945  L 646.656213 -93.724373  L 643.700734 -93.937334  L 640.745255 -94.190121  L 637.789776 -94.48941  L 634.834297 -94.842  L 631.878819 -95.254522  L 628.92334 -95.733117  L 625.967861 -96.283104  L 623.012382 -96.908647  L 620.056903 -97.61248  L 617.101424 -98.395699  L 614.145945 -99.257688  L 611.190466 -100.196193  L 608.234987 -101.207556  L 605.279508 -102.287083  L 602.324029 -103.429498  L 599.36855 -104.629412  L 596.413071 -105.881742  L 593.457592 -107.18201  L 590.502113 -108.526501  L 587.546634 -109.912271  L 584.591155 -111.337032  L 581.635676 -112.79895  L 578.680197 -114.296401  L 575.724718 -115.827738  L 572.769239 -117.39109  L 569.813761 -118.984243  L 566.858282 -120.604616  L 563.902803 -122.249358  L 560.947324 -123.91558  L 557.991845 -125.600702  L 555.036366 -127.302877  L 552.080887 -129.021402  L 549.125408 -130.757026  L 546.169929 -132.51202  L 543.21445 -134.289938  L 540.258971 -136.095018  L 537.303492 -137.931286  L 534.348013 -139.801463  L 531.392534 -141.705891  L 528.437055 -143.641688  L 525.481576 -145.602325  L 522.526097 -147.577784  L 519.570618 -149.555297  L 516.615139 -151.520611  L 513.65966 -153.459566  L 510.704182 -155.359747  L 507.748703 -157.211941  L 504.793224 -159.011178  L 501.837745 -160.757236  L 498.882266 -162.454592  L 495.926787 -164.11194  L 492.971308 -165.741441  L 490.015829 -167.357902  L 487.06035 -168.978064  L 484.104871 -170.62004  L 481.149392 -172.302889  L 478.193913 -174.046167  L 475.238434 -175.869265  L 472.282955 -177.790364  L 469.327476 -179.824891  L 466.371997 -181.983505  L 463.416518 -184.269823  L 460.461039 -186.678203  L 457.50556 -189.192013  L 454.550081 -191.78284  L 451.594602 -194.410992  L 448.639124 -197.027471  L 445.683645 -199.577394  L 442.728166 -202.004544  L 439.772687 -204.256549  L 436.817208 -206.290019  L 433.861729 -208.074944  L 430.90625 -209.597751  L 427.950771 -210.862608  L 424.995292 -211.890828  L 422.039813 -212.718511  L 419.084334 -213.392836  L 416.128855 -213.96754  L 413.173376 -214.498246  L 410.217897 -215.038199  L 407.262418 -215.634876  L 404.306939 -216.327718  L 401.35146 -217.14702  L 398.395981 -218.113852  L 395.440502 -219.240724  L 392.485023 -220.532689  L 389.529544 -221.98855  L 386.574066 -223.601912  L 383.618587 -225.361931  L 380.663108 -227.253675  L 377.707629 -229.258144  L 374.75215 -231.352064  L 371.796671 -233.507625  L 368.841192 -235.692336  L 365.885713 -237.869171  L 362.930234 -239.997104  L 359.974755 -242.032047  L 357.019276 -243.928125  L 354.063797 -245.639127  L 351.108318 -247.119954  L 348.152839 -248.327873  L 345.19736 -249.223487  L 342.241881 -249.77137  L 339.286402 -249.940476  L 336.330923 -249.704428  L 333.375444 -249.041865  L 330.419965 -247.936925  L 327.464486 -246.379885  L 324.509008 -244.367835  L 321.553529 -241.905226  L 318.59805 -239.004065  L 315.642571 -235.683635  L 312.687092 -231.969684  L 309.731613 -227.89323  L 306.776134 -223.489174  L 303.820655 -218.795054  L 300.865176 -213.850161  L 297.909697 -208.695182  L 294.954218 -203.37233  L 291.998739 -197.925772  L 289.04326 -192.402038  L 286.087781 -186.850072  L 283.132302 -181.320638  L 280.176823 -175.864969  L 277.221344 -170.532701  L 274.265865 -165.36936  L 271.310386 -160.413771  L 268.354907 -155.695823  L 265.399428 -151.234982  L 262.44395 -147.039788  L 259.488471 -143.108434  L 256.532992 -139.430307  L 253.577513 -135.988225  L 250.622034 -132.761032  L 247.666555 -129.726177  L 244.711076 -126.861998  L 241.755597 -124.1495  L 238.800118 -121.573549  L 235.844639 -119.123493  L 232.88916 -116.793266  L 229.933681 -114.581044  L 226.978202 -112.488543  L 224.022723 -110.520004  L 221.067244 -108.680951  L 218.111765 -106.97683  L 215.156286 -105.411668  L 212.200807 -103.98693  L 209.245328 -102.700747  L 206.289849 -101.547636  L 203.33437 -100.518768  L 200.378892 -99.602712  L 197.423413 -98.786526  L 194.467934 -98.05697  L 191.512455 -97.401632  L 188.556976 -96.809781  L 185.601497 -96.27285  L 182.646018 -95.784522  L 179.690539 -95.340495  L 176.73506 -94.938022  L 173.779581 -94.575371  L 170.824102 -94.2513  L 167.868623 -93.964642  L 164.913144 -93.714016  L 161.957665 -93.497682  L 159.002186 -93.313497  L 156.046707 -93.15896  L 153.091228 -93.031287  L 150.135749 -92.92752  L 147.18027 -92.844633  L 144.224791 -92.779624  L 141.269312 -92.729617  L 138.313834 -92.691924  L 135.358355 -92.664114  L 132.402876 -92.644048  L 129.447397 -92.6299  L 126.491918 -92.620162  L 123.536439 -92.61362  L 120.58096 -92.609336  L 117.625481 -92.606601  z " style="stroke: #fc8d62"/>
    </defs>
    <g clip-path="url(#p4aa6a364df)">
     <use xlink:href="#mc9b6982022" x="0" y="432" style="fill: #fc8d62; stroke: #fc8d62"/>
    </g>
   </g>
   <g id="line2d_2">
    <path d="M 117.625481 339.393399  L 141.269312 339.270383  L 153.091228 338.968713  L 161.957665 338.502318  L 170.824102 337.7487  L 176.73506 337.061978  L 182.646018 336.215478  L 188.556976 335.190219  L 194.467934 333.94303  L 200.378892 332.397288  L 206.289849 330.452364  L 209.245328 329.299253  L 212.200807 328.01307  L 215.156286 326.588332  L 218.111765 325.02317  L 221.067244 323.319049  L 226.978202 319.511457  L 232.88916 315.206734  L 238.800118 310.426451  L 244.711076 305.138002  L 247.666555 302.273823  L 250.622034 299.238968  L 253.577513 296.011775  L 256.532992 292.569693  L 259.488471 288.891566  L 262.44395 284.960212  L 265.399428 280.765018  L 268.354907 276.304177  L 271.310386 271.586229  L 277.221344 261.467299  L 283.132302 250.679362  L 294.954218 228.62767  L 300.865176 218.149839  L 303.820655 213.204946  L 306.776134 208.510826  L 309.731613 204.10677  L 312.687092 200.030316  L 315.642571 196.316365  L 318.59805 192.995935  L 321.553529 190.094774  L 324.509008 187.632165  L 327.464486 185.620115  L 330.419965 184.063075  L 333.375444 182.958135  L 336.330923 182.295572  L 339.286402 182.059524  L 342.241881 182.22863  L 345.19736 182.776513  L 348.152839 183.672127  L 351.108318 184.880046  L 354.063797 186.360873  L 357.019276 188.071875  L 359.974755 189.967953  L 365.885713 194.130829  L 377.707629 202.741856  L 383.618587 206.638069  L 386.574066 208.398088  L 389.529544 210.01145  L 392.485023 211.467311  L 395.440502 212.759276  L 398.395981 213.886148  L 401.35146 214.85298  L 404.306939 215.672282  L 410.217897 216.961801  L 419.084334 218.607164  L 422.039813 219.281489  L 424.995292 220.109172  L 427.950771 221.137392  L 430.90625 222.402249  L 433.861729 223.925056  L 436.817208 225.709981  L 439.772687 227.743451  L 442.728166 229.995456  L 448.639124 234.972529  L 460.461039 245.321797  L 466.371997 250.016495  L 472.282955 254.209636  L 478.193913 257.953833  L 484.104871 261.37996  L 504.793224 272.988822  L 510.704182 276.640253  L 519.570618 282.444703  L 531.392534 290.294109  L 540.258971 295.904982  L 549.125408 301.242974  L 560.947324 308.08442  L 569.813761 313.015757  L 578.680197 317.703599  L 587.546634 322.087729  L 593.457592 324.81799  L 599.36855 327.370588  L 605.279508 329.712917  L 611.190466 331.803807  L 617.101424 333.604301  L 623.012382 335.091353  L 628.92334 336.266883  L 634.834297 337.158  L 640.745255 337.809879  L 646.656213 338.275627  L 655.52265 338.735371  L 667.344566 339.091672  L 682.121961 339.312094  L 705.765792 339.394063  L 705.765792 339.394063  " clip-path="url(#p4aa6a364df)" style="fill: none; stroke: #000000; stroke-width: 1.5; stroke-linecap: round"/>
   </g>
   <g id="patch_5">
    <path d="M 44.28 339.3975  L 764.64 339.3975  " style="fill: none; stroke: #262626; stroke-width: 2; stroke-linejoin: miter; stroke-linecap: square"/>
   </g>
   <g id="text_4">
    <!-- cathepsin -->
    <g transform="translate(44.28 328.137187)scale(0.13 -0.13)">
     <defs>
      <path id="DejaVuSans-63" d="M 3122 3366  L 3122 2828  Q 2878 2963 2633 3030  Q 2388 3097 2138 3097  Q 1578 3097 1268 2742  Q 959 2388 959 1747  Q 959 1106 1268 751  Q 1578 397 2138 397  Q 2388 397 2633 464  Q 2878 531 3122 666  L 3122 134  Q 2881 22 2623 -34  Q 2366 -91 2075 -91  Q 1284 -91 818 406  Q 353 903 353 1747  Q 353 2603 823 3093  Q 1294 3584 2113 3584  Q 2378 3584 2631 3529  Q 2884 3475 3122 3366  z " transform="scale(0.015625)"/>
      <path id="DejaVuSans-61" d="M 2194 1759  Q 1497 1759 1228 1600  Q 959 1441 959 1056  Q 959 750 1161 570  Q 1363 391 1709 391  Q 2188 391 2477 730  Q 2766 1069 2766 1631  L 2766 1759  L 2194 1759  z M 3341 1997  L 3341 0  L 2766 0  L 2766 531  Q 2569 213 2275 61  Q 1981 -91 1556 -91  Q 1019 -91 701 211  Q 384 513 384 1019  Q 384 1609 779 1909  Q 1175 2209 1959 2209  L 2766 2209  L 2766 2266  Q 2766 2663 2505 2880  Q 2244 3097 1772 3097  Q 1472 3097 1187 3025  Q 903 2953 641 2809  L 641 3341  Q 956 3463 1253 3523  Q 1550 3584 1831 3584  Q 2591 3584 2966 3190  Q 3341 2797 3341 1997  z " transform="scale(0.015625)"/>
      <path id="DejaVuSans-68" d="M 3513 2113  L 3513 0  L 2938 0  L 2938 2094  Q 2938 2591 2744 2837  Q 2550 3084 2163 3084  Q 1697 3084 1428 2787  Q 1159 2491 1159 1978  L 1159 0  L 581 0  L 581 4863  L 1159 4863  L 1159 2956  Q 1366 3272 1645 3428  Q 1925 3584 2291 3584  Q 2894 3584 3203 3211  Q 3513 2838 3513 2113  z " transform="scale(0.015625)"/>
      <path id="DejaVuSans-70" d="M 1159 525  L 1159 -1331  L 581 -1331  L 581 3500  L 1159 3500  L 1159 2969  Q 1341 3281 1617 3432  Q 1894 3584 2278 3584  Q 2916 3584 3314 3078  Q 3713 2572 3713 1747  Q 3713 922 3314 415  Q 2916 -91 2278 -91  Q 1894 -91 1617 61  Q 1341 213 1159 525  z M 3116 1747  Q 3116 2381 2855 2742  Q 2594 3103 2138 3103  Q 1681 3103 1420 2742  Q 1159 2381 1159 1747  Q 1159 1113 1420 752  Q 1681 391 2138 391  Q 2594 391 2855 752  Q 3116 1113 3116 1747  z " transform="scale(0.015625)"/>
     </defs>
     <use xlink:href="#DejaVuSans-63"/>
     <use xlink:href="#DejaVuSans-61" x="54.980469"/>
     <use xlink:href="#DejaVuSans-74" x="116.259766"/>
     <use xlink:href="#DejaVuSans-68" x="155.46875"/>
     <use xlink:href="#DejaVuSans-65" x="218.847656"/>
     <use xlink:href="#DejaVuSans-70" x="280.371094"/>
     <use xlink:href="#DejaVuSans-73" x="343.847656"/>
     <use xlink:href="#DejaVuSans-69" x="395.947266"/>
     <use xlink:href="#DejaVuSans-6e" x="423.730469"/>
    </g>
   </g>
  </g>
  <g id="axes_3">
   <g id="patch_6">
    <path d="M 44.28 354.245  L 764.64 354.245  L 764.64 57.295  L 44.28 57.295  L 44.28 354.245  z " style="fill: none"/>
   </g>
   <g id="matplotlib.axis_5">
    <g id="xtick_19"/>
    <g id="xtick_20"/>
    <g id="xtick_21"/>
    <g id="xtick_22"/>
    <g id="xtick_23"/>
    <g id="xtick_24"/>
    <g id="xtick_25"/>
    <g id="xtick_26"/>
    <g id="xtick_27"/>
   </g>
   <g id="matplotlib.axis_6">
    <g id="text_5">
     <!-- Density -->
     <g style="fill: #262626" transform="translate(37.784375 228.580313)rotate(-90)scale(0.12 -0.12)">
      <use xlink:href="#DejaVuSans-44"/>
      <use xlink:href="#DejaVuSans-65" x="77.001953"/>
      <use xlink:href="#DejaVuSans-6e" x="138.525391"/>
      <use xlink:href="#DejaVuSans-73" x="201.904297"/>
      <use xlink:href="#DejaVuSans-69" x="254.003906"/>
      <use xlink:href="#DejaVuSans-74" x="281.787109"/>
      <use xlink:href="#DejaVuSans-79" x="320.996094"/>
     </g>
    </g>
   </g>
   <g id="PolyCollection_3">
    <defs>
     <path id="m8e6adf176c" d="M 158.042806 -77.763227  L 158.042806 -77.755  L 160.506066 -77.755  L 162.969326 -77.755  L 165.432586 -77.755  L 167.895846 -77.755  L 170.359106 -77.755  L 172.822365 -77.755  L 175.285625 -77.755  L 177.748885 -77.755  L 180.212145 -77.755  L 182.675405 -77.755  L 185.138665 -77.755  L 187.601925 -77.755  L 190.065184 -77.755  L 192.528444 -77.755  L 194.991704 -77.755  L 197.454964 -77.755  L 199.918224 -77.755  L 202.381484 -77.755  L 204.844743 -77.755  L 207.308003 -77.755  L 209.771263 -77.755  L 212.234523 -77.755  L 214.697783 -77.755  L 217.161043 -77.755  L 219.624303 -77.755  L 222.087562 -77.755  L 224.550822 -77.755  L 227.014082 -77.755  L 229.477342 -77.755  L 231.940602 -77.755  L 234.403862 -77.755  L 236.867122 -77.755  L 239.330381 -77.755  L 241.793641 -77.755  L 244.256901 -77.755  L 246.720161 -77.755  L 249.183421 -77.755  L 251.646681 -77.755  L 254.109941 -77.755  L 256.5732 -77.755  L 259.03646 -77.755  L 261.49972 -77.755  L 263.96298 -77.755  L 266.42624 -77.755  L 268.8895 -77.755  L 271.35276 -77.755  L 273.816019 -77.755  L 276.279279 -77.755  L 278.742539 -77.755  L 281.205799 -77.755  L 283.669059 -77.755  L 286.132319 -77.755  L 288.595579 -77.755  L 291.058838 -77.755  L 293.522098 -77.755  L 295.985358 -77.755  L 298.448618 -77.755  L 300.911878 -77.755  L 303.375138 -77.755  L 305.838397 -77.755  L 308.301657 -77.755  L 310.764917 -77.755  L 313.228177 -77.755  L 315.691437 -77.755  L 318.154697 -77.755  L 320.617957 -77.755  L 323.081216 -77.755  L 325.544476 -77.755  L 328.007736 -77.755  L 330.470996 -77.755  L 332.934256 -77.755  L 335.397516 -77.755  L 337.860776 -77.755  L 340.324035 -77.755  L 342.787295 -77.755  L 345.250555 -77.755  L 347.713815 -77.755  L 350.177075 -77.755  L 352.640335 -77.755  L 355.103595 -77.755  L 357.566854 -77.755  L 360.030114 -77.755  L 362.493374 -77.755  L 364.956634 -77.755  L 367.419894 -77.755  L 369.883154 -77.755  L 372.346414 -77.755  L 374.809673 -77.755  L 377.272933 -77.755  L 379.736193 -77.755  L 382.199453 -77.755  L 384.662713 -77.755  L 387.125973 -77.755  L 389.589233 -77.755  L 392.052492 -77.755  L 394.515752 -77.755  L 396.979012 -77.755  L 399.442272 -77.755  L 401.905532 -77.755  L 404.368792 -77.755  L 406.832051 -77.755  L 409.295311 -77.755  L 411.758571 -77.755  L 414.221831 -77.755  L 416.685091 -77.755  L 419.148351 -77.755  L 421.611611 -77.755  L 424.07487 -77.755  L 426.53813 -77.755  L 429.00139 -77.755  L 431.46465 -77.755  L 433.92791 -77.755  L 436.39117 -77.755  L 438.85443 -77.755  L 441.317689 -77.755  L 443.780949 -77.755  L 446.244209 -77.755  L 448.707469 -77.755  L 451.170729 -77.755  L 453.633989 -77.755  L 456.097249 -77.755  L 458.560508 -77.755  L 461.023768 -77.755  L 463.487028 -77.755  L 465.950288 -77.755  L 468.413548 -77.755  L 470.876808 -77.755  L 473.340068 -77.755  L 475.803327 -77.755  L 478.266587 -77.755  L 480.729847 -77.755  L 483.193107 -77.755  L 485.656367 -77.755  L 488.119627 -77.755  L 490.582887 -77.755  L 493.046146 -77.755  L 495.509406 -77.755  L 497.972666 -77.755  L 500.435926 -77.755  L 502.899186 -77.755  L 505.362446 -77.755  L 507.825705 -77.755  L 510.288965 -77.755  L 512.752225 -77.755  L 515.215485 -77.755  L 517.678745 -77.755  L 520.142005 -77.755  L 522.605265 -77.755  L 525.068524 -77.755  L 527.531784 -77.755  L 529.995044 -77.755  L 532.458304 -77.755  L 534.921564 -77.755  L 537.384824 -77.755  L 539.848084 -77.755  L 542.311343 -77.755  L 544.774603 -77.755  L 547.237863 -77.755  L 549.701123 -77.755  L 552.164383 -77.755  L 554.627643 -77.755  L 557.090903 -77.755  L 559.554162 -77.755  L 562.017422 -77.755  L 564.480682 -77.755  L 566.943942 -77.755  L 569.407202 -77.755  L 571.870462 -77.755  L 574.333722 -77.755  L 576.796981 -77.755  L 579.260241 -77.755  L 581.723501 -77.755  L 584.186761 -77.755  L 586.650021 -77.755  L 589.113281 -77.755  L 591.576541 -77.755  L 594.0398 -77.755  L 596.50306 -77.755  L 598.96632 -77.755  L 601.42958 -77.755  L 603.89284 -77.755  L 606.3561 -77.755  L 608.819359 -77.755  L 611.282619 -77.755  L 613.745879 -77.755  L 616.209139 -77.755  L 618.672399 -77.755  L 621.135659 -77.755  L 623.598919 -77.755  L 626.062178 -77.755  L 628.525438 -77.755  L 630.988698 -77.755  L 633.451958 -77.755  L 635.915218 -77.755  L 638.378478 -77.755  L 640.841738 -77.755  L 643.304997 -77.755  L 645.768257 -77.755  L 648.231517 -77.755  L 648.231517 -77.768087  L 648.231517 -77.768087  L 645.768257 -77.777233  L 643.304997 -77.791751  L 640.841738 -77.814115  L 638.378478 -77.847551  L 635.915218 -77.896058  L 633.451958 -77.964346  L 630.988698 -78.057618  L 628.525438 -78.181206  L 626.062178 -78.340046  L 623.598919 -78.538021  L 621.135659 -78.777262  L 618.672399 -79.057498  L 616.209139 -79.375594  L 613.745879 -79.725403  L 611.282619 -80.098022  L 608.819359 -80.482517  L 606.3561 -80.867051  L 603.89284 -81.240337  L 601.42958 -81.593192  L 598.96632 -81.919982  L 596.50306 -82.219709  L 594.0398 -82.496525  L 591.576541 -82.759564  L 589.113281 -83.022062  L 586.650021 -83.299879  L 584.186761 -83.609619  L 581.723501 -83.966647  L 579.260241 -84.3833  L 576.796981 -84.867541  L 574.333722 -85.422255  L 571.870462 -86.045187  L 569.407202 -86.729482  L 566.943942 -87.464597  L 564.480682 -88.237391  L 562.017422 -89.03316  L 559.554162 -89.836507  L 557.090903 -90.632005  L 554.627643 -91.404739  L 552.164383 -92.140848  L 549.701123 -92.8282  L 547.237863 -93.457256  L 544.774603 -94.022095  L 542.311343 -94.521465  L 539.848084 -94.959667  L 537.384824 -95.347043  L 534.921564 -95.69992  L 532.458304 -96.039915  L 529.995044 -96.392613  L 527.531784 -96.78575  L 525.068524 -97.247047  L 522.605265 -97.801912  L 520.142005 -98.47122  L 517.678745 -99.269364  L 515.215485 -100.20281  L 512.752225 -101.269343  L 510.288965 -102.458208  L 507.825705 -103.751291  L 505.362446 -105.125388  L 502.899186 -106.555437  L 500.435926 -108.018402  L 497.972666 -109.497286  L 495.509406 -110.984586  L 493.046146 -112.484498  L 490.582887 -114.013253  L 488.119627 -115.597277  L 485.656367 -117.269228  L 483.193107 -119.062443  L 480.729847 -121.004667  L 478.266587 -123.112205  L 475.803327 -125.385573  L 473.340068 -127.807517  L 470.876808 -130.343778  L 468.413548 -132.94645  L 465.950288 -135.559275  L 463.487028 -138.123865  L 461.023768 -140.58577  L 458.560508 -142.899461  L 456.097249 -145.031648  L 453.633989 -146.962825  L 451.170729 -148.68728  L 448.707469 -150.212124  L 446.244209 -151.555887  L 443.780949 -152.747124  L 441.317689 -153.823226  L 438.85443 -154.829351  L 436.39117 -155.817168  L 433.92791 -156.843076  L 431.46465 -157.965608  L 429.00139 -159.241932  L 426.53813 -160.72365  L 424.07487 -162.452325  L 421.611611 -164.455359  L 419.148351 -166.742907  L 416.685091 -169.306431  L 414.221831 -172.119301  L 411.758571 -175.139556  L 409.295311 -178.314579  L 406.832051 -181.587158  L 404.368792 -184.902112  L 401.905532 -188.21257  L 399.442272 -191.485032  L 396.979012 -194.702529  L 394.515752 -197.865581  L 392.052492 -200.991011  L 389.589233 -204.10912  L 387.125973 -207.259938  L 384.662713 -210.489389  L 382.199453 -213.846015  L 379.736193 -217.378627  L 377.272933 -221.134808  L 374.809673 -225.159851  L 372.346414 -229.495499  L 369.883154 -234.17787  L 367.419894 -239.234194  L 364.956634 -244.678367  L 362.493374 -250.505762  L 360.030114 -256.688036  L 357.566854 -263.168865  L 355.103595 -269.861499  L 352.640335 -276.648837  L 350.177075 -283.386412  L 347.713815 -289.908382  L 345.250555 -296.036254  L 342.787295 -301.589797  L 340.324035 -306.399296  L 337.860776 -310.318051  L 335.397516 -313.233846  L 332.934256 -315.07797  L 330.470996 -315.830536  L 328.007736 -315.521065  L 325.544476 -314.223932  L 323.081216 -312.048914  L 320.617957 -309.127889  L 318.154697 -305.599382  L 315.691437 -301.593042  L 313.228177 -297.216215  L 310.764917 -292.544395  L 308.301657 -287.616735  L 305.838397 -282.436968  L 303.375138 -276.979251  L 300.911878 -271.197816  L 298.448618 -265.03882  L 295.985358 -258.452695  L 293.522098 -251.405338  L 291.058838 -243.886811  L 288.595579 -235.916619  L 286.132319 -227.545134  L 283.669059 -218.851198  L 281.205799 -209.936437  L 278.742539 -200.917166  L 276.279279 -191.915067  L 273.816019 -183.047894  L 271.35276 -174.421394  L 268.8895 -166.12339  L 266.42624 -158.220552  L 263.96298 -150.757949  L 261.49972 -143.761018  L 259.03646 -137.239236  L 256.5732 -131.190615  L 254.109941 -125.60611  L 251.646681 -120.473203  L 249.183421 -115.778235  L 246.720161 -111.507348  L 244.256901 -107.646247  L 241.793641 -104.179203  L 239.330381 -101.087808  L 236.867122 -98.34996  L 234.403862 -95.939444  L 231.940602 -93.826246  L 229.477342 -91.977572  L 227.014082 -90.359357  L 224.550822 -88.937987  L 222.087562 -87.681941  L 219.624303 -86.563103  L 217.161043 -85.557617  L 214.697783 -84.646252  L 212.234523 -83.814318  L 209.771263 -83.051247  L 207.308003 -82.34997  L 204.844743 -81.70618  L 202.381484 -81.117589  L 199.918224 -80.583208  L 197.454964 -80.102708  L 194.991704 -79.675854  L 192.528444 -79.302055  L 190.065184 -78.980029  L 187.601925 -78.707602  L 185.138665 -78.481655  L 182.675405 -78.298196  L 180.212145 -78.15255  L 177.748885 -78.039618  L 175.285625 -77.954175  L 172.822365 -77.891146  L 170.359106 -77.845846  L 167.895846 -77.814142  L 165.432586 -77.792546  L 162.969326 -77.778233  L 160.506066 -77.769008  L 158.042806 -77.763227  z " style="stroke: #8da0cb"/>
    </defs>
    <g clip-path="url(#pdfc30fb9d1)">
     <use xlink:href="#m8e6adf176c" x="0" y="432" style="fill: #8da0cb; stroke: #8da0cb"/>
    </g>
   </g>
   <g id="line2d_3">
    <path d="M 158.042806 354.236773  L 172.822365 354.108854  L 180.212145 353.84745  L 185.138665 353.518345  L 190.065184 353.019971  L 194.991704 352.324146  L 199.918224 351.416792  L 204.844743 350.29382  L 209.771263 348.948753  L 214.697783 347.353748  L 219.624303 345.436897  L 222.087562 344.318059  L 224.550822 343.062013  L 227.014082 341.640643  L 229.477342 340.022428  L 231.940602 338.173754  L 234.403862 336.060556  L 236.867122 333.65004  L 239.330381 330.912192  L 241.793641 327.820797  L 244.256901 324.353753  L 246.720161 320.492652  L 249.183421 316.221765  L 251.646681 311.526797  L 254.109941 306.39389  L 256.5732 300.809385  L 259.03646 294.760764  L 261.49972 288.238982  L 263.96298 281.242051  L 266.42624 273.779448  L 268.8895 265.87661  L 273.816019 248.952106  L 288.595579 196.083381  L 291.058838 188.113189  L 293.522098 180.594662  L 295.985358 173.547305  L 298.448618 166.96118  L 300.911878 160.802184  L 303.375138 155.020749  L 305.838397 149.563032  L 310.764917 139.455605  L 313.228177 134.783785  L 315.691437 130.406958  L 318.154697 126.400618  L 320.617957 122.872111  L 323.081216 119.951086  L 325.544476 117.776068  L 328.007736 116.478935  L 330.470996 116.169464  L 332.934256 116.92203  L 335.397516 118.766154  L 337.860776 121.681949  L 340.324035 125.600704  L 342.787295 130.410203  L 345.250555 135.963746  L 347.713815 142.091618  L 352.640335 155.351163  L 357.566854 168.831135  L 362.493374 181.494238  L 364.956634 187.321633  L 367.419894 192.765806  L 369.883154 197.82213  L 372.346414 202.504501  L 374.809673 206.840149  L 377.272933 210.865192  L 379.736193 214.621373  L 384.662713 221.510611  L 389.589233 227.89088  L 399.442272 240.514968  L 411.758571 256.860444  L 414.221831 259.880699  L 416.685091 262.693569  L 419.148351 265.257093  L 421.611611 267.544641  L 424.07487 269.547675  L 426.53813 271.27635  L 429.00139 272.758068  L 431.46465 274.034392  L 436.39117 276.182832  L 443.780949 279.252876  L 446.244209 280.444113  L 448.707469 281.787876  L 451.170729 283.31272  L 453.633989 285.037175  L 456.097249 286.968352  L 458.560508 289.100539  L 463.487028 293.876135  L 475.803327 306.614427  L 478.266587 308.887795  L 480.729847 310.995333  L 483.193107 312.937557  L 488.119627 316.402723  L 493.046146 319.515502  L 502.899186 325.444563  L 507.825705 328.248709  L 512.752225 330.730657  L 515.215485 331.79719  L 517.678745 332.730636  L 520.142005 333.52878  L 525.068524 334.752953  L 529.995044 335.607387  L 542.311343 337.478535  L 547.237863 338.542744  L 552.164383 339.859152  L 559.554162 342.163493  L 569.407202 345.270518  L 574.333722 346.577745  L 579.260241 347.6167  L 584.186761 348.390381  L 591.576541 349.240436  L 598.96632 350.080018  L 606.3561 351.132949  L 616.209139 352.624406  L 621.135659 353.222738  L 626.062178 353.659954  L 633.451958 354.035654  L 643.304997 354.208249  L 648.231517 354.231913  L 648.231517 354.231913  " clip-path="url(#pdfc30fb9d1)" style="fill: none; stroke: #000000; stroke-width: 1.5; stroke-linecap: round"/>
   </g>
   <g id="patch_7">
    <path d="M 44.28 354.245  L 764.64 354.245  " style="fill: none; stroke: #262626; stroke-width: 2; stroke-linejoin: miter; stroke-linecap: square"/>
   </g>
   <g id="text_6">
    <!-- tegument -->
    <g transform="translate(44.28 342.984688)scale(0.13 -0.13)">
     <defs>
      <path id="DejaVuSans-67" d="M 2906 1791  Q 2906 2416 2648 2759  Q 2391 3103 1925 3103  Q 1463 3103 1205 2759  Q 947 2416 947 1791  Q 947 1169 1205 825  Q 1463 481 1925 481  Q 2391 481 2648 825  Q 2906 1169 2906 1791  z M 3481 434  Q 3481 -459 3084 -895  Q 2688 -1331 1869 -1331  Q 1566 -1331 1297 -1286  Q 1028 -1241 775 -1147  L 775 -588  Q 1028 -725 1275 -790  Q 1522 -856 1778 -856  Q 2344 -856 2625 -561  Q 2906 -266 2906 331  L 2906 616  Q 2728 306 2450 153  Q 2172 0 1784 0  Q 1141 0 747 490  Q 353 981 353 1791  Q 353 2603 747 3093  Q 1141 3584 1784 3584  Q 2172 3584 2450 3431  Q 2728 3278 2906 2969  L 2906 3500  L 3481 3500  L 3481 434  z " transform="scale(0.015625)"/>
      <path id="DejaVuSans-75" d="M 544 1381  L 544 3500  L 1119 3500  L 1119 1403  Q 1119 906 1312 657  Q 1506 409 1894 409  Q 2359 409 2629 706  Q 2900 1003 2900 1516  L 2900 3500  L 3475 3500  L 3475 0  L 2900 0  L 2900 538  Q 2691 219 2414 64  Q 2138 -91 1772 -91  Q 1169 -91 856 284  Q 544 659 544 1381  z M 1991 3584  L 1991 3584  z " transform="scale(0.015625)"/>
      <path id="DejaVuSans-6d" d="M 3328 2828  Q 3544 3216 3844 3400  Q 4144 3584 4550 3584  Q 5097 3584 5394 3201  Q 5691 2819 5691 2113  L 5691 0  L 5113 0  L 5113 2094  Q 5113 2597 4934 2840  Q 4756 3084 4391 3084  Q 3944 3084 3684 2787  Q 3425 2491 3425 1978  L 3425 0  L 2847 0  L 2847 2094  Q 2847 2600 2669 2842  Q 2491 3084 2119 3084  Q 1678 3084 1418 2786  Q 1159 2488 1159 1978  L 1159 0  L 581 0  L 581 3500  L 1159 3500  L 1159 2956  Q 1356 3278 1631 3431  Q 1906 3584 2284 3584  Q 2666 3584 2933 3390  Q 3200 3197 3328 2828  z " transform="scale(0.015625)"/>
     </defs>
     <use xlink:href="#DejaVuSans-74"/>
     <use xlink:href="#DejaVuSans-65" x="39.208984"/>
     <use xlink:href="#DejaVuSans-67" x="100.732422"/>
     <use xlink:href="#DejaVuSans-75" x="164.208984"/>
     <use xlink:href="#DejaVuSans-6d" x="227.587891"/>
     <use xlink:href="#DejaVuSans-65" x="325"/>
     <use xlink:href="#DejaVuSans-6e" x="386.523438"/>
     <use xlink:href="#DejaVuSans-74" x="449.902344"/>
    </g>
   </g>
  </g>
  <g id="axes_4">
   <g id="patch_8">
    <path d="M 44.28 369.0925  L 764.64 369.0925  L 764.64 72.1425  L 44.28 72.1425  L 44.28 369.0925  z " style="fill: none"/>
   </g>
   <g id="matplotlib.axis_7">
    <g id="xtick_28"/>
    <g id="xtick_29"/>
    <g id="xtick_30"/>
    <g id="xtick_31"/>
    <g id="xtick_32"/>
    <g id="xtick_33"/>
    <g id="xtick_34"/>
    <g id="xtick_35"/>
    <g id="xtick_36"/>
   </g>
   <g id="matplotlib.axis_8">
    <g id="text_7">
     <!-- Density -->
     <g style="fill: #262626" transform="translate(37.784375 243.427813)rotate(-90)scale(0.12 -0.12)">
      <use xlink:href="#DejaVuSans-44"/>
      <use xlink:href="#DejaVuSans-65" x="77.001953"/>
      <use xlink:href="#DejaVuSans-6e" x="138.525391"/>
      <use xlink:href="#DejaVuSans-73" x="201.904297"/>
      <use xlink:href="#DejaVuSans-69" x="254.003906"/>
      <use xlink:href="#DejaVuSans-74" x="281.787109"/>
      <use xlink:href="#DejaVuSans-79" x="320.996094"/>
     </g>
    </g>
   </g>
   <g id="PolyCollection_4">
    <defs>
     <path id="m6bacd2e200" d="M 32.937075 -62.910579  L 32.937075 -62.9075  L 36.352069 -62.9075  L 39.767063 -62.9075  L 43.182057 -62.9075  L 46.59705 -62.9075  L 50.012044 -62.9075  L 53.427038 -62.9075  L 56.842032 -62.9075  L 60.257026 -62.9075  L 63.67202 -62.9075  L 67.087014 -62.9075  L 70.502007 -62.9075  L 73.917001 -62.9075  L 77.331995 -62.9075  L 80.746989 -62.9075  L 84.161983 -62.9075  L 87.576977 -62.9075  L 90.991971 -62.9075  L 94.406964 -62.9075  L 97.821958 -62.9075  L 101.236952 -62.9075  L 104.651946 -62.9075  L 108.06694 -62.9075  L 111.481934 -62.9075  L 114.896928 -62.9075  L 118.311921 -62.9075  L 121.726915 -62.9075  L 125.141909 -62.9075  L 128.556903 -62.9075  L 131.971897 -62.9075  L 135.386891 -62.9075  L 138.801885 -62.9075  L 142.216878 -62.9075  L 145.631872 -62.9075  L 149.046866 -62.9075  L 152.46186 -62.9075  L 155.876854 -62.9075  L 159.291848 -62.9075  L 162.706842 -62.9075  L 166.121835 -62.9075  L 169.536829 -62.9075  L 172.951823 -62.9075  L 176.366817 -62.9075  L 179.781811 -62.9075  L 183.196805 -62.9075  L 186.611799 -62.9075  L 190.026792 -62.9075  L 193.441786 -62.9075  L 196.85678 -62.9075  L 200.271774 -62.9075  L 203.686768 -62.9075  L 207.101762 -62.9075  L 210.516756 -62.9075  L 213.931749 -62.9075  L 217.346743 -62.9075  L 220.761737 -62.9075  L 224.176731 -62.9075  L 227.591725 -62.9075  L 231.006719 -62.9075  L 234.421712 -62.9075  L 237.836706 -62.9075  L 241.2517 -62.9075  L 244.666694 -62.9075  L 248.081688 -62.9075  L 251.496682 -62.9075  L 254.911676 -62.9075  L 258.326669 -62.9075  L 261.741663 -62.9075  L 265.156657 -62.9075  L 268.571651 -62.9075  L 271.986645 -62.9075  L 275.401639 -62.9075  L 278.816633 -62.9075  L 282.231626 -62.9075  L 285.64662 -62.9075  L 289.061614 -62.9075  L 292.476608 -62.9075  L 295.891602 -62.9075  L 299.306596 -62.9075  L 302.72159 -62.9075  L 306.136583 -62.9075  L 309.551577 -62.9075  L 312.966571 -62.9075  L 316.381565 -62.9075  L 319.796559 -62.9075  L 323.211553 -62.9075  L 326.626547 -62.9075  L 330.04154 -62.9075  L 333.456534 -62.9075  L 336.871528 -62.9075  L 340.286522 -62.9075  L 343.701516 -62.9075  L 347.11651 -62.9075  L 350.531504 -62.9075  L 353.946497 -62.9075  L 357.361491 -62.9075  L 360.776485 -62.9075  L 364.191479 -62.9075  L 367.606473 -62.9075  L 371.021467 -62.9075  L 374.436461 -62.9075  L 377.851454 -62.9075  L 381.266448 -62.9075  L 384.681442 -62.9075  L 388.096436 -62.9075  L 391.51143 -62.9075  L 394.926424 -62.9075  L 398.341418 -62.9075  L 401.756411 -62.9075  L 405.171405 -62.9075  L 408.586399 -62.9075  L 412.001393 -62.9075  L 415.416387 -62.9075  L 418.831381 -62.9075  L 422.246374 -62.9075  L 425.661368 -62.9075  L 429.076362 -62.9075  L 432.491356 -62.9075  L 435.90635 -62.9075  L 439.321344 -62.9075  L 442.736338 -62.9075  L 446.151331 -62.9075  L 449.566325 -62.9075  L 452.981319 -62.9075  L 456.396313 -62.9075  L 459.811307 -62.9075  L 463.226301 -62.9075  L 466.641295 -62.9075  L 470.056288 -62.9075  L 473.471282 -62.9075  L 476.886276 -62.9075  L 480.30127 -62.9075  L 483.716264 -62.9075  L 487.131258 -62.9075  L 490.546252 -62.9075  L 493.961245 -62.9075  L 497.376239 -62.9075  L 500.791233 -62.9075  L 504.206227 -62.9075  L 507.621221 -62.9075  L 511.036215 -62.9075  L 514.451209 -62.9075  L 517.866202 -62.9075  L 521.281196 -62.9075  L 524.69619 -62.9075  L 528.111184 -62.9075  L 531.526178 -62.9075  L 534.941172 -62.9075  L 538.356166 -62.9075  L 541.771159 -62.9075  L 545.186153 -62.9075  L 548.601147 -62.9075  L 552.016141 -62.9075  L 555.431135 -62.9075  L 558.846129 -62.9075  L 562.261123 -62.9075  L 565.676116 -62.9075  L 569.09111 -62.9075  L 572.506104 -62.9075  L 575.921098 -62.9075  L 579.336092 -62.9075  L 582.751086 -62.9075  L 586.16608 -62.9075  L 589.581073 -62.9075  L 592.996067 -62.9075  L 596.411061 -62.9075  L 599.826055 -62.9075  L 603.241049 -62.9075  L 606.656043 -62.9075  L 610.071036 -62.9075  L 613.48603 -62.9075  L 616.901024 -62.9075  L 620.316018 -62.9075  L 623.731012 -62.9075  L 627.146006 -62.9075  L 630.561 -62.9075  L 633.975993 -62.9075  L 637.390987 -62.9075  L 640.805981 -62.9075  L 644.220975 -62.9075  L 647.635969 -62.9075  L 651.050963 -62.9075  L 654.465957 -62.9075  L 657.88095 -62.9075  L 661.295944 -62.9075  L 664.710938 -62.9075  L 668.125932 -62.9075  L 671.540926 -62.9075  L 674.95592 -62.9075  L 678.370914 -62.9075  L 681.785907 -62.9075  L 685.200901 -62.9075  L 688.615895 -62.9075  L 692.030889 -62.9075  L 695.445883 -62.9075  L 698.860877 -62.9075  L 702.275871 -62.9075  L 705.690864 -62.9075  L 709.105858 -62.9075  L 712.520852 -62.9075  L 712.520852 -62.916283  L 712.520852 -62.916283  L 709.105858 -62.922887  L 705.690864 -62.933697  L 702.275871 -62.950858  L 698.860877 -62.977274  L 695.445883 -63.016709  L 692.030889 -63.0738  L 688.615895 -63.153964  L 685.200901 -63.263162  L 681.785907 -63.407509  L 678.370914 -63.592767  L 674.95592 -63.823777  L 671.540926 -64.10396  L 668.125932 -64.434996  L 664.710938 -64.81681  L 661.295944 -65.247939  L 657.88095 -65.726258  L 654.465957 -66.249969  L 651.050963 -66.818626  L 647.635969 -67.433954  L 644.220975 -68.100227  L 640.805981 -68.824036  L 637.390987 -69.613485  L 633.975993 -70.476948  L 630.561 -71.421727  L 627.146006 -72.452958  L 623.731012 -73.573078  L 620.316018 -74.782049  L 616.901024 -76.078301  L 613.48603 -77.460189  L 610.071036 -78.927618  L 606.656043 -80.483438  L 603.241049 -82.134263  L 599.826055 -83.890486  L 596.411061 -85.765436  L 592.996067 -87.773751  L 589.581073 -89.929207  L 586.16608 -92.242289  L 582.751086 -94.717884  L 579.336092 -97.353419  L 575.921098 -100.137762  L 572.506104 -103.051067  L 569.09111 -106.065644  L 565.676116 -109.147774  L 562.261123 -112.260287  L 558.846129 -115.365628  L 555.431135 -118.429153  L 552.016141 -121.42234  L 548.601147 -124.325652  L 545.186153 -127.13075  L 541.771159 -129.841693  L 538.356166 -132.474772  L 534.941172 -135.056667  L 531.526178 -137.620838  L 528.111184 -140.202354  L 524.69619 -142.831815  L 521.281196 -145.529328  L 517.866202 -148.299712  L 514.451209 -151.129966  L 511.036215 -153.989684  L 507.621221 -156.834496  L 504.206227 -159.611987  L 500.791233 -162.269058  L 497.376239 -164.759441  L 493.961245 -167.050107  L 490.546252 -169.125628  L 487.131258 -170.989976  L 483.716264 -172.665696  L 480.30127 -174.190768  L 476.886276 -175.613722  L 473.471282 -176.987687  L 470.056288 -178.364091  L 466.641295 -179.786633  L 463.226301 -181.286102  L 459.811307 -182.876481  L 456.396313 -184.552632  L 452.981319 -186.289771  L 449.566325 -188.044808  L 446.151331 -189.759532  L 442.736338 -191.365478  L 439.321344 -192.790193  L 435.90635 -193.96437  L 432.491356 -194.829141  L 429.076362 -195.342626  L 425.661368 -195.484773  L 422.246374 -195.259677  L 418.831381 -194.694909  L 415.416387 -193.837908  L 412.001393 -192.750026  L 408.586399 -191.499321  L 405.171405 -190.153354  L 401.756411 -188.773232  L 398.341418 -187.409686  L 394.926424 -186.101485  L 391.51143 -184.87581  L 388.096436 -183.749819  L 384.681442 -182.732375  L 381.266448 -181.82503  L 377.851454 -181.021763  L 374.436461 -180.307508  L 371.021467 -179.656099  L 367.606473 -179.028669  L 364.191479 -178.373633  L 360.776485 -177.629148  L 357.361491 -176.728334  L 353.946497 -175.606782  L 350.531504 -174.211182  L 347.11651 -172.507396  L 343.701516 -170.486289  L 340.286522 -168.16601  L 336.871528 -165.590161  L 333.456534 -162.822192  L 330.04154 -159.937141  L 326.626547 -157.012338  L 323.211553 -154.118733  L 319.796559 -151.314195  L 316.381565 -148.6395  L 312.966571 -146.117044  L 309.551577 -143.751759  L 306.136583 -141.533397  L 302.72159 -139.439345  L 299.306596 -137.437383  L 295.891602 -135.488186  L 292.476608 -133.547673  L 289.061614 -131.569528  L 285.64662 -129.508215  L 282.231626 -127.322574  L 278.816633 -124.97983  L 275.401639 -122.45953  L 271.986645 -119.756759  L 268.571651 -116.883956  L 265.156657 -113.870839  L 261.741663 -110.762226  L 258.326669 -107.613899  L 254.911676 -104.48701  L 251.496682 -101.441782  L 248.081688 -98.531379  L 244.666694 -95.796811  L 241.2517 -93.263566  L 237.836706 -90.940372  L 234.421712 -88.820167  L 231.006719 -86.882981  L 227.591725 -85.100164  L 224.176731 -83.439198  L 220.761737 -81.868329  L 217.346743 -80.360368  L 213.931749 -78.895232  L 210.516756 -77.461085  L 207.101762 -76.0542  L 203.686768 -74.677845  L 200.271774 -73.340579  L 196.85678 -72.054342  L 193.441786 -70.832616  L 190.026792 -69.688828  L 186.611799 -68.635066  L 183.196805 -67.681089  L 179.781811 -66.833608  L 176.366817 -66.095815  L 172.951823 -65.467166  L 169.536829 -64.943436  L 166.121835 -64.517057  L 162.706842 -64.177751  L 159.291848 -63.913383  L 155.876854 -63.710966  L 152.46186 -63.557672  L 149.046866 -63.441747  L 145.631872 -63.353204  L 142.216878 -63.284222  L 138.801885 -63.22925  L 135.386891 -63.184827  L 131.971897 -63.149193  L 128.556903 -63.121777  L 125.141909 -63.102644  L 121.726915 -63.091996  L 118.311921 -63.089758  L 114.896928 -63.095307  L 111.481934 -63.10735  L 108.06694 -63.123946  L 104.651946 -63.142655  L 101.236952 -63.160794  L 97.821958 -63.175742  L 94.406964 -63.185251  L 90.991971 -63.187722  L 87.576977 -63.18238  L 84.161983 -63.169332  L 80.746989 -63.149495  L 77.331995 -63.124421  L 73.917001 -63.096034  L 70.502007 -63.066357  L 67.087014 -63.03725  L 63.67202 -63.010224  L 60.257026 -62.986328  L 56.842032 -62.966132  L 53.427038 -62.949769  L 50.012044 -62.937035  L 46.59705 -62.927503  L 43.182057 -62.92063  L 39.767063 -62.915854  L 36.352069 -62.912651  L 32.937075 -62.910579  z " style="stroke: #e78ac3"/>
    </defs>
    <g clip-path="url(#pcaa527b0cc)">
     <use xlink:href="#m6bacd2e200" x="0" y="432" style="fill: #e78ac3; stroke: #e78ac3"/>
    </g>
   </g>
   <g id="line2d_4">
    <path d="M 32.937075 369.089421  L 67.087014 368.96275  L 94.406964 368.814749  L 131.971897 368.850807  L 145.631872 368.646796  L 155.876854 368.289034  L 162.706842 367.822249  L 169.536829 367.056564  L 176.366817 365.904185  L 183.196805 364.318911  L 190.026792 362.311172  L 196.85678 359.945658  L 203.686768 357.322155  L 213.931749 353.104768  L 220.761737 350.131671  L 227.591725 346.899836  L 231.006719 345.117019  L 234.421712 343.179833  L 237.836706 341.059628  L 241.2517 338.736434  L 244.666694 336.203189  L 248.081688 333.468621  L 254.911676 327.51299  L 268.571651 315.116044  L 271.986645 312.243241  L 275.401639 309.54047  L 278.816633 307.02017  L 282.231626 304.677426  L 289.061614 300.430472  L 306.136583 290.466603  L 309.551577 288.248241  L 312.966571 285.882956  L 316.381565 283.3605  L 323.211553 277.881267  L 336.871528 266.409839  L 340.286522 263.83399  L 343.701516 261.513711  L 347.11651 259.492604  L 350.531504 257.788818  L 353.946497 256.393218  L 357.361491 255.271666  L 360.776485 254.370852  L 367.606473 252.971331  L 377.851454 250.978237  L 384.681442 249.267625  L 391.51143 247.12419  L 398.341418 244.590314  L 412.001393 239.249974  L 415.416387 238.162092  L 418.831381 237.305091  L 422.246374 236.740323  L 425.661368 236.515227  L 429.076362 236.657374  L 432.491356 237.170859  L 435.90635 238.03563  L 439.321344 239.209807  L 442.736338 240.634522  L 449.566325 243.955192  L 459.811307 249.123519  L 466.641295 252.213367  L 483.716264 259.334304  L 487.131258 261.010024  L 490.546252 262.874372  L 493.961245 264.949893  L 497.376239 267.240559  L 500.791233 269.730942  L 507.621221 275.165504  L 521.281196 286.470672  L 528.111184 291.797646  L 541.771159 302.158307  L 548.601147 307.674348  L 555.431135 313.570847  L 575.921098 331.862238  L 579.336092 334.646581  L 582.751086 337.282116  L 586.16608 339.757711  L 589.581073 342.070793  L 592.996067 344.226249  L 596.411061 346.234564  L 603.241049 349.865737  L 610.071036 353.072382  L 616.901024 355.921699  L 623.731012 358.426922  L 630.561 360.578273  L 637.390987 362.386515  L 644.220975 363.899773  L 651.050963 365.181374  L 657.88095 366.273742  L 664.710938 367.18319  L 671.540926 367.89604  L 678.370914 368.407233  L 685.200901 368.736838  L 695.445883 368.983291  L 712.520852 369.083717  L 712.520852 369.083717  " clip-path="url(#pcaa527b0cc)" style="fill: none; stroke: #000000; stroke-width: 1.5; stroke-linecap: round"/>
   </g>
   <g id="patch_9">
    <path d="M 44.28 369.0925  L 764.64 369.0925  " style="fill: none; stroke: #262626; stroke-width: 2; stroke-linejoin: miter; stroke-linecap: square"/>
   </g>
   <g id="text_8">
    <!-- parenchyma -->
    <g transform="translate(44.28 357.832188)scale(0.13 -0.13)">
     <defs>
      <path id="DejaVuSans-72" d="M 2631 2963  Q 2534 3019 2420 3045  Q 2306 3072 2169 3072  Q 1681 3072 1420 2755  Q 1159 2438 1159 1844  L 1159 0  L 581 0  L 581 3500  L 1159 3500  L 1159 2956  Q 1341 3275 1631 3429  Q 1922 3584 2338 3584  Q 2397 3584 2469 3576  Q 2541 3569 2628 3553  L 2631 2963  z " transform="scale(0.015625)"/>
     </defs>
     <use xlink:href="#DejaVuSans-70"/>
     <use xlink:href="#DejaVuSans-61" x="63.476562"/>
     <use xlink:href="#DejaVuSans-72" x="124.755859"/>
     <use xlink:href="#DejaVuSans-65" x="163.619141"/>
     <use xlink:href="#DejaVuSans-6e" x="225.142578"/>
     <use xlink:href="#DejaVuSans-63" x="288.521484"/>
     <use xlink:href="#DejaVuSans-68" x="343.501953"/>
     <use xlink:href="#DejaVuSans-79" x="406.880859"/>
     <use xlink:href="#DejaVuSans-6d" x="466.060547"/>
     <use xlink:href="#DejaVuSans-61" x="563.472656"/>
    </g>
   </g>
  </g>
  <g id="axes_5">
   <g id="patch_10">
    <path d="M 44.28 383.94  L 764.64 383.94  L 764.64 86.99  L 44.28 86.99  L 44.28 383.94  z " style="fill: none"/>
   </g>
   <g id="matplotlib.axis_9">
    <g id="xtick_37">
     <g id="text_9">
      <!-- 0.6 -->
      <g style="fill: #262626" transform="translate(70.944453 401.798281)scale(0.11 -0.11)">
       <defs>
        <path id="DejaVuSans-2212" d="M 678 2272  L 4684 2272  L 4684 1741  L 678 1741  L 678 2272  z " transform="scale(0.015625)"/>
        <path id="DejaVuSans-30" d="M 2034 4250  Q 1547 4250 1301 3770  Q 1056 3291 1056 2328  Q 1056 1369 1301 889  Q 1547 409 2034 409  Q 2525 409 2770 889  Q 3016 1369 3016 2328  Q 3016 3291 2770 3770  Q 2525 4250 2034 4250  z M 2034 4750  Q 2819 4750 3233 4129  Q 3647 3509 3647 2328  Q 3647 1150 3233 529  Q 2819 -91 2034 -91  Q 1250 -91 836 529  Q 422 1150 422 2328  Q 422 3509 836 4129  Q 1250 4750 2034 4750  z " transform="scale(0.015625)"/>
        <path id="DejaVuSans-2e" d="M 684 794  L 1344 794  L 1344 0  L 684 0  L 684 794  z " transform="scale(0.015625)"/>
        <path id="DejaVuSans-36" d="M 2113 2584  Q 1688 2584 1439 2293  Q 1191 2003 1191 1497  Q 1191 994 1439 701  Q 1688 409 2113 409  Q 2538 409 2786 701  Q 3034 994 3034 1497  Q 3034 2003 2786 2293  Q 2538 2584 2113 2584  z M 3366 4563  L 3366 3988  Q 3128 4100 2886 4159  Q 2644 4219 2406 4219  Q 1781 4219 1451 3797  Q 1122 3375 1075 2522  Q 1259 2794 1537 2939  Q 1816 3084 2150 3084  Q 2853 3084 3261 2657  Q 3669 2231 3669 1497  Q 3669 778 3244 343  Q 2819 -91 2113 -91  Q 1303 -91 875 529  Q 447 1150 447 2328  Q 447 3434 972 4092  Q 1497 4750 2381 4750  Q 2619 4750 2861 4703  Q 3103 4656 3366 4563  z " transform="scale(0.015625)"/>
       </defs>
       <use xlink:href="#DejaVuSans-2212"/>
       <use xlink:href="#DejaVuSans-30" x="83.789062"/>
       <use xlink:href="#DejaVuSans-2e" x="147.412109"/>
       <use xlink:href="#DejaVuSans-36" x="179.199219"/>
      </g>
     </g>
    </g>
    <g id="xtick_38">
     <g id="text_10">
      <!-- 0.4 -->
      <g style="fill: #262626" transform="translate(150.984453 401.798281)scale(0.11 -0.11)">
       <defs>
        <path id="DejaVuSans-34" d="M 2419 4116  L 825 1625  L 2419 1625  L 2419 4116  z M 2253 4666  L 3047 4666  L 3047 1625  L 3713 1625  L 3713 1100  L 3047 1100  L 3047 0  L 2419 0  L 2419 1100  L 313 1100  L 313 1709  L 2253 4666  z " transform="scale(0.015625)"/>
       </defs>
       <use xlink:href="#DejaVuSans-2212"/>
       <use xlink:href="#DejaVuSans-30" x="83.789062"/>
       <use xlink:href="#DejaVuSans-2e" x="147.412109"/>
       <use xlink:href="#DejaVuSans-34" x="179.199219"/>
      </g>
     </g>
    </g>
    <g id="xtick_39">
     <g id="text_11">
      <!-- 0.2 -->
      <g style="fill: #262626" transform="translate(231.024453 401.798281)scale(0.11 -0.11)">
       <defs>
        <path id="DejaVuSans-32" d="M 1228 531  L 3431 531  L 3431 0  L 469 0  L 469 531  Q 828 903 1448 1529  Q 2069 2156 2228 2338  Q 2531 2678 2651 2914  Q 2772 3150 2772 3378  Q 2772 3750 2511 3984  Q 2250 4219 1831 4219  Q 1534 4219 1204 4116  Q 875 4013 500 3803  L 500 4441  Q 881 4594 1212 4672  Q 1544 4750 1819 4750  Q 2544 4750 2975 4387  Q 3406 4025 3406 3419  Q 3406 3131 3298 2873  Q 3191 2616 2906 2266  Q 2828 2175 2409 1742  Q 1991 1309 1228 531  z " transform="scale(0.015625)"/>
       </defs>
       <use xlink:href="#DejaVuSans-2212"/>
       <use xlink:href="#DejaVuSans-30" x="83.789062"/>
       <use xlink:href="#DejaVuSans-2e" x="147.412109"/>
       <use xlink:href="#DejaVuSans-32" x="179.199219"/>
      </g>
     </g>
    </g>
    <g id="xtick_40">
     <g id="text_12">
      <!-- 0.0 -->
      <g style="fill: #262626" transform="translate(315.673281 401.798281)scale(0.11 -0.11)">
       <use xlink:href="#DejaVuSans-30"/>
       <use xlink:href="#DejaVuSans-2e" x="63.623047"/>
       <use xlink:href="#DejaVuSans-30" x="95.410156"/>
      </g>
     </g>
    </g>
    <g id="xtick_41">
     <g id="text_13">
      <!-- 0.2 -->
      <g style="fill: #262626" transform="translate(395.713281 401.798281)scale(0.11 -0.11)">
       <use xlink:href="#DejaVuSans-30"/>
       <use xlink:href="#DejaVuSans-2e" x="63.623047"/>
       <use xlink:href="#DejaVuSans-32" x="95.410156"/>
      </g>
     </g>
    </g>
    <g id="xtick_42">
     <g id="text_14">
      <!-- 0.4 -->
      <g style="fill: #262626" transform="translate(475.753281 401.798281)scale(0.11 -0.11)">
       <use xlink:href="#DejaVuSans-30"/>
       <use xlink:href="#DejaVuSans-2e" x="63.623047"/>
       <use xlink:href="#DejaVuSans-34" x="95.410156"/>
      </g>
     </g>
    </g>
    <g id="xtick_43">
     <g id="text_15">
      <!-- 0.6 -->
      <g style="fill: #262626" transform="translate(555.793281 401.798281)scale(0.11 -0.11)">
       <use xlink:href="#DejaVuSans-30"/>
       <use xlink:href="#DejaVuSans-2e" x="63.623047"/>
       <use xlink:href="#DejaVuSans-36" x="95.410156"/>
      </g>
     </g>
    </g>
    <g id="xtick_44">
     <g id="text_16">
      <!-- 0.8 -->
      <g style="fill: #262626" transform="translate(635.833281 401.798281)scale(0.11 -0.11)">
       <defs>
        <path id="DejaVuSans-38" d="M 2034 2216  Q 1584 2216 1326 1975  Q 1069 1734 1069 1313  Q 1069 891 1326 650  Q 1584 409 2034 409  Q 2484 409 2743 651  Q 3003 894 3003 1313  Q 3003 1734 2745 1975  Q 2488 2216 2034 2216  z M 1403 2484  Q 997 2584 770 2862  Q 544 3141 544 3541  Q 544 4100 942 4425  Q 1341 4750 2034 4750  Q 2731 4750 3128 4425  Q 3525 4100 3525 3541  Q 3525 3141 3298 2862  Q 3072 2584 2669 2484  Q 3125 2378 3379 2068  Q 3634 1759 3634 1313  Q 3634 634 3220 271  Q 2806 -91 2034 -91  Q 1263 -91 848 271  Q 434 634 434 1313  Q 434 1759 690 2068  Q 947 2378 1403 2484  z M 1172 3481  Q 1172 3119 1398 2916  Q 1625 2713 2034 2713  Q 2441 2713 2670 2916  Q 2900 3119 2900 3481  Q 2900 3844 2670 4047  Q 2441 4250 2034 4250  Q 1625 4250 1398 4047  Q 1172 3844 1172 3481  z " transform="scale(0.015625)"/>
       </defs>
       <use xlink:href="#DejaVuSans-30"/>
       <use xlink:href="#DejaVuSans-2e" x="63.623047"/>
       <use xlink:href="#DejaVuSans-38" x="95.410156"/>
      </g>
     </g>
    </g>
    <g id="xtick_45">
     <g id="text_17">
      <!-- 1.0 -->
      <g style="fill: #262626" transform="translate(715.873281 401.798281)scale(0.11 -0.11)">
       <defs>
        <path id="DejaVuSans-31" d="M 794 531  L 1825 531  L 1825 4091  L 703 3866  L 703 4441  L 1819 4666  L 2450 4666  L 2450 531  L 3481 531  L 3481 0  L 794 0  L 794 531  z " transform="scale(0.015625)"/>
       </defs>
       <use xlink:href="#DejaVuSans-31"/>
       <use xlink:href="#DejaVuSans-2e" x="63.623047"/>
       <use xlink:href="#DejaVuSans-30" x="95.410156"/>
      </g>
     </g>
    </g>
    <g id="text_18">
     <!-- Smed all other cell types SHAP correlation to muscle -->
     <g style="fill: #262626" transform="translate(246.511875 417.204063)scale(0.12 -0.12)">
      <defs>
       <path id="DejaVuSans-53" d="M 3425 4513  L 3425 3897  Q 3066 4069 2747 4153  Q 2428 4238 2131 4238  Q 1616 4238 1336 4038  Q 1056 3838 1056 3469  Q 1056 3159 1242 3001  Q 1428 2844 1947 2747  L 2328 2669  Q 3034 2534 3370 2195  Q 3706 1856 3706 1288  Q 3706 609 3251 259  Q 2797 -91 1919 -91  Q 1588 -91 1214 -16  Q 841 59 441 206  L 441 856  Q 825 641 1194 531  Q 1563 422 1919 422  Q 2459 422 2753 634  Q 3047 847 3047 1241  Q 3047 1584 2836 1778  Q 2625 1972 2144 2069  L 1759 2144  Q 1053 2284 737 2584  Q 422 2884 422 3419  Q 422 4038 858 4394  Q 1294 4750 2059 4750  Q 2388 4750 2728 4690  Q 3069 4631 3425 4513  z " transform="scale(0.015625)"/>
       <path id="DejaVuSans-64" d="M 2906 2969  L 2906 4863  L 3481 4863  L 3481 0  L 2906 0  L 2906 525  Q 2725 213 2448 61  Q 2172 -91 1784 -91  Q 1150 -91 751 415  Q 353 922 353 1747  Q 353 2572 751 3078  Q 1150 3584 1784 3584  Q 2172 3584 2448 3432  Q 2725 3281 2906 2969  z M 947 1747  Q 947 1113 1208 752  Q 1469 391 1925 391  Q 2381 391 2643 752  Q 2906 1113 2906 1747  Q 2906 2381 2643 2742  Q 2381 3103 1925 3103  Q 1469 3103 1208 2742  Q 947 2381 947 1747  z " transform="scale(0.015625)"/>
       <path id="DejaVuSans-20" transform="scale(0.015625)"/>
       <path id="DejaVuSans-6c" d="M 603 4863  L 1178 4863  L 1178 0  L 603 0  L 603 4863  z " transform="scale(0.015625)"/>
       <path id="DejaVuSans-6f" d="M 1959 3097  Q 1497 3097 1228 2736  Q 959 2375 959 1747  Q 959 1119 1226 758  Q 1494 397 1959 397  Q 2419 397 2687 759  Q 2956 1122 2956 1747  Q 2956 2369 2687 2733  Q 2419 3097 1959 3097  z M 1959 3584  Q 2709 3584 3137 3096  Q 3566 2609 3566 1747  Q 3566 888 3137 398  Q 2709 -91 1959 -91  Q 1206 -91 779 398  Q 353 888 353 1747  Q 353 2609 779 3096  Q 1206 3584 1959 3584  z " transform="scale(0.015625)"/>
       <path id="DejaVuSans-48" d="M 628 4666  L 1259 4666  L 1259 2753  L 3553 2753  L 3553 4666  L 4184 4666  L 4184 0  L 3553 0  L 3553 2222  L 1259 2222  L 1259 0  L 628 0  L 628 4666  z " transform="scale(0.015625)"/>
       <path id="DejaVuSans-41" d="M 2188 4044  L 1331 1722  L 3047 1722  L 2188 4044  z M 1831 4666  L 2547 4666  L 4325 0  L 3669 0  L 3244 1197  L 1141 1197  L 716 0  L 50 0  L 1831 4666  z " transform="scale(0.015625)"/>
       <path id="DejaVuSans-50" d="M 1259 4147  L 1259 2394  L 2053 2394  Q 2494 2394 2734 2622  Q 2975 2850 2975 3272  Q 2975 3691 2734 3919  Q 2494 4147 2053 4147  L 1259 4147  z M 628 4666  L 2053 4666  Q 2838 4666 3239 4311  Q 3641 3956 3641 3272  Q 3641 2581 3239 2228  Q 2838 1875 2053 1875  L 1259 1875  L 1259 0  L 628 0  L 628 4666  z " transform="scale(0.015625)"/>
      </defs>
      <use xlink:href="#DejaVuSans-53"/>
      <use xlink:href="#DejaVuSans-6d" x="63.476562"/>
      <use xlink:href="#DejaVuSans-65" x="160.888672"/>
      <use xlink:href="#DejaVuSans-64" x="222.412109"/>
      <use xlink:href="#DejaVuSans-20" x="285.888672"/>
      <use xlink:href="#DejaVuSans-61" x="317.675781"/>
      <use xlink:href="#DejaVuSans-6c" x="378.955078"/>
      <use xlink:href="#DejaVuSans-6c" x="406.738281"/>
      <use xlink:href="#DejaVuSans-20" x="434.521484"/>
      <use xlink:href="#DejaVuSans-6f" x="466.308594"/>
      <use xlink:href="#DejaVuSans-74" x="527.490234"/>
      <use xlink:href="#DejaVuSans-68" x="566.699219"/>
      <use xlink:href="#DejaVuSans-65" x="630.078125"/>
      <use xlink:href="#DejaVuSans-72" x="691.601562"/>
      <use xlink:href="#DejaVuSans-20" x="732.714844"/>
      <use xlink:href="#DejaVuSans-63" x="764.501953"/>
      <use xlink:href="#DejaVuSans-65" x="819.482422"/>
      <use xlink:href="#DejaVuSans-6c" x="881.005859"/>
      <use xlink:href="#DejaVuSans-6c" x="908.789062"/>
      <use xlink:href="#DejaVuSans-20" x="936.572266"/>
      <use xlink:href="#DejaVuSans-74" x="968.359375"/>
      <use xlink:href="#DejaVuSans-79" x="1007.568359"/>
      <use xlink:href="#DejaVuSans-70" x="1066.748047"/>
      <use xlink:href="#DejaVuSans-65" x="1130.224609"/>
      <use xlink:href="#DejaVuSans-73" x="1191.748047"/>
      <use xlink:href="#DejaVuSans-20" x="1243.847656"/>
      <use xlink:href="#DejaVuSans-53" x="1275.634766"/>
      <use xlink:href="#DejaVuSans-48" x="1339.111328"/>
      <use xlink:href="#DejaVuSans-41" x="1414.306641"/>
      <use xlink:href="#DejaVuSans-50" x="1482.714844"/>
      <use xlink:href="#DejaVuSans-20" x="1543.017578"/>
      <use xlink:href="#DejaVuSans-63" x="1574.804688"/>
      <use xlink:href="#DejaVuSans-6f" x="1629.785156"/>
      <use xlink:href="#DejaVuSans-72" x="1690.966797"/>
      <use xlink:href="#DejaVuSans-72" x="1730.330078"/>
      <use xlink:href="#DejaVuSans-65" x="1769.193359"/>
      <use xlink:href="#DejaVuSans-6c" x="1830.716797"/>
      <use xlink:href="#DejaVuSans-61" x="1858.5"/>
      <use xlink:href="#DejaVuSans-74" x="1919.779297"/>
      <use xlink:href="#DejaVuSans-69" x="1958.988281"/>
      <use xlink:href="#DejaVuSans-6f" x="1986.771484"/>
      <use xlink:href="#DejaVuSans-6e" x="2047.953125"/>
      <use xlink:href="#DejaVuSans-20" x="2111.332031"/>
      <use xlink:href="#DejaVuSans-74" x="2143.119141"/>
      <use xlink:href="#DejaVuSans-6f" x="2182.328125"/>
      <use xlink:href="#DejaVuSans-20" x="2243.509766"/>
      <use xlink:href="#DejaVuSans-6d" x="2275.296875"/>
      <use xlink:href="#DejaVuSans-75" x="2372.708984"/>
      <use xlink:href="#DejaVuSans-73" x="2436.087891"/>
      <use xlink:href="#DejaVuSans-63" x="2488.1875"/>
      <use xlink:href="#DejaVuSans-6c" x="2543.167969"/>
      <use xlink:href="#DejaVuSans-65" x="2570.951172"/>
     </g>
    </g>
   </g>
   <g id="matplotlib.axis_10">
    <g id="text_19">
     <!-- Density -->
     <g style="fill: #262626" transform="translate(37.784375 258.275313)rotate(-90)scale(0.12 -0.12)">
      <use xlink:href="#DejaVuSans-44"/>
      <use xlink:href="#DejaVuSans-65" x="77.001953"/>
      <use xlink:href="#DejaVuSans-6e" x="138.525391"/>
      <use xlink:href="#DejaVuSans-73" x="201.904297"/>
      <use xlink:href="#DejaVuSans-69" x="254.003906"/>
      <use xlink:href="#DejaVuSans-74" x="281.787109"/>
      <use xlink:href="#DejaVuSans-79" x="320.996094"/>
     </g>
    </g>
   </g>
   <g id="PolyCollection_5">
    <defs>
     <path id="m2d31284c91" d="M 20.247467 -48.063055  L 20.247467 -48.06  L 23.805023 -48.06  L 27.362579 -48.06  L 30.920136 -48.06  L 34.477692 -48.06  L 38.035248 -48.06  L 41.592804 -48.06  L 45.150361 -48.06  L 48.707917 -48.06  L 52.265473 -48.06  L 55.823029 -48.06  L 59.380585 -48.06  L 62.938142 -48.06  L 66.495698 -48.06  L 70.053254 -48.06  L 73.61081 -48.06  L 77.168367 -48.06  L 80.725923 -48.06  L 84.283479 -48.06  L 87.841035 -48.06  L 91.398591 -48.06  L 94.956148 -48.06  L 98.513704 -48.06  L 102.07126 -48.06  L 105.628816 -48.06  L 109.186373 -48.06  L 112.743929 -48.06  L 116.301485 -48.06  L 119.859041 -48.06  L 123.416597 -48.06  L 126.974154 -48.06  L 130.53171 -48.06  L 134.089266 -48.06  L 137.646822 -48.06  L 141.204378 -48.06  L 144.761935 -48.06  L 148.319491 -48.06  L 151.877047 -48.06  L 155.434603 -48.06  L 158.99216 -48.06  L 162.549716 -48.06  L 166.107272 -48.06  L 169.664828 -48.06  L 173.222384 -48.06  L 176.779941 -48.06  L 180.337497 -48.06  L 183.895053 -48.06  L 187.452609 -48.06  L 191.010166 -48.06  L 194.567722 -48.06  L 198.125278 -48.06  L 201.682834 -48.06  L 205.24039 -48.06  L 208.797947 -48.06  L 212.355503 -48.06  L 215.913059 -48.06  L 219.470615 -48.06  L 223.028171 -48.06  L 226.585728 -48.06  L 230.143284 -48.06  L 233.70084 -48.06  L 237.258396 -48.06  L 240.815953 -48.06  L 244.373509 -48.06  L 247.931065 -48.06  L 251.488621 -48.06  L 255.046177 -48.06  L 258.603734 -48.06  L 262.16129 -48.06  L 265.718846 -48.06  L 269.276402 -48.06  L 272.833959 -48.06  L 276.391515 -48.06  L 279.949071 -48.06  L 283.506627 -48.06  L 287.064183 -48.06  L 290.62174 -48.06  L 294.179296 -48.06  L 297.736852 -48.06  L 301.294408 -48.06  L 304.851965 -48.06  L 308.409521 -48.06  L 311.967077 -48.06  L 315.524633 -48.06  L 319.082189 -48.06  L 322.639746 -48.06  L 326.197302 -48.06  L 329.754858 -48.06  L 333.312414 -48.06  L 336.86997 -48.06  L 340.427527 -48.06  L 343.985083 -48.06  L 347.542639 -48.06  L 351.100195 -48.06  L 354.657752 -48.06  L 358.215308 -48.06  L 361.772864 -48.06  L 365.33042 -48.06  L 368.887976 -48.06  L 372.445533 -48.06  L 376.003089 -48.06  L 379.560645 -48.06  L 383.118201 -48.06  L 386.675758 -48.06  L 390.233314 -48.06  L 393.79087 -48.06  L 397.348426 -48.06  L 400.905982 -48.06  L 404.463539 -48.06  L 408.021095 -48.06  L 411.578651 -48.06  L 415.136207 -48.06  L 418.693764 -48.06  L 422.25132 -48.06  L 425.808876 -48.06  L 429.366432 -48.06  L 432.923988 -48.06  L 436.481545 -48.06  L 440.039101 -48.06  L 443.596657 -48.06  L 447.154213 -48.06  L 450.711769 -48.06  L 454.269326 -48.06  L 457.826882 -48.06  L 461.384438 -48.06  L 464.941994 -48.06  L 468.499551 -48.06  L 472.057107 -48.06  L 475.614663 -48.06  L 479.172219 -48.06  L 482.729775 -48.06  L 486.287332 -48.06  L 489.844888 -48.06  L 493.402444 -48.06  L 496.96 -48.06  L 500.517557 -48.06  L 504.075113 -48.06  L 507.632669 -48.06  L 511.190225 -48.06  L 514.747781 -48.06  L 518.305338 -48.06  L 521.862894 -48.06  L 525.42045 -48.06  L 528.978006 -48.06  L 532.535563 -48.06  L 536.093119 -48.06  L 539.650675 -48.06  L 543.208231 -48.06  L 546.765787 -48.06  L 550.323344 -48.06  L 553.8809 -48.06  L 557.438456 -48.06  L 560.996012 -48.06  L 564.553568 -48.06  L 568.111125 -48.06  L 571.668681 -48.06  L 575.226237 -48.06  L 578.783793 -48.06  L 582.34135 -48.06  L 585.898906 -48.06  L 589.456462 -48.06  L 593.014018 -48.06  L 596.571574 -48.06  L 600.129131 -48.06  L 603.686687 -48.06  L 607.244243 -48.06  L 610.801799 -48.06  L 614.359356 -48.06  L 617.916912 -48.06  L 621.474468 -48.06  L 625.032024 -48.06  L 628.58958 -48.06  L 632.147137 -48.06  L 635.704693 -48.06  L 639.262249 -48.06  L 642.819805 -48.06  L 646.377362 -48.06  L 649.934918 -48.06  L 653.492474 -48.06  L 657.05003 -48.06  L 660.607586 -48.06  L 664.165143 -48.06  L 667.722699 -48.06  L 671.280255 -48.06  L 674.837811 -48.06  L 678.395367 -48.06  L 681.952924 -48.06  L 685.51048 -48.06  L 689.068036 -48.06  L 692.625592 -48.06  L 696.183149 -48.06  L 699.740705 -48.06  L 703.298261 -48.06  L 706.855817 -48.06  L 710.413373 -48.06  L 713.97093 -48.06  L 717.528486 -48.06  L 721.086042 -48.06  L 724.643598 -48.06  L 728.201155 -48.06  L 728.201155 -48.066511  L 728.201155 -48.066511  L 724.643598 -48.071517  L 721.086042 -48.079789  L 717.528486 -48.093048  L 713.97093 -48.113675  L 710.413373 -48.144841  L 706.855817 -48.190604  L 703.298261 -48.255956  L 699.740705 -48.346785  L 696.183149 -48.469745  L 692.625592 -48.632007  L 689.068036 -48.840898  L 685.51048 -49.103447  L 681.952924 -49.425874  L 678.395367 -49.81307  L 674.837811 -50.268162  L 671.280255 -50.792233  L 667.722699 -51.384323  L 664.165143 -52.041753  L 660.607586 -52.760854  L 657.05003 -53.538039  L 653.492474 -54.371123  L 649.934918 -55.260679  L 646.377362 -56.211153  L 642.819805 -57.231449  L 639.262249 -58.334728  L 635.704693 -59.537311  L 632.147137 -60.856729  L 628.58958 -62.309192  L 625.032024 -63.906891  L 621.474468 -65.655659  L 617.916912 -67.553469  L 614.359356 -69.590145  L 610.801799 -71.748406  L 607.244243 -74.00615  L 603.686687 -76.339626  L 600.129131 -78.726973  L 596.571574 -81.15157  L 593.014018 -83.604609  L 589.456462 -86.086476  L 585.898906 -88.60666  L 582.34135 -91.182207  L 578.783793 -93.834938  L 575.226237 -96.587953  L 571.668681 -99.462077  L 568.111125 -102.472931  L 564.553568 -105.629198  L 560.996012 -108.932315  L 557.438456 -112.377488  L 553.8809 -115.95551  L 550.323344 -119.654716  L 546.765787 -123.462366  L 543.208231 -127.365019  L 539.650675 -131.347845  L 536.093119 -135.393177  L 532.535563 -139.478886  L 528.978006 -143.577207  L 525.42045 -147.654463  L 521.862894 -151.67188  L 518.305338 -155.587351  L 514.747781 -159.357822  L 511.190225 -162.941887  L 507.632669 -166.302243  L 504.075113 -169.407783  L 500.517557 -172.235253  L 496.96 -174.770461  L 493.402444 -177.00903  L 489.844888 -178.956635  L 486.287332 -180.628569  L 482.729775 -182.04851  L 479.172219 -183.246359  L 475.614663 -184.255216  L 472.057107 -185.1077  L 468.499551 -185.83202  L 464.941994 -186.448335  L 461.384438 -186.965949  L 457.826882 -187.381852  L 454.269326 -187.68092  L 450.711769 -187.83788  L 447.154213 -187.820815  L 443.596657 -187.595735  L 440.039101 -187.131478  L 436.481545 -186.404105  L 432.923988 -185.400046  L 429.366432 -184.11752  L 425.808876 -182.566155  L 422.25132 -180.765189  L 418.693764 -178.740911  L 415.136207 -176.524097  L 411.578651 -174.148003  L 408.021095 -171.647103  L 404.463539 -169.056359  L 400.905982 -166.410565  L 397.348426 -163.743314  L 393.79087 -161.085375  L 390.233314 -158.462694  L 386.675758 -155.894545  L 383.118201 -153.392478  L 379.560645 -150.960538  L 376.003089 -148.596784  L 372.445533 -146.295692  L 368.887976 -144.050657  L 365.33042 -141.855798  L 361.772864 -139.706547  L 358.215308 -137.598965  L 354.657752 -135.528229  L 351.100195 -133.487014  L 347.542639 -131.464498  L 343.985083 -129.446416  L 340.427527 -127.416222  L 336.86997 -125.356994  L 333.312414 -123.253545  L 329.754858 -121.094225  L 326.197302 -118.87209  L 322.639746 -116.585414  L 319.082189 -114.237704  L 315.524633 -111.837454  L 311.967077 -109.39781  L 308.409521 -106.936136  L 304.851965 -104.473334  L 301.294408 -102.032741  L 297.736852 -99.63849  L 294.179296 -97.313446  L 290.62174 -95.077035  L 287.064183 -92.943402  L 283.506627 -90.920356  L 279.949071 -89.009353  L 276.391515 -87.20651  L 272.833959 -85.504341  L 269.276402 -83.893705  L 265.718846 -82.3654  L 262.16129 -80.910975  L 258.603734 -79.522578  L 255.046177 -78.191982  L 251.488621 -76.9092  L 247.931065 -75.661269  L 244.373509 -74.431757  L 240.815953 -73.201392  L 237.258396 -71.949893  L 233.70084 -70.658766  L 230.143284 -69.314501  L 226.585728 -67.911491  L 223.028171 -66.453934  L 219.470615 -64.956245  L 215.913059 -63.441751  L 212.355503 -61.939854  L 208.797947 -60.482167  L 205.24039 -59.098347  L 201.682834 -57.812391  L 198.125278 -56.640065  L 194.567722 -55.587875  L 191.010166 -54.653638  L 187.452609 -53.82841  L 183.895053 -53.099236  L 180.337497 -52.452087  L 176.779941 -51.874369  L 173.222384 -51.35654  L 169.664828 -50.892653  L 166.107272 -50.479891  L 162.549716 -50.117402  L 158.99216 -49.804843  L 155.434603 -49.541067  L 151.877047 -49.323243  L 148.319491 -49.146595  L 144.761935 -49.004707  L 141.204378 -48.89026  L 137.646822 -48.795953  L 134.089266 -48.715387  L 130.53171 -48.643717  L 126.974154 -48.577967  L 123.416597 -48.516999  L 119.859041 -48.46118  L 116.301485 -48.411859  L 112.743929 -48.370751  L 109.186373 -48.339362  L 105.628816 -48.318516  L 102.07126 -48.308061  L 98.513704 -48.306773  L 94.956148 -48.31245  L 91.398591 -48.322176  L 87.841035 -48.332708  L 84.283479 -48.340907  L 80.725923 -48.344153  L 77.168367 -48.340675  L 73.61081 -48.329724  L 70.053254 -48.311595  L 66.495698 -48.287476  L 62.938142 -48.259179  L 59.380585 -48.22881  L 55.823029 -48.19844  L 52.265473 -48.169838  L 48.707917 -48.144298  L 45.150361 -48.122579  L 41.592804 -48.104933  L 38.035248 -48.091204  L 34.477692 -48.080959  L 30.920136 -48.073616  L 27.362579 -48.068555  L 23.805023 -48.065198  L 20.247467 -48.063055  z " style="stroke: #a6d854"/>
    </defs>
    <g clip-path="url(#p81ed5f2308)">
     <use xlink:href="#m2d31284c91" x="0" y="432" style="fill: #a6d854; stroke: #a6d854"/>
    </g>
   </g>
   <g id="line2d_5">
    <path d="M 20.247467 383.936945  L 52.265473 383.830162  L 84.283479 383.659093  L 112.743929 383.629249  L 134.089266 383.284613  L 148.319491 382.853405  L 155.434603 382.458933  L 162.549716 381.882598  L 169.664828 381.107347  L 176.779941 380.125631  L 183.895053 378.900764  L 191.010166 377.346362  L 194.567722 376.412125  L 198.125278 375.359935  L 205.24039 372.901653  L 212.355503 370.060146  L 226.585728 364.088509  L 233.70084 361.341234  L 244.373509 357.568243  L 255.046177 353.808018  L 262.16129 351.089025  L 269.276402 348.106295  L 276.391515 344.79349  L 283.506627 341.079644  L 290.62174 336.922965  L 297.736852 332.36151  L 308.409521 325.063864  L 319.082189 317.762296  L 326.197302 313.12791  L 333.312414 308.746455  L 343.985083 302.553584  L 358.215308 294.401035  L 368.887976 287.949343  L 376.003089 283.403216  L 383.118201 278.607522  L 390.233314 273.537306  L 411.578651 257.851997  L 415.136207 255.475903  L 418.693764 253.259089  L 422.25132 251.234811  L 425.808876 249.433845  L 429.366432 247.88248  L 432.923988 246.599954  L 436.481545 245.595895  L 440.039101 244.868522  L 443.596657 244.404265  L 447.154213 244.179185  L 450.711769 244.16212  L 454.269326 244.31908  L 457.826882 244.618148  L 464.941994 245.551665  L 472.057107 246.8923  L 475.614663 247.744784  L 479.172219 248.753641  L 482.729775 249.95149  L 486.287332 251.371431  L 489.844888 253.043365  L 493.402444 254.99097  L 496.96 257.229539  L 500.517557 259.764747  L 504.075113 262.592217  L 507.632669 265.697757  L 511.190225 269.058113  L 514.747781 272.642178  L 521.862894 280.32812  L 532.535563 292.521114  L 543.208231 304.634981  L 550.323344 312.345284  L 557.438456 319.622512  L 564.553568 326.370802  L 571.668681 332.537923  L 578.783793 338.165062  L 585.898906 343.39334  L 596.571574 350.84843  L 607.244243 357.99385  L 614.359356 362.409855  L 617.916912 364.446531  L 621.474468 366.344341  L 625.032024 368.093109  L 628.58958 369.690808  L 632.147137 371.143271  L 639.262249 373.665272  L 646.377362 375.788847  L 653.492474 377.628877  L 660.607586 379.239146  L 667.722699 380.615677  L 674.837811 381.731838  L 681.952924 382.574126  L 689.068036 383.159102  L 696.183149 383.530255  L 706.855817 383.809396  L 724.643598 383.928483  L 728.201155 383.933489  L 728.201155 383.933489  " clip-path="url(#p81ed5f2308)" style="fill: none; stroke: #000000; stroke-width: 1.5; stroke-linecap: round"/>
   </g>
   <g id="patch_11">
    <path d="M 44.28 383.94  L 764.64 383.94  " style="fill: none; stroke: #262626; stroke-width: 2; stroke-linejoin: miter; stroke-linecap: square"/>
   </g>
   <g id="text_20">
    <!-- neural -->
    <g transform="translate(44.28 372.679688)scale(0.13 -0.13)">
     <use xlink:href="#DejaVuSans-6e"/>
     <use xlink:href="#DejaVuSans-65" x="63.378906"/>
     <use xlink:href="#DejaVuSans-75" x="124.902344"/>
     <use xlink:href="#DejaVuSans-72" x="188.28125"/>
     <use xlink:href="#DejaVuSans-61" x="229.394531"/>
     <use xlink:href="#DejaVuSans-6c" x="290.673828"/>
    </g>
   </g>
  </g>
 </g>
 <defs>
  <clipPath id="p4de77c27f2">
   <rect x="44.28" y="27.6" width="720.36" height="296.95"/>
  </clipPath>
  <clipPath id="p4aa6a364df">
   <rect x="44.28" y="42.4475" width="720.36" height="296.95"/>
  </clipPath>
  <clipPath id="pdfc30fb9d1">
   <rect x="44.28" y="57.295" width="720.36" height="296.95"/>
  </clipPath>
  <clipPath id="pcaa527b0cc">
   <rect x="44.28" y="72.1425" width="720.36" height="296.95"/>
  </clipPath>
  <clipPath id="p81ed5f2308">
   <rect x="44.28" y="86.99" width="720.36" height="296.95"/>
  </clipPath>
 </defs>
</svg>