<?xml version="1.0" encoding="UTF-8" standalone="no"?>
<!DOCTYPE svg PUBLIC "-//W3C//DTD SVG 1.1//EN" "http://www.w3.org/Graphics/SVG/1.1/DTD/svg11.dtd">
<svg xmlns:xlink="http://www.w3.org/1999/xlink" width="777.6pt" height="345.6pt" viewBox="0 0 777.6 345.6" xmlns="http://www.w3.org/2000/svg" version="1.1">
 <metadata>
  <rdf:RDF xmlns:dc="http://purl.org/dc/elements/1.1/" xmlns:cc="http://creativecommons.org/ns#" xmlns:rdf="http://www.w3.org/1999/02/22-rdf-syntax-ns#">
   <cc:Work>
    <dc:type rdf:resource="http://purl.org/dc/dcmitype/StillImage"/>
    <dc:date>2024-05-03T22:09:19.161891</dc:date>
    <dc:format>image/svg+xml</dc:format>
    <dc:creator>
     <cc:Agent>
      <dc:title>Matplotlib v3.5.1, https://matplotlib.org/</dc:title>
     </cc:Agent>
    </dc:creator>
   </cc:Work>
  </rdf:RDF>
 </metadata>
 <defs>
  <style type="text/css">*{stroke-linejoin: round; stroke-linecap: butt}</style>
 </defs>
 <g id="figure_1">
  <g id="patch_1">
   <path d="M 0 345.6  L 777.6 345.6  L 777.6 0  L 0 0  z " style="fill: #ffffff"/>
  </g>
  <g id="axes_1">
   <g id="patch_2">
    <path d="M 44.28 262.330435  L 764.64 262.330435  L 764.64 27.6  L 44.28 27.6  L 44.28 262.330435  z " style="fill: none"/>
   </g>
   <g id="matplotlib.axis_1">
    <g id="xtick_1"/>
    <g id="xtick_2"/>
    <g id="xtick_3"/>
    <g id="xtick_4"/>
    <g id="xtick_5"/>
    <g id="xtick_6"/>
    <g id="xtick_7"/>
    <g id="xtick_8"/>
    <g id="xtick_9"/>
   </g>
   <g id="matplotlib.axis_2">
    <g id="text_1">
     <!-- Density -->
     <g style="fill: #262626" transform="translate(37.784375 167.77553)rotate(-90)scale(0.12 -0.12)">
      <defs>
       <path id="DejaVuSans-44" d="M 1259 4147  L 1259 519  L 2022 519  Q 2988 519 3436 956  Q 3884 1394 3884 2338  Q 3884 3275 3436 3711  Q 2988 4147 2022 4147  L 1259 4147  z M 628 4666  L 1925 4666  Q 3281 4666 3915 4102  Q 4550 3538 4550 2338  Q 4550 1131 3912 565  Q 3275 0 1925 0  L 628 0  L 628 4666  z " transform="scale(0.015625)"/>
       <path id="DejaVuSans-65" d="M 3597 1894  L 3597 1613  L 953 1613  Q 991 1019 1311 708  Q 1631 397 2203 397  Q 2534 397 2845 478  Q 3156 559 3463 722  L 3463 178  Q 3153 47 2828 -22  Q 2503 -91 2169 -91  Q 1331 -91 842 396  Q 353 884 353 1716  Q 353 2575 817 3079  Q 1281 3584 2069 3584  Q 2775 3584 3186 3129  Q 3597 2675 3597 1894  z M 3022 2063  Q 3016 2534 2758 2815  Q 2500 3097 2075 3097  Q 1594 3097 1305 2825  Q 1016 2553 972 2059  L 3022 2063  z " transform="scale(0.015625)"/>
       <path id="DejaVuSans-6e" d="M 3513 2113  L 3513 0  L 2938 0  L 2938 2094  Q 2938 2591 2744 2837  Q 2550 3084 2163 3084  Q 1697 3084 1428 2787  Q 1159 2491 1159 1978  L 1159 0  L 581 0  L 581 3500  L 1159 3500  L 1159 2956  Q 1366 3272 1645 3428  Q 1925 3584 2291 3584  Q 2894 3584 3203 3211  Q 3513 2838 3513 2113  z " transform="scale(0.015625)"/>
       <path id="DejaVuSans-73" d="M 2834 3397  L 2834 2853  Q 2591 2978 2328 3040  Q 2066 3103 1784 3103  Q 1356 3103 1142 2972  Q 928 2841 928 2578  Q 928 2378 1081 2264  Q 1234 2150 1697 2047  L 1894 2003  Q 2506 1872 2764 1633  Q 3022 1394 3022 966  Q 3022 478 2636 193  Q 2250 -91 1575 -91  Q 1294 -91 989 -36  Q 684 19 347 128  L 347 722  Q 666 556 975 473  Q 1284 391 1588 391  Q 1994 391 2212 530  Q 2431 669 2431 922  Q 2431 1156 2273 1281  Q 2116 1406 1581 1522  L 1381 1569  Q 847 1681 609 1914  Q 372 2147 372 2553  Q 372 3047 722 3315  Q 1072 3584 1716 3584  Q 2034 3584 2315 3537  Q 2597 3491 2834 3397  z " transform="scale(0.015625)"/>
       <path id="DejaVuSans-69" d="M 603 3500  L 1178 3500  L 1178 0  L 603 0  L 603 3500  z M 603 4863  L 1178 4863  L 1178 4134  L 603 4134  L 603 4863  z " transform="scale(0.015625)"/>
       <path id="DejaVuSans-74" d="M 1172 4494  L 1172 3500  L 2356 3500  L 2356 3053  L 1172 3053  L 1172 1153  Q 1172 725 1289 603  Q 1406 481 1766 481  L 2356 481  L 2356 0  L 1766 0  Q 1100 0 847 248  Q 594 497 594 1153  L 594 3053  L 172 3053  L 172 3500  L 594 3500  L 594 4494  L 1172 4494  z " transform="scale(0.015625)"/>
       <path id="DejaVuSans-79" d="M 2059 -325  Q 1816 -950 1584 -1140  Q 1353 -1331 966 -1331  L 506 -1331  L 506 -850  L 844 -850  Q 1081 -850 1212 -737  Q 1344 -625 1503 -206  L 1606 56  L 191 3500  L 800 3500  L 1894 763  L 2988 3500  L 3597 3500  L 2059 -325  z " transform="scale(0.015625)"/>
      </defs>
      <use xlink:href="#DejaVuSans-44"/>
      <use xlink:href="#DejaVuSans-65" x="77.001953"/>
      <use xlink:href="#DejaVuSans-6e" x="138.525391"/>
      <use xlink:href="#DejaVuSans-73" x="201.904297"/>
      <use xlink:href="#DejaVuSans-69" x="254.003906"/>
      <use xlink:href="#DejaVuSans-74" x="281.787109"/>
      <use xlink:href="#DejaVuSans-79" x="320.996094"/>
     </g>
    </g>
   </g>
   <g id="PolyCollection_1">
    <defs>
     <path id="m88eef9db45" d="M 76.593485 -83.272324  L 76.593485 -83.269565  L 80.069938 -83.269565  L 83.546391 -83.269565  L 87.022843 -83.269565  L 90.499296 -83.269565  L 93.975749 -83.269565  L 97.452202 -83.269565  L 100.928654 -83.269565  L 104.405107 -83.269565  L 107.88156 -83.269565  L 111.358013 -83.269565  L 114.834466 -83.269565  L 118.310918 -83.269565  L 121.787371 -83.269565  L 125.263824 -83.269565  L 128.740277 -83.269565  L 132.21673 -83.269565  L 135.693182 -83.269565  L 139.169635 -83.269565  L 142.646088 -83.269565  L 146.122541 -83.269565  L 149.598994 -83.269565  L 153.075446 -83.269565  L 156.551899 -83.269565  L 160.028352 -83.269565  L 163.504805 -83.269565  L 166.981258 -83.269565  L 170.45771 -83.269565  L 173.934163 -83.269565  L 177.410616 -83.269565  L 180.887069 -83.269565  L 184.363522 -83.269565  L 187.839974 -83.269565  L 191.316427 -83.269565  L 194.79288 -83.269565  L 198.269333 -83.269565  L 201.745786 -83.269565  L 205.222238 -83.269565  L 208.698691 -83.269565  L 212.175144 -83.269565  L 215.651597 -83.269565  L 219.12805 -83.269565  L 222.604502 -83.269565  L 226.080955 -83.269565  L 229.557408 -83.269565  L 233.033861 -83.269565  L 236.510314 -83.269565  L 239.986766 -83.269565  L 243.463219 -83.269565  L 246.939672 -83.269565  L 250.416125 -83.269565  L 253.892578 -83.269565  L 257.36903 -83.269565  L 260.845483 -83.269565  L 264.321936 -83.269565  L 267.798389 -83.269565  L 271.274842 -83.269565  L 274.751294 -83.269565  L 278.227747 -83.269565  L 281.7042 -83.269565  L 285.180653 -83.269565  L 288.657106 -83.269565  L 292.133558 -83.269565  L 295.610011 -83.269565  L 299.086464 -83.269565  L 302.562917 -83.269565  L 306.03937 -83.269565  L 309.515822 -83.269565  L 312.992275 -83.269565  L 316.468728 -83.269565  L 319.945181 -83.269565  L 323.421634 -83.269565  L 326.898086 -83.269565  L 330.374539 -83.269565  L 333.850992 -83.269565  L 337.327445 -83.269565  L 340.803897 -83.269565  L 344.28035 -83.269565  L 347.756803 -83.269565  L 351.233256 -83.269565  L 354.709709 -83.269565  L 358.186161 -83.269565  L 361.662614 -83.269565  L 365.139067 -83.269565  L 368.61552 -83.269565  L 372.091973 -83.269565  L 375.568425 -83.269565  L 379.044878 -83.269565  L 382.521331 -83.269565  L 385.997784 -83.269565  L 389.474237 -83.269565  L 392.950689 -83.269565  L 396.427142 -83.269565  L 399.903595 -83.269565  L 403.380048 -83.269565  L 406.856501 -83.269565  L 410.332953 -83.269565  L 413.809406 -83.269565  L 417.285859 -83.269565  L 420.762312 -83.269565  L 424.238765 -83.269565  L 427.715217 -83.269565  L 431.19167 -83.269565  L 434.668123 -83.269565  L 438.144576 -83.269565  L 441.621029 -83.269565  L 445.097481 -83.269565  L 448.573934 -83.269565  L 452.050387 -83.269565  L 455.52684 -83.269565  L 459.003293 -83.269565  L 462.479745 -83.269565  L 465.956198 -83.269565  L 469.432651 -83.269565  L 472.909104 -83.269565  L 476.385557 -83.269565  L 479.862009 -83.269565  L 483.338462 -83.269565  L 486.814915 -83.269565  L 490.291368 -83.269565  L 493.767821 -83.269565  L 497.244273 -83.269565  L 500.720726 -83.269565  L 504.197179 -83.269565  L 507.673632 -83.269565  L 511.150085 -83.269565  L 514.626537 -83.269565  L 518.10299 -83.269565  L 521.579443 -83.269565  L 525.055896 -83.269565  L 528.532349 -83.269565  L 532.008801 -83.269565  L 535.485254 -83.269565  L 538.961707 -83.269565  L 542.43816 -83.269565  L 545.914613 -83.269565  L 549.391065 -83.269565  L 552.867518 -83.269565  L 556.343971 -83.269565  L 559.820424 -83.269565  L 563.296877 -83.269565  L 566.773329 -83.269565  L 570.249782 -83.269565  L 573.726235 -83.269565  L 577.202688 -83.269565  L 580.67914 -83.269565  L 584.155593 -83.269565  L 587.632046 -83.269565  L 591.108499 -83.269565  L 594.584952 -83.269565  L 598.061404 -83.269565  L 601.537857 -83.269565  L 605.01431 -83.269565  L 608.490763 -83.269565  L 611.967216 -83.269565  L 615.443668 -83.269565  L 618.920121 -83.269565  L 622.396574 -83.269565  L 625.873027 -83.269565  L 629.34948 -83.269565  L 632.825932 -83.269565  L 636.302385 -83.269565  L 639.778838 -83.269565  L 643.255291 -83.269565  L 646.731744 -83.269565  L 650.208196 -83.269565  L 653.684649 -83.269565  L 657.161102 -83.269565  L 660.637555 -83.269565  L 664.114008 -83.269565  L 667.59046 -83.269565  L 671.066913 -83.269565  L 674.543366 -83.269565  L 678.019819 -83.269565  L 681.496272 -83.269565  L 684.972724 -83.269565  L 688.449177 -83.269565  L 691.92563 -83.269565  L 695.402083 -83.269565  L 698.878536 -83.269565  L 702.354988 -83.269565  L 705.831441 -83.269565  L 709.307894 -83.269565  L 712.784347 -83.269565  L 716.2608 -83.269565  L 719.737252 -83.269565  L 723.213705 -83.269565  L 726.690158 -83.269565  L 730.166611 -83.269565  L 733.643064 -83.269565  L 737.119516 -83.269565  L 740.595969 -83.269565  L 744.072422 -83.269565  L 747.548875 -83.269565  L 751.025328 -83.269565  L 754.50178 -83.269565  L 757.978233 -83.269565  L 761.454686 -83.269565  L 764.931139 -83.269565  L 768.407592 -83.269565  L 768.407592 -83.302509  L 768.407592 -83.302509  L 764.931139 -83.328413  L 761.454686 -83.371535  L 757.978233 -83.440994  L 754.50178 -83.549253  L 751.025328 -83.712517  L 747.548875 -83.950756  L 744.072422 -84.287153  L 740.595969 -84.746811  L 737.119516 -85.354675  L 733.643064 -86.132791  L 730.166611 -87.097191  L 726.690158 -88.254923  L 723.213705 -89.601787  L 719.737252 -91.121376  L 716.2608 -92.785765  L 712.784347 -94.557941  L 709.307894 -96.395637  L 705.831441 -98.25592  L 702.354988 -100.099681  L 698.878536 -101.895179  L 695.402083 -103.620043  L 691.92563 -105.261505  L 688.449177 -106.815084  L 684.972724 -108.282291  L 681.496272 -109.668091  L 678.019819 -110.978808  L 674.543366 -112.220953  L 671.066913 -113.401079  L 667.59046 -114.52646  L 664.114008 -115.606168  L 660.637555 -116.652037  L 657.161102 -117.679108  L 653.684649 -118.705323  L 650.208196 -119.750466  L 646.731744 -120.834552  L 643.255291 -121.975941  L 639.778838 -123.189515  L 636.302385 -124.485168  L 632.825932 -125.86685  L 629.34948 -127.332275  L 625.873027 -128.873387  L 622.396574 -130.477548  L 618.920121 -132.129356  L 615.443668 -133.812822  L 611.967216 -135.513546  L 608.490763 -137.220433  L 605.01431 -138.926539  L 601.537857 -140.62877  L 598.061404 -142.326431  L 594.584952 -144.01893  L 591.108499 -145.703168  L 587.632046 -147.371309  L 584.155593 -149.009565  L 580.67914 -150.598435  L 577.202688 -152.114517  L 573.726235 -153.533706  L 570.249782 -154.835277  L 566.773329 -156.006168  L 563.296877 -157.044729  L 559.820424 -157.963207  L 556.343971 -158.788445  L 552.867518 -159.560454  L 549.391065 -160.328902  L 545.914613 -161.14785  L 542.43816 -162.06945  L 538.961707 -163.137533  L 535.485254 -164.382143  L 532.008801 -165.81595  L 528.532349 -167.433197  L 525.055896 -169.21142  L 521.579443 -171.115663  L 518.10299 -173.104481  L 514.626537 -175.136716  L 511.150085 -177.177886  L 507.673632 -179.205126  L 504.197179 -181.209886  L 500.720726 -183.198013  L 497.244273 -185.187321  L 493.767821 -187.203232  L 490.291368 -189.273443  L 486.814915 -191.422715  L 483.338462 -193.668843  L 479.862009 -196.020518  L 476.385557 -198.477313  L 472.909104 -201.031457  L 469.432651 -203.670654  L 465.956198 -206.381004  L 462.479745 -209.149226  L 459.003293 -211.963773  L 455.52684 -214.814916  L 452.050387 -217.69432  L 448.573934 -220.594751  L 445.097481 -223.510436  L 441.621029 -226.438168  L 438.144576 -229.378779  L 434.668123 -232.338274  L 431.19167 -235.327856  L 427.715217 -238.362401  L 424.238765 -241.457435  L 420.762312 -244.625284  L 417.285859 -247.871481  L 413.809406 -251.19255  L 410.332953 -254.576051  L 406.856501 -258.003072  L 403.380048 -261.452691  L 399.903595 -264.90722  L 396.427142 -268.356721  L 392.950689 -271.801307  L 389.474237 -275.250205  L 385.997784 -278.717268  L 382.521331 -282.213501  L 379.044878 -285.73793  L 375.568425 -289.26865  L 372.091973 -292.756043  L 368.61552 -296.119872  L 365.139067 -299.251351  L 361.662614 -302.020361  L 358.186161 -304.286998  L 354.709709 -305.915707  L 351.233256 -306.789593  L 347.756803 -306.82236  L 344.28035 -305.965638  L 340.803897 -304.210395  L 337.327445 -301.582362  L 333.850992 -298.132724  L 330.374539 -293.926371  L 326.898086 -289.030485  L 323.421634 -283.505997  L 319.945181 -277.403566  L 316.468728 -270.764473  L 312.992275 -263.625523  L 309.515822 -256.02611  L 306.03937 -248.015264  L 302.562917 -239.656714  L 299.086464 -231.030762  L 295.610011 -222.232647  L 292.133558 -213.367946  L 288.657106 -204.546043  L 285.180653 -195.872966  L 281.7042 -187.444687  L 278.227747 -179.341762  L 274.751294 -171.625789  L 271.274842 -164.337871  L 267.798389 -157.499041  L 264.321936 -151.112401  L 260.845483 -145.166604  L 257.36903 -139.640158  L 253.892578 -134.50598  L 250.416125 -129.735575  L 246.939672 -125.302358  L 243.463219 -121.183759  L 239.986766 -117.36205  L 236.510314 -113.824039  L 233.033861 -110.559972  L 229.557408 -107.562075  L 226.080955 -104.823101  L 222.604502 -102.335184  L 219.12805 -100.089101  L 215.651597 -98.073948  L 212.175144 -96.27714  L 208.698691 -94.684594  L 205.222238 -93.281029  L 201.745786 -92.050287  L 198.269333 -90.975691  L 194.79288 -90.04042  L 191.316427 -89.227934  L 187.839974 -88.522401  L 184.363522 -87.909127  L 180.887069 -87.374894  L 177.410616 -86.908178  L 173.934163 -86.499189  L 170.45771 -86.139741  L 166.981258 -85.822985  L 163.504805 -85.543079  L 160.028352 -85.294872  L 156.551899 -85.073671  L 153.075446 -84.875138  L 149.598994 -84.695324  L 146.122541 -84.530779  L 142.646088 -84.378719  L 139.169635 -84.237149  L 135.693182 -84.104908  L 132.21673 -83.981617  L 128.740277 -83.867518  L 125.263824 -83.763241  L 121.787371 -83.669541  L 118.310918 -83.587057  L 114.834466 -83.516122  L 111.358013 -83.456651  L 107.88156 -83.408125  L 104.405107 -83.369632  L 100.928654 -83.339978  L 97.452202 -83.317804  L 93.975749 -83.301721  L 90.499296 -83.29041  L 87.022843 -83.282699  L 83.546391 -83.277606  L 80.069938 -83.274345  L 76.593485 -83.272324  z " style="stroke: #66c2a5"/>
    </defs>
    <g clip-path="url(#pce0c8f9183)">
     <use xlink:href="#m88eef9db45" x="0" y="345.6" style="fill: #66c2a5; stroke: #66c2a5"/>
    </g>
   </g>
   <g id="line2d_1">
    <path d="M 76.593485 262.327676  L 104.405107 262.230368  L 121.787371 261.930459  L 139.169635 261.362851  L 153.075446 260.724862  L 163.504805 260.056921  L 170.45771 259.460259  L 177.410616 258.691822  L 184.363522 257.690873  L 191.316427 256.372066  L 194.79288 255.55958  L 198.269333 254.624309  L 201.745786 253.549713  L 205.222238 252.318971  L 208.698691 250.915406  L 212.175144 249.32286  L 215.651597 247.526052  L 219.12805 245.510899  L 222.604502 243.264816  L 226.080955 240.776899  L 229.557408 238.037925  L 233.033861 235.040028  L 236.510314 231.775961  L 239.986766 228.23795  L 243.463219 224.416241  L 246.939672 220.297642  L 250.416125 215.864425  L 253.892578 211.09402  L 257.36903 205.959842  L 260.845483 200.433396  L 264.321936 194.487599  L 267.798389 188.100959  L 271.274842 181.262129  L 274.751294 173.974211  L 278.227747 166.258238  L 281.7042 158.155313  L 288.657106 141.053957  L 302.562917 105.943286  L 306.03937 97.584736  L 309.515822 89.57389  L 312.992275 81.974477  L 316.468728 74.835527  L 319.945181 68.196434  L 323.421634 62.094003  L 326.898086 56.569515  L 330.374539 51.673629  L 333.850992 47.467276  L 337.327445 44.017638  L 340.803897 41.389605  L 344.28035 39.634362  L 347.756803 38.77764  L 351.233256 38.810407  L 354.709709 39.684293  L 358.186161 41.313002  L 361.662614 43.579639  L 365.139067 46.348649  L 368.61552 49.480128  L 375.568425 56.33135  L 389.474237 70.349795  L 413.809406 94.40745  L 420.762312 100.974716  L 427.715217 107.237599  L 438.144576 116.221221  L 455.52684 130.785084  L 465.956198 139.218996  L 472.909104 144.568543  L 479.862009 149.579482  L 486.814915 154.177285  L 493.767821 158.396768  L 521.579443 174.484337  L 528.532349 178.166803  L 532.008801 179.78405  L 535.485254 181.217857  L 538.961707 182.462467  L 542.43816 183.53055  L 549.391065 185.271098  L 559.820424 187.636793  L 563.296877 188.555271  L 566.773329 189.593832  L 570.249782 190.764723  L 577.202688 193.485483  L 584.155593 196.590435  L 594.584952 201.58107  L 625.873027 216.726613  L 632.825932 219.73315  L 639.778838 222.410485  L 646.731744 224.765448  L 657.161102 227.920892  L 667.59046 231.07354  L 674.543366 233.379047  L 681.496272 235.931909  L 688.449177 238.784916  L 695.402083 241.979957  L 702.354988 245.500319  L 716.2608 252.814235  L 719.737252 254.478624  L 723.213705 255.998213  L 726.690158 257.345077  L 730.166611 258.502809  L 733.643064 259.467209  L 737.119516 260.245325  L 740.595969 260.853189  L 744.072422 261.312847  L 751.025328 261.887483  L 757.978233 262.159006  L 768.407592 262.297491  L 768.407592 262.297491  " clip-path="url(#pce0c8f9183)" style="fill: none; stroke: #000000; stroke-width: 1.5; stroke-linecap: round"/>
   </g>
   <g id="patch_3">
    <path d="M 44.28 262.330435  L 764.64 262.330435  " style="fill: none; stroke: #262626; stroke-width: 2; stroke-linejoin: miter; stroke-linecap: square"/>
   </g>
   <g id="text_2">
    <!-- intestine -->
    <g transform="translate(44.28 254.181101)scale(0.13 -0.13)">
     <use xlink:href="#DejaVuSans-69"/>
     <use xlink:href="#DejaVuSans-6e" x="27.783203"/>
     <use xlink:href="#DejaVuSans-74" x="91.162109"/>
     <use xlink:href="#DejaVuSans-65" x="130.371094"/>
     <use xlink:href="#DejaVuSans-73" x="191.894531"/>
     <use xlink:href="#DejaVuSans-74" x="243.994141"/>
     <use xlink:href="#DejaVuSans-69" x="283.203125"/>
     <use xlink:href="#DejaVuSans-6e" x="310.986328"/>
     <use xlink:href="#DejaVuSans-65" x="374.365234"/>
    </g>
   </g>
  </g>
  <g id="axes_2">
   <g id="patch_4">
    <path d="M 44.28 274.066957  L 764.64 274.066957  L 764.64 39.336522  L 44.28 39.336522  L 44.28 274.066957  z " style="fill: none"/>
   </g>
   <g id="matplotlib.axis_3">
    <g id="xtick_10"/>
    <g id="xtick_11"/>
    <g id="xtick_12"/>
    <g id="xtick_13"/>
    <g id="xtick_14"/>
    <g id="xtick_15"/>
    <g id="xtick_16"/>
    <g id="xtick_17"/>
    <g id="xtick_18"/>
   </g>
   <g id="matplotlib.axis_4">
    <g id="text_3">
     <!-- Density -->
     <g style="fill: #262626" transform="translate(37.784375 179.512052)rotate(-90)scale(0.12 -0.12)">
      <use xlink:href="#DejaVuSans-44"/>
      <use xlink:href="#DejaVuSans-65" x="77.001953"/>
      <use xlink:href="#DejaVuSans-6e" x="138.525391"/>
      <use xlink:href="#DejaVuSans-73" x="201.904297"/>
      <use xlink:href="#DejaVuSans-69" x="254.003906"/>
      <use xlink:href="#DejaVuSans-74" x="281.787109"/>
      <use xlink:href="#DejaVuSans-79" x="320.996094"/>
     </g>
    </g>
   </g>
   <g id="PolyCollection_2">
    <defs>
     <path id="mceb9e7b91a" d="M 99.050327 -71.535803  L 99.050327 -71.533043  L 102.399332 -71.533043  L 105.748337 -71.533043  L 109.097342 -71.533043  L 112.446347 -71.533043  L 115.795353 -71.533043  L 119.144358 -71.533043  L 122.493363 -71.533043  L 125.842368 -71.533043  L 129.191373 -71.533043  L 132.540378 -71.533043  L 135.889383 -71.533043  L 139.238389 -71.533043  L 142.587394 -71.533043  L 145.936399 -71.533043  L 149.285404 -71.533043  L 152.634409 -71.533043  L 155.983414 -71.533043  L 159.33242 -71.533043  L 162.681425 -71.533043  L 166.03043 -71.533043  L 169.379435 -71.533043  L 172.72844 -71.533043  L 176.077445 -71.533043  L 179.42645 -71.533043  L 182.775456 -71.533043  L 186.124461 -71.533043  L 189.473466 -71.533043  L 192.822471 -71.533043  L 196.171476 -71.533043  L 199.520481 -71.533043  L 202.869486 -71.533043  L 206.218492 -71.533043  L 209.567497 -71.533043  L 212.916502 -71.533043  L 216.265507 -71.533043  L 219.614512 -71.533043  L 222.963517 -71.533043  L 226.312523 -71.533043  L 229.661528 -71.533043  L 233.010533 -71.533043  L 236.359538 -71.533043  L 239.708543 -71.533043  L 243.057548 -71.533043  L 246.406553 -71.533043  L 249.755559 -71.533043  L 253.104564 -71.533043  L 256.453569 -71.533043  L 259.802574 -71.533043  L 263.151579 -71.533043  L 266.500584 -71.533043  L 269.84959 -71.533043  L 273.198595 -71.533043  L 276.5476 -71.533043  L 279.896605 -71.533043  L 283.24561 -71.533043  L 286.594615 -71.533043  L 289.94362 -71.533043  L 293.292626 -71.533043  L 296.641631 -71.533043  L 299.990636 -71.533043  L 303.339641 -71.533043  L 306.688646 -71.533043  L 310.037651 -71.533043  L 313.386656 -71.533043  L 316.735662 -71.533043  L 320.084667 -71.533043  L 323.433672 -71.533043  L 326.782677 -71.533043  L 330.131682 -71.533043  L 333.480687 -71.533043  L 336.829693 -71.533043  L 340.178698 -71.533043  L 343.527703 -71.533043  L 346.876708 -71.533043  L 350.225713 -71.533043  L 353.574718 -71.533043  L 356.923723 -71.533043  L 360.272729 -71.533043  L 363.621734 -71.533043  L 366.970739 -71.533043  L 370.319744 -71.533043  L 373.668749 -71.533043  L 377.017754 -71.533043  L 380.36676 -71.533043  L 383.715765 -71.533043  L 387.06477 -71.533043  L 390.413775 -71.533043  L 393.76278 -71.533043  L 397.111785 -71.533043  L 400.46079 -71.533043  L 403.809796 -71.533043  L 407.158801 -71.533043  L 410.507806 -71.533043  L 413.856811 -71.533043  L 417.205816 -71.533043  L 420.554821 -71.533043  L 423.903826 -71.533043  L 427.252832 -71.533043  L 430.601837 -71.533043  L 433.950842 -71.533043  L 437.299847 -71.533043  L 440.648852 -71.533043  L 443.997857 -71.533043  L 447.346863 -71.533043  L 450.695868 -71.533043  L 454.044873 -71.533043  L 457.393878 -71.533043  L 460.742883 -71.533043  L 464.091888 -71.533043  L 467.440893 -71.533043  L 470.789899 -71.533043  L 474.138904 -71.533043  L 477.487909 -71.533043  L 480.836914 -71.533043  L 484.185919 -71.533043  L 487.534924 -71.533043  L 490.88393 -71.533043  L 494.232935 -71.533043  L 497.58194 -71.533043  L 500.930945 -71.533043  L 504.27995 -71.533043  L 507.628955 -71.533043  L 510.97796 -71.533043  L 514.326966 -71.533043  L 517.675971 -71.533043  L 521.024976 -71.533043  L 524.373981 -71.533043  L 527.722986 -71.533043  L 531.071991 -71.533043  L 534.420996 -71.533043  L 537.770002 -71.533043  L 541.119007 -71.533043  L 544.468012 -71.533043  L 547.817017 -71.533043  L 551.166022 -71.533043  L 554.515027 -71.533043  L 557.864033 -71.533043  L 561.213038 -71.533043  L 564.562043 -71.533043  L 567.911048 -71.533043  L 571.260053 -71.533043  L 574.609058 -71.533043  L 577.958063 -71.533043  L 581.307069 -71.533043  L 584.656074 -71.533043  L 588.005079 -71.533043  L 591.354084 -71.533043  L 594.703089 -71.533043  L 598.052094 -71.533043  L 601.4011 -71.533043  L 604.750105 -71.533043  L 608.09911 -71.533043  L 611.448115 -71.533043  L 614.79712 -71.533043  L 618.146125 -71.533043  L 621.49513 -71.533043  L 624.844136 -71.533043  L 628.193141 -71.533043  L 631.542146 -71.533043  L 634.891151 -71.533043  L 638.240156 -71.533043  L 641.589161 -71.533043  L 644.938167 -71.533043  L 648.287172 -71.533043  L 651.636177 -71.533043  L 654.985182 -71.533043  L 658.334187 -71.533043  L 661.683192 -71.533043  L 665.032197 -71.533043  L 668.381203 -71.533043  L 671.730208 -71.533043  L 675.079213 -71.533043  L 678.428218 -71.533043  L 681.777223 -71.533043  L 685.126228 -71.533043  L 688.475233 -71.533043  L 691.824239 -71.533043  L 695.173244 -71.533043  L 698.522249 -71.533043  L 701.871254 -71.533043  L 705.220259 -71.533043  L 708.569264 -71.533043  L 711.91827 -71.533043  L 715.267275 -71.533043  L 718.61628 -71.533043  L 721.965285 -71.533043  L 725.31429 -71.533043  L 728.663295 -71.533043  L 732.0123 -71.533043  L 735.361306 -71.533043  L 738.710311 -71.533043  L 742.059316 -71.533043  L 745.408321 -71.533043  L 748.757326 -71.533043  L 752.106331 -71.533043  L 755.455337 -71.533043  L 758.804342 -71.533043  L 762.153347 -71.533043  L 765.502352 -71.533043  L 765.502352 -71.566084  L 765.502352 -71.566084  L 762.153347 -71.592688  L 758.804342 -71.637361  L 755.455337 -71.709851  L 752.106331 -71.823499  L 748.757326 -71.995625  L 745.408321 -72.247431  L 742.059316 -72.603174  L 738.710311 -73.088426  L 735.361306 -73.727347  L 732.0123 -74.539156  L 728.663295 -75.534209  L 725.31429 -76.710378  L 721.965285 -78.050546  L 718.61628 -79.522015  L 715.267275 -81.078332  L 711.91827 -82.663617  L 708.569264 -84.218869  L 705.220259 -85.689236  L 701.871254 -87.030912  L 698.522249 -88.216301  L 695.173244 -89.236503  L 691.824239 -90.100715  L 688.475233 -90.832907  L 685.126228 -91.466695  L 681.777223 -92.039658  L 678.428218 -92.588326  L 675.079213 -93.144673  L 671.730208 -93.734462  L 668.381203 -94.37718  L 665.032197 -95.086938  L 661.683192 -95.873577  L 658.334187 -96.743303  L 654.985182 -97.698549  L 651.636177 -98.737108  L 648.287172 -99.850965  L 644.938167 -101.025412  L 641.589161 -102.23901  L 638.240156 -103.464768  L 634.891151 -104.67256  L 631.542146 -105.832463  L 628.193141 -106.918439  L 624.844136 -107.911646  L 621.49513 -108.802781  L 618.146125 -109.593036  L 614.79712 -110.293593  L 611.448115 -110.92391  L 608.09911 -111.509268  L 604.750105 -112.07818  L 601.4011 -112.660172  L 598.052094 -113.28429  L 594.703089 -113.978375  L 591.354084 -114.768889  L 588.005079 -115.680896  L 584.656074 -116.737733  L 581.307069 -117.960059  L 577.958063 -119.364219  L 574.609058 -120.960219  L 571.260053 -122.749844  L 567.911048 -124.725606  L 564.562043 -126.871083  L 561.213038 -129.16289  L 557.864033 -131.574038  L 554.515027 -134.078007  L 551.166022 -136.652518  L 547.817017 -139.282041  L 544.468012 -141.958345  L 541.119007 -144.679019  L 537.770002 -147.444508  L 534.420996 -150.254709  L 531.071991 -153.106376  L 527.722986 -155.992313  L 524.373981 -158.902769  L 521.024976 -161.828687  L 517.675971 -164.765772  L 514.326966 -167.717981  L 510.97796 -170.699084  L 507.628955 -173.731468  L 504.27995 -176.842139  L 500.930945 -180.056749  L 497.58194 -183.393123  L 494.232935 -186.856037  L 490.88393 -190.434731  L 487.534924 -194.104002  L 484.185919 -197.828737  L 480.836914 -201.570814  L 477.487909 -205.296635  L 474.138904 -208.983362  L 470.789899 -212.622281  L 467.440893 -216.218551  L 464.091888 -219.787567  L 460.742883 -223.349077  L 457.393878 -226.920684  L 454.044873 -230.512334  L 450.695868 -234.12294  L 447.346863 -237.739546  L 443.997857 -241.338751  L 440.648852 -244.889639  L 437.299847 -248.357385  L 433.950842 -251.706832  L 430.601837 -254.905672  L 427.252832 -257.92708  L 423.903826 -260.751761  L 420.554821 -263.369352  L 417.205816 -265.779006  L 413.856811 -267.988994  L 410.507806 -270.015231  L 407.158801 -271.878837  L 403.809796 -273.60299  L 400.46079 -275.209499  L 397.111785 -276.715445  L 393.76278 -278.13017  L 390.413775 -279.452776  L 387.06477 -280.670279  L 383.715765 -281.756647  L 380.36676 -282.673122  L 377.017754 -283.370272  L 373.668749 -283.792116  L 370.319744 -283.882276  L 366.970739 -283.591528  L 363.621734 -282.885526  L 360.272729 -281.751095  L 356.923723 -280.199481  L 353.574718 -278.265469  L 350.225713 -276.002132  L 346.876708 -273.472035  L 343.527703 -270.736588  L 340.178698 -267.84572  L 336.829693 -264.829926  L 333.480687 -261.69615  L 330.131682 -258.427994  L 326.782677 -254.989765  L 323.433672 -251.333142  L 320.084667 -247.404894  L 316.735662 -243.154219  L 313.386656 -238.538718  L 310.037651 -233.528586  L 306.688646 -228.109158  L 303.339641 -222.282209  L 299.990636 -216.066474  L 296.641631 -209.497653  L 293.292626 -202.627882  L 289.94362 -195.524433  L 286.594615 -188.267293  L 283.24561 -180.94542  L 279.896605 -173.651721  L 276.5476 -166.477182  L 273.198595 -159.504829  L 269.84959 -152.804387  L 266.500584 -146.42839  L 263.151579 -140.410272  L 259.802574 -134.764597  L 256.453569 -129.489234  L 253.104564 -124.569  L 249.755559 -119.980132  L 246.406553 -115.69494  L 243.057548 -111.686058  L 239.708543 -107.929812  L 236.359538 -104.408414  L 233.010533 -101.110816  L 229.661528 -98.032258  L 226.312523 -95.172697  L 222.963517 -92.534488  L 219.614512 -90.119772  L 216.265507 -87.928098  L 212.916502 -85.954727  L 209.567497 -84.189909  L 206.218492 -82.619216  L 202.869486 -81.224783  L 199.520481 -79.987112  L 196.171476 -78.887011  L 192.822471 -77.907239  L 189.473466 -77.033551  L 186.124461 -76.255012  L 182.775456 -75.563614  L 179.42645 -74.953425  L 176.077445 -74.419526  L 172.72844 -73.957042  L 169.379435 -73.560481  L 166.03043 -73.223468  L 162.681425 -72.938882  L 159.33242 -72.699268  L 155.983414 -72.49738  L 152.634409 -72.326677  L 149.285404 -72.181678  L 145.936399 -72.058091  L 142.587394 -71.952752  L 139.238389 -71.863398  L 135.889383 -71.788377  L 132.540378 -71.726358  L 129.191373 -71.676108  L 125.842368 -71.636351  L 122.493363 -71.605725  L 119.144358 -71.582802  L 115.795353 -71.566158  L 112.446347 -71.554449  L 109.097342 -71.546474  L 105.748337 -71.541219  L 102.399332 -71.537868  L 99.050327 -71.535803  z " style="stroke: #fc8d62"/>
    </defs>
    <g clip-path="url(#p9ae286a67c)">
     <use xlink:href="#mceb9e7b91a" x="0" y="345.6" style="fill: #fc8d62; stroke: #fc8d62"/>
    </g>
   </g>
   <g id="line2d_2">
    <path d="M 99.050327 274.064197  L 125.842368 273.963649  L 139.238389 273.736602  L 152.634409 273.273323  L 162.681425 272.661118  L 169.379435 272.039519  L 176.077445 271.180474  L 182.775456 270.036386  L 189.473466 268.566449  L 196.171476 266.712989  L 199.520481 265.612888  L 202.869486 264.375217  L 206.218492 262.980784  L 209.567497 261.410091  L 212.916502 259.645273  L 216.265507 257.671902  L 219.614512 255.480228  L 222.963517 253.065512  L 226.312523 250.427303  L 229.661528 247.567742  L 233.010533 244.489184  L 236.359538 241.191586  L 239.708543 237.670188  L 243.057548 233.913942  L 246.406553 229.90506  L 249.755559 225.619868  L 253.104564 221.031  L 256.453569 216.110766  L 259.802574 210.835403  L 263.151579 205.189728  L 266.500584 199.17161  L 269.84959 192.795613  L 273.198595 186.095171  L 279.896605 171.948279  L 293.292626 142.972118  L 296.641631 136.102347  L 299.990636 129.533526  L 303.339641 123.317791  L 306.688646 117.490842  L 310.037651 112.071414  L 313.386656 107.061282  L 316.735662 102.445781  L 320.084667 98.195106  L 323.433672 94.266858  L 326.782677 90.610235  L 330.131682 87.172006  L 336.829693 80.770074  L 343.527703 74.863412  L 346.876708 72.127965  L 350.225713 69.597868  L 353.574718 67.334531  L 356.923723 65.400519  L 360.272729 63.848905  L 363.621734 62.714474  L 366.970739 62.008472  L 370.319744 61.717724  L 373.668749 61.807884  L 377.017754 62.229728  L 380.36676 62.926878  L 383.715765 63.843353  L 387.06477 64.929721  L 393.76278 67.46983  L 400.46079 70.390501  L 407.158801 73.721163  L 410.507806 75.584769  L 413.856811 77.611006  L 417.205816 79.820994  L 420.554821 82.230648  L 423.903826 84.848239  L 427.252832 87.67292  L 430.601837 90.694328  L 437.299847 97.242615  L 443.997857 104.261249  L 477.487909 140.303365  L 490.88393 155.165269  L 497.58194 162.206877  L 504.27995 168.757861  L 510.97796 174.900916  L 524.373981 186.697231  L 534.420996 195.345291  L 544.468012 203.641655  L 551.166022 208.947482  L 557.864033 214.025962  L 564.562043 218.728917  L 567.911048 220.874394  L 571.260053 222.850156  L 574.609058 224.639781  L 577.958063 226.235781  L 581.307069 227.639941  L 584.656074 228.862267  L 588.005079 229.919104  L 591.354084 230.831111  L 598.052094 232.31571  L 608.09911 234.090732  L 614.79712 235.306407  L 621.49513 236.797219  L 628.193141 238.681561  L 634.891151 240.92744  L 651.636177 246.862892  L 658.334187 248.856697  L 665.032197 250.513062  L 671.730208 251.865538  L 691.824239 255.499285  L 695.173244 256.363497  L 698.522249 257.383699  L 701.871254 258.569088  L 705.220259 259.910764  L 711.91827 262.936383  L 718.61628 266.077985  L 721.965285 267.549454  L 725.31429 268.889622  L 728.663295 270.065791  L 732.0123 271.060844  L 735.361306 271.872653  L 738.710311 272.511574  L 742.059316 272.996826  L 748.757326 273.604375  L 755.455337 273.890149  L 765.502352 274.033916  L 765.502352 274.033916  " clip-path="url(#p9ae286a67c)" style="fill: none; stroke: #000000; stroke-width: 1.5; stroke-linecap: round"/>
   </g>
   <g id="patch_5">
    <path d="M 44.28 274.066957  L 764.64 274.066957  " style="fill: none; stroke: #262626; stroke-width: 2; stroke-linejoin: miter; stroke-linecap: square"/>
   </g>
   <g id="text_4">
    <!-- cathepsin -->
    <g transform="translate(44.28 265.917622)scale(0.13 -0.13)">
     <defs>
      <path id="DejaVuSans-63" d="M 3122 3366  L 3122 2828  Q 2878 2963 2633 3030  Q 2388 3097 2138 3097  Q 1578 3097 1268 2742  Q 959 2388 959 1747  Q 959 1106 1268 751  Q 1578 397 2138 397  Q 2388 397 2633 464  Q 2878 531 3122 666  L 3122 134  Q 2881 22 2623 -34  Q 2366 -91 2075 -91  Q 1284 -91 818 406  Q 353 903 353 1747  Q 353 2603 823 3093  Q 1294 3584 2113 3584  Q 2378 3584 2631 3529  Q 2884 3475 3122 3366  z " transform="scale(0.015625)"/>
      <path id="DejaVuSans-61" d="M 2194 1759  Q 1497 1759 1228 1600  Q 959 1441 959 1056  Q 959 750 1161 570  Q 1363 391 1709 391  Q 2188 391 2477 730  Q 2766 1069 2766 1631  L 2766 1759  L 2194 1759  z M 3341 1997  L 3341 0  L 2766 0  L 2766 531  Q 2569 213 2275 61  Q 1981 -91 1556 -91  Q 1019 -91 701 211  Q 384 513 384 1019  Q 384 1609 779 1909  Q 1175 2209 1959 2209  L 2766 2209  L 2766 2266  Q 2766 2663 2505 2880  Q 2244 3097 1772 3097  Q 1472 3097 1187 3025  Q 903 2953 641 2809  L 641 3341  Q 956 3463 1253 3523  Q 1550 3584 1831 3584  Q 2591 3584 2966 3190  Q 3341 2797 3341 1997  z " transform="scale(0.015625)"/>
      <path id="DejaVuSans-68" d="M 3513 2113  L 3513 0  L 2938 0  L 2938 2094  Q 2938 2591 2744 2837  Q 2550 3084 2163 3084  Q 1697 3084 1428 2787  Q 1159 2491 1159 1978  L 1159 0  L 581 0  L 581 4863  L 1159 4863  L 1159 2956  Q 1366 3272 1645 3428  Q 1925 3584 2291 3584  Q 2894 3584 3203 3211  Q 3513 2838 3513 2113  z " transform="scale(0.015625)"/>
      <path id="DejaVuSans-70" d="M 1159 525  L 1159 -1331  L 581 -1331  L 581 3500  L 1159 3500  L 1159 2969  Q 1341 3281 1617 3432  Q 1894 3584 2278 3584  Q 2916 3584 3314 3078  Q 3713 2572 3713 1747  Q 3713 922 3314 415  Q 2916 -91 2278 -91  Q 1894 -91 1617 61  Q 1341 213 1159 525  z M 3116 1747  Q 3116 2381 2855 2742  Q 2594 3103 2138 3103  Q 1681 3103 1420 2742  Q 1159 2381 1159 1747  Q 1159 1113 1420 752  Q 1681 391 2138 391  Q 2594 391 2855 752  Q 3116 1113 3116 1747  z " transform="scale(0.015625)"/>
     </defs>
     <use xlink:href="#DejaVuSans-63"/>
     <use xlink:href="#DejaVuSans-61" x="54.980469"/>
     <use xlink:href="#DejaVuSans-74" x="116.259766"/>
     <use xlink:href="#DejaVuSans-68" x="155.46875"/>
     <use xlink:href="#DejaVuSans-65" x="218.847656"/>
     <use xlink:href="#DejaVuSans-70" x="280.371094"/>
     <use xlink:href="#DejaVuSans-73" x="343.847656"/>
     <use xlink:href="#DejaVuSans-69" x="395.947266"/>
     <use xlink:href="#DejaVuSans-6e" x="423.730469"/>
    </g>
   </g>
  </g>
  <g id="axes_3">
   <g id="patch_6">
    <path d="M 44.28 285.803478  L 764.64 285.803478  L 764.64 51.073043  L 44.28 51.073043  L 44.28 285.803478  z " style="fill: none"/>
   </g>
   <g id="matplotlib.axis_5">
    <g id="xtick_19"/>
    <g id="xtick_20"/>
    <g id="xtick_21"/>
    <g id="xtick_22"/>
    <g id="xtick_23"/>
    <g id="xtick_24"/>
    <g id="xtick_25"/>
    <g id="xtick_26"/>
    <g id="xtick_27"/>
   </g>
   <g id="matplotlib.axis_6">
    <g id="text_5">
     <!-- Density -->
     <g style="fill: #262626" transform="translate(37.784375 191.248573)rotate(-90)scale(0.12 -0.12)">
      <use xlink:href="#DejaVuSans-44"/>
      <use xlink:href="#DejaVuSans-65" x="77.001953"/>
      <use xlink:href="#DejaVuSans-6e" x="138.525391"/>
      <use xlink:href="#DejaVuSans-73" x="201.904297"/>
      <use xlink:href="#DejaVuSans-69" x="254.003906"/>
      <use xlink:href="#DejaVuSans-74" x="281.787109"/>
      <use xlink:href="#DejaVuSans-79" x="320.996094"/>
     </g>
    </g>
   </g>
   <g id="PolyCollection_3">
    <defs>
     <path id="m4d81a9121f" d="M 92.977868 -59.801331  L 92.977868 -59.796522  L 96.371319 -59.796522  L 99.76477 -59.796522  L 103.158221 -59.796522  L 106.551673 -59.796522  L 109.945124 -59.796522  L 113.338575 -59.796522  L 116.732027 -59.796522  L 120.125478 -59.796522  L 123.518929 -59.796522  L 126.912381 -59.796522  L 130.305832 -59.796522  L 133.699283 -59.796522  L 137.092735 -59.796522  L 140.486186 -59.796522  L 143.879637 -59.796522  L 147.273089 -59.796522  L 150.66654 -59.796522  L 154.059991 -59.796522  L 157.453443 -59.796522  L 160.846894 -59.796522  L 164.240345 -59.796522  L 167.633796 -59.796522  L 171.027248 -59.796522  L 174.420699 -59.796522  L 177.81415 -59.796522  L 181.207602 -59.796522  L 184.601053 -59.796522  L 187.994504 -59.796522  L 191.387956 -59.796522  L 194.781407 -59.796522  L 198.174858 -59.796522  L 201.56831 -59.796522  L 204.961761 -59.796522  L 208.355212 -59.796522  L 211.748664 -59.796522  L 215.142115 -59.796522  L 218.535566 -59.796522  L 221.929018 -59.796522  L 225.322469 -59.796522  L 228.71592 -59.796522  L 232.109372 -59.796522  L 235.502823 -59.796522  L 238.896274 -59.796522  L 242.289725 -59.796522  L 245.683177 -59.796522  L 249.076628 -59.796522  L 252.470079 -59.796522  L 255.863531 -59.796522  L 259.256982 -59.796522  L 262.650433 -59.796522  L 266.043885 -59.796522  L 269.437336 -59.796522  L 272.830787 -59.796522  L 276.224239 -59.796522  L 279.61769 -59.796522  L 283.011141 -59.796522  L 286.404593 -59.796522  L 289.798044 -59.796522  L 293.191495 -59.796522  L 296.584947 -59.796522  L 299.978398 -59.796522  L 303.371849 -59.796522  L 306.765301 -59.796522  L 310.158752 -59.796522  L 313.552203 -59.796522  L 316.945654 -59.796522  L 320.339106 -59.796522  L 323.732557 -59.796522  L 327.126008 -59.796522  L 330.51946 -59.796522  L 333.912911 -59.796522  L 337.306362 -59.796522  L 340.699814 -59.796522  L 344.093265 -59.796522  L 347.486716 -59.796522  L 350.880168 -59.796522  L 354.273619 -59.796522  L 357.66707 -59.796522  L 361.060522 -59.796522  L 364.453973 -59.796522  L 367.847424 -59.796522  L 371.240876 -59.796522  L 374.634327 -59.796522  L 378.027778 -59.796522  L 381.42123 -59.796522  L 384.814681 -59.796522  L 388.208132 -59.796522  L 391.601583 -59.796522  L 394.995035 -59.796522  L 398.388486 -59.796522  L 401.781937 -59.796522  L 405.175389 -59.796522  L 408.56884 -59.796522  L 411.962291 -59.796522  L 415.355743 -59.796522  L 418.749194 -59.796522  L 422.142645 -59.796522  L 425.536097 -59.796522  L 428.929548 -59.796522  L 432.322999 -59.796522  L 435.716451 -59.796522  L 439.109902 -59.796522  L 442.503353 -59.796522  L 445.896805 -59.796522  L 449.290256 -59.796522  L 452.683707 -59.796522  L 456.077159 -59.796522  L 459.47061 -59.796522  L 462.864061 -59.796522  L 466.257512 -59.796522  L 469.650964 -59.796522  L 473.044415 -59.796522  L 476.437866 -59.796522  L 479.831318 -59.796522  L 483.224769 -59.796522  L 486.61822 -59.796522  L 490.011672 -59.796522  L 493.405123 -59.796522  L 496.798574 -59.796522  L 500.192026 -59.796522  L 503.585477 -59.796522  L 506.978928 -59.796522  L 510.37238 -59.796522  L 513.765831 -59.796522  L 517.159282 -59.796522  L 520.552734 -59.796522  L 523.946185 -59.796522  L 527.339636 -59.796522  L 530.733088 -59.796522  L 534.126539 -59.796522  L 537.51999 -59.796522  L 540.913441 -59.796522  L 544.306893 -59.796522  L 547.700344 -59.796522  L 551.093795 -59.796522  L 554.487247 -59.796522  L 557.880698 -59.796522  L 561.274149 -59.796522  L 564.667601 -59.796522  L 568.061052 -59.796522  L 571.454503 -59.796522  L 574.847955 -59.796522  L 578.241406 -59.796522  L 581.634857 -59.796522  L 585.028309 -59.796522  L 588.42176 -59.796522  L 591.815211 -59.796522  L 595.208663 -59.796522  L 598.602114 -59.796522  L 601.995565 -59.796522  L 605.389017 -59.796522  L 608.782468 -59.796522  L 612.175919 -59.796522  L 615.56937 -59.796522  L 618.962822 -59.796522  L 622.356273 -59.796522  L 625.749724 -59.796522  L 629.143176 -59.796522  L 632.536627 -59.796522  L 635.930078 -59.796522  L 639.32353 -59.796522  L 642.716981 -59.796522  L 646.110432 -59.796522  L 649.503884 -59.796522  L 652.897335 -59.796522  L 656.290786 -59.796522  L 659.684238 -59.796522  L 663.077689 -59.796522  L 666.47114 -59.796522  L 669.864592 -59.796522  L 673.258043 -59.796522  L 676.651494 -59.796522  L 680.044945 -59.796522  L 683.438397 -59.796522  L 686.831848 -59.796522  L 690.225299 -59.796522  L 693.618751 -59.796522  L 697.012202 -59.796522  L 700.405653 -59.796522  L 703.799105 -59.796522  L 707.192556 -59.796522  L 710.586007 -59.796522  L 713.979459 -59.796522  L 717.37291 -59.796522  L 720.766361 -59.796522  L 724.159813 -59.796522  L 727.553264 -59.796522  L 730.946715 -59.796522  L 734.340167 -59.796522  L 737.733618 -59.796522  L 741.127069 -59.796522  L 744.520521 -59.796522  L 747.913972 -59.796522  L 751.307423 -59.796522  L 754.700874 -59.796522  L 758.094326 -59.796522  L 761.487777 -59.796522  L 764.881228 -59.796522  L 768.27468 -59.796522  L 768.27468 -59.824645  L 768.27468 -59.824645  L 764.881228 -59.847771  L 761.487777 -59.887023  L 758.094326 -59.951415  L 754.700874 -60.053501  L 751.307423 -60.209889  L 747.913972 -60.441351  L 744.520521 -60.772264  L 741.127069 -61.229166  L 737.733618 -61.838289  L 734.340167 -62.622174  L 730.946715 -63.595684  L 727.553264 -64.762062  L 724.159813 -66.109819  L 720.766361 -67.611339  L 717.37291 -69.223844  L 713.979459 -70.893011  L 710.586007 -72.558958  L 707.192556 -74.163746  L 703.799105 -75.659103  L 700.405653 -77.012943  L 697.012202 -78.213382  L 693.618751 -79.269488  L 690.225299 -80.208635  L 686.831848 -81.07105  L 683.438397 -81.90269  L 680.044945 -82.747855  L 676.651494 -83.642942  L 673.258043 -84.612422  L 669.864592 -85.667604  L 666.47114 -86.808215  L 663.077689 -88.026202  L 659.684238 -89.310823  L 656.290786 -90.653825  L 652.897335 -92.053596  L 649.503884 -93.517415  L 646.110432 -95.061386  L 642.716981 -96.708141  L 639.32353 -98.482916  L 635.930078 -100.408882  L 632.536627 -102.502774  L 629.143176 -104.771689  L 625.749724 -107.211659  L 622.356273 -109.808138  L 618.962822 -112.538167  L 615.56937 -115.373664  L 612.175919 -118.285131  L 608.782468 -121.245134  L 605.389017 -124.231069  L 601.995565 -127.226976  L 598.602114 -130.224454  L 595.208663 -133.222837  L 591.815211 -136.228858  L 588.42176 -139.255966  L 585.028309 -142.323264  L 581.634857 -145.453967  L 578.241406 -148.673213  L 574.847955 -152.005196  L 571.454503 -155.469832  L 568.061052 -159.079443  L 564.667601 -162.836153  L 561.274149 -166.730675  L 557.880698 -170.742965  L 554.487247 -174.844742  L 551.093795 -179.003395  L 547.700344 -183.186383  L 544.306893 -187.365065  L 540.913441 -191.517074  L 537.51999 -195.626774  L 534.126539 -199.683927  L 530.733088 -203.681223  L 527.339636 -207.611602  L 523.946185 -211.466321  L 520.552734 -215.234341  L 517.159282 -218.903156  L 513.765831 -222.460602  L 510.37238 -225.896857  L 506.978928 -229.20566  L 503.585477 -232.383995  L 500.192026 -235.429863  L 496.798574 -238.338337  L 493.405123 -241.096659  L 490.011672 -243.679593  L 486.61822 -246.046476  L 483.224769 -248.141299  L 479.831318 -249.896713  L 476.437866 -251.242102  L 473.044415 -252.114874  L 469.650964 -252.473178  L 466.257512 -252.307539  L 462.864061 -251.648715  L 459.47061 -250.569505  L 456.077159 -249.179365  L 452.683707 -247.612185  L 449.290256 -246.009174  L 445.896805 -244.499978  L 442.503353 -243.185671  L 439.109902 -242.12679  L 435.716451 -241.338453  L 432.322999 -240.792896  L 428.929548 -240.428189  L 425.536097 -240.160723  L 422.142645 -239.898631  L 418.749194 -239.553649  L 415.355743 -239.049837  L 411.962291 -238.328646  L 408.56884 -237.350757  L 405.175389 -236.095613  L 401.781937 -234.559611  L 398.388486 -232.753606  L 394.995035 -230.699975  L 391.601583 -228.429213  L 388.208132 -225.975983  L 384.814681 -223.374811  L 381.42123 -220.655903  L 378.027778 -217.841847  L 374.634327 -214.945968  L 371.240876 -211.97281  L 367.847424 -208.920672  L 364.453973 -205.785569  L 361.060522 -202.565488  L 357.66707 -199.26371  L 354.273619 -195.890194  L 350.880168 -192.460584  L 347.486716 -188.993122  L 344.093265 -185.504368  L 340.699814 -182.005007  L 337.306362 -178.497001  L 333.912911 -174.972967  L 330.51946 -171.418041  L 327.126008 -167.813865  L 323.732557 -164.143781  L 320.339106 -160.398075  L 316.945654 -156.578152  L 313.552203 -152.698783  L 310.158752 -148.788002  L 306.765301 -144.884676  L 303.371849 -141.034176  L 299.978398 -137.282886  L 296.584947 -133.672433  L 293.191495 -130.234525  L 289.798044 -126.987187  L 286.404593 -123.932901  L 283.011141 -121.058868  L 279.61769 -118.339256  L 276.224239 -115.739018  L 272.830787 -113.218657  L 269.437336 -110.739283  L 266.043885 -108.267296  L 262.650433 -105.778198  L 259.256982 -103.259119  L 255.863531 -100.709854  L 252.470079 -98.1423  L 249.076628 -95.578397  L 245.683177 -93.046832  L 242.289725 -90.578987  L 238.896274 -88.204744  L 235.502823 -85.948838  L 232.109372 -83.828346  L 228.71592 -81.851695  L 225.322469 -80.01923  L 221.929018 -78.325041  L 218.535566 -76.759507  L 215.142115 -75.311891  L 211.748664 -73.972405  L 208.355212 -72.733381  L 204.961761 -71.589477  L 201.56831 -70.537082  L 198.174858 -69.573286  L 194.781407 -68.694803  L 191.387956 -67.897144  L 187.994504 -67.17424  L 184.601053 -66.518503  L 181.207602 -65.921245  L 177.81415 -65.373289  L 174.420699 -64.865649  L 171.027248 -64.390146  L 167.633796 -63.939932  L 164.240345 -63.509875  L 160.846894 -63.096796  L 157.453443 -62.699538  L 154.059991 -62.318847  L 150.66654 -61.957055  L 147.273089 -61.617576  L 143.879637 -61.304287  L 140.486186 -61.02086  L 137.092735 -60.770163  L 133.699283 -60.553818  L 130.305832 -60.371965  L 126.912381 -60.223267  L 123.518929 -60.105104  L 120.125478 -60.013925  L 116.732027 -59.945644  L 113.338575 -59.896046  L 109.945124 -59.861113  L 106.551673 -59.837264  L 103.158221 -59.821488  L 99.76477 -59.811378  L 96.371319 -59.805103  L 92.977868 -59.801331  z " style="stroke: #8da0cb"/>
    </defs>
    <g clip-path="url(#p27c10a47b2)">
     <use xlink:href="#m4d81a9121f" x="0" y="345.6" style="fill: #8da0cb; stroke: #8da0cb"/>
    </g>
   </g>
   <g id="line2d_3">
    <path d="M 92.977868 285.798669  L 113.338575 285.703954  L 123.518929 285.494896  L 133.699283 285.046182  L 143.879637 284.295713  L 154.059991 283.281153  L 167.633796 281.660068  L 177.81415 280.226711  L 184.601053 279.081497  L 191.387956 277.702856  L 198.174858 276.026714  L 204.961761 274.010523  L 211.748664 271.627595  L 218.535566 268.840493  L 221.929018 267.274959  L 225.322469 265.58077  L 228.71592 263.748305  L 232.109372 261.771654  L 235.502823 259.651162  L 242.289725 255.021013  L 249.076628 250.021603  L 266.043885 237.332704  L 276.224239 229.860982  L 283.011141 224.541132  L 286.404593 221.667099  L 289.798044 218.612813  L 293.191495 215.365475  L 296.584947 211.927567  L 303.371849 204.565824  L 323.732557 181.456219  L 330.51946 174.181959  L 344.093265 160.095632  L 354.273619 149.709806  L 361.060522 143.034512  L 367.847424 136.679328  L 374.634327 130.654032  L 381.42123 124.944097  L 388.208132 119.624017  L 391.601583 117.170787  L 394.995035 114.900025  L 398.388486 112.846394  L 401.781937 111.040389  L 405.175389 109.504387  L 408.56884 108.249243  L 411.962291 107.271354  L 415.355743 106.550163  L 418.749194 106.046351  L 425.536097 105.439277  L 432.322999 104.807104  L 435.716451 104.261547  L 439.109902 103.47321  L 442.503353 102.414329  L 445.896805 101.100022  L 452.683707 97.987815  L 456.077159 96.420635  L 459.47061 95.030495  L 462.864061 93.951285  L 466.257512 93.292461  L 469.650964 93.126822  L 473.044415 93.485126  L 476.437866 94.357898  L 479.831318 95.703287  L 483.224769 97.458701  L 486.61822 99.553524  L 490.011672 101.920407  L 493.405123 104.503341  L 496.798574 107.261663  L 503.585477 113.216005  L 510.37238 119.703143  L 517.159282 126.696844  L 523.946185 134.133679  L 530.733088 141.918777  L 537.51999 149.973226  L 547.700344 162.413617  L 557.880698 174.857035  L 564.667601 182.763847  L 571.454503 190.130168  L 578.241406 196.926787  L 585.028309 203.276736  L 595.208663 212.377163  L 615.56937 230.226336  L 622.356273 235.791862  L 625.749724 238.388341  L 629.143176 240.828311  L 632.536627 243.097226  L 635.930078 245.191118  L 639.32353 247.117084  L 642.716981 248.891859  L 649.503884 252.082585  L 656.290786 254.946175  L 663.077689 257.573798  L 669.864592 259.932396  L 676.651494 261.957058  L 686.831848 264.52895  L 693.618751 266.330512  L 697.012202 267.386618  L 700.405653 268.587057  L 703.799105 269.940897  L 710.586007 273.041042  L 720.766361 277.988661  L 724.159813 279.490181  L 727.553264 280.837938  L 730.946715 282.004316  L 734.340167 282.977826  L 737.733618 283.761711  L 741.127069 284.370834  L 744.520521 284.827736  L 751.307423 285.390111  L 758.094326 285.648585  L 768.27468 285.775355  L 768.27468 285.775355  " clip-path="url(#p27c10a47b2)" style="fill: none; stroke: #000000; stroke-width: 1.5; stroke-linecap: round"/>
   </g>
   <g id="patch_7">
    <path d="M 44.28 285.803478  L 764.64 285.803478  " style="fill: none; stroke: #262626; stroke-width: 2; stroke-linejoin: miter; stroke-linecap: square"/>
   </g>
   <g id="text_6">
    <!-- tegument -->
    <g transform="translate(44.28 277.654144)scale(0.13 -0.13)">
     <defs>
      <path id="DejaVuSans-67" d="M 2906 1791  Q 2906 2416 2648 2759  Q 2391 3103 1925 3103  Q 1463 3103 1205 2759  Q 947 2416 947 1791  Q 947 1169 1205 825  Q 1463 481 1925 481  Q 2391 481 2648 825  Q 2906 1169 2906 1791  z M 3481 434  Q 3481 -459 3084 -895  Q 2688 -1331 1869 -1331  Q 1566 -1331 1297 -1286  Q 1028 -1241 775 -1147  L 775 -588  Q 1028 -725 1275 -790  Q 1522 -856 1778 -856  Q 2344 -856 2625 -561  Q 2906 -266 2906 331  L 2906 616  Q 2728 306 2450 153  Q 2172 0 1784 0  Q 1141 0 747 490  Q 353 981 353 1791  Q 353 2603 747 3093  Q 1141 3584 1784 3584  Q 2172 3584 2450 3431  Q 2728 3278 2906 2969  L 2906 3500  L 3481 3500  L 3481 434  z " transform="scale(0.015625)"/>
      <path id="DejaVuSans-75" d="M 544 1381  L 544 3500  L 1119 3500  L 1119 1403  Q 1119 906 1312 657  Q 1506 409 1894 409  Q 2359 409 2629 706  Q 2900 1003 2900 1516  L 2900 3500  L 3475 3500  L 3475 0  L 2900 0  L 2900 538  Q 2691 219 2414 64  Q 2138 -91 1772 -91  Q 1169 -91 856 284  Q 544 659 544 1381  z M 1991 3584  L 1991 3584  z " transform="scale(0.015625)"/>
      <path id="DejaVuSans-6d" d="M 3328 2828  Q 3544 3216 3844 3400  Q 4144 3584 4550 3584  Q 5097 3584 5394 3201  Q 5691 2819 5691 2113  L 5691 0  L 5113 0  L 5113 2094  Q 5113 2597 4934 2840  Q 4756 3084 4391 3084  Q 3944 3084 3684 2787  Q 3425 2491 3425 1978  L 3425 0  L 2847 0  L 2847 2094  Q 2847 2600 2669 2842  Q 2491 3084 2119 3084  Q 1678 3084 1418 2786  Q 1159 2488 1159 1978  L 1159 0  L 581 0  L 581 3500  L 1159 3500  L 1159 2956  Q 1356 3278 1631 3431  Q 1906 3584 2284 3584  Q 2666 3584 2933 3390  Q 3200 3197 3328 2828  z " transform="scale(0.015625)"/>
     </defs>
     <use xlink:href="#DejaVuSans-74"/>
     <use xlink:href="#DejaVuSans-65" x="39.208984"/>
     <use xlink:href="#DejaVuSans-67" x="100.732422"/>
     <use xlink:href="#DejaVuSans-75" x="164.208984"/>
     <use xlink:href="#DejaVuSans-6d" x="227.587891"/>
     <use xlink:href="#DejaVuSans-65" x="325"/>
     <use xlink:href="#DejaVuSans-6e" x="386.523438"/>
     <use xlink:href="#DejaVuSans-74" x="449.902344"/>
    </g>
   </g>
  </g>
  <g id="axes_4">
   <g id="patch_8">
    <path d="M 44.28 297.54  L 764.64 297.54  L 764.64 62.809565  L 44.28 62.809565  L 44.28 297.54  z " style="fill: none"/>
   </g>
   <g id="matplotlib.axis_7">
    <g id="xtick_28">
     <g id="text_7">
      <!-- 0.6 -->
      <g style="fill: #262626" transform="translate(70.944453 315.398281)scale(0.11 -0.11)">
       <defs>
        <path id="DejaVuSans-2212" d="M 678 2272  L 4684 2272  L 4684 1741  L 678 1741  L 678 2272  z " transform="scale(0.015625)"/>
        <path id="DejaVuSans-30" d="M 2034 4250  Q 1547 4250 1301 3770  Q 1056 3291 1056 2328  Q 1056 1369 1301 889  Q 1547 409 2034 409  Q 2525 409 2770 889  Q 3016 1369 3016 2328  Q 3016 3291 2770 3770  Q 2525 4250 2034 4250  z M 2034 4750  Q 2819 4750 3233 4129  Q 3647 3509 3647 2328  Q 3647 1150 3233 529  Q 2819 -91 2034 -91  Q 1250 -91 836 529  Q 422 1150 422 2328  Q 422 3509 836 4129  Q 1250 4750 2034 4750  z " transform="scale(0.015625)"/>
        <path id="DejaVuSans-2e" d="M 684 794  L 1344 794  L 1344 0  L 684 0  L 684 794  z " transform="scale(0.015625)"/>
        <path id="DejaVuSans-36" d="M 2113 2584  Q 1688 2584 1439 2293  Q 1191 2003 1191 1497  Q 1191 994 1439 701  Q 1688 409 2113 409  Q 2538 409 2786 701  Q 3034 994 3034 1497  Q 3034 2003 2786 2293  Q 2538 2584 2113 2584  z M 3366 4563  L 3366 3988  Q 3128 4100 2886 4159  Q 2644 4219 2406 4219  Q 1781 4219 1451 3797  Q 1122 3375 1075 2522  Q 1259 2794 1537 2939  Q 1816 3084 2150 3084  Q 2853 3084 3261 2657  Q 3669 2231 3669 1497  Q 3669 778 3244 343  Q 2819 -91 2113 -91  Q 1303 -91 875 529  Q 447 1150 447 2328  Q 447 3434 972 4092  Q 1497 4750 2381 4750  Q 2619 4750 2861 4703  Q 3103 4656 3366 4563  z " transform="scale(0.015625)"/>
       </defs>
       <use xlink:href="#DejaVuSans-2212"/>
       <use xlink:href="#DejaVuSans-30" x="83.789062"/>
       <use xlink:href="#DejaVuSans-2e" x="147.412109"/>
       <use xlink:href="#DejaVuSans-36" x="179.199219"/>
      </g>
     </g>
    </g>
    <g id="xtick_29">
     <g id="text_8">
      <!-- 0.4 -->
      <g style="fill: #262626" transform="translate(150.984453 315.398281)scale(0.11 -0.11)">
       <defs>
        <path id="DejaVuSans-34" d="M 2419 4116  L 825 1625  L 2419 1625  L 2419 4116  z M 2253 4666  L 3047 4666  L 3047 1625  L 3713 1625  L 3713 1100  L 3047 1100  L 3047 0  L 2419 0  L 2419 1100  L 313 1100  L 313 1709  L 2253 4666  z " transform="scale(0.015625)"/>
       </defs>
       <use xlink:href="#DejaVuSans-2212"/>
       <use xlink:href="#DejaVuSans-30" x="83.789062"/>
       <use xlink:href="#DejaVuSans-2e" x="147.412109"/>
       <use xlink:href="#DejaVuSans-34" x="179.199219"/>
      </g>
     </g>
    </g>
    <g id="xtick_30">
     <g id="text_9">
      <!-- 0.2 -->
      <g style="fill: #262626" transform="translate(231.024453 315.398281)scale(0.11 -0.11)">
       <defs>
        <path id="DejaVuSans-32" d="M 1228 531  L 3431 531  L 3431 0  L 469 0  L 469 531  Q 828 903 1448 1529  Q 2069 2156 2228 2338  Q 2531 2678 2651 2914  Q 2772 3150 2772 3378  Q 2772 3750 2511 3984  Q 2250 4219 1831 4219  Q 1534 4219 1204 4116  Q 875 4013 500 3803  L 500 4441  Q 881 4594 1212 4672  Q 1544 4750 1819 4750  Q 2544 4750 2975 4387  Q 3406 4025 3406 3419  Q 3406 3131 3298 2873  Q 3191 2616 2906 2266  Q 2828 2175 2409 1742  Q 1991 1309 1228 531  z " transform="scale(0.015625)"/>
       </defs>
       <use xlink:href="#DejaVuSans-2212"/>
       <use xlink:href="#DejaVuSans-30" x="83.789062"/>
       <use xlink:href="#DejaVuSans-2e" x="147.412109"/>
       <use xlink:href="#DejaVuSans-32" x="179.199219"/>
      </g>
     </g>
    </g>
    <g id="xtick_31">
     <g id="text_10">
      <!-- 0.0 -->
      <g style="fill: #262626" transform="translate(315.673281 315.398281)scale(0.11 -0.11)">
       <use xlink:href="#DejaVuSans-30"/>
       <use xlink:href="#DejaVuSans-2e" x="63.623047"/>
       <use xlink:href="#DejaVuSans-30" x="95.410156"/>
      </g>
     </g>
    </g>
    <g id="xtick_32">
     <g id="text_11">
      <!-- 0.2 -->
      <g style="fill: #262626" transform="translate(395.713281 315.398281)scale(0.11 -0.11)">
       <use xlink:href="#DejaVuSans-30"/>
       <use xlink:href="#DejaVuSans-2e" x="63.623047"/>
       <use xlink:href="#DejaVuSans-32" x="95.410156"/>
      </g>
     </g>
    </g>
    <g id="xtick_33">
     <g id="text_12">
      <!-- 0.4 -->
      <g style="fill: #262626" transform="translate(475.753281 315.398281)scale(0.11 -0.11)">
       <use xlink:href="#DejaVuSans-30"/>
       <use xlink:href="#DejaVuSans-2e" x="63.623047"/>
       <use xlink:href="#DejaVuSans-34" x="95.410156"/>
      </g>
     </g>
    </g>
    <g id="xtick_34">
     <g id="text_13">
      <!-- 0.6 -->
      <g style="fill: #262626" transform="translate(555.793281 315.398281)scale(0.11 -0.11)">
       <use xlink:href="#DejaVuSans-30"/>
       <use xlink:href="#DejaVuSans-2e" x="63.623047"/>
       <use xlink:href="#DejaVuSans-36" x="95.410156"/>
      </g>
     </g>
    </g>
    <g id="xtick_35">
     <g id="text_14">
      <!-- 0.8 -->
      <g style="fill: #262626" transform="translate(635.833281 315.398281)scale(0.11 -0.11)">
       <defs>
        <path id="DejaVuSans-38" d="M 2034 2216  Q 1584 2216 1326 1975  Q 1069 1734 1069 1313  Q 1069 891 1326 650  Q 1584 409 2034 409  Q 2484 409 2743 651  Q 3003 894 3003 1313  Q 3003 1734 2745 1975  Q 2488 2216 2034 2216  z M 1403 2484  Q 997 2584 770 2862  Q 544 3141 544 3541  Q 544 4100 942 4425  Q 1341 4750 2034 4750  Q 2731 4750 3128 4425  Q 3525 4100 3525 3541  Q 3525 3141 3298 2862  Q 3072 2584 2669 2484  Q 3125 2378 3379 2068  Q 3634 1759 3634 1313  Q 3634 634 3220 271  Q 2806 -91 2034 -91  Q 1263 -91 848 271  Q 434 634 434 1313  Q 434 1759 690 2068  Q 947 2378 1403 2484  z M 1172 3481  Q 1172 3119 1398 2916  Q 1625 2713 2034 2713  Q 2441 2713 2670 2916  Q 2900 3119 2900 3481  Q 2900 3844 2670 4047  Q 2441 4250 2034 4250  Q 1625 4250 1398 4047  Q 1172 3844 1172 3481  z " transform="scale(0.015625)"/>
       </defs>
       <use xlink:href="#DejaVuSans-30"/>
       <use xlink:href="#DejaVuSans-2e" x="63.623047"/>
       <use xlink:href="#DejaVuSans-38" x="95.410156"/>
      </g>
     </g>
    </g>
    <g id="xtick_36">
     <g id="text_15">
      <!-- 1.0 -->
      <g style="fill: #262626" transform="translate(715.873281 315.398281)scale(0.11 -0.11)">
       <defs>
        <path id="DejaVuSans-31" d="M 794 531  L 1825 531  L 1825 4091  L 703 3866  L 703 4441  L 1819 4666  L 2450 4666  L 2450 531  L 3481 531  L 3481 0  L 794 0  L 794 531  z " transform="scale(0.015625)"/>
       </defs>
       <use xlink:href="#DejaVuSans-31"/>
       <use xlink:href="#DejaVuSans-2e" x="63.623047"/>
       <use xlink:href="#DejaVuSans-30" x="95.410156"/>
      </g>
     </g>
    </g>
    <g id="text_16">
     <!-- Schisto correlation to neural -->
     <g style="fill: #262626" transform="translate(319.690312 330.804062)scale(0.12 -0.12)">
      <defs>
       <path id="DejaVuSans-53" d="M 3425 4513  L 3425 3897  Q 3066 4069 2747 4153  Q 2428 4238 2131 4238  Q 1616 4238 1336 4038  Q 1056 3838 1056 3469  Q 1056 3159 1242 3001  Q 1428 2844 1947 2747  L 2328 2669  Q 3034 2534 3370 2195  Q 3706 1856 3706 1288  Q 3706 609 3251 259  Q 2797 -91 1919 -91  Q 1588 -91 1214 -16  Q 841 59 441 206  L 441 856  Q 825 641 1194 531  Q 1563 422 1919 422  Q 2459 422 2753 634  Q 3047 847 3047 1241  Q 3047 1584 2836 1778  Q 2625 1972 2144 2069  L 1759 2144  Q 1053 2284 737 2584  Q 422 2884 422 3419  Q 422 4038 858 4394  Q 1294 4750 2059 4750  Q 2388 4750 2728 4690  Q 3069 4631 3425 4513  z " transform="scale(0.015625)"/>
       <path id="DejaVuSans-6f" d="M 1959 3097  Q 1497 3097 1228 2736  Q 959 2375 959 1747  Q 959 1119 1226 758  Q 1494 397 1959 397  Q 2419 397 2687 759  Q 2956 1122 2956 1747  Q 2956 2369 2687 2733  Q 2419 3097 1959 3097  z M 1959 3584  Q 2709 3584 3137 3096  Q 3566 2609 3566 1747  Q 3566 888 3137 398  Q 2709 -91 1959 -91  Q 1206 -91 779 398  Q 353 888 353 1747  Q 353 2609 779 3096  Q 1206 3584 1959 3584  z " transform="scale(0.015625)"/>
       <path id="DejaVuSans-20" transform="scale(0.015625)"/>
       <path id="DejaVuSans-72" d="M 2631 2963  Q 2534 3019 2420 3045  Q 2306 3072 2169 3072  Q 1681 3072 1420 2755  Q 1159 2438 1159 1844  L 1159 0  L 581 0  L 581 3500  L 1159 3500  L 1159 2956  Q 1341 3275 1631 3429  Q 1922 3584 2338 3584  Q 2397 3584 2469 3576  Q 2541 3569 2628 3553  L 2631 2963  z " transform="scale(0.015625)"/>
       <path id="DejaVuSans-6c" d="M 603 4863  L 1178 4863  L 1178 0  L 603 0  L 603 4863  z " transform="scale(0.015625)"/>
      </defs>
      <use xlink:href="#DejaVuSans-53"/>
      <use xlink:href="#DejaVuSans-63" x="63.476562"/>
      <use xlink:href="#DejaVuSans-68" x="118.457031"/>
      <use xlink:href="#DejaVuSans-69" x="181.835938"/>
      <use xlink:href="#DejaVuSans-73" x="209.619141"/>
      <use xlink:href="#DejaVuSans-74" x="261.71875"/>
      <use xlink:href="#DejaVuSans-6f" x="300.927734"/>
      <use xlink:href="#DejaVuSans-20" x="362.109375"/>
      <use xlink:href="#DejaVuSans-63" x="393.896484"/>
      <use xlink:href="#DejaVuSans-6f" x="448.876953"/>
      <use xlink:href="#DejaVuSans-72" x="510.058594"/>
      <use xlink:href="#DejaVuSans-72" x="549.421875"/>
      <use xlink:href="#DejaVuSans-65" x="588.285156"/>
      <use xlink:href="#DejaVuSans-6c" x="649.808594"/>
      <use xlink:href="#DejaVuSans-61" x="677.591797"/>
      <use xlink:href="#DejaVuSans-74" x="738.871094"/>
      <use xlink:href="#DejaVuSans-69" x="778.080078"/>
      <use xlink:href="#DejaVuSans-6f" x="805.863281"/>
      <use xlink:href="#DejaVuSans-6e" x="867.044922"/>
      <use xlink:href="#DejaVuSans-20" x="930.423828"/>
      <use xlink:href="#DejaVuSans-74" x="962.210938"/>
      <use xlink:href="#DejaVuSans-6f" x="1001.419922"/>
      <use xlink:href="#DejaVuSans-20" x="1062.601562"/>
      <use xlink:href="#DejaVuSans-6e" x="1094.388672"/>
      <use xlink:href="#DejaVuSans-65" x="1157.767578"/>
      <use xlink:href="#DejaVuSans-75" x="1219.291016"/>
      <use xlink:href="#DejaVuSans-72" x="1282.669922"/>
      <use xlink:href="#DejaVuSans-61" x="1323.783203"/>
      <use xlink:href="#DejaVuSans-6c" x="1385.0625"/>
     </g>
    </g>
   </g>
   <g id="matplotlib.axis_8">
    <g id="text_17">
     <!-- Density -->
     <g style="fill: #262626" transform="translate(37.784375 202.985095)rotate(-90)scale(0.12 -0.12)">
      <use xlink:href="#DejaVuSans-44"/>
      <use xlink:href="#DejaVuSans-65" x="77.001953"/>
      <use xlink:href="#DejaVuSans-6e" x="138.525391"/>
      <use xlink:href="#DejaVuSans-73" x="201.904297"/>
      <use xlink:href="#DejaVuSans-69" x="254.003906"/>
      <use xlink:href="#DejaVuSans-74" x="281.787109"/>
      <use xlink:href="#DejaVuSans-79" x="320.996094"/>
     </g>
    </g>
   </g>
   <g id="PolyCollection_4">
    <defs>
     <path id="m942e724772" d="M 26.823361 -48.062265  L 26.823361 -48.06  L 30.567785 -48.06  L 34.312208 -48.06  L 38.056632 -48.06  L 41.801056 -48.06  L 45.54548 -48.06  L 49.289904 -48.06  L 53.034328 -48.06  L 56.778752 -48.06  L 60.523176 -48.06  L 64.2676 -48.06  L 68.012024 -48.06  L 71.756448 -48.06  L 75.500872 -48.06  L 79.245296 -48.06  L 82.98972 -48.06  L 86.734144 -48.06  L 90.478568 -48.06  L 94.222991 -48.06  L 97.967415 -48.06  L 101.711839 -48.06  L 105.456263 -48.06  L 109.200687 -48.06  L 112.945111 -48.06  L 116.689535 -48.06  L 120.433959 -48.06  L 124.178383 -48.06  L 127.922807 -48.06  L 131.667231 -48.06  L 135.411655 -48.06  L 139.156079 -48.06  L 142.900503 -48.06  L 146.644927 -48.06  L 150.389351 -48.06  L 154.133775 -48.06  L 157.878198 -48.06  L 161.622622 -48.06  L 165.367046 -48.06  L 169.11147 -48.06  L 172.855894 -48.06  L 176.600318 -48.06  L 180.344742 -48.06  L 184.089166 -48.06  L 187.83359 -48.06  L 191.578014 -48.06  L 195.322438 -48.06  L 199.066862 -48.06  L 202.811286 -48.06  L 206.55571 -48.06  L 210.300134 -48.06  L 214.044558 -48.06  L 217.788981 -48.06  L 221.533405 -48.06  L 225.277829 -48.06  L 229.022253 -48.06  L 232.766677 -48.06  L 236.511101 -48.06  L 240.255525 -48.06  L 243.999949 -48.06  L 247.744373 -48.06  L 251.488797 -48.06  L 255.233221 -48.06  L 258.977645 -48.06  L 262.722069 -48.06  L 266.466493 -48.06  L 270.210917 -48.06  L 273.955341 -48.06  L 277.699765 -48.06  L 281.444188 -48.06  L 285.188612 -48.06  L 288.933036 -48.06  L 292.67746 -48.06  L 296.421884 -48.06  L 300.166308 -48.06  L 303.910732 -48.06  L 307.655156 -48.06  L 311.39958 -48.06  L 315.144004 -48.06  L 318.888428 -48.06  L 322.632852 -48.06  L 326.377276 -48.06  L 330.1217 -48.06  L 333.866124 -48.06  L 337.610548 -48.06  L 341.354972 -48.06  L 345.099395 -48.06  L 348.843819 -48.06  L 352.588243 -48.06  L 356.332667 -48.06  L 360.077091 -48.06  L 363.821515 -48.06  L 367.565939 -48.06  L 371.310363 -48.06  L 375.054787 -48.06  L 378.799211 -48.06  L 382.543635 -48.06  L 386.288059 -48.06  L 390.032483 -48.06  L 393.776907 -48.06  L 397.521331 -48.06  L 401.265755 -48.06  L 405.010178 -48.06  L 408.754602 -48.06  L 412.499026 -48.06  L 416.24345 -48.06  L 419.987874 -48.06  L 423.732298 -48.06  L 427.476722 -48.06  L 431.221146 -48.06  L 434.96557 -48.06  L 438.709994 -48.06  L 442.454418 -48.06  L 446.198842 -48.06  L 449.943266 -48.06  L 453.68769 -48.06  L 457.432114 -48.06  L 461.176538 -48.06  L 464.920962 -48.06  L 468.665385 -48.06  L 472.409809 -48.06  L 476.154233 -48.06  L 479.898657 -48.06  L 483.643081 -48.06  L 487.387505 -48.06  L 491.131929 -48.06  L 494.876353 -48.06  L 498.620777 -48.06  L 502.365201 -48.06  L 506.109625 -48.06  L 509.854049 -48.06  L 513.598473 -48.06  L 517.342897 -48.06  L 521.087321 -48.06  L 524.831745 -48.06  L 528.576169 -48.06  L 532.320592 -48.06  L 536.065016 -48.06  L 539.80944 -48.06  L 543.553864 -48.06  L 547.298288 -48.06  L 551.042712 -48.06  L 554.787136 -48.06  L 558.53156 -48.06  L 562.275984 -48.06  L 566.020408 -48.06  L 569.764832 -48.06  L 573.509256 -48.06  L 577.25368 -48.06  L 580.998104 -48.06  L 584.742528 -48.06  L 588.486952 -48.06  L 592.231375 -48.06  L 595.975799 -48.06  L 599.720223 -48.06  L 603.464647 -48.06  L 607.209071 -48.06  L 610.953495 -48.06  L 614.697919 -48.06  L 618.442343 -48.06  L 622.186767 -48.06  L 625.931191 -48.06  L 629.675615 -48.06  L 633.420039 -48.06  L 637.164463 -48.06  L 640.908887 -48.06  L 644.653311 -48.06  L 648.397735 -48.06  L 652.142159 -48.06  L 655.886582 -48.06  L 659.631006 -48.06  L 663.37543 -48.06  L 667.119854 -48.06  L 670.864278 -48.06  L 674.608702 -48.06  L 678.353126 -48.06  L 682.09755 -48.06  L 685.841974 -48.06  L 689.586398 -48.06  L 693.330822 -48.06  L 697.075246 -48.06  L 700.81967 -48.06  L 704.564094 -48.06  L 708.308518 -48.06  L 712.052942 -48.06  L 715.797365 -48.06  L 719.541789 -48.06  L 723.286213 -48.06  L 727.030637 -48.06  L 730.775061 -48.06  L 734.519485 -48.06  L 738.263909 -48.06  L 742.008333 -48.06  L 745.752757 -48.06  L 749.497181 -48.06  L 753.241605 -48.06  L 756.986029 -48.06  L 760.730453 -48.06  L 764.474877 -48.06  L 768.219301 -48.06  L 771.963725 -48.06  L 771.963725 -48.096062  L 771.963725 -48.096062  L 768.219301 -48.128652  L 764.474877 -48.186338  L 760.730453 -48.284799  L 756.986029 -48.446867  L 753.241605 -48.704137  L 749.497181 -49.098039  L 745.752757 -49.67979  L 742.008333 -50.508694  L 738.263909 -51.648352  L 734.519485 -53.160728  L 730.775061 -55.09848  L 727.030637 -57.496575  L 723.286213 -60.364596  L 719.541789 -63.681362  L 715.797365 -67.393232  L 712.052942 -71.416835  L 708.308518 -75.646119  L 704.564094 -79.962677  L 700.81967 -84.247708  L 697.075246 -88.393692  L 693.330822 -92.314109  L 689.586398 -95.95004  L 685.841974 -99.273204  L 682.09755 -102.285534  L 678.353126 -105.015832  L 674.608702 -107.514226  L 670.864278 -109.845209  L 667.119854 -112.080043  L 663.37543 -114.289281  L 659.631006 -116.536193  L 655.886582 -118.871769  L 652.142159 -121.33187  L 648.397735 -123.936821  L 644.653311 -126.6934  L 640.908887 -129.598742  L 637.164463 -132.645364  L 633.420039 -135.826224  L 629.675615 -139.138746  L 625.931191 -142.586941  L 622.186767 -146.181247  L 618.442343 -149.936264  L 614.697919 -153.867099  L 610.953495 -157.985319  L 607.209071 -162.295528  L 603.464647 -166.793206  L 599.720223 -171.46397  L 595.975799 -176.283908  L 592.231375 -181.220326  L 588.486952 -186.232279  L 584.742528 -191.270515  L 580.998104 -196.276941  L 577.25368 -201.184133  L 573.509256 -205.915705  L 569.764832 -210.388316  L 566.020408 -214.515783  L 562.275984 -218.215289  L 558.53156 -221.415061  L 554.787136 -224.062467  L 551.042712 -226.131181  L 547.298288 -227.62613  L 543.553864 -228.585189  L 539.80944 -229.077012  L 536.065016 -229.194942  L 532.320592 -229.047441  L 528.576169 -228.746032  L 524.831745 -228.392176  L 521.087321 -228.064879  L 517.342897 -227.811006  L 513.598473 -227.640077  L 509.854049 -227.524812  L 506.109625 -227.40771  L 502.365201 -227.212828  L 498.620777 -226.860753  L 494.876353 -226.283973  L 491.131929 -225.439591  L 487.387505 -224.316761  L 483.643081 -222.937309  L 479.898657 -221.349431  L 476.154233 -219.61598  L 472.409809 -217.800042  L 468.665385 -215.951194  L 464.920962 -214.095604  L 461.176538 -212.232217  L 457.432114 -210.33571  L 453.68769 -208.365277  L 449.943266 -206.276929  L 446.198842 -204.036261  L 442.454418 -201.628678  L 438.709994 -199.064789  L 434.96557 -196.379886  L 431.221146 -193.627749  L 427.476722 -190.870253  L 423.732298 -188.165123  L 419.987874 -185.554568  L 416.24345 -183.057286  L 412.499026 -180.665574  L 408.754602 -178.348042  L 405.010178 -176.057053  L 401.265755 -173.738853  L 397.521331 -171.343796  L 393.776907 -168.834201  L 390.032483 -166.188332  L 386.288059 -163.400239  L 382.543635 -160.476473  L 378.799211 -157.431442  L 375.054787 -154.28322  L 371.310363 -151.051056  L 367.565939 -147.754819  L 363.821515 -144.415728  L 360.077091 -141.05717  L 356.332667 -137.704463  L 352.588243 -134.38296  L 348.843819 -131.114684  L 345.099395 -127.914395  L 341.354972 -124.786399  L 337.610548 -121.723267  L 333.866124 -118.707167  L 330.1217 -115.71372  L 326.377276 -112.717582  L 322.632852 -109.698473  L 318.888428 -106.646281  L 315.144004 -103.564178  L 311.39958 -100.469248  L 307.655156 -97.39079  L 303.910732 -94.366934  L 300.166308 -91.440396  L 296.421884 -88.654156  L 292.67746 -86.0475  L 288.933036 -83.652612  L 285.188612 -81.491724  L 281.444188 -79.57484  L 277.699765 -77.898231  L 273.955341 -76.444057  L 270.210917 -75.181464  L 266.466493 -74.069354  L 262.722069 -73.060677  L 258.977645 -72.107696  L 255.233221 -71.167423  L 251.488797 -70.206295  L 247.744373 -69.203327  L 243.999949 -68.151245  L 240.255525 -67.055509  L 236.511101 -65.931513  L 232.766677 -64.80055  L 229.022253 -63.685355  L 225.277829 -62.606036  L 221.533405 -61.577121  L 217.788981 -60.606171  L 214.044558 -59.69404  L 210.300134 -58.836507  L 206.55571 -58.026689  L 202.811286 -57.257547  L 199.066862 -56.523817  L 195.322438 -55.822993  L 191.578014 -55.155271  L 187.83359 -54.522695  L 184.089166 -53.927931  L 180.344742 -53.373148  L 176.600318 -52.859323  L 172.855894 -52.386136  L 169.11147 -51.95233  L 165.367046 -51.556307  L 161.622622 -51.196672  L 157.878198 -50.872482  L 154.133775 -50.583147  L 150.389351 -50.328039  L 146.644927 -50.105989  L 142.900503 -49.914888  L 139.156079 -49.751535  L 135.411655 -49.6118  L 131.667231 -49.491033  L 127.922807 -49.384594  L 124.178383 -49.288362  L 120.433959 -49.199071  L 116.689535 -49.114451  L 112.945111 -49.033143  L 109.200687 -48.954491  L 105.456263 -48.878256  L 101.711839 -48.804377  L 97.967415 -48.732807  L 94.222991 -48.663457  L 90.478568 -48.596231  L 86.734144 -48.531123  L 82.98972 -48.468307  L 79.245296 -48.408199  L 75.500872 -48.351442  L 71.756448 -48.298831  L 68.012024 -48.251178  L 64.2676 -48.209173  L 60.523176 -48.173251  L 56.778752 -48.143521  L 53.034328 -48.119752  L 49.289904 -48.101419  L 45.54548 -48.087792  L 41.801056 -48.078037  L 38.056632 -48.071314  L 34.312208 -48.066856  L 30.567785 -48.064011  L 26.823361 -48.062265  z " style="stroke: #e78ac3"/>
    </defs>
    <g clip-path="url(#p3100c14ccc)">
     <use xlink:href="#m942e724772" x="0" y="345.6" style="fill: #e78ac3; stroke: #e78ac3"/>
    </g>
   </g>
   <g id="line2d_4">
    <path d="M 26.823361 297.537735  L 60.523176 297.426749  L 86.734144 297.068877  L 124.178383 296.311638  L 139.156079 295.848465  L 150.389351 295.271961  L 161.622622 294.403328  L 172.855894 293.213864  L 180.344742 292.226852  L 187.83359 291.077305  L 199.066862 289.076183  L 210.300134 286.763493  L 217.788981 284.993829  L 225.277829 282.993964  L 236.511101 279.668487  L 247.744373 276.396673  L 258.977645 273.492304  L 266.466493 271.530646  L 270.210917 270.418536  L 273.955341 269.155943  L 277.699765 267.701769  L 281.444188 266.02516  L 285.188612 264.108276  L 288.933036 261.947388  L 292.67746 259.5525  L 296.421884 256.945844  L 300.166308 254.159604  L 307.655156 248.20921  L 326.377276 232.882418  L 341.354972 220.813601  L 348.843819 214.485316  L 360.077091 204.54283  L 371.310363 194.548944  L 378.799211 188.168558  L 386.288059 182.199761  L 390.032483 179.411668  L 393.776907 176.765799  L 401.265755 171.861147  L 416.24345 162.542714  L 423.732298 157.434877  L 442.454418 143.971322  L 446.198842 141.563739  L 449.943266 139.323071  L 457.432114 135.26429  L 472.409809 127.799958  L 479.898657 124.250569  L 483.643081 122.662691  L 487.387505 121.283239  L 491.131929 120.160409  L 494.876353 119.316027  L 498.620777 118.739247  L 502.365201 118.387172  L 509.854049 118.075188  L 517.342897 117.788994  L 524.831745 117.207824  L 532.320592 116.552559  L 536.065016 116.405058  L 539.80944 116.522988  L 543.553864 117.014811  L 547.298288 117.97387  L 551.042712 119.468819  L 554.787136 121.537533  L 558.53156 124.184939  L 562.275984 127.384711  L 566.020408 131.084217  L 569.764832 135.211684  L 573.509256 139.684295  L 580.998104 149.323059  L 595.975799 169.316092  L 603.464647 178.806794  L 607.209071 183.304472  L 610.953495 187.614681  L 614.697919 191.732901  L 618.442343 195.663736  L 622.186767 199.418753  L 629.675615 206.461254  L 637.164463 212.954636  L 644.653311 218.9066  L 648.397735 221.663179  L 652.142159 224.26813  L 659.631006 229.063807  L 674.608702 238.085774  L 678.353126 240.584168  L 682.09755 243.314466  L 685.841974 246.326796  L 689.586398 249.64996  L 693.330822 253.285891  L 697.075246 257.206308  L 704.564094 265.637323  L 712.052942 274.183165  L 715.797365 278.206768  L 719.541789 281.918638  L 723.286213 285.235404  L 727.030637 288.103425  L 730.775061 290.50152  L 734.519485 292.439272  L 738.263909 293.951648  L 742.008333 295.091306  L 745.752757 295.92021  L 749.497181 296.501961  L 753.241605 296.895863  L 760.730453 297.315201  L 771.963725 297.503938  L 771.963725 297.503938  " clip-path="url(#p3100c14ccc)" style="fill: none; stroke: #000000; stroke-width: 1.5; stroke-linecap: round"/>
   </g>
   <g id="patch_9">
    <path d="M 44.28 297.54  L 764.64 297.54  " style="fill: none; stroke: #262626; stroke-width: 2; stroke-linejoin: miter; stroke-linecap: square"/>
   </g>
   <g id="text_18">
    <!-- muscle -->
    <g transform="translate(44.28 289.390666)scale(0.13 -0.13)">
     <use xlink:href="#DejaVuSans-6d"/>
     <use xlink:href="#DejaVuSans-75" x="97.412109"/>
     <use xlink:href="#DejaVuSans-73" x="160.791016"/>
     <use xlink:href="#DejaVuSans-63" x="212.890625"/>
     <use xlink:href="#DejaVuSans-6c" x="267.871094"/>
     <use xlink:href="#DejaVuSans-65" x="295.654297"/>
    </g>
   </g>
  </g>
 </g>
 <defs>
  <clipPath id="pce0c8f9183">
   <rect x="44.28" y="27.6" width="720.36" height="234.730435"/>
  </clipPath>
  <clipPath id="p9ae286a67c">
   <rect x="44.28" y="39.336522" width="720.36" height="234.730435"/>
  </clipPath>
  <clipPath id="p27c10a47b2">
   <rect x="44.28" y="51.073043" width="720.36" height="234.730435"/>
  </clipPath>
  <clipPath id="p3100c14ccc">
   <rect x="44.28" y="62.809565" width="720.36" height="234.730435"/>
  </clipPath>
 </defs>
</svg>