<?xml version="1.0" encoding="UTF-8" standalone="no"?>
<!DOCTYPE svg PUBLIC "-//W3C//DTD SVG 1.1//EN" "http://www.w3.org/Graphics/SVG/1.1/DTD/svg11.dtd">
<svg xmlns:xlink="http://www.w3.org/1999/xlink" width="777.6pt" height="432pt" viewBox="0 0 777.6 432" xmlns="http://www.w3.org/2000/svg" version="1.1">
 <metadata>
  <rdf:RDF xmlns:dc="http://purl.org/dc/elements/1.1/" xmlns:cc="http://creativecommons.org/ns#" xmlns:rdf="http://www.w3.org/1999/02/22-rdf-syntax-ns#">
   <cc:Work>
    <dc:type rdf:resource="http://purl.org/dc/dcmitype/StillImage"/>
    <dc:date>2024-08-05T22:16:03.862623</dc:date>
    <dc:format>image/svg+xml</dc:format>
    <dc:creator>
     <cc:Agent>
      <dc:title>Matplotlib v3.5.1, https://matplotlib.org/</dc:title>
     </cc:Agent>
    </dc:creator>
   </cc:Work>
  </rdf:RDF>
 </metadata>
 <defs>
  <style type="text/css">*{stroke-linejoin: round; stroke-linecap: butt}</style>
 </defs>
 <g id="figure_1">
  <g id="patch_1">
   <path d="M 0 432  L 777.6 432  L 777.6 0  L 0 0  z " style="fill: #ffffff"/>
  </g>
  <g id="axes_1">
   <g id="patch_2">
    <path d="M 44.28 324.55  L 764.64 324.55  L 764.64 27.6  L 44.28 27.6  L 44.28 324.55  z " style="fill: none"/>
   </g>
   <g id="matplotlib.axis_1">
    <g id="xtick_1"/>
    <g id="xtick_2"/>
    <g id="xtick_3"/>
    <g id="xtick_4"/>
    <g id="xtick_5"/>
    <g id="xtick_6"/>
    <g id="xtick_7"/>
    <g id="xtick_8"/>
    <g id="xtick_9"/>
   </g>
   <g id="matplotlib.axis_2">
    <g id="text_1">
     <!-- Density -->
     <g style="fill: #262626" transform="translate(37.784375 198.885312)rotate(-90)scale(0.12 -0.12)">
      <defs>
       <path id="DejaVuSans-44" d="M 1259 4147  L 1259 519  L 2022 519  Q 2988 519 3436 956  Q 3884 1394 3884 2338  Q 3884 3275 3436 3711  Q 2988 4147 2022 4147  L 1259 4147  z M 628 4666  L 1925 4666  Q 3281 4666 3915 4102  Q 4550 3538 4550 2338  Q 4550 1131 3912 565  Q 3275 0 1925 0  L 628 0  L 628 4666  z " transform="scale(0.015625)"/>
       <path id="DejaVuSans-65" d="M 3597 1894  L 3597 1613  L 953 1613  Q 991 1019 1311 708  Q 1631 397 2203 397  Q 2534 397 2845 478  Q 3156 559 3463 722  L 3463 178  Q 3153 47 2828 -22  Q 2503 -91 2169 -91  Q 1331 -91 842 396  Q 353 884 353 1716  Q 353 2575 817 3079  Q 1281 3584 2069 3584  Q 2775 3584 3186 3129  Q 3597 2675 3597 1894  z M 3022 2063  Q 3016 2534 2758 2815  Q 2500 3097 2075 3097  Q 1594 3097 1305 2825  Q 1016 2553 972 2059  L 3022 2063  z " transform="scale(0.015625)"/>
       <path id="DejaVuSans-6e" d="M 3513 2113  L 3513 0  L 2938 0  L 2938 2094  Q 2938 2591 2744 2837  Q 2550 3084 2163 3084  Q 1697 3084 1428 2787  Q 1159 2491 1159 1978  L 1159 0  L 581 0  L 581 3500  L 1159 3500  L 1159 2956  Q 1366 3272 1645 3428  Q 1925 3584 2291 3584  Q 2894 3584 3203 3211  Q 3513 2838 3513 2113  z " transform="scale(0.015625)"/>
       <path id="DejaVuSans-73" d="M 2834 3397  L 2834 2853  Q 2591 2978 2328 3040  Q 2066 3103 1784 3103  Q 1356 3103 1142 2972  Q 928 2841 928 2578  Q 928 2378 1081 2264  Q 1234 2150 1697 2047  L 1894 2003  Q 2506 1872 2764 1633  Q 3022 1394 3022 966  Q 3022 478 2636 193  Q 2250 -91 1575 -91  Q 1294 -91 989 -36  Q 684 19 347 128  L 347 722  Q 666 556 975 473  Q 1284 391 1588 391  Q 1994 391 2212 530  Q 2431 669 2431 922  Q 2431 1156 2273 1281  Q 2116 1406 1581 1522  L 1381 1569  Q 847 1681 609 1914  Q 372 2147 372 2553  Q 372 3047 722 3315  Q 1072 3584 1716 3584  Q 2034 3584 2315 3537  Q 2597 3491 2834 3397  z " transform="scale(0.015625)"/>
       <path id="DejaVuSans-69" d="M 603 3500  L 1178 3500  L 1178 0  L 603 0  L 603 3500  z M 603 4863  L 1178 4863  L 1178 4134  L 603 4134  L 603 4863  z " transform="scale(0.015625)"/>
       <path id="DejaVuSans-74" d="M 1172 4494  L 1172 3500  L 2356 3500  L 2356 3053  L 1172 3053  L 1172 1153  Q 1172 725 1289 603  Q 1406 481 1766 481  L 2356 481  L 2356 0  L 1766 0  Q 1100 0 847 248  Q 594 497 594 1153  L 594 3053  L 172 3053  L 172 3500  L 594 3500  L 594 4494  L 1172 4494  z " transform="scale(0.015625)"/>
       <path id="DejaVuSans-79" d="M 2059 -325  Q 1816 -950 1584 -1140  Q 1353 -1331 966 -1331  L 506 -1331  L 506 -850  L 844 -850  Q 1081 -850 1212 -737  Q 1344 -625 1503 -206  L 1606 56  L 191 3500  L 800 3500  L 1894 763  L 2988 3500  L 3597 3500  L 2059 -325  z " transform="scale(0.015625)"/>
      </defs>
      <use xlink:href="#DejaVuSans-44"/>
      <use xlink:href="#DejaVuSans-65" x="77.001953"/>
      <use xlink:href="#DejaVuSans-6e" x="138.525391"/>
      <use xlink:href="#DejaVuSans-73" x="201.904297"/>
      <use xlink:href="#DejaVuSans-69" x="254.003906"/>
      <use xlink:href="#DejaVuSans-74" x="281.787109"/>
      <use xlink:href="#DejaVuSans-79" x="320.996094"/>
     </g>
    </g>
   </g>
   <g id="PolyCollection_1">
    <defs>
     <path id="me61de7ca03" d="M 24.402293 -107.45463  L 24.402293 -107.45  L 28.113508 -107.45  L 31.824722 -107.45  L 35.535937 -107.45  L 39.247151 -107.45  L 42.958366 -107.45  L 46.66958 -107.45  L 50.380795 -107.45  L 54.09201 -107.45  L 57.803224 -107.45  L 61.514439 -107.45  L 65.225653 -107.45  L 68.936868 -107.45  L 72.648082 -107.45  L 76.359297 -107.45  L 80.070512 -107.45  L 83.781726 -107.45  L 87.492941 -107.45  L 91.204155 -107.45  L 94.91537 -107.45  L 98.626584 -107.45  L 102.337799 -107.45  L 106.049014 -107.45  L 109.760228 -107.45  L 113.471443 -107.45  L 117.182657 -107.45  L 120.893872 -107.45  L 124.605087 -107.45  L 128.316301 -107.45  L 132.027516 -107.45  L 135.73873 -107.45  L 139.449945 -107.45  L 143.161159 -107.45  L 146.872374 -107.45  L 150.583589 -107.45  L 154.294803 -107.45  L 158.006018 -107.45  L 161.717232 -107.45  L 165.428447 -107.45  L 169.139661 -107.45  L 172.850876 -107.45  L 176.562091 -107.45  L 180.273305 -107.45  L 183.98452 -107.45  L 187.695734 -107.45  L 191.406949 -107.45  L 195.118163 -107.45  L 198.829378 -107.45  L 202.540593 -107.45  L 206.251807 -107.45  L 209.963022 -107.45  L 213.674236 -107.45  L 217.385451 -107.45  L 221.096665 -107.45  L 224.80788 -107.45  L 228.519095 -107.45  L 232.230309 -107.45  L 235.941524 -107.45  L 239.652738 -107.45  L 243.363953 -107.45  L 247.075167 -107.45  L 250.786382 -107.45  L 254.497597 -107.45  L 258.208811 -107.45  L 261.920026 -107.45  L 265.63124 -107.45  L 269.342455 -107.45  L 273.053669 -107.45  L 276.764884 -107.45  L 280.476099 -107.45  L 284.187313 -107.45  L 287.898528 -107.45  L 291.609742 -107.45  L 295.320957 -107.45  L 299.032171 -107.45  L 302.743386 -107.45  L 306.454601 -107.45  L 310.165815 -107.45  L 313.87703 -107.45  L 317.588244 -107.45  L 321.299459 -107.45  L 325.010673 -107.45  L 328.721888 -107.45  L 332.433103 -107.45  L 336.144317 -107.45  L 339.855532 -107.45  L 343.566746 -107.45  L 347.277961 -107.45  L 350.989176 -107.45  L 354.70039 -107.45  L 358.411605 -107.45  L 362.122819 -107.45  L 365.834034 -107.45  L 369.545248 -107.45  L 373.256463 -107.45  L 376.967678 -107.45  L 380.678892 -107.45  L 384.390107 -107.45  L 388.101321 -107.45  L 391.812536 -107.45  L 395.52375 -107.45  L 399.234965 -107.45  L 402.94618 -107.45  L 406.657394 -107.45  L 410.368609 -107.45  L 414.079823 -107.45  L 417.791038 -107.45  L 421.502252 -107.45  L 425.213467 -107.45  L 428.924682 -107.45  L 432.635896 -107.45  L 436.347111 -107.45  L 440.058325 -107.45  L 443.76954 -107.45  L 447.480754 -107.45  L 451.191969 -107.45  L 454.903184 -107.45  L 458.614398 -107.45  L 462.325613 -107.45  L 466.036827 -107.45  L 469.748042 -107.45  L 473.459256 -107.45  L 477.170471 -107.45  L 480.881686 -107.45  L 484.5929 -107.45  L 488.304115 -107.45  L 492.015329 -107.45  L 495.726544 -107.45  L 499.437758 -107.45  L 503.148973 -107.45  L 506.860188 -107.45  L 510.571402 -107.45  L 514.282617 -107.45  L 517.993831 -107.45  L 521.705046 -107.45  L 525.41626 -107.45  L 529.127475 -107.45  L 532.83869 -107.45  L 536.549904 -107.45  L 540.261119 -107.45  L 543.972333 -107.45  L 547.683548 -107.45  L 551.394763 -107.45  L 555.105977 -107.45  L 558.817192 -107.45  L 562.528406 -107.45  L 566.239621 -107.45  L 569.950835 -107.45  L 573.66205 -107.45  L 577.373265 -107.45  L 581.084479 -107.45  L 584.795694 -107.45  L 588.506908 -107.45  L 592.218123 -107.45  L 595.929337 -107.45  L 599.640552 -107.45  L 603.351767 -107.45  L 607.062981 -107.45  L 610.774196 -107.45  L 614.48541 -107.45  L 618.196625 -107.45  L 621.907839 -107.45  L 625.619054 -107.45  L 629.330269 -107.45  L 633.041483 -107.45  L 636.752698 -107.45  L 640.463912 -107.45  L 644.175127 -107.45  L 647.886341 -107.45  L 651.597556 -107.45  L 655.308771 -107.45  L 659.019985 -107.45  L 662.7312 -107.45  L 666.442414 -107.45  L 670.153629 -107.45  L 673.864843 -107.45  L 677.576058 -107.45  L 681.287273 -107.45  L 684.998487 -107.45  L 688.709702 -107.45  L 692.420916 -107.45  L 696.132131 -107.45  L 699.843345 -107.45  L 703.55456 -107.45  L 707.265775 -107.45  L 710.976989 -107.45  L 714.688204 -107.45  L 718.399418 -107.45  L 722.110633 -107.45  L 725.821847 -107.45  L 729.533062 -107.45  L 733.244277 -107.45  L 736.955491 -107.45  L 740.666706 -107.45  L 744.37792 -107.45  L 748.089135 -107.45  L 751.800349 -107.45  L 755.511564 -107.45  L 759.222779 -107.45  L 762.933993 -107.45  L 762.933993 -107.480829  L 762.933993 -107.480829  L 759.222779 -107.504185  L 755.511564 -107.542781  L 751.800349 -107.604822  L 748.089135 -107.701854  L 744.37792 -107.849534  L 740.666706 -108.068317  L 736.955491 -108.383874  L 733.244277 -108.827093  L 729.533062 -109.433452  L 725.821847 -110.241621  L 722.110633 -111.291205  L 718.399418 -112.619656  L 714.688204 -114.258507  L 710.976989 -116.229246  L 707.265775 -118.539254  L 703.55456 -121.178332  L 699.843345 -124.116334  L 696.132131 -127.302338  L 692.420916 -130.665674  L 688.709702 -134.118835  L 684.998487 -137.56213  L 681.287273 -140.889644  L 677.576058 -143.995948  L 673.864843 -146.782899  L 670.153629 -149.165888  L 666.442414 -151.079004  L 662.7312 -152.47871  L 659.019985 -153.345825  L 655.308771 -153.685721  L 651.597556 -153.526819  L 647.886341 -152.91753  L 644.175127 -151.921942  L 640.463912 -150.61459  L 636.752698 -149.074809  L 633.041483 -147.381165  L 629.330269 -145.606527  L 625.619054 -143.814233  L 621.907839 -142.055659  L 618.196625 -140.369316  L 614.48541 -138.781334  L 610.774196 -137.307069  L 607.062981 -135.953399  L 603.351767 -134.721328  L 599.640552 -133.608532  L 595.929337 -132.611602  L 592.218123 -131.727869  L 588.506908 -130.95674  L 584.795694 -130.300547  L 581.084479 -129.764922  L 577.373265 -129.358715  L 573.66205 -129.093459  L 569.950835 -128.982449  L 566.239621 -129.039489  L 562.528406 -129.277448  L 558.817192 -129.70676  L 555.105977 -130.334036  L 551.394763 -131.160957  L 547.683548 -132.183551  L 543.972333 -133.391983  L 540.261119 -134.770879  L 536.549904 -136.300204  L 532.83869 -137.956648  L 529.127475 -139.715407  L 525.41626 -141.552231  L 521.705046 -143.445523  L 517.993831 -145.378287  L 514.282617 -147.339731  L 510.571402 -149.326393  L 506.860188 -151.342775  L 503.148973 -153.401567  L 499.437758 -155.523656  L 495.726544 -157.73813  L 492.015329 -160.082438  L 488.304115 -162.602711  L 484.5929 -165.354053  L 480.881686 -168.400355  L 477.170471 -171.81312  L 473.459256 -175.668713  L 469.748042 -180.043743  L 466.036827 -185.008602  L 462.325613 -190.619742  L 458.614398 -196.911722  L 454.903184 -203.890371  L 451.191969 -211.52848  L 447.480754 -219.765062  L 443.76954 -228.508656  L 440.058325 -237.644346  L 436.347111 -247.043443  L 432.635896 -256.57427  L 428.924682 -266.112355  L 425.213467 -275.548574  L 421.502252 -284.794278  L 417.791038 -293.783113  L 414.079823 -302.469785  L 410.368609 -310.826475  L 406.657394 -318.837772  L 402.94618 -326.495038  L 399.234965 -333.791053  L 395.52375 -340.715647  L 391.812536 -347.252945  L 388.101321 -353.380627  L 384.390107 -359.071373  L 380.678892 -364.29629  L 376.967678 -369.029667  L 373.256463 -373.25404  L 369.545248 -376.964267  L 365.834034 -380.169396  L 362.122819 -382.891399  L 358.411605 -385.160451  L 354.70039 -387.007167  L 350.989176 -388.452878  L 347.277961 -389.499579  L 343.566746 -390.12142  L 339.855532 -390.259524  L 336.144317 -389.821554  L 332.433103 -388.686776  L 328.721888 -386.7165  L 325.010673 -383.768889  L 321.299459 -379.71622  L 317.588244 -374.462118  L 313.87703 -367.956014  L 310.165815 -360.202428  L 306.454601 -351.263483  L 302.743386 -341.254267  L 299.032171 -330.332012  L 295.320957 -318.681214  L 291.609742 -306.497485  L 287.898528 -293.972932  L 284.187313 -281.285256  L 280.476099 -268.591628  L 276.764884 -256.027214  L 273.053669 -243.707172  L 269.342455 -231.730417  L 265.63124 -220.183409  L 261.920026 -209.142727  L 258.208811 -198.675872  L 254.497597 -188.840502  L 250.786382 -179.682765  L 247.075167 -171.23556  L 243.363953 -163.517444  L 239.652738 -156.532513  L 235.941524 -150.271278  L 232.230309 -144.712239  L 228.519095 -139.823795  L 224.80788 -135.566148  L 221.096665 -131.893031  L 217.385451 -128.753222  L 213.674236 -126.091935  L 209.963022 -123.852187  L 206.251807 -121.976253  L 202.540593 -120.407211  L 198.829378 -119.090561  L 195.118163 -117.97583  L 191.406949 -117.018044  L 187.695734 -116.178939  L 183.98452 -115.427785  L 180.273305 -114.741705  L 176.562091 -114.105401  L 172.850876 -113.510296  L 169.139661 -112.953156  L 165.428447 -112.43436  L 161.717232 -111.956072  L 158.006018 -111.520573  L 154.294803 -111.128988  L 150.583589 -110.780562  L 146.872374 -110.472521  L 143.161159 -110.200433  L 139.449945 -109.958906  L 135.73873 -109.742396  L 132.027516 -109.545941  L 128.316301 -109.365659  L 124.605087 -109.198944  L 120.893872 -109.044368  L 117.182657 -108.901368  L 113.471443 -108.769808  L 109.760228 -108.649559  L 106.049014 -108.540166  L 102.337799 -108.440682  L 98.626584 -108.349676  L 94.91537 -108.2654  L 91.204155 -108.186051  L 87.492941 -108.110059  L 83.781726 -108.036336  L 80.070512 -107.964422  L 76.359297 -107.894502  L 72.648082 -107.827304  L 68.936868 -107.763903  L 65.225653 -107.70548  L 61.514439 -107.653089  L 57.803224 -107.607477  L 54.09201 -107.568988  L 50.380795 -107.537533  L 46.66958 -107.512652  L 42.958366 -107.493608  L 39.247151 -107.479505  L 35.535937 -107.469398  L 31.824722 -107.462389  L 28.113508 -107.457685  L 24.402293 -107.45463  z " style="stroke: #66c2a5"/>
    </defs>
    <g clip-path="url(#pfc0790eae7)">
     <use xlink:href="#me61de7ca03" x="0" y="432" style="fill: #66c2a5; stroke: #66c2a5"/>
    </g>
   </g>
   <g id="line2d_1">
    <path d="M 24.402293 324.54537  L 54.09201 324.431012  L 76.359297 324.105498  L 106.049014 323.459834  L 120.893872 322.955632  L 135.73873 322.257604  L 146.872374 321.527479  L 154.294803 320.871012  L 161.717232 320.043928  L 169.139661 319.046844  L 176.562091 317.894599  L 183.98452 316.572215  L 191.406949 314.981956  L 195.118163 314.02417  L 198.829378 312.909439  L 202.540593 311.592789  L 206.251807 310.023747  L 209.963022 308.147813  L 213.674236 305.908065  L 217.385451 303.246778  L 221.096665 300.106969  L 224.80788 296.433852  L 228.519095 292.176205  L 232.230309 287.287761  L 235.941524 281.728722  L 239.652738 275.467487  L 243.363953 268.482556  L 247.075167 260.76444  L 250.786382 252.317235  L 254.497597 243.159498  L 258.208811 233.324128  L 261.920026 222.857273  L 265.63124 211.816591  L 269.342455 200.269583  L 276.764884 175.972786  L 295.320957 113.318786  L 299.032171 101.667988  L 302.743386 90.745733  L 306.454601 80.736517  L 310.165815 71.797572  L 313.87703 64.043986  L 317.588244 57.537882  L 321.299459 52.28378  L 325.010673 48.231111  L 328.721888 45.2835  L 332.433103 43.313224  L 336.144317 42.178446  L 339.855532 41.740476  L 343.566746 41.87858  L 347.277961 42.500421  L 350.989176 43.547122  L 354.70039 44.992833  L 358.411605 46.839549  L 362.122819 49.108601  L 365.834034 51.830604  L 369.545248 55.035733  L 373.256463 58.74596  L 376.967678 62.970333  L 380.678892 67.70371  L 384.390107 72.928627  L 388.101321 78.619373  L 391.812536 84.747055  L 395.52375 91.284353  L 399.234965 98.208947  L 402.94618 105.504962  L 406.657394 113.162228  L 410.368609 121.173525  L 414.079823 129.530215  L 417.791038 138.216887  L 425.213467 156.451426  L 443.76954 203.491344  L 447.480754 212.234938  L 451.191969 220.47152  L 454.903184 228.109629  L 458.614398 235.088278  L 462.325613 241.380258  L 466.036827 246.991398  L 469.748042 251.956257  L 473.459256 256.331287  L 477.170471 260.18688  L 480.881686 263.599645  L 484.5929 266.645947  L 488.304115 269.397289  L 492.015329 271.917562  L 499.437758 276.476344  L 506.860188 280.657225  L 517.993831 286.621713  L 525.41626 290.447769  L 532.83869 294.043352  L 536.549904 295.699796  L 540.261119 297.229121  L 543.972333 298.608017  L 547.683548 299.816449  L 551.394763 300.839043  L 555.105977 301.665964  L 558.817192 302.29324  L 562.528406 302.722552  L 566.239621 302.960511  L 569.950835 303.017551  L 573.66205 302.906541  L 577.373265 302.641285  L 581.084479 302.235078  L 584.795694 301.699453  L 588.506908 301.04326  L 595.929337 299.388398  L 599.640552 298.391468  L 603.351767 297.278672  L 607.062981 296.046601  L 610.774196 294.692931  L 618.196625 291.630684  L 625.619054 288.185767  L 636.752698 282.925191  L 640.463912 281.38541  L 644.175127 280.078058  L 647.886341 279.08247  L 651.597556 278.473181  L 655.308771 278.314279  L 659.019985 278.654175  L 662.7312 279.52129  L 666.442414 280.920996  L 670.153629 282.834112  L 673.864843 285.217101  L 677.576058 288.004052  L 681.287273 291.110356  L 688.709702 297.881165  L 696.132131 304.697662  L 699.843345 307.883666  L 703.55456 310.821668  L 707.265775 313.460746  L 710.976989 315.770754  L 714.688204 317.741493  L 718.399418 319.380344  L 722.110633 320.708795  L 725.821847 321.758379  L 729.533062 322.566548  L 733.244277 323.172907  L 736.955491 323.616126  L 744.37792 324.150466  L 751.800349 324.395178  L 762.933993 324.519171  L 762.933993 324.519171  " clip-path="url(#pfc0790eae7)" style="fill: none; stroke: #000000; stroke-width: 1.5; stroke-linecap: round"/>
   </g>
   <g id="patch_3">
    <path d="M 44.28 324.55  L 764.64 324.55  " style="fill: none; stroke: #262626; stroke-width: 2; stroke-linejoin: miter; stroke-linecap: square"/>
   </g>
   <g id="text_2">
    <!-- intestine -->
    <g transform="translate(44.28 313.289687)scale(0.13 -0.13)">
     <use xlink:href="#DejaVuSans-69"/>
     <use xlink:href="#DejaVuSans-6e" x="27.783203"/>
     <use xlink:href="#DejaVuSans-74" x="91.162109"/>
     <use xlink:href="#DejaVuSans-65" x="130.371094"/>
     <use xlink:href="#DejaVuSans-73" x="191.894531"/>
     <use xlink:href="#DejaVuSans-74" x="243.994141"/>
     <use xlink:href="#DejaVuSans-69" x="283.203125"/>
     <use xlink:href="#DejaVuSans-6e" x="310.986328"/>
     <use xlink:href="#DejaVuSans-65" x="374.365234"/>
    </g>
   </g>
  </g>
  <g id="axes_2">
   <g id="patch_4">
    <path d="M 44.28 339.3975  L 764.64 339.3975  L 764.64 42.4475  L 44.28 42.4475  L 44.28 339.3975  z " style="fill: none"/>
   </g>
   <g id="matplotlib.axis_3">
    <g id="xtick_10"/>
    <g id="xtick_11"/>
    <g id="xtick_12"/>
    <g id="xtick_13"/>
    <g id="xtick_14"/>
    <g id="xtick_15"/>
    <g id="xtick_16"/>
    <g id="xtick_17"/>
    <g id="xtick_18"/>
   </g>
   <g id="matplotlib.axis_4">
    <g id="text_3">
     <!-- Density -->
     <g style="fill: #262626" transform="translate(37.784375 213.732812)rotate(-90)scale(0.12 -0.12)">
      <use xlink:href="#DejaVuSans-44"/>
      <use xlink:href="#DejaVuSans-65" x="77.001953"/>
      <use xlink:href="#DejaVuSans-6e" x="138.525391"/>
      <use xlink:href="#DejaVuSans-73" x="201.904297"/>
      <use xlink:href="#DejaVuSans-69" x="254.003906"/>
      <use xlink:href="#DejaVuSans-74" x="281.787109"/>
      <use xlink:href="#DejaVuSans-79" x="320.996094"/>
     </g>
    </g>
   </g>
   <g id="PolyCollection_2">
    <defs>
     <path id="mc5277aa43a" d="M 90.69707 -92.610198  L 90.69707 -92.6025  L 94.023982 -92.6025  L 97.350893 -92.6025  L 100.677805 -92.6025  L 104.004717 -92.6025  L 107.331629 -92.6025  L 110.65854 -92.6025  L 113.985452 -92.6025  L 117.312364 -92.6025  L 120.639276 -92.6025  L 123.966187 -92.6025  L 127.293099 -92.6025  L 130.620011 -92.6025  L 133.946922 -92.6025  L 137.273834 -92.6025  L 140.600746 -92.6025  L 143.927658 -92.6025  L 147.254569 -92.6025  L 150.581481 -92.6025  L 153.908393 -92.6025  L 157.235305 -92.6025  L 160.562216 -92.6025  L 163.889128 -92.6025  L 167.21604 -92.6025  L 170.542951 -92.6025  L 173.869863 -92.6025  L 177.196775 -92.6025  L 180.523687 -92.6025  L 183.850598 -92.6025  L 187.17751 -92.6025  L 190.504422 -92.6025  L 193.831333 -92.6025  L 197.158245 -92.6025  L 200.485157 -92.6025  L 203.812069 -92.6025  L 207.13898 -92.6025  L 210.465892 -92.6025  L 213.792804 -92.6025  L 217.119716 -92.6025  L 220.446627 -92.6025  L 223.773539 -92.6025  L 227.100451 -92.6025  L 230.427362 -92.6025  L 233.754274 -92.6025  L 237.081186 -92.6025  L 240.408098 -92.6025  L 243.735009 -92.6025  L 247.061921 -92.6025  L 250.388833 -92.6025  L 253.715745 -92.6025  L 257.042656 -92.6025  L 260.369568 -92.6025  L 263.69648 -92.6025  L 267.023391 -92.6025  L 270.350303 -92.6025  L 273.677215 -92.6025  L 277.004127 -92.6025  L 280.331038 -92.6025  L 283.65795 -92.6025  L 286.984862 -92.6025  L 290.311774 -92.6025  L 293.638685 -92.6025  L 296.965597 -92.6025  L 300.292509 -92.6025  L 303.61942 -92.6025  L 306.946332 -92.6025  L 310.273244 -92.6025  L 313.600156 -92.6025  L 316.927067 -92.6025  L 320.253979 -92.6025  L 323.580891 -92.6025  L 326.907803 -92.6025  L 330.234714 -92.6025  L 333.561626 -92.6025  L 336.888538 -92.6025  L 340.215449 -92.6025  L 343.542361 -92.6025  L 346.869273 -92.6025  L 350.196185 -92.6025  L 353.523096 -92.6025  L 356.850008 -92.6025  L 360.17692 -92.6025  L 363.503832 -92.6025  L 366.830743 -92.6025  L 370.157655 -92.6025  L 373.484567 -92.6025  L 376.811478 -92.6025  L 380.13839 -92.6025  L 383.465302 -92.6025  L 386.792214 -92.6025  L 390.119125 -92.6025  L 393.446037 -92.6025  L 396.772949 -92.6025  L 400.099861 -92.6025  L 403.426772 -92.6025  L 406.753684 -92.6025  L 410.080596 -92.6025  L 413.407507 -92.6025  L 416.734419 -92.6025  L 420.061331 -92.6025  L 423.388243 -92.6025  L 426.715154 -92.6025  L 430.042066 -92.6025  L 433.368978 -92.6025  L 436.69589 -92.6025  L 440.022801 -92.6025  L 443.349713 -92.6025  L 446.676625 -92.6025  L 450.003536 -92.6025  L 453.330448 -92.6025  L 456.65736 -92.6025  L 459.984272 -92.6025  L 463.311183 -92.6025  L 466.638095 -92.6025  L 469.965007 -92.6025  L 473.291919 -92.6025  L 476.61883 -92.6025  L 479.945742 -92.6025  L 483.272654 -92.6025  L 486.599565 -92.6025  L 489.926477 -92.6025  L 493.253389 -92.6025  L 496.580301 -92.6025  L 499.907212 -92.6025  L 503.234124 -92.6025  L 506.561036 -92.6025  L 509.887948 -92.6025  L 513.214859 -92.6025  L 516.541771 -92.6025  L 519.868683 -92.6025  L 523.195594 -92.6025  L 526.522506 -92.6025  L 529.849418 -92.6025  L 533.17633 -92.6025  L 536.503241 -92.6025  L 539.830153 -92.6025  L 543.157065 -92.6025  L 546.483977 -92.6025  L 549.810888 -92.6025  L 553.1378 -92.6025  L 556.464712 -92.6025  L 559.791623 -92.6025  L 563.118535 -92.6025  L 566.445447 -92.6025  L 569.772359 -92.6025  L 573.09927 -92.6025  L 576.426182 -92.6025  L 579.753094 -92.6025  L 583.080005 -92.6025  L 586.406917 -92.6025  L 589.733829 -92.6025  L 593.060741 -92.6025  L 596.387652 -92.6025  L 599.714564 -92.6025  L 603.041476 -92.6025  L 606.368388 -92.6025  L 609.695299 -92.6025  L 613.022211 -92.6025  L 616.349123 -92.6025  L 619.676034 -92.6025  L 623.002946 -92.6025  L 626.329858 -92.6025  L 629.65677 -92.6025  L 632.983681 -92.6025  L 636.310593 -92.6025  L 639.637505 -92.6025  L 642.964417 -92.6025  L 646.291328 -92.6025  L 649.61824 -92.6025  L 652.945152 -92.6025  L 656.272063 -92.6025  L 659.598975 -92.6025  L 662.925887 -92.6025  L 666.252799 -92.6025  L 669.57971 -92.6025  L 672.906622 -92.6025  L 676.233534 -92.6025  L 679.560446 -92.6025  L 682.887357 -92.6025  L 686.214269 -92.6025  L 689.541181 -92.6025  L 692.868092 -92.6025  L 696.195004 -92.6025  L 699.521916 -92.6025  L 702.848828 -92.6025  L 706.175739 -92.6025  L 709.502651 -92.6025  L 712.829563 -92.6025  L 716.156475 -92.6025  L 719.483386 -92.6025  L 722.810298 -92.6025  L 726.13721 -92.6025  L 729.464121 -92.6025  L 732.791033 -92.6025  L 736.117945 -92.6025  L 739.444857 -92.6025  L 742.771768 -92.6025  L 746.09868 -92.6025  L 749.425592 -92.6025  L 752.752504 -92.6025  L 752.752504 -92.637556  L 752.752504 -92.637556  L 749.425592 -92.662004  L 746.09868 -92.701  L 742.771768 -92.761552  L 739.444857 -92.853097  L 736.117945 -92.987862  L 732.791033 -93.181074  L 729.464121 -93.450897  L 726.13721 -93.818003  L 722.810298 -94.304709  L 719.483386 -94.933647  L 716.156475 -95.726017  L 712.829563 -96.699555  L 709.502651 -97.866413  L 706.175739 -99.231212  L 702.848828 -100.789525  L 699.521916 -102.527031  L 696.195004 -104.419482  L 692.868092 -106.433527  L 689.541181 -108.528314  L 686.214269 -110.657707  L 682.887357 -112.772879  L 679.560446 -114.825047  L 676.233534 -116.768147  L 672.906622 -118.561289  L 669.57971 -120.17089  L 666.252799 -121.572411  L 662.925887 -122.751617  L 659.598975 -123.705249  L 656.272063 -124.441  L 652.945152 -124.97665  L 649.61824 -125.33832  L 646.291328 -125.557868  L 642.964417 -125.669648  L 639.637505 -125.706987  L 636.310593 -125.698853  L 632.983681 -125.667245  L 629.65677 -125.625747  L 626.329858 -125.579522  L 623.002946 -125.526785  L 619.676034 -125.461528  L 616.349123 -125.377032  L 613.022211 -125.269608  L 609.695299 -125.141966  L 606.368388 -125.005729  L 603.041476 -124.882806  L 599.714564 -124.80552  L 596.387652 -124.815607  L 593.060741 -124.962297  L 589.733829 -125.299771  L 586.406917 -125.884224  L 583.080005 -126.770777  L 579.753094 -128.010372  L 576.426182 -129.646808  L 573.09927 -131.714094  L 569.772359 -134.234333  L 566.445447 -137.216438  L 563.118535 -140.655973  L 559.791623 -144.536373  L 556.464712 -148.831666  L 553.1378 -153.510585  L 549.810888 -158.541729  L 546.483977 -163.899135  L 543.157065 -169.567465  L 539.830153 -175.545919  L 536.503241 -181.850046  L 533.17633 -188.510862  L 529.849418 -195.571021  L 526.522506 -203.078224  L 523.195594 -211.076499  L 519.868683 -219.596385  L 516.541771 -228.645318  L 513.214859 -238.199634  L 509.887948 -248.199465  L 506.561036 -258.54751  L 503.234124 -269.112147  L 499.907212 -279.734716  L 496.580301 -290.240191  L 493.253389 -300.449883  L 489.926477 -310.194447  L 486.599565 -319.325402  L 483.272654 -327.723584  L 479.945742 -335.303506  L 476.61883 -342.013258  L 473.291919 -347.83044  L 469.965007 -352.755224  L 466.638095 -356.802114  L 463.311183 -359.992045  L 459.984272 -362.346229  L 456.65736 -363.882621  L 453.330448 -364.615256  L 450.003536 -364.556093  L 446.676625 -363.718564  L 443.349713 -362.121811  L 440.022801 -359.794642  L 436.69589 -356.778428  L 433.368978 -353.128456  L 430.042066 -348.913542  L 426.715154 -344.213973  L 423.388243 -339.118015  L 420.061331 -333.717413  L 416.734419 -328.102414  L 413.407507 -322.356945  L 410.080596 -316.55458  L 406.753684 -310.75583  L 403.426772 -305.007044  L 400.099861 -299.34093  L 396.772949 -293.778292  L 393.446037 -288.33042  L 390.119125 -283.00143  L 386.792214 -277.790054  L 383.465302 -272.690653  L 380.13839 -267.693656  L 376.811478 -262.785868  L 373.484567 -257.951224  L 370.157655 -253.172419  L 366.830743 -248.433465  L 363.503832 -243.722847  L 360.17692 -239.036579  L 356.850008 -234.380328  L 353.523096 -229.769921  L 350.196185 -225.229896  L 346.869273 -220.790265  L 343.542361 -216.482084  L 340.215449 -212.332744  L 336.888538 -208.361923  L 333.561626 -204.578962  L 330.234714 -200.982059  L 326.907803 -197.559262  L 323.580891 -194.290903  L 320.253979 -191.152899  L 316.927067 -188.120292  L 313.600156 -185.170509  L 310.273244 -182.285984  L 306.946332 -179.45593  L 303.61942 -176.677218  L 300.292509 -173.95433  L 296.965597 -171.298426  L 293.638685 -168.725558  L 290.311774 -166.254107  L 286.984862 -163.901639  L 283.65795 -161.681489  L 280.331038 -159.599512  L 277.004127 -157.651534  L 273.677215 -155.821973  L 270.350303 -154.08401  L 267.023391 -152.401406  L 263.69648 -150.731813  L 260.369568 -149.031102  L 257.042656 -147.258097  L 253.715745 -145.378976  L 250.388833 -143.370736  L 247.061921 -141.223263  L 243.735009 -138.939842  L 240.408098 -136.53619  L 237.081186 -134.038299  L 233.754274 -131.4795  L 230.427362 -128.897185  L 227.100451 -126.329544  L 223.773539 -123.812622  L 220.446627 -121.377875  L 217.119716 -119.050336  L 213.792804 -116.84748  L 210.465892 -114.77882  L 207.13898 -112.846266  L 203.812069 -111.045206  L 200.485157 -109.366209  L 197.158245 -107.797148  L 193.831333 -106.325448  L 190.504422 -104.940151  L 187.17751 -103.633452  L 183.850598 -102.401495  L 180.523687 -101.244333  L 177.196775 -100.165107  L 173.869863 -99.168673  L 170.542951 -98.259999  L 167.21604 -97.442648  L 163.889128 -96.717658  L 160.562216 -96.082999  L 157.235305 -95.533623  L 153.908393 -95.062058  L 150.581481 -94.659315  L 147.254569 -94.315922  L 143.927658 -94.022838  L 140.600746 -93.772131  L 137.273834 -93.55731  L 133.946922 -93.373356  L 130.620011 -93.216511  L 127.293099 -93.083925  L 123.966187 -92.97329  L 120.639276 -92.882517  L 117.312364 -92.809527  L 113.985452 -92.752158  L 110.65854 -92.70817  L 107.331629 -92.675314  L 104.004717 -92.651433  L 100.677805 -92.634554  L 97.350893 -92.622958  L 94.023982 -92.615218  L 90.69707 -92.610198  z " style="stroke: #fc8d62"/>
    </defs>
    <g clip-path="url(#p2136f31b71)">
     <use xlink:href="#mc5277aa43a" x="0" y="432" style="fill: #fc8d62; stroke: #fc8d62"/>
    </g>
   </g>
   <g id="line2d_2">
    <path d="M 90.69707 339.389802  L 113.985452 339.247842  L 127.293099 338.916075  L 137.273834 338.44269  L 143.927658 337.977162  L 150.581481 337.340685  L 157.235305 336.466377  L 163.889128 335.282342  L 170.542951 333.740001  L 177.196775 331.834893  L 183.850598 329.598505  L 190.504422 327.059849  L 197.158245 324.202852  L 203.812069 320.954794  L 207.13898 319.153734  L 210.465892 317.22118  L 213.792804 315.15252  L 220.446627 310.622125  L 227.100451 305.670456  L 240.408098 295.46381  L 247.061921 290.776737  L 250.388833 288.629264  L 257.042656 284.741903  L 263.69648 281.268187  L 273.677215 276.178027  L 280.331038 272.400488  L 283.65795 270.318511  L 290.311774 265.745893  L 296.965597 260.701574  L 303.61942 255.322782  L 310.273244 249.714016  L 316.927067 243.879708  L 323.580891 237.709097  L 330.234714 231.017941  L 333.561626 227.421038  L 336.888538 223.638077  L 340.215449 219.667256  L 346.869273 211.209735  L 353.523096 202.230079  L 363.503832 188.277153  L 373.484567 174.048776  L 380.13839 164.306344  L 386.792214 154.209946  L 393.446037 143.66958  L 400.099861 132.65907  L 410.080596 115.44542  L 416.734419 103.897586  L 423.388243 92.881985  L 426.715154 87.786027  L 430.042066 83.086458  L 433.368978 78.871544  L 436.69589 75.221572  L 440.022801 72.205358  L 443.349713 69.878189  L 446.676625 68.281436  L 450.003536 67.443907  L 453.330448 67.384744  L 456.65736 68.117379  L 459.984272 69.653771  L 463.311183 72.007955  L 466.638095 75.197886  L 469.965007 79.244776  L 473.291919 84.16956  L 476.61883 89.986742  L 479.945742 96.696494  L 483.272654 104.276416  L 486.599565 112.674598  L 489.926477 121.805553  L 493.253389 131.550117  L 499.907212 152.265284  L 509.887948 183.800535  L 513.214859 193.800366  L 516.541771 203.354682  L 519.868683 212.403615  L 523.195594 220.923501  L 526.522506 228.921776  L 529.849418 236.428979  L 533.17633 243.489138  L 536.503241 250.149954  L 539.830153 256.454081  L 543.157065 262.432535  L 546.483977 268.100865  L 549.810888 273.458271  L 553.1378 278.489415  L 556.464712 283.168334  L 559.791623 287.463627  L 563.118535 291.344027  L 566.445447 294.783562  L 569.772359 297.765667  L 573.09927 300.285906  L 576.426182 302.353192  L 579.753094 303.989628  L 583.080005 305.229223  L 586.406917 306.115776  L 589.733829 306.700229  L 593.060741 307.037703  L 596.387652 307.184393  L 603.041476 307.117194  L 623.002946 306.473215  L 639.637505 306.293013  L 646.291328 306.442132  L 649.61824 306.66168  L 652.945152 307.02335  L 656.272063 307.559  L 659.598975 308.294751  L 662.925887 309.248383  L 666.252799 310.427589  L 669.57971 311.82911  L 672.906622 313.438711  L 676.233534 315.231853  L 682.887357 319.227121  L 696.195004 327.580518  L 699.521916 329.472969  L 702.848828 331.210475  L 706.175739 332.768788  L 709.502651 334.133587  L 712.829563 335.300445  L 716.156475 336.273983  L 719.483386 337.066353  L 722.810298 337.695291  L 726.13721 338.181997  L 732.791033 338.818926  L 739.444857 339.146903  L 749.425592 339.337996  L 752.752504 339.362444  L 752.752504 339.362444  " clip-path="url(#p2136f31b71)" style="fill: none; stroke: #000000; stroke-width: 1.5; stroke-linecap: round"/>
   </g>
   <g id="patch_5">
    <path d="M 44.28 339.3975  L 764.64 339.3975  " style="fill: none; stroke: #262626; stroke-width: 2; stroke-linejoin: miter; stroke-linecap: square"/>
   </g>
   <g id="text_4">
    <!-- cathepsin -->
    <g transform="translate(44.28 328.137187)scale(0.13 -0.13)">
     <defs>
      <path id="DejaVuSans-63" d="M 3122 3366  L 3122 2828  Q 2878 2963 2633 3030  Q 2388 3097 2138 3097  Q 1578 3097 1268 2742  Q 959 2388 959 1747  Q 959 1106 1268 751  Q 1578 397 2138 397  Q 2388 397 2633 464  Q 2878 531 3122 666  L 3122 134  Q 2881 22 2623 -34  Q 2366 -91 2075 -91  Q 1284 -91 818 406  Q 353 903 353 1747  Q 353 2603 823 3093  Q 1294 3584 2113 3584  Q 2378 3584 2631 3529  Q 2884 3475 3122 3366  z " transform="scale(0.015625)"/>
      <path id="DejaVuSans-61" d="M 2194 1759  Q 1497 1759 1228 1600  Q 959 1441 959 1056  Q 959 750 1161 570  Q 1363 391 1709 391  Q 2188 391 2477 730  Q 2766 1069 2766 1631  L 2766 1759  L 2194 1759  z M 3341 1997  L 3341 0  L 2766 0  L 2766 531  Q 2569 213 2275 61  Q 1981 -91 1556 -91  Q 1019 -91 701 211  Q 384 513 384 1019  Q 384 1609 779 1909  Q 1175 2209 1959 2209  L 2766 2209  L 2766 2266  Q 2766 2663 2505 2880  Q 2244 3097 1772 3097  Q 1472 3097 1187 3025  Q 903 2953 641 2809  L 641 3341  Q 956 3463 1253 3523  Q 1550 3584 1831 3584  Q 2591 3584 2966 3190  Q 3341 2797 3341 1997  z " transform="scale(0.015625)"/>
      <path id="DejaVuSans-68" d="M 3513 2113  L 3513 0  L 2938 0  L 2938 2094  Q 2938 2591 2744 2837  Q 2550 3084 2163 3084  Q 1697 3084 1428 2787  Q 1159 2491 1159 1978  L 1159 0  L 581 0  L 581 4863  L 1159 4863  L 1159 2956  Q 1366 3272 1645 3428  Q 1925 3584 2291 3584  Q 2894 3584 3203 3211  Q 3513 2838 3513 2113  z " transform="scale(0.015625)"/>
      <path id="DejaVuSans-70" d="M 1159 525  L 1159 -1331  L 581 -1331  L 581 3500  L 1159 3500  L 1159 2969  Q 1341 3281 1617 3432  Q 1894 3584 2278 3584  Q 2916 3584 3314 3078  Q 3713 2572 3713 1747  Q 3713 922 3314 415  Q 2916 -91 2278 -91  Q 1894 -91 1617 61  Q 1341 213 1159 525  z M 3116 1747  Q 3116 2381 2855 2742  Q 2594 3103 2138 3103  Q 1681 3103 1420 2742  Q 1159 2381 1159 1747  Q 1159 1113 1420 752  Q 1681 391 2138 391  Q 2594 391 2855 752  Q 3116 1113 3116 1747  z " transform="scale(0.015625)"/>
     </defs>
     <use xlink:href="#DejaVuSans-63"/>
     <use xlink:href="#DejaVuSans-61" x="54.980469"/>
     <use xlink:href="#DejaVuSans-74" x="116.259766"/>
     <use xlink:href="#DejaVuSans-68" x="155.46875"/>
     <use xlink:href="#DejaVuSans-65" x="218.847656"/>
     <use xlink:href="#DejaVuSans-70" x="280.371094"/>
     <use xlink:href="#DejaVuSans-73" x="343.847656"/>
     <use xlink:href="#DejaVuSans-69" x="395.947266"/>
     <use xlink:href="#DejaVuSans-6e" x="423.730469"/>
    </g>
   </g>
  </g>
  <g id="axes_3">
   <g id="patch_6">
    <path d="M 44.28 354.245  L 764.64 354.245  L 764.64 57.295  L 44.28 57.295  L 44.28 354.245  z " style="fill: none"/>
   </g>
   <g id="matplotlib.axis_5">
    <g id="xtick_19"/>
    <g id="xtick_20"/>
    <g id="xtick_21"/>
    <g id="xtick_22"/>
    <g id="xtick_23"/>
    <g id="xtick_24"/>
    <g id="xtick_25"/>
    <g id="xtick_26"/>
    <g id="xtick_27"/>
   </g>
   <g id="matplotlib.axis_6">
    <g id="text_5">
     <!-- Density -->
     <g style="fill: #262626" transform="translate(37.784375 228.580313)rotate(-90)scale(0.12 -0.12)">
      <use xlink:href="#DejaVuSans-44"/>
      <use xlink:href="#DejaVuSans-65" x="77.001953"/>
      <use xlink:href="#DejaVuSans-6e" x="138.525391"/>
      <use xlink:href="#DejaVuSans-73" x="201.904297"/>
      <use xlink:href="#DejaVuSans-69" x="254.003906"/>
      <use xlink:href="#DejaVuSans-74" x="281.787109"/>
      <use xlink:href="#DejaVuSans-79" x="320.996094"/>
     </g>
    </g>
   </g>
   <g id="PolyCollection_3">
    <defs>
     <path id="ma00633ada9" d="M 64.274662 -77.764023  L 64.274662 -77.755  L 67.778613 -77.755  L 71.282563 -77.755  L 74.786513 -77.755  L 78.290464 -77.755  L 81.794414 -77.755  L 85.298365 -77.755  L 88.802315 -77.755  L 92.306265 -77.755  L 95.810216 -77.755  L 99.314166 -77.755  L 102.818117 -77.755  L 106.322067 -77.755  L 109.826017 -77.755  L 113.329968 -77.755  L 116.833918 -77.755  L 120.337869 -77.755  L 123.841819 -77.755  L 127.34577 -77.755  L 130.84972 -77.755  L 134.35367 -77.755  L 137.857621 -77.755  L 141.361571 -77.755  L 144.865522 -77.755  L 148.369472 -77.755  L 151.873422 -77.755  L 155.377373 -77.755  L 158.881323 -77.755  L 162.385274 -77.755  L 165.889224 -77.755  L 169.393174 -77.755  L 172.897125 -77.755  L 176.401075 -77.755  L 179.905026 -77.755  L 183.408976 -77.755  L 186.912926 -77.755  L 190.416877 -77.755  L 193.920827 -77.755  L 197.424778 -77.755  L 200.928728 -77.755  L 204.432678 -77.755  L 207.936629 -77.755  L 211.440579 -77.755  L 214.94453 -77.755  L 218.44848 -77.755  L 221.95243 -77.755  L 225.456381 -77.755  L 228.960331 -77.755  L 232.464282 -77.755  L 235.968232 -77.755  L 239.472182 -77.755  L 242.976133 -77.755  L 246.480083 -77.755  L 249.984034 -77.755  L 253.487984 -77.755  L 256.991934 -77.755  L 260.495885 -77.755  L 263.999835 -77.755  L 267.503786 -77.755  L 271.007736 -77.755  L 274.511686 -77.755  L 278.015637 -77.755  L 281.519587 -77.755  L 285.023538 -77.755  L 288.527488 -77.755  L 292.031438 -77.755  L 295.535389 -77.755  L 299.039339 -77.755  L 302.54329 -77.755  L 306.04724 -77.755  L 309.551191 -77.755  L 313.055141 -77.755  L 316.559091 -77.755  L 320.063042 -77.755  L 323.566992 -77.755  L 327.070943 -77.755  L 330.574893 -77.755  L 334.078843 -77.755  L 337.582794 -77.755  L 341.086744 -77.755  L 344.590695 -77.755  L 348.094645 -77.755  L 351.598595 -77.755  L 355.102546 -77.755  L 358.606496 -77.755  L 362.110447 -77.755  L 365.614397 -77.755  L 369.118347 -77.755  L 372.622298 -77.755  L 376.126248 -77.755  L 379.630199 -77.755  L 383.134149 -77.755  L 386.638099 -77.755  L 390.14205 -77.755  L 393.646 -77.755  L 397.149951 -77.755  L 400.653901 -77.755  L 404.157851 -77.755  L 407.661802 -77.755  L 411.165752 -77.755  L 414.669703 -77.755  L 418.173653 -77.755  L 421.677603 -77.755  L 425.181554 -77.755  L 428.685504 -77.755  L 432.189455 -77.755  L 435.693405 -77.755  L 439.197355 -77.755  L 442.701306 -77.755  L 446.205256 -77.755  L 449.709207 -77.755  L 453.213157 -77.755  L 456.717107 -77.755  L 460.221058 -77.755  L 463.725008 -77.755  L 467.228959 -77.755  L 470.732909 -77.755  L 474.236859 -77.755  L 477.74081 -77.755  L 481.24476 -77.755  L 484.748711 -77.755  L 488.252661 -77.755  L 491.756611 -77.755  L 495.260562 -77.755  L 498.764512 -77.755  L 502.268463 -77.755  L 505.772413 -77.755  L 509.276364 -77.755  L 512.780314 -77.755  L 516.284264 -77.755  L 519.788215 -77.755  L 523.292165 -77.755  L 526.796116 -77.755  L 530.300066 -77.755  L 533.804016 -77.755  L 537.307967 -77.755  L 540.811917 -77.755  L 544.315868 -77.755  L 547.819818 -77.755  L 551.323768 -77.755  L 554.827719 -77.755  L 558.331669 -77.755  L 561.83562 -77.755  L 565.33957 -77.755  L 568.84352 -77.755  L 572.347471 -77.755  L 575.851421 -77.755  L 579.355372 -77.755  L 582.859322 -77.755  L 586.363272 -77.755  L 589.867223 -77.755  L 593.371173 -77.755  L 596.875124 -77.755  L 600.379074 -77.755  L 603.883024 -77.755  L 607.386975 -77.755  L 610.890925 -77.755  L 614.394876 -77.755  L 617.898826 -77.755  L 621.402776 -77.755  L 624.906727 -77.755  L 628.410677 -77.755  L 631.914628 -77.755  L 635.418578 -77.755  L 638.922528 -77.755  L 642.426479 -77.755  L 645.930429 -77.755  L 649.43438 -77.755  L 652.93833 -77.755  L 656.44228 -77.755  L 659.946231 -77.755  L 663.450181 -77.755  L 666.954132 -77.755  L 670.458082 -77.755  L 673.962032 -77.755  L 677.465983 -77.755  L 680.969933 -77.755  L 684.473884 -77.755  L 687.977834 -77.755  L 691.481785 -77.755  L 694.985735 -77.755  L 698.489685 -77.755  L 701.993636 -77.755  L 705.497586 -77.755  L 709.001537 -77.755  L 712.505487 -77.755  L 716.009437 -77.755  L 719.513388 -77.755  L 723.017338 -77.755  L 726.521289 -77.755  L 730.025239 -77.755  L 733.529189 -77.755  L 737.03314 -77.755  L 740.53709 -77.755  L 744.041041 -77.755  L 747.544991 -77.755  L 751.048941 -77.755  L 754.552892 -77.755  L 758.056842 -77.755  L 761.560793 -77.755  L 761.560793 -77.779647  L 761.560793 -77.779647  L 758.056842 -77.796904  L 754.552892 -77.824693  L 751.048941 -77.868412  L 747.544991 -77.935624  L 744.041041 -78.03661  L 740.53709 -78.184923  L 737.03314 -78.397866  L 733.529189 -78.696793  L 730.025239 -79.107117  L 726.521289 -79.657906  L 723.017338 -80.380935  L 719.513388 -81.309129  L 716.009437 -82.474359  L 712.505487 -83.90465  L 709.001537 -85.620961  L 705.497586 -87.633789  L 701.993636 -89.939967  L 698.489685 -92.520065  L 694.985735 -95.336845  L 691.481785 -98.335152  L 687.977834 -101.443507  L 684.473884 -104.577489  L 680.969933 -107.644738  L 677.465983 -110.551162  L 673.962032 -113.207742  L 670.458082 -115.53714  L 666.954132 -117.479333  L 663.450181 -118.995573  L 659.946231 -120.070218  L 656.44228 -120.710277  L 652.93833 -120.942858  L 649.43438 -120.811012  L 645.930429 -120.368655  L 642.426479 -119.67529  L 638.922528 -118.791213  L 635.418578 -117.773642  L 631.914628 -116.674001  L 628.410677 -115.536338  L 624.906727 -114.396696  L 621.402776 -113.283175  L 617.898826 -112.216454  L 614.394876 -111.210608  L 610.890925 -110.274166  L 607.386975 -109.411397  L 603.883024 -108.623864  L 600.379074 -107.91219  L 596.875124 -107.27794  L 593.371173 -106.725404  L 589.867223 -106.263041  L 586.363272 -105.904332  L 582.859322 -105.66785  L 579.355372 -105.576497  L 575.851421 -105.655952  L 572.347471 -105.932516  L 568.84352 -106.430623  L 565.33957 -107.170298  L 561.83562 -108.16488  L 558.331669 -109.419237  L 554.827719 -110.928671  L 551.323768 -112.678633  L 547.819818 -114.645288  L 544.315868 -116.796908  L 540.811917 -119.095978  L 537.307967 -121.501854  L 533.804016 -123.973722  L 530.300066 -126.473561  L 526.796116 -128.968843  L 523.292165 -131.434677  L 519.788215 -133.855242  L 516.284264 -136.224402  L 512.780314 -138.545537  L 509.276364 -140.830714  L 505.772413 -143.099326  L 502.268463 -145.376409  L 498.764512 -147.690739  L 495.260562 -150.072838  L 491.756611 -152.552968  L 488.252661 -155.159207  L 484.748711 -157.915775  L 481.24476 -160.841786  L 477.74081 -163.950699  L 474.236859 -167.250651  L 470.732909 -170.745796  L 467.228959 -174.438522  L 463.725008 -178.332242  L 460.221058 -182.434185  L 456.717107 -186.757543  L 453.213157 -191.322331  L 449.709207 -196.154525  L 446.205256 -201.283364  L 442.701306 -206.737089  L 439.197355 -212.537728  L 435.693405 -218.695756  L 432.189455 -225.205478  L 428.685504 -232.041865  L 425.181554 -239.159257  L 421.677603 -246.492059  L 418.173653 -253.957236  L 414.669703 -261.458227  L 411.165752 -268.889818  L 407.661802 -276.143549  L 404.157851 -283.113261  L 400.653901 -289.700521  L 397.149951 -295.819637  L 393.646 -301.402023  L 390.14205 -306.399596  L 386.638099 -310.786923  L 383.134149 -314.561809  L 379.630199 -317.744184  L 376.126248 -320.373241  L 372.622298 -322.503011  L 369.118347 -324.196719  L 365.614397 -325.520415  L 362.110447 -326.536461  L 358.606496 -327.297447  L 355.102546 -327.841102  L 351.598595 -328.186631  L 348.094645 -328.332849  L 344.590695 -328.258268  L 341.086744 -327.923183  L 337.582794 -327.273535  L 334.078843 -326.246192  L 330.574893 -324.775036  L 327.070943 -322.797173  L 323.566992 -320.258491  L 320.063042 -317.117919  L 316.559091 -313.349932  L 313.055141 -308.945112  L 309.551191 -303.908965  L 306.04724 -298.259438  L 302.54329 -292.023834  L 299.039339 -285.235843  L 295.535389 -277.933338  L 292.031438 -270.157324  L 288.527488 -261.952131  L 285.023538 -253.36659  L 281.519587 -244.455694  L 278.015637 -235.28212  L 274.511686 -225.917001  L 271.007736 -216.439527  L 267.503786 -206.93524  L 263.999835 -197.493139  L 260.495885 -188.202013  L 256.991934 -179.146532  L 253.487984 -170.403637  L 249.984034 -162.039668  L 246.480083 -154.108482  L 242.976133 -146.650602  L 239.472182 -139.693269  L 235.968232 -133.251178  L 232.464282 -127.327672  L 228.960331 -121.916181  L 225.456381 -117.001811  L 221.95243 -112.563011  L 218.44848 -108.573282  L 214.94453 -105.002885  L 211.440579 -101.820459  L 207.936629 -98.994431  L 204.432678 -96.494096  L 200.928728 -94.290271  L 197.424778 -92.355503  L 193.920827 -90.663912  L 190.416877 -89.190793  L 186.912926 -87.912189  L 183.408976 -86.804601  L 179.905026 -85.844984  L 176.401075 -85.011046  L 172.897125 -84.281815  L 169.393174 -83.638331  L 165.889224 -83.06429  L 162.385274 -82.546478  L 158.881323 -82.074891  L 155.377373 -81.642495  L 151.873422 -81.244696  L 148.369472 -80.87862  L 144.865522 -80.542364  L 141.361571 -80.234351  L 137.857621 -79.952894  L 134.35367 -79.696007  L 130.84972 -79.461443  L 127.34577 -79.246894  L 123.841819 -79.050247  L 120.337869 -78.869814  L 116.833918 -78.704468  L 113.329968 -78.553644  L 109.826017 -78.417228  L 106.322067 -78.29536  L 102.818117 -78.188206  L 99.314166 -78.095752  L 95.810216 -78.017665  L 92.306265 -77.953221  L 88.802315 -77.901326  L 85.298365 -77.86059  L 81.794414 -77.829441  L 78.290464 -77.806249  L 74.786513 -77.789443  L 71.282563 -77.77759  L 67.778613 -77.769455  L 64.274662 -77.764023  z " style="stroke: #8da0cb"/>
    </defs>
    <g clip-path="url(#p52f7d1c523)">
     <use xlink:href="#ma00633ada9" x="0" y="432" style="fill: #8da0cb; stroke: #8da0cb"/>
    </g>
   </g>
   <g id="line2d_3">
    <path d="M 64.274662 354.235977  L 88.802315 354.098674  L 102.818117 353.811794  L 116.833918 353.295532  L 130.84972 352.538557  L 141.361571 351.765649  L 151.873422 350.755304  L 162.385274 349.453522  L 169.393174 348.361669  L 176.401075 346.988954  L 179.905026 346.155016  L 183.408976 345.195399  L 186.912926 344.087811  L 190.416877 342.809207  L 193.920827 341.336088  L 197.424778 339.644497  L 200.928728 337.709729  L 204.432678 335.505904  L 207.936629 333.005569  L 211.440579 330.179541  L 214.94453 326.997115  L 218.44848 323.426718  L 221.95243 319.436989  L 225.456381 314.998189  L 228.960331 310.083819  L 232.464282 304.672328  L 235.968232 298.748822  L 239.472182 292.306731  L 242.976133 285.349398  L 246.480083 277.891518  L 249.984034 269.960332  L 253.487984 261.596363  L 256.991934 252.853468  L 263.999835 234.506861  L 281.519587 187.544306  L 285.023538 178.63341  L 288.527488 170.047869  L 292.031438 161.842676  L 295.535389 154.066662  L 299.039339 146.764157  L 302.54329 139.976166  L 306.04724 133.740562  L 309.551191 128.091035  L 313.055141 123.054888  L 316.559091 118.650068  L 320.063042 114.882081  L 323.566992 111.741509  L 327.070943 109.202827  L 330.574893 107.224964  L 334.078843 105.753808  L 337.582794 104.726465  L 341.086744 104.076817  L 344.590695 103.741732  L 348.094645 103.667151  L 351.598595 103.813369  L 355.102546 104.158898  L 358.606496 104.702553  L 362.110447 105.463539  L 365.614397 106.479585  L 369.118347 107.803281  L 372.622298 109.496989  L 376.126248 111.626759  L 379.630199 114.255816  L 383.134149 117.438191  L 386.638099 121.213077  L 390.14205 125.600404  L 393.646 130.597977  L 397.149951 136.180363  L 400.653901 142.299479  L 404.157851 148.886739  L 407.661802 155.856451  L 414.669703 170.541773  L 425.181554 192.840743  L 428.685504 199.958135  L 432.189455 206.794522  L 435.693405 213.304244  L 439.197355 219.462272  L 442.701306 225.262911  L 446.205256 230.716636  L 449.709207 235.845475  L 453.213157 240.677669  L 456.717107 245.242457  L 460.221058 249.565815  L 463.725008 253.667758  L 467.228959 257.561478  L 470.732909 261.254204  L 474.236859 264.749349  L 477.74081 268.049301  L 481.24476 271.158214  L 484.748711 274.084225  L 488.252661 276.840793  L 495.260562 281.927162  L 502.268463 286.623591  L 516.284264 295.775598  L 523.292165 300.565323  L 540.811917 312.904022  L 544.315868 315.203092  L 547.819818 317.354712  L 551.323768 319.321367  L 554.827719 321.071329  L 558.331669 322.580763  L 561.83562 323.83512  L 565.33957 324.829702  L 568.84352 325.569377  L 572.347471 326.067484  L 575.851421 326.344048  L 579.355372 326.423503  L 582.859322 326.33215  L 586.363272 326.095668  L 593.371173 325.274596  L 600.379074 324.08781  L 607.386975 322.588603  L 614.394876 320.789392  L 621.402776 318.716825  L 638.922528 313.208787  L 642.426479 312.32471  L 645.930429 311.631345  L 649.43438 311.188988  L 652.93833 311.057142  L 656.44228 311.289723  L 659.946231 311.929782  L 663.450181 313.004427  L 666.954132 314.520667  L 670.458082 316.46286  L 673.962032 318.792258  L 677.465983 321.448838  L 680.969933 324.355262  L 694.985735 336.663155  L 698.489685 339.479935  L 701.993636 342.060033  L 705.497586 344.366211  L 709.001537 346.379039  L 712.505487 348.09535  L 716.009437 349.525641  L 719.513388 350.690871  L 723.017338 351.619065  L 726.521289 352.342094  L 730.025239 352.892883  L 737.03314 353.602134  L 744.041041 353.96339  L 754.552892 354.175307  L 761.560793 354.220353  L 761.560793 354.220353  " clip-path="url(#p52f7d1c523)" style="fill: none; stroke: #000000; stroke-width: 1.5; stroke-linecap: round"/>
   </g>
   <g id="patch_7">
    <path d="M 44.28 354.245  L 764.64 354.245  " style="fill: none; stroke: #262626; stroke-width: 2; stroke-linejoin: miter; stroke-linecap: square"/>
   </g>
   <g id="text_6">
    <!-- tegument -->
    <g transform="translate(44.28 342.984688)scale(0.13 -0.13)">
     <defs>
      <path id="DejaVuSans-67" d="M 2906 1791  Q 2906 2416 2648 2759  Q 2391 3103 1925 3103  Q 1463 3103 1205 2759  Q 947 2416 947 1791  Q 947 1169 1205 825  Q 1463 481 1925 481  Q 2391 481 2648 825  Q 2906 1169 2906 1791  z M 3481 434  Q 3481 -459 3084 -895  Q 2688 -1331 1869 -1331  Q 1566 -1331 1297 -1286  Q 1028 -1241 775 -1147  L 775 -588  Q 1028 -725 1275 -790  Q 1522 -856 1778 -856  Q 2344 -856 2625 -561  Q 2906 -266 2906 331  L 2906 616  Q 2728 306 2450 153  Q 2172 0 1784 0  Q 1141 0 747 490  Q 353 981 353 1791  Q 353 2603 747 3093  Q 1141 3584 1784 3584  Q 2172 3584 2450 3431  Q 2728 3278 2906 2969  L 2906 3500  L 3481 3500  L 3481 434  z " transform="scale(0.015625)"/>
      <path id="DejaVuSans-75" d="M 544 1381  L 544 3500  L 1119 3500  L 1119 1403  Q 1119 906 1312 657  Q 1506 409 1894 409  Q 2359 409 2629 706  Q 2900 1003 2900 1516  L 2900 3500  L 3475 3500  L 3475 0  L 2900 0  L 2900 538  Q 2691 219 2414 64  Q 2138 -91 1772 -91  Q 1169 -91 856 284  Q 544 659 544 1381  z M 1991 3584  L 1991 3584  z " transform="scale(0.015625)"/>
      <path id="DejaVuSans-6d" d="M 3328 2828  Q 3544 3216 3844 3400  Q 4144 3584 4550 3584  Q 5097 3584 5394 3201  Q 5691 2819 5691 2113  L 5691 0  L 5113 0  L 5113 2094  Q 5113 2597 4934 2840  Q 4756 3084 4391 3084  Q 3944 3084 3684 2787  Q 3425 2491 3425 1978  L 3425 0  L 2847 0  L 2847 2094  Q 2847 2600 2669 2842  Q 2491 3084 2119 3084  Q 1678 3084 1418 2786  Q 1159 2488 1159 1978  L 1159 0  L 581 0  L 581 3500  L 1159 3500  L 1159 2956  Q 1356 3278 1631 3431  Q 1906 3584 2284 3584  Q 2666 3584 2933 3390  Q 3200 3197 3328 2828  z " transform="scale(0.015625)"/>
     </defs>
     <use xlink:href="#DejaVuSans-74"/>
     <use xlink:href="#DejaVuSans-65" x="39.208984"/>
     <use xlink:href="#DejaVuSans-67" x="100.732422"/>
     <use xlink:href="#DejaVuSans-75" x="164.208984"/>
     <use xlink:href="#DejaVuSans-6d" x="227.587891"/>
     <use xlink:href="#DejaVuSans-65" x="325"/>
     <use xlink:href="#DejaVuSans-6e" x="386.523438"/>
     <use xlink:href="#DejaVuSans-74" x="449.902344"/>
    </g>
   </g>
  </g>
  <g id="axes_4">
   <g id="patch_8">
    <path d="M 44.28 369.0925  L 764.64 369.0925  L 764.64 72.1425  L 44.28 72.1425  L 44.28 369.0925  z " style="fill: none"/>
   </g>
   <g id="matplotlib.axis_7">
    <g id="xtick_28"/>
    <g id="xtick_29"/>
    <g id="xtick_30"/>
    <g id="xtick_31"/>
    <g id="xtick_32"/>
    <g id="xtick_33"/>
    <g id="xtick_34"/>
    <g id="xtick_35"/>
    <g id="xtick_36"/>
   </g>
   <g id="matplotlib.axis_8">
    <g id="text_7">
     <!-- Density -->
     <g style="fill: #262626" transform="translate(37.784375 243.427813)rotate(-90)scale(0.12 -0.12)">
      <use xlink:href="#DejaVuSans-44"/>
      <use xlink:href="#DejaVuSans-65" x="77.001953"/>
      <use xlink:href="#DejaVuSans-6e" x="138.525391"/>
      <use xlink:href="#DejaVuSans-73" x="201.904297"/>
      <use xlink:href="#DejaVuSans-69" x="254.003906"/>
      <use xlink:href="#DejaVuSans-74" x="281.787109"/>
      <use xlink:href="#DejaVuSans-79" x="320.996094"/>
     </g>
    </g>
   </g>
   <g id="PolyCollection_4">
    <defs>
     <path id="mccebee1e85" d="M 15.381584 -62.91206  L 15.381584 -62.9075  L 19.122419 -62.9075  L 22.863255 -62.9075  L 26.60409 -62.9075  L 30.344926 -62.9075  L 34.085761 -62.9075  L 37.826597 -62.9075  L 41.567432 -62.9075  L 45.308267 -62.9075  L 49.049103 -62.9075  L 52.789938 -62.9075  L 56.530774 -62.9075  L 60.271609 -62.9075  L 64.012445 -62.9075  L 67.75328 -62.9075  L 71.494116 -62.9075  L 75.234951 -62.9075  L 78.975786 -62.9075  L 82.716622 -62.9075  L 86.457457 -62.9075  L 90.198293 -62.9075  L 93.939128 -62.9075  L 97.679964 -62.9075  L 101.420799 -62.9075  L 105.161634 -62.9075  L 108.90247 -62.9075  L 112.643305 -62.9075  L 116.384141 -62.9075  L 120.124976 -62.9075  L 123.865812 -62.9075  L 127.606647 -62.9075  L 131.347483 -62.9075  L 135.088318 -62.9075  L 138.829153 -62.9075  L 142.569989 -62.9075  L 146.310824 -62.9075  L 150.05166 -62.9075  L 153.792495 -62.9075  L 157.533331 -62.9075  L 161.274166 -62.9075  L 165.015002 -62.9075  L 168.755837 -62.9075  L 172.496672 -62.9075  L 176.237508 -62.9075  L 179.978343 -62.9075  L 183.719179 -62.9075  L 187.460014 -62.9075  L 191.20085 -62.9075  L 194.941685 -62.9075  L 198.682521 -62.9075  L 202.423356 -62.9075  L 206.164191 -62.9075  L 209.905027 -62.9075  L 213.645862 -62.9075  L 217.386698 -62.9075  L 221.127533 -62.9075  L 224.868369 -62.9075  L 228.609204 -62.9075  L 232.350039 -62.9075  L 236.090875 -62.9075  L 239.83171 -62.9075  L 243.572546 -62.9075  L 247.313381 -62.9075  L 251.054217 -62.9075  L 254.795052 -62.9075  L 258.535888 -62.9075  L 262.276723 -62.9075  L 266.017558 -62.9075  L 269.758394 -62.9075  L 273.499229 -62.9075  L 277.240065 -62.9075  L 280.9809 -62.9075  L 284.721736 -62.9075  L 288.462571 -62.9075  L 292.203407 -62.9075  L 295.944242 -62.9075  L 299.685077 -62.9075  L 303.425913 -62.9075  L 307.166748 -62.9075  L 310.907584 -62.9075  L 314.648419 -62.9075  L 318.389255 -62.9075  L 322.13009 -62.9075  L 325.870926 -62.9075  L 329.611761 -62.9075  L 333.352596 -62.9075  L 337.093432 -62.9075  L 340.834267 -62.9075  L 344.575103 -62.9075  L 348.315938 -62.9075  L 352.056774 -62.9075  L 355.797609 -62.9075  L 359.538444 -62.9075  L 363.27928 -62.9075  L 367.020115 -62.9075  L 370.760951 -62.9075  L 374.501786 -62.9075  L 378.242622 -62.9075  L 381.983457 -62.9075  L 385.724293 -62.9075  L 389.465128 -62.9075  L 393.205963 -62.9075  L 396.946799 -62.9075  L 400.687634 -62.9075  L 404.42847 -62.9075  L 408.169305 -62.9075  L 411.910141 -62.9075  L 415.650976 -62.9075  L 419.391812 -62.9075  L 423.132647 -62.9075  L 426.873482 -62.9075  L 430.614318 -62.9075  L 434.355153 -62.9075  L 438.095989 -62.9075  L 441.836824 -62.9075  L 445.57766 -62.9075  L 449.318495 -62.9075  L 453.059331 -62.9075  L 456.800166 -62.9075  L 460.541001 -62.9075  L 464.281837 -62.9075  L 468.022672 -62.9075  L 471.763508 -62.9075  L 475.504343 -62.9075  L 479.245179 -62.9075  L 482.986014 -62.9075  L 486.726849 -62.9075  L 490.467685 -62.9075  L 494.20852 -62.9075  L 497.949356 -62.9075  L 501.690191 -62.9075  L 505.431027 -62.9075  L 509.171862 -62.9075  L 512.912698 -62.9075  L 516.653533 -62.9075  L 520.394368 -62.9075  L 524.135204 -62.9075  L 527.876039 -62.9075  L 531.616875 -62.9075  L 535.35771 -62.9075  L 539.098546 -62.9075  L 542.839381 -62.9075  L 546.580217 -62.9075  L 550.321052 -62.9075  L 554.061887 -62.9075  L 557.802723 -62.9075  L 561.543558 -62.9075  L 565.284394 -62.9075  L 569.025229 -62.9075  L 572.766065 -62.9075  L 576.5069 -62.9075  L 580.247736 -62.9075  L 583.988571 -62.9075  L 587.729406 -62.9075  L 591.470242 -62.9075  L 595.211077 -62.9075  L 598.951913 -62.9075  L 602.692748 -62.9075  L 606.433584 -62.9075  L 610.174419 -62.9075  L 613.915254 -62.9075  L 617.65609 -62.9075  L 621.396925 -62.9075  L 625.137761 -62.9075  L 628.878596 -62.9075  L 632.619432 -62.9075  L 636.360267 -62.9075  L 640.101103 -62.9075  L 643.841938 -62.9075  L 647.582773 -62.9075  L 651.323609 -62.9075  L 655.064444 -62.9075  L 658.80528 -62.9075  L 662.546115 -62.9075  L 666.286951 -62.9075  L 670.027786 -62.9075  L 673.768622 -62.9075  L 677.509457 -62.9075  L 681.250292 -62.9075  L 684.991128 -62.9075  L 688.731963 -62.9075  L 692.472799 -62.9075  L 696.213634 -62.9075  L 699.95447 -62.9075  L 703.695305 -62.9075  L 707.436141 -62.9075  L 711.176976 -62.9075  L 714.917811 -62.9075  L 718.658647 -62.9075  L 722.399482 -62.9075  L 726.140318 -62.9075  L 729.881153 -62.9075  L 733.621989 -62.9075  L 737.362824 -62.9075  L 741.103659 -62.9075  L 744.844495 -62.9075  L 748.58533 -62.9075  L 752.326166 -62.9075  L 756.067001 -62.9075  L 759.807837 -62.9075  L 759.807837 -62.940023  L 759.807837 -62.940023  L 756.067001 -62.96504  L 752.326166 -63.006589  L 748.58533 -63.073635  L 744.844495 -63.178762  L 741.103659 -63.338958  L 737.362824 -63.57623  L 733.621989 -63.91788  L 729.881153 -64.396231  L 726.140318 -65.047629  L 722.399482 -65.910601  L 718.658647 -67.023161  L 714.917811 -68.419408  L 711.176976 -70.125685  L 707.436141 -72.156727  L 703.695305 -74.512259  L 699.95447 -77.174509  L 696.213634 -80.107025  L 692.472799 -83.255004  L 688.731963 -86.547222  L 684.991128 -89.899431  L 681.250292 -93.218987  L 677.509457 -96.410357  L 673.768622 -99.381066  L 670.027786 -102.047621  L 666.286951 -104.340903  L 662.546115 -106.21054  L 658.80528 -107.62784  L 655.064444 -108.586993  L 651.323609 -109.104466  L 647.582773 -109.216726  L 643.841938 -108.976655  L 640.101103 -108.44914  L 636.360267 -107.706379  L 632.619432 -106.823335  L 628.878596 -105.873668  L 625.137761 -104.92629  L 621.396925 -104.042596  L 617.65609 -103.274384  L 613.915254 -102.662497  L 610.174419 -102.236258  L 606.433584 -102.013796  L 602.692748 -102.003309  L 598.951913 -102.205216  L 595.211077 -102.614997  L 591.470242 -103.226397  L 587.729406 -104.034585  L 583.988571 -105.038869  L 580.247736 -106.244644  L 576.5069 -107.664366  L 572.766065 -109.317488  L 569.025229 -111.229453  L 565.284394 -113.429887  L 561.543558 -115.950272  L 557.802723 -118.821395  L 554.061887 -122.070918  L 550.321052 -125.7214  L 546.580217 -129.789046  L 542.839381 -134.283324  L 539.098546 -139.207401  L 535.35771 -144.559176  L 531.616875 -150.33249  L 527.876039 -156.518055  L 524.135204 -163.103728  L 520.394368 -170.073926  L 516.653533 -177.408267  L 512.912698 -185.079771  L 509.171862 -193.053114  L 505.431027 -201.283433  L 501.690191 -209.716035  L 497.949356 -218.287127  L 494.20852 -226.925418  L 490.467685 -235.554212  L 486.726849 -244.093568  L 482.986014 -252.46208  L 479.245179 -260.57804  L 475.504343 -268.359898  L 471.763508 -275.726193  L 468.022672 -282.595288  L 464.281837 -288.885376  L 460.541001 -294.515229  L 456.800166 -299.40613  L 453.059331 -303.48518  L 449.318495 -306.689952  L 445.57766 -308.974067  L 441.836824 -310.312966  L 438.095989 -310.708877  L 434.355153 -310.193937  L 430.614318 -308.830553  L 426.873482 -306.708484  L 423.132647 -303.93862  L 419.391812 -300.644067  L 415.650976 -296.949605  L 411.910141 -292.970952  L 408.169305 -288.80532  L 404.42847 -284.524591  L 400.687634 -280.172017  L 396.946799 -275.762815  L 393.205963 -271.288432  L 389.465128 -266.723706  L 385.724293 -262.035763  L 381.983457 -257.193249  L 378.242622 -252.174529  L 374.501786 -246.97368  L 370.760951 -241.603489  L 367.020115 -236.095171  L 363.27928 -230.495012  L 359.538444 -224.858636  L 355.797609 -219.243946  L 352.056774 -213.703947  L 348.315938 -208.280697  L 344.575103 -203.00138  L 340.834267 -197.877137  L 337.093432 -192.904773  L 333.352596 -188.070915  L 329.611761 -183.357723  L 325.870926 -178.748957  L 322.13009 -174.235129  L 318.389255 -169.816744  L 314.648419 -165.505027  L 310.907584 -161.320161  L 307.166748 -157.287562  L 303.425913 -153.433123  L 299.685077 -149.778482  L 295.944242 -146.337196  L 292.203407 -143.112465  L 288.462571 -140.096568  L 284.721736 -137.271886  L 280.9809 -134.613135  L 277.240065 -132.090314  L 273.499229 -129.671918  L 269.758394 -127.327994  L 266.017558 -125.032703  L 262.276723 -122.766105  L 258.535888 -120.514949  L 254.795052 -118.27237  L 251.054217 -116.036527  L 247.313381 -113.808442  L 243.572546 -111.589466  L 239.83171 -109.37894  L 236.090875 -107.172606  L 232.350039 -104.962176  L 228.609204 -102.736228  L 224.868369 -100.482247  L 221.127533 -98.189403  L 217.386698 -95.851456  L 213.645862 -93.469168  L 209.905027 -91.051747  L 206.164191 -88.61703  L 202.423356 -86.190416  L 198.682521 -83.802755  L 194.941685 -81.487566  L 191.20085 -79.278028  L 187.460014 -77.204168  L 183.719179 -75.290567  L 179.978343 -73.554804  L 176.237508 -72.00673  L 172.496672 -70.648519  L 168.755837 -69.475381  L 165.015002 -68.476749  L 161.274166 -67.637725  L 157.533331 -66.940591  L 153.792495 -66.366236  L 150.05166 -65.895386  L 146.310824 -65.509588  L 142.569989 -65.19195  L 138.829153 -64.927657  L 135.088318 -64.704288  L 131.347483 -64.511963  L 127.606647 -64.34334  L 123.865812 -64.193443  L 120.124976 -64.059351  L 116.384141 -63.939741  L 112.643305 -63.834333  L 108.90247 -63.743293  L 105.161634 -63.66666  L 101.420799 -63.603899  L 97.679964 -63.553635  L 93.939128 -63.513605  L 90.198293 -63.480839  L 86.457457 -63.45201  L 82.716622 -63.423881  L 78.975786 -63.393749  L 75.234951 -63.359791  L 71.494116 -63.321247  L 67.75328 -63.278422  L 64.012445 -63.232501  L 60.271609 -63.185258  L 56.530774 -63.1387  L 52.789938 -63.094734  L 49.049103 -63.05491  L 45.308267 -63.020266  L 41.567432 -62.991285  L 37.826597 -62.967948  L 34.085761 -62.949838  L 30.344926 -62.936284  L 26.60409 -62.926494  L 22.863255 -62.919664  L 19.122419 -62.91506  L 15.381584 -62.91206  z " style="stroke: #e78ac3"/>
    </defs>
    <g clip-path="url(#pde449d55f7)">
     <use xlink:href="#mccebee1e85" x="0" y="432" style="fill: #e78ac3; stroke: #e78ac3"/>
    </g>
   </g>
   <g id="line2d_4">
    <path d="M 15.381584 369.08794  L 45.308267 368.979734  L 105.161634 368.33334  L 120.124976 367.940649  L 135.088318 367.295712  L 142.569989 366.80805  L 150.05166 366.104614  L 157.533331 365.059409  L 161.274166 364.362275  L 165.015002 363.523251  L 168.755837 362.524619  L 172.496672 361.351481  L 176.237508 359.99327  L 179.978343 358.445196  L 183.719179 356.709433  L 187.460014 354.795832  L 191.20085 352.721972  L 198.682521 348.197245  L 224.868369 331.517753  L 239.83171 322.62106  L 262.276723 309.233895  L 273.499229 302.328082  L 280.9809 297.386865  L 284.721736 294.728114  L 288.462571 291.903432  L 292.203407 288.887535  L 295.944242 285.662804  L 299.685077 282.221518  L 303.425913 278.566877  L 307.166748 274.712438  L 314.648419 266.494973  L 322.13009 257.764871  L 329.611761 248.642277  L 337.093432 239.095227  L 344.575103 228.99862  L 352.056774 218.296053  L 363.27928 201.504988  L 370.760951 190.396511  L 378.242622 179.825471  L 385.724293 169.964237  L 393.205963 160.711568  L 400.687634 151.827983  L 408.169305 143.19468  L 411.910141 139.029048  L 415.650976 135.050395  L 419.391812 131.355933  L 423.132647 128.06138  L 426.873482 125.291516  L 430.614318 123.169447  L 434.355153 121.806063  L 438.095989 121.291123  L 441.836824 121.687034  L 445.57766 123.025933  L 449.318495 125.310048  L 453.059331 128.51482  L 456.800166 132.59387  L 460.541001 137.484771  L 464.281837 143.114624  L 468.022672 149.404712  L 471.763508 156.273807  L 475.504343 163.640102  L 479.245179 171.42196  L 486.726849 187.906432  L 509.171862 238.946886  L 512.912698 246.920229  L 516.653533 254.591733  L 520.394368 261.926074  L 524.135204 268.896272  L 527.876039 275.481945  L 531.616875 281.66751  L 535.35771 287.440824  L 539.098546 292.792599  L 542.839381 297.716676  L 546.580217 302.210954  L 550.321052 306.2786  L 554.061887 309.929082  L 557.802723 313.178605  L 561.543558 316.049728  L 565.284394 318.570113  L 569.025229 320.770547  L 572.766065 322.682512  L 576.5069 324.335634  L 580.247736 325.755356  L 583.988571 326.961131  L 587.729406 327.965415  L 591.470242 328.773603  L 595.211077 329.385003  L 598.951913 329.794784  L 602.692748 329.996691  L 606.433584 329.986204  L 610.174419 329.763742  L 613.915254 329.337503  L 617.65609 328.725616  L 621.396925 327.957404  L 628.878596 326.126332  L 636.360267 324.293621  L 640.101103 323.55086  L 643.841938 323.023345  L 647.582773 322.783274  L 651.323609 322.895534  L 655.064444 323.413007  L 658.80528 324.37216  L 662.546115 325.78946  L 666.286951 327.659097  L 670.027786 329.952379  L 673.768622 332.618934  L 677.509457 335.589643  L 684.991128 342.100569  L 692.472799 348.744996  L 696.213634 351.892975  L 699.95447 354.825491  L 703.695305 357.487741  L 707.436141 359.843273  L 711.176976 361.874315  L 714.917811 363.580592  L 718.658647 364.976839  L 722.399482 366.089399  L 726.140318 366.952371  L 729.881153 367.603769  L 733.621989 368.08212  L 741.103659 368.661042  L 748.58533 368.926365  L 759.807837 369.059977  L 759.807837 369.059977  " clip-path="url(#pde449d55f7)" style="fill: none; stroke: #000000; stroke-width: 1.5; stroke-linecap: round"/>
   </g>
   <g id="patch_9">
    <path d="M 44.28 369.0925  L 764.64 369.0925  " style="fill: none; stroke: #262626; stroke-width: 2; stroke-linejoin: miter; stroke-linecap: square"/>
   </g>
   <g id="text_8">
    <!-- parenchyma -->
    <g transform="translate(44.28 357.832188)scale(0.13 -0.13)">
     <defs>
      <path id="DejaVuSans-72" d="M 2631 2963  Q 2534 3019 2420 3045  Q 2306 3072 2169 3072  Q 1681 3072 1420 2755  Q 1159 2438 1159 1844  L 1159 0  L 581 0  L 581 3500  L 1159 3500  L 1159 2956  Q 1341 3275 1631 3429  Q 1922 3584 2338 3584  Q 2397 3584 2469 3576  Q 2541 3569 2628 3553  L 2631 2963  z " transform="scale(0.015625)"/>
     </defs>
     <use xlink:href="#DejaVuSans-70"/>
     <use xlink:href="#DejaVuSans-61" x="63.476562"/>
     <use xlink:href="#DejaVuSans-72" x="124.755859"/>
     <use xlink:href="#DejaVuSans-65" x="163.619141"/>
     <use xlink:href="#DejaVuSans-6e" x="225.142578"/>
     <use xlink:href="#DejaVuSans-63" x="288.521484"/>
     <use xlink:href="#DejaVuSans-68" x="343.501953"/>
     <use xlink:href="#DejaVuSans-79" x="406.880859"/>
     <use xlink:href="#DejaVuSans-6d" x="466.060547"/>
     <use xlink:href="#DejaVuSans-61" x="563.472656"/>
    </g>
   </g>
  </g>
  <g id="axes_5">
   <g id="patch_10">
    <path d="M 44.28 383.94  L 764.64 383.94  L 764.64 86.99  L 44.28 86.99  L 44.28 383.94  z " style="fill: none"/>
   </g>
   <g id="matplotlib.axis_9">
    <g id="xtick_37">
     <g id="text_9">
      <!-- 0.6 -->
      <g style="fill: #262626" transform="translate(70.944453 401.798281)scale(0.11 -0.11)">
       <defs>
        <path id="DejaVuSans-2212" d="M 678 2272  L 4684 2272  L 4684 1741  L 678 1741  L 678 2272  z " transform="scale(0.015625)"/>
        <path id="DejaVuSans-30" d="M 2034 4250  Q 1547 4250 1301 3770  Q 1056 3291 1056 2328  Q 1056 1369 1301 889  Q 1547 409 2034 409  Q 2525 409 2770 889  Q 3016 1369 3016 2328  Q 3016 3291 2770 3770  Q 2525 4250 2034 4250  z M 2034 4750  Q 2819 4750 3233 4129  Q 3647 3509 3647 2328  Q 3647 1150 3233 529  Q 2819 -91 2034 -91  Q 1250 -91 836 529  Q 422 1150 422 2328  Q 422 3509 836 4129  Q 1250 4750 2034 4750  z " transform="scale(0.015625)"/>
        <path id="DejaVuSans-2e" d="M 684 794  L 1344 794  L 1344 0  L 684 0  L 684 794  z " transform="scale(0.015625)"/>
        <path id="DejaVuSans-36" d="M 2113 2584  Q 1688 2584 1439 2293  Q 1191 2003 1191 1497  Q 1191 994 1439 701  Q 1688 409 2113 409  Q 2538 409 2786 701  Q 3034 994 3034 1497  Q 3034 2003 2786 2293  Q 2538 2584 2113 2584  z M 3366 4563  L 3366 3988  Q 3128 4100 2886 4159  Q 2644 4219 2406 4219  Q 1781 4219 1451 3797  Q 1122 3375 1075 2522  Q 1259 2794 1537 2939  Q 1816 3084 2150 3084  Q 2853 3084 3261 2657  Q 3669 2231 3669 1497  Q 3669 778 3244 343  Q 2819 -91 2113 -91  Q 1303 -91 875 529  Q 447 1150 447 2328  Q 447 3434 972 4092  Q 1497 4750 2381 4750  Q 2619 4750 2861 4703  Q 3103 4656 3366 4563  z " transform="scale(0.015625)"/>
       </defs>
       <use xlink:href="#DejaVuSans-2212"/>
       <use xlink:href="#DejaVuSans-30" x="83.789062"/>
       <use xlink:href="#DejaVuSans-2e" x="147.412109"/>
       <use xlink:href="#DejaVuSans-36" x="179.199219"/>
      </g>
     </g>
    </g>
    <g id="xtick_38">
     <g id="text_10">
      <!-- 0.4 -->
      <g style="fill: #262626" transform="translate(150.984453 401.798281)scale(0.11 -0.11)">
       <defs>
        <path id="DejaVuSans-34" d="M 2419 4116  L 825 1625  L 2419 1625  L 2419 4116  z M 2253 4666  L 3047 4666  L 3047 1625  L 3713 1625  L 3713 1100  L 3047 1100  L 3047 0  L 2419 0  L 2419 1100  L 313 1100  L 313 1709  L 2253 4666  z " transform="scale(0.015625)"/>
       </defs>
       <use xlink:href="#DejaVuSans-2212"/>
       <use xlink:href="#DejaVuSans-30" x="83.789062"/>
       <use xlink:href="#DejaVuSans-2e" x="147.412109"/>
       <use xlink:href="#DejaVuSans-34" x="179.199219"/>
      </g>
     </g>
    </g>
    <g id="xtick_39">
     <g id="text_11">
      <!-- 0.2 -->
      <g style="fill: #262626" transform="translate(231.024453 401.798281)scale(0.11 -0.11)">
       <defs>
        <path id="DejaVuSans-32" d="M 1228 531  L 3431 531  L 3431 0  L 469 0  L 469 531  Q 828 903 1448 1529  Q 2069 2156 2228 2338  Q 2531 2678 2651 2914  Q 2772 3150 2772 3378  Q 2772 3750 2511 3984  Q 2250 4219 1831 4219  Q 1534 4219 1204 4116  Q 875 4013 500 3803  L 500 4441  Q 881 4594 1212 4672  Q 1544 4750 1819 4750  Q 2544 4750 2975 4387  Q 3406 4025 3406 3419  Q 3406 3131 3298 2873  Q 3191 2616 2906 2266  Q 2828 2175 2409 1742  Q 1991 1309 1228 531  z " transform="scale(0.015625)"/>
       </defs>
       <use xlink:href="#DejaVuSans-2212"/>
       <use xlink:href="#DejaVuSans-30" x="83.789062"/>
       <use xlink:href="#DejaVuSans-2e" x="147.412109"/>
       <use xlink:href="#DejaVuSans-32" x="179.199219"/>
      </g>
     </g>
    </g>
    <g id="xtick_40">
     <g id="text_12">
      <!-- 0.0 -->
      <g style="fill: #262626" transform="translate(315.673281 401.798281)scale(0.11 -0.11)">
       <use xlink:href="#DejaVuSans-30"/>
       <use xlink:href="#DejaVuSans-2e" x="63.623047"/>
       <use xlink:href="#DejaVuSans-30" x="95.410156"/>
      </g>
     </g>
    </g>
    <g id="xtick_41">
     <g id="text_13">
      <!-- 0.2 -->
      <g style="fill: #262626" transform="translate(395.713281 401.798281)scale(0.11 -0.11)">
       <use xlink:href="#DejaVuSans-30"/>
       <use xlink:href="#DejaVuSans-2e" x="63.623047"/>
       <use xlink:href="#DejaVuSans-32" x="95.410156"/>
      </g>
     </g>
    </g>
    <g id="xtick_42">
     <g id="text_14">
      <!-- 0.4 -->
      <g style="fill: #262626" transform="translate(475.753281 401.798281)scale(0.11 -0.11)">
       <use xlink:href="#DejaVuSans-30"/>
       <use xlink:href="#DejaVuSans-2e" x="63.623047"/>
       <use xlink:href="#DejaVuSans-34" x="95.410156"/>
      </g>
     </g>
    </g>
    <g id="xtick_43">
     <g id="text_15">
      <!-- 0.6 -->
      <g style="fill: #262626" transform="translate(555.793281 401.798281)scale(0.11 -0.11)">
       <use xlink:href="#DejaVuSans-30"/>
       <use xlink:href="#DejaVuSans-2e" x="63.623047"/>
       <use xlink:href="#DejaVuSans-36" x="95.410156"/>
      </g>
     </g>
    </g>
    <g id="xtick_44">
     <g id="text_16">
      <!-- 0.8 -->
      <g style="fill: #262626" transform="translate(635.833281 401.798281)scale(0.11 -0.11)">
       <defs>
        <path id="DejaVuSans-38" d="M 2034 2216  Q 1584 2216 1326 1975  Q 1069 1734 1069 1313  Q 1069 891 1326 650  Q 1584 409 2034 409  Q 2484 409 2743 651  Q 3003 894 3003 1313  Q 3003 1734 2745 1975  Q 2488 2216 2034 2216  z M 1403 2484  Q 997 2584 770 2862  Q 544 3141 544 3541  Q 544 4100 942 4425  Q 1341 4750 2034 4750  Q 2731 4750 3128 4425  Q 3525 4100 3525 3541  Q 3525 3141 3298 2862  Q 3072 2584 2669 2484  Q 3125 2378 3379 2068  Q 3634 1759 3634 1313  Q 3634 634 3220 271  Q 2806 -91 2034 -91  Q 1263 -91 848 271  Q 434 634 434 1313  Q 434 1759 690 2068  Q 947 2378 1403 2484  z M 1172 3481  Q 1172 3119 1398 2916  Q 1625 2713 2034 2713  Q 2441 2713 2670 2916  Q 2900 3119 2900 3481  Q 2900 3844 2670 4047  Q 2441 4250 2034 4250  Q 1625 4250 1398 4047  Q 1172 3844 1172 3481  z " transform="scale(0.015625)"/>
       </defs>
       <use xlink:href="#DejaVuSans-30"/>
       <use xlink:href="#DejaVuSans-2e" x="63.623047"/>
       <use xlink:href="#DejaVuSans-38" x="95.410156"/>
      </g>
     </g>
    </g>
    <g id="xtick_45">
     <g id="text_17">
      <!-- 1.0 -->
      <g style="fill: #262626" transform="translate(715.873281 401.798281)scale(0.11 -0.11)">
       <defs>
        <path id="DejaVuSans-31" d="M 794 531  L 1825 531  L 1825 4091  L 703 3866  L 703 4441  L 1819 4666  L 2450 4666  L 2450 531  L 3481 531  L 3481 0  L 794 0  L 794 531  z " transform="scale(0.015625)"/>
       </defs>
       <use xlink:href="#DejaVuSans-31"/>
       <use xlink:href="#DejaVuSans-2e" x="63.623047"/>
       <use xlink:href="#DejaVuSans-30" x="95.410156"/>
      </g>
     </g>
    </g>
    <g id="text_18">
     <!-- Mlig all other cell types SHAP correlation to muscle -->
     <g style="fill: #262626" transform="translate(251.346562 417.204063)scale(0.12 -0.12)">
      <defs>
       <path id="DejaVuSans-4d" d="M 628 4666  L 1569 4666  L 2759 1491  L 3956 4666  L 4897 4666  L 4897 0  L 4281 0  L 4281 4097  L 3078 897  L 2444 897  L 1241 4097  L 1241 0  L 628 0  L 628 4666  z " transform="scale(0.015625)"/>
       <path id="DejaVuSans-6c" d="M 603 4863  L 1178 4863  L 1178 0  L 603 0  L 603 4863  z " transform="scale(0.015625)"/>
       <path id="DejaVuSans-20" transform="scale(0.015625)"/>
       <path id="DejaVuSans-6f" d="M 1959 3097  Q 1497 3097 1228 2736  Q 959 2375 959 1747  Q 959 1119 1226 758  Q 1494 397 1959 397  Q 2419 397 2687 759  Q 2956 1122 2956 1747  Q 2956 2369 2687 2733  Q 2419 3097 1959 3097  z M 1959 3584  Q 2709 3584 3137 3096  Q 3566 2609 3566 1747  Q 3566 888 3137 398  Q 2709 -91 1959 -91  Q 1206 -91 779 398  Q 353 888 353 1747  Q 353 2609 779 3096  Q 1206 3584 1959 3584  z " transform="scale(0.015625)"/>
       <path id="DejaVuSans-53" d="M 3425 4513  L 3425 3897  Q 3066 4069 2747 4153  Q 2428 4238 2131 4238  Q 1616 4238 1336 4038  Q 1056 3838 1056 3469  Q 1056 3159 1242 3001  Q 1428 2844 1947 2747  L 2328 2669  Q 3034 2534 3370 2195  Q 3706 1856 3706 1288  Q 3706 609 3251 259  Q 2797 -91 1919 -91  Q 1588 -91 1214 -16  Q 841 59 441 206  L 441 856  Q 825 641 1194 531  Q 1563 422 1919 422  Q 2459 422 2753 634  Q 3047 847 3047 1241  Q 3047 1584 2836 1778  Q 2625 1972 2144 2069  L 1759 2144  Q 1053 2284 737 2584  Q 422 2884 422 3419  Q 422 4038 858 4394  Q 1294 4750 2059 4750  Q 2388 4750 2728 4690  Q 3069 4631 3425 4513  z " transform="scale(0.015625)"/>
       <path id="DejaVuSans-48" d="M 628 4666  L 1259 4666  L 1259 2753  L 3553 2753  L 3553 4666  L 4184 4666  L 4184 0  L 3553 0  L 3553 2222  L 1259 2222  L 1259 0  L 628 0  L 628 4666  z " transform="scale(0.015625)"/>
       <path id="DejaVuSans-41" d="M 2188 4044  L 1331 1722  L 3047 1722  L 2188 4044  z M 1831 4666  L 2547 4666  L 4325 0  L 3669 0  L 3244 1197  L 1141 1197  L 716 0  L 50 0  L 1831 4666  z " transform="scale(0.015625)"/>
       <path id="DejaVuSans-50" d="M 1259 4147  L 1259 2394  L 2053 2394  Q 2494 2394 2734 2622  Q 2975 2850 2975 3272  Q 2975 3691 2734 3919  Q 2494 4147 2053 4147  L 1259 4147  z M 628 4666  L 2053 4666  Q 2838 4666 3239 4311  Q 3641 3956 3641 3272  Q 3641 2581 3239 2228  Q 2838 1875 2053 1875  L 1259 1875  L 1259 0  L 628 0  L 628 4666  z " transform="scale(0.015625)"/>
      </defs>
      <use xlink:href="#DejaVuSans-4d"/>
      <use xlink:href="#DejaVuSans-6c" x="86.279297"/>
      <use xlink:href="#DejaVuSans-69" x="114.0625"/>
      <use xlink:href="#DejaVuSans-67" x="141.845703"/>
      <use xlink:href="#DejaVuSans-20" x="205.322266"/>
      <use xlink:href="#DejaVuSans-61" x="237.109375"/>
      <use xlink:href="#DejaVuSans-6c" x="298.388672"/>
      <use xlink:href="#DejaVuSans-6c" x="326.171875"/>
      <use xlink:href="#DejaVuSans-20" x="353.955078"/>
      <use xlink:href="#DejaVuSans-6f" x="385.742188"/>
      <use xlink:href="#DejaVuSans-74" x="446.923828"/>
      <use xlink:href="#DejaVuSans-68" x="486.132812"/>
      <use xlink:href="#DejaVuSans-65" x="549.511719"/>
      <use xlink:href="#DejaVuSans-72" x="611.035156"/>
      <use xlink:href="#DejaVuSans-20" x="652.148438"/>
      <use xlink:href="#DejaVuSans-63" x="683.935547"/>
      <use xlink:href="#DejaVuSans-65" x="738.916016"/>
      <use xlink:href="#DejaVuSans-6c" x="800.439453"/>
      <use xlink:href="#DejaVuSans-6c" x="828.222656"/>
      <use xlink:href="#DejaVuSans-20" x="856.005859"/>
      <use xlink:href="#DejaVuSans-74" x="887.792969"/>
      <use xlink:href="#DejaVuSans-79" x="927.001953"/>
      <use xlink:href="#DejaVuSans-70" x="986.181641"/>
      <use xlink:href="#DejaVuSans-65" x="1049.658203"/>
      <use xlink:href="#DejaVuSans-73" x="1111.181641"/>
      <use xlink:href="#DejaVuSans-20" x="1163.28125"/>
      <use xlink:href="#DejaVuSans-53" x="1195.068359"/>
      <use xlink:href="#DejaVuSans-48" x="1258.544922"/>
      <use xlink:href="#DejaVuSans-41" x="1333.740234"/>
      <use xlink:href="#DejaVuSans-50" x="1402.148438"/>
      <use xlink:href="#DejaVuSans-20" x="1462.451172"/>
      <use xlink:href="#DejaVuSans-63" x="1494.238281"/>
      <use xlink:href="#DejaVuSans-6f" x="1549.21875"/>
      <use xlink:href="#DejaVuSans-72" x="1610.400391"/>
      <use xlink:href="#DejaVuSans-72" x="1649.763672"/>
      <use xlink:href="#DejaVuSans-65" x="1688.626953"/>
      <use xlink:href="#DejaVuSans-6c" x="1750.150391"/>
      <use xlink:href="#DejaVuSans-61" x="1777.933594"/>
      <use xlink:href="#DejaVuSans-74" x="1839.212891"/>
      <use xlink:href="#DejaVuSans-69" x="1878.421875"/>
      <use xlink:href="#DejaVuSans-6f" x="1906.205078"/>
      <use xlink:href="#DejaVuSans-6e" x="1967.386719"/>
      <use xlink:href="#DejaVuSans-20" x="2030.765625"/>
      <use xlink:href="#DejaVuSans-74" x="2062.552734"/>
      <use xlink:href="#DejaVuSans-6f" x="2101.761719"/>
      <use xlink:href="#DejaVuSans-20" x="2162.943359"/>
      <use xlink:href="#DejaVuSans-6d" x="2194.730469"/>
      <use xlink:href="#DejaVuSans-75" x="2292.142578"/>
      <use xlink:href="#DejaVuSans-73" x="2355.521484"/>
      <use xlink:href="#DejaVuSans-63" x="2407.621094"/>
      <use xlink:href="#DejaVuSans-6c" x="2462.601562"/>
      <use xlink:href="#DejaVuSans-65" x="2490.384766"/>
     </g>
    </g>
   </g>
   <g id="matplotlib.axis_10">
    <g id="text_19">
     <!-- Density -->
     <g style="fill: #262626" transform="translate(37.784375 258.275313)rotate(-90)scale(0.12 -0.12)">
      <use xlink:href="#DejaVuSans-44"/>
      <use xlink:href="#DejaVuSans-65" x="77.001953"/>
      <use xlink:href="#DejaVuSans-6e" x="138.525391"/>
      <use xlink:href="#DejaVuSans-73" x="201.904297"/>
      <use xlink:href="#DejaVuSans-69" x="254.003906"/>
      <use xlink:href="#DejaVuSans-74" x="281.787109"/>
      <use xlink:href="#DejaVuSans-79" x="320.996094"/>
     </g>
    </g>
   </g>
   <g id="PolyCollection_5">
    <defs>
     <path id="m0176487c4b" d="M 37.958857 -48.064586  L 37.958857 -48.06  L 41.624198 -48.06  L 45.289539 -48.06  L 48.95488 -48.06  L 52.620221 -48.06  L 56.285562 -48.06  L 59.950903 -48.06  L 63.616244 -48.06  L 67.281585 -48.06  L 70.946926 -48.06  L 74.612267 -48.06  L 78.277608 -48.06  L 81.942949 -48.06  L 85.60829 -48.06  L 89.273631 -48.06  L 92.938972 -48.06  L 96.604314 -48.06  L 100.269655 -48.06  L 103.934996 -48.06  L 107.600337 -48.06  L 111.265678 -48.06  L 114.931019 -48.06  L 118.59636 -48.06  L 122.261701 -48.06  L 125.927042 -48.06  L 129.592383 -48.06  L 133.257724 -48.06  L 136.923065 -48.06  L 140.588406 -48.06  L 144.253747 -48.06  L 147.919088 -48.06  L 151.584429 -48.06  L 155.24977 -48.06  L 158.915111 -48.06  L 162.580452 -48.06  L 166.245793 -48.06  L 169.911134 -48.06  L 173.576475 -48.06  L 177.241817 -48.06  L 180.907158 -48.06  L 184.572499 -48.06  L 188.23784 -48.06  L 191.903181 -48.06  L 195.568522 -48.06  L 199.233863 -48.06  L 202.899204 -48.06  L 206.564545 -48.06  L 210.229886 -48.06  L 213.895227 -48.06  L 217.560568 -48.06  L 221.225909 -48.06  L 224.89125 -48.06  L 228.556591 -48.06  L 232.221932 -48.06  L 235.887273 -48.06  L 239.552614 -48.06  L 243.217955 -48.06  L 246.883296 -48.06  L 250.548637 -48.06  L 254.213978 -48.06  L 257.87932 -48.06  L 261.544661 -48.06  L 265.210002 -48.06  L 268.875343 -48.06  L 272.540684 -48.06  L 276.206025 -48.06  L 279.871366 -48.06  L 283.536707 -48.06  L 287.202048 -48.06  L 290.867389 -48.06  L 294.53273 -48.06  L 298.198071 -48.06  L 301.863412 -48.06  L 305.528753 -48.06  L 309.194094 -48.06  L 312.859435 -48.06  L 316.524776 -48.06  L 320.190117 -48.06  L 323.855458 -48.06  L 327.520799 -48.06  L 331.18614 -48.06  L 334.851481 -48.06  L 338.516823 -48.06  L 342.182164 -48.06  L 345.847505 -48.06  L 349.512846 -48.06  L 353.178187 -48.06  L 356.843528 -48.06  L 360.508869 -48.06  L 364.17421 -48.06  L 367.839551 -48.06  L 371.504892 -48.06  L 375.170233 -48.06  L 378.835574 -48.06  L 382.500915 -48.06  L 386.166256 -48.06  L 389.831597 -48.06  L 393.496938 -48.06  L 397.162279 -48.06  L 400.82762 -48.06  L 404.492961 -48.06  L 408.158302 -48.06  L 411.823643 -48.06  L 415.488985 -48.06  L 419.154326 -48.06  L 422.819667 -48.06  L 426.485008 -48.06  L 430.150349 -48.06  L 433.81569 -48.06  L 437.481031 -48.06  L 441.146372 -48.06  L 444.811713 -48.06  L 448.477054 -48.06  L 452.142395 -48.06  L 455.807736 -48.06  L 459.473077 -48.06  L 463.138418 -48.06  L 466.803759 -48.06  L 470.4691 -48.06  L 474.134441 -48.06  L 477.799782 -48.06  L 481.465123 -48.06  L 485.130464 -48.06  L 488.795805 -48.06  L 492.461146 -48.06  L 496.126488 -48.06  L 499.791829 -48.06  L 503.45717 -48.06  L 507.122511 -48.06  L 510.787852 -48.06  L 514.453193 -48.06  L 518.118534 -48.06  L 521.783875 -48.06  L 525.449216 -48.06  L 529.114557 -48.06  L 532.779898 -48.06  L 536.445239 -48.06  L 540.11058 -48.06  L 543.775921 -48.06  L 547.441262 -48.06  L 551.106603 -48.06  L 554.771944 -48.06  L 558.437285 -48.06  L 562.102626 -48.06  L 565.767967 -48.06  L 569.433308 -48.06  L 573.098649 -48.06  L 576.763991 -48.06  L 580.429332 -48.06  L 584.094673 -48.06  L 587.760014 -48.06  L 591.425355 -48.06  L 595.090696 -48.06  L 598.756037 -48.06  L 602.421378 -48.06  L 606.086719 -48.06  L 609.75206 -48.06  L 613.417401 -48.06  L 617.082742 -48.06  L 620.748083 -48.06  L 624.413424 -48.06  L 628.078765 -48.06  L 631.744106 -48.06  L 635.409447 -48.06  L 639.074788 -48.06  L 642.740129 -48.06  L 646.40547 -48.06  L 650.070811 -48.06  L 653.736152 -48.06  L 657.401494 -48.06  L 661.066835 -48.06  L 664.732176 -48.06  L 668.397517 -48.06  L 672.062858 -48.06  L 675.728199 -48.06  L 679.39354 -48.06  L 683.058881 -48.06  L 686.724222 -48.06  L 690.389563 -48.06  L 694.054904 -48.06  L 697.720245 -48.06  L 701.385586 -48.06  L 705.050927 -48.06  L 708.716268 -48.06  L 712.381609 -48.06  L 716.04695 -48.06  L 719.712291 -48.06  L 723.377632 -48.06  L 727.042973 -48.06  L 730.708314 -48.06  L 734.373656 -48.06  L 738.038997 -48.06  L 741.704338 -48.06  L 745.369679 -48.06  L 749.03502 -48.06  L 752.700361 -48.06  L 756.365702 -48.06  L 760.031043 -48.06  L 763.696384 -48.06  L 767.361725 -48.06  L 767.361725 -48.101369  L 767.361725 -48.101369  L 763.696384 -48.13345  L 760.031043 -48.187086  L 756.365702 -48.274312  L 752.700361 -48.412281  L 749.03502 -48.624534  L 745.369679 -48.9421  L 741.704338 -49.404149  L 738.038997 -50.057863  L 734.373656 -50.957141  L 730.708314 -52.159868  L 727.042973 -53.723588  L 723.377632 -55.699724  L 719.712291 -58.12677  L 716.04695 -61.023229  L 712.381609 -64.381327  L 708.716268 -68.162609  L 705.050927 -72.296432  L 701.385586 -76.681999  L 697.720245 -81.194057  L 694.054904 -85.691767  L 690.389563 -90.02969  L 686.724222 -94.069475  L 683.058881 -97.69071  L 679.39354 -100.799633  L 675.728199 -103.334771  L 672.062858 -105.269176  L 668.397517 -106.60939  L 664.732176 -107.391737  L 661.066835 -107.676689  L 657.401494 -107.542153  L 653.736152 -107.076401  L 650.070811 -106.371286  L 646.40547 -105.516239  L 642.740129 -104.593475  L 639.074788 -103.674772  L 635.409447 -102.820052  L 631.744106 -102.077876  L 628.078765 -101.487696  L 624.413424 -101.083452  L 620.748083 -100.89787  L 617.082742 -100.966658  L 613.417401 -101.331811  L 609.75206 -102.043368  L 606.086719 -103.159293  L 602.421378 -104.743429  L 598.756037 -106.861859  L 595.090696 -109.578187  L 591.425355 -112.948398  L 587.760014 -117.015894  L 584.094673 -121.807201  L 580.429332 -127.32864  L 576.763991 -133.564087  L 573.098649 -140.473851  L 569.433308 -147.994628  L 565.767967 -156.040588  L 562.102626 -164.505686  L 558.437285 -173.267382  L 554.771944 -182.191931  L 551.106603 -191.141235  L 547.441262 -199.980971  L 543.775921 -208.589347  L 540.11058 -216.86547  L 536.445239 -224.736092  L 532.779898 -232.159514  L 529.114557 -239.125728  L 525.449216 -245.65246  L 521.783875 -251.777478  L 518.118534 -257.548289  L 514.453193 -263.01089  L 510.787852 -268.199464  L 507.122511 -273.128733  L 503.45717 -277.790151  L 499.791829 -282.15233  L 496.126488 -286.165226  L 492.461146 -289.76696  L 488.795805 -292.891698  L 485.130464 -295.477051  L 481.465123 -297.469773  L 477.799782 -298.829073  L 474.134441 -299.527515  L 470.4691 -299.549969  L 466.803759 -298.891373  L 463.138418 -297.554134  L 459.473077 -295.545851  L 455.807736 -292.877786  L 452.142395 -289.564246  L 448.477054 -285.622835  L 444.811713 -281.075397  L 441.146372 -275.949397  L 437.481031 -270.27945  L 433.81569 -264.108687  L 430.150349 -257.489665  L 426.485008 -250.484519  L 422.819667 -243.164176  L 419.154326 -235.606582  L 415.488985 -227.894062  L 411.823643 -220.110129  L 408.158302 -212.336152  L 404.492961 -204.648351  L 400.82762 -197.115466  L 397.162279 -189.797318  L 393.496938 -182.744261  L 389.831597 -175.997364  L 386.166256 -169.589007  L 382.500915 -163.543615  L 378.835574 -157.878255  L 375.170233 -152.603004  L 371.504892 -147.72107  L 367.839551 -143.228817  L 364.17421 -139.115832  L 360.508869 -135.365205  L 356.843528 -131.954051  L 353.178187 -128.85427  L 349.512846 -126.033412  L 345.847505 -123.455507  L 342.182164 -121.081751  L 338.516823 -118.871058  L 334.851481 -116.780585  L 331.18614 -114.766435  L 327.520799 -112.784811  L 323.855458 -110.793757  L 320.190117 -108.755535  L 316.524776 -106.639439  L 312.859435 -104.424687  L 309.194094 -102.102871  L 305.528753 -99.679505  L 301.863412 -97.174244  L 298.198071 -94.619631  L 294.53273 -92.058416  L 290.867389 -89.539757  L 287.202048 -87.114766  L 283.536707 -84.831919  L 279.871366 -82.732871  L 276.206025 -80.849053  L 272.540684 -79.199378  L 268.875343 -77.789151  L 265.210002 -76.610209  L 261.544661 -75.642167  L 257.87932 -74.854598  L 254.213978 -74.209902  L 250.548637 -73.666614  L 246.883296 -73.182862  L 243.217955 -72.719673  L 239.552614 -72.243848  L 235.887273 -71.730119  L 232.221932 -71.162379  L 228.556591 -70.533846  L 224.89125 -69.84616  L 221.225909 -69.107567  L 217.560568 -68.330438  L 213.895227 -67.528535  L 210.229886 -66.714427  L 206.564545 -65.897448  L 202.899204 -65.082501  L 199.233863 -64.269838  L 195.568522 -63.455776  L 191.903181 -62.634164  L 188.23784 -61.798272  L 184.572499 -60.942739  L 180.907158 -60.065215  L 177.241817 -59.16742  L 173.576475 -58.255467  L 169.911134 -57.339443  L 166.245793 -56.432345  L 162.580452 -55.548625  L 158.915111 -54.702582  L 155.24977 -53.9069  L 151.584429 -53.171523  L 147.919088 -52.503023  L 144.253747 -51.904464  L 140.588406 -51.375704  L 136.923065 -50.914006  L 133.257724 -50.514776  L 129.592383 -50.172286  L 125.927042 -49.880266  L 122.261701 -49.632331  L 118.59636 -49.422235  L 114.931019 -49.244017  L 111.265678 -49.092101  L 107.600337 -48.961385  L 103.934996 -48.847365  L 100.269655 -48.746263  L 96.604314 -48.655133  L 92.938972 -48.57191  L 89.273631 -48.49538  L 85.60829 -48.425046  L 81.942949 -48.360931  L 78.277608 -48.303341  L 74.612267 -48.252639  L 70.946926 -48.209059  L 67.281585 -48.172588  L 63.616244 -48.142927  L 59.950903 -48.119514  L 56.285562 -48.10159  L 52.620221 -48.088287  L 48.95488 -48.078717  L 45.289539 -48.072045  L 41.624198 -48.067538  L 37.958857 -48.064586  z " style="stroke: #a6d854"/>
    </defs>
    <g clip-path="url(#p0a00e4859a)">
     <use xlink:href="#m0176487c4b" x="0" y="432" style="fill: #a6d854; stroke: #a6d854"/>
    </g>
   </g>
   <g id="line2d_5">
    <path d="M 37.958857 383.935414  L 67.281585 383.827412  L 89.273631 383.50462  L 107.600337 383.038615  L 118.59636 382.577765  L 125.927042 382.119734  L 133.257724 381.485224  L 140.588406 380.624296  L 147.919088 379.496977  L 155.24977 378.0931  L 162.580452 376.451375  L 195.568522 368.544224  L 221.225909 362.892433  L 228.556591 361.466154  L 235.887273 360.269881  L 246.883296 358.817138  L 254.213978 357.790098  L 257.87932 357.145402  L 261.544661 356.357833  L 265.210002 355.389791  L 268.875343 354.210849  L 272.540684 352.800622  L 276.206025 351.150947  L 279.871366 349.267129  L 283.536707 347.168081  L 287.202048 344.885234  L 294.53273 339.941584  L 305.528753 332.320495  L 312.859435 327.575313  L 320.190117 323.244465  L 331.18614 317.233565  L 338.516823 313.128942  L 342.182164 310.918249  L 345.847505 308.544493  L 349.512846 305.966588  L 353.178187 303.14573  L 356.843528 300.045949  L 360.508869 296.634795  L 364.17421 292.884168  L 367.839551 288.771183  L 371.504892 284.27893  L 375.170233 279.396996  L 378.835574 274.121745  L 382.500915 268.456385  L 386.166256 262.410993  L 389.831597 256.002636  L 393.496938 249.255739  L 397.162279 242.202682  L 404.492961 227.351649  L 422.819667 188.835824  L 426.485008 181.515481  L 430.150349 174.510335  L 433.81569 167.891313  L 437.481031 161.72055  L 441.146372 156.050603  L 444.811713 150.924603  L 448.477054 146.377165  L 452.142395 142.435754  L 455.807736 139.122214  L 459.473077 136.454149  L 463.138418 134.445866  L 466.803759 133.108627  L 470.4691 132.450031  L 474.134441 132.472485  L 477.799782 133.170927  L 481.465123 134.530227  L 485.130464 136.522949  L 488.795805 139.108302  L 492.461146 142.23304  L 496.126488 145.834774  L 499.791829 149.84767  L 503.45717 154.209849  L 507.122511 158.871267  L 510.787852 163.800536  L 514.453193 168.98911  L 518.118534 174.451711  L 521.783875 180.222522  L 525.449216 186.34754  L 529.114557 192.874272  L 532.779898 199.840486  L 536.445239 207.263908  L 540.11058 215.13453  L 543.775921 223.410653  L 551.106603 240.858765  L 562.102626 267.494314  L 565.767967 275.959412  L 569.433308 284.005372  L 573.098649 291.526149  L 576.763991 298.435913  L 580.429332 304.67136  L 584.094673 310.192799  L 587.760014 314.984106  L 591.425355 319.051602  L 595.090696 322.421813  L 598.756037 325.138141  L 602.421378 327.256571  L 606.086719 328.840707  L 609.75206 329.956632  L 613.417401 330.668189  L 617.082742 331.033342  L 620.748083 331.10213  L 624.413424 330.916548  L 628.078765 330.512304  L 631.744106 329.922124  L 639.074788 328.325228  L 650.070811 325.628714  L 653.736152 324.923599  L 657.401494 324.457847  L 661.066835 324.323311  L 664.732176 324.608263  L 668.397517 325.39061  L 672.062858 326.730824  L 675.728199 328.665229  L 679.39354 331.200367  L 683.058881 334.30929  L 686.724222 337.930525  L 690.389563 341.97031  L 697.720245 350.805943  L 705.050927 359.703568  L 708.716268 363.837391  L 712.381609 367.618673  L 716.04695 370.976771  L 719.712291 373.87323  L 723.377632 376.300276  L 727.042973 378.276412  L 730.708314 379.840132  L 734.373656 381.042859  L 738.038997 381.942137  L 741.704338 382.595851  L 745.369679 383.0579  L 752.700361 383.587719  L 760.031043 383.812914  L 767.361725 383.898631  L 767.361725 383.898631  " clip-path="url(#p0a00e4859a)" style="fill: none; stroke: #000000; stroke-width: 1.5; stroke-linecap: round"/>
   </g>
   <g id="patch_11">
    <path d="M 44.28 383.94  L 764.64 383.94  " style="fill: none; stroke: #262626; stroke-width: 2; stroke-linejoin: miter; stroke-linecap: square"/>
   </g>
   <g id="text_20">
    <!-- neural -->
    <g transform="translate(44.28 372.679688)scale(0.13 -0.13)">
     <use xlink:href="#DejaVuSans-6e"/>
     <use xlink:href="#DejaVuSans-65" x="63.378906"/>
     <use xlink:href="#DejaVuSans-75" x="124.902344"/>
     <use xlink:href="#DejaVuSans-72" x="188.28125"/>
     <use xlink:href="#DejaVuSans-61" x="229.394531"/>
     <use xlink:href="#DejaVuSans-6c" x="290.673828"/>
    </g>
   </g>
  </g>
 </g>
 <defs>
  <clipPath id="pfc0790eae7">
   <rect x="44.28" y="27.6" width="720.36" height="296.95"/>
  </clipPath>
  <clipPath id="p2136f31b71">
   <rect x="44.28" y="42.4475" width="720.36" height="296.95"/>
  </clipPath>
  <clipPath id="p52f7d1c523">
   <rect x="44.28" y="57.295" width="720.36" height="296.95"/>
  </clipPath>
  <clipPath id="pde449d55f7">
   <rect x="44.28" y="72.1425" width="720.36" height="296.95"/>
  </clipPath>
  <clipPath id="p0a00e4859a">
   <rect x="44.28" y="86.99" width="720.36" height="296.95"/>
  </clipPath>
 </defs>
</svg>