<?xml version="1.0" encoding="UTF-8" standalone="no"?>
<!DOCTYPE svg PUBLIC "-//W3C//DTD SVG 1.1//EN" "http://www.w3.org/Graphics/SVG/1.1/DTD/svg11.dtd">
<svg xmlns:xlink="http://www.w3.org/1999/xlink" width="777.6pt" height="432pt" viewBox="0 0 777.6 432" xmlns="http://www.w3.org/2000/svg" version="1.1">
 <metadata>
  <rdf:RDF xmlns:dc="http://purl.org/dc/elements/1.1/" xmlns:cc="http://creativecommons.org/ns#" xmlns:rdf="http://www.w3.org/1999/02/22-rdf-syntax-ns#">
   <cc:Work>
    <dc:type rdf:resource="http://purl.org/dc/dcmitype/StillImage"/>
    <dc:date>2024-08-05T20:59:10.859739</dc:date>
    <dc:format>image/svg+xml</dc:format>
    <dc:creator>
     <cc:Agent>
      <dc:title>Matplotlib v3.5.1, https://matplotlib.org/</dc:title>
     </cc:Agent>
    </dc:creator>
   </cc:Work>
  </rdf:RDF>
 </metadata>
 <defs>
  <style type="text/css">*{stroke-linejoin: round; stroke-linecap: butt}</style>
 </defs>
 <g id="figure_1">
  <g id="patch_1">
   <path d="M 0 432  L 777.6 432  L 777.6 0  L 0 0  z " style="fill: #ffffff"/>
  </g>
  <g id="axes_1">
   <g id="patch_2">
    <path d="M 44.28 324.55  L 764.64 324.55  L 764.64 27.6  L 44.28 27.6  L 44.28 324.55  z " style="fill: none"/>
   </g>
   <g id="matplotlib.axis_1">
    <g id="xtick_1"/>
    <g id="xtick_2"/>
    <g id="xtick_3"/>
    <g id="xtick_4"/>
    <g id="xtick_5"/>
    <g id="xtick_6"/>
    <g id="xtick_7"/>
    <g id="xtick_8"/>
    <g id="xtick_9"/>
   </g>
   <g id="matplotlib.axis_2">
    <g id="text_1">
     <!-- Density -->
     <g style="fill: #262626" transform="translate(37.784375 198.885312)rotate(-90)scale(0.12 -0.12)">
      <defs>
       <path id="DejaVuSans-44" d="M 1259 4147  L 1259 519  L 2022 519  Q 2988 519 3436 956  Q 3884 1394 3884 2338  Q 3884 3275 3436 3711  Q 2988 4147 2022 4147  L 1259 4147  z M 628 4666  L 1925 4666  Q 3281 4666 3915 4102  Q 4550 3538 4550 2338  Q 4550 1131 3912 565  Q 3275 0 1925 0  L 628 0  L 628 4666  z " transform="scale(0.015625)"/>
       <path id="DejaVuSans-65" d="M 3597 1894  L 3597 1613  L 953 1613  Q 991 1019 1311 708  Q 1631 397 2203 397  Q 2534 397 2845 478  Q 3156 559 3463 722  L 3463 178  Q 3153 47 2828 -22  Q 2503 -91 2169 -91  Q 1331 -91 842 396  Q 353 884 353 1716  Q 353 2575 817 3079  Q 1281 3584 2069 3584  Q 2775 3584 3186 3129  Q 3597 2675 3597 1894  z M 3022 2063  Q 3016 2534 2758 2815  Q 2500 3097 2075 3097  Q 1594 3097 1305 2825  Q 1016 2553 972 2059  L 3022 2063  z " transform="scale(0.015625)"/>
       <path id="DejaVuSans-6e" d="M 3513 2113  L 3513 0  L 2938 0  L 2938 2094  Q 2938 2591 2744 2837  Q 2550 3084 2163 3084  Q 1697 3084 1428 2787  Q 1159 2491 1159 1978  L 1159 0  L 581 0  L 581 3500  L 1159 3500  L 1159 2956  Q 1366 3272 1645 3428  Q 1925 3584 2291 3584  Q 2894 3584 3203 3211  Q 3513 2838 3513 2113  z " transform="scale(0.015625)"/>
       <path id="DejaVuSans-73" d="M 2834 3397  L 2834 2853  Q 2591 2978 2328 3040  Q 2066 3103 1784 3103  Q 1356 3103 1142 2972  Q 928 2841 928 2578  Q 928 2378 1081 2264  Q 1234 2150 1697 2047  L 1894 2003  Q 2506 1872 2764 1633  Q 3022 1394 3022 966  Q 3022 478 2636 193  Q 2250 -91 1575 -91  Q 1294 -91 989 -36  Q 684 19 347 128  L 347 722  Q 666 556 975 473  Q 1284 391 1588 391  Q 1994 391 2212 530  Q 2431 669 2431 922  Q 2431 1156 2273 1281  Q 2116 1406 1581 1522  L 1381 1569  Q 847 1681 609 1914  Q 372 2147 372 2553  Q 372 3047 722 3315  Q 1072 3584 1716 3584  Q 2034 3584 2315 3537  Q 2597 3491 2834 3397  z " transform="scale(0.015625)"/>
       <path id="DejaVuSans-69" d="M 603 3500  L 1178 3500  L 1178 0  L 603 0  L 603 3500  z M 603 4863  L 1178 4863  L 1178 4134  L 603 4134  L 603 4863  z " transform="scale(0.015625)"/>
       <path id="DejaVuSans-74" d="M 1172 4494  L 1172 3500  L 2356 3500  L 2356 3053  L 1172 3053  L 1172 1153  Q 1172 725 1289 603  Q 1406 481 1766 481  L 2356 481  L 2356 0  L 1766 0  Q 1100 0 847 248  Q 594 497 594 1153  L 594 3053  L 172 3053  L 172 3500  L 594 3500  L 594 4494  L 1172 4494  z " transform="scale(0.015625)"/>
       <path id="DejaVuSans-79" d="M 2059 -325  Q 1816 -950 1584 -1140  Q 1353 -1331 966 -1331  L 506 -1331  L 506 -850  L 844 -850  Q 1081 -850 1212 -737  Q 1344 -625 1503 -206  L 1606 56  L 191 3500  L 800 3500  L 1894 763  L 2988 3500  L 3597 3500  L 2059 -325  z " transform="scale(0.015625)"/>
      </defs>
      <use xlink:href="#DejaVuSans-44"/>
      <use xlink:href="#DejaVuSans-65" x="77.001953"/>
      <use xlink:href="#DejaVuSans-6e" x="138.525391"/>
      <use xlink:href="#DejaVuSans-73" x="201.904297"/>
      <use xlink:href="#DejaVuSans-69" x="254.003906"/>
      <use xlink:href="#DejaVuSans-74" x="281.787109"/>
      <use xlink:href="#DejaVuSans-79" x="320.996094"/>
     </g>
    </g>
   </g>
   <g id="PolyCollection_1">
    <defs>
     <path id="m8642c9fc58" d="M 24.095754 -107.452428  L 24.095754 -107.45  L 27.825503 -107.45  L 31.555251 -107.45  L 35.285 -107.45  L 39.014748 -107.45  L 42.744497 -107.45  L 46.474246 -107.45  L 50.203994 -107.45  L 53.933743 -107.45  L 57.663491 -107.45  L 61.39324 -107.45  L 65.122989 -107.45  L 68.852737 -107.45  L 72.582486 -107.45  L 76.312234 -107.45  L 80.041983 -107.45  L 83.771732 -107.45  L 87.50148 -107.45  L 91.231229 -107.45  L 94.960977 -107.45  L 98.690726 -107.45  L 102.420475 -107.45  L 106.150223 -107.45  L 109.879972 -107.45  L 113.60972 -107.45  L 117.339469 -107.45  L 121.069218 -107.45  L 124.798966 -107.45  L 128.528715 -107.45  L 132.258463 -107.45  L 135.988212 -107.45  L 139.71796 -107.45  L 143.447709 -107.45  L 147.177458 -107.45  L 150.907206 -107.45  L 154.636955 -107.45  L 158.366703 -107.45  L 162.096452 -107.45  L 165.826201 -107.45  L 169.555949 -107.45  L 173.285698 -107.45  L 177.015446 -107.45  L 180.745195 -107.45  L 184.474944 -107.45  L 188.204692 -107.45  L 191.934441 -107.45  L 195.664189 -107.45  L 199.393938 -107.45  L 203.123687 -107.45  L 206.853435 -107.45  L 210.583184 -107.45  L 214.312932 -107.45  L 218.042681 -107.45  L 221.77243 -107.45  L 225.502178 -107.45  L 229.231927 -107.45  L 232.961675 -107.45  L 236.691424 -107.45  L 240.421172 -107.45  L 244.150921 -107.45  L 247.88067 -107.45  L 251.610418 -107.45  L 255.340167 -107.45  L 259.069915 -107.45  L 262.799664 -107.45  L 266.529413 -107.45  L 270.259161 -107.45  L 273.98891 -107.45  L 277.718658 -107.45  L 281.448407 -107.45  L 285.178156 -107.45  L 288.907904 -107.45  L 292.637653 -107.45  L 296.367401 -107.45  L 300.09715 -107.45  L 303.826899 -107.45  L 307.556647 -107.45  L 311.286396 -107.45  L 315.016144 -107.45  L 318.745893 -107.45  L 322.475641 -107.45  L 326.20539 -107.45  L 329.935139 -107.45  L 333.664887 -107.45  L 337.394636 -107.45  L 341.124384 -107.45  L 344.854133 -107.45  L 348.583882 -107.45  L 352.31363 -107.45  L 356.043379 -107.45  L 359.773127 -107.45  L 363.502876 -107.45  L 367.232625 -107.45  L 370.962373 -107.45  L 374.692122 -107.45  L 378.42187 -107.45  L 382.151619 -107.45  L 385.881368 -107.45  L 389.611116 -107.45  L 393.340865 -107.45  L 397.070613 -107.45  L 400.800362 -107.45  L 404.530111 -107.45  L 408.259859 -107.45  L 411.989608 -107.45  L 415.719356 -107.45  L 419.449105 -107.45  L 423.178853 -107.45  L 426.908602 -107.45  L 430.638351 -107.45  L 434.368099 -107.45  L 438.097848 -107.45  L 441.827596 -107.45  L 445.557345 -107.45  L 449.287094 -107.45  L 453.016842 -107.45  L 456.746591 -107.45  L 460.476339 -107.45  L 464.206088 -107.45  L 467.935837 -107.45  L 471.665585 -107.45  L 475.395334 -107.45  L 479.125082 -107.45  L 482.854831 -107.45  L 486.58458 -107.45  L 490.314328 -107.45  L 494.044077 -107.45  L 497.773825 -107.45  L 501.503574 -107.45  L 505.233322 -107.45  L 508.963071 -107.45  L 512.69282 -107.45  L 516.422568 -107.45  L 520.152317 -107.45  L 523.882065 -107.45  L 527.611814 -107.45  L 531.341563 -107.45  L 535.071311 -107.45  L 538.80106 -107.45  L 542.530808 -107.45  L 546.260557 -107.45  L 549.990306 -107.45  L 553.720054 -107.45  L 557.449803 -107.45  L 561.179551 -107.45  L 564.9093 -107.45  L 568.639049 -107.45  L 572.368797 -107.45  L 576.098546 -107.45  L 579.828294 -107.45  L 583.558043 -107.45  L 587.287792 -107.45  L 591.01754 -107.45  L 594.747289 -107.45  L 598.477037 -107.45  L 602.206786 -107.45  L 605.936534 -107.45  L 609.666283 -107.45  L 613.396032 -107.45  L 617.12578 -107.45  L 620.855529 -107.45  L 624.585277 -107.45  L 628.315026 -107.45  L 632.044775 -107.45  L 635.774523 -107.45  L 639.504272 -107.45  L 643.23402 -107.45  L 646.963769 -107.45  L 650.693518 -107.45  L 654.423266 -107.45  L 658.153015 -107.45  L 661.882763 -107.45  L 665.612512 -107.45  L 669.342261 -107.45  L 673.072009 -107.45  L 676.801758 -107.45  L 680.531506 -107.45  L 684.261255 -107.45  L 687.991004 -107.45  L 691.720752 -107.45  L 695.450501 -107.45  L 699.180249 -107.45  L 702.909998 -107.45  L 706.639746 -107.45  L 710.369495 -107.45  L 714.099244 -107.45  L 717.828992 -107.45  L 721.558741 -107.45  L 725.288489 -107.45  L 729.018238 -107.45  L 732.747987 -107.45  L 736.477735 -107.45  L 740.207484 -107.45  L 743.937232 -107.45  L 747.666981 -107.45  L 751.39673 -107.45  L 755.126478 -107.45  L 758.856227 -107.45  L 762.585975 -107.45  L 766.315724 -107.45  L 766.315724 -107.46184  L 766.315724 -107.46184  L 762.585975 -107.474167  L 758.856227 -107.497717  L 755.126478 -107.541157  L 751.39673 -107.618523  L 747.666981 -107.751542  L 743.937232 -107.972325  L 740.207484 -108.326047  L 736.477735 -108.873011  L 732.747987 -109.689211  L 729.018238 -110.864394  L 725.288489 -112.496679  L 721.558741 -114.683213  L 717.828992 -117.507065  L 714.099244 -121.021579  L 710.369495 -125.234452  L 706.639746 -130.094614  L 702.909998 -135.485194  L 699.180249 -141.225263  L 695.450501 -147.081661  L 691.720752 -152.79015  L 687.991004 -158.083039  L 684.261255 -162.718716  L 680.531506 -166.507801  L 676.801758 -169.331187  L 673.072009 -171.146944  L 669.342261 -171.985518  L 665.612512 -171.935244  L 661.882763 -171.122094  L 658.153015 -169.688423  L 654.423266 -167.774998  L 650.693518 -165.509123  L 646.963769 -162.999675  L 643.23402 -160.338032  L 639.504272 -157.602641  L 635.774523 -154.864585  L 632.044775 -152.191913  L 628.315026 -149.651347  L 624.585277 -147.306991  L 620.855529 -145.216532  L 617.12578 -143.42601  L 613.396032 -141.964516  L 609.666283 -140.840214  L 605.936534 -140.038868  L 602.206786 -139.52564  L 598.477037 -139.250313  L 594.747289 -139.155348  L 591.01754 -139.185437  L 587.287792 -139.296697  L 583.558043 -139.46352  L 579.828294 -139.681509  L 576.098546 -139.965855  L 572.368797 -140.345659  L 568.639049 -140.855822  L 564.9093 -141.528791  L 561.179551 -142.388459  L 557.449803 -143.447844  L 553.720054 -144.710949  L 549.990306 -146.177922  L 546.260557 -147.851565  L 542.530808 -149.742855  L 538.80106 -151.873466  L 535.071311 -154.274295  L 531.341563 -156.980255  L 527.611814 -160.022811  L 523.882065 -163.422363  L 520.152317 -167.182613  L 516.422568 -171.288327  L 512.69282 -175.706936  L 508.963071 -180.393357  L 505.233322 -185.296713  L 501.503574 -190.367376  L 497.773825 -195.562953  L 494.044077 -200.852298  L 490.314328 -206.217197  L 486.58458 -211.651872  L 482.854831 -217.160779  L 479.125082 -222.755414  L 475.395334 -228.450902  L 471.665585 -234.263065  L 467.935837 -240.206489  L 464.206088 -246.293684  L 460.476339 -252.535002  L 456.746591 -258.938527  L 453.016842 -265.508958  L 449.287094 -272.24471  L 445.557345 -279.133091  L 441.827596 -286.144368  L 438.097848 -293.226434  L 434.368099 -300.302307  L 430.638351 -307.272483  L 426.908602 -314.023157  L 423.178853 -320.439744  L 419.449105 -326.423444  L 415.719356 -331.907332  L 411.989608 -336.868099  L 408.259859 -341.330337  L 404.530111 -345.361902  L 400.800362 -349.061127  L 397.070613 -352.538688  L 393.340865 -355.898293  L 389.611116 -359.220522  L 385.881368 -362.553139  L 382.151619 -365.909196  L 378.42187 -369.271921  L 374.692122 -372.60345  L 370.962373 -375.853581  L 367.232625 -378.965216  L 363.502876 -381.874876  L 359.773127 -384.508996  L 356.043379 -386.778739  L 352.31363 -388.577  L 348.583882 -389.780696  L 344.854133 -390.259524  L 341.124384 -389.889915  L 337.394636 -388.570857  L 333.664887 -386.237361  L 329.935139 -382.867941  L 326.20539 -378.484235  L 322.475641 -373.143087  L 318.745893 -366.92336  L 315.016144 -359.910834  L 311.286396 -352.184697  L 307.556647 -343.808423  L 303.826899 -334.826689  L 300.09715 -325.268533  L 296.367401 -315.155696  L 292.637653 -304.514009  L 288.907904 -293.385133  L 285.178156 -281.835991  L 281.448407 -269.963826  L 277.718658 -257.895884  L 273.98891 -245.783891  L 270.259161 -233.794518  L 266.529413 -222.097579  L 262.799664 -210.853849  L 259.069915 -200.204112  L 255.340167 -190.260621  L 251.610418 -181.101644  L 247.88067 -172.769368  L 244.150921 -165.27102  L 240.421172 -158.58278  L 236.691424 -152.655776  L 232.961675 -147.423331  L 229.231927 -142.808583  L 225.502178 -138.731698  L 221.77243 -135.116059  L 218.042681 -131.892998  L 214.312932 -129.004806  L 210.583184 -126.405953  L 206.853435 -124.062603  L 203.123687 -121.950747  L 199.393938 -120.053443  L 195.664189 -118.357792  L 191.934441 -116.852264  L 188.204692 -115.524838  L 184.474944 -114.362163  L 180.745195 -113.349628  L 177.015446 -112.472069  L 173.285698 -111.714677  L 169.555949 -111.063793  L 165.826201 -110.507339  L 162.096452 -110.034864  L 158.366703 -109.637262  L 154.636955 -109.306314  L 150.907206 -109.034208  L 147.177458 -108.813179  L 143.447709 -108.635341  L 139.71796 -108.492774  L 135.988212 -108.377825  L 132.258463 -108.283571  L 128.528715 -108.204314  L 124.798966 -108.13596  L 121.069218 -108.076161  L 117.339469 -108.024135  L 113.60972 -107.980169  L 109.879972 -107.944931  L 106.150223 -107.918731  L 102.420475 -107.900955  L 98.690726 -107.8898  L 94.960977 -107.882385  L 91.231229 -107.875199  L 87.50148 -107.864751  L 83.771732 -107.848245  L 80.041983 -107.82409  L 76.312234 -107.792147  L 72.582486 -107.75365  L 68.852737 -107.710861  L 65.122989 -107.666568  L 61.39324 -107.623549  L 57.663491 -107.584133  L 53.933743 -107.549927  L 50.203994 -107.521724  L 46.474246 -107.499584  L 42.744497 -107.483005  L 39.014748 -107.47115  L 35.285 -107.463044  L 31.555251 -107.457741  L 27.825503 -107.45442  L 24.095754 -107.452428  z " style="stroke: #66c2a5"/>
    </defs>
    <g clip-path="url(#p9c25f2e9ed)">
     <use xlink:href="#m8642c9fc58" x="0" y="432" style="fill: #66c2a5; stroke: #66c2a5"/>
    </g>
   </g>
   <g id="line2d_1">
    <path d="M 24.095754 324.547572  L 53.933743 324.450073  L 106.150223 324.081269  L 124.798966 323.86404  L 139.71796 323.507226  L 147.177458 323.186821  L 154.636955 322.693686  L 162.096452 321.965136  L 169.555949 320.936207  L 177.015446 319.527931  L 180.745195 318.650372  L 184.474944 317.637837  L 188.204692 316.475162  L 191.934441 315.147736  L 195.664189 313.642208  L 199.393938 311.946557  L 203.123687 310.049253  L 206.853435 307.937397  L 210.583184 305.594047  L 214.312932 302.995194  L 218.042681 300.107002  L 221.77243 296.883941  L 225.502178 293.268302  L 229.231927 289.191417  L 232.961675 284.576669  L 236.691424 279.344224  L 240.421172 273.41722  L 244.150921 266.72898  L 247.88067 259.230632  L 251.610418 250.898356  L 255.340167 241.739379  L 259.069915 231.795888  L 262.799664 221.146151  L 266.529413 209.902421  L 273.98891 186.216109  L 285.178156 150.164009  L 288.907904 138.614867  L 292.637653 127.485991  L 296.367401 116.844304  L 300.09715 106.731467  L 303.826899 97.173311  L 307.556647 88.191577  L 311.286396 79.815303  L 315.016144 72.089166  L 318.745893 65.07664  L 322.475641 58.856913  L 326.20539 53.515765  L 329.935139 49.132059  L 333.664887 45.762639  L 337.394636 43.429143  L 341.124384 42.110085  L 344.854133 41.740476  L 348.583882 42.219304  L 352.31363 43.423  L 356.043379 45.221261  L 359.773127 47.491004  L 363.502876 50.125124  L 367.232625 53.034784  L 374.692122 59.39655  L 397.070613 79.461312  L 400.800362 82.938873  L 404.530111 86.638098  L 408.259859 90.669663  L 411.989608 95.131901  L 415.719356 100.092668  L 419.449105 105.576556  L 423.178853 111.560256  L 426.908602 117.976843  L 434.368099 131.697693  L 445.557345 152.866909  L 453.016842 166.491042  L 460.476339 179.464998  L 467.935837 191.793511  L 475.395334 203.549098  L 482.854831 214.839221  L 490.314328 225.782803  L 497.773825 236.437047  L 505.233322 246.703287  L 508.963071 251.606643  L 512.69282 256.293064  L 516.422568 260.711673  L 520.152317 264.817387  L 523.882065 268.577637  L 527.611814 271.977189  L 531.341563 275.019745  L 535.071311 277.725705  L 538.80106 280.126534  L 542.530808 282.257145  L 546.260557 284.148435  L 549.990306 285.822078  L 553.720054 287.289051  L 557.449803 288.552156  L 561.179551 289.611541  L 564.9093 290.471209  L 568.639049 291.144178  L 572.368797 291.654341  L 579.828294 292.318491  L 587.287792 292.703303  L 594.747289 292.844652  L 598.477037 292.749687  L 602.206786 292.47436  L 605.936534 291.961132  L 609.666283 291.159786  L 613.396032 290.035484  L 617.12578 288.57399  L 620.855529 286.783468  L 624.585277 284.693009  L 628.315026 282.348653  L 635.774523 277.135415  L 646.963769 269.000325  L 650.693518 266.490877  L 654.423266 264.225002  L 658.153015 262.311577  L 661.882763 260.877906  L 665.612512 260.064756  L 669.342261 260.014482  L 673.072009 260.853056  L 676.801758 262.668813  L 680.531506 265.492199  L 684.261255 269.281284  L 687.991004 273.916961  L 691.720752 279.20985  L 706.639746 301.905386  L 710.369495 306.765548  L 714.099244 310.978421  L 717.828992 314.492935  L 721.558741 317.316787  L 725.288489 319.503321  L 729.018238 321.135606  L 732.747987 322.310789  L 736.477735 323.126989  L 740.207484 323.673953  L 743.937232 324.027675  L 751.39673 324.381477  L 762.585975 324.525833  L 766.315724 324.53816  L 766.315724 324.53816  " clip-path="url(#p9c25f2e9ed)" style="fill: none; stroke: #000000; stroke-width: 1.5; stroke-linecap: round"/>
   </g>
   <g id="patch_3">
    <path d="M 44.28 324.55  L 764.64 324.55  " style="fill: none; stroke: #262626; stroke-width: 2; stroke-linejoin: miter; stroke-linecap: square"/>
   </g>
   <g id="text_2">
    <!-- intestine -->
    <g transform="translate(44.28 313.289687)scale(0.13 -0.13)">
     <use xlink:href="#DejaVuSans-69"/>
     <use xlink:href="#DejaVuSans-6e" x="27.783203"/>
     <use xlink:href="#DejaVuSans-74" x="91.162109"/>
     <use xlink:href="#DejaVuSans-65" x="130.371094"/>
     <use xlink:href="#DejaVuSans-73" x="191.894531"/>
     <use xlink:href="#DejaVuSans-74" x="243.994141"/>
     <use xlink:href="#DejaVuSans-69" x="283.203125"/>
     <use xlink:href="#DejaVuSans-6e" x="310.986328"/>
     <use xlink:href="#DejaVuSans-65" x="374.365234"/>
    </g>
   </g>
  </g>
  <g id="axes_2">
   <g id="patch_4">
    <path d="M 44.28 339.3975  L 764.64 339.3975  L 764.64 42.4475  L 44.28 42.4475  L 44.28 339.3975  z " style="fill: none"/>
   </g>
   <g id="matplotlib.axis_3">
    <g id="xtick_10"/>
    <g id="xtick_11"/>
    <g id="xtick_12"/>
    <g id="xtick_13"/>
    <g id="xtick_14"/>
    <g id="xtick_15"/>
    <g id="xtick_16"/>
    <g id="xtick_17"/>
    <g id="xtick_18"/>
   </g>
   <g id="matplotlib.axis_4">
    <g id="text_3">
     <!-- Density -->
     <g style="fill: #262626" transform="translate(37.784375 213.732812)rotate(-90)scale(0.12 -0.12)">
      <use xlink:href="#DejaVuSans-44"/>
      <use xlink:href="#DejaVuSans-65" x="77.001953"/>
      <use xlink:href="#DejaVuSans-6e" x="138.525391"/>
      <use xlink:href="#DejaVuSans-73" x="201.904297"/>
      <use xlink:href="#DejaVuSans-69" x="254.003906"/>
      <use xlink:href="#DejaVuSans-74" x="281.787109"/>
      <use xlink:href="#DejaVuSans-79" x="320.996094"/>
     </g>
    </g>
   </g>
   <g id="PolyCollection_2">
    <defs>
     <path id="m764a2f4c5f" d="M 44.251464 -92.604895  L 44.251464 -92.6025  L 47.783778 -92.6025  L 51.316093 -92.6025  L 54.848407 -92.6025  L 58.380722 -92.6025  L 61.913036 -92.6025  L 65.44535 -92.6025  L 68.977665 -92.6025  L 72.509979 -92.6025  L 76.042294 -92.6025  L 79.574608 -92.6025  L 83.106923 -92.6025  L 86.639237 -92.6025  L 90.171552 -92.6025  L 93.703866 -92.6025  L 97.236181 -92.6025  L 100.768495 -92.6025  L 104.30081 -92.6025  L 107.833124 -92.6025  L 111.365439 -92.6025  L 114.897753 -92.6025  L 118.430068 -92.6025  L 121.962382 -92.6025  L 125.494697 -92.6025  L 129.027011 -92.6025  L 132.559326 -92.6025  L 136.09164 -92.6025  L 139.623955 -92.6025  L 143.156269 -92.6025  L 146.688583 -92.6025  L 150.220898 -92.6025  L 153.753212 -92.6025  L 157.285527 -92.6025  L 160.817841 -92.6025  L 164.350156 -92.6025  L 167.88247 -92.6025  L 171.414785 -92.6025  L 174.947099 -92.6025  L 178.479414 -92.6025  L 182.011728 -92.6025  L 185.544043 -92.6025  L 189.076357 -92.6025  L 192.608672 -92.6025  L 196.140986 -92.6025  L 199.673301 -92.6025  L 203.205615 -92.6025  L 206.73793 -92.6025  L 210.270244 -92.6025  L 213.802559 -92.6025  L 217.334873 -92.6025  L 220.867188 -92.6025  L 224.399502 -92.6025  L 227.931816 -92.6025  L 231.464131 -92.6025  L 234.996445 -92.6025  L 238.52876 -92.6025  L 242.061074 -92.6025  L 245.593389 -92.6025  L 249.125703 -92.6025  L 252.658018 -92.6025  L 256.190332 -92.6025  L 259.722647 -92.6025  L 263.254961 -92.6025  L 266.787276 -92.6025  L 270.31959 -92.6025  L 273.851905 -92.6025  L 277.384219 -92.6025  L 280.916534 -92.6025  L 284.448848 -92.6025  L 287.981163 -92.6025  L 291.513477 -92.6025  L 295.045792 -92.6025  L 298.578106 -92.6025  L 302.110421 -92.6025  L 305.642735 -92.6025  L 309.175049 -92.6025  L 312.707364 -92.6025  L 316.239678 -92.6025  L 319.771993 -92.6025  L 323.304307 -92.6025  L 326.836622 -92.6025  L 330.368936 -92.6025  L 333.901251 -92.6025  L 337.433565 -92.6025  L 340.96588 -92.6025  L 344.498194 -92.6025  L 348.030509 -92.6025  L 351.562823 -92.6025  L 355.095138 -92.6025  L 358.627452 -92.6025  L 362.159767 -92.6025  L 365.692081 -92.6025  L 369.224396 -92.6025  L 372.75671 -92.6025  L 376.289025 -92.6025  L 379.821339 -92.6025  L 383.353654 -92.6025  L 386.885968 -92.6025  L 390.418282 -92.6025  L 393.950597 -92.6025  L 397.482911 -92.6025  L 401.015226 -92.6025  L 404.54754 -92.6025  L 408.079855 -92.6025  L 411.612169 -92.6025  L 415.144484 -92.6025  L 418.676798 -92.6025  L 422.209113 -92.6025  L 425.741427 -92.6025  L 429.273742 -92.6025  L 432.806056 -92.6025  L 436.338371 -92.6025  L 439.870685 -92.6025  L 443.403 -92.6025  L 446.935314 -92.6025  L 450.467629 -92.6025  L 453.999943 -92.6025  L 457.532258 -92.6025  L 461.064572 -92.6025  L 464.596887 -92.6025  L 468.129201 -92.6025  L 471.661515 -92.6025  L 475.19383 -92.6025  L 478.726144 -92.6025  L 482.258459 -92.6025  L 485.790773 -92.6025  L 489.323088 -92.6025  L 492.855402 -92.6025  L 496.387717 -92.6025  L 499.920031 -92.6025  L 503.452346 -92.6025  L 506.98466 -92.6025  L 510.516975 -92.6025  L 514.049289 -92.6025  L 517.581604 -92.6025  L 521.113918 -92.6025  L 524.646233 -92.6025  L 528.178547 -92.6025  L 531.710862 -92.6025  L 535.243176 -92.6025  L 538.775491 -92.6025  L 542.307805 -92.6025  L 545.84012 -92.6025  L 549.372434 -92.6025  L 552.904748 -92.6025  L 556.437063 -92.6025  L 559.969377 -92.6025  L 563.501692 -92.6025  L 567.034006 -92.6025  L 570.566321 -92.6025  L 574.098635 -92.6025  L 577.63095 -92.6025  L 581.163264 -92.6025  L 584.695579 -92.6025  L 588.227893 -92.6025  L 591.760208 -92.6025  L 595.292522 -92.6025  L 598.824837 -92.6025  L 602.357151 -92.6025  L 605.889466 -92.6025  L 609.42178 -92.6025  L 612.954095 -92.6025  L 616.486409 -92.6025  L 620.018724 -92.6025  L 623.551038 -92.6025  L 627.083353 -92.6025  L 630.615667 -92.6025  L 634.147982 -92.6025  L 637.680296 -92.6025  L 641.21261 -92.6025  L 644.744925 -92.6025  L 648.277239 -92.6025  L 651.809554 -92.6025  L 655.341868 -92.6025  L 658.874183 -92.6025  L 662.406497 -92.6025  L 665.938812 -92.6025  L 669.471126 -92.6025  L 673.003441 -92.6025  L 676.535755 -92.6025  L 680.06807 -92.6025  L 683.600384 -92.6025  L 687.132699 -92.6025  L 690.665013 -92.6025  L 694.197328 -92.6025  L 697.729642 -92.6025  L 701.261957 -92.6025  L 704.794271 -92.6025  L 708.326586 -92.6025  L 711.8589 -92.6025  L 715.391215 -92.6025  L 718.923529 -92.6025  L 722.455843 -92.6025  L 725.988158 -92.6025  L 729.520472 -92.6025  L 733.052787 -92.6025  L 736.585101 -92.6025  L 740.117416 -92.6025  L 743.64973 -92.6025  L 747.182045 -92.6025  L 747.182045 -92.609572  L 747.182045 -92.609572  L 743.64973 -92.617257  L 740.117416 -92.632192  L 736.585101 -92.660127  L 733.052787 -92.710431  L 729.520472 -92.797635  L 725.988158 -92.943161  L 722.455843 -93.176909  L 718.923529 -93.538196  L 715.391215 -94.075384  L 711.8589 -94.843484  L 708.326586 -95.899243  L 704.794271 -97.293699  L 701.261957 -99.062946  L 697.729642 -101.218654  L 694.197328 -103.74054  L 690.665013 -106.573  L 687.132699 -109.627525  L 683.600384 -112.79112  L 680.06807 -115.939381  L 676.535755 -118.951471  L 673.003441 -121.723762  L 669.471126 -124.179406  L 665.938812 -126.27249  L 662.406497 -127.987091  L 658.874183 -129.332732  L 655.341868 -130.338213  L 651.809554 -131.045303  L 648.277239 -131.503039  L 644.744925 -131.762612  L 641.21261 -131.872651  L 637.680296 -131.8749  L 634.147982 -131.800743  L 630.615667 -131.669297  L 627.083353 -131.487693  L 623.551038 -131.253735  L 620.018724 -130.960504  L 616.486409 -130.601902  L 612.954095 -130.177846  L 609.42178 -129.697848  L 605.889466 -129.182106  L 602.357151 -128.659878  L 598.824837 -128.165622  L 595.292522 -127.734044  L 591.760208 -127.395475  L 588.227893 -127.172884  L 584.695579 -127.081232  L 581.163264 -127.129086  L 577.63095 -127.321595  L 574.098635 -127.663527  L 570.566321 -128.161153  L 567.034006 -128.822293  L 563.501692 -129.654711  L 559.969377 -130.663716  L 556.437063 -131.85022  L 552.904748 -133.210354  L 549.372434 -134.737198  L 545.84012 -136.424413  L 542.307805 -138.270934  L 538.775491 -140.285412  L 535.243176 -142.489108  L 531.710862 -144.916207  L 528.178547 -147.611178  L 524.646233 -150.62353  L 521.113918 -154.001132  L 517.581604 -157.783756  L 514.049289 -161.998603  L 510.516975 -166.65906  L 506.98466 -171.766967  L 503.452346 -177.317447  L 499.920031 -183.304452  L 496.387717 -189.72476  L 492.855402 -196.57861  L 489.323088 -203.866152  L 485.790773 -211.580227  L 482.258459 -219.697216  L 478.726144 -228.16843  L 475.19383 -236.914713  L 471.661515 -245.82633  L 468.129201 -254.769158  L 464.596887 -263.596744  L 461.064572 -272.166427  L 457.532258 -280.356688  L 453.999943 -288.082577  L 450.467629 -295.306336  L 446.935314 -302.041178  L 443.403 -308.34728  L 439.870685 -314.320182  L 436.338371 -320.072939  L 432.806056 -325.714473  L 429.273742 -331.3275  L 425.741427 -336.949991  L 422.209113 -342.563966  L 418.676798 -348.094422  L 415.144484 -353.419201  L 411.612169 -358.388202  L 408.079855 -362.847942  L 404.54754 -366.666049  L 401.015226 -369.750236  L 397.482911 -372.057958  L 393.950597 -373.595787  L 390.418282 -374.410634  L 386.885968 -374.577102  L 383.353654 -374.185569  L 379.821339 -373.333909  L 376.289025 -372.123015  L 372.75671 -370.653765  L 369.224396 -369.022286  L 365.692081 -367.311646  L 362.159767 -365.580783  L 358.627452 -363.854046  L 355.095138 -362.11565  L 351.562823 -360.312014  L 348.030509 -358.362023  L 344.498194 -356.172114  L 340.96588 -353.651316  L 337.433565 -350.721765  L 333.901251 -347.322432  L 330.368936 -343.406785  L 326.836622 -338.937513  L 323.304307 -333.882197  L 319.771993 -328.212942  L 316.239678 -321.910774  L 312.707364 -314.973262  L 309.175049 -307.422153  L 305.642735 -299.307517  L 302.110421 -290.70601  L 298.578106 -281.713  L 295.045792 -272.430582  L 291.513477 -262.955152  L 287.981163 -253.368479  L 284.448848 -243.735012  L 280.916534 -234.105852  L 277.384219 -224.52729  L 273.851905 -215.050126  L 270.31959 -205.735813  L 266.787276 -196.656898  L 263.254961 -187.891658  L 259.722647 -179.515079  L 256.190332 -171.589628  L 252.658018 -164.15895  L 249.125703 -157.24618  L 245.593389 -150.856599  L 242.061074 -144.982895  L 238.52876 -139.610795  L 234.996445 -134.723275  L 231.464131 -130.302618  L 227.931816 -126.330529  L 224.399502 -122.787077  L 220.867188 -119.64928  L 217.334873 -116.889878  L 213.802559 -114.47658  L 210.270244 -112.371895  L 206.73793 -110.533738  L 203.205615 -108.916948  L 199.673301 -107.475773  L 196.140986 -106.167083  L 192.608672 -104.953741  L 189.076357 -103.807371  L 185.544043 -102.709842  L 182.011728 -101.653105  L 178.479414 -100.637504  L 174.947099 -99.669092  L 171.414785 -98.756682  L 167.88247 -97.909296  L 164.350156 -97.134432  L 160.817841 -96.437226  L 157.285527 -95.820293  L 153.753212 -95.283956  L 150.220898 -94.826508  L 146.688583 -94.444374  L 143.156269 -94.132122  L 139.623955 -93.882493  L 136.09164 -93.68661  L 132.559326 -93.53452  L 129.027011 -93.416066  L 125.494697 -93.321916  L 121.962382 -93.24449  L 118.430068 -93.178475  L 114.897753 -93.120797  L 111.365439 -93.070055  L 107.833124 -93.025677  L 104.30081 -92.987082  L 100.768495 -92.953175  L 97.236181 -92.922278  L 93.703866 -92.892465  L 90.171552 -92.862089  L 86.639237 -92.830252  L 83.106923 -92.797027  L 79.574608 -92.763365  L 76.042294 -92.730759  L 72.509979 -92.700793  L 68.977665 -92.674748  L 65.44535 -92.653354  L 61.913036 -92.636744  L 58.380722 -92.624544  L 54.848407 -92.616059  L 51.316093 -92.610467  L 47.783778 -92.60697  L 44.251464 -92.604895  z " style="stroke: #fc8d62"/>
    </defs>
    <g clip-path="url(#p19cec98030)">
     <use xlink:href="#m764a2f4c5f" x="0" y="432" style="fill: #fc8d62; stroke: #fc8d62"/>
    </g>
   </g>
   <g id="line2d_2">
    <path d="M 44.251464 339.395105  L 76.042294 339.269241  L 121.962382 338.75551  L 132.559326 338.46548  L 139.623955 338.117507  L 146.688583 337.555626  L 153.753212 336.716044  L 160.817841 335.562774  L 167.88247 334.090704  L 174.947099 332.330908  L 182.011728 330.346895  L 189.076357 328.192629  L 196.140986 325.832917  L 199.673301 324.524227  L 203.205615 323.083052  L 206.73793 321.466262  L 210.270244 319.628105  L 213.802559 317.52342  L 217.334873 315.110122  L 220.867188 312.35072  L 224.399502 309.212923  L 227.931816 305.669471  L 231.464131 301.697382  L 234.996445 297.276725  L 238.52876 292.389205  L 242.061074 287.017105  L 245.593389 281.143401  L 249.125703 274.75382  L 252.658018 267.84105  L 256.190332 260.410372  L 259.722647 252.484921  L 263.254961 244.108342  L 266.787276 235.343102  L 273.851905 216.949874  L 284.448848 188.264988  L 295.045792 159.569418  L 302.110421 141.29399  L 305.642735 132.692483  L 309.175049 124.577847  L 312.707364 117.026738  L 316.239678 110.089226  L 319.771993 103.787058  L 323.304307 98.117803  L 326.836622 93.062487  L 330.368936 88.593215  L 333.901251 84.677568  L 337.433565 81.278235  L 340.96588 78.348684  L 344.498194 75.827886  L 348.030509 73.637977  L 351.562823 71.687986  L 358.627452 68.145954  L 372.75671 61.346235  L 376.289025 59.876985  L 379.821339 58.666091  L 383.353654 57.814431  L 386.885968 57.422898  L 390.418282 57.589366  L 393.950597 58.404213  L 397.482911 59.942042  L 401.015226 62.249764  L 404.54754 65.333951  L 408.079855 69.152058  L 411.612169 73.611798  L 415.144484 78.580799  L 418.676798 83.905578  L 429.273742 100.6725  L 439.870685 117.679818  L 443.403 123.65272  L 446.935314 129.958822  L 450.467629 136.693664  L 453.999943 143.917423  L 457.532258 151.643312  L 461.064572 159.833573  L 468.129201 177.230842  L 478.726144 203.83157  L 482.258459 212.302784  L 485.790773 220.419773  L 489.323088 228.133848  L 492.855402 235.42139  L 496.387717 242.27524  L 499.920031 248.695548  L 503.452346 254.682553  L 506.98466 260.233033  L 510.516975 265.34094  L 514.049289 270.001397  L 517.581604 274.216244  L 521.113918 277.998868  L 524.646233 281.37647  L 528.178547 284.388822  L 531.710862 287.083793  L 535.243176 289.510892  L 538.775491 291.714588  L 542.307805 293.729066  L 545.84012 295.575587  L 549.372434 297.262802  L 552.904748 298.789646  L 556.437063 300.14978  L 559.969377 301.336284  L 563.501692 302.345289  L 567.034006 303.177707  L 570.566321 303.838847  L 574.098635 304.336473  L 577.63095 304.678405  L 581.163264 304.870914  L 584.695579 304.918768  L 588.227893 304.827116  L 591.760208 304.604525  L 598.824837 303.834378  L 616.486409 301.398098  L 623.551038 300.746265  L 630.615667 300.330703  L 637.680296 300.1251  L 644.744925 300.237388  L 648.277239 300.496961  L 651.809554 300.954697  L 655.341868 301.661787  L 658.874183 302.667268  L 662.406497 304.012909  L 665.938812 305.72751  L 669.471126 307.820594  L 673.003441 310.276238  L 676.535755 313.048529  L 683.600384 319.20888  L 690.665013 325.427  L 694.197328 328.25946  L 697.729642 330.781346  L 701.261957 332.937054  L 704.794271 334.706301  L 708.326586 336.100757  L 711.8589 337.156516  L 715.391215 337.924616  L 718.923529 338.461804  L 722.455843 338.823091  L 729.520472 339.202365  L 740.117416 339.367808  L 747.182045 339.390428  L 747.182045 339.390428  " clip-path="url(#p19cec98030)" style="fill: none; stroke: #000000; stroke-width: 1.5; stroke-linecap: round"/>
   </g>
   <g id="patch_5">
    <path d="M 44.28 339.3975  L 764.64 339.3975  " style="fill: none; stroke: #262626; stroke-width: 2; stroke-linejoin: miter; stroke-linecap: square"/>
   </g>
   <g id="text_4">
    <!-- cathepsin -->
    <g transform="translate(44.28 328.137187)scale(0.13 -0.13)">
     <defs>
      <path id="DejaVuSans-63" d="M 3122 3366  L 3122 2828  Q 2878 2963 2633 3030  Q 2388 3097 2138 3097  Q 1578 3097 1268 2742  Q 959 2388 959 1747  Q 959 1106 1268 751  Q 1578 397 2138 397  Q 2388 397 2633 464  Q 2878 531 3122 666  L 3122 134  Q 2881 22 2623 -34  Q 2366 -91 2075 -91  Q 1284 -91 818 406  Q 353 903 353 1747  Q 353 2603 823 3093  Q 1294 3584 2113 3584  Q 2378 3584 2631 3529  Q 2884 3475 3122 3366  z " transform="scale(0.015625)"/>
      <path id="DejaVuSans-61" d="M 2194 1759  Q 1497 1759 1228 1600  Q 959 1441 959 1056  Q 959 750 1161 570  Q 1363 391 1709 391  Q 2188 391 2477 730  Q 2766 1069 2766 1631  L 2766 1759  L 2194 1759  z M 3341 1997  L 3341 0  L 2766 0  L 2766 531  Q 2569 213 2275 61  Q 1981 -91 1556 -91  Q 1019 -91 701 211  Q 384 513 384 1019  Q 384 1609 779 1909  Q 1175 2209 1959 2209  L 2766 2209  L 2766 2266  Q 2766 2663 2505 2880  Q 2244 3097 1772 3097  Q 1472 3097 1187 3025  Q 903 2953 641 2809  L 641 3341  Q 956 3463 1253 3523  Q 1550 3584 1831 3584  Q 2591 3584 2966 3190  Q 3341 2797 3341 1997  z " transform="scale(0.015625)"/>
      <path id="DejaVuSans-68" d="M 3513 2113  L 3513 0  L 2938 0  L 2938 2094  Q 2938 2591 2744 2837  Q 2550 3084 2163 3084  Q 1697 3084 1428 2787  Q 1159 2491 1159 1978  L 1159 0  L 581 0  L 581 4863  L 1159 4863  L 1159 2956  Q 1366 3272 1645 3428  Q 1925 3584 2291 3584  Q 2894 3584 3203 3211  Q 3513 2838 3513 2113  z " transform="scale(0.015625)"/>
      <path id="DejaVuSans-70" d="M 1159 525  L 1159 -1331  L 581 -1331  L 581 3500  L 1159 3500  L 1159 2969  Q 1341 3281 1617 3432  Q 1894 3584 2278 3584  Q 2916 3584 3314 3078  Q 3713 2572 3713 1747  Q 3713 922 3314 415  Q 2916 -91 2278 -91  Q 1894 -91 1617 61  Q 1341 213 1159 525  z M 3116 1747  Q 3116 2381 2855 2742  Q 2594 3103 2138 3103  Q 1681 3103 1420 2742  Q 1159 2381 1159 1747  Q 1159 1113 1420 752  Q 1681 391 2138 391  Q 2594 391 2855 752  Q 3116 1113 3116 1747  z " transform="scale(0.015625)"/>
     </defs>
     <use xlink:href="#DejaVuSans-63"/>
     <use xlink:href="#DejaVuSans-61" x="54.980469"/>
     <use xlink:href="#DejaVuSans-74" x="116.259766"/>
     <use xlink:href="#DejaVuSans-68" x="155.46875"/>
     <use xlink:href="#DejaVuSans-65" x="218.847656"/>
     <use xlink:href="#DejaVuSans-70" x="280.371094"/>
     <use xlink:href="#DejaVuSans-73" x="343.847656"/>
     <use xlink:href="#DejaVuSans-69" x="395.947266"/>
     <use xlink:href="#DejaVuSans-6e" x="423.730469"/>
    </g>
   </g>
  </g>
  <g id="axes_3">
   <g id="patch_6">
    <path d="M 44.28 354.245  L 764.64 354.245  L 764.64 57.295  L 44.28 57.295  L 44.28 354.245  z " style="fill: none"/>
   </g>
   <g id="matplotlib.axis_5">
    <g id="xtick_19"/>
    <g id="xtick_20"/>
    <g id="xtick_21"/>
    <g id="xtick_22"/>
    <g id="xtick_23"/>
    <g id="xtick_24"/>
    <g id="xtick_25"/>
    <g id="xtick_26"/>
    <g id="xtick_27"/>
   </g>
   <g id="matplotlib.axis_6">
    <g id="text_5">
     <!-- Density -->
     <g style="fill: #262626" transform="translate(37.784375 228.580313)rotate(-90)scale(0.12 -0.12)">
      <use xlink:href="#DejaVuSans-44"/>
      <use xlink:href="#DejaVuSans-65" x="77.001953"/>
      <use xlink:href="#DejaVuSans-6e" x="138.525391"/>
      <use xlink:href="#DejaVuSans-73" x="201.904297"/>
      <use xlink:href="#DejaVuSans-69" x="254.003906"/>
      <use xlink:href="#DejaVuSans-74" x="281.787109"/>
      <use xlink:href="#DejaVuSans-79" x="320.996094"/>
     </g>
    </g>
   </g>
   <g id="PolyCollection_3">
    <defs>
     <path id="m7d26a94b09" d="M 35.522883 -77.757557  L 35.522883 -77.755  L 39.172938 -77.755  L 42.822994 -77.755  L 46.473049 -77.755  L 50.123105 -77.755  L 53.77316 -77.755  L 57.423216 -77.755  L 61.073271 -77.755  L 64.723327 -77.755  L 68.373383 -77.755  L 72.023438 -77.755  L 75.673494 -77.755  L 79.323549 -77.755  L 82.973605 -77.755  L 86.62366 -77.755  L 90.273716 -77.755  L 93.923771 -77.755  L 97.573827 -77.755  L 101.223882 -77.755  L 104.873938 -77.755  L 108.523993 -77.755  L 112.174049 -77.755  L 115.824104 -77.755  L 119.47416 -77.755  L 123.124215 -77.755  L 126.774271 -77.755  L 130.424327 -77.755  L 134.074382 -77.755  L 137.724438 -77.755  L 141.374493 -77.755  L 145.024549 -77.755  L 148.674604 -77.755  L 152.32466 -77.755  L 155.974715 -77.755  L 159.624771 -77.755  L 163.274826 -77.755  L 166.924882 -77.755  L 170.574937 -77.755  L 174.224993 -77.755  L 177.875048 -77.755  L 181.525104 -77.755  L 185.175159 -77.755  L 188.825215 -77.755  L 192.47527 -77.755  L 196.125326 -77.755  L 199.775382 -77.755  L 203.425437 -77.755  L 207.075493 -77.755  L 210.725548 -77.755  L 214.375604 -77.755  L 218.025659 -77.755  L 221.675715 -77.755  L 225.32577 -77.755  L 228.975826 -77.755  L 232.625881 -77.755  L 236.275937 -77.755  L 239.925992 -77.755  L 243.576048 -77.755  L 247.226103 -77.755  L 250.876159 -77.755  L 254.526214 -77.755  L 258.17627 -77.755  L 261.826326 -77.755  L 265.476381 -77.755  L 269.126437 -77.755  L 272.776492 -77.755  L 276.426548 -77.755  L 280.076603 -77.755  L 283.726659 -77.755  L 287.376714 -77.755  L 291.02677 -77.755  L 294.676825 -77.755  L 298.326881 -77.755  L 301.976936 -77.755  L 305.626992 -77.755  L 309.277047 -77.755  L 312.927103 -77.755  L 316.577158 -77.755  L 320.227214 -77.755  L 323.87727 -77.755  L 327.527325 -77.755  L 331.177381 -77.755  L 334.827436 -77.755  L 338.477492 -77.755  L 342.127547 -77.755  L 345.777603 -77.755  L 349.427658 -77.755  L 353.077714 -77.755  L 356.727769 -77.755  L 360.377825 -77.755  L 364.02788 -77.755  L 367.677936 -77.755  L 371.327991 -77.755  L 374.978047 -77.755  L 378.628102 -77.755  L 382.278158 -77.755  L 385.928213 -77.755  L 389.578269 -77.755  L 393.228325 -77.755  L 396.87838 -77.755  L 400.528436 -77.755  L 404.178491 -77.755  L 407.828547 -77.755  L 411.478602 -77.755  L 415.128658 -77.755  L 418.778713 -77.755  L 422.428769 -77.755  L 426.078824 -77.755  L 429.72888 -77.755  L 433.378935 -77.755  L 437.028991 -77.755  L 440.679046 -77.755  L 444.329102 -77.755  L 447.979157 -77.755  L 451.629213 -77.755  L 455.279269 -77.755  L 458.929324 -77.755  L 462.57938 -77.755  L 466.229435 -77.755  L 469.879491 -77.755  L 473.529546 -77.755  L 477.179602 -77.755  L 480.829657 -77.755  L 484.479713 -77.755  L 488.129768 -77.755  L 491.779824 -77.755  L 495.429879 -77.755  L 499.079935 -77.755  L 502.72999 -77.755  L 506.380046 -77.755  L 510.030101 -77.755  L 513.680157 -77.755  L 517.330213 -77.755  L 520.980268 -77.755  L 524.630324 -77.755  L 528.280379 -77.755  L 531.930435 -77.755  L 535.58049 -77.755  L 539.230546 -77.755  L 542.880601 -77.755  L 546.530657 -77.755  L 550.180712 -77.755  L 553.830768 -77.755  L 557.480823 -77.755  L 561.130879 -77.755  L 564.780934 -77.755  L 568.43099 -77.755  L 572.081045 -77.755  L 575.731101 -77.755  L 579.381156 -77.755  L 583.031212 -77.755  L 586.681268 -77.755  L 590.331323 -77.755  L 593.981379 -77.755  L 597.631434 -77.755  L 601.28149 -77.755  L 604.931545 -77.755  L 608.581601 -77.755  L 612.231656 -77.755  L 615.881712 -77.755  L 619.531767 -77.755  L 623.181823 -77.755  L 626.831878 -77.755  L 630.481934 -77.755  L 634.131989 -77.755  L 637.782045 -77.755  L 641.4321 -77.755  L 645.082156 -77.755  L 648.732212 -77.755  L 652.382267 -77.755  L 656.032323 -77.755  L 659.682378 -77.755  L 663.332434 -77.755  L 666.982489 -77.755  L 670.632545 -77.755  L 674.2826 -77.755  L 677.932656 -77.755  L 681.582711 -77.755  L 685.232767 -77.755  L 688.882822 -77.755  L 692.532878 -77.755  L 696.182933 -77.755  L 699.832989 -77.755  L 703.483044 -77.755  L 707.1331 -77.755  L 710.783156 -77.755  L 714.433211 -77.755  L 718.083267 -77.755  L 721.733322 -77.755  L 725.383378 -77.755  L 729.033433 -77.755  L 732.683489 -77.755  L 736.333544 -77.755  L 739.9836 -77.755  L 743.633655 -77.755  L 747.283711 -77.755  L 750.933766 -77.755  L 754.583822 -77.755  L 758.233877 -77.755  L 761.883933 -77.755  L 761.883933 -77.781842  L 761.883933 -77.781842  L 758.233877 -77.806773  L 754.583822 -77.851638  L 750.933766 -77.929614  L 747.283711 -78.060514  L 743.633655 -78.27279  L 739.9836 -78.605381  L 736.333544 -79.108911  L 732.683489 -79.845634  L 729.033433 -80.887493  L 725.383378 -82.311762  L 721.733322 -84.194104  L 718.083267 -86.599344  L 714.433211 -89.570863  L 710.783156 -93.120066  L 707.1331 -97.217734  L 703.483044 -101.789069  L 699.832989 -106.713886  L 696.182933 -111.832602  L 692.532878 -116.957732  L 688.882822 -121.889575  L 685.232767 -126.433981  L 681.582711 -130.419677  L 677.932656 -133.712679  L 674.2826 -136.225865  L 670.632545 -137.922626  L 666.982489 -138.814607  L 663.332434 -138.954545  L 659.682378 -138.42597  L 656.032323 -137.331871  L 652.382267 -135.784314  L 648.732212 -133.896394  L 645.082156 -131.777132  L 641.4321 -129.529024  L 637.782045 -127.247369  L 634.131989 -125.020206  L 630.481934 -122.927822  L 626.831878 -121.041253  L 623.181823 -119.419781  L 619.531767 -118.107975  L 615.881712 -117.133178  L 612.231656 -116.504377  L 608.581601 -116.213176  L 604.931545 -116.237129  L 601.28149 -116.545144  L 597.631434 -117.104152  L 593.981379 -117.885917  L 590.331323 -118.872783  L 586.681268 -120.061384  L 583.031212 -121.463762  L 579.381156 -123.10589  L 575.731101 -125.024033  L 572.081045 -127.259721  L 568.43099 -129.854139  L 564.780934 -132.84264  L 561.130879 -136.24988  L 557.480823 -140.085851  L 553.830768 -144.342998  L 550.180712 -148.994631  L 546.530657 -153.994904  L 542.880601 -159.280713  L 539.230546 -164.77579  L 535.58049 -170.396994  L 531.930435 -176.062408  L 528.280379 -181.700301  L 524.630324 -187.257573  L 520.980268 -192.706048  L 517.330213 -198.04511  L 513.680157 -203.299661  L 510.030101 -208.513198  L 506.380046 -213.736823  L 502.72999 -219.015947  L 499.079935 -224.377091  L 495.429879 -229.817426  L 491.779824 -235.299325  L 488.129768 -240.751367  L 484.479713 -246.076036  L 480.829657 -251.162986  L 477.179602 -255.905563  L 473.529546 -260.217432  L 469.879491 -264.045969  L 466.229435 -267.379578  L 462.57938 -270.247356  L 458.929324 -272.711214  L 455.279269 -274.852391  L 451.629213 -276.755701  L 447.979157 -278.495365  L 444.329102 -280.125749  L 440.679046 -281.678744  L 437.028991 -283.167516  L 433.378935 -284.594446  L 429.72888 -285.960008  L 426.078824 -287.269428  L 422.428769 -288.535074  L 418.778713 -289.774235  L 415.128658 -291.003601  L 411.478602 -292.23275  L 407.828547 -293.459052  L 404.178491 -294.665688  L 400.528436 -295.823301  L 396.87838 -296.894621  L 393.228325 -297.840625  L 389.578269 -298.626553  L 385.928213 -299.226444  L 382.278158 -299.625431  L 378.628102 -299.819796  L 374.978047 -299.815213  L 371.327991 -299.623844  L 367.677936 -299.260811  L 364.02788 -298.740317  L 360.377825 -298.071468  L 356.727769 -297.253884  L 353.077714 -296.273471  L 349.427658 -295.099179  L 345.777603 -293.681985  L 342.127547 -291.957271  L 338.477492 -289.851277  L 334.827436 -287.291221  L 331.177381 -284.217411  L 327.527325 -280.594703  L 323.87727 -276.420328  L 320.227214 -271.725783  L 316.577158 -266.571918  L 312.927103 -261.038257  L 309.277047 -255.20919  L 305.626992 -249.160583  L 301.976936 -242.950101  L 298.326881 -236.613374  L 294.676825 -230.166389  L 291.02677 -223.612731  L 287.376714 -216.953149  L 283.726659 -210.194588  L 280.076603 -203.356381  L 276.426548 -196.47241  L 272.776492 -189.589304  L 269.126437 -182.761783  L 265.476381 -176.046732  L 261.826326 -169.497558  L 258.17627 -163.159898  L 254.526214 -157.069136  L 250.876159 -151.249656  L 247.226103 -145.715406  L 243.576048 -140.471321  L 239.925992 -135.515195  L 236.275937 -130.839729  L 232.625881 -126.434572  L 228.975826 -122.288165  L 225.32577 -118.389234  L 221.675715 -114.72777  L 218.025659 -111.295453  L 214.375604 -108.085583  L 210.725548 -105.092672  L 207.075493 -102.311931  L 203.425437 -99.738805  L 199.775382 -97.368629  L 196.125326 -95.196394  L 192.47527 -93.216546  L 188.825215 -91.422756  L 185.175159 -89.80768  L 181.525104 -88.36276  L 177.875048 -87.078148  L 174.224993 -85.942799  L 170.574937 -84.944709  L 166.924882 -84.07123  L 163.274826 -83.309366  L 159.624771 -82.646018  L 155.974715 -82.068184  L 152.32466 -81.563194  L 148.674604 -81.119043  L 145.024549 -80.724861  L 141.374493 -80.371449  L 137.724438 -80.051763  L 134.074382 -79.761178  L 130.424327 -79.497411  L 126.774271 -79.260052  L 123.124215 -79.049784  L 119.47416 -78.867443  L 115.824104 -78.713139  L 112.174049 -78.585648  L 108.523993 -78.482184  L 104.873938 -78.3986  L 101.223882 -78.329934  L 97.573827 -78.271135  L 93.923771 -78.217786  L 90.273716 -78.166651  L 86.62366 -78.115939  L 82.973605 -78.065262  L 79.323549 -78.015336  L 75.673494 -77.967535  L 72.023438 -77.923411  L 68.373383 -77.8843  L 64.723327 -77.851068  L 61.073271 -77.824013  L 57.423216 -77.802904  L 53.77316 -77.787115  L 50.123105 -77.775787  L 46.473049 -77.767988  L 42.822994 -77.762831  L 39.172938 -77.759556  L 35.522883 -77.757557  z " style="stroke: #8da0cb"/>
    </defs>
    <g clip-path="url(#p89946f0bfc)">
     <use xlink:href="#m7d26a94b09" x="0" y="432" style="fill: #8da0cb; stroke: #8da0cb"/>
    </g>
   </g>
   <g id="line2d_3">
    <path d="M 35.522883 354.242443  L 68.373383 354.1157  L 101.223882 353.670066  L 115.824104 353.286861  L 126.774271 352.739948  L 137.724438 351.948237  L 148.674604 350.880957  L 155.974715 349.931816  L 163.274826 348.690634  L 170.574937 347.055291  L 174.224993 346.057201  L 177.875048 344.921852  L 181.525104 343.63724  L 185.175159 342.19232  L 188.825215 340.577244  L 192.47527 338.783454  L 196.125326 336.803606  L 199.775382 334.631371  L 203.425437 332.261195  L 207.075493 329.688069  L 210.725548 326.907328  L 214.375604 323.914417  L 218.025659 320.704547  L 221.675715 317.27223  L 225.32577 313.610766  L 228.975826 309.711835  L 232.625881 305.565428  L 236.275937 301.160271  L 239.925992 296.484805  L 243.576048 291.528679  L 247.226103 286.284594  L 250.876159 280.750344  L 254.526214 274.930864  L 258.17627 268.840102  L 265.476381 255.953268  L 272.776492 242.410696  L 287.376714 215.046851  L 294.676825 201.833611  L 301.976936 189.049899  L 309.277047 176.79081  L 312.927103 170.961743  L 316.577158 165.428082  L 320.227214 160.274217  L 323.87727 155.579672  L 327.527325 151.405297  L 331.177381 147.782589  L 334.827436 144.708779  L 338.477492 142.148723  L 342.127547 140.042729  L 345.777603 138.318015  L 349.427658 136.900821  L 353.077714 135.726529  L 356.727769 134.746116  L 360.377825 133.928532  L 364.02788 133.259683  L 367.677936 132.739189  L 371.327991 132.376156  L 374.978047 132.184787  L 378.628102 132.180204  L 382.278158 132.374569  L 385.928213 132.773556  L 389.578269 133.373447  L 393.228325 134.159375  L 396.87838 135.105379  L 404.178491 137.334312  L 422.428769 143.464926  L 429.72888 146.039992  L 437.028991 148.832484  L 444.329102 151.874251  L 451.629213 155.244299  L 455.279269 157.147609  L 458.929324 159.288786  L 462.57938 161.752644  L 466.229435 164.620422  L 469.879491 167.954031  L 473.529546 171.782568  L 477.179602 176.094437  L 480.829657 180.837014  L 484.479713 185.923964  L 491.779824 196.700675  L 502.72999 212.984053  L 524.630324 244.742427  L 535.58049 261.603006  L 542.880601 272.719287  L 546.530657 278.005096  L 550.180712 283.005369  L 553.830768 287.657002  L 557.480823 291.914149  L 561.130879 295.75012  L 564.780934 299.15736  L 568.43099 302.145861  L 572.081045 304.740279  L 575.731101 306.975967  L 579.381156 308.89411  L 583.031212 310.536238  L 586.681268 311.938616  L 590.331323 313.127217  L 593.981379 314.114083  L 597.631434 314.895848  L 601.28149 315.454856  L 604.931545 315.762871  L 608.581601 315.786824  L 612.231656 315.495623  L 615.881712 314.866822  L 619.531767 313.892025  L 623.181823 312.580219  L 626.831878 310.958747  L 630.481934 309.072178  L 634.131989 306.979794  L 648.732212 298.103606  L 652.382267 296.215686  L 656.032323 294.668129  L 659.682378 293.57403  L 663.332434 293.045455  L 666.982489 293.185393  L 670.632545 294.077374  L 674.2826 295.774135  L 677.932656 298.287321  L 681.582711 301.580323  L 685.232767 305.566019  L 688.882822 310.110425  L 692.532878 315.042268  L 699.832989 325.286114  L 703.483044 330.210931  L 707.1331 334.782266  L 710.783156 338.879934  L 714.433211 342.429137  L 718.083267 345.400656  L 721.733322 347.805896  L 725.383378 349.688238  L 729.033433 351.112507  L 732.683489 352.154366  L 736.333544 352.891089  L 739.9836 353.394619  L 743.633655 353.72721  L 750.933766 354.070386  L 761.883933 354.218158  L 761.883933 354.218158  " clip-path="url(#p89946f0bfc)" style="fill: none; stroke: #000000; stroke-width: 1.5; stroke-linecap: round"/>
   </g>
   <g id="patch_7">
    <path d="M 44.28 354.245  L 764.64 354.245  " style="fill: none; stroke: #262626; stroke-width: 2; stroke-linejoin: miter; stroke-linecap: square"/>
   </g>
   <g id="text_6">
    <!-- tegument -->
    <g transform="translate(44.28 342.984688)scale(0.13 -0.13)">
     <defs>
      <path id="DejaVuSans-67" d="M 2906 1791  Q 2906 2416 2648 2759  Q 2391 3103 1925 3103  Q 1463 3103 1205 2759  Q 947 2416 947 1791  Q 947 1169 1205 825  Q 1463 481 1925 481  Q 2391 481 2648 825  Q 2906 1169 2906 1791  z M 3481 434  Q 3481 -459 3084 -895  Q 2688 -1331 1869 -1331  Q 1566 -1331 1297 -1286  Q 1028 -1241 775 -1147  L 775 -588  Q 1028 -725 1275 -790  Q 1522 -856 1778 -856  Q 2344 -856 2625 -561  Q 2906 -266 2906 331  L 2906 616  Q 2728 306 2450 153  Q 2172 0 1784 0  Q 1141 0 747 490  Q 353 981 353 1791  Q 353 2603 747 3093  Q 1141 3584 1784 3584  Q 2172 3584 2450 3431  Q 2728 3278 2906 2969  L 2906 3500  L 3481 3500  L 3481 434  z " transform="scale(0.015625)"/>
      <path id="DejaVuSans-75" d="M 544 1381  L 544 3500  L 1119 3500  L 1119 1403  Q 1119 906 1312 657  Q 1506 409 1894 409  Q 2359 409 2629 706  Q 2900 1003 2900 1516  L 2900 3500  L 3475 3500  L 3475 0  L 2900 0  L 2900 538  Q 2691 219 2414 64  Q 2138 -91 1772 -91  Q 1169 -91 856 284  Q 544 659 544 1381  z M 1991 3584  L 1991 3584  z " transform="scale(0.015625)"/>
      <path id="DejaVuSans-6d" d="M 3328 2828  Q 3544 3216 3844 3400  Q 4144 3584 4550 3584  Q 5097 3584 5394 3201  Q 5691 2819 5691 2113  L 5691 0  L 5113 0  L 5113 2094  Q 5113 2597 4934 2840  Q 4756 3084 4391 3084  Q 3944 3084 3684 2787  Q 3425 2491 3425 1978  L 3425 0  L 2847 0  L 2847 2094  Q 2847 2600 2669 2842  Q 2491 3084 2119 3084  Q 1678 3084 1418 2786  Q 1159 2488 1159 1978  L 1159 0  L 581 0  L 581 3500  L 1159 3500  L 1159 2956  Q 1356 3278 1631 3431  Q 1906 3584 2284 3584  Q 2666 3584 2933 3390  Q 3200 3197 3328 2828  z " transform="scale(0.015625)"/>
     </defs>
     <use xlink:href="#DejaVuSans-74"/>
     <use xlink:href="#DejaVuSans-65" x="39.208984"/>
     <use xlink:href="#DejaVuSans-67" x="100.732422"/>
     <use xlink:href="#DejaVuSans-75" x="164.208984"/>
     <use xlink:href="#DejaVuSans-6d" x="227.587891"/>
     <use xlink:href="#DejaVuSans-65" x="325"/>
     <use xlink:href="#DejaVuSans-6e" x="386.523438"/>
     <use xlink:href="#DejaVuSans-74" x="449.902344"/>
    </g>
   </g>
  </g>
  <g id="axes_4">
   <g id="patch_8">
    <path d="M 44.28 369.0925  L 764.64 369.0925  L 764.64 72.1425  L 44.28 72.1425  L 44.28 369.0925  z " style="fill: none"/>
   </g>
   <g id="matplotlib.axis_7">
    <g id="xtick_28"/>
    <g id="xtick_29"/>
    <g id="xtick_30"/>
    <g id="xtick_31"/>
    <g id="xtick_32"/>
    <g id="xtick_33"/>
    <g id="xtick_34"/>
    <g id="xtick_35"/>
    <g id="xtick_36"/>
   </g>
   <g id="matplotlib.axis_8">
    <g id="text_7">
     <!-- Density -->
     <g style="fill: #262626" transform="translate(37.784375 243.427813)rotate(-90)scale(0.12 -0.12)">
      <use xlink:href="#DejaVuSans-44"/>
      <use xlink:href="#DejaVuSans-65" x="77.001953"/>
      <use xlink:href="#DejaVuSans-6e" x="138.525391"/>
      <use xlink:href="#DejaVuSans-73" x="201.904297"/>
      <use xlink:href="#DejaVuSans-69" x="254.003906"/>
      <use xlink:href="#DejaVuSans-74" x="281.787109"/>
      <use xlink:href="#DejaVuSans-79" x="320.996094"/>
     </g>
    </g>
   </g>
   <g id="PolyCollection_4">
    <defs>
     <path id="m2801426cfe" d="M 33.075063 -62.909605  L 33.075063 -62.9075  L 36.758417 -62.9075  L 40.441771 -62.9075  L 44.125125 -62.9075  L 47.80848 -62.9075  L 51.491834 -62.9075  L 55.175188 -62.9075  L 58.858542 -62.9075  L 62.541896 -62.9075  L 66.22525 -62.9075  L 69.908604 -62.9075  L 73.591958 -62.9075  L 77.275312 -62.9075  L 80.958667 -62.9075  L 84.642021 -62.9075  L 88.325375 -62.9075  L 92.008729 -62.9075  L 95.692083 -62.9075  L 99.375437 -62.9075  L 103.058791 -62.9075  L 106.742145 -62.9075  L 110.425499 -62.9075  L 114.108854 -62.9075  L 117.792208 -62.9075  L 121.475562 -62.9075  L 125.158916 -62.9075  L 128.84227 -62.9075  L 132.525624 -62.9075  L 136.208978 -62.9075  L 139.892332 -62.9075  L 143.575686 -62.9075  L 147.259041 -62.9075  L 150.942395 -62.9075  L 154.625749 -62.9075  L 158.309103 -62.9075  L 161.992457 -62.9075  L 165.675811 -62.9075  L 169.359165 -62.9075  L 173.042519 -62.9075  L 176.725873 -62.9075  L 180.409228 -62.9075  L 184.092582 -62.9075  L 187.775936 -62.9075  L 191.45929 -62.9075  L 195.142644 -62.9075  L 198.825998 -62.9075  L 202.509352 -62.9075  L 206.192706 -62.9075  L 209.87606 -62.9075  L 213.559415 -62.9075  L 217.242769 -62.9075  L 220.926123 -62.9075  L 224.609477 -62.9075  L 228.292831 -62.9075  L 231.976185 -62.9075  L 235.659539 -62.9075  L 239.342893 -62.9075  L 243.026247 -62.9075  L 246.709602 -62.9075  L 250.392956 -62.9075  L 254.07631 -62.9075  L 257.759664 -62.9075  L 261.443018 -62.9075  L 265.126372 -62.9075  L 268.809726 -62.9075  L 272.49308 -62.9075  L 276.176434 -62.9075  L 279.859789 -62.9075  L 283.543143 -62.9075  L 287.226497 -62.9075  L 290.909851 -62.9075  L 294.593205 -62.9075  L 298.276559 -62.9075  L 301.959913 -62.9075  L 305.643267 -62.9075  L 309.326621 -62.9075  L 313.009976 -62.9075  L 316.69333 -62.9075  L 320.376684 -62.9075  L 324.060038 -62.9075  L 327.743392 -62.9075  L 331.426746 -62.9075  L 335.1101 -62.9075  L 338.793454 -62.9075  L 342.476808 -62.9075  L 346.160163 -62.9075  L 349.843517 -62.9075  L 353.526871 -62.9075  L 357.210225 -62.9075  L 360.893579 -62.9075  L 364.576933 -62.9075  L 368.260287 -62.9075  L 371.943641 -62.9075  L 375.626996 -62.9075  L 379.31035 -62.9075  L 382.993704 -62.9075  L 386.677058 -62.9075  L 390.360412 -62.9075  L 394.043766 -62.9075  L 397.72712 -62.9075  L 401.410474 -62.9075  L 405.093828 -62.9075  L 408.777183 -62.9075  L 412.460537 -62.9075  L 416.143891 -62.9075  L 419.827245 -62.9075  L 423.510599 -62.9075  L 427.193953 -62.9075  L 430.877307 -62.9075  L 434.560661 -62.9075  L 438.244015 -62.9075  L 441.92737 -62.9075  L 445.610724 -62.9075  L 449.294078 -62.9075  L 452.977432 -62.9075  L 456.660786 -62.9075  L 460.34414 -62.9075  L 464.027494 -62.9075  L 467.710848 -62.9075  L 471.394202 -62.9075  L 475.077557 -62.9075  L 478.760911 -62.9075  L 482.444265 -62.9075  L 486.127619 -62.9075  L 489.810973 -62.9075  L 493.494327 -62.9075  L 497.177681 -62.9075  L 500.861035 -62.9075  L 504.544389 -62.9075  L 508.227744 -62.9075  L 511.911098 -62.9075  L 515.594452 -62.9075  L 519.277806 -62.9075  L 522.96116 -62.9075  L 526.644514 -62.9075  L 530.327868 -62.9075  L 534.011222 -62.9075  L 537.694576 -62.9075  L 541.377931 -62.9075  L 545.061285 -62.9075  L 548.744639 -62.9075  L 552.427993 -62.9075  L 556.111347 -62.9075  L 559.794701 -62.9075  L 563.478055 -62.9075  L 567.161409 -62.9075  L 570.844763 -62.9075  L 574.528118 -62.9075  L 578.211472 -62.9075  L 581.894826 -62.9075  L 585.57818 -62.9075  L 589.261534 -62.9075  L 592.944888 -62.9075  L 596.628242 -62.9075  L 600.311596 -62.9075  L 603.99495 -62.9075  L 607.678305 -62.9075  L 611.361659 -62.9075  L 615.045013 -62.9075  L 618.728367 -62.9075  L 622.411721 -62.9075  L 626.095075 -62.9075  L 629.778429 -62.9075  L 633.461783 -62.9075  L 637.145137 -62.9075  L 640.828492 -62.9075  L 644.511846 -62.9075  L 648.1952 -62.9075  L 651.878554 -62.9075  L 655.561908 -62.9075  L 659.245262 -62.9075  L 662.928616 -62.9075  L 666.61197 -62.9075  L 670.295324 -62.9075  L 673.978679 -62.9075  L 677.662033 -62.9075  L 681.345387 -62.9075  L 685.028741 -62.9075  L 688.712095 -62.9075  L 692.395449 -62.9075  L 696.078803 -62.9075  L 699.762157 -62.9075  L 703.445511 -62.9075  L 707.128866 -62.9075  L 710.81222 -62.9075  L 714.495574 -62.9075  L 718.178928 -62.9075  L 721.862282 -62.9075  L 725.545636 -62.9075  L 729.22899 -62.9075  L 732.912344 -62.9075  L 736.595698 -62.9075  L 740.279053 -62.9075  L 743.962407 -62.9075  L 747.645761 -62.9075  L 751.329115 -62.9075  L 755.012469 -62.9075  L 758.695823 -62.9075  L 762.379177 -62.9075  L 766.062531 -62.9075  L 766.062531 -62.919129  L 766.062531 -62.919129  L 762.379177 -62.930768  L 758.695823 -62.952606  L 755.012469 -62.992225  L 751.329115 -63.061722  L 747.645761 -63.179572  L 743.962407 -63.372734  L 740.279053 -63.678704  L 736.595698 -64.146999  L 732.912344 -64.839421  L 729.22899 -65.828328  L 725.545636 -67.192288  L 721.862282 -69.008793  L 718.178928 -71.344348  L 714.495574 -74.242931  L 710.81222 -77.714598  L 707.128866 -81.726395  L 703.445511 -86.197775  L 699.762157 -91.002094  L 696.078803 -95.974729  L 692.395449 -100.926996  L 688.712095 -105.66387  L 685.028741 -110.002738  L 681.345387 -113.790264  L 677.662033 -116.91502  L 673.978679 -119.314478  L 670.295324 -120.976126  L 666.61197 -121.933434  L 662.928616 -122.258098  L 659.245262 -122.05022  L 655.561908 -121.428053  L 651.878554 -120.518663  L 648.1952 -119.450438  L 644.511846 -118.347922  L 640.828492 -117.32894  L 637.145137 -116.503526  L 633.461783 -115.973744  L 629.778429 -115.833375  L 626.095075 -116.166522  L 622.411721 -117.044625  L 618.728367 -118.522037  L 615.045013 -120.631008  L 611.361659 -123.377475  L 607.678305 -126.739264  L 603.99495 -130.668084  L 600.311596 -135.096001  L 596.628242 -139.946097  L 592.944888 -145.145937  L 589.261534 -150.641478  L 585.57818 -156.408575  L 581.894826 -162.459315  L 578.211472 -168.84119  L 574.528118 -175.62853  L 570.844763 -182.907219  L 567.161409 -190.755295  L 563.478055 -199.22303  L 559.794701 -208.316355  L 556.111347 -217.986809  L 552.427993 -228.12994  L 548.744639 -238.592319  L 545.061285 -249.185703  L 541.377931 -259.705596  L 537.694576 -269.950778  L 534.011222 -279.74046  L 530.327868 -288.926362  L 526.644514 -297.398181  L 522.96116 -305.08225  L 519.277806 -311.934552  L 515.594452 -317.930256  L 511.911098 -323.052521  L 508.227744 -327.283238  L 504.544389 -330.597761  L 500.861035 -332.964636  L 497.177681 -334.350133  L 493.494327 -334.726374  L 489.810973 -334.081159  L 486.127619 -332.427342  L 482.444265 -329.809763  L 478.760911 -326.308186  L 475.077557 -322.035331  L 471.394202 -317.129958  L 467.710848 -311.745831  L 464.027494 -306.038352  L 460.34414 -300.151237  L 456.660786 -294.205778  L 452.977432 -288.294649  L 449.294078 -282.481091  L 445.610724 -276.802828  L 441.92737 -271.27881  L 438.244015 -265.916261  L 434.560661 -260.715762  L 430.877307 -255.673197  L 427.193953 -250.778818  L 423.510599 -246.015  L 419.827245 -241.354832  L 416.143891 -236.763421  L 412.460537 -232.202637  L 408.777183 -227.638593  L 405.093828 -223.049848  L 401.410474 -218.43376  L 397.72712 -213.808741  L 394.043766 -209.211361  L 390.360412 -204.688827  L 386.677058 -200.288842  L 382.993704 -196.049662  L 379.31035 -191.993093  L 375.626996 -188.122215  L 371.943641 -184.424157  L 368.260287 -180.876789  L 364.576933 -177.457189  L 360.893579 -174.149533  L 357.210225 -170.950498  L 353.526871 -167.871192  L 349.843517 -164.935561  L 346.160163 -162.175955  L 342.476808 -159.626805  L 338.793454 -157.317413  L 335.1101 -155.264795  L 331.426746 -153.467536  L 327.743392 -151.901713  L 324.060038 -150.520012  L 320.376684 -149.25491  L 316.69333 -148.026137  L 313.009976 -146.751591  L 309.326621 -145.359806  L 305.643267 -143.801265  L 301.959913 -142.055841  L 298.276559 -140.134409  L 294.593205 -138.074152  L 290.909851 -135.928762  L 287.226497 -133.756123  L 283.543143 -131.606653  L 279.859789 -129.515066  L 276.176434 -127.497166  L 272.49308 -125.551646  L 268.809726 -123.665471  L 265.126372 -121.820611  L 261.443018 -119.999878  L 257.759664 -118.190332  L 254.07631 -116.383802  L 250.392956 -114.575061  L 246.709602 -112.758892  L 243.026247 -110.927421  L 239.342893 -109.0688  L 235.659539 -107.167789  L 231.976185 -105.208148  L 228.292831 -103.176285  L 224.609477 -101.065271  L 220.926123 -98.878276  L 217.242769 -96.630581  L 213.559415 -94.349619  L 209.87606 -92.072853  L 206.192706 -89.843736  L 202.509352 -87.706382  L 198.825998 -85.699847  L 195.142644 -83.853013  L 191.45929 -82.180983  L 187.775936 -80.683601  L 184.092582 -79.346312  L 180.409228 -78.143146  L 176.725873 -77.041234  L 173.042519 -76.006053  L 169.359165 -75.006483  L 165.675811 -74.018894  L 161.992457 -73.029692  L 158.309103 -72.036045  L 154.625749 -71.044855  L 150.942395 -70.07032  L 147.259041 -69.130642  L 143.575686 -68.24456  L 139.892332 -67.428317  L 136.208978 -66.693558  L 132.525624 -66.046366  L 128.84227 -65.487416  L 125.158916 -65.012959  L 121.475562 -64.616242  L 117.792208 -64.288936  L 114.108854 -64.022274  L 110.425499 -63.807747  L 106.742145 -63.637379  L 103.058791 -63.503741  L 99.375437 -63.399867  L 95.692083 -63.319249  L 92.008729 -63.255953  L 88.325375 -63.204835  L 84.642021 -63.161781  L 80.958667 -63.123858  L 77.275312 -63.089311  L 73.591958 -63.057401  L 69.908604 -63.028111  L 66.22525 -63.001813  L 62.541896 -62.978954  L 58.858542 -62.959834  L 55.175188 -62.944498  L 51.491834 -62.932718  L 47.80848 -62.924061  L 44.125125 -62.917972  L 40.441771 -62.913874  L 36.758417 -62.911234  L 33.075063 -62.909605  z " style="stroke: #e78ac3"/>
    </defs>
    <g clip-path="url(#p187d48c328)">
     <use xlink:href="#m2801426cfe" x="0" y="432" style="fill: #e78ac3; stroke: #e78ac3"/>
    </g>
   </g>
   <g id="line2d_4">
    <path d="M 33.075063 369.090395  L 69.908604 368.971889  L 95.692083 368.680751  L 106.742145 368.362621  L 114.108854 367.977726  L 121.475562 367.383758  L 128.84227 366.512584  L 136.208978 365.306442  L 143.575686 363.75544  L 150.942395 361.92968  L 173.042519 355.993947  L 180.409228 353.856854  L 184.092582 352.653688  L 187.775936 351.316399  L 191.45929 349.819017  L 195.142644 348.146987  L 198.825998 346.300153  L 202.509352 344.293618  L 209.87606 339.927147  L 224.609477 330.934729  L 231.976185 326.791852  L 239.342893 322.9312  L 254.07631 315.616198  L 268.809726 308.334529  L 276.176434 304.502834  L 283.543143 300.393347  L 298.276559 291.865591  L 301.959913 289.944159  L 305.643267 288.198735  L 309.326621 286.640194  L 316.69333 283.973863  L 324.060038 281.479988  L 327.743392 280.098287  L 331.426746 278.532464  L 335.1101 276.735205  L 338.793454 274.682587  L 342.476808 272.373195  L 346.160163 269.824045  L 349.843517 267.064439  L 353.526871 264.128808  L 360.893579 257.850467  L 368.260287 251.123211  L 375.626996 243.877785  L 379.31035 240.006907  L 382.993704 235.950338  L 390.360412 227.311173  L 397.72712 218.191259  L 416.143891 195.236579  L 423.510599 185.985  L 430.877307 176.326803  L 438.244015 166.083739  L 445.610724 155.197172  L 452.977432 143.705351  L 467.710848 120.254169  L 471.394202 114.870042  L 475.077557 109.964669  L 478.760911 105.691814  L 482.444265 102.190237  L 486.127619 99.572658  L 489.810973 97.918841  L 493.494327 97.273626  L 497.177681 97.649867  L 500.861035 99.035364  L 504.544389 101.402239  L 508.227744 104.716762  L 511.911098 108.947479  L 515.594452 114.069744  L 519.277806 120.065448  L 522.96116 126.91775  L 526.644514 134.601819  L 530.327868 143.073638  L 534.011222 152.25954  L 537.694576 162.049222  L 545.061285 182.814297  L 552.427993 203.87006  L 556.111347 214.013191  L 559.794701 223.683645  L 563.478055 232.77697  L 567.161409 241.244705  L 570.844763 249.092781  L 574.528118 256.37147  L 578.211472 263.15881  L 581.894826 269.540685  L 585.57818 275.591425  L 589.261534 281.358522  L 592.944888 286.854063  L 596.628242 292.053903  L 600.311596 296.903999  L 603.99495 301.331916  L 607.678305 305.260736  L 611.361659 308.622525  L 615.045013 311.368992  L 618.728367 313.477963  L 622.411721 314.955375  L 626.095075 315.833478  L 629.778429 316.166625  L 633.461783 316.026256  L 637.145137 315.496474  L 640.828492 314.67106  L 648.1952 312.549562  L 651.878554 311.481337  L 655.561908 310.571947  L 659.245262 309.94978  L 662.928616 309.741902  L 666.61197 310.066566  L 670.295324 311.023874  L 673.978679 312.685522  L 677.662033 315.08498  L 681.345387 318.209736  L 685.028741 321.997262  L 688.712095 326.33613  L 692.395449 331.073004  L 703.445511 345.802225  L 707.128866 350.273605  L 710.81222 354.285402  L 714.495574 357.757069  L 718.178928 360.655652  L 721.862282 362.991207  L 725.545636 364.807712  L 729.22899 366.171672  L 732.912344 367.160579  L 736.595698 367.853001  L 740.279053 368.321296  L 743.962407 368.627266  L 751.329115 368.938278  L 762.379177 369.069232  L 766.062531 369.080871  L 766.062531 369.080871  " clip-path="url(#p187d48c328)" style="fill: none; stroke: #000000; stroke-width: 1.5; stroke-linecap: round"/>
   </g>
   <g id="patch_9">
    <path d="M 44.28 369.0925  L 764.64 369.0925  " style="fill: none; stroke: #262626; stroke-width: 2; stroke-linejoin: miter; stroke-linecap: square"/>
   </g>
   <g id="text_8">
    <!-- parenchyma -->
    <g transform="translate(44.28 357.832188)scale(0.13 -0.13)">
     <defs>
      <path id="DejaVuSans-72" d="M 2631 2963  Q 2534 3019 2420 3045  Q 2306 3072 2169 3072  Q 1681 3072 1420 2755  Q 1159 2438 1159 1844  L 1159 0  L 581 0  L 581 3500  L 1159 3500  L 1159 2956  Q 1341 3275 1631 3429  Q 1922 3584 2338 3584  Q 2397 3584 2469 3576  Q 2541 3569 2628 3553  L 2631 2963  z " transform="scale(0.015625)"/>
     </defs>
     <use xlink:href="#DejaVuSans-70"/>
     <use xlink:href="#DejaVuSans-61" x="63.476562"/>
     <use xlink:href="#DejaVuSans-72" x="124.755859"/>
     <use xlink:href="#DejaVuSans-65" x="163.619141"/>
     <use xlink:href="#DejaVuSans-6e" x="225.142578"/>
     <use xlink:href="#DejaVuSans-63" x="288.521484"/>
     <use xlink:href="#DejaVuSans-68" x="343.501953"/>
     <use xlink:href="#DejaVuSans-79" x="406.880859"/>
     <use xlink:href="#DejaVuSans-6d" x="466.060547"/>
     <use xlink:href="#DejaVuSans-61" x="563.472656"/>
    </g>
   </g>
  </g>
  <g id="axes_5">
   <g id="patch_10">
    <path d="M 44.28 383.94  L 764.64 383.94  L 764.64 86.99  L 44.28 86.99  L 44.28 383.94  z " style="fill: none"/>
   </g>
   <g id="matplotlib.axis_9">
    <g id="xtick_37">
     <g id="text_9">
      <!-- 0.6 -->
      <g style="fill: #262626" transform="translate(70.944453 401.798281)scale(0.11 -0.11)">
       <defs>
        <path id="DejaVuSans-2212" d="M 678 2272  L 4684 2272  L 4684 1741  L 678 1741  L 678 2272  z " transform="scale(0.015625)"/>
        <path id="DejaVuSans-30" d="M 2034 4250  Q 1547 4250 1301 3770  Q 1056 3291 1056 2328  Q 1056 1369 1301 889  Q 1547 409 2034 409  Q 2525 409 2770 889  Q 3016 1369 3016 2328  Q 3016 3291 2770 3770  Q 2525 4250 2034 4250  z M 2034 4750  Q 2819 4750 3233 4129  Q 3647 3509 3647 2328  Q 3647 1150 3233 529  Q 2819 -91 2034 -91  Q 1250 -91 836 529  Q 422 1150 422 2328  Q 422 3509 836 4129  Q 1250 4750 2034 4750  z " transform="scale(0.015625)"/>
        <path id="DejaVuSans-2e" d="M 684 794  L 1344 794  L 1344 0  L 684 0  L 684 794  z " transform="scale(0.015625)"/>
        <path id="DejaVuSans-36" d="M 2113 2584  Q 1688 2584 1439 2293  Q 1191 2003 1191 1497  Q 1191 994 1439 701  Q 1688 409 2113 409  Q 2538 409 2786 701  Q 3034 994 3034 1497  Q 3034 2003 2786 2293  Q 2538 2584 2113 2584  z M 3366 4563  L 3366 3988  Q 3128 4100 2886 4159  Q 2644 4219 2406 4219  Q 1781 4219 1451 3797  Q 1122 3375 1075 2522  Q 1259 2794 1537 2939  Q 1816 3084 2150 3084  Q 2853 3084 3261 2657  Q 3669 2231 3669 1497  Q 3669 778 3244 343  Q 2819 -91 2113 -91  Q 1303 -91 875 529  Q 447 1150 447 2328  Q 447 3434 972 4092  Q 1497 4750 2381 4750  Q 2619 4750 2861 4703  Q 3103 4656 3366 4563  z " transform="scale(0.015625)"/>
       </defs>
       <use xlink:href="#DejaVuSans-2212"/>
       <use xlink:href="#DejaVuSans-30" x="83.789062"/>
       <use xlink:href="#DejaVuSans-2e" x="147.412109"/>
       <use xlink:href="#DejaVuSans-36" x="179.199219"/>
      </g>
     </g>
    </g>
    <g id="xtick_38">
     <g id="text_10">
      <!-- 0.4 -->
      <g style="fill: #262626" transform="translate(150.984453 401.798281)scale(0.11 -0.11)">
       <defs>
        <path id="DejaVuSans-34" d="M 2419 4116  L 825 1625  L 2419 1625  L 2419 4116  z M 2253 4666  L 3047 4666  L 3047 1625  L 3713 1625  L 3713 1100  L 3047 1100  L 3047 0  L 2419 0  L 2419 1100  L 313 1100  L 313 1709  L 2253 4666  z " transform="scale(0.015625)"/>
       </defs>
       <use xlink:href="#DejaVuSans-2212"/>
       <use xlink:href="#DejaVuSans-30" x="83.789062"/>
       <use xlink:href="#DejaVuSans-2e" x="147.412109"/>
       <use xlink:href="#DejaVuSans-34" x="179.199219"/>
      </g>
     </g>
    </g>
    <g id="xtick_39">
     <g id="text_11">
      <!-- 0.2 -->
      <g style="fill: #262626" transform="translate(231.024453 401.798281)scale(0.11 -0.11)">
       <defs>
        <path id="DejaVuSans-32" d="M 1228 531  L 3431 531  L 3431 0  L 469 0  L 469 531  Q 828 903 1448 1529  Q 2069 2156 2228 2338  Q 2531 2678 2651 2914  Q 2772 3150 2772 3378  Q 2772 3750 2511 3984  Q 2250 4219 1831 4219  Q 1534 4219 1204 4116  Q 875 4013 500 3803  L 500 4441  Q 881 4594 1212 4672  Q 1544 4750 1819 4750  Q 2544 4750 2975 4387  Q 3406 4025 3406 3419  Q 3406 3131 3298 2873  Q 3191 2616 2906 2266  Q 2828 2175 2409 1742  Q 1991 1309 1228 531  z " transform="scale(0.015625)"/>
       </defs>
       <use xlink:href="#DejaVuSans-2212"/>
       <use xlink:href="#DejaVuSans-30" x="83.789062"/>
       <use xlink:href="#DejaVuSans-2e" x="147.412109"/>
       <use xlink:href="#DejaVuSans-32" x="179.199219"/>
      </g>
     </g>
    </g>
    <g id="xtick_40">
     <g id="text_12">
      <!-- 0.0 -->
      <g style="fill: #262626" transform="translate(315.673281 401.798281)scale(0.11 -0.11)">
       <use xlink:href="#DejaVuSans-30"/>
       <use xlink:href="#DejaVuSans-2e" x="63.623047"/>
       <use xlink:href="#DejaVuSans-30" x="95.410156"/>
      </g>
     </g>
    </g>
    <g id="xtick_41">
     <g id="text_13">
      <!-- 0.2 -->
      <g style="fill: #262626" transform="translate(395.713281 401.798281)scale(0.11 -0.11)">
       <use xlink:href="#DejaVuSans-30"/>
       <use xlink:href="#DejaVuSans-2e" x="63.623047"/>
       <use xlink:href="#DejaVuSans-32" x="95.410156"/>
      </g>
     </g>
    </g>
    <g id="xtick_42">
     <g id="text_14">
      <!-- 0.4 -->
      <g style="fill: #262626" transform="translate(475.753281 401.798281)scale(0.11 -0.11)">
       <use xlink:href="#DejaVuSans-30"/>
       <use xlink:href="#DejaVuSans-2e" x="63.623047"/>
       <use xlink:href="#DejaVuSans-34" x="95.410156"/>
      </g>
     </g>
    </g>
    <g id="xtick_43">
     <g id="text_15">
      <!-- 0.6 -->
      <g style="fill: #262626" transform="translate(555.793281 401.798281)scale(0.11 -0.11)">
       <use xlink:href="#DejaVuSans-30"/>
       <use xlink:href="#DejaVuSans-2e" x="63.623047"/>
       <use xlink:href="#DejaVuSans-36" x="95.410156"/>
      </g>
     </g>
    </g>
    <g id="xtick_44">
     <g id="text_16">
      <!-- 0.8 -->
      <g style="fill: #262626" transform="translate(635.833281 401.798281)scale(0.11 -0.11)">
       <defs>
        <path id="DejaVuSans-38" d="M 2034 2216  Q 1584 2216 1326 1975  Q 1069 1734 1069 1313  Q 1069 891 1326 650  Q 1584 409 2034 409  Q 2484 409 2743 651  Q 3003 894 3003 1313  Q 3003 1734 2745 1975  Q 2488 2216 2034 2216  z M 1403 2484  Q 997 2584 770 2862  Q 544 3141 544 3541  Q 544 4100 942 4425  Q 1341 4750 2034 4750  Q 2731 4750 3128 4425  Q 3525 4100 3525 3541  Q 3525 3141 3298 2862  Q 3072 2584 2669 2484  Q 3125 2378 3379 2068  Q 3634 1759 3634 1313  Q 3634 634 3220 271  Q 2806 -91 2034 -91  Q 1263 -91 848 271  Q 434 634 434 1313  Q 434 1759 690 2068  Q 947 2378 1403 2484  z M 1172 3481  Q 1172 3119 1398 2916  Q 1625 2713 2034 2713  Q 2441 2713 2670 2916  Q 2900 3119 2900 3481  Q 2900 3844 2670 4047  Q 2441 4250 2034 4250  Q 1625 4250 1398 4047  Q 1172 3844 1172 3481  z " transform="scale(0.015625)"/>
       </defs>
       <use xlink:href="#DejaVuSans-30"/>
       <use xlink:href="#DejaVuSans-2e" x="63.623047"/>
       <use xlink:href="#DejaVuSans-38" x="95.410156"/>
      </g>
     </g>
    </g>
    <g id="xtick_45">
     <g id="text_17">
      <!-- 1.0 -->
      <g style="fill: #262626" transform="translate(715.873281 401.798281)scale(0.11 -0.11)">
       <defs>
        <path id="DejaVuSans-31" d="M 794 531  L 1825 531  L 1825 4091  L 703 3866  L 703 4441  L 1819 4666  L 2450 4666  L 2450 531  L 3481 531  L 3481 0  L 794 0  L 794 531  z " transform="scale(0.015625)"/>
       </defs>
       <use xlink:href="#DejaVuSans-31"/>
       <use xlink:href="#DejaVuSans-2e" x="63.623047"/>
       <use xlink:href="#DejaVuSans-30" x="95.410156"/>
      </g>
     </g>
    </g>
    <g id="text_18">
     <!-- Mlig all other cell types SHAP correlation to neural -->
     <g style="fill: #262626" transform="translate(253.669687 417.204063)scale(0.12 -0.12)">
      <defs>
       <path id="DejaVuSans-4d" d="M 628 4666  L 1569 4666  L 2759 1491  L 3956 4666  L 4897 4666  L 4897 0  L 4281 0  L 4281 4097  L 3078 897  L 2444 897  L 1241 4097  L 1241 0  L 628 0  L 628 4666  z " transform="scale(0.015625)"/>
       <path id="DejaVuSans-6c" d="M 603 4863  L 1178 4863  L 1178 0  L 603 0  L 603 4863  z " transform="scale(0.015625)"/>
       <path id="DejaVuSans-20" transform="scale(0.015625)"/>
       <path id="DejaVuSans-6f" d="M 1959 3097  Q 1497 3097 1228 2736  Q 959 2375 959 1747  Q 959 1119 1226 758  Q 1494 397 1959 397  Q 2419 397 2687 759  Q 2956 1122 2956 1747  Q 2956 2369 2687 2733  Q 2419 3097 1959 3097  z M 1959 3584  Q 2709 3584 3137 3096  Q 3566 2609 3566 1747  Q 3566 888 3137 398  Q 2709 -91 1959 -91  Q 1206 -91 779 398  Q 353 888 353 1747  Q 353 2609 779 3096  Q 1206 3584 1959 3584  z " transform="scale(0.015625)"/>
       <path id="DejaVuSans-53" d="M 3425 4513  L 3425 3897  Q 3066 4069 2747 4153  Q 2428 4238 2131 4238  Q 1616 4238 1336 4038  Q 1056 3838 1056 3469  Q 1056 3159 1242 3001  Q 1428 2844 1947 2747  L 2328 2669  Q 3034 2534 3370 2195  Q 3706 1856 3706 1288  Q 3706 609 3251 259  Q 2797 -91 1919 -91  Q 1588 -91 1214 -16  Q 841 59 441 206  L 441 856  Q 825 641 1194 531  Q 1563 422 1919 422  Q 2459 422 2753 634  Q 3047 847 3047 1241  Q 3047 1584 2836 1778  Q 2625 1972 2144 2069  L 1759 2144  Q 1053 2284 737 2584  Q 422 2884 422 3419  Q 422 4038 858 4394  Q 1294 4750 2059 4750  Q 2388 4750 2728 4690  Q 3069 4631 3425 4513  z " transform="scale(0.015625)"/>
       <path id="DejaVuSans-48" d="M 628 4666  L 1259 4666  L 1259 2753  L 3553 2753  L 3553 4666  L 4184 4666  L 4184 0  L 3553 0  L 3553 2222  L 1259 2222  L 1259 0  L 628 0  L 628 4666  z " transform="scale(0.015625)"/>
       <path id="DejaVuSans-41" d="M 2188 4044  L 1331 1722  L 3047 1722  L 2188 4044  z M 1831 4666  L 2547 4666  L 4325 0  L 3669 0  L 3244 1197  L 1141 1197  L 716 0  L 50 0  L 1831 4666  z " transform="scale(0.015625)"/>
       <path id="DejaVuSans-50" d="M 1259 4147  L 1259 2394  L 2053 2394  Q 2494 2394 2734 2622  Q 2975 2850 2975 3272  Q 2975 3691 2734 3919  Q 2494 4147 2053 4147  L 1259 4147  z M 628 4666  L 2053 4666  Q 2838 4666 3239 4311  Q 3641 3956 3641 3272  Q 3641 2581 3239 2228  Q 2838 1875 2053 1875  L 1259 1875  L 1259 0  L 628 0  L 628 4666  z " transform="scale(0.015625)"/>
      </defs>
      <use xlink:href="#DejaVuSans-4d"/>
      <use xlink:href="#DejaVuSans-6c" x="86.279297"/>
      <use xlink:href="#DejaVuSans-69" x="114.0625"/>
      <use xlink:href="#DejaVuSans-67" x="141.845703"/>
      <use xlink:href="#DejaVuSans-20" x="205.322266"/>
      <use xlink:href="#DejaVuSans-61" x="237.109375"/>
      <use xlink:href="#DejaVuSans-6c" x="298.388672"/>
      <use xlink:href="#DejaVuSans-6c" x="326.171875"/>
      <use xlink:href="#DejaVuSans-20" x="353.955078"/>
      <use xlink:href="#DejaVuSans-6f" x="385.742188"/>
      <use xlink:href="#DejaVuSans-74" x="446.923828"/>
      <use xlink:href="#DejaVuSans-68" x="486.132812"/>
      <use xlink:href="#DejaVuSans-65" x="549.511719"/>
      <use xlink:href="#DejaVuSans-72" x="611.035156"/>
      <use xlink:href="#DejaVuSans-20" x="652.148438"/>
      <use xlink:href="#DejaVuSans-63" x="683.935547"/>
      <use xlink:href="#DejaVuSans-65" x="738.916016"/>
      <use xlink:href="#DejaVuSans-6c" x="800.439453"/>
      <use xlink:href="#DejaVuSans-6c" x="828.222656"/>
      <use xlink:href="#DejaVuSans-20" x="856.005859"/>
      <use xlink:href="#DejaVuSans-74" x="887.792969"/>
      <use xlink:href="#DejaVuSans-79" x="927.001953"/>
      <use xlink:href="#DejaVuSans-70" x="986.181641"/>
      <use xlink:href="#DejaVuSans-65" x="1049.658203"/>
      <use xlink:href="#DejaVuSans-73" x="1111.181641"/>
      <use xlink:href="#DejaVuSans-20" x="1163.28125"/>
      <use xlink:href="#DejaVuSans-53" x="1195.068359"/>
      <use xlink:href="#DejaVuSans-48" x="1258.544922"/>
      <use xlink:href="#DejaVuSans-41" x="1333.740234"/>
      <use xlink:href="#DejaVuSans-50" x="1402.148438"/>
      <use xlink:href="#DejaVuSans-20" x="1462.451172"/>
      <use xlink:href="#DejaVuSans-63" x="1494.238281"/>
      <use xlink:href="#DejaVuSans-6f" x="1549.21875"/>
      <use xlink:href="#DejaVuSans-72" x="1610.400391"/>
      <use xlink:href="#DejaVuSans-72" x="1649.763672"/>
      <use xlink:href="#DejaVuSans-65" x="1688.626953"/>
      <use xlink:href="#DejaVuSans-6c" x="1750.150391"/>
      <use xlink:href="#DejaVuSans-61" x="1777.933594"/>
      <use xlink:href="#DejaVuSans-74" x="1839.212891"/>
      <use xlink:href="#DejaVuSans-69" x="1878.421875"/>
      <use xlink:href="#DejaVuSans-6f" x="1906.205078"/>
      <use xlink:href="#DejaVuSans-6e" x="1967.386719"/>
      <use xlink:href="#DejaVuSans-20" x="2030.765625"/>
      <use xlink:href="#DejaVuSans-74" x="2062.552734"/>
      <use xlink:href="#DejaVuSans-6f" x="2101.761719"/>
      <use xlink:href="#DejaVuSans-20" x="2162.943359"/>
      <use xlink:href="#DejaVuSans-6e" x="2194.730469"/>
      <use xlink:href="#DejaVuSans-65" x="2258.109375"/>
      <use xlink:href="#DejaVuSans-75" x="2319.632812"/>
      <use xlink:href="#DejaVuSans-72" x="2383.011719"/>
      <use xlink:href="#DejaVuSans-61" x="2424.125"/>
      <use xlink:href="#DejaVuSans-6c" x="2485.404297"/>
     </g>
    </g>
   </g>
   <g id="matplotlib.axis_10">
    <g id="text_19">
     <!-- Density -->
     <g style="fill: #262626" transform="translate(37.784375 258.275313)rotate(-90)scale(0.12 -0.12)">
      <use xlink:href="#DejaVuSans-44"/>
      <use xlink:href="#DejaVuSans-65" x="77.001953"/>
      <use xlink:href="#DejaVuSans-6e" x="138.525391"/>
      <use xlink:href="#DejaVuSans-73" x="201.904297"/>
      <use xlink:href="#DejaVuSans-69" x="254.003906"/>
      <use xlink:href="#DejaVuSans-74" x="281.787109"/>
      <use xlink:href="#DejaVuSans-79" x="320.996094"/>
     </g>
    </g>
   </g>
   <g id="PolyCollection_5">
    <defs>
     <path id="m1e6d0bcfc5" d="M 0.176771 -48.062157  L 0.176771 -48.06  L 4.002059 -48.06  L 7.827347 -48.06  L 11.652635 -48.06  L 15.477922 -48.06  L 19.30321 -48.06  L 23.128498 -48.06  L 26.953786 -48.06  L 30.779074 -48.06  L 34.604361 -48.06  L 38.429649 -48.06  L 42.254937 -48.06  L 46.080225 -48.06  L 49.905512 -48.06  L 53.7308 -48.06  L 57.556088 -48.06  L 61.381376 -48.06  L 65.206663 -48.06  L 69.031951 -48.06  L 72.857239 -48.06  L 76.682527 -48.06  L 80.507815 -48.06  L 84.333102 -48.06  L 88.15839 -48.06  L 91.983678 -48.06  L 95.808966 -48.06  L 99.634253 -48.06  L 103.459541 -48.06  L 107.284829 -48.06  L 111.110117 -48.06  L 114.935405 -48.06  L 118.760692 -48.06  L 122.58598 -48.06  L 126.411268 -48.06  L 130.236556 -48.06  L 134.061843 -48.06  L 137.887131 -48.06  L 141.712419 -48.06  L 145.537707 -48.06  L 149.362994 -48.06  L 153.188282 -48.06  L 157.01357 -48.06  L 160.838858 -48.06  L 164.664146 -48.06  L 168.489433 -48.06  L 172.314721 -48.06  L 176.140009 -48.06  L 179.965297 -48.06  L 183.790584 -48.06  L 187.615872 -48.06  L 191.44116 -48.06  L 195.266448 -48.06  L 199.091735 -48.06  L 202.917023 -48.06  L 206.742311 -48.06  L 210.567599 -48.06  L 214.392887 -48.06  L 218.218174 -48.06  L 222.043462 -48.06  L 225.86875 -48.06  L 229.694038 -48.06  L 233.519325 -48.06  L 237.344613 -48.06  L 241.169901 -48.06  L 244.995189 -48.06  L 248.820477 -48.06  L 252.645764 -48.06  L 256.471052 -48.06  L 260.29634 -48.06  L 264.121628 -48.06  L 267.946915 -48.06  L 271.772203 -48.06  L 275.597491 -48.06  L 279.422779 -48.06  L 283.248066 -48.06  L 287.073354 -48.06  L 290.898642 -48.06  L 294.72393 -48.06  L 298.549218 -48.06  L 302.374505 -48.06  L 306.199793 -48.06  L 310.025081 -48.06  L 313.850369 -48.06  L 317.675656 -48.06  L 321.500944 -48.06  L 325.326232 -48.06  L 329.15152 -48.06  L 332.976807 -48.06  L 336.802095 -48.06  L 340.627383 -48.06  L 344.452671 -48.06  L 348.277959 -48.06  L 352.103246 -48.06  L 355.928534 -48.06  L 359.753822 -48.06  L 363.57911 -48.06  L 367.404397 -48.06  L 371.229685 -48.06  L 375.054973 -48.06  L 378.880261 -48.06  L 382.705549 -48.06  L 386.530836 -48.06  L 390.356124 -48.06  L 394.181412 -48.06  L 398.0067 -48.06  L 401.831987 -48.06  L 405.657275 -48.06  L 409.482563 -48.06  L 413.307851 -48.06  L 417.133138 -48.06  L 420.958426 -48.06  L 424.783714 -48.06  L 428.609002 -48.06  L 432.43429 -48.06  L 436.259577 -48.06  L 440.084865 -48.06  L 443.910153 -48.06  L 447.735441 -48.06  L 451.560728 -48.06  L 455.386016 -48.06  L 459.211304 -48.06  L 463.036592 -48.06  L 466.861879 -48.06  L 470.687167 -48.06  L 474.512455 -48.06  L 478.337743 -48.06  L 482.163031 -48.06  L 485.988318 -48.06  L 489.813606 -48.06  L 493.638894 -48.06  L 497.464182 -48.06  L 501.289469 -48.06  L 505.114757 -48.06  L 508.940045 -48.06  L 512.765333 -48.06  L 516.590621 -48.06  L 520.415908 -48.06  L 524.241196 -48.06  L 528.066484 -48.06  L 531.891772 -48.06  L 535.717059 -48.06  L 539.542347 -48.06  L 543.367635 -48.06  L 547.192923 -48.06  L 551.01821 -48.06  L 554.843498 -48.06  L 558.668786 -48.06  L 562.494074 -48.06  L 566.319362 -48.06  L 570.144649 -48.06  L 573.969937 -48.06  L 577.795225 -48.06  L 581.620513 -48.06  L 585.4458 -48.06  L 589.271088 -48.06  L 593.096376 -48.06  L 596.921664 -48.06  L 600.746951 -48.06  L 604.572239 -48.06  L 608.397527 -48.06  L 612.222815 -48.06  L 616.048103 -48.06  L 619.87339 -48.06  L 623.698678 -48.06  L 627.523966 -48.06  L 631.349254 -48.06  L 635.174541 -48.06  L 638.999829 -48.06  L 642.825117 -48.06  L 646.650405 -48.06  L 650.475693 -48.06  L 654.30098 -48.06  L 658.126268 -48.06  L 661.951556 -48.06  L 665.776844 -48.06  L 669.602131 -48.06  L 673.427419 -48.06  L 677.252707 -48.06  L 681.077995 -48.06  L 684.903282 -48.06  L 688.72857 -48.06  L 692.553858 -48.06  L 696.379146 -48.06  L 700.204434 -48.06  L 704.029721 -48.06  L 707.855009 -48.06  L 711.680297 -48.06  L 715.505585 -48.06  L 719.330872 -48.06  L 723.15616 -48.06  L 726.981448 -48.06  L 730.806736 -48.06  L 734.632023 -48.06  L 738.457311 -48.06  L 742.282599 -48.06  L 746.107887 -48.06  L 749.933175 -48.06  L 753.758462 -48.06  L 757.58375 -48.06  L 761.409038 -48.06  L 761.409038 -48.079142  L 761.409038 -48.079142  L 757.58375 -48.099004  L 753.758462 -48.136537  L 749.933175 -48.204711  L 746.107887 -48.323776  L 742.282599 -48.523808  L 738.457311 -48.847212  L 734.632023 -49.350615  L 730.806736 -50.105376  L 726.981448 -51.195862  L 723.15616 -52.714767  L 719.330872 -54.755094  L 715.505585 -57.399023  L 711.680297 -60.704592  L 707.855009 -64.691883  L 704.029721 -69.330938  L 700.204434 -74.533879  L 696.379146 -80.15343  L 692.553858 -85.989315  L 688.72857 -91.802784  L 684.903282 -97.338024  L 681.077995 -102.347785  L 677.252707 -106.619424  L 673.427419 -109.997243  L 669.602131 -112.397487  L 665.776844 -113.813794  L 661.951556 -114.312724  L 658.126268 -114.020862  L 654.30098 -113.10635  L 650.475693 -111.758143  L 646.650405 -110.165991  L 642.825117 -108.503263  L 638.999829 -106.913838  L 635.174541 -105.503591  L 631.349254 -104.33676  L 627.523966 -103.437374  L 623.698678 -102.795775  L 619.87339 -102.379814  L 616.048103 -102.149452  L 612.222815 -102.072611  L 608.397527 -102.139443  L 604.572239 -102.372123  L 600.746951 -102.827946  L 596.921664 -103.594858  L 593.096376 -104.780138  L 589.271088 -106.494473  L 585.4458 -108.834623  L 581.620513 -111.868127  L 577.795225 -115.622954  L 573.969937 -120.083907  L 570.144649 -125.196127  L 566.319362 -130.874616  L 562.494074 -137.017582  L 558.668786 -143.52081  L 554.843498 -150.290353  L 551.01821 -157.251515  L 547.192923 -164.353155  L 543.367635 -171.567507  L 539.542347 -178.88647  L 535.717059 -186.31568  L 531.891772 -193.867444  L 528.066484 -201.553197  L 524.241196 -209.375777  L 520.415908 -217.321824  L 516.590621 -225.355009  L 512.765333 -233.411359  L 508.940045 -241.39822  L 505.114757 -249.198121  L 501.289469 -256.677831  L 497.464182 -263.701453  L 493.638894 -270.145118  L 489.813606 -275.910077  L 485.988318 -280.931308  L 482.163031 -285.179953  L 478.337743 -288.659617  L 474.512455 -291.398194  L 470.687167 -293.437761  L 466.861879 -294.825082  L 463.036592 -295.604511  L 459.211304 -295.814002  L 455.386016 -295.484148  L 451.560728 -294.639699  L 447.735441 -293.302999  L 443.910153 -291.498753  L 440.084865 -289.259319  L 436.259577 -286.629307  L 432.43429 -283.667921  L 428.609002 -280.447622  L 424.783714 -277.048511  L 420.958426 -273.549234  L 417.133138 -270.016653  L 413.307851 -266.497341  L 409.482563 -263.013664  L 405.657275 -259.565754  L 401.831987 -256.138585  L 398.0067 -252.711472  L 394.181412 -249.266411  L 390.356124 -245.792258  L 386.530836 -242.283506  L 382.705549 -238.734676  L 378.880261 -235.133153  L 375.054973 -231.453884  L 371.229685 -227.65857  L 367.404397 -223.700183  L 363.57911 -219.531697  L 359.753822 -215.116547  L 355.928534 -210.438046  L 352.103246 -205.5057  L 348.277959 -200.357474  L 344.452671 -195.05811  L 340.627383 -189.694112  L 336.802095 -184.36603  L 332.976807 -179.178541  L 329.15152 -174.228898  L 325.326232 -169.594765  L 321.500944 -165.32315  L 317.675656 -161.42262  L 313.850369 -157.860873  L 310.025081 -154.568829  L 306.199793 -151.450869  L 302.374505 -148.399283  L 298.549218 -145.309958  L 294.72393 -142.09619  L 290.898642 -138.69839  L 287.073354 -135.088727  L 283.248066 -131.271025  L 279.422779 -127.276908  L 275.597491 -123.159295  L 271.772203 -118.984092  L 267.946915 -114.82083  L 264.121628 -110.733153  L 260.29634 -106.770466  L 256.471052 -102.962323  L 252.645764 -99.316859  L 248.820477 -95.823716  L 244.995189 -92.460703  L 241.169901 -89.20238  L 237.344613 -86.028257  L 233.519325 -82.928639  L 229.694038 -79.907003  L 225.86875 -76.978923  L 222.043462 -74.16848  L 218.218174 -71.503483  L 214.392887 -69.010791  L 210.567599 -66.712624  L 206.742311 -64.624181  L 202.917023 -62.752551  L 199.091735 -61.096596  L 195.266448 -59.647539  L 191.44116 -58.390003  L 187.615872 -57.303402  L 183.790584 -56.363599  L 179.965297 -55.544771  L 176.140009 -54.821365  L 172.314721 -54.169978  L 168.489433 -53.57098  L 164.664146 -53.009648  L 160.838858 -52.476672  L 157.01357 -51.967934  L 153.188282 -51.483633  L 149.362994 -51.026917  L 145.537707 -50.602314  L 141.712419 -50.214264  L 137.887131 -49.865998  L 134.061843 -49.55891  L 130.236556 -49.292428  L 126.411268 -49.064289  L 122.58598 -48.871067  L 118.760692 -48.70878  L 114.935405 -48.573442  L 111.110117 -48.461467  L 107.284829 -48.369887  L 103.459541 -48.296393  L 99.634253 -48.23924  L 95.808966 -48.197085  L 91.983678 -48.168784  L 88.15839 -48.153198  L 84.333102 -48.149021  L 80.507815 -48.154618  L 76.682527 -48.167921  L 72.857239 -48.186393  L 69.031951 -48.207096  L 65.206663 -48.226905  L 61.381376 -48.242834  L 57.556088 -48.252437  L 53.7308 -48.254164  L 49.905512 -48.247601  L 46.080225 -48.233487  L 42.254937 -48.213519  L 38.429649 -48.189979  L 34.604361 -48.165287  L 30.779074 -48.141594  L 26.953786 -48.120495  L 23.128498 -48.10291  L 19.30321 -48.089118  L 15.477922 -48.078904  L 11.652635 -48.071741  L 7.827347 -48.066976  L 4.002059 -48.063966  L 0.176771 -48.062157  z " style="stroke: #a6d854"/>
    </defs>
    <g clip-path="url(#pb3d7958de6)">
     <use xlink:href="#m1e6d0bcfc5" x="0" y="432" style="fill: #a6d854; stroke: #a6d854"/>
    </g>
   </g>
   <g id="line2d_5">
    <path d="M 0.176771 383.937843  L 38.429649 383.810021  L 61.381376 383.757166  L 95.808966 383.802915  L 111.110117 383.538533  L 122.58598 383.128933  L 134.061843 382.44109  L 141.712419 381.785736  L 153.188282 380.516367  L 164.664146 378.990352  L 172.314721 377.830022  L 179.965297 376.455229  L 183.790584 375.636401  L 187.615872 374.696598  L 191.44116 373.609997  L 195.266448 372.352461  L 199.091735 370.903404  L 202.917023 369.247449  L 206.742311 367.375819  L 210.567599 365.287376  L 214.392887 362.989209  L 218.218174 360.496517  L 222.043462 357.83152  L 229.694038 352.092997  L 237.344613 345.971743  L 244.995189 339.539297  L 252.645764 332.683141  L 256.471052 329.037677  L 264.121628 321.266847  L 271.772203 313.015908  L 279.422779 304.723092  L 283.248066 300.728975  L 287.073354 296.911273  L 290.898642 293.30161  L 294.72393 289.90381  L 302.374505 283.600717  L 310.025081 277.431171  L 313.850369 274.139127  L 317.675656 270.57738  L 321.500944 266.67685  L 325.326232 262.405235  L 329.15152 257.771102  L 332.976807 252.821459  L 340.627383 242.305888  L 348.277959 231.642526  L 352.103246 226.4943  L 355.928534 221.561954  L 359.753822 216.883453  L 363.57911 212.468303  L 367.404397 208.299817  L 371.229685 204.34143  L 378.880261 196.866847  L 390.356124 186.207742  L 428.609002 151.552378  L 432.43429 148.332079  L 436.259577 145.370693  L 440.084865 142.740681  L 443.910153 140.501247  L 447.735441 138.697001  L 451.560728 137.360301  L 455.386016 136.515852  L 459.211304 136.185998  L 463.036592 136.395489  L 466.861879 137.174918  L 470.687167 138.562239  L 474.512455 140.601806  L 478.337743 143.340383  L 482.163031 146.820047  L 485.988318 151.068692  L 489.813606 156.089923  L 493.638894 161.854882  L 497.464182 168.298547  L 501.289469 175.322169  L 505.114757 182.801879  L 512.765333 198.588641  L 524.241196 222.624223  L 531.891772 238.132556  L 539.542347 253.11353  L 547.192923 267.646845  L 554.843498 281.709647  L 558.668786 288.47919  L 562.494074 294.982418  L 566.319362 301.125384  L 570.144649 306.803873  L 573.969937 311.916093  L 577.795225 316.377046  L 581.620513 320.131873  L 585.4458 323.165377  L 589.271088 325.505527  L 593.096376 327.219862  L 596.921664 328.405142  L 600.746951 329.172054  L 604.572239 329.627877  L 608.397527 329.860557  L 612.222815 329.927389  L 616.048103 329.850548  L 619.87339 329.620186  L 623.698678 329.204225  L 627.523966 328.562626  L 631.349254 327.66324  L 635.174541 326.496409  L 638.999829 325.086162  L 650.475693 320.241857  L 654.30098 318.89365  L 658.126268 317.979138  L 661.951556 317.687276  L 665.776844 318.186206  L 669.602131 319.602513  L 673.427419 322.002757  L 677.252707 325.380576  L 681.077995 329.652215  L 684.903282 334.661976  L 688.72857 340.197216  L 700.204434 357.466121  L 704.029721 362.669062  L 707.855009 367.308117  L 711.680297 371.295408  L 715.505585 374.600977  L 719.330872 377.244906  L 723.15616 379.285233  L 726.981448 380.804138  L 730.806736 381.894624  L 734.632023 382.649385  L 738.457311 383.152788  L 742.282599 383.476192  L 749.933175 383.795289  L 761.409038 383.920858  L 761.409038 383.920858  " clip-path="url(#pb3d7958de6)" style="fill: none; stroke: #000000; stroke-width: 1.5; stroke-linecap: round"/>
   </g>
   <g id="patch_11">
    <path d="M 44.28 383.94  L 764.64 383.94  " style="fill: none; stroke: #262626; stroke-width: 2; stroke-linejoin: miter; stroke-linecap: square"/>
   </g>
   <g id="text_20">
    <!-- muscle -->
    <g transform="translate(44.28 372.679688)scale(0.13 -0.13)">
     <use xlink:href="#DejaVuSans-6d"/>
     <use xlink:href="#DejaVuSans-75" x="97.412109"/>
     <use xlink:href="#DejaVuSans-73" x="160.791016"/>
     <use xlink:href="#DejaVuSans-63" x="212.890625"/>
     <use xlink:href="#DejaVuSans-6c" x="267.871094"/>
     <use xlink:href="#DejaVuSans-65" x="295.654297"/>
    </g>
   </g>
  </g>
 </g>
 <defs>
  <clipPath id="p9c25f2e9ed">
   <rect x="44.28" y="27.6" width="720.36" height="296.95"/>
  </clipPath>
  <clipPath id="p19cec98030">
   <rect x="44.28" y="42.4475" width="720.36" height="296.95"/>
  </clipPath>
  <clipPath id="p89946f0bfc">
   <rect x="44.28" y="57.295" width="720.36" height="296.95"/>
  </clipPath>
  <clipPath id="p187d48c328">
   <rect x="44.28" y="72.1425" width="720.36" height="296.95"/>
  </clipPath>
  <clipPath id="pb3d7958de6">
   <rect x="44.28" y="86.99" width="720.36" height="296.95"/>
  </clipPath>
 </defs>
</svg>