<?xml version="1.0" encoding="utf-8" standalone="no"?>
<!DOCTYPE svg PUBLIC "-//W3C//DTD SVG 1.1//EN"
  "http://www.w3.org/Graphics/SVG/1.1/DTD/svg11.dtd">
<svg xmlns:xlink="http://www.w3.org/1999/xlink" width="432pt" height="288pt" viewBox="0 0 432 288" xmlns="http://www.w3.org/2000/svg" version="1.1">
 <metadata>
  <rdf:RDF xmlns:dc="http://purl.org/dc/elements/1.1/" xmlns:cc="http://creativecommons.org/ns#" xmlns:rdf="http://www.w3.org/1999/02/22-rdf-syntax-ns#">
   <cc:Work>
    <dc:type rdf:resource="http://purl.org/dc/dcmitype/StillImage"/>
    <dc:date>2023-06-05T16:25:58.428945</dc:date>
    <dc:format>image/svg+xml</dc:format>
    <dc:creator>
     <cc:Agent>
      <dc:title>Matplotlib v3.5.3, https://matplotlib.org/</dc:title>
     </cc:Agent>
    </dc:creator>
   </cc:Work>
  </rdf:RDF>
 </metadata>
 <defs>
  <style type="text/css">*{stroke-linejoin: round; stroke-linecap: butt}</style>
 </defs>
 <g id="figure_1">
  <g id="patch_1">
   <path d="M 0 288 
L 432 288 
L 432 0 
L 0 0 
L 0 288 
z
" style="fill: none"/>
  </g>
  <g id="axes_1">
   <g id="patch_2">
    <path d="M 54 252 
L 388.8 252 
L 388.8 34.56 
L 54 34.56 
z
" style="fill: #ffffff"/>
   </g>
   <g id="PolyCollection_1">
    <defs>
     <path id="mccb3d02f5c" d="M 109.802534 -67.949083 
L 109.797466 -67.949083 
L 109.793273 -69.586017 
L 109.786934 -71.222952 
L 109.781012 -72.859887 
L 109.777822 -74.496821 
L 109.775455 -76.133756 
L 109.769901 -77.77069 
L 109.761763 -79.407625 
L 109.756099 -81.044559 
L 109.754887 -82.681494 
L 109.75551 -84.318428 
L 109.757358 -85.955363 
L 109.762875 -87.592298 
L 109.770566 -89.229232 
L 109.77306 -90.866167 
L 109.764919 -92.503101 
L 109.749955 -94.140036 
L 109.737539 -95.77697 
L 109.729559 -97.413905 
L 109.710646 -99.050839 
L 109.647052 -100.687774 
L 109.48409 -102.324709 
L 109.135776 -103.961643 
L 108.475824 -105.598578 
L 107.33803 -107.235512 
L 105.526227 -108.872447 
L 102.844564 -110.509381 
L 99.149683 -112.146316 
L 94.395202 -113.78325 
L 88.690416 -115.420185 
L 82.424658 -117.05712 
L 76.308684 -118.694054 
L 71.130427 -120.330989 
L 67.433105 -121.967923 
L 65.448253 -123.604858 
L 65.16 -125.241792 
L 66.307917 -126.878727 
L 68.469209 -128.515662 
L 71.247501 -130.152596 
L 74.361024 -131.789531 
L 77.617113 -133.426465 
L 80.892401 -135.0634 
L 84.087268 -136.700334 
L 87.064323 -138.337269 
L 89.6821 -139.974203 
L 91.867146 -141.611138 
L 93.580945 -143.248073 
L 94.73572 -144.885007 
L 95.22046 -146.521942 
L 95.003925 -148.158876 
L 94.160809 -149.795811 
L 92.799828 -151.432745 
L 90.989554 -153.06968 
L 88.816308 -154.706614 
L 86.588142 -156.343549 
L 84.919956 -157.980484 
L 84.458409 -159.617418 
L 85.44898 -161.254353 
L 87.585014 -162.891287 
L 90.261507 -164.528222 
L 92.939928 -166.165156 
L 95.3221 -167.802091 
L 97.338649 -169.439025 
L 99.066428 -171.07596 
L 100.594061 -172.712895 
L 101.939016 -174.349829 
L 103.105247 -175.986764 
L 104.13826 -177.623698 
L 105.082911 -179.260633 
L 105.944866 -180.897567 
L 106.702213 -182.534502 
L 107.326182 -184.171437 
L 107.801553 -185.808371 
L 108.14502 -187.445306 
L 108.40478 -189.08224 
L 108.633796 -190.719175 
L 108.857736 -192.356109 
L 109.069672 -193.993044 
L 109.248505 -195.629978 
L 109.378247 -197.266913 
L 109.460502 -198.903848 
L 109.514868 -200.540782 
L 109.561977 -202.177717 
L 109.606473 -203.814651 
L 109.641526 -205.451586 
L 109.663714 -207.08852 
L 109.677601 -208.725455 
L 109.69159 -210.362389 
L 109.711537 -211.999324 
L 109.734903 -213.636259 
L 109.752823 -215.273193 
L 109.759966 -216.910128 
L 109.759711 -218.547062 
L 109.758947 -220.183997 
L 109.761349 -221.820931 
L 109.767127 -223.457866 
L 109.775549 -225.0948 
L 109.78497 -226.731735 
L 109.792767 -228.36867 
L 109.797372 -230.005604 
L 109.802628 -230.005604 
L 109.802628 -230.005604 
L 109.807233 -228.36867 
L 109.81503 -226.731735 
L 109.824451 -225.0948 
L 109.832873 -223.457866 
L 109.838651 -221.820931 
L 109.841053 -220.183997 
L 109.840289 -218.547062 
L 109.840034 -216.910128 
L 109.847177 -215.273193 
L 109.865097 -213.636259 
L 109.888463 -211.999324 
L 109.90841 -210.362389 
L 109.922399 -208.725455 
L 109.936286 -207.08852 
L 109.958474 -205.451586 
L 109.993527 -203.814651 
L 110.038023 -202.177717 
L 110.085132 -200.540782 
L 110.139498 -198.903848 
L 110.221753 -197.266913 
L 110.351495 -195.629978 
L 110.530328 -193.993044 
L 110.742264 -192.356109 
L 110.966204 -190.719175 
L 111.19522 -189.08224 
L 111.45498 -187.445306 
L 111.798447 -185.808371 
L 112.273818 -184.171437 
L 112.897787 -182.534502 
L 113.655134 -180.897567 
L 114.517089 -179.260633 
L 115.46174 -177.623698 
L 116.494753 -175.986764 
L 117.660984 -174.349829 
L 119.005939 -172.712895 
L 120.533572 -171.07596 
L 122.261351 -169.439025 
L 124.2779 -167.802091 
L 126.660072 -166.165156 
L 129.338493 -164.528222 
L 132.014986 -162.891287 
L 134.15102 -161.254353 
L 135.141591 -159.617418 
L 134.680044 -157.980484 
L 133.011858 -156.343549 
L 130.783692 -154.706614 
L 128.610446 -153.06968 
L 126.800172 -151.432745 
L 125.439191 -149.795811 
L 124.596075 -148.158876 
L 124.37954 -146.521942 
L 124.86428 -144.885007 
L 126.019055 -143.248073 
L 127.732854 -141.611138 
L 129.9179 -139.974203 
L 132.535677 -138.337269 
L 135.512732 -136.700334 
L 138.707599 -135.0634 
L 141.982887 -133.426465 
L 145.238976 -131.789531 
L 148.352499 -130.152596 
L 151.130791 -128.515662 
L 153.292083 -126.878727 
L 154.44 -125.241792 
L 154.151747 -123.604858 
L 152.166895 -121.967923 
L 148.469573 -120.330989 
L 143.291316 -118.694054 
L 137.175342 -117.05712 
L 130.909584 -115.420185 
L 125.204798 -113.78325 
L 120.450317 -112.146316 
L 116.755436 -110.509381 
L 114.073773 -108.872447 
L 112.26197 -107.235512 
L 111.124176 -105.598578 
L 110.464224 -103.961643 
L 110.11591 -102.324709 
L 109.952948 -100.687774 
L 109.889354 -99.050839 
L 109.870441 -97.413905 
L 109.862461 -95.77697 
L 109.850045 -94.140036 
L 109.835081 -92.503101 
L 109.82694 -90.866167 
L 109.829434 -89.229232 
L 109.837125 -87.592298 
L 109.842642 -85.955363 
L 109.84449 -84.318428 
L 109.845113 -82.681494 
L 109.843901 -81.044559 
L 109.838237 -79.407625 
L 109.830099 -77.77069 
L 109.824545 -76.133756 
L 109.822178 -74.496821 
L 109.818988 -72.859887 
L 109.813066 -71.222952 
L 109.806727 -69.586017 
L 109.802534 -67.949083 
z
"/>
    </defs>
    <g clip-path="url(#p4a1fd40ca6)">
     <use xlink:href="#mccb3d02f5c" x="0" y="288" style="fill: #536e80"/>
    </g>
   </g>
   <g id="PolyCollection_2">
    <defs>
     <path id="m659a10c253" d="M 221.401868 -80.999476 
L 221.398132 -80.999476 
L 221.395038 -82.50539 
L 221.389865 -84.011303 
L 221.383762 -85.517217 
L 221.379097 -87.02313 
L 221.377927 -88.529044 
L 221.380697 -90.034957 
L 221.385849 -91.540871 
L 221.390393 -93.046784 
L 221.391686 -94.552698 
L 221.389332 -96.058612 
L 221.384848 -97.564525 
L 221.377905 -99.070439 
L 221.361437 -100.576352 
L 221.320776 -102.082266 
L 221.238328 -103.588179 
L 221.098025 -105.094093 
L 220.882102 -106.600006 
L 220.557747 -108.10592 
L 220.058158 -109.611833 
L 219.267897 -111.117747 
L 218.021893 -112.62366 
L 216.123155 -114.129574 
L 213.379104 -115.635487 
L 209.644433 -117.141401 
L 204.869219 -118.647314 
L 199.189664 -120.153228 
L 193.037918 -121.659141 
L 187.112996 -123.165055 
L 182.146115 -124.670968 
L 178.65458 -126.176882 
L 176.868849 -127.682795 
L 176.76 -129.188709 
L 178.039542 -130.694623 
L 180.213189 -132.200536 
L 182.798997 -133.70645 
L 185.544393 -135.212363 
L 188.406041 -136.718277 
L 191.362294 -138.22419 
L 194.305922 -139.730104 
L 197.088347 -141.236017 
L 199.610495 -142.741931 
L 201.86485 -144.247844 
L 203.899183 -145.753758 
L 205.74715 -147.259671 
L 207.386707 -148.765585 
L 208.737443 -150.271498 
L 209.702727 -151.777412 
L 210.233738 -153.283325 
L 210.342631 -154.789239 
L 210.061683 -156.295152 
L 209.425167 -157.801066 
L 208.514342 -159.306979 
L 207.520619 -160.812893 
L 206.732693 -162.318806 
L 206.42786 -163.82472 
L 206.76051 -165.330634 
L 207.715127 -166.836547 
L 209.117846 -168.342461 
L 210.698185 -169.848374 
L 212.183396 -171.354288 
L 213.382232 -172.860201 
L 214.2341 -174.366115 
L 214.812296 -175.872028 
L 215.260939 -177.377942 
L 215.698513 -178.883855 
L 216.171291 -180.389769 
L 216.670506 -181.895682 
L 217.158363 -183.401596 
L 217.589669 -184.907509 
L 217.941085 -186.413423 
L 218.224155 -187.919336 
L 218.468625 -189.42525 
L 218.704046 -190.931163 
L 218.954755 -192.437077 
L 219.231927 -193.94299 
L 219.521707 -195.448904 
L 219.790926 -196.954818 
L 220.011957 -198.460731 
L 220.180707 -199.966645 
L 220.312219 -201.472558 
L 220.426312 -202.978472 
L 220.53757 -204.484385 
L 220.652529 -205.990299 
L 220.773173 -207.496212 
L 220.899572 -209.002126 
L 221.026402 -210.508039 
L 221.141814 -212.013953 
L 221.234256 -213.519866 
L 221.299479 -215.02578 
L 221.34125 -216.531693 
L 221.366731 -218.037607 
L 221.381195 -219.54352 
L 221.387184 -221.049434 
L 221.387468 -222.555347 
L 221.386402 -224.061261 
L 221.387583 -225.567174 
L 221.391311 -227.073088 
L 221.395441 -228.579001 
L 221.398215 -230.084915 
L 221.401785 -230.084915 
L 221.401785 -230.084915 
L 221.404559 -228.579001 
L 221.408689 -227.073088 
L 221.412417 -225.567174 
L 221.413598 -224.061261 
L 221.412532 -222.555347 
L 221.412816 -221.049434 
L 221.418805 -219.54352 
L 221.433269 -218.037607 
L 221.45875 -216.531693 
L 221.500521 -215.02578 
L 221.565744 -213.519866 
L 221.658186 -212.013953 
L 221.773598 -210.508039 
L 221.900428 -209.002126 
L 222.026827 -207.496212 
L 222.147471 -205.990299 
L 222.26243 -204.484385 
L 222.373688 -202.978472 
L 222.487781 -201.472558 
L 222.619293 -199.966645 
L 222.788043 -198.460731 
L 223.009074 -196.954818 
L 223.278293 -195.448904 
L 223.568073 -193.94299 
L 223.845245 -192.437077 
L 224.095954 -190.931163 
L 224.331375 -189.42525 
L 224.575845 -187.919336 
L 224.858915 -186.413423 
L 225.210331 -184.907509 
L 225.641637 -183.401596 
L 226.129494 -181.895682 
L 226.628709 -180.389769 
L 227.101487 -178.883855 
L 227.539061 -177.377942 
L 227.987704 -175.872028 
L 228.5659 -174.366115 
L 229.417768 -172.860201 
L 230.616604 -171.354288 
L 232.101815 -169.848374 
L 233.682154 -168.342461 
L 235.084873 -166.836547 
L 236.03949 -165.330634 
L 236.37214 -163.82472 
L 236.067307 -162.318806 
L 235.279381 -160.812893 
L 234.285658 -159.306979 
L 233.374833 -157.801066 
L 232.738317 -156.295152 
L 232.457369 -154.789239 
L 232.566262 -153.283325 
L 233.097273 -151.777412 
L 234.062557 -150.271498 
L 235.413293 -148.765585 
L 237.05285 -147.259671 
L 238.900817 -145.753758 
L 240.93515 -144.247844 
L 243.189505 -142.741931 
L 245.711653 -141.236017 
L 248.494078 -139.730104 
L 251.437706 -138.22419 
L 254.393959 -136.718277 
L 257.255607 -135.212363 
L 260.001003 -133.70645 
L 262.586811 -132.200536 
L 264.760458 -130.694623 
L 266.04 -129.188709 
L 265.931151 -127.682795 
L 264.14542 -126.176882 
L 260.653885 -124.670968 
L 255.687004 -123.165055 
L 249.762082 -121.659141 
L 243.610336 -120.153228 
L 237.930781 -118.647314 
L 233.155567 -117.141401 
L 229.420896 -115.635487 
L 226.676845 -114.129574 
L 224.778107 -112.62366 
L 223.532103 -111.117747 
L 222.741842 -109.611833 
L 222.242253 -108.10592 
L 221.917898 -106.600006 
L 221.701975 -105.094093 
L 221.561672 -103.588179 
L 221.479224 -102.082266 
L 221.438563 -100.576352 
L 221.422095 -99.070439 
L 221.415152 -97.564525 
L 221.410668 -96.058612 
L 221.408314 -94.552698 
L 221.409607 -93.046784 
L 221.414151 -91.540871 
L 221.419303 -90.034957 
L 221.422073 -88.529044 
L 221.420903 -87.02313 
L 221.416238 -85.517217 
L 221.410135 -84.011303 
L 221.404962 -82.50539 
L 221.401868 -80.999476 
z
"/>
    </defs>
    <g clip-path="url(#p4a1fd40ca6)">
     <use xlink:href="#m659a10c253" x="0" y="288" style="fill: #ab8462"/>
    </g>
   </g>
   <g id="PolyCollection_3">
    <defs>
     <path id="m1ef3706a9c" d="M 333.007234 -91.94852 
L 332.992766 -91.94852 
L 332.982537 -93.292511 
L 332.963646 -94.636503 
L 332.934355 -95.980494 
L 332.896241 -97.324485 
L 332.854245 -98.668476 
L 332.813002 -100.012467 
L 332.769606 -101.356459 
L 332.704888 -102.70045 
L 332.576409 -104.044441 
L 332.317253 -105.388432 
L 331.843462 -106.732423 
L 331.066699 -108.076415 
L 329.902255 -109.420406 
L 328.267037 -110.764397 
L 326.077728 -112.108388 
L 323.267198 -113.452379 
L 319.821026 -114.796371 
L 315.809822 -116.140362 
L 311.390838 -117.484353 
L 306.781161 -118.828344 
L 302.228292 -120.172335 
L 297.992342 -121.516326 
L 294.328182 -122.860318 
L 291.452883 -124.204309 
L 289.503271 -125.5483 
L 288.503325 -126.892291 
L 288.36 -128.236282 
L 288.894634 -129.580274 
L 289.899469 -130.924265 
L 291.192438 -132.268256 
L 292.644903 -133.612247 
L 294.179766 -134.956238 
L 295.758136 -136.30023 
L 297.372085 -137.644221 
L 299.046661 -138.988212 
L 300.83966 -140.332203 
L 302.818901 -141.676194 
L 305.009624 -143.020186 
L 307.343809 -144.364177 
L 309.663234 -145.708168 
L 311.782852 -147.052159 
L 313.556018 -148.39615 
L 314.889019 -149.740142 
L 315.72154 -151.084133 
L 316.02096 -152.428124 
L 315.796967 -153.772115 
L 315.105094 -155.116106 
L 314.025384 -156.460098 
L 312.634141 -157.804089 
L 310.989997 -159.14808 
L 309.146602 -160.492071 
L 307.197017 -161.836062 
L 305.330097 -163.180054 
L 303.846172 -164.524045 
L 303.089988 -165.868036 
L 303.3225 -167.212027 
L 304.606057 -168.556018 
L 306.768016 -169.90001 
L 309.456598 -171.244001 
L 312.258019 -172.587992 
L 314.824834 -173.931983 
L 316.966951 -175.275974 
L 318.673489 -176.619966 
L 320.06226 -177.963957 
L 321.287045 -179.307948 
L 322.454782 -180.651939 
L 323.595124 -181.99593 
L 324.684314 -183.339922 
L 325.688107 -184.683913 
L 326.587905 -186.027904 
L 327.382719 -187.371895 
L 328.082044 -188.715886 
L 328.702139 -190.059878 
L 329.262972 -191.403869 
L 329.778814 -192.74786 
L 330.24717 -194.091851 
L 330.649537 -195.435842 
L 330.967781 -196.779834 
L 331.20271 -198.123825 
L 331.378142 -199.467816 
L 331.527646 -200.811807 
L 331.676369 -202.155798 
L 331.832487 -203.49979 
L 331.992148 -204.843781 
L 332.149567 -206.187772 
L 332.301745 -207.531763 
L 332.44566 -208.875754 
L 332.574488 -210.219746 
L 332.679002 -211.563737 
L 332.753396 -212.907728 
L 332.800052 -214.251719 
L 332.829054 -215.59571 
L 332.85278 -216.939702 
L 332.879489 -218.283693 
L 332.910255 -219.627684 
L 332.940782 -220.971675 
L 332.96589 -222.315666 
L 332.982997 -223.659658 
L 332.992706 -225.003649 
L 333.007294 -225.003649 
L 333.007294 -225.003649 
L 333.017003 -223.659658 
L 333.03411 -222.315666 
L 333.059218 -220.971675 
L 333.089745 -219.627684 
L 333.120511 -218.283693 
L 333.14722 -216.939702 
L 333.170946 -215.59571 
L 333.199948 -214.251719 
L 333.246604 -212.907728 
L 333.320998 -211.563737 
L 333.425512 -210.219746 
L 333.55434 -208.875754 
L 333.698255 -207.531763 
L 333.850433 -206.187772 
L 334.007852 -204.843781 
L 334.167513 -203.49979 
L 334.323631 -202.155798 
L 334.472354 -200.811807 
L 334.621858 -199.467816 
L 334.79729 -198.123825 
L 335.032219 -196.779834 
L 335.350463 -195.435842 
L 335.75283 -194.091851 
L 336.221186 -192.74786 
L 336.737028 -191.403869 
L 337.297861 -190.059878 
L 337.917956 -188.715886 
L 338.617281 -187.371895 
L 339.412095 -186.027904 
L 340.311893 -184.683913 
L 341.315686 -183.339922 
L 342.404876 -181.99593 
L 343.545218 -180.651939 
L 344.712955 -179.307948 
L 345.93774 -177.963957 
L 347.326511 -176.619966 
L 349.033049 -175.275974 
L 351.175166 -173.931983 
L 353.741981 -172.587992 
L 356.543402 -171.244001 
L 359.231984 -169.90001 
L 361.393943 -168.556018 
L 362.6775 -167.212027 
L 362.910012 -165.868036 
L 362.153828 -164.524045 
L 360.669903 -163.180054 
L 358.802983 -161.836062 
L 356.853398 -160.492071 
L 355.010003 -159.14808 
L 353.365859 -157.804089 
L 351.974616 -156.460098 
L 350.894906 -155.116106 
L 350.203033 -153.772115 
L 349.97904 -152.428124 
L 350.27846 -151.084133 
L 351.110981 -149.740142 
L 352.443982 -148.39615 
L 354.217148 -147.052159 
L 356.336766 -145.708168 
L 358.656191 -144.364177 
L 360.990376 -143.020186 
L 363.181099 -141.676194 
L 365.16034 -140.332203 
L 366.953339 -138.988212 
L 368.627915 -137.644221 
L 370.241864 -136.30023 
L 371.820234 -134.956238 
L 373.355097 -133.612247 
L 374.807562 -132.268256 
L 376.100531 -130.924265 
L 377.105366 -129.580274 
L 377.64 -128.236282 
L 377.496675 -126.892291 
L 376.496729 -125.5483 
L 374.547117 -124.204309 
L 371.671818 -122.860318 
L 368.007658 -121.516326 
L 363.771708 -120.172335 
L 359.218839 -118.828344 
L 354.609162 -117.484353 
L 350.190178 -116.140362 
L 346.178974 -114.796371 
L 342.732802 -113.452379 
L 339.922272 -112.108388 
L 337.732963 -110.764397 
L 336.097745 -109.420406 
L 334.933301 -108.076415 
L 334.156538 -106.732423 
L 333.682747 -105.388432 
L 333.423591 -104.044441 
L 333.295112 -102.70045 
L 333.230394 -101.356459 
L 333.186998 -100.012467 
L 333.145755 -98.668476 
L 333.103759 -97.324485 
L 333.065645 -95.980494 
L 333.036354 -94.636503 
L 333.017463 -93.292511 
L 333.007234 -91.94852 
z
"/>
    </defs>
    <g clip-path="url(#p4a1fd40ca6)">
     <use xlink:href="#m1ef3706a9c" x="0" y="288" style="fill: #557755"/>
    </g>
   </g>
   <g id="matplotlib.axis_1">
    <g id="xtick_1">
     <g id="line2d_1">
      <defs>
       <path id="m79059596cd" d="M 0 0 
L 0 3.5 
" style="stroke: #000000; stroke-width: 0.8"/>
      </defs>
      <g>
       <use xlink:href="#m79059596cd" x="109.8" y="252" style="stroke: #000000; stroke-width: 0.8"/>
      </g>
     </g>
     <g id="text_1">
      <!-- uncut -->
      <g transform="translate(95.584375 266.598437)scale(0.1 -0.1)">
       <defs>
        <path id="DejaVuSans-75" d="M 544 1381 
L 544 3500 
L 1119 3500 
L 1119 1403 
Q 1119 906 1312 657 
Q 1506 409 1894 409 
Q 2359 409 2629 706 
Q 2900 1003 2900 1516 
L 2900 3500 
L 3475 3500 
L 3475 0 
L 2900 0 
L 2900 538 
Q 2691 219 2414 64 
Q 2138 -91 1772 -91 
Q 1169 -91 856 284 
Q 544 659 544 1381 
z
M 1991 3584 
L 1991 3584 
z
" transform="scale(0.015625)"/>
        <path id="DejaVuSans-6e" d="M 3513 2113 
L 3513 0 
L 2938 0 
L 2938 2094 
Q 2938 2591 2744 2837 
Q 2550 3084 2163 3084 
Q 1697 3084 1428 2787 
Q 1159 2491 1159 1978 
L 1159 0 
L 581 0 
L 581 3500 
L 1159 3500 
L 1159 2956 
Q 1366 3272 1645 3428 
Q 1925 3584 2291 3584 
Q 2894 3584 3203 3211 
Q 3513 2838 3513 2113 
z
" transform="scale(0.015625)"/>
        <path id="DejaVuSans-63" d="M 3122 3366 
L 3122 2828 
Q 2878 2963 2633 3030 
Q 2388 3097 2138 3097 
Q 1578 3097 1268 2742 
Q 959 2388 959 1747 
Q 959 1106 1268 751 
Q 1578 397 2138 397 
Q 2388 397 2633 464 
Q 2878 531 3122 666 
L 3122 134 
Q 2881 22 2623 -34 
Q 2366 -91 2075 -91 
Q 1284 -91 818 406 
Q 353 903 353 1747 
Q 353 2603 823 3093 
Q 1294 3584 2113 3584 
Q 2378 3584 2631 3529 
Q 2884 3475 3122 3366 
z
" transform="scale(0.015625)"/>
        <path id="DejaVuSans-74" d="M 1172 4494 
L 1172 3500 
L 2356 3500 
L 2356 3053 
L 1172 3053 
L 1172 1153 
Q 1172 725 1289 603 
Q 1406 481 1766 481 
L 2356 481 
L 2356 0 
L 1766 0 
Q 1100 0 847 248 
Q 594 497 594 1153 
L 594 3053 
L 172 3053 
L 172 3500 
L 594 3500 
L 594 4494 
L 1172 4494 
z
" transform="scale(0.015625)"/>
       </defs>
       <use xlink:href="#DejaVuSans-75"/>
       <use xlink:href="#DejaVuSans-6e" x="63.378906"/>
       <use xlink:href="#DejaVuSans-63" x="126.757812"/>
       <use xlink:href="#DejaVuSans-75" x="181.738281"/>
       <use xlink:href="#DejaVuSans-74" x="245.117188"/>
      </g>
     </g>
    </g>
    <g id="xtick_2">
     <g id="line2d_2">
      <g>
       <use xlink:href="#m79059596cd" x="221.4" y="252" style="stroke: #000000; stroke-width: 0.8"/>
      </g>
     </g>
     <g id="text_2">
      <!-- 3H -->
      <g transform="translate(214.458594 266.598437)scale(0.1 -0.1)">
       <defs>
        <path id="DejaVuSans-33" d="M 2597 2516 
Q 3050 2419 3304 2112 
Q 3559 1806 3559 1356 
Q 3559 666 3084 287 
Q 2609 -91 1734 -91 
Q 1441 -91 1130 -33 
Q 819 25 488 141 
L 488 750 
Q 750 597 1062 519 
Q 1375 441 1716 441 
Q 2309 441 2620 675 
Q 2931 909 2931 1356 
Q 2931 1769 2642 2001 
Q 2353 2234 1838 2234 
L 1294 2234 
L 1294 2753 
L 1863 2753 
Q 2328 2753 2575 2939 
Q 2822 3125 2822 3475 
Q 2822 3834 2567 4026 
Q 2313 4219 1838 4219 
Q 1578 4219 1281 4162 
Q 984 4106 628 3988 
L 628 4550 
Q 988 4650 1302 4700 
Q 1616 4750 1894 4750 
Q 2613 4750 3031 4423 
Q 3450 4097 3450 3541 
Q 3450 3153 3228 2886 
Q 3006 2619 2597 2516 
z
" transform="scale(0.015625)"/>
        <path id="DejaVuSans-48" d="M 628 4666 
L 1259 4666 
L 1259 2753 
L 3553 2753 
L 3553 4666 
L 4184 4666 
L 4184 0 
L 3553 0 
L 3553 2222 
L 1259 2222 
L 1259 0 
L 628 0 
L 628 4666 
z
" transform="scale(0.015625)"/>
       </defs>
       <use xlink:href="#DejaVuSans-33"/>
       <use xlink:href="#DejaVuSans-48" x="63.623047"/>
      </g>
     </g>
    </g>
    <g id="xtick_3">
     <g id="line2d_3">
      <g>
       <use xlink:href="#m79059596cd" x="333" y="252" style="stroke: #000000; stroke-width: 0.8"/>
      </g>
     </g>
     <g id="text_3">
      <!-- 3T -->
      <g transform="translate(326.764844 266.598437)scale(0.1 -0.1)">
       <defs>
        <path id="DejaVuSans-54" d="M -19 4666 
L 3928 4666 
L 3928 4134 
L 2272 4134 
L 2272 0 
L 1638 0 
L 1638 4134 
L -19 4134 
L -19 4666 
z
" transform="scale(0.015625)"/>
       </defs>
       <use xlink:href="#DejaVuSans-33"/>
       <use xlink:href="#DejaVuSans-54" x="63.623047"/>
      </g>
     </g>
    </g>
    <g id="text_4">
     <!-- Sample -->
     <g transform="translate(202.651563 280.276563)scale(0.1 -0.1)">
      <defs>
       <path id="DejaVuSans-53" d="M 3425 4513 
L 3425 3897 
Q 3066 4069 2747 4153 
Q 2428 4238 2131 4238 
Q 1616 4238 1336 4038 
Q 1056 3838 1056 3469 
Q 1056 3159 1242 3001 
Q 1428 2844 1947 2747 
L 2328 2669 
Q 3034 2534 3370 2195 
Q 3706 1856 3706 1288 
Q 3706 609 3251 259 
Q 2797 -91 1919 -91 
Q 1588 -91 1214 -16 
Q 841 59 441 206 
L 441 856 
Q 825 641 1194 531 
Q 1563 422 1919 422 
Q 2459 422 2753 634 
Q 3047 847 3047 1241 
Q 3047 1584 2836 1778 
Q 2625 1972 2144 2069 
L 1759 2144 
Q 1053 2284 737 2584 
Q 422 2884 422 3419 
Q 422 4038 858 4394 
Q 1294 4750 2059 4750 
Q 2388 4750 2728 4690 
Q 3069 4631 3425 4513 
z
" transform="scale(0.015625)"/>
       <path id="DejaVuSans-61" d="M 2194 1759 
Q 1497 1759 1228 1600 
Q 959 1441 959 1056 
Q 959 750 1161 570 
Q 1363 391 1709 391 
Q 2188 391 2477 730 
Q 2766 1069 2766 1631 
L 2766 1759 
L 2194 1759 
z
M 3341 1997 
L 3341 0 
L 2766 0 
L 2766 531 
Q 2569 213 2275 61 
Q 1981 -91 1556 -91 
Q 1019 -91 701 211 
Q 384 513 384 1019 
Q 384 1609 779 1909 
Q 1175 2209 1959 2209 
L 2766 2209 
L 2766 2266 
Q 2766 2663 2505 2880 
Q 2244 3097 1772 3097 
Q 1472 3097 1187 3025 
Q 903 2953 641 2809 
L 641 3341 
Q 956 3463 1253 3523 
Q 1550 3584 1831 3584 
Q 2591 3584 2966 3190 
Q 3341 2797 3341 1997 
z
" transform="scale(0.015625)"/>
       <path id="DejaVuSans-6d" d="M 3328 2828 
Q 3544 3216 3844 3400 
Q 4144 3584 4550 3584 
Q 5097 3584 5394 3201 
Q 5691 2819 5691 2113 
L 5691 0 
L 5113 0 
L 5113 2094 
Q 5113 2597 4934 2840 
Q 4756 3084 4391 3084 
Q 3944 3084 3684 2787 
Q 3425 2491 3425 1978 
L 3425 0 
L 2847 0 
L 2847 2094 
Q 2847 2600 2669 2842 
Q 2491 3084 2119 3084 
Q 1678 3084 1418 2786 
Q 1159 2488 1159 1978 
L 1159 0 
L 581 0 
L 581 3500 
L 1159 3500 
L 1159 2956 
Q 1356 3278 1631 3431 
Q 1906 3584 2284 3584 
Q 2666 3584 2933 3390 
Q 3200 3197 3328 2828 
z
" transform="scale(0.015625)"/>
       <path id="DejaVuSans-70" d="M 1159 525 
L 1159 -1331 
L 581 -1331 
L 581 3500 
L 1159 3500 
L 1159 2969 
Q 1341 3281 1617 3432 
Q 1894 3584 2278 3584 
Q 2916 3584 3314 3078 
Q 3713 2572 3713 1747 
Q 3713 922 3314 415 
Q 2916 -91 2278 -91 
Q 1894 -91 1617 61 
Q 1341 213 1159 525 
z
M 3116 1747 
Q 3116 2381 2855 2742 
Q 2594 3103 2138 3103 
Q 1681 3103 1420 2742 
Q 1159 2381 1159 1747 
Q 1159 1113 1420 752 
Q 1681 391 2138 391 
Q 2594 391 2855 752 
Q 3116 1113 3116 1747 
z
" transform="scale(0.015625)"/>
       <path id="DejaVuSans-6c" d="M 603 4863 
L 1178 4863 
L 1178 0 
L 603 0 
L 603 4863 
z
" transform="scale(0.015625)"/>
       <path id="DejaVuSans-65" d="M 3597 1894 
L 3597 1613 
L 953 1613 
Q 991 1019 1311 708 
Q 1631 397 2203 397 
Q 2534 397 2845 478 
Q 3156 559 3463 722 
L 3463 178 
Q 3153 47 2828 -22 
Q 2503 -91 2169 -91 
Q 1331 -91 842 396 
Q 353 884 353 1716 
Q 353 2575 817 3079 
Q 1281 3584 2069 3584 
Q 2775 3584 3186 3129 
Q 3597 2675 3597 1894 
z
M 3022 2063 
Q 3016 2534 2758 2815 
Q 2500 3097 2075 3097 
Q 1594 3097 1305 2825 
Q 1016 2553 972 2059 
L 3022 2063 
z
" transform="scale(0.015625)"/>
      </defs>
      <use xlink:href="#DejaVuSans-53"/>
      <use xlink:href="#DejaVuSans-61" x="63.476562"/>
      <use xlink:href="#DejaVuSans-6d" x="124.755859"/>
      <use xlink:href="#DejaVuSans-70" x="222.167969"/>
      <use xlink:href="#DejaVuSans-6c" x="285.644531"/>
      <use xlink:href="#DejaVuSans-65" x="313.427734"/>
     </g>
    </g>
   </g>
   <g id="matplotlib.axis_2">
    <g id="ytick_1">
     <g id="line2d_4">
      <defs>
       <path id="md61477a481" d="M 0 0 
L -3.5 0 
" style="stroke: #000000; stroke-width: 0.8"/>
      </defs>
      <g>
       <use xlink:href="#md61477a481" x="54" y="252" style="stroke: #000000; stroke-width: 0.8"/>
      </g>
     </g>
     <g id="text_5">
      <!-- 0 -->
      <g transform="translate(40.6375 255.799219)scale(0.1 -0.1)">
       <defs>
        <path id="DejaVuSans-30" d="M 2034 4250 
Q 1547 4250 1301 3770 
Q 1056 3291 1056 2328 
Q 1056 1369 1301 889 
Q 1547 409 2034 409 
Q 2525 409 2770 889 
Q 3016 1369 3016 2328 
Q 3016 3291 2770 3770 
Q 2525 4250 2034 4250 
z
M 2034 4750 
Q 2819 4750 3233 4129 
Q 3647 3509 3647 2328 
Q 3647 1150 3233 529 
Q 2819 -91 2034 -91 
Q 1250 -91 836 529 
Q 422 1150 422 2328 
Q 422 3509 836 4129 
Q 1250 4750 2034 4750 
z
" transform="scale(0.015625)"/>
       </defs>
       <use xlink:href="#DejaVuSans-30"/>
      </g>
     </g>
    </g>
    <g id="ytick_2">
     <g id="line2d_5">
      <g>
       <use xlink:href="#md61477a481" x="54" y="212.465455" style="stroke: #000000; stroke-width: 0.8"/>
      </g>
     </g>
     <g id="text_6">
      <!-- 1 -->
      <g transform="translate(40.6375 216.264673)scale(0.1 -0.1)">
       <defs>
        <path id="DejaVuSans-31" d="M 794 531 
L 1825 531 
L 1825 4091 
L 703 3866 
L 703 4441 
L 1819 4666 
L 2450 4666 
L 2450 531 
L 3481 531 
L 3481 0 
L 794 0 
L 794 531 
z
" transform="scale(0.015625)"/>
       </defs>
       <use xlink:href="#DejaVuSans-31"/>
      </g>
     </g>
    </g>
    <g id="ytick_3">
     <g id="line2d_6">
      <g>
       <use xlink:href="#md61477a481" x="54" y="172.930909" style="stroke: #000000; stroke-width: 0.8"/>
      </g>
     </g>
     <g id="text_7">
      <!-- 2 -->
      <g transform="translate(40.6375 176.730128)scale(0.1 -0.1)">
       <defs>
        <path id="DejaVuSans-32" d="M 1228 531 
L 3431 531 
L 3431 0 
L 469 0 
L 469 531 
Q 828 903 1448 1529 
Q 2069 2156 2228 2338 
Q 2531 2678 2651 2914 
Q 2772 3150 2772 3378 
Q 2772 3750 2511 3984 
Q 2250 4219 1831 4219 
Q 1534 4219 1204 4116 
Q 875 4013 500 3803 
L 500 4441 
Q 881 4594 1212 4672 
Q 1544 4750 1819 4750 
Q 2544 4750 2975 4387 
Q 3406 4025 3406 3419 
Q 3406 3131 3298 2873 
Q 3191 2616 2906 2266 
Q 2828 2175 2409 1742 
Q 1991 1309 1228 531 
z
" transform="scale(0.015625)"/>
       </defs>
       <use xlink:href="#DejaVuSans-32"/>
      </g>
     </g>
    </g>
    <g id="ytick_4">
     <g id="line2d_7">
      <g>
       <use xlink:href="#md61477a481" x="54" y="133.396364" style="stroke: #000000; stroke-width: 0.8"/>
      </g>
     </g>
     <g id="text_8">
      <!-- 3 -->
      <g transform="translate(40.6375 137.195582)scale(0.1 -0.1)">
       <use xlink:href="#DejaVuSans-33"/>
      </g>
     </g>
    </g>
    <g id="ytick_5">
     <g id="line2d_8">
      <g>
       <use xlink:href="#md61477a481" x="54" y="93.861818" style="stroke: #000000; stroke-width: 0.8"/>
      </g>
     </g>
     <g id="text_9">
      <!-- 4 -->
      <g transform="translate(40.6375 97.661037)scale(0.1 -0.1)">
       <defs>
        <path id="DejaVuSans-34" d="M 2419 4116 
L 825 1625 
L 2419 1625 
L 2419 4116 
z
M 2253 4666 
L 3047 4666 
L 3047 1625 
L 3713 1625 
L 3713 1100 
L 3047 1100 
L 3047 0 
L 2419 0 
L 2419 1100 
L 313 1100 
L 313 1709 
L 2253 4666 
z
" transform="scale(0.015625)"/>
       </defs>
       <use xlink:href="#DejaVuSans-34"/>
      </g>
     </g>
    </g>
    <g id="ytick_6">
     <g id="line2d_9">
      <g>
       <use xlink:href="#md61477a481" x="54" y="54.327273" style="stroke: #000000; stroke-width: 0.8"/>
      </g>
     </g>
     <g id="text_10">
      <!-- 5 -->
      <g transform="translate(40.6375 58.126491)scale(0.1 -0.1)">
       <defs>
        <path id="DejaVuSans-35" d="M 691 4666 
L 3169 4666 
L 3169 4134 
L 1269 4134 
L 1269 2991 
Q 1406 3038 1543 3061 
Q 1681 3084 1819 3084 
Q 2600 3084 3056 2656 
Q 3513 2228 3513 1497 
Q 3513 744 3044 326 
Q 2575 -91 1722 -91 
Q 1428 -91 1123 -41 
Q 819 9 494 109 
L 494 744 
Q 775 591 1075 516 
Q 1375 441 1709 441 
Q 2250 441 2565 725 
Q 2881 1009 2881 1497 
Q 2881 1984 2565 2268 
Q 2250 2553 1709 2553 
Q 1456 2553 1204 2497 
Q 953 2441 691 2322 
L 691 4666 
z
" transform="scale(0.015625)"/>
       </defs>
       <use xlink:href="#DejaVuSans-35"/>
      </g>
     </g>
    </g>
    <g id="text_11">
     <!-- log_n_counts -->
     <g transform="translate(34.279688 175.782344)rotate(-90)scale(0.1 -0.1)">
      <defs>
       <path id="DejaVuSans-6f" d="M 1959 3097 
Q 1497 3097 1228 2736 
Q 959 2375 959 1747 
Q 959 1119 1226 758 
Q 1494 397 1959 397 
Q 2419 397 2687 759 
Q 2956 1122 2956 1747 
Q 2956 2369 2687 2733 
Q 2419 3097 1959 3097 
z
M 1959 3584 
Q 2709 3584 3137 3096 
Q 3566 2609 3566 1747 
Q 3566 888 3137 398 
Q 2709 -91 1959 -91 
Q 1206 -91 779 398 
Q 353 888 353 1747 
Q 353 2609 779 3096 
Q 1206 3584 1959 3584 
z
" transform="scale(0.015625)"/>
       <path id="DejaVuSans-67" d="M 2906 1791 
Q 2906 2416 2648 2759 
Q 2391 3103 1925 3103 
Q 1463 3103 1205 2759 
Q 947 2416 947 1791 
Q 947 1169 1205 825 
Q 1463 481 1925 481 
Q 2391 481 2648 825 
Q 2906 1169 2906 1791 
z
M 3481 434 
Q 3481 -459 3084 -895 
Q 2688 -1331 1869 -1331 
Q 1566 -1331 1297 -1286 
Q 1028 -1241 775 -1147 
L 775 -588 
Q 1028 -725 1275 -790 
Q 1522 -856 1778 -856 
Q 2344 -856 2625 -561 
Q 2906 -266 2906 331 
L 2906 616 
Q 2728 306 2450 153 
Q 2172 0 1784 0 
Q 1141 0 747 490 
Q 353 981 353 1791 
Q 353 2603 747 3093 
Q 1141 3584 1784 3584 
Q 2172 3584 2450 3431 
Q 2728 3278 2906 2969 
L 2906 3500 
L 3481 3500 
L 3481 434 
z
" transform="scale(0.015625)"/>
       <path id="DejaVuSans-5f" d="M 3263 -1063 
L 3263 -1509 
L -63 -1509 
L -63 -1063 
L 3263 -1063 
z
" transform="scale(0.015625)"/>
       <path id="DejaVuSans-73" d="M 2834 3397 
L 2834 2853 
Q 2591 2978 2328 3040 
Q 2066 3103 1784 3103 
Q 1356 3103 1142 2972 
Q 928 2841 928 2578 
Q 928 2378 1081 2264 
Q 1234 2150 1697 2047 
L 1894 2003 
Q 2506 1872 2764 1633 
Q 3022 1394 3022 966 
Q 3022 478 2636 193 
Q 2250 -91 1575 -91 
Q 1294 -91 989 -36 
Q 684 19 347 128 
L 347 722 
Q 666 556 975 473 
Q 1284 391 1588 391 
Q 1994 391 2212 530 
Q 2431 669 2431 922 
Q 2431 1156 2273 1281 
Q 2116 1406 1581 1522 
L 1381 1569 
Q 847 1681 609 1914 
Q 372 2147 372 2553 
Q 372 3047 722 3315 
Q 1072 3584 1716 3584 
Q 2034 3584 2315 3537 
Q 2597 3491 2834 3397 
z
" transform="scale(0.015625)"/>
      </defs>
      <use xlink:href="#DejaVuSans-6c"/>
      <use xlink:href="#DejaVuSans-6f" x="27.783203"/>
      <use xlink:href="#DejaVuSans-67" x="88.964844"/>
      <use xlink:href="#DejaVuSans-5f" x="152.441406"/>
      <use xlink:href="#DejaVuSans-6e" x="202.441406"/>
      <use xlink:href="#DejaVuSans-5f" x="265.820312"/>
      <use xlink:href="#DejaVuSans-63" x="315.820312"/>
      <use xlink:href="#DejaVuSans-6f" x="370.800781"/>
      <use xlink:href="#DejaVuSans-75" x="431.982422"/>
      <use xlink:href="#DejaVuSans-6e" x="495.361328"/>
      <use xlink:href="#DejaVuSans-74" x="558.740234"/>
      <use xlink:href="#DejaVuSans-73" x="597.949219"/>
     </g>
    </g>
   </g>
   <g id="patch_3">
    <path d="M 104.22 163.719509 
L 115.38 163.719509 
L 115.38 131.932485 
L 104.22 131.932485 
L 104.22 163.719509 
z
" clip-path="url(#p4a1fd40ca6)" style="fill: #3274a1; stroke: #3d3d3d; stroke-width: 1.5; stroke-linejoin: miter"/>
   </g>
   <g id="line2d_10">
    <path d="M 109.8 163.719509 
L 109.8 207.960756 
" clip-path="url(#p4a1fd40ca6)" style="fill: none; stroke: #3d3d3d; stroke-width: 1.5; stroke-linecap: square"/>
   </g>
   <g id="line2d_11">
    <path d="M 109.8 131.932485 
L 109.8 84.52039 
" clip-path="url(#p4a1fd40ca6)" style="fill: none; stroke: #3d3d3d; stroke-width: 1.5; stroke-linecap: square"/>
   </g>
   <g id="line2d_12">
    <path d="M 107.01 207.960756 
L 112.59 207.960756 
" clip-path="url(#p4a1fd40ca6)" style="fill: none; stroke: #3d3d3d; stroke-width: 1.5; stroke-linecap: square"/>
   </g>
   <g id="line2d_13">
    <path d="M 107.01 84.52039 
L 112.59 84.52039 
" clip-path="url(#p4a1fd40ca6)" style="fill: none; stroke: #3d3d3d; stroke-width: 1.5; stroke-linecap: square"/>
   </g>
   <g id="line2d_14">
    <defs>
     <path id="m8a5ecfddb8" d="M -0 1.414214 
L 0.848528 0 
L 0 -1.414214 
L -0.848528 -0 
z
" style="stroke: #3d3d3d; stroke-linejoin: miter"/>
    </defs>
    <g clip-path="url(#p4a1fd40ca6)">
     <use xlink:href="#m8a5ecfddb8" x="109.8" y="214.274455" style="fill: #3d3d3d; stroke: #3d3d3d; stroke-linejoin: miter"/>
     <use xlink:href="#m8a5ecfddb8" x="109.8" y="76.96392" style="fill: #3d3d3d; stroke: #3d3d3d; stroke-linejoin: miter"/>
     <use xlink:href="#m8a5ecfddb8" x="109.8" y="69.91433" style="fill: #3d3d3d; stroke: #3d3d3d; stroke-linejoin: miter"/>
     <use xlink:href="#m8a5ecfddb8" x="109.8" y="74.942488" style="fill: #3d3d3d; stroke: #3d3d3d; stroke-linejoin: miter"/>
     <use xlink:href="#m8a5ecfddb8" x="109.8" y="80.873842" style="fill: #3d3d3d; stroke: #3d3d3d; stroke-linejoin: miter"/>
     <use xlink:href="#m8a5ecfddb8" x="109.8" y="63.770858" style="fill: #3d3d3d; stroke: #3d3d3d; stroke-linejoin: miter"/>
     <use xlink:href="#m8a5ecfddb8" x="109.8" y="79.45466" style="fill: #3d3d3d; stroke: #3d3d3d; stroke-linejoin: miter"/>
     <use xlink:href="#m8a5ecfddb8" x="109.8" y="83.534794" style="fill: #3d3d3d; stroke: #3d3d3d; stroke-linejoin: miter"/>
     <use xlink:href="#m8a5ecfddb8" x="109.8" y="82.475752" style="fill: #3d3d3d; stroke: #3d3d3d; stroke-linejoin: miter"/>
     <use xlink:href="#m8a5ecfddb8" x="109.8" y="67.394802" style="fill: #3d3d3d; stroke: #3d3d3d; stroke-linejoin: miter"/>
     <use xlink:href="#m8a5ecfddb8" x="109.8" y="77.947046" style="fill: #3d3d3d; stroke: #3d3d3d; stroke-linejoin: miter"/>
     <use xlink:href="#m8a5ecfddb8" x="109.8" y="81.866564" style="fill: #3d3d3d; stroke: #3d3d3d; stroke-linejoin: miter"/>
     <use xlink:href="#m8a5ecfddb8" x="109.8" y="77.010822" style="fill: #3d3d3d; stroke: #3d3d3d; stroke-linejoin: miter"/>
    </g>
   </g>
   <g id="patch_4">
    <path d="M 215.82 160.439162 
L 226.98 160.439162 
L 226.98 134.367652 
L 215.82 134.367652 
L 215.82 160.439162 
z
" clip-path="url(#p4a1fd40ca6)" style="fill: #e1812c; stroke: #3d3d3d; stroke-width: 1.5; stroke-linejoin: miter"/>
   </g>
   <g id="line2d_15">
    <path d="M 221.4 160.439162 
L 221.4 198.164709 
" clip-path="url(#p4a1fd40ca6)" style="fill: none; stroke: #3d3d3d; stroke-width: 1.5; stroke-linecap: square"/>
   </g>
   <g id="line2d_16">
    <path d="M 221.4 134.367652 
L 221.4 95.330815 
" clip-path="url(#p4a1fd40ca6)" style="fill: none; stroke: #3d3d3d; stroke-width: 1.5; stroke-linecap: square"/>
   </g>
   <g id="line2d_17">
    <path d="M 218.61 198.164709 
L 224.19 198.164709 
" clip-path="url(#p4a1fd40ca6)" style="fill: none; stroke: #3d3d3d; stroke-width: 1.5; stroke-linecap: square"/>
   </g>
   <g id="line2d_18">
    <path d="M 218.61 95.330815 
L 224.19 95.330815 
" clip-path="url(#p4a1fd40ca6)" style="fill: none; stroke: #3d3d3d; stroke-width: 1.5; stroke-linecap: square"/>
   </g>
   <g id="line2d_19">
    <g clip-path="url(#p4a1fd40ca6)">
     <use xlink:href="#m8a5ecfddb8" x="221.4" y="201.445056" style="fill: #3d3d3d; stroke: #3d3d3d; stroke-linejoin: miter"/>
     <use xlink:href="#m8a5ecfddb8" x="221.4" y="93.419448" style="fill: #3d3d3d; stroke: #3d3d3d; stroke-linejoin: miter"/>
     <use xlink:href="#m8a5ecfddb8" x="221.4" y="78.566244" style="fill: #3d3d3d; stroke: #3d3d3d; stroke-linejoin: miter"/>
     <use xlink:href="#m8a5ecfddb8" x="221.4" y="86.171785" style="fill: #3d3d3d; stroke: #3d3d3d; stroke-linejoin: miter"/>
     <use xlink:href="#m8a5ecfddb8" x="221.4" y="84.820959" style="fill: #3d3d3d; stroke: #3d3d3d; stroke-linejoin: miter"/>
     <use xlink:href="#m8a5ecfddb8" x="221.4" y="63.470553" style="fill: #3d3d3d; stroke: #3d3d3d; stroke-linejoin: miter"/>
     <use xlink:href="#m8a5ecfddb8" x="221.4" y="92.927894" style="fill: #3d3d3d; stroke: #3d3d3d; stroke-linejoin: miter"/>
     <use xlink:href="#m8a5ecfddb8" x="221.4" y="95.094916" style="fill: #3d3d3d; stroke: #3d3d3d; stroke-linejoin: miter"/>
     <use xlink:href="#m8a5ecfddb8" x="221.4" y="88.206563" style="fill: #3d3d3d; stroke: #3d3d3d; stroke-linejoin: miter"/>
     <use xlink:href="#m8a5ecfddb8" x="221.4" y="93.394357" style="fill: #3d3d3d; stroke: #3d3d3d; stroke-linejoin: miter"/>
     <use xlink:href="#m8a5ecfddb8" x="221.4" y="82.406887" style="fill: #3d3d3d; stroke: #3d3d3d; stroke-linejoin: miter"/>
     <use xlink:href="#m8a5ecfddb8" x="221.4" y="84.816906" style="fill: #3d3d3d; stroke: #3d3d3d; stroke-linejoin: miter"/>
     <use xlink:href="#m8a5ecfddb8" x="221.4" y="94.145732" style="fill: #3d3d3d; stroke: #3d3d3d; stroke-linejoin: miter"/>
     <use xlink:href="#m8a5ecfddb8" x="221.4" y="93.728406" style="fill: #3d3d3d; stroke: #3d3d3d; stroke-linejoin: miter"/>
     <use xlink:href="#m8a5ecfddb8" x="221.4" y="91.971291" style="fill: #3d3d3d; stroke: #3d3d3d; stroke-linejoin: miter"/>
     <use xlink:href="#m8a5ecfddb8" x="221.4" y="93.153773" style="fill: #3d3d3d; stroke: #3d3d3d; stroke-linejoin: miter"/>
     <use xlink:href="#m8a5ecfddb8" x="221.4" y="93.459639" style="fill: #3d3d3d; stroke: #3d3d3d; stroke-linejoin: miter"/>
     <use xlink:href="#m8a5ecfddb8" x="221.4" y="94.775072" style="fill: #3d3d3d; stroke: #3d3d3d; stroke-linejoin: miter"/>
     <use xlink:href="#m8a5ecfddb8" x="221.4" y="85.058884" style="fill: #3d3d3d; stroke: #3d3d3d; stroke-linejoin: miter"/>
     <use xlink:href="#m8a5ecfddb8" x="221.4" y="94.277155" style="fill: #3d3d3d; stroke: #3d3d3d; stroke-linejoin: miter"/>
     <use xlink:href="#m8a5ecfddb8" x="221.4" y="87.019595" style="fill: #3d3d3d; stroke: #3d3d3d; stroke-linejoin: miter"/>
     <use xlink:href="#m8a5ecfddb8" x="221.4" y="80.309465" style="fill: #3d3d3d; stroke: #3d3d3d; stroke-linejoin: miter"/>
     <use xlink:href="#m8a5ecfddb8" x="221.4" y="79.482127" style="fill: #3d3d3d; stroke: #3d3d3d; stroke-linejoin: miter"/>
     <use xlink:href="#m8a5ecfddb8" x="221.4" y="84.123414" style="fill: #3d3d3d; stroke: #3d3d3d; stroke-linejoin: miter"/>
     <use xlink:href="#m8a5ecfddb8" x="221.4" y="80.082511" style="fill: #3d3d3d; stroke: #3d3d3d; stroke-linejoin: miter"/>
     <use xlink:href="#m8a5ecfddb8" x="221.4" y="87.736293" style="fill: #3d3d3d; stroke: #3d3d3d; stroke-linejoin: miter"/>
     <use xlink:href="#m8a5ecfddb8" x="221.4" y="90.331207" style="fill: #3d3d3d; stroke: #3d3d3d; stroke-linejoin: miter"/>
     <use xlink:href="#m8a5ecfddb8" x="221.4" y="75.510221" style="fill: #3d3d3d; stroke: #3d3d3d; stroke-linejoin: miter"/>
     <use xlink:href="#m8a5ecfddb8" x="221.4" y="78.743995" style="fill: #3d3d3d; stroke: #3d3d3d; stroke-linejoin: miter"/>
     <use xlink:href="#m8a5ecfddb8" x="221.4" y="88.155985" style="fill: #3d3d3d; stroke: #3d3d3d; stroke-linejoin: miter"/>
     <use xlink:href="#m8a5ecfddb8" x="221.4" y="86.329384" style="fill: #3d3d3d; stroke: #3d3d3d; stroke-linejoin: miter"/>
     <use xlink:href="#m8a5ecfddb8" x="221.4" y="94.862203" style="fill: #3d3d3d; stroke: #3d3d3d; stroke-linejoin: miter"/>
     <use xlink:href="#m8a5ecfddb8" x="221.4" y="92.461111" style="fill: #3d3d3d; stroke: #3d3d3d; stroke-linejoin: miter"/>
     <use xlink:href="#m8a5ecfddb8" x="221.4" y="78.970421" style="fill: #3d3d3d; stroke: #3d3d3d; stroke-linejoin: miter"/>
     <use xlink:href="#m8a5ecfddb8" x="221.4" y="76.241981" style="fill: #3d3d3d; stroke: #3d3d3d; stroke-linejoin: miter"/>
     <use xlink:href="#m8a5ecfddb8" x="221.4" y="88.798389" style="fill: #3d3d3d; stroke: #3d3d3d; stroke-linejoin: miter"/>
     <use xlink:href="#m8a5ecfddb8" x="221.4" y="93.249614" style="fill: #3d3d3d; stroke: #3d3d3d; stroke-linejoin: miter"/>
     <use xlink:href="#m8a5ecfddb8" x="221.4" y="72.388179" style="fill: #3d3d3d; stroke: #3d3d3d; stroke-linejoin: miter"/>
     <use xlink:href="#m8a5ecfddb8" x="221.4" y="89.399432" style="fill: #3d3d3d; stroke: #3d3d3d; stroke-linejoin: miter"/>
     <use xlink:href="#m8a5ecfddb8" x="221.4" y="85.670126" style="fill: #3d3d3d; stroke: #3d3d3d; stroke-linejoin: miter"/>
     <use xlink:href="#m8a5ecfddb8" x="221.4" y="83.670826" style="fill: #3d3d3d; stroke: #3d3d3d; stroke-linejoin: miter"/>
     <use xlink:href="#m8a5ecfddb8" x="221.4" y="90.215572" style="fill: #3d3d3d; stroke: #3d3d3d; stroke-linejoin: miter"/>
     <use xlink:href="#m8a5ecfddb8" x="221.4" y="92.655282" style="fill: #3d3d3d; stroke: #3d3d3d; stroke-linejoin: miter"/>
     <use xlink:href="#m8a5ecfddb8" x="221.4" y="82.34971" style="fill: #3d3d3d; stroke: #3d3d3d; stroke-linejoin: miter"/>
     <use xlink:href="#m8a5ecfddb8" x="221.4" y="82.478391" style="fill: #3d3d3d; stroke: #3d3d3d; stroke-linejoin: miter"/>
     <use xlink:href="#m8a5ecfddb8" x="221.4" y="95.152197" style="fill: #3d3d3d; stroke: #3d3d3d; stroke-linejoin: miter"/>
     <use xlink:href="#m8a5ecfddb8" x="221.4" y="80.238658" style="fill: #3d3d3d; stroke: #3d3d3d; stroke-linejoin: miter"/>
     <use xlink:href="#m8a5ecfddb8" x="221.4" y="86.460534" style="fill: #3d3d3d; stroke: #3d3d3d; stroke-linejoin: miter"/>
     <use xlink:href="#m8a5ecfddb8" x="221.4" y="92.725843" style="fill: #3d3d3d; stroke: #3d3d3d; stroke-linejoin: miter"/>
     <use xlink:href="#m8a5ecfddb8" x="221.4" y="79.314273" style="fill: #3d3d3d; stroke: #3d3d3d; stroke-linejoin: miter"/>
     <use xlink:href="#m8a5ecfddb8" x="221.4" y="94.268361" style="fill: #3d3d3d; stroke: #3d3d3d; stroke-linejoin: miter"/>
     <use xlink:href="#m8a5ecfddb8" x="221.4" y="83.287235" style="fill: #3d3d3d; stroke: #3d3d3d; stroke-linejoin: miter"/>
     <use xlink:href="#m8a5ecfddb8" x="221.4" y="87.743513" style="fill: #3d3d3d; stroke: #3d3d3d; stroke-linejoin: miter"/>
     <use xlink:href="#m8a5ecfddb8" x="221.4" y="89.968824" style="fill: #3d3d3d; stroke: #3d3d3d; stroke-linejoin: miter"/>
     <use xlink:href="#m8a5ecfddb8" x="221.4" y="79.456131" style="fill: #3d3d3d; stroke: #3d3d3d; stroke-linejoin: miter"/>
     <use xlink:href="#m8a5ecfddb8" x="221.4" y="85.719216" style="fill: #3d3d3d; stroke: #3d3d3d; stroke-linejoin: miter"/>
     <use xlink:href="#m8a5ecfddb8" x="221.4" y="92.780569" style="fill: #3d3d3d; stroke: #3d3d3d; stroke-linejoin: miter"/>
     <use xlink:href="#m8a5ecfddb8" x="221.4" y="91.640749" style="fill: #3d3d3d; stroke: #3d3d3d; stroke-linejoin: miter"/>
     <use xlink:href="#m8a5ecfddb8" x="221.4" y="88.676099" style="fill: #3d3d3d; stroke: #3d3d3d; stroke-linejoin: miter"/>
     <use xlink:href="#m8a5ecfddb8" x="221.4" y="95.087536" style="fill: #3d3d3d; stroke: #3d3d3d; stroke-linejoin: miter"/>
     <use xlink:href="#m8a5ecfddb8" x="221.4" y="94.178929" style="fill: #3d3d3d; stroke: #3d3d3d; stroke-linejoin: miter"/>
     <use xlink:href="#m8a5ecfddb8" x="221.4" y="93.540343" style="fill: #3d3d3d; stroke: #3d3d3d; stroke-linejoin: miter"/>
     <use xlink:href="#m8a5ecfddb8" x="221.4" y="95.098602" style="fill: #3d3d3d; stroke: #3d3d3d; stroke-linejoin: miter"/>
     <use xlink:href="#m8a5ecfddb8" x="221.4" y="93.815519" style="fill: #3d3d3d; stroke: #3d3d3d; stroke-linejoin: miter"/>
     <use xlink:href="#m8a5ecfddb8" x="221.4" y="93.10442" style="fill: #3d3d3d; stroke: #3d3d3d; stroke-linejoin: miter"/>
     <use xlink:href="#m8a5ecfddb8" x="221.4" y="94.776881" style="fill: #3d3d3d; stroke: #3d3d3d; stroke-linejoin: miter"/>
     <use xlink:href="#m8a5ecfddb8" x="221.4" y="94.055207" style="fill: #3d3d3d; stroke: #3d3d3d; stroke-linejoin: miter"/>
     <use xlink:href="#m8a5ecfddb8" x="221.4" y="87.877472" style="fill: #3d3d3d; stroke: #3d3d3d; stroke-linejoin: miter"/>
     <use xlink:href="#m8a5ecfddb8" x="221.4" y="91.889966" style="fill: #3d3d3d; stroke: #3d3d3d; stroke-linejoin: miter"/>
     <use xlink:href="#m8a5ecfddb8" x="221.4" y="94.6039" style="fill: #3d3d3d; stroke: #3d3d3d; stroke-linejoin: miter"/>
     <use xlink:href="#m8a5ecfddb8" x="221.4" y="92.648872" style="fill: #3d3d3d; stroke: #3d3d3d; stroke-linejoin: miter"/>
     <use xlink:href="#m8a5ecfddb8" x="221.4" y="81.818813" style="fill: #3d3d3d; stroke: #3d3d3d; stroke-linejoin: miter"/>
     <use xlink:href="#m8a5ecfddb8" x="221.4" y="89.813506" style="fill: #3d3d3d; stroke: #3d3d3d; stroke-linejoin: miter"/>
     <use xlink:href="#m8a5ecfddb8" x="221.4" y="88.974443" style="fill: #3d3d3d; stroke: #3d3d3d; stroke-linejoin: miter"/>
     <use xlink:href="#m8a5ecfddb8" x="221.4" y="95.07647" style="fill: #3d3d3d; stroke: #3d3d3d; stroke-linejoin: miter"/>
     <use xlink:href="#m8a5ecfddb8" x="221.4" y="80.680727" style="fill: #3d3d3d; stroke: #3d3d3d; stroke-linejoin: miter"/>
     <use xlink:href="#m8a5ecfddb8" x="221.4" y="82.241163" style="fill: #3d3d3d; stroke: #3d3d3d; stroke-linejoin: miter"/>
     <use xlink:href="#m8a5ecfddb8" x="221.4" y="89.11451" style="fill: #3d3d3d; stroke: #3d3d3d; stroke-linejoin: miter"/>
     <use xlink:href="#m8a5ecfddb8" x="221.4" y="89.718815" style="fill: #3d3d3d; stroke: #3d3d3d; stroke-linejoin: miter"/>
     <use xlink:href="#m8a5ecfddb8" x="221.4" y="85.108313" style="fill: #3d3d3d; stroke: #3d3d3d; stroke-linejoin: miter"/>
     <use xlink:href="#m8a5ecfddb8" x="221.4" y="95.183688" style="fill: #3d3d3d; stroke: #3d3d3d; stroke-linejoin: miter"/>
     <use xlink:href="#m8a5ecfddb8" x="221.4" y="85.305368" style="fill: #3d3d3d; stroke: #3d3d3d; stroke-linejoin: miter"/>
     <use xlink:href="#m8a5ecfddb8" x="221.4" y="94.187676" style="fill: #3d3d3d; stroke: #3d3d3d; stroke-linejoin: miter"/>
     <use xlink:href="#m8a5ecfddb8" x="221.4" y="79.724596" style="fill: #3d3d3d; stroke: #3d3d3d; stroke-linejoin: miter"/>
     <use xlink:href="#m8a5ecfddb8" x="221.4" y="82.121154" style="fill: #3d3d3d; stroke: #3d3d3d; stroke-linejoin: miter"/>
     <use xlink:href="#m8a5ecfddb8" x="221.4" y="92.334994" style="fill: #3d3d3d; stroke: #3d3d3d; stroke-linejoin: miter"/>
     <use xlink:href="#m8a5ecfddb8" x="221.4" y="84.885978" style="fill: #3d3d3d; stroke: #3d3d3d; stroke-linejoin: miter"/>
     <use xlink:href="#m8a5ecfddb8" x="221.4" y="91.329792" style="fill: #3d3d3d; stroke: #3d3d3d; stroke-linejoin: miter"/>
     <use xlink:href="#m8a5ecfddb8" x="221.4" y="92.828999" style="fill: #3d3d3d; stroke: #3d3d3d; stroke-linejoin: miter"/>
     <use xlink:href="#m8a5ecfddb8" x="221.4" y="89.175815" style="fill: #3d3d3d; stroke: #3d3d3d; stroke-linejoin: miter"/>
     <use xlink:href="#m8a5ecfddb8" x="221.4" y="82.374312" style="fill: #3d3d3d; stroke: #3d3d3d; stroke-linejoin: miter"/>
     <use xlink:href="#m8a5ecfddb8" x="221.4" y="91.340161" style="fill: #3d3d3d; stroke: #3d3d3d; stroke-linejoin: miter"/>
     <use xlink:href="#m8a5ecfddb8" x="221.4" y="94.957102" style="fill: #3d3d3d; stroke: #3d3d3d; stroke-linejoin: miter"/>
     <use xlink:href="#m8a5ecfddb8" x="221.4" y="94.294753" style="fill: #3d3d3d; stroke: #3d3d3d; stroke-linejoin: miter"/>
     <use xlink:href="#m8a5ecfddb8" x="221.4" y="77.057216" style="fill: #3d3d3d; stroke: #3d3d3d; stroke-linejoin: miter"/>
     <use xlink:href="#m8a5ecfddb8" x="221.4" y="85.020879" style="fill: #3d3d3d; stroke: #3d3d3d; stroke-linejoin: miter"/>
     <use xlink:href="#m8a5ecfddb8" x="221.4" y="90.90109" style="fill: #3d3d3d; stroke: #3d3d3d; stroke-linejoin: miter"/>
     <use xlink:href="#m8a5ecfddb8" x="221.4" y="91.85937" style="fill: #3d3d3d; stroke: #3d3d3d; stroke-linejoin: miter"/>
     <use xlink:href="#m8a5ecfddb8" x="221.4" y="92.668082" style="fill: #3d3d3d; stroke: #3d3d3d; stroke-linejoin: miter"/>
     <use xlink:href="#m8a5ecfddb8" x="221.4" y="94.133516" style="fill: #3d3d3d; stroke: #3d3d3d; stroke-linejoin: miter"/>
     <use xlink:href="#m8a5ecfddb8" x="221.4" y="86.121395" style="fill: #3d3d3d; stroke: #3d3d3d; stroke-linejoin: miter"/>
     <use xlink:href="#m8a5ecfddb8" x="221.4" y="94.731666" style="fill: #3d3d3d; stroke: #3d3d3d; stroke-linejoin: miter"/>
     <use xlink:href="#m8a5ecfddb8" x="221.4" y="83.451262" style="fill: #3d3d3d; stroke: #3d3d3d; stroke-linejoin: miter"/>
     <use xlink:href="#m8a5ecfddb8" x="221.4" y="81.024372" style="fill: #3d3d3d; stroke: #3d3d3d; stroke-linejoin: miter"/>
     <use xlink:href="#m8a5ecfddb8" x="221.4" y="94.100413" style="fill: #3d3d3d; stroke: #3d3d3d; stroke-linejoin: miter"/>
     <use xlink:href="#m8a5ecfddb8" x="221.4" y="81.830746" style="fill: #3d3d3d; stroke: #3d3d3d; stroke-linejoin: miter"/>
     <use xlink:href="#m8a5ecfddb8" x="221.4" y="76.26415" style="fill: #3d3d3d; stroke: #3d3d3d; stroke-linejoin: miter"/>
     <use xlink:href="#m8a5ecfddb8" x="221.4" y="83.032249" style="fill: #3d3d3d; stroke: #3d3d3d; stroke-linejoin: miter"/>
     <use xlink:href="#m8a5ecfddb8" x="221.4" y="90.707126" style="fill: #3d3d3d; stroke: #3d3d3d; stroke-linejoin: miter"/>
     <use xlink:href="#m8a5ecfddb8" x="221.4" y="71.145788" style="fill: #3d3d3d; stroke: #3d3d3d; stroke-linejoin: miter"/>
     <use xlink:href="#m8a5ecfddb8" x="221.4" y="85.886712" style="fill: #3d3d3d; stroke: #3d3d3d; stroke-linejoin: miter"/>
     <use xlink:href="#m8a5ecfddb8" x="221.4" y="92.1087" style="fill: #3d3d3d; stroke: #3d3d3d; stroke-linejoin: miter"/>
     <use xlink:href="#m8a5ecfddb8" x="221.4" y="92.325568" style="fill: #3d3d3d; stroke: #3d3d3d; stroke-linejoin: miter"/>
     <use xlink:href="#m8a5ecfddb8" x="221.4" y="85.398457" style="fill: #3d3d3d; stroke: #3d3d3d; stroke-linejoin: miter"/>
     <use xlink:href="#m8a5ecfddb8" x="221.4" y="89.151007" style="fill: #3d3d3d; stroke: #3d3d3d; stroke-linejoin: miter"/>
     <use xlink:href="#m8a5ecfddb8" x="221.4" y="85.760934" style="fill: #3d3d3d; stroke: #3d3d3d; stroke-linejoin: miter"/>
     <use xlink:href="#m8a5ecfddb8" x="221.4" y="90.938698" style="fill: #3d3d3d; stroke: #3d3d3d; stroke-linejoin: miter"/>
     <use xlink:href="#m8a5ecfddb8" x="221.4" y="94.117832" style="fill: #3d3d3d; stroke: #3d3d3d; stroke-linejoin: miter"/>
     <use xlink:href="#m8a5ecfddb8" x="221.4" y="86.730412" style="fill: #3d3d3d; stroke: #3d3d3d; stroke-linejoin: miter"/>
     <use xlink:href="#m8a5ecfddb8" x="221.4" y="85.635006" style="fill: #3d3d3d; stroke: #3d3d3d; stroke-linejoin: miter"/>
     <use xlink:href="#m8a5ecfddb8" x="221.4" y="84.767288" style="fill: #3d3d3d; stroke: #3d3d3d; stroke-linejoin: miter"/>
     <use xlink:href="#m8a5ecfddb8" x="221.4" y="78.789616" style="fill: #3d3d3d; stroke: #3d3d3d; stroke-linejoin: miter"/>
     <use xlink:href="#m8a5ecfddb8" x="221.4" y="90.255896" style="fill: #3d3d3d; stroke: #3d3d3d; stroke-linejoin: miter"/>
     <use xlink:href="#m8a5ecfddb8" x="221.4" y="86.821333" style="fill: #3d3d3d; stroke: #3d3d3d; stroke-linejoin: miter"/>
     <use xlink:href="#m8a5ecfddb8" x="221.4" y="81.51585" style="fill: #3d3d3d; stroke: #3d3d3d; stroke-linejoin: miter"/>
     <use xlink:href="#m8a5ecfddb8" x="221.4" y="80.477941" style="fill: #3d3d3d; stroke: #3d3d3d; stroke-linejoin: miter"/>
     <use xlink:href="#m8a5ecfddb8" x="221.4" y="92.767675" style="fill: #3d3d3d; stroke: #3d3d3d; stroke-linejoin: miter"/>
     <use xlink:href="#m8a5ecfddb8" x="221.4" y="92.470612" style="fill: #3d3d3d; stroke: #3d3d3d; stroke-linejoin: miter"/>
     <use xlink:href="#m8a5ecfddb8" x="221.4" y="87.503533" style="fill: #3d3d3d; stroke: #3d3d3d; stroke-linejoin: miter"/>
     <use xlink:href="#m8a5ecfddb8" x="221.4" y="95.115219" style="fill: #3d3d3d; stroke: #3d3d3d; stroke-linejoin: miter"/>
     <use xlink:href="#m8a5ecfddb8" x="221.4" y="89.048228" style="fill: #3d3d3d; stroke: #3d3d3d; stroke-linejoin: miter"/>
     <use xlink:href="#m8a5ecfddb8" x="221.4" y="92.965333" style="fill: #3d3d3d; stroke: #3d3d3d; stroke-linejoin: miter"/>
     <use xlink:href="#m8a5ecfddb8" x="221.4" y="90.280968" style="fill: #3d3d3d; stroke: #3d3d3d; stroke-linejoin: miter"/>
     <use xlink:href="#m8a5ecfddb8" x="221.4" y="89.067683" style="fill: #3d3d3d; stroke: #3d3d3d; stroke-linejoin: miter"/>
     <use xlink:href="#m8a5ecfddb8" x="221.4" y="81.200879" style="fill: #3d3d3d; stroke: #3d3d3d; stroke-linejoin: miter"/>
     <use xlink:href="#m8a5ecfddb8" x="221.4" y="89.536351" style="fill: #3d3d3d; stroke: #3d3d3d; stroke-linejoin: miter"/>
     <use xlink:href="#m8a5ecfddb8" x="221.4" y="92.14284" style="fill: #3d3d3d; stroke: #3d3d3d; stroke-linejoin: miter"/>
     <use xlink:href="#m8a5ecfddb8" x="221.4" y="88.291999" style="fill: #3d3d3d; stroke: #3d3d3d; stroke-linejoin: miter"/>
     <use xlink:href="#m8a5ecfddb8" x="221.4" y="89.050811" style="fill: #3d3d3d; stroke: #3d3d3d; stroke-linejoin: miter"/>
     <use xlink:href="#m8a5ecfddb8" x="221.4" y="83.683155" style="fill: #3d3d3d; stroke: #3d3d3d; stroke-linejoin: miter"/>
     <use xlink:href="#m8a5ecfddb8" x="221.4" y="87.930879" style="fill: #3d3d3d; stroke: #3d3d3d; stroke-linejoin: miter"/>
     <use xlink:href="#m8a5ecfddb8" x="221.4" y="93.07652" style="fill: #3d3d3d; stroke: #3d3d3d; stroke-linejoin: miter"/>
     <use xlink:href="#m8a5ecfddb8" x="221.4" y="84.799675" style="fill: #3d3d3d; stroke: #3d3d3d; stroke-linejoin: miter"/>
     <use xlink:href="#m8a5ecfddb8" x="221.4" y="84.559299" style="fill: #3d3d3d; stroke: #3d3d3d; stroke-linejoin: miter"/>
     <use xlink:href="#m8a5ecfddb8" x="221.4" y="82.535115" style="fill: #3d3d3d; stroke: #3d3d3d; stroke-linejoin: miter"/>
     <use xlink:href="#m8a5ecfddb8" x="221.4" y="75.177397" style="fill: #3d3d3d; stroke: #3d3d3d; stroke-linejoin: miter"/>
     <use xlink:href="#m8a5ecfddb8" x="221.4" y="93.08308" style="fill: #3d3d3d; stroke: #3d3d3d; stroke-linejoin: miter"/>
     <use xlink:href="#m8a5ecfddb8" x="221.4" y="89.400752" style="fill: #3d3d3d; stroke: #3d3d3d; stroke-linejoin: miter"/>
     <use xlink:href="#m8a5ecfddb8" x="221.4" y="88.88684" style="fill: #3d3d3d; stroke: #3d3d3d; stroke-linejoin: miter"/>
     <use xlink:href="#m8a5ecfddb8" x="221.4" y="87.684696" style="fill: #3d3d3d; stroke: #3d3d3d; stroke-linejoin: miter"/>
     <use xlink:href="#m8a5ecfddb8" x="221.4" y="94.693774" style="fill: #3d3d3d; stroke: #3d3d3d; stroke-linejoin: miter"/>
     <use xlink:href="#m8a5ecfddb8" x="221.4" y="88.688786" style="fill: #3d3d3d; stroke: #3d3d3d; stroke-linejoin: miter"/>
     <use xlink:href="#m8a5ecfddb8" x="221.4" y="87.27739" style="fill: #3d3d3d; stroke: #3d3d3d; stroke-linejoin: miter"/>
     <use xlink:href="#m8a5ecfddb8" x="221.4" y="91.551977" style="fill: #3d3d3d; stroke: #3d3d3d; stroke-linejoin: miter"/>
     <use xlink:href="#m8a5ecfddb8" x="221.4" y="89.109288" style="fill: #3d3d3d; stroke: #3d3d3d; stroke-linejoin: miter"/>
     <use xlink:href="#m8a5ecfddb8" x="221.4" y="88.697684" style="fill: #3d3d3d; stroke: #3d3d3d; stroke-linejoin: miter"/>
     <use xlink:href="#m8a5ecfddb8" x="221.4" y="91.663389" style="fill: #3d3d3d; stroke: #3d3d3d; stroke-linejoin: miter"/>
     <use xlink:href="#m8a5ecfddb8" x="221.4" y="80.232456" style="fill: #3d3d3d; stroke: #3d3d3d; stroke-linejoin: miter"/>
     <use xlink:href="#m8a5ecfddb8" x="221.4" y="94.503798" style="fill: #3d3d3d; stroke: #3d3d3d; stroke-linejoin: miter"/>
     <use xlink:href="#m8a5ecfddb8" x="221.4" y="94.717226" style="fill: #3d3d3d; stroke: #3d3d3d; stroke-linejoin: miter"/>
     <use xlink:href="#m8a5ecfddb8" x="221.4" y="93.282774" style="fill: #3d3d3d; stroke: #3d3d3d; stroke-linejoin: miter"/>
     <use xlink:href="#m8a5ecfddb8" x="221.4" y="83.754489" style="fill: #3d3d3d; stroke: #3d3d3d; stroke-linejoin: miter"/>
     <use xlink:href="#m8a5ecfddb8" x="221.4" y="78.414055" style="fill: #3d3d3d; stroke: #3d3d3d; stroke-linejoin: miter"/>
     <use xlink:href="#m8a5ecfddb8" x="221.4" y="94.621837" style="fill: #3d3d3d; stroke: #3d3d3d; stroke-linejoin: miter"/>
     <use xlink:href="#m8a5ecfddb8" x="221.4" y="91.401051" style="fill: #3d3d3d; stroke: #3d3d3d; stroke-linejoin: miter"/>
     <use xlink:href="#m8a5ecfddb8" x="221.4" y="93.702881" style="fill: #3d3d3d; stroke: #3d3d3d; stroke-linejoin: miter"/>
     <use xlink:href="#m8a5ecfddb8" x="221.4" y="87.81217" style="fill: #3d3d3d; stroke: #3d3d3d; stroke-linejoin: miter"/>
     <use xlink:href="#m8a5ecfddb8" x="221.4" y="84.020522" style="fill: #3d3d3d; stroke: #3d3d3d; stroke-linejoin: miter"/>
     <use xlink:href="#m8a5ecfddb8" x="221.4" y="90.757196" style="fill: #3d3d3d; stroke: #3d3d3d; stroke-linejoin: miter"/>
     <use xlink:href="#m8a5ecfddb8" x="221.4" y="79.313538" style="fill: #3d3d3d; stroke: #3d3d3d; stroke-linejoin: miter"/>
     <use xlink:href="#m8a5ecfddb8" x="221.4" y="87.515391" style="fill: #3d3d3d; stroke: #3d3d3d; stroke-linejoin: miter"/>
     <use xlink:href="#m8a5ecfddb8" x="221.4" y="86.717952" style="fill: #3d3d3d; stroke: #3d3d3d; stroke-linejoin: miter"/>
     <use xlink:href="#m8a5ecfddb8" x="221.4" y="92.841931" style="fill: #3d3d3d; stroke: #3d3d3d; stroke-linejoin: miter"/>
     <use xlink:href="#m8a5ecfddb8" x="221.4" y="91.919073" style="fill: #3d3d3d; stroke: #3d3d3d; stroke-linejoin: miter"/>
     <use xlink:href="#m8a5ecfddb8" x="221.4" y="90.491314" style="fill: #3d3d3d; stroke: #3d3d3d; stroke-linejoin: miter"/>
     <use xlink:href="#m8a5ecfddb8" x="221.4" y="89.946938" style="fill: #3d3d3d; stroke: #3d3d3d; stroke-linejoin: miter"/>
     <use xlink:href="#m8a5ecfddb8" x="221.4" y="94.375947" style="fill: #3d3d3d; stroke: #3d3d3d; stroke-linejoin: miter"/>
     <use xlink:href="#m8a5ecfddb8" x="221.4" y="94.328243" style="fill: #3d3d3d; stroke: #3d3d3d; stroke-linejoin: miter"/>
     <use xlink:href="#m8a5ecfddb8" x="221.4" y="86.532094" style="fill: #3d3d3d; stroke: #3d3d3d; stroke-linejoin: miter"/>
     <use xlink:href="#m8a5ecfddb8" x="221.4" y="81.475734" style="fill: #3d3d3d; stroke: #3d3d3d; stroke-linejoin: miter"/>
     <use xlink:href="#m8a5ecfddb8" x="221.4" y="93.662105" style="fill: #3d3d3d; stroke: #3d3d3d; stroke-linejoin: miter"/>
     <use xlink:href="#m8a5ecfddb8" x="221.4" y="92.297329" style="fill: #3d3d3d; stroke: #3d3d3d; stroke-linejoin: miter"/>
     <use xlink:href="#m8a5ecfddb8" x="221.4" y="91.654341" style="fill: #3d3d3d; stroke: #3d3d3d; stroke-linejoin: miter"/>
     <use xlink:href="#m8a5ecfddb8" x="221.4" y="91.37875" style="fill: #3d3d3d; stroke: #3d3d3d; stroke-linejoin: miter"/>
     <use xlink:href="#m8a5ecfddb8" x="221.4" y="83.910524" style="fill: #3d3d3d; stroke: #3d3d3d; stroke-linejoin: miter"/>
     <use xlink:href="#m8a5ecfddb8" x="221.4" y="76.824588" style="fill: #3d3d3d; stroke: #3d3d3d; stroke-linejoin: miter"/>
     <use xlink:href="#m8a5ecfddb8" x="221.4" y="94.233241" style="fill: #3d3d3d; stroke: #3d3d3d; stroke-linejoin: miter"/>
     <use xlink:href="#m8a5ecfddb8" x="221.4" y="87.475105" style="fill: #3d3d3d; stroke: #3d3d3d; stroke-linejoin: miter"/>
     <use xlink:href="#m8a5ecfddb8" x="221.4" y="92.92139" style="fill: #3d3d3d; stroke: #3d3d3d; stroke-linejoin: miter"/>
     <use xlink:href="#m8a5ecfddb8" x="221.4" y="94.526985" style="fill: #3d3d3d; stroke: #3d3d3d; stroke-linejoin: miter"/>
     <use xlink:href="#m8a5ecfddb8" x="221.4" y="76.680072" style="fill: #3d3d3d; stroke: #3d3d3d; stroke-linejoin: miter"/>
     <use xlink:href="#m8a5ecfddb8" x="221.4" y="91.07245" style="fill: #3d3d3d; stroke: #3d3d3d; stroke-linejoin: miter"/>
     <use xlink:href="#m8a5ecfddb8" x="221.4" y="84.416065" style="fill: #3d3d3d; stroke: #3d3d3d; stroke-linejoin: miter"/>
     <use xlink:href="#m8a5ecfddb8" x="221.4" y="79.0246" style="fill: #3d3d3d; stroke: #3d3d3d; stroke-linejoin: miter"/>
     <use xlink:href="#m8a5ecfddb8" x="221.4" y="91.08559" style="fill: #3d3d3d; stroke: #3d3d3d; stroke-linejoin: miter"/>
     <use xlink:href="#m8a5ecfddb8" x="221.4" y="86.837282" style="fill: #3d3d3d; stroke: #3d3d3d; stroke-linejoin: miter"/>
     <use xlink:href="#m8a5ecfddb8" x="221.4" y="94.811323" style="fill: #3d3d3d; stroke: #3d3d3d; stroke-linejoin: miter"/>
     <use xlink:href="#m8a5ecfddb8" x="221.4" y="94.580609" style="fill: #3d3d3d; stroke: #3d3d3d; stroke-linejoin: miter"/>
     <use xlink:href="#m8a5ecfddb8" x="221.4" y="95.021282" style="fill: #3d3d3d; stroke: #3d3d3d; stroke-linejoin: miter"/>
     <use xlink:href="#m8a5ecfddb8" x="221.4" y="90.502587" style="fill: #3d3d3d; stroke: #3d3d3d; stroke-linejoin: miter"/>
     <use xlink:href="#m8a5ecfddb8" x="221.4" y="91.94209" style="fill: #3d3d3d; stroke: #3d3d3d; stroke-linejoin: miter"/>
     <use xlink:href="#m8a5ecfddb8" x="221.4" y="85.618002" style="fill: #3d3d3d; stroke: #3d3d3d; stroke-linejoin: miter"/>
     <use xlink:href="#m8a5ecfddb8" x="221.4" y="85.819958" style="fill: #3d3d3d; stroke: #3d3d3d; stroke-linejoin: miter"/>
     <use xlink:href="#m8a5ecfddb8" x="221.4" y="94.63081" style="fill: #3d3d3d; stroke: #3d3d3d; stroke-linejoin: miter"/>
     <use xlink:href="#m8a5ecfddb8" x="221.4" y="85.703192" style="fill: #3d3d3d; stroke: #3d3d3d; stroke-linejoin: miter"/>
     <use xlink:href="#m8a5ecfddb8" x="221.4" y="94.250791" style="fill: #3d3d3d; stroke: #3d3d3d; stroke-linejoin: miter"/>
     <use xlink:href="#m8a5ecfddb8" x="221.4" y="92.217568" style="fill: #3d3d3d; stroke: #3d3d3d; stroke-linejoin: miter"/>
     <use xlink:href="#m8a5ecfddb8" x="221.4" y="78.401481" style="fill: #3d3d3d; stroke: #3d3d3d; stroke-linejoin: miter"/>
     <use xlink:href="#m8a5ecfddb8" x="221.4" y="92.753178" style="fill: #3d3d3d; stroke: #3d3d3d; stroke-linejoin: miter"/>
     <use xlink:href="#m8a5ecfddb8" x="221.4" y="92.475363" style="fill: #3d3d3d; stroke: #3d3d3d; stroke-linejoin: miter"/>
     <use xlink:href="#m8a5ecfddb8" x="221.4" y="92.871075" style="fill: #3d3d3d; stroke: #3d3d3d; stroke-linejoin: miter"/>
     <use xlink:href="#m8a5ecfddb8" x="221.4" y="88.213972" style="fill: #3d3d3d; stroke: #3d3d3d; stroke-linejoin: miter"/>
     <use xlink:href="#m8a5ecfddb8" x="221.4" y="82.7064" style="fill: #3d3d3d; stroke: #3d3d3d; stroke-linejoin: miter"/>
     <use xlink:href="#m8a5ecfddb8" x="221.4" y="88.767736" style="fill: #3d3d3d; stroke: #3d3d3d; stroke-linejoin: miter"/>
     <use xlink:href="#m8a5ecfddb8" x="221.4" y="89.044326" style="fill: #3d3d3d; stroke: #3d3d3d; stroke-linejoin: miter"/>
     <use xlink:href="#m8a5ecfddb8" x="221.4" y="89.948314" style="fill: #3d3d3d; stroke: #3d3d3d; stroke-linejoin: miter"/>
     <use xlink:href="#m8a5ecfddb8" x="221.4" y="88.434083" style="fill: #3d3d3d; stroke: #3d3d3d; stroke-linejoin: miter"/>
     <use xlink:href="#m8a5ecfddb8" x="221.4" y="84.973751" style="fill: #3d3d3d; stroke: #3d3d3d; stroke-linejoin: miter"/>
     <use xlink:href="#m8a5ecfddb8" x="221.4" y="80.11486" style="fill: #3d3d3d; stroke: #3d3d3d; stroke-linejoin: miter"/>
     <use xlink:href="#m8a5ecfddb8" x="221.4" y="90.475799" style="fill: #3d3d3d; stroke: #3d3d3d; stroke-linejoin: miter"/>
     <use xlink:href="#m8a5ecfddb8" x="221.4" y="79.293668" style="fill: #3d3d3d; stroke: #3d3d3d; stroke-linejoin: miter"/>
     <use xlink:href="#m8a5ecfddb8" x="221.4" y="93.692682" style="fill: #3d3d3d; stroke: #3d3d3d; stroke-linejoin: miter"/>
     <use xlink:href="#m8a5ecfddb8" x="221.4" y="95.152197" style="fill: #3d3d3d; stroke: #3d3d3d; stroke-linejoin: miter"/>
     <use xlink:href="#m8a5ecfddb8" x="221.4" y="75.087984" style="fill: #3d3d3d; stroke: #3d3d3d; stroke-linejoin: miter"/>
     <use xlink:href="#m8a5ecfddb8" x="221.4" y="83.329029" style="fill: #3d3d3d; stroke: #3d3d3d; stroke-linejoin: miter"/>
     <use xlink:href="#m8a5ecfddb8" x="221.4" y="83.077078" style="fill: #3d3d3d; stroke: #3d3d3d; stroke-linejoin: miter"/>
     <use xlink:href="#m8a5ecfddb8" x="221.4" y="83.892275" style="fill: #3d3d3d; stroke: #3d3d3d; stroke-linejoin: miter"/>
     <use xlink:href="#m8a5ecfddb8" x="221.4" y="92.650475" style="fill: #3d3d3d; stroke: #3d3d3d; stroke-linejoin: miter"/>
     <use xlink:href="#m8a5ecfddb8" x="221.4" y="95.124457" style="fill: #3d3d3d; stroke: #3d3d3d; stroke-linejoin: miter"/>
     <use xlink:href="#m8a5ecfddb8" x="221.4" y="82.344432" style="fill: #3d3d3d; stroke: #3d3d3d; stroke-linejoin: miter"/>
     <use xlink:href="#m8a5ecfddb8" x="221.4" y="92.272275" style="fill: #3d3d3d; stroke: #3d3d3d; stroke-linejoin: miter"/>
     <use xlink:href="#m8a5ecfddb8" x="221.4" y="82.366394" style="fill: #3d3d3d; stroke: #3d3d3d; stroke-linejoin: miter"/>
     <use xlink:href="#m8a5ecfddb8" x="221.4" y="89.571094" style="fill: #3d3d3d; stroke: #3d3d3d; stroke-linejoin: miter"/>
     <use xlink:href="#m8a5ecfddb8" x="221.4" y="91.792277" style="fill: #3d3d3d; stroke: #3d3d3d; stroke-linejoin: miter"/>
     <use xlink:href="#m8a5ecfddb8" x="221.4" y="91.198435" style="fill: #3d3d3d; stroke: #3d3d3d; stroke-linejoin: miter"/>
     <use xlink:href="#m8a5ecfddb8" x="221.4" y="94.388332" style="fill: #3d3d3d; stroke: #3d3d3d; stroke-linejoin: miter"/>
     <use xlink:href="#m8a5ecfddb8" x="221.4" y="87.756728" style="fill: #3d3d3d; stroke: #3d3d3d; stroke-linejoin: miter"/>
     <use xlink:href="#m8a5ecfddb8" x="221.4" y="89.40209" style="fill: #3d3d3d; stroke: #3d3d3d; stroke-linejoin: miter"/>
     <use xlink:href="#m8a5ecfddb8" x="221.4" y="85.424698" style="fill: #3d3d3d; stroke: #3d3d3d; stroke-linejoin: miter"/>
    </g>
   </g>
   <g id="patch_5">
    <path d="M 327.42 159.868149 
L 338.58 159.868149 
L 338.58 124.637698 
L 327.42 124.637698 
L 327.42 159.868149 
z
" clip-path="url(#p4a1fd40ca6)" style="fill: #3a923a; stroke: #3d3d3d; stroke-width: 1.5; stroke-linejoin: miter"/>
   </g>
   <g id="line2d_20">
    <path d="M 333 159.868149 
L 333 189.543975 
" clip-path="url(#p4a1fd40ca6)" style="fill: none; stroke: #3d3d3d; stroke-width: 1.5; stroke-linecap: square"/>
   </g>
   <g id="line2d_21">
    <path d="M 333 124.637698 
L 333 71.79347 
" clip-path="url(#p4a1fd40ca6)" style="fill: none; stroke: #3d3d3d; stroke-width: 1.5; stroke-linecap: square"/>
   </g>
   <g id="line2d_22">
    <path d="M 330.21 189.543975 
L 335.79 189.543975 
" clip-path="url(#p4a1fd40ca6)" style="fill: none; stroke: #3d3d3d; stroke-width: 1.5; stroke-linecap: square"/>
   </g>
   <g id="line2d_23">
    <path d="M 330.21 71.79347 
L 335.79 71.79347 
" clip-path="url(#p4a1fd40ca6)" style="fill: none; stroke: #3d3d3d; stroke-width: 1.5; stroke-linecap: square"/>
   </g>
   <g id="line2d_24">
    <g clip-path="url(#p4a1fd40ca6)">
     <use xlink:href="#m8a5ecfddb8" x="333" y="70.00821" style="fill: #3d3d3d; stroke: #3d3d3d; stroke-linejoin: miter"/>
     <use xlink:href="#m8a5ecfddb8" x="333" y="71.455858" style="fill: #3d3d3d; stroke: #3d3d3d; stroke-linejoin: miter"/>
     <use xlink:href="#m8a5ecfddb8" x="333" y="69.503856" style="fill: #3d3d3d; stroke: #3d3d3d; stroke-linejoin: miter"/>
    </g>
   </g>
   <g id="line2d_25">
    <path d="M 104.22 153.672119 
L 115.38 153.672119 
" clip-path="url(#p4a1fd40ca6)" style="fill: none; stroke: #3d3d3d; stroke-width: 1.5; stroke-linecap: square"/>
   </g>
   <g id="line2d_26">
    <path d="M 215.82 152.096814 
L 226.98 152.096814 
" clip-path="url(#p4a1fd40ca6)" style="fill: none; stroke: #3d3d3d; stroke-width: 1.5; stroke-linecap: square"/>
   </g>
   <g id="line2d_27">
    <path d="M 327.42 147.492301 
L 338.58 147.492301 
" clip-path="url(#p4a1fd40ca6)" style="fill: none; stroke: #3d3d3d; stroke-width: 1.5; stroke-linecap: square"/>
   </g>
   <g id="patch_6">
    <path d="M 54 252 
L 54 34.56 
" style="fill: none; stroke: #000000; stroke-width: 0.8; stroke-linejoin: miter; stroke-linecap: square"/>
   </g>
   <g id="patch_7">
    <path d="M 388.8 252 
L 388.8 34.56 
" style="fill: none; stroke: #000000; stroke-width: 0.8; stroke-linejoin: miter; stroke-linecap: square"/>
   </g>
   <g id="patch_8">
    <path d="M 54 252 
L 388.8 252 
" style="fill: none; stroke: #000000; stroke-width: 0.8; stroke-linejoin: miter; stroke-linecap: square"/>
   </g>
   <g id="patch_9">
    <path d="M 54 34.56 
L 388.8 34.56 
" style="fill: none; stroke: #000000; stroke-width: 0.8; stroke-linejoin: miter; stroke-linecap: square"/>
   </g>
  </g>
 </g>
 <defs>
  <clipPath id="p4a1fd40ca6">
   <rect x="54" y="34.56" width="334.8" height="217.44"/>
  </clipPath>
 </defs>
</svg>
