<?xml version="1.0" encoding="utf-8" standalone="no"?>
<!DOCTYPE svg PUBLIC "-//W3C//DTD SVG 1.1//EN"
  "http://www.w3.org/Graphics/SVG/1.1/DTD/svg11.dtd">
<svg xmlns:xlink="http://www.w3.org/1999/xlink" width="432pt" height="288pt" viewBox="0 0 432 288" xmlns="http://www.w3.org/2000/svg" version="1.1">
 <metadata>
  <rdf:RDF xmlns:dc="http://purl.org/dc/elements/1.1/" xmlns:cc="http://creativecommons.org/ns#" xmlns:rdf="http://www.w3.org/1999/02/22-rdf-syntax-ns#">
   <cc:Work>
    <dc:type rdf:resource="http://purl.org/dc/dcmitype/StillImage"/>
    <dc:date>2023-06-06T11:10:01.810118</dc:date>
    <dc:format>image/svg+xml</dc:format>
    <dc:creator>
     <cc:Agent>
      <dc:title>Matplotlib v3.5.3, https://matplotlib.org/</dc:title>
     </cc:Agent>
    </dc:creator>
   </cc:Work>
  </rdf:RDF>
 </metadata>
 <defs>
  <style type="text/css">*{stroke-linejoin: round; stroke-linecap: butt}</style>
 </defs>
 <g id="figure_1">
  <g id="patch_1">
   <path d="M 0 288 
L 432 288 
L 432 0 
L 0 0 
L 0 288 
z
" style="fill: none"/>
  </g>
  <g id="axes_1">
   <g id="patch_2">
    <path d="M 54 252 
L 388.8 252 
L 388.8 34.56 
L 54 34.56 
z
" style="fill: #ffffff"/>
   </g>
   <g id="PolyCollection_1">
    <defs>
     <path id="me2c8a99892" d="M 137.70742 -99.773248 
L 137.69258 -99.773248 
L 137.669055 -100.891467 
L 137.645699 -102.009685 
L 137.659904 -103.127904 
L 137.687434 -104.246123 
L 137.696468 -105.364342 
L 137.686131 -106.482561 
L 137.65804 -107.60078 
L 137.646194 -108.718999 
L 137.669738 -109.837217 
L 137.679309 -110.955436 
L 137.629241 -112.073655 
L 137.527825 -113.191874 
L 137.457775 -114.310093 
L 137.477803 -115.428312 
L 137.556231 -116.546531 
L 137.607737 -117.664749 
L 137.609439 -118.782968 
L 137.569742 -119.901187 
L 137.537317 -121.019406 
L 137.562467 -122.137625 
L 137.506101 -123.255844 
L 137.290882 -124.374063 
L 137.075355 -125.492282 
L 136.841395 -126.6105 
L 136.439524 -127.728719 
L 135.928021 -128.846938 
L 135.160795 -129.965157 
L 133.941928 -131.083376 
L 132.250088 -132.201595 
L 130.4731 -133.319814 
L 128.853448 -134.438032 
L 126.056602 -135.556251 
L 121.229344 -136.67447 
L 115.824537 -137.792689 
L 111.027405 -138.910908 
L 106.1588 -140.029127 
L 99.940897 -141.147346 
L 92.914942 -142.265564 
L 86.927639 -143.383783 
L 82.060294 -144.502002 
L 77.478451 -145.620221 
L 74.116427 -146.73844 
L 71.82074 -147.856659 
L 70.74 -148.974878 
L 72.486615 -150.093096 
L 75.71696 -151.211315 
L 80.098744 -152.329534 
L 86.267932 -153.447753 
L 92.744966 -154.565972 
L 98.963446 -155.684191 
L 105.907792 -156.80241 
L 113.471213 -157.920629 
L 120.409381 -159.038847 
L 125.463584 -160.157066 
L 128.681161 -161.275285 
L 131.212405 -162.393504 
L 133.524552 -163.511723 
L 134.93396 -164.629942 
L 135.606804 -165.748161 
L 136.129619 -166.866379 
L 136.472843 -167.984598 
L 136.757633 -169.102817 
L 137.087303 -170.221036 
L 137.27381 -171.339255 
L 137.341371 -172.457474 
L 137.441545 -173.575693 
L 137.509442 -174.693911 
L 137.500803 -175.81213 
L 137.516829 -176.930349 
L 137.575786 -178.048568 
L 137.637507 -179.166787 
L 137.680792 -180.285006 
L 137.697119 -181.403225 
L 137.69981 -182.521443 
L 137.699995 -183.639662 
L 137.7 -184.757881 
L 137.7 -185.8761 
L 137.7 -186.994319 
L 137.7 -188.112538 
L 137.7 -189.230757 
L 137.7 -190.348976 
L 137.7 -191.467194 
L 137.7 -192.585413 
L 137.699998 -193.703632 
L 137.699905 -194.821851 
L 137.698302 -195.94007 
L 137.687202 -197.058289 
L 137.659408 -198.176508 
L 137.645825 -199.294726 
L 137.669577 -200.412945 
L 137.692811 -201.531164 
L 137.699283 -202.649383 
L 137.699881 -203.767602 
L 137.698371 -204.885821 
L 137.687544 -206.00404 
L 137.659907 -207.122258 
L 137.645699 -208.240477 
L 137.669055 -209.358696 
L 137.69258 -210.476915 
L 137.70742 -210.476915 
L 137.70742 -210.476915 
L 137.730945 -209.358696 
L 137.754301 -208.240477 
L 137.740093 -207.122258 
L 137.712456 -206.00404 
L 137.701629 -204.885821 
L 137.700119 -203.767602 
L 137.700717 -202.649383 
L 137.707189 -201.531164 
L 137.730423 -200.412945 
L 137.754175 -199.294726 
L 137.740592 -198.176508 
L 137.712798 -197.058289 
L 137.701698 -195.94007 
L 137.700095 -194.821851 
L 137.700002 -193.703632 
L 137.7 -192.585413 
L 137.7 -191.467194 
L 137.7 -190.348976 
L 137.7 -189.230757 
L 137.7 -188.112538 
L 137.7 -186.994319 
L 137.7 -185.8761 
L 137.7 -184.757881 
L 137.700005 -183.639662 
L 137.70019 -182.521443 
L 137.702881 -181.403225 
L 137.719208 -180.285006 
L 137.762493 -179.166787 
L 137.824214 -178.048568 
L 137.883171 -176.930349 
L 137.899197 -175.81213 
L 137.890558 -174.693911 
L 137.958455 -173.575693 
L 138.058629 -172.457474 
L 138.12619 -171.339255 
L 138.312697 -170.221036 
L 138.642367 -169.102817 
L 138.927157 -167.984598 
L 139.270381 -166.866379 
L 139.793196 -165.748161 
L 140.46604 -164.629942 
L 141.875448 -163.511723 
L 144.187595 -162.393504 
L 146.718839 -161.275285 
L 149.936416 -160.157066 
L 154.990619 -159.038847 
L 161.928787 -157.920629 
L 169.492208 -156.80241 
L 176.436554 -155.684191 
L 182.655034 -154.565972 
L 189.132068 -153.447753 
L 195.301256 -152.329534 
L 199.68304 -151.211315 
L 202.913385 -150.093096 
L 204.66 -148.974878 
L 203.57926 -147.856659 
L 201.283573 -146.73844 
L 197.921549 -145.620221 
L 193.339706 -144.502002 
L 188.472361 -143.383783 
L 182.485058 -142.265564 
L 175.459103 -141.147346 
L 169.2412 -140.029127 
L 164.372595 -138.910908 
L 159.575463 -137.792689 
L 154.170656 -136.67447 
L 149.343398 -135.556251 
L 146.546552 -134.438032 
L 144.9269 -133.319814 
L 143.149912 -132.201595 
L 141.458072 -131.083376 
L 140.239205 -129.965157 
L 139.471979 -128.846938 
L 138.960476 -127.728719 
L 138.558605 -126.6105 
L 138.324645 -125.492282 
L 138.109118 -124.374063 
L 137.893899 -123.255844 
L 137.837533 -122.137625 
L 137.862683 -121.019406 
L 137.830258 -119.901187 
L 137.790561 -118.782968 
L 137.792263 -117.664749 
L 137.843769 -116.546531 
L 137.922197 -115.428312 
L 137.942225 -114.310093 
L 137.872175 -113.191874 
L 137.770759 -112.073655 
L 137.720691 -110.955436 
L 137.730262 -109.837217 
L 137.753806 -108.718999 
L 137.74196 -107.60078 
L 137.713869 -106.482561 
L 137.703532 -105.364342 
L 137.712566 -104.246123 
L 137.740096 -103.127904 
L 137.754301 -102.009685 
L 137.730945 -100.891467 
L 137.70742 -99.773248 
z
"/>
    </defs>
    <g clip-path="url(#p4f1d0e9d39)">
     <use xlink:href="#me2c8a99892" x="0" y="288" style="fill: #536e80"/>
    </g>
   </g>
   <g id="PolyCollection_2">
    <defs>
     <path id="m34d03a2fbf" d="M 305.107329 -97.925745 
L 305.092671 -97.925745 
L 305.068841 -99.11803 
L 305.045838 -100.310315 
L 305.058062 -101.5026 
L 305.066779 -102.694885 
L 305.048379 -103.88717 
L 305.053819 -105.079455 
L 305.082394 -106.27174 
L 305.091253 -107.464025 
L 305.062315 -108.65631 
L 304.997809 -109.848595 
L 304.964439 -111.04088 
L 305.001461 -112.233165 
L 305.058778 -113.42545 
L 305.08174 -114.617735 
L 305.062649 -115.81002 
L 305.045143 -117.002305 
L 305.057415 -118.19459 
L 305.033094 -119.386875 
L 304.922359 -120.57916 
L 304.777254 -121.771445 
L 304.718038 -122.96373 
L 304.794137 -124.156015 
L 304.828993 -125.3483 
L 304.743829 -126.540585 
L 304.639166 -127.73287 
L 304.479267 -128.925156 
L 304.232302 -130.117441 
L 304.075644 -131.309726 
L 303.831536 -132.502011 
L 303.202125 -133.694296 
L 302.459178 -134.886581 
L 301.269989 -136.078866 
L 299.413234 -137.271151 
L 297.186789 -138.463436 
L 294.31467 -139.655721 
L 290.349379 -140.848006 
L 285.136306 -142.040291 
L 279.506451 -143.232576 
L 273.697411 -144.424861 
L 267.407549 -145.617146 
L 260.578254 -146.809431 
L 254.115106 -148.001716 
L 249.685232 -149.194001 
L 247.41557 -150.386286 
L 245.126294 -151.578571 
L 241.084299 -152.770856 
L 238.14 -153.963141 
L 238.807944 -155.155426 
L 241.785799 -156.347711 
L 246.373556 -157.539996 
L 253.224522 -158.732281 
L 262.06186 -159.924566 
L 270.795168 -161.116851 
L 278.499256 -162.309136 
L 285.067419 -163.501421 
L 290.261734 -164.693706 
L 294.19831 -165.885991 
L 296.780033 -167.078276 
L 298.696898 -168.270561 
L 300.649797 -169.462846 
L 302.277934 -170.655131 
L 303.300261 -171.847416 
L 303.863768 -173.039701 
L 304.147075 -174.231986 
L 304.318088 -175.424272 
L 304.513017 -176.616557 
L 304.758465 -177.808842 
L 304.938514 -179.001127 
L 305.011138 -180.193412 
L 305.049772 -181.385697 
L 305.074822 -182.577982 
L 305.054324 -183.770267 
L 305.009828 -184.962552 
L 305.001749 -186.154837 
L 305.021361 -187.347122 
L 305.036122 -188.539407 
L 305.065368 -189.731692 
L 305.091439 -190.923977 
L 305.099122 -192.116262 
L 305.09996 -193.308547 
L 305.099854 -194.500832 
L 305.09758 -195.693117 
L 305.083582 -196.885402 
L 305.054676 -198.077687 
L 305.049095 -199.269972 
L 305.076724 -200.462257 
L 305.095201 -201.654542 
L 305.094064 -202.846827 
L 305.073032 -204.039112 
L 305.047295 -205.231397 
L 305.058078 -206.423682 
L 305.086433 -207.615967 
L 305.098154 -208.808252 
L 305.098642 -210.000537 
L 305.089153 -211.192822 
L 305.062107 -212.385107 
L 305.046135 -213.577392 
L 305.06885 -214.769677 
L 305.092671 -215.961962 
L 305.107329 -215.961962 
L 305.107329 -215.961962 
L 305.13115 -214.769677 
L 305.153865 -213.577392 
L 305.137893 -212.385107 
L 305.110847 -211.192822 
L 305.101358 -210.000537 
L 305.101846 -208.808252 
L 305.113567 -207.615967 
L 305.141922 -206.423682 
L 305.152705 -205.231397 
L 305.126968 -204.039112 
L 305.105936 -202.846827 
L 305.104799 -201.654542 
L 305.123276 -200.462257 
L 305.150905 -199.269972 
L 305.145324 -198.077687 
L 305.116418 -196.885402 
L 305.10242 -195.693117 
L 305.100146 -194.500832 
L 305.10004 -193.308547 
L 305.100878 -192.116262 
L 305.108561 -190.923977 
L 305.134632 -189.731692 
L 305.163878 -188.539407 
L 305.178639 -187.347122 
L 305.198251 -186.154837 
L 305.190172 -184.962552 
L 305.145676 -183.770267 
L 305.125178 -182.577982 
L 305.150228 -181.385697 
L 305.188862 -180.193412 
L 305.261486 -179.001127 
L 305.441535 -177.808842 
L 305.686983 -176.616557 
L 305.881912 -175.424272 
L 306.052925 -174.231986 
L 306.336232 -173.039701 
L 306.899739 -171.847416 
L 307.922066 -170.655131 
L 309.550203 -169.462846 
L 311.503102 -168.270561 
L 313.419967 -167.078276 
L 316.00169 -165.885991 
L 319.938266 -164.693706 
L 325.132581 -163.501421 
L 331.700744 -162.309136 
L 339.404832 -161.116851 
L 348.13814 -159.924566 
L 356.975478 -158.732281 
L 363.826444 -157.539996 
L 368.414201 -156.347711 
L 371.392056 -155.155426 
L 372.06 -153.963141 
L 369.115701 -152.770856 
L 365.073706 -151.578571 
L 362.78443 -150.386286 
L 360.514768 -149.194001 
L 356.084894 -148.001716 
L 349.621746 -146.809431 
L 342.792451 -145.617146 
L 336.502589 -144.424861 
L 330.693549 -143.232576 
L 325.063694 -142.040291 
L 319.850621 -140.848006 
L 315.88533 -139.655721 
L 313.013211 -138.463436 
L 310.786766 -137.271151 
L 308.930011 -136.078866 
L 307.740822 -134.886581 
L 306.997875 -133.694296 
L 306.368464 -132.502011 
L 306.124356 -131.309726 
L 305.967698 -130.117441 
L 305.720733 -128.925156 
L 305.560834 -127.73287 
L 305.456171 -126.540585 
L 305.371007 -125.3483 
L 305.405863 -124.156015 
L 305.481962 -122.96373 
L 305.422746 -121.771445 
L 305.277641 -120.57916 
L 305.166906 -119.386875 
L 305.142585 -118.19459 
L 305.154857 -117.002305 
L 305.137351 -115.81002 
L 305.11826 -114.617735 
L 305.141222 -113.42545 
L 305.198539 -112.233165 
L 305.235561 -111.04088 
L 305.202191 -109.848595 
L 305.137685 -108.65631 
L 305.108747 -107.464025 
L 305.117606 -106.27174 
L 305.146181 -105.079455 
L 305.151621 -103.88717 
L 305.133221 -102.694885 
L 305.141938 -101.5026 
L 305.154162 -100.310315 
L 305.131159 -99.11803 
L 305.107329 -97.925745 
z
"/>
    </defs>
    <g clip-path="url(#p4f1d0e9d39)">
     <use xlink:href="#m34d03a2fbf" x="0" y="288" style="fill: #ab8462"/>
    </g>
   </g>
   <g id="matplotlib.axis_1">
    <g id="xtick_1">
     <g id="line2d_1">
      <defs>
       <path id="m9c88b35873" d="M 0 0 
L 0 3.5 
" style="stroke: #000000; stroke-width: 0.8"/>
      </defs>
      <g>
       <use xlink:href="#m9c88b35873" x="137.7" y="252" style="stroke: #000000; stroke-width: 0.8"/>
      </g>
     </g>
     <g id="text_1">
      <!-- juvenile1 -->
      <g transform="translate(114.901562 266.598437)scale(0.1 -0.1)">
       <defs>
        <path id="DejaVuSans-6a" d="M 603 3500 
L 1178 3500 
L 1178 -63 
Q 1178 -731 923 -1031 
Q 669 -1331 103 -1331 
L -116 -1331 
L -116 -844 
L 38 -844 
Q 366 -844 484 -692 
Q 603 -541 603 -63 
L 603 3500 
z
M 603 4863 
L 1178 4863 
L 1178 4134 
L 603 4134 
L 603 4863 
z
" transform="scale(0.015625)"/>
        <path id="DejaVuSans-75" d="M 544 1381 
L 544 3500 
L 1119 3500 
L 1119 1403 
Q 1119 906 1312 657 
Q 1506 409 1894 409 
Q 2359 409 2629 706 
Q 2900 1003 2900 1516 
L 2900 3500 
L 3475 3500 
L 3475 0 
L 2900 0 
L 2900 538 
Q 2691 219 2414 64 
Q 2138 -91 1772 -91 
Q 1169 -91 856 284 
Q 544 659 544 1381 
z
M 1991 3584 
L 1991 3584 
z
" transform="scale(0.015625)"/>
        <path id="DejaVuSans-76" d="M 191 3500 
L 800 3500 
L 1894 563 
L 2988 3500 
L 3597 3500 
L 2284 0 
L 1503 0 
L 191 3500 
z
" transform="scale(0.015625)"/>
        <path id="DejaVuSans-65" d="M 3597 1894 
L 3597 1613 
L 953 1613 
Q 991 1019 1311 708 
Q 1631 397 2203 397 
Q 2534 397 2845 478 
Q 3156 559 3463 722 
L 3463 178 
Q 3153 47 2828 -22 
Q 2503 -91 2169 -91 
Q 1331 -91 842 396 
Q 353 884 353 1716 
Q 353 2575 817 3079 
Q 1281 3584 2069 3584 
Q 2775 3584 3186 3129 
Q 3597 2675 3597 1894 
z
M 3022 2063 
Q 3016 2534 2758 2815 
Q 2500 3097 2075 3097 
Q 1594 3097 1305 2825 
Q 1016 2553 972 2059 
L 3022 2063 
z
" transform="scale(0.015625)"/>
        <path id="DejaVuSans-6e" d="M 3513 2113 
L 3513 0 
L 2938 0 
L 2938 2094 
Q 2938 2591 2744 2837 
Q 2550 3084 2163 3084 
Q 1697 3084 1428 2787 
Q 1159 2491 1159 1978 
L 1159 0 
L 581 0 
L 581 3500 
L 1159 3500 
L 1159 2956 
Q 1366 3272 1645 3428 
Q 1925 3584 2291 3584 
Q 2894 3584 3203 3211 
Q 3513 2838 3513 2113 
z
" transform="scale(0.015625)"/>
        <path id="DejaVuSans-69" d="M 603 3500 
L 1178 3500 
L 1178 0 
L 603 0 
L 603 3500 
z
M 603 4863 
L 1178 4863 
L 1178 4134 
L 603 4134 
L 603 4863 
z
" transform="scale(0.015625)"/>
        <path id="DejaVuSans-6c" d="M 603 4863 
L 1178 4863 
L 1178 0 
L 603 0 
L 603 4863 
z
" transform="scale(0.015625)"/>
        <path id="DejaVuSans-31" d="M 794 531 
L 1825 531 
L 1825 4091 
L 703 3866 
L 703 4441 
L 1819 4666 
L 2450 4666 
L 2450 531 
L 3481 531 
L 3481 0 
L 794 0 
L 794 531 
z
" transform="scale(0.015625)"/>
       </defs>
       <use xlink:href="#DejaVuSans-6a"/>
       <use xlink:href="#DejaVuSans-75" x="27.783203"/>
       <use xlink:href="#DejaVuSans-76" x="91.162109"/>
       <use xlink:href="#DejaVuSans-65" x="150.341797"/>
       <use xlink:href="#DejaVuSans-6e" x="211.865234"/>
       <use xlink:href="#DejaVuSans-69" x="275.244141"/>
       <use xlink:href="#DejaVuSans-6c" x="303.027344"/>
       <use xlink:href="#DejaVuSans-65" x="330.810547"/>
       <use xlink:href="#DejaVuSans-31" x="392.333984"/>
      </g>
     </g>
    </g>
    <g id="xtick_2">
     <g id="line2d_2">
      <g>
       <use xlink:href="#m9c88b35873" x="305.1" y="252" style="stroke: #000000; stroke-width: 0.8"/>
      </g>
     </g>
     <g id="text_2">
      <!-- juvenile2 -->
      <g transform="translate(282.301563 266.598437)scale(0.1 -0.1)">
       <defs>
        <path id="DejaVuSans-32" d="M 1228 531 
L 3431 531 
L 3431 0 
L 469 0 
L 469 531 
Q 828 903 1448 1529 
Q 2069 2156 2228 2338 
Q 2531 2678 2651 2914 
Q 2772 3150 2772 3378 
Q 2772 3750 2511 3984 
Q 2250 4219 1831 4219 
Q 1534 4219 1204 4116 
Q 875 4013 500 3803 
L 500 4441 
Q 881 4594 1212 4672 
Q 1544 4750 1819 4750 
Q 2544 4750 2975 4387 
Q 3406 4025 3406 3419 
Q 3406 3131 3298 2873 
Q 3191 2616 2906 2266 
Q 2828 2175 2409 1742 
Q 1991 1309 1228 531 
z
" transform="scale(0.015625)"/>
       </defs>
       <use xlink:href="#DejaVuSans-6a"/>
       <use xlink:href="#DejaVuSans-75" x="27.783203"/>
       <use xlink:href="#DejaVuSans-76" x="91.162109"/>
       <use xlink:href="#DejaVuSans-65" x="150.341797"/>
       <use xlink:href="#DejaVuSans-6e" x="211.865234"/>
       <use xlink:href="#DejaVuSans-69" x="275.244141"/>
       <use xlink:href="#DejaVuSans-6c" x="303.027344"/>
       <use xlink:href="#DejaVuSans-65" x="330.810547"/>
       <use xlink:href="#DejaVuSans-32" x="392.333984"/>
      </g>
     </g>
    </g>
    <g id="text_3">
     <!-- Sample -->
     <g transform="translate(202.651563 280.276563)scale(0.1 -0.1)">
      <defs>
       <path id="DejaVuSans-53" d="M 3425 4513 
L 3425 3897 
Q 3066 4069 2747 4153 
Q 2428 4238 2131 4238 
Q 1616 4238 1336 4038 
Q 1056 3838 1056 3469 
Q 1056 3159 1242 3001 
Q 1428 2844 1947 2747 
L 2328 2669 
Q 3034 2534 3370 2195 
Q 3706 1856 3706 1288 
Q 3706 609 3251 259 
Q 2797 -91 1919 -91 
Q 1588 -91 1214 -16 
Q 841 59 441 206 
L 441 856 
Q 825 641 1194 531 
Q 1563 422 1919 422 
Q 2459 422 2753 634 
Q 3047 847 3047 1241 
Q 3047 1584 2836 1778 
Q 2625 1972 2144 2069 
L 1759 2144 
Q 1053 2284 737 2584 
Q 422 2884 422 3419 
Q 422 4038 858 4394 
Q 1294 4750 2059 4750 
Q 2388 4750 2728 4690 
Q 3069 4631 3425 4513 
z
" transform="scale(0.015625)"/>
       <path id="DejaVuSans-61" d="M 2194 1759 
Q 1497 1759 1228 1600 
Q 959 1441 959 1056 
Q 959 750 1161 570 
Q 1363 391 1709 391 
Q 2188 391 2477 730 
Q 2766 1069 2766 1631 
L 2766 1759 
L 2194 1759 
z
M 3341 1997 
L 3341 0 
L 2766 0 
L 2766 531 
Q 2569 213 2275 61 
Q 1981 -91 1556 -91 
Q 1019 -91 701 211 
Q 384 513 384 1019 
Q 384 1609 779 1909 
Q 1175 2209 1959 2209 
L 2766 2209 
L 2766 2266 
Q 2766 2663 2505 2880 
Q 2244 3097 1772 3097 
Q 1472 3097 1187 3025 
Q 903 2953 641 2809 
L 641 3341 
Q 956 3463 1253 3523 
Q 1550 3584 1831 3584 
Q 2591 3584 2966 3190 
Q 3341 2797 3341 1997 
z
" transform="scale(0.015625)"/>
       <path id="DejaVuSans-6d" d="M 3328 2828 
Q 3544 3216 3844 3400 
Q 4144 3584 4550 3584 
Q 5097 3584 5394 3201 
Q 5691 2819 5691 2113 
L 5691 0 
L 5113 0 
L 5113 2094 
Q 5113 2597 4934 2840 
Q 4756 3084 4391 3084 
Q 3944 3084 3684 2787 
Q 3425 2491 3425 1978 
L 3425 0 
L 2847 0 
L 2847 2094 
Q 2847 2600 2669 2842 
Q 2491 3084 2119 3084 
Q 1678 3084 1418 2786 
Q 1159 2488 1159 1978 
L 1159 0 
L 581 0 
L 581 3500 
L 1159 3500 
L 1159 2956 
Q 1356 3278 1631 3431 
Q 1906 3584 2284 3584 
Q 2666 3584 2933 3390 
Q 3200 3197 3328 2828 
z
" transform="scale(0.015625)"/>
       <path id="DejaVuSans-70" d="M 1159 525 
L 1159 -1331 
L 581 -1331 
L 581 3500 
L 1159 3500 
L 1159 2969 
Q 1341 3281 1617 3432 
Q 1894 3584 2278 3584 
Q 2916 3584 3314 3078 
Q 3713 2572 3713 1747 
Q 3713 922 3314 415 
Q 2916 -91 2278 -91 
Q 1894 -91 1617 61 
Q 1341 213 1159 525 
z
M 3116 1747 
Q 3116 2381 2855 2742 
Q 2594 3103 2138 3103 
Q 1681 3103 1420 2742 
Q 1159 2381 1159 1747 
Q 1159 1113 1420 752 
Q 1681 391 2138 391 
Q 2594 391 2855 752 
Q 3116 1113 3116 1747 
z
" transform="scale(0.015625)"/>
      </defs>
      <use xlink:href="#DejaVuSans-53"/>
      <use xlink:href="#DejaVuSans-61" x="63.476562"/>
      <use xlink:href="#DejaVuSans-6d" x="124.755859"/>
      <use xlink:href="#DejaVuSans-70" x="222.167969"/>
      <use xlink:href="#DejaVuSans-6c" x="285.644531"/>
      <use xlink:href="#DejaVuSans-65" x="313.427734"/>
     </g>
    </g>
   </g>
   <g id="matplotlib.axis_2">
    <g id="ytick_1">
     <g id="line2d_3">
      <defs>
       <path id="m7ca53cf498" d="M 0 0 
L -3.5 0 
" style="stroke: #000000; stroke-width: 0.8"/>
      </defs>
      <g>
       <use xlink:href="#m7ca53cf498" x="54" y="252" style="stroke: #000000; stroke-width: 0.8"/>
      </g>
     </g>
     <g id="text_4">
      <!-- 0 -->
      <g transform="translate(40.6375 255.799219)scale(0.1 -0.1)">
       <defs>
        <path id="DejaVuSans-30" d="M 2034 4250 
Q 1547 4250 1301 3770 
Q 1056 3291 1056 2328 
Q 1056 1369 1301 889 
Q 1547 409 2034 409 
Q 2525 409 2770 889 
Q 3016 1369 3016 2328 
Q 3016 3291 2770 3770 
Q 2525 4250 2034 4250 
z
M 2034 4750 
Q 2819 4750 3233 4129 
Q 3647 3509 3647 2328 
Q 3647 1150 3233 529 
Q 2819 -91 2034 -91 
Q 1250 -91 836 529 
Q 422 1150 422 2328 
Q 422 3509 836 4129 
Q 1250 4750 2034 4750 
z
" transform="scale(0.015625)"/>
       </defs>
       <use xlink:href="#DejaVuSans-30"/>
      </g>
     </g>
    </g>
    <g id="ytick_2">
     <g id="line2d_4">
      <g>
       <use xlink:href="#m7ca53cf498" x="54" y="215.76" style="stroke: #000000; stroke-width: 0.8"/>
      </g>
     </g>
     <g id="text_5">
      <!-- 1 -->
      <g transform="translate(40.6375 219.559219)scale(0.1 -0.1)">
       <use xlink:href="#DejaVuSans-31"/>
      </g>
     </g>
    </g>
    <g id="ytick_3">
     <g id="line2d_5">
      <g>
       <use xlink:href="#m7ca53cf498" x="54" y="179.52" style="stroke: #000000; stroke-width: 0.8"/>
      </g>
     </g>
     <g id="text_6">
      <!-- 2 -->
      <g transform="translate(40.6375 183.319219)scale(0.1 -0.1)">
       <use xlink:href="#DejaVuSans-32"/>
      </g>
     </g>
    </g>
    <g id="ytick_4">
     <g id="line2d_6">
      <g>
       <use xlink:href="#m7ca53cf498" x="54" y="143.28" style="stroke: #000000; stroke-width: 0.8"/>
      </g>
     </g>
     <g id="text_7">
      <!-- 3 -->
      <g transform="translate(40.6375 147.079219)scale(0.1 -0.1)">
       <defs>
        <path id="DejaVuSans-33" d="M 2597 2516 
Q 3050 2419 3304 2112 
Q 3559 1806 3559 1356 
Q 3559 666 3084 287 
Q 2609 -91 1734 -91 
Q 1441 -91 1130 -33 
Q 819 25 488 141 
L 488 750 
Q 750 597 1062 519 
Q 1375 441 1716 441 
Q 2309 441 2620 675 
Q 2931 909 2931 1356 
Q 2931 1769 2642 2001 
Q 2353 2234 1838 2234 
L 1294 2234 
L 1294 2753 
L 1863 2753 
Q 2328 2753 2575 2939 
Q 2822 3125 2822 3475 
Q 2822 3834 2567 4026 
Q 2313 4219 1838 4219 
Q 1578 4219 1281 4162 
Q 984 4106 628 3988 
L 628 4550 
Q 988 4650 1302 4700 
Q 1616 4750 1894 4750 
Q 2613 4750 3031 4423 
Q 3450 4097 3450 3541 
Q 3450 3153 3228 2886 
Q 3006 2619 2597 2516 
z
" transform="scale(0.015625)"/>
       </defs>
       <use xlink:href="#DejaVuSans-33"/>
      </g>
     </g>
    </g>
    <g id="ytick_5">
     <g id="line2d_7">
      <g>
       <use xlink:href="#m7ca53cf498" x="54" y="107.04" style="stroke: #000000; stroke-width: 0.8"/>
      </g>
     </g>
     <g id="text_8">
      <!-- 4 -->
      <g transform="translate(40.6375 110.839219)scale(0.1 -0.1)">
       <defs>
        <path id="DejaVuSans-34" d="M 2419 4116 
L 825 1625 
L 2419 1625 
L 2419 4116 
z
M 2253 4666 
L 3047 4666 
L 3047 1625 
L 3713 1625 
L 3713 1100 
L 3047 1100 
L 3047 0 
L 2419 0 
L 2419 1100 
L 313 1100 
L 313 1709 
L 2253 4666 
z
" transform="scale(0.015625)"/>
       </defs>
       <use xlink:href="#DejaVuSans-34"/>
      </g>
     </g>
    </g>
    <g id="ytick_6">
     <g id="line2d_8">
      <g>
       <use xlink:href="#m7ca53cf498" x="54" y="70.8" style="stroke: #000000; stroke-width: 0.8"/>
      </g>
     </g>
     <g id="text_9">
      <!-- 5 -->
      <g transform="translate(40.6375 74.599219)scale(0.1 -0.1)">
       <defs>
        <path id="DejaVuSans-35" d="M 691 4666 
L 3169 4666 
L 3169 4134 
L 1269 4134 
L 1269 2991 
Q 1406 3038 1543 3061 
Q 1681 3084 1819 3084 
Q 2600 3084 3056 2656 
Q 3513 2228 3513 1497 
Q 3513 744 3044 326 
Q 2575 -91 1722 -91 
Q 1428 -91 1123 -41 
Q 819 9 494 109 
L 494 744 
Q 775 591 1075 516 
Q 1375 441 1709 441 
Q 2250 441 2565 725 
Q 2881 1009 2881 1497 
Q 2881 1984 2565 2268 
Q 2250 2553 1709 2553 
Q 1456 2553 1204 2497 
Q 953 2441 691 2322 
L 691 4666 
z
" transform="scale(0.015625)"/>
       </defs>
       <use xlink:href="#DejaVuSans-35"/>
      </g>
     </g>
    </g>
    <g id="ytick_7">
     <g id="line2d_9">
      <g>
       <use xlink:href="#m7ca53cf498" x="54" y="34.56" style="stroke: #000000; stroke-width: 0.8"/>
      </g>
     </g>
     <g id="text_10">
      <!-- 6 -->
      <g transform="translate(40.6375 38.359219)scale(0.1 -0.1)">
       <defs>
        <path id="DejaVuSans-36" d="M 2113 2584 
Q 1688 2584 1439 2293 
Q 1191 2003 1191 1497 
Q 1191 994 1439 701 
Q 1688 409 2113 409 
Q 2538 409 2786 701 
Q 3034 994 3034 1497 
Q 3034 2003 2786 2293 
Q 2538 2584 2113 2584 
z
M 3366 4563 
L 3366 3988 
Q 3128 4100 2886 4159 
Q 2644 4219 2406 4219 
Q 1781 4219 1451 3797 
Q 1122 3375 1075 2522 
Q 1259 2794 1537 2939 
Q 1816 3084 2150 3084 
Q 2853 3084 3261 2657 
Q 3669 2231 3669 1497 
Q 3669 778 3244 343 
Q 2819 -91 2113 -91 
Q 1303 -91 875 529 
Q 447 1150 447 2328 
Q 447 3434 972 4092 
Q 1497 4750 2381 4750 
Q 2619 4750 2861 4703 
Q 3103 4656 3366 4563 
z
" transform="scale(0.015625)"/>
       </defs>
       <use xlink:href="#DejaVuSans-36"/>
      </g>
     </g>
    </g>
    <g id="text_11">
     <!-- log_n_counts -->
     <g transform="translate(34.279688 175.782344)rotate(-90)scale(0.1 -0.1)">
      <defs>
       <path id="DejaVuSans-6f" d="M 1959 3097 
Q 1497 3097 1228 2736 
Q 959 2375 959 1747 
Q 959 1119 1226 758 
Q 1494 397 1959 397 
Q 2419 397 2687 759 
Q 2956 1122 2956 1747 
Q 2956 2369 2687 2733 
Q 2419 3097 1959 3097 
z
M 1959 3584 
Q 2709 3584 3137 3096 
Q 3566 2609 3566 1747 
Q 3566 888 3137 398 
Q 2709 -91 1959 -91 
Q 1206 -91 779 398 
Q 353 888 353 1747 
Q 353 2609 779 3096 
Q 1206 3584 1959 3584 
z
" transform="scale(0.015625)"/>
       <path id="DejaVuSans-67" d="M 2906 1791 
Q 2906 2416 2648 2759 
Q 2391 3103 1925 3103 
Q 1463 3103 1205 2759 
Q 947 2416 947 1791 
Q 947 1169 1205 825 
Q 1463 481 1925 481 
Q 2391 481 2648 825 
Q 2906 1169 2906 1791 
z
M 3481 434 
Q 3481 -459 3084 -895 
Q 2688 -1331 1869 -1331 
Q 1566 -1331 1297 -1286 
Q 1028 -1241 775 -1147 
L 775 -588 
Q 1028 -725 1275 -790 
Q 1522 -856 1778 -856 
Q 2344 -856 2625 -561 
Q 2906 -266 2906 331 
L 2906 616 
Q 2728 306 2450 153 
Q 2172 0 1784 0 
Q 1141 0 747 490 
Q 353 981 353 1791 
Q 353 2603 747 3093 
Q 1141 3584 1784 3584 
Q 2172 3584 2450 3431 
Q 2728 3278 2906 2969 
L 2906 3500 
L 3481 3500 
L 3481 434 
z
" transform="scale(0.015625)"/>
       <path id="DejaVuSans-5f" d="M 3263 -1063 
L 3263 -1509 
L -63 -1509 
L -63 -1063 
L 3263 -1063 
z
" transform="scale(0.015625)"/>
       <path id="DejaVuSans-63" d="M 3122 3366 
L 3122 2828 
Q 2878 2963 2633 3030 
Q 2388 3097 2138 3097 
Q 1578 3097 1268 2742 
Q 959 2388 959 1747 
Q 959 1106 1268 751 
Q 1578 397 2138 397 
Q 2388 397 2633 464 
Q 2878 531 3122 666 
L 3122 134 
Q 2881 22 2623 -34 
Q 2366 -91 2075 -91 
Q 1284 -91 818 406 
Q 353 903 353 1747 
Q 353 2603 823 3093 
Q 1294 3584 2113 3584 
Q 2378 3584 2631 3529 
Q 2884 3475 3122 3366 
z
" transform="scale(0.015625)"/>
       <path id="DejaVuSans-74" d="M 1172 4494 
L 1172 3500 
L 2356 3500 
L 2356 3053 
L 1172 3053 
L 1172 1153 
Q 1172 725 1289 603 
Q 1406 481 1766 481 
L 2356 481 
L 2356 0 
L 1766 0 
Q 1100 0 847 248 
Q 594 497 594 1153 
L 594 3053 
L 172 3053 
L 172 3500 
L 594 3500 
L 594 4494 
L 1172 4494 
z
" transform="scale(0.015625)"/>
       <path id="DejaVuSans-73" d="M 2834 3397 
L 2834 2853 
Q 2591 2978 2328 3040 
Q 2066 3103 1784 3103 
Q 1356 3103 1142 2972 
Q 928 2841 928 2578 
Q 928 2378 1081 2264 
Q 1234 2150 1697 2047 
L 1894 2003 
Q 2506 1872 2764 1633 
Q 3022 1394 3022 966 
Q 3022 478 2636 193 
Q 2250 -91 1575 -91 
Q 1294 -91 989 -36 
Q 684 19 347 128 
L 347 722 
Q 666 556 975 473 
Q 1284 391 1588 391 
Q 1994 391 2212 530 
Q 2431 669 2431 922 
Q 2431 1156 2273 1281 
Q 2116 1406 1581 1522 
L 1381 1569 
Q 847 1681 609 1914 
Q 372 2147 372 2553 
Q 372 3047 722 3315 
Q 1072 3584 1716 3584 
Q 2034 3584 2315 3537 
Q 2597 3491 2834 3397 
z
" transform="scale(0.015625)"/>
      </defs>
      <use xlink:href="#DejaVuSans-6c"/>
      <use xlink:href="#DejaVuSans-6f" x="27.783203"/>
      <use xlink:href="#DejaVuSans-67" x="88.964844"/>
      <use xlink:href="#DejaVuSans-5f" x="152.441406"/>
      <use xlink:href="#DejaVuSans-6e" x="202.441406"/>
      <use xlink:href="#DejaVuSans-5f" x="265.820312"/>
      <use xlink:href="#DejaVuSans-63" x="315.820312"/>
      <use xlink:href="#DejaVuSans-6f" x="370.800781"/>
      <use xlink:href="#DejaVuSans-75" x="431.982422"/>
      <use xlink:href="#DejaVuSans-6e" x="495.361328"/>
      <use xlink:href="#DejaVuSans-74" x="558.740234"/>
      <use xlink:href="#DejaVuSans-73" x="597.949219"/>
     </g>
    </g>
   </g>
   <g id="patch_3">
    <path d="M 129.33 144.422177 
L 146.07 144.422177 
L 146.07 135.303285 
L 129.33 135.303285 
L 129.33 144.422177 
z
" clip-path="url(#p4f1d0e9d39)" style="fill: #3274a1; stroke: #3f3f3f; stroke-width: 1.5; stroke-linejoin: miter"/>
   </g>
   <g id="line2d_10">
    <path d="M 137.7 144.422177 
L 137.7 158.099816 
" clip-path="url(#p4f1d0e9d39)" style="fill: none; stroke: #3f3f3f; stroke-width: 1.5; stroke-linecap: square"/>
   </g>
   <g id="line2d_11">
    <path d="M 137.7 135.303285 
L 137.7 121.647368 
" clip-path="url(#p4f1d0e9d39)" style="fill: none; stroke: #3f3f3f; stroke-width: 1.5; stroke-linecap: square"/>
   </g>
   <g id="line2d_12">
    <path d="M 133.515 158.099816 
L 141.885 158.099816 
" clip-path="url(#p4f1d0e9d39)" style="fill: none; stroke: #3f3f3f; stroke-width: 1.5; stroke-linecap: square"/>
   </g>
   <g id="line2d_13">
    <path d="M 133.515 121.647368 
L 141.885 121.647368 
" clip-path="url(#p4f1d0e9d39)" style="fill: none; stroke: #3f3f3f; stroke-width: 1.5; stroke-linecap: square"/>
   </g>
   <g id="line2d_14">
    <defs>
     <path id="m3a39638ab1" d="M -0 1.414214 
L 0.848528 0 
L 0 -1.414214 
L -0.848528 -0 
z
" style="stroke: #3f3f3f; stroke-linejoin: miter"/>
    </defs>
    <g clip-path="url(#p4f1d0e9d39)">
     <use xlink:href="#m3a39638ab1" x="137.7" y="167.545803" style="fill: #3f3f3f; stroke: #3f3f3f; stroke-linejoin: miter"/>
     <use xlink:href="#m3a39638ab1" x="137.7" y="158.343835" style="fill: #3f3f3f; stroke: #3f3f3f; stroke-linejoin: miter"/>
     <use xlink:href="#m3a39638ab1" x="137.7" y="162.440386" style="fill: #3f3f3f; stroke: #3f3f3f; stroke-linejoin: miter"/>
     <use xlink:href="#m3a39638ab1" x="137.7" y="159.668642" style="fill: #3f3f3f; stroke: #3f3f3f; stroke-linejoin: miter"/>
     <use xlink:href="#m3a39638ab1" x="137.7" y="174.565243" style="fill: #3f3f3f; stroke: #3f3f3f; stroke-linejoin: miter"/>
     <use xlink:href="#m3a39638ab1" x="137.7" y="161.164258" style="fill: #3f3f3f; stroke: #3f3f3f; stroke-linejoin: miter"/>
     <use xlink:href="#m3a39638ab1" x="137.7" y="158.633388" style="fill: #3f3f3f; stroke: #3f3f3f; stroke-linejoin: miter"/>
     <use xlink:href="#m3a39638ab1" x="137.7" y="159.713295" style="fill: #3f3f3f; stroke: #3f3f3f; stroke-linejoin: miter"/>
     <use xlink:href="#m3a39638ab1" x="137.7" y="159.099445" style="fill: #3f3f3f; stroke: #3f3f3f; stroke-linejoin: miter"/>
     <use xlink:href="#m3a39638ab1" x="137.7" y="163.036419" style="fill: #3f3f3f; stroke: #3f3f3f; stroke-linejoin: miter"/>
     <use xlink:href="#m3a39638ab1" x="137.7" y="159.713295" style="fill: #3f3f3f; stroke: #3f3f3f; stroke-linejoin: miter"/>
     <use xlink:href="#m3a39638ab1" x="137.7" y="159.713295" style="fill: #3f3f3f; stroke: #3f3f3f; stroke-linejoin: miter"/>
     <use xlink:href="#m3a39638ab1" x="137.7" y="166.548437" style="fill: #3f3f3f; stroke: #3f3f3f; stroke-linejoin: miter"/>
     <use xlink:href="#m3a39638ab1" x="137.7" y="159.668642" style="fill: #3f3f3f; stroke: #3f3f3f; stroke-linejoin: miter"/>
     <use xlink:href="#m3a39638ab1" x="137.7" y="179.52" style="fill: #3f3f3f; stroke: #3f3f3f; stroke-linejoin: miter"/>
     <use xlink:href="#m3a39638ab1" x="137.7" y="163.887375" style="fill: #3f3f3f; stroke: #3f3f3f; stroke-linejoin: miter"/>
     <use xlink:href="#m3a39638ab1" x="137.7" y="159.142508" style="fill: #3f3f3f; stroke: #3f3f3f; stroke-linejoin: miter"/>
     <use xlink:href="#m3a39638ab1" x="137.7" y="185.823048" style="fill: #3f3f3f; stroke: #3f3f3f; stroke-linejoin: miter"/>
     <use xlink:href="#m3a39638ab1" x="137.7" y="174.565243" style="fill: #3f3f3f; stroke: #3f3f3f; stroke-linejoin: miter"/>
     <use xlink:href="#m3a39638ab1" x="137.7" y="161.115302" style="fill: #3f3f3f; stroke: #3f3f3f; stroke-linejoin: miter"/>
     <use xlink:href="#m3a39638ab1" x="137.7" y="161.164258" style="fill: #3f3f3f; stroke: #3f3f3f; stroke-linejoin: miter"/>
     <use xlink:href="#m3a39638ab1" x="137.7" y="163.427815" style="fill: #3f3f3f; stroke: #3f3f3f; stroke-linejoin: miter"/>
     <use xlink:href="#m3a39638ab1" x="137.7" y="163.036419" style="fill: #3f3f3f; stroke: #3f3f3f; stroke-linejoin: miter"/>
     <use xlink:href="#m3a39638ab1" x="137.7" y="160.68143" style="fill: #3f3f3f; stroke: #3f3f3f; stroke-linejoin: miter"/>
     <use xlink:href="#m3a39638ab1" x="137.7" y="166.968165" style="fill: #3f3f3f; stroke: #3f3f3f; stroke-linejoin: miter"/>
     <use xlink:href="#m3a39638ab1" x="137.7" y="169.752853" style="fill: #3f3f3f; stroke: #3f3f3f; stroke-linejoin: miter"/>
     <use xlink:href="#m3a39638ab1" x="137.7" y="159.579724" style="fill: #3f3f3f; stroke: #3f3f3f; stroke-linejoin: miter"/>
     <use xlink:href="#m3a39638ab1" x="137.7" y="162.926359" style="fill: #3f3f3f; stroke: #3f3f3f; stroke-linejoin: miter"/>
     <use xlink:href="#m3a39638ab1" x="137.7" y="159.983883" style="fill: #3f3f3f; stroke: #3f3f3f; stroke-linejoin: miter"/>
     <use xlink:href="#m3a39638ab1" x="137.7" y="158.84352" style="fill: #3f3f3f; stroke: #3f3f3f; stroke-linejoin: miter"/>
     <use xlink:href="#m3a39638ab1" x="137.7" y="160.259205" style="fill: #3f3f3f; stroke: #3f3f3f; stroke-linejoin: miter"/>
     <use xlink:href="#m3a39638ab1" x="137.7" y="171.927173" style="fill: #3f3f3f; stroke: #3f3f3f; stroke-linejoin: miter"/>
     <use xlink:href="#m3a39638ab1" x="137.7" y="173.243728" style="fill: #3f3f3f; stroke: #3f3f3f; stroke-linejoin: miter"/>
     <use xlink:href="#m3a39638ab1" x="137.7" y="172.521167" style="fill: #3f3f3f; stroke: #3f3f3f; stroke-linejoin: miter"/>
     <use xlink:href="#m3a39638ab1" x="137.7" y="173.456418" style="fill: #3f3f3f; stroke: #3f3f3f; stroke-linejoin: miter"/>
     <use xlink:href="#m3a39638ab1" x="137.7" y="159.142508" style="fill: #3f3f3f; stroke: #3f3f3f; stroke-linejoin: miter"/>
     <use xlink:href="#m3a39638ab1" x="137.7" y="160.68143" style="fill: #3f3f3f; stroke: #3f3f3f; stroke-linejoin: miter"/>
     <use xlink:href="#m3a39638ab1" x="137.7" y="160.30556" style="fill: #3f3f3f; stroke: #3f3f3f; stroke-linejoin: miter"/>
     <use xlink:href="#m3a39638ab1" x="137.7" y="159.315936" style="fill: #3f3f3f; stroke: #3f3f3f; stroke-linejoin: miter"/>
     <use xlink:href="#m3a39638ab1" x="137.7" y="159.848005" style="fill: #3f3f3f; stroke: #3f3f3f; stroke-linejoin: miter"/>
     <use xlink:href="#m3a39638ab1" x="137.7" y="160.30556" style="fill: #3f3f3f; stroke: #3f3f3f; stroke-linejoin: miter"/>
     <use xlink:href="#m3a39638ab1" x="137.7" y="158.75913" style="fill: #3f3f3f; stroke: #3f3f3f; stroke-linejoin: miter"/>
     <use xlink:href="#m3a39638ab1" x="137.7" y="159.056503" style="fill: #3f3f3f; stroke: #3f3f3f; stroke-linejoin: miter"/>
     <use xlink:href="#m3a39638ab1" x="137.7" y="162.387309" style="fill: #3f3f3f; stroke: #3f3f3f; stroke-linejoin: miter"/>
     <use xlink:href="#m3a39638ab1" x="137.7" y="161.968972" style="fill: #3f3f3f; stroke: #3f3f3f; stroke-linejoin: miter"/>
     <use xlink:href="#m3a39638ab1" x="137.7" y="162.493653" style="fill: #3f3f3f; stroke: #3f3f3f; stroke-linejoin: miter"/>
     <use xlink:href="#m3a39638ab1" x="137.7" y="158.343835" style="fill: #3f3f3f; stroke: #3f3f3f; stroke-linejoin: miter"/>
     <use xlink:href="#m3a39638ab1" x="137.7" y="117.715" style="fill: #3f3f3f; stroke: #3f3f3f; stroke-linejoin: miter"/>
     <use xlink:href="#m3a39638ab1" x="137.7" y="115.635092" style="fill: #3f3f3f; stroke: #3f3f3f; stroke-linejoin: miter"/>
     <use xlink:href="#m3a39638ab1" x="137.7" y="118.65095" style="fill: #3f3f3f; stroke: #3f3f3f; stroke-linejoin: miter"/>
     <use xlink:href="#m3a39638ab1" x="137.7" y="119.989919" style="fill: #3f3f3f; stroke: #3f3f3f; stroke-linejoin: miter"/>
     <use xlink:href="#m3a39638ab1" x="137.7" y="119.8721" style="fill: #3f3f3f; stroke: #3f3f3f; stroke-linejoin: miter"/>
     <use xlink:href="#m3a39638ab1" x="137.7" y="119.537781" style="fill: #3f3f3f; stroke: #3f3f3f; stroke-linejoin: miter"/>
     <use xlink:href="#m3a39638ab1" x="137.7" y="118.598374" style="fill: #3f3f3f; stroke: #3f3f3f; stroke-linejoin: miter"/>
     <use xlink:href="#m3a39638ab1" x="137.7" y="121.599665" style="fill: #3f3f3f; stroke: #3f3f3f; stroke-linejoin: miter"/>
     <use xlink:href="#m3a39638ab1" x="137.7" y="119.925549" style="fill: #3f3f3f; stroke: #3f3f3f; stroke-linejoin: miter"/>
     <use xlink:href="#m3a39638ab1" x="137.7" y="121.410279" style="fill: #3f3f3f; stroke: #3f3f3f; stroke-linejoin: miter"/>
     <use xlink:href="#m3a39638ab1" x="137.7" y="117.310867" style="fill: #3f3f3f; stroke: #3f3f3f; stroke-linejoin: miter"/>
     <use xlink:href="#m3a39638ab1" x="137.7" y="121.504691" style="fill: #3f3f3f; stroke: #3f3f3f; stroke-linejoin: miter"/>
     <use xlink:href="#m3a39638ab1" x="137.7" y="114.79129" style="fill: #3f3f3f; stroke: #3f3f3f; stroke-linejoin: miter"/>
     <use xlink:href="#m3a39638ab1" x="137.7" y="119.149149" style="fill: #3f3f3f; stroke: #3f3f3f; stroke-linejoin: miter"/>
     <use xlink:href="#m3a39638ab1" x="137.7" y="121.595699" style="fill: #3f3f3f; stroke: #3f3f3f; stroke-linejoin: miter"/>
     <use xlink:href="#m3a39638ab1" x="137.7" y="116.064808" style="fill: #3f3f3f; stroke: #3f3f3f; stroke-linejoin: miter"/>
     <use xlink:href="#m3a39638ab1" x="137.7" y="79.926789" style="fill: #3f3f3f; stroke: #3f3f3f; stroke-linejoin: miter"/>
     <use xlink:href="#m3a39638ab1" x="137.7" y="118.363946" style="fill: #3f3f3f; stroke: #3f3f3f; stroke-linejoin: miter"/>
     <use xlink:href="#m3a39638ab1" x="137.7" y="119.128784" style="fill: #3f3f3f; stroke: #3f3f3f; stroke-linejoin: miter"/>
     <use xlink:href="#m3a39638ab1" x="137.7" y="119.889899" style="fill: #3f3f3f; stroke: #3f3f3f; stroke-linejoin: miter"/>
     <use xlink:href="#m3a39638ab1" x="137.7" y="112.761945" style="fill: #3f3f3f; stroke: #3f3f3f; stroke-linejoin: miter"/>
     <use xlink:href="#m3a39638ab1" x="137.7" y="111.303499" style="fill: #3f3f3f; stroke: #3f3f3f; stroke-linejoin: miter"/>
     <use xlink:href="#m3a39638ab1" x="137.7" y="116.267172" style="fill: #3f3f3f; stroke: #3f3f3f; stroke-linejoin: miter"/>
     <use xlink:href="#m3a39638ab1" x="137.7" y="119.094888" style="fill: #3f3f3f; stroke: #3f3f3f; stroke-linejoin: miter"/>
     <use xlink:href="#m3a39638ab1" x="137.7" y="109.525811" style="fill: #3f3f3f; stroke: #3f3f3f; stroke-linejoin: miter"/>
     <use xlink:href="#m3a39638ab1" x="137.7" y="117.557625" style="fill: #3f3f3f; stroke: #3f3f3f; stroke-linejoin: miter"/>
     <use xlink:href="#m3a39638ab1" x="137.7" y="119.128784" style="fill: #3f3f3f; stroke: #3f3f3f; stroke-linejoin: miter"/>
     <use xlink:href="#m3a39638ab1" x="137.7" y="115.341659" style="fill: #3f3f3f; stroke: #3f3f3f; stroke-linejoin: miter"/>
     <use xlink:href="#m3a39638ab1" x="137.7" y="111.153573" style="fill: #3f3f3f; stroke: #3f3f3f; stroke-linejoin: miter"/>
     <use xlink:href="#m3a39638ab1" x="137.7" y="120.396479" style="fill: #3f3f3f; stroke: #3f3f3f; stroke-linejoin: miter"/>
     <use xlink:href="#m3a39638ab1" x="137.7" y="121.579827" style="fill: #3f3f3f; stroke: #3f3f3f; stroke-linejoin: miter"/>
     <use xlink:href="#m3a39638ab1" x="137.7" y="114.993473" style="fill: #3f3f3f; stroke: #3f3f3f; stroke-linejoin: miter"/>
     <use xlink:href="#m3a39638ab1" x="137.7" y="120.155631" style="fill: #3f3f3f; stroke: #3f3f3f; stroke-linejoin: miter"/>
     <use xlink:href="#m3a39638ab1" x="137.7" y="121.00377" style="fill: #3f3f3f; stroke: #3f3f3f; stroke-linejoin: miter"/>
     <use xlink:href="#m3a39638ab1" x="137.7" y="119.794043" style="fill: #3f3f3f; stroke: #3f3f3f; stroke-linejoin: miter"/>
     <use xlink:href="#m3a39638ab1" x="137.7" y="120.319442" style="fill: #3f3f3f; stroke: #3f3f3f; stroke-linejoin: miter"/>
     <use xlink:href="#m3a39638ab1" x="137.7" y="88.891539" style="fill: #3f3f3f; stroke: #3f3f3f; stroke-linejoin: miter"/>
     <use xlink:href="#m3a39638ab1" x="137.7" y="119.316495" style="fill: #3f3f3f; stroke: #3f3f3f; stroke-linejoin: miter"/>
     <use xlink:href="#m3a39638ab1" x="137.7" y="120.213676" style="fill: #3f3f3f; stroke: #3f3f3f; stroke-linejoin: miter"/>
     <use xlink:href="#m3a39638ab1" x="137.7" y="121.351559" style="fill: #3f3f3f; stroke: #3f3f3f; stroke-linejoin: miter"/>
     <use xlink:href="#m3a39638ab1" x="137.7" y="112.410458" style="fill: #3f3f3f; stroke: #3f3f3f; stroke-linejoin: miter"/>
    </g>
   </g>
   <g id="patch_4">
    <path d="M 296.73 139.767982 
L 313.47 139.767982 
L 313.47 130.267076 
L 296.73 130.267076 
L 296.73 139.767982 
z
" clip-path="url(#p4f1d0e9d39)" style="fill: #e1812c; stroke: #3f3f3f; stroke-width: 1.5; stroke-linejoin: miter"/>
   </g>
   <g id="line2d_15">
    <path d="M 305.1 139.767982 
L 305.1 153.970509 
" clip-path="url(#p4f1d0e9d39)" style="fill: none; stroke: #3f3f3f; stroke-width: 1.5; stroke-linecap: square"/>
   </g>
   <g id="line2d_16">
    <path d="M 305.1 130.267076 
L 305.1 116.017407 
" clip-path="url(#p4f1d0e9d39)" style="fill: none; stroke: #3f3f3f; stroke-width: 1.5; stroke-linecap: square"/>
   </g>
   <g id="line2d_17">
    <path d="M 300.915 153.970509 
L 309.285 153.970509 
" clip-path="url(#p4f1d0e9d39)" style="fill: none; stroke: #3f3f3f; stroke-width: 1.5; stroke-linecap: square"/>
   </g>
   <g id="line2d_18">
    <path d="M 300.915 116.017407 
L 309.285 116.017407 
" clip-path="url(#p4f1d0e9d39)" style="fill: none; stroke: #3f3f3f; stroke-width: 1.5; stroke-linecap: square"/>
   </g>
   <g id="line2d_19">
    <g clip-path="url(#p4f1d0e9d39)">
     <use xlink:href="#m3a39638ab1" x="305.1" y="157.008573" style="fill: #3f3f3f; stroke: #3f3f3f; stroke-linejoin: miter"/>
     <use xlink:href="#m3a39638ab1" x="305.1" y="157.084055" style="fill: #3f3f3f; stroke: #3f3f3f; stroke-linejoin: miter"/>
     <use xlink:href="#m3a39638ab1" x="305.1" y="154.252407" style="fill: #3f3f3f; stroke: #3f3f3f; stroke-linejoin: miter"/>
     <use xlink:href="#m3a39638ab1" x="305.1" y="157.008573" style="fill: #3f3f3f; stroke: #3f3f3f; stroke-linejoin: miter"/>
     <use xlink:href="#m3a39638ab1" x="305.1" y="159.272398" style="fill: #3f3f3f; stroke: #3f3f3f; stroke-linejoin: miter"/>
     <use xlink:href="#m3a39638ab1" x="305.1" y="165.610534" style="fill: #3f3f3f; stroke: #3f3f3f; stroke-linejoin: miter"/>
     <use xlink:href="#m3a39638ab1" x="305.1" y="162.387309" style="fill: #3f3f3f; stroke: #3f3f3f; stroke-linejoin: miter"/>
     <use xlink:href="#m3a39638ab1" x="305.1" y="154.126501" style="fill: #3f3f3f; stroke: #3f3f3f; stroke-linejoin: miter"/>
     <use xlink:href="#m3a39638ab1" x="305.1" y="154.864641" style="fill: #3f3f3f; stroke: #3f3f3f; stroke-linejoin: miter"/>
     <use xlink:href="#m3a39638ab1" x="305.1" y="183.633577" style="fill: #3f3f3f; stroke: #3f3f3f; stroke-linejoin: miter"/>
     <use xlink:href="#m3a39638ab1" x="305.1" y="157.899318" style="fill: #3f3f3f; stroke: #3f3f3f; stroke-linejoin: miter"/>
     <use xlink:href="#m3a39638ab1" x="305.1" y="157.236124" style="fill: #3f3f3f; stroke: #3f3f3f; stroke-linejoin: miter"/>
     <use xlink:href="#m3a39638ab1" x="305.1" y="164.241074" style="fill: #3f3f3f; stroke: #3f3f3f; stroke-linejoin: miter"/>
     <use xlink:href="#m3a39638ab1" x="305.1" y="159.668642" style="fill: #3f3f3f; stroke: #3f3f3f; stroke-linejoin: miter"/>
     <use xlink:href="#m3a39638ab1" x="305.1" y="161.115302" style="fill: #3f3f3f; stroke: #3f3f3f; stroke-linejoin: miter"/>
     <use xlink:href="#m3a39638ab1" x="305.1" y="154.189324" style="fill: #3f3f3f; stroke: #3f3f3f; stroke-linejoin: miter"/>
     <use xlink:href="#m3a39638ab1" x="305.1" y="157.467018" style="fill: #3f3f3f; stroke: #3f3f3f; stroke-linejoin: miter"/>
     <use xlink:href="#m3a39638ab1" x="305.1" y="161.763903" style="fill: #3f3f3f; stroke: #3f3f3f; stroke-linejoin: miter"/>
     <use xlink:href="#m3a39638ab1" x="305.1" y="154.220835" style="fill: #3f3f3f; stroke: #3f3f3f; stroke-linejoin: miter"/>
     <use xlink:href="#m3a39638ab1" x="305.1" y="187.559798" style="fill: #3f3f3f; stroke: #3f3f3f; stroke-linejoin: miter"/>
     <use xlink:href="#m3a39638ab1" x="305.1" y="156.237082" style="fill: #3f3f3f; stroke: #3f3f3f; stroke-linejoin: miter"/>
     <use xlink:href="#m3a39638ab1" x="305.1" y="175.882576" style="fill: #3f3f3f; stroke: #3f3f3f; stroke-linejoin: miter"/>
     <use xlink:href="#m3a39638ab1" x="305.1" y="158.633388" style="fill: #3f3f3f; stroke: #3f3f3f; stroke-linejoin: miter"/>
     <use xlink:href="#m3a39638ab1" x="305.1" y="156.563106" style="fill: #3f3f3f; stroke: #3f3f3f; stroke-linejoin: miter"/>
     <use xlink:href="#m3a39638ab1" x="305.1" y="156.41737" style="fill: #3f3f3f; stroke: #3f3f3f; stroke-linejoin: miter"/>
     <use xlink:href="#m3a39638ab1" x="305.1" y="154.411224" style="fill: #3f3f3f; stroke: #3f3f3f; stroke-linejoin: miter"/>
     <use xlink:href="#m3a39638ab1" x="305.1" y="177.184046" style="fill: #3f3f3f; stroke: #3f3f3f; stroke-linejoin: miter"/>
     <use xlink:href="#m3a39638ab1" x="305.1" y="160.166892" style="fill: #3f3f3f; stroke: #3f3f3f; stroke-linejoin: miter"/>
     <use xlink:href="#m3a39638ab1" x="305.1" y="158.970964" style="fill: #3f3f3f; stroke: #3f3f3f; stroke-linejoin: miter"/>
     <use xlink:href="#m3a39638ab1" x="305.1" y="164.848823" style="fill: #3f3f3f; stroke: #3f3f3f; stroke-linejoin: miter"/>
     <use xlink:href="#m3a39638ab1" x="305.1" y="154.96352" style="fill: #3f3f3f; stroke: #3f3f3f; stroke-linejoin: miter"/>
     <use xlink:href="#m3a39638ab1" x="305.1" y="167.182306" style="fill: #3f3f3f; stroke: #3f3f3f; stroke-linejoin: miter"/>
     <use xlink:href="#m3a39638ab1" x="305.1" y="171.076217" style="fill: #3f3f3f; stroke: #3f3f3f; stroke-linejoin: miter"/>
     <use xlink:href="#m3a39638ab1" x="305.1" y="156.821424" style="fill: #3f3f3f; stroke: #3f3f3f; stroke-linejoin: miter"/>
     <use xlink:href="#m3a39638ab1" x="305.1" y="155.029791" style="fill: #3f3f3f; stroke: #3f3f3f; stroke-linejoin: miter"/>
     <use xlink:href="#m3a39638ab1" x="305.1" y="154.347511" style="fill: #3f3f3f; stroke: #3f3f3f; stroke-linejoin: miter"/>
     <use xlink:href="#m3a39638ab1" x="305.1" y="166.827009" style="fill: #3f3f3f; stroke: #3f3f3f; stroke-linejoin: miter"/>
     <use xlink:href="#m3a39638ab1" x="305.1" y="161.262628" style="fill: #3f3f3f; stroke: #3f3f3f; stroke-linejoin: miter"/>
     <use xlink:href="#m3a39638ab1" x="305.1" y="164.848823" style="fill: #3f3f3f; stroke: #3f3f3f; stroke-linejoin: miter"/>
     <use xlink:href="#m3a39638ab1" x="305.1" y="154.539446" style="fill: #3f3f3f; stroke: #3f3f3f; stroke-linejoin: miter"/>
     <use xlink:href="#m3a39638ab1" x="305.1" y="156.970962" style="fill: #3f3f3f; stroke: #3f3f3f; stroke-linejoin: miter"/>
     <use xlink:href="#m3a39638ab1" x="305.1" y="154.668722" style="fill: #3f3f3f; stroke: #3f3f3f; stroke-linejoin: miter"/>
     <use xlink:href="#m3a39638ab1" x="305.1" y="164.181568" style="fill: #3f3f3f; stroke: #3f3f3f; stroke-linejoin: miter"/>
     <use xlink:href="#m3a39638ab1" x="305.1" y="157.583748" style="fill: #3f3f3f; stroke: #3f3f3f; stroke-linejoin: miter"/>
     <use xlink:href="#m3a39638ab1" x="305.1" y="156.058841" style="fill: #3f3f3f; stroke: #3f3f3f; stroke-linejoin: miter"/>
     <use xlink:href="#m3a39638ab1" x="305.1" y="154.31574" style="fill: #3f3f3f; stroke: #3f3f3f; stroke-linejoin: miter"/>
     <use xlink:href="#m3a39638ab1" x="305.1" y="157.819836" style="fill: #3f3f3f; stroke: #3f3f3f; stroke-linejoin: miter"/>
     <use xlink:href="#m3a39638ab1" x="305.1" y="165.545628" style="fill: #3f3f3f; stroke: #3f3f3f; stroke-linejoin: miter"/>
     <use xlink:href="#m3a39638ab1" x="305.1" y="154.766375" style="fill: #3f3f3f; stroke: #3f3f3f; stroke-linejoin: miter"/>
     <use xlink:href="#m3a39638ab1" x="305.1" y="177.736342" style="fill: #3f3f3f; stroke: #3f3f3f; stroke-linejoin: miter"/>
     <use xlink:href="#m3a39638ab1" x="305.1" y="157.046271" style="fill: #3f3f3f; stroke: #3f3f3f; stroke-linejoin: miter"/>
     <use xlink:href="#m3a39638ab1" x="305.1" y="159.403376" style="fill: #3f3f3f; stroke: #3f3f3f; stroke-linejoin: miter"/>
     <use xlink:href="#m3a39638ab1" x="305.1" y="157.740742" style="fill: #3f3f3f; stroke: #3f3f3f; stroke-linejoin: miter"/>
     <use xlink:href="#m3a39638ab1" x="305.1" y="160.920991" style="fill: #3f3f3f; stroke: #3f3f3f; stroke-linejoin: miter"/>
     <use xlink:href="#m3a39638ab1" x="305.1" y="165.675699" style="fill: #3f3f3f; stroke: #3f3f3f; stroke-linejoin: miter"/>
     <use xlink:href="#m3a39638ab1" x="305.1" y="110.504877" style="fill: #3f3f3f; stroke: #3f3f3f; stroke-linejoin: miter"/>
     <use xlink:href="#m3a39638ab1" x="305.1" y="107.441704" style="fill: #3f3f3f; stroke: #3f3f3f; stroke-linejoin: miter"/>
     <use xlink:href="#m3a39638ab1" x="305.1" y="82.475917" style="fill: #3f3f3f; stroke: #3f3f3f; stroke-linejoin: miter"/>
     <use xlink:href="#m3a39638ab1" x="305.1" y="114.209798" style="fill: #3f3f3f; stroke: #3f3f3f; stroke-linejoin: miter"/>
     <use xlink:href="#m3a39638ab1" x="305.1" y="115.470201" style="fill: #3f3f3f; stroke: #3f3f3f; stroke-linejoin: miter"/>
     <use xlink:href="#m3a39638ab1" x="305.1" y="103.032236" style="fill: #3f3f3f; stroke: #3f3f3f; stroke-linejoin: miter"/>
     <use xlink:href="#m3a39638ab1" x="305.1" y="115.214154" style="fill: #3f3f3f; stroke: #3f3f3f; stroke-linejoin: miter"/>
     <use xlink:href="#m3a39638ab1" x="305.1" y="112.256246" style="fill: #3f3f3f; stroke: #3f3f3f; stroke-linejoin: miter"/>
     <use xlink:href="#m3a39638ab1" x="305.1" y="114.289427" style="fill: #3f3f3f; stroke: #3f3f3f; stroke-linejoin: miter"/>
     <use xlink:href="#m3a39638ab1" x="305.1" y="109.375392" style="fill: #3f3f3f; stroke: #3f3f3f; stroke-linejoin: miter"/>
     <use xlink:href="#m3a39638ab1" x="305.1" y="112.606498" style="fill: #3f3f3f; stroke: #3f3f3f; stroke-linejoin: miter"/>
     <use xlink:href="#m3a39638ab1" x="305.1" y="113.939115" style="fill: #3f3f3f; stroke: #3f3f3f; stroke-linejoin: miter"/>
     <use xlink:href="#m3a39638ab1" x="305.1" y="112.92351" style="fill: #3f3f3f; stroke: #3f3f3f; stroke-linejoin: miter"/>
     <use xlink:href="#m3a39638ab1" x="305.1" y="114.254547" style="fill: #3f3f3f; stroke: #3f3f3f; stroke-linejoin: miter"/>
     <use xlink:href="#m3a39638ab1" x="305.1" y="115.066691" style="fill: #3f3f3f; stroke: #3f3f3f; stroke-linejoin: miter"/>
     <use xlink:href="#m3a39638ab1" x="305.1" y="99.493882" style="fill: #3f3f3f; stroke: #3f3f3f; stroke-linejoin: miter"/>
     <use xlink:href="#m3a39638ab1" x="305.1" y="114.894645" style="fill: #3f3f3f; stroke: #3f3f3f; stroke-linejoin: miter"/>
     <use xlink:href="#m3a39638ab1" x="305.1" y="113.475149" style="fill: #3f3f3f; stroke: #3f3f3f; stroke-linejoin: miter"/>
     <use xlink:href="#m3a39638ab1" x="305.1" y="111.67517" style="fill: #3f3f3f; stroke: #3f3f3f; stroke-linejoin: miter"/>
     <use xlink:href="#m3a39638ab1" x="305.1" y="114.222215" style="fill: #3f3f3f; stroke: #3f3f3f; stroke-linejoin: miter"/>
     <use xlink:href="#m3a39638ab1" x="305.1" y="113.364208" style="fill: #3f3f3f; stroke: #3f3f3f; stroke-linejoin: miter"/>
     <use xlink:href="#m3a39638ab1" x="305.1" y="111.165842" style="fill: #3f3f3f; stroke: #3f3f3f; stroke-linejoin: miter"/>
     <use xlink:href="#m3a39638ab1" x="305.1" y="114.14046" style="fill: #3f3f3f; stroke: #3f3f3f; stroke-linejoin: miter"/>
     <use xlink:href="#m3a39638ab1" x="305.1" y="112.590816" style="fill: #3f3f3f; stroke: #3f3f3f; stroke-linejoin: miter"/>
     <use xlink:href="#m3a39638ab1" x="305.1" y="115.686804" style="fill: #3f3f3f; stroke: #3f3f3f; stroke-linejoin: miter"/>
     <use xlink:href="#m3a39638ab1" x="305.1" y="115.997932" style="fill: #3f3f3f; stroke: #3f3f3f; stroke-linejoin: miter"/>
     <use xlink:href="#m3a39638ab1" x="305.1" y="115.389734" style="fill: #3f3f3f; stroke: #3f3f3f; stroke-linejoin: miter"/>
     <use xlink:href="#m3a39638ab1" x="305.1" y="111.473626" style="fill: #3f3f3f; stroke: #3f3f3f; stroke-linejoin: miter"/>
     <use xlink:href="#m3a39638ab1" x="305.1" y="115.403117" style="fill: #3f3f3f; stroke: #3f3f3f; stroke-linejoin: miter"/>
     <use xlink:href="#m3a39638ab1" x="305.1" y="111.41533" style="fill: #3f3f3f; stroke: #3f3f3f; stroke-linejoin: miter"/>
     <use xlink:href="#m3a39638ab1" x="305.1" y="101.85828" style="fill: #3f3f3f; stroke: #3f3f3f; stroke-linejoin: miter"/>
     <use xlink:href="#m3a39638ab1" x="305.1" y="112.364034" style="fill: #3f3f3f; stroke: #3f3f3f; stroke-linejoin: miter"/>
     <use xlink:href="#m3a39638ab1" x="305.1" y="115.304359" style="fill: #3f3f3f; stroke: #3f3f3f; stroke-linejoin: miter"/>
     <use xlink:href="#m3a39638ab1" x="305.1" y="110.888065" style="fill: #3f3f3f; stroke: #3f3f3f; stroke-linejoin: miter"/>
     <use xlink:href="#m3a39638ab1" x="305.1" y="89.172245" style="fill: #3f3f3f; stroke: #3f3f3f; stroke-linejoin: miter"/>
     <use xlink:href="#m3a39638ab1" x="305.1" y="112.852763" style="fill: #3f3f3f; stroke: #3f3f3f; stroke-linejoin: miter"/>
     <use xlink:href="#m3a39638ab1" x="305.1" y="74.552495" style="fill: #3f3f3f; stroke: #3f3f3f; stroke-linejoin: miter"/>
    </g>
   </g>
   <g id="line2d_20">
    <path d="M 129.33 139.705149 
L 146.07 139.705149 
" clip-path="url(#p4f1d0e9d39)" style="fill: none; stroke: #3f3f3f; stroke-width: 1.5; stroke-linecap: square"/>
   </g>
   <g id="line2d_21">
    <path d="M 296.73 134.744448 
L 313.47 134.744448 
" clip-path="url(#p4f1d0e9d39)" style="fill: none; stroke: #3f3f3f; stroke-width: 1.5; stroke-linecap: square"/>
   </g>
   <g id="patch_5">
    <path d="M 54 252 
L 54 34.56 
" style="fill: none; stroke: #000000; stroke-width: 0.8; stroke-linejoin: miter; stroke-linecap: square"/>
   </g>
   <g id="patch_6">
    <path d="M 388.8 252 
L 388.8 34.56 
" style="fill: none; stroke: #000000; stroke-width: 0.8; stroke-linejoin: miter; stroke-linecap: square"/>
   </g>
   <g id="patch_7">
    <path d="M 54 252 
L 388.8 252 
" style="fill: none; stroke: #000000; stroke-width: 0.8; stroke-linejoin: miter; stroke-linecap: square"/>
   </g>
   <g id="patch_8">
    <path d="M 54 34.56 
L 388.8 34.56 
" style="fill: none; stroke: #000000; stroke-width: 0.8; stroke-linejoin: miter; stroke-linecap: square"/>
   </g>
  </g>
 </g>
 <defs>
  <clipPath id="p4f1d0e9d39">
   <rect x="54" y="34.56" width="334.8" height="217.44"/>
  </clipPath>
 </defs>
</svg>
