<?xml version="1.0" encoding="utf-8" standalone="no"?>
<!DOCTYPE svg PUBLIC "-//W3C//DTD SVG 1.1//EN"
  "http://www.w3.org/Graphics/SVG/1.1/DTD/svg11.dtd">
<svg xmlns:xlink="http://www.w3.org/1999/xlink" width="460.8pt" height="345.6pt" viewBox="0 0 460.8 345.6" xmlns="http://www.w3.org/2000/svg" version="1.1">
 <metadata>
  <rdf:RDF xmlns:dc="http://purl.org/dc/elements/1.1/" xmlns:cc="http://creativecommons.org/ns#" xmlns:rdf="http://www.w3.org/1999/02/22-rdf-syntax-ns#">
   <cc:Work>
    <dc:type rdf:resource="http://purl.org/dc/dcmitype/StillImage"/>
    <dc:date>2024-04-26T03:31:26.832681</dc:date>
    <dc:format>image/svg+xml</dc:format>
    <dc:creator>
     <cc:Agent>
      <dc:title>Matplotlib v3.5.1, https://matplotlib.org/</dc:title>
     </cc:Agent>
    </dc:creator>
   </cc:Work>
  </rdf:RDF>
 </metadata>
 <defs>
  <style type="text/css">*{stroke-linejoin: round; stroke-linecap: butt}</style>
 </defs>
 <g id="figure_1">
  <g id="patch_1">
   <path d="M 0 345.6 
L 460.8 345.6 
L 460.8 0 
L 0 0 
z
" style="fill: #ffffff"/>
  </g>
  <g id="axes_1">
   <g id="patch_2">
    <path d="M 57.6 307.584 
L 414.72 307.584 
L 414.72 41.472 
L 57.6 41.472 
z
" style="fill: #ffffff"/>
   </g>
   <g id="matplotlib.axis_1">
    <g id="xtick_1">
     <g id="line2d_1">
      <defs>
       <path id="m9a59b6cf96" d="M 0 0 
L 0 3.5 
" style="stroke: #000000; stroke-width: 0.8"/>
      </defs>
      <g>
       <use xlink:href="#m9a59b6cf96" x="73.832727" y="307.584" style="stroke: #000000; stroke-width: 0.8"/>
      </g>
     </g>
     <g id="text_1">
      <!-- 0 -->
      <g transform="translate(70.651477 322.182437)scale(0.1 -0.1)">
       <defs>
        <path id="DejaVuSans-30" d="M 2034 4250 
Q 1547 4250 1301 3770 
Q 1056 3291 1056 2328 
Q 1056 1369 1301 889 
Q 1547 409 2034 409 
Q 2525 409 2770 889 
Q 3016 1369 3016 2328 
Q 3016 3291 2770 3770 
Q 2525 4250 2034 4250 
z
M 2034 4750 
Q 2819 4750 3233 4129 
Q 3647 3509 3647 2328 
Q 3647 1150 3233 529 
Q 2819 -91 2034 -91 
Q 1250 -91 836 529 
Q 422 1150 422 2328 
Q 422 3509 836 4129 
Q 1250 4750 2034 4750 
z
" transform="scale(0.015625)"/>
       </defs>
       <use xlink:href="#DejaVuSans-30"/>
      </g>
     </g>
    </g>
    <g id="xtick_2">
     <g id="line2d_2">
      <g>
       <use xlink:href="#m9a59b6cf96" x="138.828632" y="307.584" style="stroke: #000000; stroke-width: 0.8"/>
      </g>
     </g>
     <g id="text_2">
      <!-- 200 -->
      <g transform="translate(129.284882 322.182437)scale(0.1 -0.1)">
       <defs>
        <path id="DejaVuSans-32" d="M 1228 531 
L 3431 531 
L 3431 0 
L 469 0 
L 469 531 
Q 828 903 1448 1529 
Q 2069 2156 2228 2338 
Q 2531 2678 2651 2914 
Q 2772 3150 2772 3378 
Q 2772 3750 2511 3984 
Q 2250 4219 1831 4219 
Q 1534 4219 1204 4116 
Q 875 4013 500 3803 
L 500 4441 
Q 881 4594 1212 4672 
Q 1544 4750 1819 4750 
Q 2544 4750 2975 4387 
Q 3406 4025 3406 3419 
Q 3406 3131 3298 2873 
Q 3191 2616 2906 2266 
Q 2828 2175 2409 1742 
Q 1991 1309 1228 531 
z
" transform="scale(0.015625)"/>
       </defs>
       <use xlink:href="#DejaVuSans-32"/>
       <use xlink:href="#DejaVuSans-30" x="63.623047"/>
       <use xlink:href="#DejaVuSans-30" x="127.246094"/>
      </g>
     </g>
    </g>
    <g id="xtick_3">
     <g id="line2d_3">
      <g>
       <use xlink:href="#m9a59b6cf96" x="203.824537" y="307.584" style="stroke: #000000; stroke-width: 0.8"/>
      </g>
     </g>
     <g id="text_3">
      <!-- 400 -->
      <g transform="translate(194.280787 322.182437)scale(0.1 -0.1)">
       <defs>
        <path id="DejaVuSans-34" d="M 2419 4116 
L 825 1625 
L 2419 1625 
L 2419 4116 
z
M 2253 4666 
L 3047 4666 
L 3047 1625 
L 3713 1625 
L 3713 1100 
L 3047 1100 
L 3047 0 
L 2419 0 
L 2419 1100 
L 313 1100 
L 313 1709 
L 2253 4666 
z
" transform="scale(0.015625)"/>
       </defs>
       <use xlink:href="#DejaVuSans-34"/>
       <use xlink:href="#DejaVuSans-30" x="63.623047"/>
       <use xlink:href="#DejaVuSans-30" x="127.246094"/>
      </g>
     </g>
    </g>
    <g id="xtick_4">
     <g id="line2d_4">
      <g>
       <use xlink:href="#m9a59b6cf96" x="268.820442" y="307.584" style="stroke: #000000; stroke-width: 0.8"/>
      </g>
     </g>
     <g id="text_4">
      <!-- 600 -->
      <g transform="translate(259.276692 322.182437)scale(0.1 -0.1)">
       <defs>
        <path id="DejaVuSans-36" d="M 2113 2584 
Q 1688 2584 1439 2293 
Q 1191 2003 1191 1497 
Q 1191 994 1439 701 
Q 1688 409 2113 409 
Q 2538 409 2786 701 
Q 3034 994 3034 1497 
Q 3034 2003 2786 2293 
Q 2538 2584 2113 2584 
z
M 3366 4563 
L 3366 3988 
Q 3128 4100 2886 4159 
Q 2644 4219 2406 4219 
Q 1781 4219 1451 3797 
Q 1122 3375 1075 2522 
Q 1259 2794 1537 2939 
Q 1816 3084 2150 3084 
Q 2853 3084 3261 2657 
Q 3669 2231 3669 1497 
Q 3669 778 3244 343 
Q 2819 -91 2113 -91 
Q 1303 -91 875 529 
Q 447 1150 447 2328 
Q 447 3434 972 4092 
Q 1497 4750 2381 4750 
Q 2619 4750 2861 4703 
Q 3103 4656 3366 4563 
z
" transform="scale(0.015625)"/>
       </defs>
       <use xlink:href="#DejaVuSans-36"/>
       <use xlink:href="#DejaVuSans-30" x="63.623047"/>
       <use xlink:href="#DejaVuSans-30" x="127.246094"/>
      </g>
     </g>
    </g>
    <g id="xtick_5">
     <g id="line2d_5">
      <g>
       <use xlink:href="#m9a59b6cf96" x="333.816347" y="307.584" style="stroke: #000000; stroke-width: 0.8"/>
      </g>
     </g>
     <g id="text_5">
      <!-- 800 -->
      <g transform="translate(324.272597 322.182437)scale(0.1 -0.1)">
       <defs>
        <path id="DejaVuSans-38" d="M 2034 2216 
Q 1584 2216 1326 1975 
Q 1069 1734 1069 1313 
Q 1069 891 1326 650 
Q 1584 409 2034 409 
Q 2484 409 2743 651 
Q 3003 894 3003 1313 
Q 3003 1734 2745 1975 
Q 2488 2216 2034 2216 
z
M 1403 2484 
Q 997 2584 770 2862 
Q 544 3141 544 3541 
Q 544 4100 942 4425 
Q 1341 4750 2034 4750 
Q 2731 4750 3128 4425 
Q 3525 4100 3525 3541 
Q 3525 3141 3298 2862 
Q 3072 2584 2669 2484 
Q 3125 2378 3379 2068 
Q 3634 1759 3634 1313 
Q 3634 634 3220 271 
Q 2806 -91 2034 -91 
Q 1263 -91 848 271 
Q 434 634 434 1313 
Q 434 1759 690 2068 
Q 947 2378 1403 2484 
z
M 1172 3481 
Q 1172 3119 1398 2916 
Q 1625 2713 2034 2713 
Q 2441 2713 2670 2916 
Q 2900 3119 2900 3481 
Q 2900 3844 2670 4047 
Q 2441 4250 2034 4250 
Q 1625 4250 1398 4047 
Q 1172 3844 1172 3481 
z
" transform="scale(0.015625)"/>
       </defs>
       <use xlink:href="#DejaVuSans-38"/>
       <use xlink:href="#DejaVuSans-30" x="63.623047"/>
       <use xlink:href="#DejaVuSans-30" x="127.246094"/>
      </g>
     </g>
    </g>
    <g id="xtick_6">
     <g id="line2d_6">
      <g>
       <use xlink:href="#m9a59b6cf96" x="398.812252" y="307.584" style="stroke: #000000; stroke-width: 0.8"/>
      </g>
     </g>
     <g id="text_6">
      <!-- 1000 -->
      <g transform="translate(386.087252 322.182437)scale(0.1 -0.1)">
       <defs>
        <path id="DejaVuSans-31" d="M 794 531 
L 1825 531 
L 1825 4091 
L 703 3866 
L 703 4441 
L 1819 4666 
L 2450 4666 
L 2450 531 
L 3481 531 
L 3481 0 
L 794 0 
L 794 531 
z
" transform="scale(0.015625)"/>
       </defs>
       <use xlink:href="#DejaVuSans-31"/>
       <use xlink:href="#DejaVuSans-30" x="63.623047"/>
       <use xlink:href="#DejaVuSans-30" x="127.246094"/>
       <use xlink:href="#DejaVuSans-30" x="190.869141"/>
      </g>
     </g>
    </g>
   </g>
   <g id="matplotlib.axis_2">
    <g id="ytick_1">
     <g id="line2d_7">
      <defs>
       <path id="m685bb50042" d="M 0 0 
L -3.5 0 
" style="stroke: #000000; stroke-width: 0.8"/>
      </defs>
      <g>
       <use xlink:href="#m685bb50042" x="57.6" y="298.577966" style="stroke: #000000; stroke-width: 0.8"/>
      </g>
     </g>
     <g id="text_7">
      <!-- 0.000 -->
      <g transform="translate(21.971875 302.377185)scale(0.1 -0.1)">
       <defs>
        <path id="DejaVuSans-2e" d="M 684 794 
L 1344 794 
L 1344 0 
L 684 0 
L 684 794 
z
" transform="scale(0.015625)"/>
       </defs>
       <use xlink:href="#DejaVuSans-30"/>
       <use xlink:href="#DejaVuSans-2e" x="63.623047"/>
       <use xlink:href="#DejaVuSans-30" x="95.410156"/>
       <use xlink:href="#DejaVuSans-30" x="159.033203"/>
       <use xlink:href="#DejaVuSans-30" x="222.65625"/>
      </g>
     </g>
    </g>
    <g id="ytick_2">
     <g id="line2d_8">
      <g>
       <use xlink:href="#m685bb50042" x="57.6" y="259.871254" style="stroke: #000000; stroke-width: 0.8"/>
      </g>
     </g>
     <g id="text_8">
      <!-- 0.001 -->
      <g transform="translate(21.971875 263.670473)scale(0.1 -0.1)">
       <use xlink:href="#DejaVuSans-30"/>
       <use xlink:href="#DejaVuSans-2e" x="63.623047"/>
       <use xlink:href="#DejaVuSans-30" x="95.410156"/>
       <use xlink:href="#DejaVuSans-30" x="159.033203"/>
       <use xlink:href="#DejaVuSans-31" x="222.65625"/>
      </g>
     </g>
    </g>
    <g id="ytick_3">
     <g id="line2d_9">
      <g>
       <use xlink:href="#m685bb50042" x="57.6" y="221.164541" style="stroke: #000000; stroke-width: 0.8"/>
      </g>
     </g>
     <g id="text_9">
      <!-- 0.002 -->
      <g transform="translate(21.971875 224.96376)scale(0.1 -0.1)">
       <use xlink:href="#DejaVuSans-30"/>
       <use xlink:href="#DejaVuSans-2e" x="63.623047"/>
       <use xlink:href="#DejaVuSans-30" x="95.410156"/>
       <use xlink:href="#DejaVuSans-30" x="159.033203"/>
       <use xlink:href="#DejaVuSans-32" x="222.65625"/>
      </g>
     </g>
    </g>
    <g id="ytick_4">
     <g id="line2d_10">
      <g>
       <use xlink:href="#m685bb50042" x="57.6" y="182.457829" style="stroke: #000000; stroke-width: 0.8"/>
      </g>
     </g>
     <g id="text_10">
      <!-- 0.003 -->
      <g transform="translate(21.971875 186.257048)scale(0.1 -0.1)">
       <defs>
        <path id="DejaVuSans-33" d="M 2597 2516 
Q 3050 2419 3304 2112 
Q 3559 1806 3559 1356 
Q 3559 666 3084 287 
Q 2609 -91 1734 -91 
Q 1441 -91 1130 -33 
Q 819 25 488 141 
L 488 750 
Q 750 597 1062 519 
Q 1375 441 1716 441 
Q 2309 441 2620 675 
Q 2931 909 2931 1356 
Q 2931 1769 2642 2001 
Q 2353 2234 1838 2234 
L 1294 2234 
L 1294 2753 
L 1863 2753 
Q 2328 2753 2575 2939 
Q 2822 3125 2822 3475 
Q 2822 3834 2567 4026 
Q 2313 4219 1838 4219 
Q 1578 4219 1281 4162 
Q 984 4106 628 3988 
L 628 4550 
Q 988 4650 1302 4700 
Q 1616 4750 1894 4750 
Q 2613 4750 3031 4423 
Q 3450 4097 3450 3541 
Q 3450 3153 3228 2886 
Q 3006 2619 2597 2516 
z
" transform="scale(0.015625)"/>
       </defs>
       <use xlink:href="#DejaVuSans-30"/>
       <use xlink:href="#DejaVuSans-2e" x="63.623047"/>
       <use xlink:href="#DejaVuSans-30" x="95.410156"/>
       <use xlink:href="#DejaVuSans-30" x="159.033203"/>
       <use xlink:href="#DejaVuSans-33" x="222.65625"/>
      </g>
     </g>
    </g>
    <g id="ytick_5">
     <g id="line2d_11">
      <g>
       <use xlink:href="#m685bb50042" x="57.6" y="143.751116" style="stroke: #000000; stroke-width: 0.8"/>
      </g>
     </g>
     <g id="text_11">
      <!-- 0.004 -->
      <g transform="translate(21.971875 147.550335)scale(0.1 -0.1)">
       <use xlink:href="#DejaVuSans-30"/>
       <use xlink:href="#DejaVuSans-2e" x="63.623047"/>
       <use xlink:href="#DejaVuSans-30" x="95.410156"/>
       <use xlink:href="#DejaVuSans-30" x="159.033203"/>
       <use xlink:href="#DejaVuSans-34" x="222.65625"/>
      </g>
     </g>
    </g>
    <g id="ytick_6">
     <g id="line2d_12">
      <g>
       <use xlink:href="#m685bb50042" x="57.6" y="105.044404" style="stroke: #000000; stroke-width: 0.8"/>
      </g>
     </g>
     <g id="text_12">
      <!-- 0.005 -->
      <g transform="translate(21.971875 108.843623)scale(0.1 -0.1)">
       <defs>
        <path id="DejaVuSans-35" d="M 691 4666 
L 3169 4666 
L 3169 4134 
L 1269 4134 
L 1269 2991 
Q 1406 3038 1543 3061 
Q 1681 3084 1819 3084 
Q 2600 3084 3056 2656 
Q 3513 2228 3513 1497 
Q 3513 744 3044 326 
Q 2575 -91 1722 -91 
Q 1428 -91 1123 -41 
Q 819 9 494 109 
L 494 744 
Q 775 591 1075 516 
Q 1375 441 1709 441 
Q 2250 441 2565 725 
Q 2881 1009 2881 1497 
Q 2881 1984 2565 2268 
Q 2250 2553 1709 2553 
Q 1456 2553 1204 2497 
Q 953 2441 691 2322 
L 691 4666 
z
" transform="scale(0.015625)"/>
       </defs>
       <use xlink:href="#DejaVuSans-30"/>
       <use xlink:href="#DejaVuSans-2e" x="63.623047"/>
       <use xlink:href="#DejaVuSans-30" x="95.410156"/>
       <use xlink:href="#DejaVuSans-30" x="159.033203"/>
       <use xlink:href="#DejaVuSans-35" x="222.65625"/>
      </g>
     </g>
    </g>
    <g id="ytick_7">
     <g id="line2d_13">
      <g>
       <use xlink:href="#m685bb50042" x="57.6" y="66.337692" style="stroke: #000000; stroke-width: 0.8"/>
      </g>
     </g>
     <g id="text_13">
      <!-- 0.006 -->
      <g transform="translate(21.971875 70.13691)scale(0.1 -0.1)">
       <use xlink:href="#DejaVuSans-30"/>
       <use xlink:href="#DejaVuSans-2e" x="63.623047"/>
       <use xlink:href="#DejaVuSans-30" x="95.410156"/>
       <use xlink:href="#DejaVuSans-30" x="159.033203"/>
       <use xlink:href="#DejaVuSans-36" x="222.65625"/>
      </g>
     </g>
    </g>
   </g>
   <g id="line2d_14">
    <path d="M 73.832727 275.505645 
L 74.157707 291.43669 
L 74.482686 285.568089 
L 74.807666 288.340196 
L 75.132645 288.037403 
L 75.457625 280.815464 
L 75.782604 285.538708 
L 76.107584 282.190706 
L 76.432563 286.361238 
L 76.757543 279.463547 
L 77.082523 286.755523 
L 77.407502 281.214268 
L 77.732482 280.127396 
L 78.057461 290.581656 
L 78.382441 289.208068 
L 78.70742 284.778527 
L 79.0324 287.015077 
L 79.357379 288.259611 
L 79.682359 285.994826 
L 80.007338 289.196265 
L 80.332318 285.546958 
L 80.982277 285.193301 
L 81.307256 287.718299 
L 81.632236 287.23113 
L 81.957215 283.161592 
L 82.282195 284.784234 
L 82.607174 281.820521 
L 82.932154 291.302564 
L 83.257133 287.129952 
L 83.907093 292.621378 
L 84.232072 289.398805 
L 84.557052 289.38528 
L 84.882031 284.457533 
L 85.207011 290.089547 
L 85.53199 291.374917 
L 85.85697 289.558932 
L 86.506929 291.504362 
L 86.831908 282.355062 
L 87.156888 282.771598 
L 87.481867 278.108124 
L 87.806847 289.835052 
L 88.131826 289.536313 
L 88.456806 278.640753 
L 88.781785 290.699954 
L 89.106765 287.675769 
L 89.431744 291.166529 
L 89.756724 270.660064 
L 90.081704 269.935662 
L 90.406683 287.469912 
L 90.731663 281.093679 
L 91.056642 277.257687 
L 91.381622 285.158645 
L 91.706601 279.115114 
L 92.031581 270.546277 
L 92.35656 278.331583 
L 92.68154 268.78544 
L 93.006519 282.852817 
L 93.331499 288.27662 
L 93.656478 287.969218 
L 93.981458 269.184113 
L 94.306437 278.762234 
L 94.631417 279.782732 
L 95.281376 289.978631 
L 95.931335 284.448105 
L 96.256314 287.628903 
L 96.581294 287.357619 
L 96.906274 286.833715 
L 97.231253 290.529002 
L 97.556233 291.25171 
L 97.881212 288.323501 
L 98.206192 291.061256 
L 98.531171 287.42003 
L 98.856151 280.409652 
L 99.18113 289.427161 
L 99.50611 288.733273 
L 99.831089 283.49277 
L 100.156069 288.70432 
L 100.481048 291.105803 
L 100.806028 287.295215 
L 101.131007 293.925823 
L 101.780966 292.624411 
L 102.105946 280.095269 
L 102.430925 281.411864 
L 102.755905 283.654112 
L 103.080885 281.808404 
L 103.405864 287.383495 
L 103.730844 290.058495 
L 104.055823 291.163999 
L 104.705782 291.459939 
L 105.030762 292.433546 
L 105.355741 289.060298 
L 105.680721 289.905857 
L 106.0057 271.766267 
L 106.33068 285.671841 
L 106.980639 281.469683 
L 107.305618 281.501915 
L 107.630598 285.639237 
L 108.280557 290.014741 
L 108.605536 289.901613 
L 108.930516 292.365536 
L 109.255495 289.349818 
L 109.580475 282.422816 
L 109.905455 285.662455 
L 110.230434 279.842587 
L 110.555414 278.754585 
L 110.880393 280.178438 
L 111.205373 284.663312 
L 111.530352 283.469602 
L 111.855332 293.118576 
L 112.180311 288.146697 
L 112.505291 288.788386 
L 112.83027 282.584603 
L 113.15525 284.337454 
L 113.480229 290.411198 
L 113.805209 283.053525 
L 114.130188 289.953434 
L 114.455168 287.742382 
L 114.780147 287.823417 
L 115.105127 294.440433 
L 115.430106 288.416712 
L 115.755086 290.206996 
L 116.080066 287.695474 
L 116.405045 281.409703 
L 116.730025 291.48884 
L 117.379984 282.399932 
L 117.704963 282.940446 
L 118.354922 283.532044 
L 118.679902 261.810926 
L 119.004881 278.291912 
L 119.329861 281.81056 
L 119.65484 277.387146 
L 119.97982 283.204694 
L 120.304799 284.304574 
L 120.629779 283.819097 
L 120.954758 277.985557 
L 121.279738 278.521559 
L 121.604717 280.912775 
L 121.929697 282.00946 
L 122.254676 288.577807 
L 122.579656 277.476798 
L 122.904636 282.306226 
L 123.554595 274.258227 
L 123.879574 281.102273 
L 124.204554 276.371862 
L 124.529533 268.389878 
L 124.854513 281.632536 
L 125.179492 288.747078 
L 125.504472 276.25977 
L 125.829451 248.345076 
L 126.154431 279.297152 
L 126.47941 264.379145 
L 126.80439 291.23804 
L 127.454349 282.313534 
L 127.779328 288.87108 
L 128.104308 285.138153 
L 128.754267 281.646566 
L 129.079247 275.597591 
L 129.404226 287.320344 
L 129.729206 272.198886 
L 130.379165 258.916428 
L 130.704144 265.410928 
L 131.029124 285.773618 
L 131.354103 271.581334 
L 131.679083 288.681872 
L 132.004062 283.30756 
L 132.329042 275.582172 
L 132.654021 274.670013 
L 132.979001 269.171823 
L 133.30398 279.615575 
L 133.62896 263.65595 
L 133.953939 279.972069 
L 134.278919 278.969323 
L 134.928878 266.359743 
L 135.253857 282.544931 
L 135.578837 284.198775 
L 135.903817 278.92465 
L 136.228796 284.063825 
L 136.553776 291.44348 
L 136.878755 269.03756 
L 137.203735 294.830976 
L 137.528714 278.759278 
L 137.853694 280.057586 
L 138.178673 271.185727 
L 138.503653 280.452615 
L 138.828632 269.289086 
L 139.153612 286.143542 
L 139.478591 267.431188 
L 139.803571 283.373088 
L 140.12855 251.367093 
L 140.45353 287.942975 
L 140.778509 274.213944 
L 141.103489 275.712439 
L 141.753448 281.784402 
L 142.078428 284.166864 
L 142.403407 282.571623 
L 142.728387 272.168957 
L 143.053366 284.391503 
L 143.378346 248.229887 
L 143.703325 279.505174 
L 144.028305 254.567991 
L 144.353284 274.053623 
L 144.678264 278.166081 
L 145.003243 261.896394 
L 145.328223 284.860219 
L 145.653202 270.248497 
L 146.303161 263.255411 
L 146.628141 280.544355 
L 146.95312 267.441863 
L 147.2781 262.967846 
L 147.603079 264.753886 
L 147.928059 243.628102 
L 148.253038 274.384766 
L 148.902998 269.448825 
L 149.227977 263.822494 
L 149.552957 269.622574 
L 149.877936 228.135151 
L 150.202916 279.07253 
L 150.527895 277.229916 
L 150.852875 277.562179 
L 151.177854 273.129655 
L 151.502834 277.483729 
L 151.827813 273.006536 
L 152.152793 270.638196 
L 152.477772 279.425045 
L 152.802752 281.646921 
L 153.127731 265.48979 
L 153.452711 263.568325 
L 153.77769 270.752499 
L 154.10267 259.499183 
L 154.427649 276.61771 
L 154.752629 275.7681 
L 155.077609 282.988408 
L 155.402588 245.529323 
L 155.727568 274.058675 
L 156.052547 252.481778 
L 156.377527 274.519394 
L 156.702506 274.586967 
L 157.027486 256.551926 
L 157.352465 287.724164 
L 157.677445 280.902943 
L 158.002424 278.133914 
L 158.652383 283.703613 
L 158.977363 271.223127 
L 159.302342 243.539517 
L 159.627322 270.990993 
L 159.952301 286.369363 
L 160.277281 281.178518 
L 160.60226 287.182332 
L 160.92724 271.080761 
L 161.252219 247.047224 
L 161.577199 281.121054 
L 161.902179 274.16921 
L 162.227158 278.763396 
L 162.552138 276.143612 
L 162.877117 279.763385 
L 163.202097 265.238434 
L 163.527076 275.289256 
L 163.852056 245.327718 
L 164.177035 286.791213 
L 164.502015 263.173002 
L 164.826994 277.955299 
L 165.151974 257.611826 
L 165.476953 251.507258 
L 165.801933 275.071381 
L 166.126912 259.814895 
L 166.451892 281.038837 
L 166.776871 263.673801 
L 167.42683 274.675828 
L 167.75181 284.972431 
L 168.07679 274.163571 
L 168.401769 272.702057 
L 168.726749 268.856176 
L 169.051728 281.444324 
L 169.376708 266.142808 
L 169.701687 281.48611 
L 170.026667 264.253651 
L 170.351646 266.728248 
L 170.676626 281.297979 
L 171.326585 271.231952 
L 171.651564 245.204933 
L 171.976544 257.451469 
L 172.301523 247.768265 
L 172.626503 269.334944 
L 172.951482 258.933641 
L 173.276462 274.629227 
L 173.601441 272.458117 
L 174.2514 285.152575 
L 174.57638 265.742823 
L 174.90136 256.236317 
L 175.226339 280.375455 
L 175.551319 266.83809 
L 175.876298 275.504113 
L 176.201278 273.649784 
L 176.526257 254.913718 
L 176.851237 285.579109 
L 177.501196 272.797601 
L 177.826175 259.901668 
L 178.151155 274.612978 
L 178.476134 283.141338 
L 178.801114 268.91769 
L 179.126093 273.914161 
L 179.451073 254.766685 
L 179.776052 288.163574 
L 180.101032 287.783621 
L 180.426011 269.287479 
L 180.750991 285.063549 
L 181.40095 213.347101 
L 181.72593 262.222482 
L 182.050909 270.731113 
L 182.375889 283.119597 
L 182.700868 241.848012 
L 183.025848 232.778573 
L 183.350827 284.136215 
L 183.675807 280.535452 
L 184.000786 270.880994 
L 184.325766 265.928977 
L 184.650745 280.642067 
L 184.975725 276.198917 
L 185.300704 273.743325 
L 185.625684 263.761847 
L 185.950663 262.747671 
L 186.275643 288.178177 
L 186.600622 277.488165 
L 186.925602 276.320189 
L 187.250581 277.240107 
L 187.575561 261.567385 
L 187.900541 275.235036 
L 188.22552 200.312654 
L 188.5505 174.955617 
L 188.875479 275.693284 
L 189.200459 282.099564 
L 189.525438 279.53034 
L 189.850418 275.677186 
L 190.175397 261.843099 
L 190.500377 271.747294 
L 190.825356 223.245438 
L 191.150336 275.257231 
L 191.475315 256.833982 
L 191.800295 210.330874 
L 192.125274 271.900998 
L 192.450254 279.417953 
L 192.775233 277.171171 
L 193.100213 270.953649 
L 193.425192 287.650218 
L 193.750172 277.592462 
L 194.075152 232.890413 
L 194.400131 267.596073 
L 194.725111 264.666178 
L 195.05009 281.280941 
L 195.37507 290.0123 
L 195.700049 270.875949 
L 196.025029 279.510935 
L 196.350008 263.396557 
L 196.674988 255.75827 
L 196.999967 253.131096 
L 197.324947 195.38121 
L 197.649926 270.848924 
L 197.974906 205.371159 
L 198.299885 245.031314 
L 198.624865 262.764393 
L 198.949844 262.210491 
L 199.274824 260.289653 
L 199.599803 278.648638 
L 199.924783 244.900103 
L 200.574742 259.458232 
L 200.899722 218.884132 
L 201.224701 264.398465 
L 201.549681 185.341739 
L 201.87466 235.445918 
L 202.19964 261.763603 
L 202.524619 222.953063 
L 202.849599 271.513069 
L 203.174578 269.914909 
L 203.824537 227.659015 
L 204.149517 222.975007 
L 204.474496 233.463876 
L 204.799476 256.611149 
L 205.124455 236.384773 
L 205.449435 244.191449 
L 205.774414 229.566144 
L 206.099394 254.037344 
L 206.424373 193.738257 
L 206.749353 207.373659 
L 207.074333 241.593695 
L 207.399312 237.988856 
L 207.724292 242.126049 
L 208.049271 263.342225 
L 208.374251 265.885057 
L 208.69923 250.981622 
L 209.02421 256.424098 
L 209.349189 231.267197 
L 209.674169 194.536117 
L 209.999148 243.928178 
L 210.324128 221.340869 
L 210.649107 224.370987 
L 210.974087 235.16397 
L 211.299066 221.377377 
L 211.624046 226.704488 
L 211.949025 253.681015 
L 212.598984 250.774939 
L 212.923964 249.413565 
L 213.248943 245.223178 
L 213.573923 203.559536 
L 213.898903 222.674021 
L 214.223882 224.258805 
L 214.548862 248.35808 
L 214.873841 248.764062 
L 215.198821 198.288805 
L 215.5238 169.996362 
L 215.84878 203.010816 
L 216.173759 206.332526 
L 216.498739 228.676175 
L 216.823718 242.111405 
L 217.148698 246.036602 
L 217.473677 218.855023 
L 217.798657 204.941192 
L 218.123636 151.281744 
L 218.448616 254.574953 
L 218.773595 245.576714 
L 219.098575 194.338725 
L 219.748534 265.993581 
L 220.073514 247.426882 
L 220.398493 238.572318 
L 221.048452 276.883504 
L 221.373432 258.072385 
L 221.698411 246.707332 
L 222.023391 266.078103 
L 222.34837 221.977718 
L 222.67335 255.103563 
L 222.998329 233.600238 
L 223.323309 286.1865 
L 223.973268 209.924861 
L 224.298247 257.179186 
L 224.623227 222.315032 
L 224.948206 266.790186 
L 225.273186 226.255708 
L 225.598165 270.712594 
L 225.923145 281.564717 
L 226.248124 259.293247 
L 226.573104 212.634739 
L 226.898084 246.63205 
L 227.223063 227.515299 
L 227.548043 249.859529 
L 227.873022 242.514084 
L 228.198002 166.174795 
L 228.522981 228.781405 
L 228.847961 228.588582 
L 229.17294 217.442402 
L 229.49792 264.943918 
L 229.822899 266.674905 
L 230.147879 231.546104 
L 230.472858 272.484608 
L 230.797838 200.041065 
L 231.122817 247.431509 
L 231.447797 180.554119 
L 231.772776 264.554613 
L 232.097756 210.980467 
L 232.422735 237.749539 
L 232.747715 252.811504 
L 233.072695 205.665098 
L 233.397674 235.058925 
L 233.722654 217.090154 
L 234.047633 234.528418 
L 234.372613 233.723542 
L 235.022572 267.717714 
L 235.347551 248.839129 
L 235.672531 258.117518 
L 235.99751 220.484069 
L 236.32249 204.752695 
L 236.647469 239.996993 
L 236.972449 205.676255 
L 237.297428 235.554744 
L 237.622408 192.519811 
L 237.947387 199.397654 
L 238.597346 261.456644 
L 238.922326 216.397664 
L 239.247305 229.762022 
L 239.572285 254.383171 
L 239.897265 235.288972 
L 240.222244 189.075473 
L 240.547224 255.359335 
L 240.872203 256.679893 
L 241.197183 242.902956 
L 241.522162 216.686168 
L 242.172121 228.91647 
L 242.497101 273.075999 
L 242.82208 260.233922 
L 243.14706 242.195564 
L 243.472039 248.437274 
L 243.797019 244.943302 
L 244.121998 163.191706 
L 244.446978 195.269946 
L 244.771957 131.507871 
L 245.421916 265.505104 
L 245.746896 213.134731 
L 246.071876 218.375056 
L 246.396855 245.491279 
L 246.721835 138.185609 
L 247.046814 209.941777 
L 247.371794 211.084395 
L 247.696773 161.940005 
L 248.021753 271.820682 
L 248.346732 203.873708 
L 248.671712 249.020515 
L 249.321671 223.218961 
L 249.64665 210.424195 
L 249.97163 254.340395 
L 250.296609 235.798382 
L 250.621589 246.68956 
L 250.946568 204.356117 
L 251.271548 186.56023 
L 251.596527 254.905765 
L 251.921507 219.061706 
L 252.246486 249.515604 
L 252.571466 211.936021 
L 252.896446 280.305066 
L 253.221425 227.657523 
L 253.546405 231.166099 
L 253.871384 177.711024 
L 254.196364 237.295253 
L 254.521343 228.276506 
L 254.846323 192.589655 
L 255.171302 219.232206 
L 255.496282 223.425698 
L 255.821261 197.326708 
L 256.146241 189.924775 
L 256.47122 215.792591 
L 256.7962 176.62228 
L 257.121179 235.037125 
L 257.446159 216.901387 
L 257.771138 181.925654 
L 258.421097 265.744876 
L 258.746077 228.278079 
L 259.071057 224.605586 
L 259.396036 193.0513 
L 259.721016 207.866748 
L 260.045995 252.873061 
L 260.370975 206.066119 
L 261.670893 249.836048 
L 261.995872 250.930041 
L 262.320852 219.646286 
L 262.645831 240.489797 
L 262.970811 234.97221 
L 263.29579 232.526 
L 263.62077 181.771853 
L 263.945749 228.926933 
L 264.270729 182.661069 
L 264.595708 234.258897 
L 264.920688 221.586917 
L 265.245667 255.214245 
L 265.570647 172.621697 
L 265.895627 231.038542 
L 266.220606 137.443786 
L 266.545586 150.309437 
L 266.870565 232.031185 
L 267.195545 120.069198 
L 267.520524 169.373697 
L 268.170483 193.664196 
L 268.495463 242.871954 
L 268.820442 198.440505 
L 269.145422 245.57871 
L 269.470401 223.224458 
L 269.795381 262.104588 
L 270.12036 222.798118 
L 270.44534 168.707909 
L 270.770319 186.427977 
L 271.095299 211.31351 
L 271.420278 256.287082 
L 271.745258 225.699444 
L 272.070238 168.726618 
L 272.395217 236.451309 
L 272.720197 190.126168 
L 273.045176 193.001157 
L 273.370156 207.5759 
L 273.695135 208.733721 
L 274.020115 173.157494 
L 274.345094 198.046379 
L 274.670074 242.430825 
L 274.995053 216.921754 
L 275.320033 226.502531 
L 275.645012 247.068529 
L 275.969992 226.131318 
L 276.294971 266.284178 
L 276.619951 238.848683 
L 277.26991 203.032679 
L 277.919869 273.443425 
L 278.244848 252.160091 
L 278.569828 260.44312 
L 278.894808 249.938732 
L 279.219787 243.511985 
L 279.869746 222.691567 
L 280.194726 240.049425 
L 280.519705 271.168663 
L 280.844685 215.81595 
L 281.169664 233.979873 
L 281.494644 190.616021 
L 281.819623 258.580975 
L 282.794562 122.362527 
L 283.444521 269.711265 
L 283.7695 230.106068 
L 284.419459 217.023149 
L 284.744439 263.044127 
L 285.069419 259.088595 
L 285.394398 253.528043 
L 286.044357 160.482089 
L 286.369337 260.263855 
L 286.694316 233.871598 
L 287.019296 234.794933 
L 287.344275 237.449215 
L 287.669255 161.400513 
L 287.994234 266.702361 
L 288.319214 234.636041 
L 288.644193 243.896564 
L 288.969173 268.177296 
L 289.294152 208.705234 
L 289.619132 252.476605 
L 289.944111 221.290022 
L 290.269091 216.658312 
L 290.59407 252.085385 
L 291.244029 227.893271 
L 291.893989 268.087549 
L 292.218968 244.192382 
L 292.543948 196.330933 
L 292.868927 215.226495 
L 293.193907 257.680854 
L 293.843866 226.541207 
L 294.168845 200.458055 
L 294.493825 240.937789 
L 294.818804 215.151181 
L 295.143784 257.636384 
L 295.468763 210.539397 
L 295.793743 236.68561 
L 296.118722 148.898889 
L 296.443702 239.194523 
L 296.768681 237.775274 
L 297.093661 230.243318 
L 297.41864 232.189375 
L 297.74362 221.40225 
L 298.0686 243.002175 
L 298.393579 241.76178 
L 298.718559 217.667118 
L 299.043538 273.891809 
L 299.368518 239.092154 
L 300.018477 239.953279 
L 300.343456 246.525328 
L 300.668436 265.804473 
L 300.993415 252.821061 
L 301.318395 249.022403 
L 301.643374 271.797219 
L 301.968354 249.650146 
L 302.293333 264.817397 
L 302.618313 218.413411 
L 302.943292 221.382306 
L 303.268272 226.01923 
L 303.593251 256.803034 
L 303.918231 248.508564 
L 304.24321 255.485982 
L 304.89317 215.927061 
L 305.218149 252.264762 
L 305.543129 252.425173 
L 306.193088 233.251348 
L 306.518067 257.191758 
L 306.843047 264.359897 
L 307.168026 230.399309 
L 307.493006 223.34987 
L 307.817985 248.036055 
L 308.142965 192.509384 
L 308.467944 242.259618 
L 308.792924 248.855954 
L 309.117903 266.88409 
L 309.442883 248.572915 
L 309.767862 256.189873 
L 310.092842 272.998612 
L 310.417821 265.623037 
L 310.742801 261.122286 
L 311.067781 249.862692 
L 311.39276 263.413811 
L 311.71774 254.838471 
L 312.042719 228.209366 
L 312.367699 236.95446 
L 312.692678 267.896359 
L 313.017658 251.259853 
L 313.342637 259.215337 
L 313.667617 258.081722 
L 313.992596 262.899086 
L 314.317576 259.616052 
L 314.967535 292.596533 
L 315.617494 216.431928 
L 315.942473 285.373116 
L 316.267453 278.565846 
L 316.592432 276.63689 
L 316.917412 267.841059 
L 317.242391 253.712755 
L 317.567371 276.851038 
L 317.892351 282.385087 
L 318.21733 269.731637 
L 318.54231 285.967779 
L 318.867289 226.251454 
L 319.192269 271.185693 
L 319.517248 269.837698 
L 319.842228 269.661279 
L 320.167207 279.035238 
L 320.492187 274.821761 
L 320.817166 250.973701 
L 321.142146 273.977933 
L 321.467125 270.242384 
L 321.792105 286.58778 
L 322.117084 276.728595 
L 322.442064 275.606056 
L 322.767043 268.483509 
L 323.092023 285.263792 
L 323.417002 280.809575 
L 323.741982 278.821283 
L 324.066962 279.782834 
L 324.391941 262.910036 
L 324.716921 269.251199 
L 325.0419 272.858863 
L 325.36688 285.522487 
L 325.691859 288.717258 
L 326.016839 269.273096 
L 326.341818 268.704601 
L 326.991777 274.528097 
L 327.316757 281.17549 
L 327.641736 276.99457 
L 327.966716 225.838659 
L 328.291695 275.507774 
L 328.616675 274.419443 
L 328.941654 264.268314 
L 329.591613 273.96204 
L 329.916593 264.49438 
L 330.241572 250.58121 
L 330.566552 269.280101 
L 331.216511 284.073923 
L 331.541491 280.573872 
L 331.86647 272.633673 
L 332.19145 246.10567 
L 332.516429 286.116706 
L 332.841409 273.360464 
L 333.166388 270.121958 
L 333.491368 283.606072 
L 333.816347 276.670152 
L 334.141327 285.833881 
L 334.791286 278.78273 
L 335.116265 292.284593 
L 335.441245 263.544367 
L 335.766224 290.892514 
L 336.091204 268.787141 
L 336.416183 285.393461 
L 336.741163 276.366982 
L 337.391122 291.389498 
L 337.716102 254.112636 
L 338.041081 287.90301 
L 338.366061 278.315091 
L 338.69104 279.303731 
L 339.01602 277.016656 
L 339.340999 203.599766 
L 339.665979 275.005669 
L 339.990958 270.659442 
L 340.315938 280.545121 
L 340.640917 281.964271 
L 340.965897 251.778545 
L 341.290876 250.439332 
L 341.615856 284.39746 
L 341.940835 277.002466 
L 342.265815 278.276846 
L 342.590794 261.433132 
L 342.915774 281.498618 
L 343.240753 285.172532 
L 343.565733 277.890673 
L 343.890713 278.298683 
L 344.215692 276.671368 
L 344.540672 280.758246 
L 344.865651 268.572078 
L 345.190631 273.828467 
L 345.51561 286.346476 
L 345.84059 273.743859 
L 346.165569 279.394134 
L 346.490549 279.984911 
L 347.140508 251.174517 
L 347.465487 282.180285 
L 347.790467 281.70161 
L 348.115446 289.345079 
L 348.440426 254.142984 
L 348.765405 289.392811 
L 349.415364 275.748787 
L 349.740344 260.103489 
L 350.065324 252.797833 
L 350.390303 272.799971 
L 350.715283 263.772427 
L 351.040262 285.762488 
L 351.365242 274.544382 
L 351.690221 248.613001 
L 352.015201 289.538747 
L 352.34018 276.706119 
L 352.66516 284.544126 
L 352.990139 277.087448 
L 353.315119 246.089489 
L 353.640098 283.538543 
L 353.965078 284.773442 
L 354.290057 274.212266 
L 354.615037 271.444471 
L 354.940016 274.882327 
L 355.264996 284.692887 
L 355.589975 274.507606 
L 355.914955 282.401564 
L 356.239934 268.568608 
L 356.564914 249.94682 
L 356.889894 271.123805 
L 357.539853 274.95309 
L 357.864832 275.690146 
L 358.189812 281.839937 
L 358.839771 269.111072 
L 359.16475 273.860183 
L 359.48973 281.310083 
L 359.814709 270.497053 
L 360.139689 267.730239 
L 360.464668 255.097056 
L 360.789648 269.968574 
L 361.114627 271.751793 
L 361.439607 287.004715 
L 361.764586 240.931012 
L 362.089566 278.182694 
L 362.414545 260.204448 
L 362.739525 282.938229 
L 363.064505 283.156611 
L 363.389484 277.714477 
L 363.714464 287.613686 
L 364.039443 286.751531 
L 364.364423 279.792863 
L 364.689402 278.46234 
L 365.014382 280.553319 
L 365.339361 285.673146 
L 365.664341 285.187787 
L 365.98932 280.562202 
L 366.3143 272.911433 
L 366.639279 260.399226 
L 366.964259 263.796776 
L 367.289238 285.070001 
L 367.614218 277.65705 
L 367.939197 273.491353 
L 368.589156 284.986324 
L 369.239115 280.846588 
L 369.564095 280.986387 
L 369.889075 280.550127 
L 370.214054 274.177614 
L 370.864013 286.068733 
L 371.188993 279.48236 
L 371.513972 260.8457 
L 371.838952 282.221036 
L 372.163931 288.448896 
L 372.488911 280.871148 
L 372.81389 285.442185 
L 373.463849 272.102536 
L 373.788829 271.306223 
L 374.113808 279.5802 
L 374.438788 276.625846 
L 374.763767 287.715285 
L 375.088747 277.647132 
L 375.413726 271.924898 
L 375.738706 254.265193 
L 376.063686 263.354031 
L 376.388665 276.641757 
L 376.713645 279.800409 
L 377.038624 269.691587 
L 377.363604 286.009134 
L 377.688583 287.660256 
L 378.013563 280.929176 
L 378.338542 281.903954 
L 378.663522 291.731949 
L 378.988501 270.287087 
L 379.313481 269.036688 
L 379.63846 279.160292 
L 379.96344 295.33027 
L 380.288419 274.794576 
L 380.938378 295.488 
L 381.263358 288.259128 
L 381.588337 292.692961 
L 381.913317 282.353356 
L 382.238296 283.110229 
L 382.563276 285.013779 
L 382.888256 274.449406 
L 383.213235 283.794738 
L 383.538215 283.130521 
L 383.863194 287.404034 
L 384.188174 290.035398 
L 384.513153 283.370477 
L 384.838133 289.650617 
L 385.163112 284.565661 
L 385.488092 255.03754 
L 385.813071 289.159985 
L 386.138051 273.142418 
L 386.46303 272.108013 
L 386.78801 272.512062 
L 387.112989 285.066024 
L 387.437969 286.88691 
L 387.762948 257.707512 
L 388.087928 277.276599 
L 388.412907 267.308738 
L 388.737887 281.859845 
L 389.062867 290.828968 
L 389.387846 286.317486 
L 389.712826 275.416475 
L 390.037805 258.75134 
L 390.362785 282.979104 
L 390.687764 289.631858 
L 391.012744 285.78842 
L 391.337723 287.857041 
L 391.662703 279.931565 
L 391.987682 267.660181 
L 392.637641 288.555609 
L 392.962621 286.453327 
L 393.2876 287.835942 
L 393.61258 290.237521 
L 393.937559 277.0298 
L 394.262539 277.670708 
L 394.912498 288.675098 
L 395.237477 269.87773 
L 395.562457 277.459452 
L 395.887437 272.379484 
L 396.212416 283.342854 
L 396.537396 280.83674 
L 396.862375 272.396396 
L 397.187355 282.313889 
L 397.512334 286.367094 
L 397.837314 285.09208 
L 398.162293 294.865888 
L 398.487273 280.49958 
L 398.487273 280.49958 
" clip-path="url(#p033fcc702b)" style="fill: none; stroke: #1f77b4; stroke-width: 1.5; stroke-linecap: square"/>
   </g>
   <g id="line2d_15">
    <path d="M 73.832727 276.92806 
L 74.157707 289.608903 
L 74.482686 288.17883 
L 74.807666 288.63384 
L 75.132645 287.78312 
L 75.457625 277.732594 
L 75.782604 275.490561 
L 76.107584 289.69788 
L 76.432563 285.763537 
L 76.757543 274.913133 
L 77.082523 280.224289 
L 77.407502 279.407361 
L 77.732482 277.097003 
L 78.057461 287.277398 
L 78.382441 290.032649 
L 79.0324 288.556331 
L 79.357379 286.078739 
L 80.007338 282.704233 
L 80.332318 277.715232 
L 80.657297 284.231594 
L 80.982277 285.950971 
L 81.307256 289.067994 
L 81.632236 289.196859 
L 81.957215 291.395614 
L 82.282195 291.148105 
L 82.607174 284.149316 
L 82.932154 288.728732 
L 83.257133 288.02095 
L 84.232072 290.996289 
L 84.557052 285.152332 
L 84.882031 282.829203 
L 85.53199 293.785713 
L 85.85697 291.700077 
L 86.181949 288.455991 
L 86.506929 292.070562 
L 86.831908 280.172067 
L 87.156888 283.761705 
L 87.481867 285.025016 
L 87.806847 283.233205 
L 88.131826 289.64823 
L 88.781785 283.214138 
L 89.106765 284.582817 
L 89.431744 281.735158 
L 89.756724 277.152827 
L 90.081704 285.676983 
L 90.406683 285.935622 
L 90.731663 282.636655 
L 91.056642 283.145332 
L 91.381622 287.809227 
L 91.706601 271.733046 
L 92.031581 285.507926 
L 92.35656 285.800495 
L 93.006519 291.034362 
L 93.331499 292.20847 
L 93.656478 292.470931 
L 93.981458 282.612022 
L 94.306437 289.510947 
L 94.631417 290.60331 
L 94.956396 284.340238 
L 95.281376 290.887059 
L 95.606355 290.07715 
L 95.931335 285.908735 
L 96.256314 291.469873 
L 96.581294 294.022654 
L 97.231253 282.573301 
L 97.556233 293.367249 
L 97.881212 292.650772 
L 98.531171 290.285786 
L 98.856151 290.247468 
L 99.18113 290.992382 
L 99.50611 293.349 
L 99.831089 290.051921 
L 100.156069 292.044409 
L 100.481048 292.100755 
L 100.806028 288.875399 
L 101.131007 290.250643 
L 101.455987 292.423228 
L 101.780966 293.830341 
L 102.105946 288.702122 
L 102.430925 285.464282 
L 102.755905 278.94593 
L 103.080885 287.095834 
L 103.405864 292.132039 
L 103.730844 291.869446 
L 104.055823 292.551201 
L 104.380803 289.979732 
L 104.705782 289.46864 
L 105.030762 289.763242 
L 105.355741 286.826218 
L 105.680721 282.365452 
L 106.0057 279.664551 
L 106.33068 287.796272 
L 106.655659 282.512638 
L 106.980639 288.703075 
L 107.305618 288.467684 
L 107.630598 288.819498 
L 107.955577 288.541506 
L 108.280557 286.898541 
L 108.605536 289.809658 
L 108.930516 288.036192 
L 109.255495 285.315352 
L 109.580475 277.581846 
L 109.905455 282.871191 
L 110.230434 279.424351 
L 110.555414 284.135948 
L 110.880393 279.099692 
L 111.205373 285.731907 
L 111.530352 282.162435 
L 111.855332 281.785455 
L 112.180311 280.146339 
L 112.505291 288.156178 
L 112.83027 281.038326 
L 113.15525 284.016167 
L 113.480229 289.033145 
L 113.805209 278.781457 
L 114.130188 282.610028 
L 114.455168 288.123931 
L 114.780147 288.273355 
L 115.105127 287.542718 
L 115.430106 291.543867 
L 116.080066 285.046393 
L 116.405045 283.909847 
L 116.730025 284.618446 
L 117.055004 291.523452 
L 117.379984 286.912229 
L 117.704963 289.002219 
L 118.029943 290.103904 
L 118.354922 288.136234 
L 118.679902 276.580684 
L 119.004881 286.396995 
L 119.329861 283.007723 
L 119.97982 287.809789 
L 120.304799 286.624959 
L 120.954758 277.173796 
L 121.279738 287.685954 
L 121.604717 267.69157 
L 121.929697 287.68682 
L 122.254676 287.611185 
L 122.904636 282.040154 
L 123.229615 287.617625 
L 123.554595 280.754919 
L 123.879574 286.066461 
L 124.529533 270.143053 
L 124.854513 280.649651 
L 125.179492 283.055209 
L 125.504472 282.213376 
L 125.829451 262.637302 
L 126.154431 276.943748 
L 126.47941 274.589776 
L 126.80439 286.530567 
L 127.129369 283.932923 
L 127.779328 289.378166 
L 128.104308 287.921492 
L 128.429287 288.472802 
L 128.754267 289.709429 
L 129.079247 285.303166 
L 129.404226 293.995843 
L 130.054185 285.749511 
L 130.379165 287.734363 
L 130.704144 288.195754 
L 131.029124 291.443301 
L 131.354103 278.996168 
L 131.679083 291.690793 
L 132.004062 292.657533 
L 132.329042 281.095196 
L 132.654021 284.132486 
L 132.979001 288.461372 
L 133.30398 282.522527 
L 133.62896 287.212892 
L 133.953939 284.813597 
L 134.603898 292.42824 
L 134.928878 285.579341 
L 135.253857 292.302641 
L 135.578837 292.382328 
L 135.903817 288.700752 
L 136.228796 293.351711 
L 136.553776 291.652485 
L 136.878755 285.767645 
L 137.203735 292.433814 
L 137.528714 289.135866 
L 137.853694 289.52042 
L 138.178673 283.770278 
L 138.503653 290.794334 
L 139.153612 286.55659 
L 139.478591 280.415049 
L 139.803571 286.673827 
L 140.12855 282.947191 
L 140.45353 283.204702 
L 140.778509 282.792269 
L 141.103489 281.197178 
L 141.428468 287.727204 
L 142.078428 293.61528 
L 142.403407 282.689314 
L 142.728387 283.637138 
L 143.053366 270.188068 
L 143.378346 281.132244 
L 143.703325 275.680158 
L 144.028305 284.865556 
L 144.353284 284.959824 
L 144.678264 283.256358 
L 145.653202 288.478708 
L 145.978182 271.546162 
L 146.303161 271.40507 
L 146.628141 284.605481 
L 146.95312 255.323719 
L 147.2781 283.243062 
L 147.928059 264.512202 
L 148.253038 270.469598 
L 148.578018 283.074661 
L 148.902998 281.956768 
L 149.227977 279.374372 
L 149.552957 286.836502 
L 149.877936 281.663887 
L 150.202916 285.863808 
L 150.527895 282.896985 
L 150.852875 277.179473 
L 151.177854 283.990244 
L 151.502834 286.959022 
L 151.827813 283.932689 
L 152.152793 286.657036 
L 152.477772 287.094291 
L 152.802752 284.489785 
L 153.127731 283.424558 
L 153.452711 276.826057 
L 153.77769 279.842738 
L 154.10267 271.860175 
L 154.427649 269.43665 
L 154.752629 279.23696 
L 155.077609 280.28 
L 155.402588 266.174575 
L 155.727568 274.257031 
L 156.052547 262.721937 
L 156.377527 286.048652 
L 156.702506 277.34065 
L 157.027486 264.064469 
L 157.352465 276.215725 
L 157.677445 269.315365 
L 158.327404 279.295886 
L 158.652383 275.906326 
L 158.977363 268.906616 
L 159.302342 267.994636 
L 159.627322 277.320522 
L 159.952301 280.66669 
L 160.277281 265.709456 
L 160.60226 280.19677 
L 160.92724 271.900286 
L 161.252219 268.130007 
L 161.577199 279.260878 
L 161.902179 274.986048 
L 162.227158 288.245832 
L 162.552138 285.041908 
L 162.877117 280.527565 
L 163.202097 269.781972 
L 163.852056 258.065626 
L 164.177035 276.250624 
L 164.502015 276.037243 
L 164.826994 274.319179 
L 165.151974 277.970563 
L 165.476953 259.264377 
L 165.801933 273.894415 
L 166.126912 282.107201 
L 166.451892 285.036835 
L 166.776871 284.686153 
L 167.101851 264.341749 
L 167.42683 267.721632 
L 167.75181 284.419055 
L 168.07679 278.668866 
L 168.401769 286.388555 
L 168.726749 277.298289 
L 169.051728 284.835505 
L 169.376708 280.163942 
L 169.701687 282.91316 
L 170.026667 283.441469 
L 170.351646 278.059388 
L 170.676626 284.364087 
L 171.001605 272.69897 
L 171.326585 275.587385 
L 171.651564 264.033154 
L 171.976544 272.280234 
L 172.301523 275.004088 
L 172.626503 283.727073 
L 172.951482 284.264714 
L 173.276462 287.579431 
L 173.601441 267.579698 
L 174.2514 288.745531 
L 174.57638 286.314627 
L 174.90136 281.384055 
L 175.226339 285.64599 
L 175.551319 281.250957 
L 175.876298 286.499535 
L 176.201278 281.1219 
L 176.526257 281.920723 
L 176.851237 279.651544 
L 177.176216 283.13656 
L 177.501196 285.243932 
L 177.826175 281.674666 
L 178.151155 281.166961 
L 178.476134 285.245272 
L 178.801114 275.343515 
L 179.126093 269.083432 
L 179.451073 247.401003 
L 179.776052 286.452154 
L 180.101032 287.128669 
L 180.426011 260.096239 
L 180.750991 286.47124 
L 181.075971 276.146152 
L 181.40095 285.88482 
L 182.050909 282.129142 
L 182.375889 291.025666 
L 182.700868 280.441743 
L 183.025848 257.088146 
L 183.350827 287.695983 
L 183.675807 288.104796 
L 184.000786 282.84436 
L 184.325766 282.902414 
L 184.650745 289.688344 
L 184.975725 277.882657 
L 185.300704 289.378263 
L 185.625684 283.37457 
L 185.950663 282.017343 
L 186.275643 286.964782 
L 186.600622 286.793802 
L 186.925602 286.060406 
L 187.575561 279.766793 
L 187.900541 285.327286 
L 188.5505 252.272918 
L 188.875479 268.524246 
L 189.200459 277.808174 
L 189.525438 272.724581 
L 190.175397 286.948929 
L 190.500377 285.418711 
L 190.825356 280.455481 
L 191.150336 290.126344 
L 191.475315 282.981907 
L 191.800295 282.444423 
L 192.125274 283.185334 
L 192.450254 286.790829 
L 192.775233 287.82928 
L 193.100213 287.478609 
L 193.425192 284.654159 
L 193.750172 291.336246 
L 194.075152 274.594722 
L 194.400131 282.597948 
L 194.725111 281.327992 
L 195.05009 286.052908 
L 195.37507 275.724554 
L 195.700049 280.551873 
L 196.025029 280.942073 
L 196.350008 279.279112 
L 196.674988 246.671581 
L 196.999967 276.580519 
L 197.324947 261.660207 
L 197.649926 278.470821 
L 197.974906 260.315571 
L 198.299885 263.878056 
L 198.624865 284.150286 
L 198.949844 281.365169 
L 199.274824 273.950858 
L 199.599803 275.028434 
L 200.249762 247.04274 
L 200.574742 271.535978 
L 200.899722 276.02335 
L 201.224701 271.761222 
L 201.549681 261.938546 
L 201.87466 281.877152 
L 202.19964 271.671441 
L 202.524619 249.760342 
L 202.849599 255.268317 
L 203.174578 276.557811 
L 203.499558 263.913669 
L 203.824537 262.591183 
L 204.149517 275.734431 
L 204.474496 266.149044 
L 204.799476 276.712623 
L 205.124455 260.970155 
L 205.449435 272.152922 
L 205.774414 231.177027 
L 206.099394 269.220405 
L 206.424373 245.288452 
L 206.749353 264.101511 
L 207.074333 269.449211 
L 207.399312 278.750701 
L 207.724292 256.11751 
L 208.049271 274.728608 
L 208.374251 273.877612 
L 208.69923 256.623698 
L 209.349189 273.111914 
L 209.674169 245.953663 
L 210.324128 264.817832 
L 210.649107 259.775377 
L 210.974087 274.733792 
L 211.299066 257.560358 
L 211.624046 257.583262 
L 211.949025 241.910845 
L 212.274005 264.973714 
L 212.598984 242.884504 
L 212.923964 261.163762 
L 213.573923 274.25111 
L 213.898903 262.447854 
L 214.223882 264.674379 
L 214.548862 282.637264 
L 214.873841 267.35686 
L 215.198821 242.498822 
L 215.5238 236.441328 
L 216.173759 261.558177 
L 216.498739 247.927964 
L 216.823718 256.463328 
L 217.148698 254.7738 
L 217.473677 239.05406 
L 217.798657 241.254267 
L 218.123636 246.540784 
L 218.448616 269.581655 
L 218.773595 261.821497 
L 219.098575 243.167998 
L 219.423554 266.131374 
L 219.748534 258.385962 
L 220.073514 260.608339 
L 220.398493 241.789988 
L 220.723473 264.913115 
L 221.048452 264.551914 
L 221.373432 272.12334 
L 221.698411 265.313773 
L 222.023391 267.030354 
L 222.34837 234.75199 
L 222.67335 227.719292 
L 222.998329 261.599941 
L 223.323309 272.945416 
L 223.973268 282.521585 
L 224.298247 243.3726 
L 224.623227 264.511956 
L 224.948206 252.2588 
L 225.273186 270.174336 
L 225.598165 280.936736 
L 225.923145 281.965689 
L 226.248124 281.719272 
L 226.573104 273.083551 
L 226.898084 272.9706 
L 227.223063 271.087806 
L 227.548043 276.556419 
L 227.873022 272.669131 
L 228.198002 234.307306 
L 228.522981 270.698309 
L 228.847961 270.755928 
L 229.17294 268.792095 
L 229.49792 284.30438 
L 229.822899 285.660867 
L 230.147879 236.068299 
L 230.472858 275.951393 
L 230.797838 263.767092 
L 231.122817 190.463077 
L 231.447797 234.00066 
L 231.772776 261.743089 
L 232.097756 250.62135 
L 232.422735 247.805084 
L 232.747715 280.024343 
L 233.072695 263.515354 
L 233.722654 248.848154 
L 234.372613 269.208876 
L 234.697592 272.706601 
L 235.022572 263.820333 
L 235.347551 277.426121 
L 235.672531 254.256397 
L 235.99751 262.984501 
L 236.32249 236.997952 
L 236.647469 256.713504 
L 236.972449 256.332602 
L 237.297428 241.78116 
L 237.622408 245.910522 
L 237.947387 239.401842 
L 238.597346 254.042328 
L 238.922326 247.132974 
L 239.247305 248.583536 
L 239.572285 264.107986 
L 239.897265 247.972479 
L 240.222244 244.321494 
L 240.547224 282.596294 
L 240.872203 267.710759 
L 241.197183 276.303589 
L 241.522162 244.775771 
L 241.847142 266.296525 
L 242.497101 237.332193 
L 242.82208 267.077546 
L 243.472039 237.294018 
L 243.797019 263.687483 
L 244.771957 232.397379 
L 245.096937 247.031345 
L 245.421916 235.936709 
L 245.746896 236.232779 
L 246.071876 249.343919 
L 246.396855 235.349858 
L 246.721835 216.01984 
L 247.046814 224.54648 
L 247.371794 193.896249 
L 247.696773 201.368395 
L 248.346732 181.313596 
L 248.671712 233.841898 
L 248.996691 153.695692 
L 249.321671 184.552666 
L 249.64665 150.239323 
L 249.97163 212.659513 
L 250.296609 223.213287 
L 250.621589 154.201965 
L 250.946568 123.020754 
L 251.271548 196.534066 
L 251.596527 145.590048 
L 252.246486 199.74143 
L 252.571466 187.989037 
L 252.896446 240.700919 
L 253.221425 170.577895 
L 253.546405 218.45228 
L 253.871384 147.30963 
L 254.196364 212.185098 
L 254.521343 227.2027 
L 254.846323 208.673746 
L 255.171302 157.216587 
L 255.496282 197.209424 
L 256.146241 127.011297 
L 256.47122 160.691693 
L 257.121179 204.812075 
L 257.446159 176.75164 
L 257.771138 199.977512 
L 258.096118 239.067831 
L 258.421097 256.303845 
L 259.071057 182.45297 
L 259.396036 208.893569 
L 260.045995 188.177246 
L 260.370975 222.000726 
L 260.695954 193.910812 
L 261.020934 218.662154 
L 261.345913 180.432879 
L 261.670893 245.099072 
L 261.995872 231.659981 
L 262.645831 216.530403 
L 262.970811 193.495174 
L 263.29579 206.789738 
L 263.62077 195.050826 
L 263.945749 157.051377 
L 264.270729 174.405455 
L 264.595708 183.040172 
L 264.920688 237.184205 
L 265.245667 207.159306 
L 265.570647 193.267618 
L 265.895627 161.840232 
L 266.220606 98.867311 
L 266.545586 104.938119 
L 266.870565 193.796611 
L 267.195545 54.437993 
L 267.520524 202.589275 
L 267.845504 163.631839 
L 268.495463 217.184277 
L 268.820442 222.625238 
L 269.145422 191.145636 
L 269.470401 138.055781 
L 269.795381 208.022513 
L 270.12036 220.63778 
L 270.44534 205.026816 
L 270.770319 233.867592 
L 271.095299 202.949435 
L 271.420278 159.070964 
L 271.745258 227.586593 
L 272.070238 66.647436 
L 272.395217 216.284832 
L 272.720197 140.737658 
L 273.045176 120.070856 
L 273.695135 244.9009 
L 274.020115 165.911551 
L 274.345094 53.568 
L 274.670074 210.143513 
L 274.995053 217.997574 
L 275.320033 216.759743 
L 275.969992 253.046256 
L 276.294971 242.95688 
L 276.619951 220.147152 
L 276.94493 214.563808 
L 277.26991 178.890096 
L 277.594889 212.88031 
L 278.244848 233.663229 
L 278.569828 265.187103 
L 278.894808 239.043223 
L 279.219787 241.547661 
L 279.544767 177.886021 
L 280.194726 256.161485 
L 280.519705 244.381532 
L 280.844685 247.839289 
L 281.169664 226.430633 
L 281.494644 248.895914 
L 281.819623 256.604142 
L 282.144603 260.927115 
L 282.469582 215.7635 
L 282.794562 229.532384 
L 283.119541 215.26367 
L 283.444521 275.091487 
L 284.09448 214.774664 
L 284.419459 254.937208 
L 284.744439 265.244469 
L 285.394398 244.672975 
L 285.719378 262.027696 
L 286.044357 177.823243 
L 286.369337 247.78149 
L 286.694316 259.314488 
L 287.019296 247.245017 
L 287.344275 254.781506 
L 287.669255 223.971354 
L 287.994234 264.390245 
L 288.644193 241.454868 
L 288.969173 257.882171 
L 289.294152 239.58992 
L 289.619132 211.843413 
L 289.944111 241.697469 
L 290.269091 240.301944 
L 290.59407 214.156902 
L 290.91905 238.020407 
L 291.244029 185.866793 
L 291.569009 209.861055 
L 291.893989 272.964062 
L 292.543948 203.145286 
L 292.868927 203.379015 
L 293.193907 211.708916 
L 293.518886 242.709047 
L 293.843866 242.4727 
L 294.168845 187.38163 
L 294.493825 228.247825 
L 294.818804 232.456796 
L 295.143784 244.57605 
L 295.468763 186.836397 
L 295.793743 184.554342 
L 296.118722 93.817826 
L 296.443702 199.754426 
L 296.768681 204.608077 
L 297.093661 227.57408 
L 297.41864 189.191676 
L 297.74362 239.845269 
L 298.0686 245.942894 
L 298.393579 215.305649 
L 299.043538 261.403155 
L 299.693497 226.568838 
L 300.018477 200.10561 
L 300.668436 252.085002 
L 301.318395 237.34395 
L 301.643374 257.43732 
L 301.968354 237.720318 
L 302.293333 249.340026 
L 302.618313 227.620943 
L 302.943292 216.040108 
L 303.268272 236.124228 
L 303.593251 246.422189 
L 303.918231 228.1187 
L 304.24321 218.865747 
L 304.56819 239.59635 
L 304.89317 209.483114 
L 305.218149 199.769161 
L 305.543129 202.340009 
L 305.868108 215.923978 
L 306.193088 223.762742 
L 306.518067 224.245498 
L 306.843047 257.47103 
L 307.168026 224.493953 
L 307.493006 218.14713 
L 307.817985 244.374827 
L 308.142965 226.808781 
L 308.467944 244.555664 
L 308.792924 254.765762 
L 309.117903 231.273087 
L 309.442883 234.629845 
L 310.092842 261.970141 
L 310.417821 266.891252 
L 310.742801 246.295127 
L 311.067781 246.546268 
L 311.39276 249.154737 
L 311.71774 259.594553 
L 312.042719 232.46282 
L 312.367699 240.268343 
L 312.692678 263.831688 
L 313.017658 256.139536 
L 313.342637 188.626265 
L 313.667617 248.750643 
L 313.992596 253.332534 
L 314.317576 222.113125 
L 314.967535 266.28355 
L 315.292514 237.949685 
L 315.617494 154.907541 
L 315.942473 276.147821 
L 316.267453 238.079977 
L 316.592432 227.188254 
L 316.917412 248.318963 
L 317.242391 229.872253 
L 317.567371 250.98707 
L 317.892351 245.412815 
L 318.54231 270.983042 
L 318.867289 216.234563 
L 319.192269 246.358784 
L 319.517248 247.773046 
L 319.842228 247.420496 
L 320.167207 267.732077 
L 320.492187 247.808089 
L 320.817166 249.384834 
L 321.142146 253.510402 
L 321.467125 243.054418 
L 321.792105 256.051168 
L 322.442064 233.263456 
L 322.767043 240.128443 
L 323.092023 214.30681 
L 323.417002 258.335863 
L 323.741982 237.364547 
L 324.066962 263.085713 
L 324.391941 184.795217 
L 324.716921 245.022027 
L 325.0419 227.605613 
L 325.691859 253.844666 
L 326.016839 224.331613 
L 326.341818 222.050716 
L 326.666798 221.007898 
L 326.991777 251.360572 
L 327.316757 247.188561 
L 327.641736 235.673289 
L 327.966716 228.997389 
L 328.616675 243.392444 
L 328.941654 176.927466 
L 329.266634 200.223434 
L 329.916593 159.815833 
L 330.241572 237.373424 
L 330.566552 157.72633 
L 330.891532 254.985639 
L 331.216511 250.153847 
L 331.541491 231.610027 
L 331.86647 271.810226 
L 332.19145 241.257476 
L 332.516429 258.608755 
L 332.841409 247.336427 
L 333.166388 240.045311 
L 333.491368 245.213476 
L 334.466306 275.877269 
L 334.791286 265.199033 
L 335.116265 263.476798 
L 335.766224 243.791595 
L 336.091204 244.431806 
L 336.416183 271.457724 
L 336.741163 268.409925 
L 337.066143 267.457918 
L 337.391122 261.009396 
L 337.716102 225.186881 
L 338.366061 274.98108 
L 338.69104 265.556444 
L 339.01602 209.437044 
L 339.990958 275.88524 
L 340.640917 253.269513 
L 340.965897 241.601315 
L 341.290876 254.99858 
L 341.615856 259.924847 
L 341.940835 241.741034 
L 342.265815 259.57907 
L 342.590794 258.004646 
L 342.915774 273.118597 
L 343.240753 256.985863 
L 343.565733 275.687239 
L 343.890713 248.403051 
L 344.215692 240.146125 
L 344.540672 264.233831 
L 344.865651 234.814197 
L 345.190631 261.290736 
L 345.51561 264.093783 
L 345.84059 274.549181 
L 346.165569 273.112356 
L 346.490549 261.930573 
L 346.815528 260.67729 
L 347.140508 261.447184 
L 347.465487 253.741216 
L 347.790467 254.488468 
L 348.115446 271.852429 
L 348.440426 249.474162 
L 348.765405 257.085064 
L 349.090385 277.171101 
L 349.415364 268.75068 
L 349.740344 254.819055 
L 350.065324 264.317227 
L 350.390303 261.300059 
L 350.715283 246.727808 
L 351.040262 265.960957 
L 351.365242 248.74292 
L 351.690221 243.717133 
L 352.015201 271.795311 
L 352.34018 273.525498 
L 352.66516 262.892665 
L 352.990139 261.184929 
L 353.315119 250.113423 
L 353.640098 269.197976 
L 353.965078 274.093216 
L 354.615037 265.992632 
L 354.940016 281.306468 
L 355.264996 283.322252 
L 355.589975 271.350144 
L 355.914955 272.291398 
L 356.239934 270.359463 
L 356.564914 272.29681 
L 356.889894 277.137197 
L 357.214873 243.778546 
L 357.539853 285.099991 
L 357.864832 270.550463 
L 358.189812 267.802554 
L 358.514791 275.778595 
L 358.839771 264.940268 
L 359.16475 267.803469 
L 359.48973 269.024655 
L 359.814709 275.465697 
L 360.139689 273.780899 
L 360.464668 261.597949 
L 360.789648 276.522849 
L 361.114627 282.926169 
L 361.439607 279.156604 
L 361.764586 265.138525 
L 362.089566 275.271601 
L 362.414545 270.534834 
L 362.739525 283.615109 
L 363.389484 280.813518 
L 363.714464 274.424557 
L 364.039443 279.193112 
L 364.364423 273.810143 
L 364.689402 262.066318 
L 365.014382 276.900587 
L 365.339361 280.338561 
L 365.664341 278.423343 
L 365.98932 282.308282 
L 366.3143 278.971166 
L 366.639279 278.135978 
L 366.964259 268.495745 
L 367.289238 272.555 
L 367.614218 267.661506 
L 367.939197 267.943312 
L 368.264177 271.315091 
L 368.589156 276.680926 
L 368.914136 272.016132 
L 369.239115 264.18387 
L 369.564095 268.59496 
L 369.889075 271.310723 
L 370.214054 280.656143 
L 370.539034 281.529923 
L 370.864013 281.387479 
L 371.188993 282.824792 
L 371.513972 258.021404 
L 371.838952 276.971974 
L 372.163931 280.790455 
L 372.488911 267.492488 
L 372.81389 276.626815 
L 373.13887 280.102759 
L 373.463849 268.875579 
L 373.788829 279.769026 
L 374.438788 263.605958 
L 374.763767 273.093838 
L 375.088747 273.049762 
L 375.413726 263.677899 
L 375.738706 221.303613 
L 376.063686 274.174746 
L 376.388665 282.267821 
L 376.713645 275.969992 
L 377.038624 237.589584 
L 377.363604 280.651283 
L 377.688583 278.852657 
L 378.013563 273.954785 
L 378.338542 275.892896 
L 378.663522 288.778453 
L 378.988501 269.320824 
L 379.313481 260.552063 
L 379.63846 285.842392 
L 379.96344 292.218861 
L 380.288419 285.49857 
L 380.613399 287.405781 
L 380.938378 287.742453 
L 381.263358 276.267446 
L 381.588337 288.205292 
L 381.913317 287.17834 
L 382.238296 284.673827 
L 382.563276 289.512459 
L 382.888256 285.17393 
L 383.213235 284.969155 
L 383.538215 289.324331 
L 383.863194 287.551233 
L 384.188174 293.179731 
L 384.513153 281.951125 
L 384.838133 290.557836 
L 385.163112 291.699594 
L 385.488092 286.988623 
L 385.813071 291.362416 
L 386.138051 290.143216 
L 386.46303 290.926943 
L 386.78801 282.685454 
L 387.112989 284.020744 
L 387.437969 290.538912 
L 387.762948 273.024217 
L 388.087928 281.792284 
L 388.412907 284.557759 
L 388.737887 270.892194 
L 389.062867 275.861254 
L 389.387846 288.011844 
L 389.712826 275.911717 
L 390.037805 275.375414 
L 390.362785 284.963973 
L 390.687764 286.027722 
L 391.012744 286.329347 
L 391.337723 285.439447 
L 391.662703 286.769729 
L 391.987682 269.807005 
L 392.312662 285.289178 
L 392.637641 280.991202 
L 393.2876 288.224472 
L 393.61258 287.972286 
L 393.937559 283.880219 
L 394.262539 282.22509 
L 394.587518 285.693717 
L 394.912498 290.731861 
L 395.237477 275.582591 
L 395.562457 283.790666 
L 395.887437 286.073929 
L 396.212416 284.235191 
L 396.537396 287.413822 
L 396.862375 277.195395 
L 397.187355 286.477563 
L 397.512334 285.657701 
L 397.837314 286.562087 
L 398.162293 289.26187 
L 398.487273 286.47178 
L 398.487273 286.47178 
" clip-path="url(#p033fcc702b)" style="fill: none; stroke: #ff7f0e; stroke-width: 1.5; stroke-linecap: square"/>
   </g>
   <g id="patch_3">
    <path d="M 57.6 307.584 
L 57.6 41.472 
" style="fill: none; stroke: #000000; stroke-width: 0.8; stroke-linejoin: miter; stroke-linecap: square"/>
   </g>
   <g id="patch_4">
    <path d="M 414.72 307.584 
L 414.72 41.472 
" style="fill: none; stroke: #000000; stroke-width: 0.8; stroke-linejoin: miter; stroke-linecap: square"/>
   </g>
   <g id="patch_5">
    <path d="M 57.6 307.584 
L 414.72 307.584 
" style="fill: none; stroke: #000000; stroke-width: 0.8; stroke-linejoin: miter; stroke-linecap: square"/>
   </g>
   <g id="patch_6">
    <path d="M 57.6 41.472 
L 414.72 41.472 
" style="fill: none; stroke: #000000; stroke-width: 0.8; stroke-linejoin: miter; stroke-linecap: square"/>
   </g>
   <g id="legend_1">
    <g id="patch_7">
     <path d="M 303.802813 79.3845 
L 407.72 79.3845 
Q 409.72 79.3845 409.72 77.3845 
L 409.72 48.472 
Q 409.72 46.472 407.72 46.472 
L 303.802813 46.472 
Q 301.802813 46.472 301.802813 48.472 
L 301.802813 77.3845 
Q 301.802813 79.3845 303.802813 79.3845 
z
" style="fill: #ffffff; opacity: 0.8; stroke: #cccccc; stroke-linejoin: miter"/>
    </g>
    <g id="line2d_16">
     <path d="M 305.802813 54.570438 
L 315.802813 54.570438 
L 325.802813 54.570438 
" style="fill: none; stroke: #1f77b4; stroke-width: 1.5; stroke-linecap: square"/>
    </g>
    <g id="text_14">
     <!-- schisto_neural -->
     <g transform="translate(333.802813 58.070438)scale(0.1 -0.1)">
      <defs>
       <path id="DejaVuSans-73" d="M 2834 3397 
L 2834 2853 
Q 2591 2978 2328 3040 
Q 2066 3103 1784 3103 
Q 1356 3103 1142 2972 
Q 928 2841 928 2578 
Q 928 2378 1081 2264 
Q 1234 2150 1697 2047 
L 1894 2003 
Q 2506 1872 2764 1633 
Q 3022 1394 3022 966 
Q 3022 478 2636 193 
Q 2250 -91 1575 -91 
Q 1294 -91 989 -36 
Q 684 19 347 128 
L 347 722 
Q 666 556 975 473 
Q 1284 391 1588 391 
Q 1994 391 2212 530 
Q 2431 669 2431 922 
Q 2431 1156 2273 1281 
Q 2116 1406 1581 1522 
L 1381 1569 
Q 847 1681 609 1914 
Q 372 2147 372 2553 
Q 372 3047 722 3315 
Q 1072 3584 1716 3584 
Q 2034 3584 2315 3537 
Q 2597 3491 2834 3397 
z
" transform="scale(0.015625)"/>
       <path id="DejaVuSans-63" d="M 3122 3366 
L 3122 2828 
Q 2878 2963 2633 3030 
Q 2388 3097 2138 3097 
Q 1578 3097 1268 2742 
Q 959 2388 959 1747 
Q 959 1106 1268 751 
Q 1578 397 2138 397 
Q 2388 397 2633 464 
Q 2878 531 3122 666 
L 3122 134 
Q 2881 22 2623 -34 
Q 2366 -91 2075 -91 
Q 1284 -91 818 406 
Q 353 903 353 1747 
Q 353 2603 823 3093 
Q 1294 3584 2113 3584 
Q 2378 3584 2631 3529 
Q 2884 3475 3122 3366 
z
" transform="scale(0.015625)"/>
       <path id="DejaVuSans-68" d="M 3513 2113 
L 3513 0 
L 2938 0 
L 2938 2094 
Q 2938 2591 2744 2837 
Q 2550 3084 2163 3084 
Q 1697 3084 1428 2787 
Q 1159 2491 1159 1978 
L 1159 0 
L 581 0 
L 581 4863 
L 1159 4863 
L 1159 2956 
Q 1366 3272 1645 3428 
Q 1925 3584 2291 3584 
Q 2894 3584 3203 3211 
Q 3513 2838 3513 2113 
z
" transform="scale(0.015625)"/>
       <path id="DejaVuSans-69" d="M 603 3500 
L 1178 3500 
L 1178 0 
L 603 0 
L 603 3500 
z
M 603 4863 
L 1178 4863 
L 1178 4134 
L 603 4134 
L 603 4863 
z
" transform="scale(0.015625)"/>
       <path id="DejaVuSans-74" d="M 1172 4494 
L 1172 3500 
L 2356 3500 
L 2356 3053 
L 1172 3053 
L 1172 1153 
Q 1172 725 1289 603 
Q 1406 481 1766 481 
L 2356 481 
L 2356 0 
L 1766 0 
Q 1100 0 847 248 
Q 594 497 594 1153 
L 594 3053 
L 172 3053 
L 172 3500 
L 594 3500 
L 594 4494 
L 1172 4494 
z
" transform="scale(0.015625)"/>
       <path id="DejaVuSans-6f" d="M 1959 3097 
Q 1497 3097 1228 2736 
Q 959 2375 959 1747 
Q 959 1119 1226 758 
Q 1494 397 1959 397 
Q 2419 397 2687 759 
Q 2956 1122 2956 1747 
Q 2956 2369 2687 2733 
Q 2419 3097 1959 3097 
z
M 1959 3584 
Q 2709 3584 3137 3096 
Q 3566 2609 3566 1747 
Q 3566 888 3137 398 
Q 2709 -91 1959 -91 
Q 1206 -91 779 398 
Q 353 888 353 1747 
Q 353 2609 779 3096 
Q 1206 3584 1959 3584 
z
" transform="scale(0.015625)"/>
       <path id="DejaVuSans-5f" d="M 3263 -1063 
L 3263 -1509 
L -63 -1509 
L -63 -1063 
L 3263 -1063 
z
" transform="scale(0.015625)"/>
       <path id="DejaVuSans-6e" d="M 3513 2113 
L 3513 0 
L 2938 0 
L 2938 2094 
Q 2938 2591 2744 2837 
Q 2550 3084 2163 3084 
Q 1697 3084 1428 2787 
Q 1159 2491 1159 1978 
L 1159 0 
L 581 0 
L 581 3500 
L 1159 3500 
L 1159 2956 
Q 1366 3272 1645 3428 
Q 1925 3584 2291 3584 
Q 2894 3584 3203 3211 
Q 3513 2838 3513 2113 
z
" transform="scale(0.015625)"/>
       <path id="DejaVuSans-65" d="M 3597 1894 
L 3597 1613 
L 953 1613 
Q 991 1019 1311 708 
Q 1631 397 2203 397 
Q 2534 397 2845 478 
Q 3156 559 3463 722 
L 3463 178 
Q 3153 47 2828 -22 
Q 2503 -91 2169 -91 
Q 1331 -91 842 396 
Q 353 884 353 1716 
Q 353 2575 817 3079 
Q 1281 3584 2069 3584 
Q 2775 3584 3186 3129 
Q 3597 2675 3597 1894 
z
M 3022 2063 
Q 3016 2534 2758 2815 
Q 2500 3097 2075 3097 
Q 1594 3097 1305 2825 
Q 1016 2553 972 2059 
L 3022 2063 
z
" transform="scale(0.015625)"/>
       <path id="DejaVuSans-75" d="M 544 1381 
L 544 3500 
L 1119 3500 
L 1119 1403 
Q 1119 906 1312 657 
Q 1506 409 1894 409 
Q 2359 409 2629 706 
Q 2900 1003 2900 1516 
L 2900 3500 
L 3475 3500 
L 3475 0 
L 2900 0 
L 2900 538 
Q 2691 219 2414 64 
Q 2138 -91 1772 -91 
Q 1169 -91 856 284 
Q 544 659 544 1381 
z
M 1991 3584 
L 1991 3584 
z
" transform="scale(0.015625)"/>
       <path id="DejaVuSans-72" d="M 2631 2963 
Q 2534 3019 2420 3045 
Q 2306 3072 2169 3072 
Q 1681 3072 1420 2755 
Q 1159 2438 1159 1844 
L 1159 0 
L 581 0 
L 581 3500 
L 1159 3500 
L 1159 2956 
Q 1341 3275 1631 3429 
Q 1922 3584 2338 3584 
Q 2397 3584 2469 3576 
Q 2541 3569 2628 3553 
L 2631 2963 
z
" transform="scale(0.015625)"/>
       <path id="DejaVuSans-61" d="M 2194 1759 
Q 1497 1759 1228 1600 
Q 959 1441 959 1056 
Q 959 750 1161 570 
Q 1363 391 1709 391 
Q 2188 391 2477 730 
Q 2766 1069 2766 1631 
L 2766 1759 
L 2194 1759 
z
M 3341 1997 
L 3341 0 
L 2766 0 
L 2766 531 
Q 2569 213 2275 61 
Q 1981 -91 1556 -91 
Q 1019 -91 701 211 
Q 384 513 384 1019 
Q 384 1609 779 1909 
Q 1175 2209 1959 2209 
L 2766 2209 
L 2766 2266 
Q 2766 2663 2505 2880 
Q 2244 3097 1772 3097 
Q 1472 3097 1187 3025 
Q 903 2953 641 2809 
L 641 3341 
Q 956 3463 1253 3523 
Q 1550 3584 1831 3584 
Q 2591 3584 2966 3190 
Q 3341 2797 3341 1997 
z
" transform="scale(0.015625)"/>
       <path id="DejaVuSans-6c" d="M 603 4863 
L 1178 4863 
L 1178 0 
L 603 0 
L 603 4863 
z
" transform="scale(0.015625)"/>
      </defs>
      <use xlink:href="#DejaVuSans-73"/>
      <use xlink:href="#DejaVuSans-63" x="52.099609"/>
      <use xlink:href="#DejaVuSans-68" x="107.080078"/>
      <use xlink:href="#DejaVuSans-69" x="170.458984"/>
      <use xlink:href="#DejaVuSans-73" x="198.242188"/>
      <use xlink:href="#DejaVuSans-74" x="250.341797"/>
      <use xlink:href="#DejaVuSans-6f" x="289.550781"/>
      <use xlink:href="#DejaVuSans-5f" x="350.732422"/>
      <use xlink:href="#DejaVuSans-6e" x="400.732422"/>
      <use xlink:href="#DejaVuSans-65" x="464.111328"/>
      <use xlink:href="#DejaVuSans-75" x="525.634766"/>
      <use xlink:href="#DejaVuSans-72" x="589.013672"/>
      <use xlink:href="#DejaVuSans-61" x="630.126953"/>
      <use xlink:href="#DejaVuSans-6c" x="691.40625"/>
     </g>
    </g>
    <g id="line2d_17">
     <path d="M 305.802813 69.526688 
L 315.802813 69.526688 
L 325.802813 69.526688 
" style="fill: none; stroke: #ff7f0e; stroke-width: 1.5; stroke-linecap: square"/>
    </g>
    <g id="text_15">
     <!-- Smed_neural -->
     <g transform="translate(333.802813 73.026688)scale(0.1 -0.1)">
      <defs>
       <path id="DejaVuSans-53" d="M 3425 4513 
L 3425 3897 
Q 3066 4069 2747 4153 
Q 2428 4238 2131 4238 
Q 1616 4238 1336 4038 
Q 1056 3838 1056 3469 
Q 1056 3159 1242 3001 
Q 1428 2844 1947 2747 
L 2328 2669 
Q 3034 2534 3370 2195 
Q 3706 1856 3706 1288 
Q 3706 609 3251 259 
Q 2797 -91 1919 -91 
Q 1588 -91 1214 -16 
Q 841 59 441 206 
L 441 856 
Q 825 641 1194 531 
Q 1563 422 1919 422 
Q 2459 422 2753 634 
Q 3047 847 3047 1241 
Q 3047 1584 2836 1778 
Q 2625 1972 2144 2069 
L 1759 2144 
Q 1053 2284 737 2584 
Q 422 2884 422 3419 
Q 422 4038 858 4394 
Q 1294 4750 2059 4750 
Q 2388 4750 2728 4690 
Q 3069 4631 3425 4513 
z
" transform="scale(0.015625)"/>
       <path id="DejaVuSans-6d" d="M 3328 2828 
Q 3544 3216 3844 3400 
Q 4144 3584 4550 3584 
Q 5097 3584 5394 3201 
Q 5691 2819 5691 2113 
L 5691 0 
L 5113 0 
L 5113 2094 
Q 5113 2597 4934 2840 
Q 4756 3084 4391 3084 
Q 3944 3084 3684 2787 
Q 3425 2491 3425 1978 
L 3425 0 
L 2847 0 
L 2847 2094 
Q 2847 2600 2669 2842 
Q 2491 3084 2119 3084 
Q 1678 3084 1418 2786 
Q 1159 2488 1159 1978 
L 1159 0 
L 581 0 
L 581 3500 
L 1159 3500 
L 1159 2956 
Q 1356 3278 1631 3431 
Q 1906 3584 2284 3584 
Q 2666 3584 2933 3390 
Q 3200 3197 3328 2828 
z
" transform="scale(0.015625)"/>
       <path id="DejaVuSans-64" d="M 2906 2969 
L 2906 4863 
L 3481 4863 
L 3481 0 
L 2906 0 
L 2906 525 
Q 2725 213 2448 61 
Q 2172 -91 1784 -91 
Q 1150 -91 751 415 
Q 353 922 353 1747 
Q 353 2572 751 3078 
Q 1150 3584 1784 3584 
Q 2172 3584 2448 3432 
Q 2725 3281 2906 2969 
z
M 947 1747 
Q 947 1113 1208 752 
Q 1469 391 1925 391 
Q 2381 391 2643 752 
Q 2906 1113 2906 1747 
Q 2906 2381 2643 2742 
Q 2381 3103 1925 3103 
Q 1469 3103 1208 2742 
Q 947 2381 947 1747 
z
" transform="scale(0.015625)"/>
      </defs>
      <use xlink:href="#DejaVuSans-53"/>
      <use xlink:href="#DejaVuSans-6d" x="63.476562"/>
      <use xlink:href="#DejaVuSans-65" x="160.888672"/>
      <use xlink:href="#DejaVuSans-64" x="222.412109"/>
      <use xlink:href="#DejaVuSans-5f" x="285.888672"/>
      <use xlink:href="#DejaVuSans-6e" x="335.888672"/>
      <use xlink:href="#DejaVuSans-65" x="399.267578"/>
      <use xlink:href="#DejaVuSans-75" x="460.791016"/>
      <use xlink:href="#DejaVuSans-72" x="524.169922"/>
      <use xlink:href="#DejaVuSans-61" x="565.283203"/>
      <use xlink:href="#DejaVuSans-6c" x="626.5625"/>
     </g>
    </g>
   </g>
  </g>
 </g>
 <defs>
  <clipPath id="p033fcc702b">
   <rect x="57.6" y="41.472" width="357.12" height="266.112"/>
  </clipPath>
 </defs>
</svg>
