<?xml version="1.0" encoding="utf-8" standalone="no"?>
<!DOCTYPE svg PUBLIC "-//W3C//DTD SVG 1.1//EN"
  "http://www.w3.org/Graphics/SVG/1.1/DTD/svg11.dtd">
<svg xmlns:xlink="http://www.w3.org/1999/xlink" width="460.8pt" height="345.6pt" viewBox="0 0 460.8 345.6" xmlns="http://www.w3.org/2000/svg" version="1.1">
 <metadata>
  <rdf:RDF xmlns:dc="http://purl.org/dc/elements/1.1/" xmlns:cc="http://creativecommons.org/ns#" xmlns:rdf="http://www.w3.org/1999/02/22-rdf-syntax-ns#">
   <cc:Work>
    <dc:type rdf:resource="http://purl.org/dc/dcmitype/StillImage"/>
    <dc:date>2024-04-18T09:34:56.186597</dc:date>
    <dc:format>image/svg+xml</dc:format>
    <dc:creator>
     <cc:Agent>
      <dc:title>Matplotlib v3.5.1, https://matplotlib.org/</dc:title>
     </cc:Agent>
    </dc:creator>
   </cc:Work>
  </rdf:RDF>
 </metadata>
 <defs>
  <style type="text/css">*{stroke-linejoin: round; stroke-linecap: butt}</style>
 </defs>
 <g id="figure_1">
  <g id="patch_1">
   <path d="M 0 345.6 
L 460.8 345.6 
L 460.8 0 
L 0 0 
z
" style="fill: #ffffff"/>
  </g>
  <g id="axes_1">
   <g id="patch_2">
    <path d="M 57.6 307.584 
L 414.72 307.584 
L 414.72 41.472 
L 57.6 41.472 
z
" style="fill: #ffffff"/>
   </g>
   <g id="matplotlib.axis_1">
    <g id="xtick_1">
     <g id="line2d_1">
      <defs>
       <path id="mf22436cbde" d="M 0 0 
L 0 3.5 
" style="stroke: #000000; stroke-width: 0.8"/>
      </defs>
      <g>
       <use xlink:href="#mf22436cbde" x="73.832727" y="307.584" style="stroke: #000000; stroke-width: 0.8"/>
      </g>
     </g>
     <g id="text_1">
      <!-- 0 -->
      <g transform="translate(70.651477 322.182437)scale(0.1 -0.1)">
       <defs>
        <path id="DejaVuSans-30" d="M 2034 4250 
Q 1547 4250 1301 3770 
Q 1056 3291 1056 2328 
Q 1056 1369 1301 889 
Q 1547 409 2034 409 
Q 2525 409 2770 889 
Q 3016 1369 3016 2328 
Q 3016 3291 2770 3770 
Q 2525 4250 2034 4250 
z
M 2034 4750 
Q 2819 4750 3233 4129 
Q 3647 3509 3647 2328 
Q 3647 1150 3233 529 
Q 2819 -91 2034 -91 
Q 1250 -91 836 529 
Q 422 1150 422 2328 
Q 422 3509 836 4129 
Q 1250 4750 2034 4750 
z
" transform="scale(0.015625)"/>
       </defs>
       <use xlink:href="#DejaVuSans-30"/>
      </g>
     </g>
    </g>
    <g id="xtick_2">
     <g id="line2d_2">
      <g>
       <use xlink:href="#mf22436cbde" x="138.828632" y="307.584" style="stroke: #000000; stroke-width: 0.8"/>
      </g>
     </g>
     <g id="text_2">
      <!-- 200 -->
      <g transform="translate(129.284882 322.182437)scale(0.1 -0.1)">
       <defs>
        <path id="DejaVuSans-32" d="M 1228 531 
L 3431 531 
L 3431 0 
L 469 0 
L 469 531 
Q 828 903 1448 1529 
Q 2069 2156 2228 2338 
Q 2531 2678 2651 2914 
Q 2772 3150 2772 3378 
Q 2772 3750 2511 3984 
Q 2250 4219 1831 4219 
Q 1534 4219 1204 4116 
Q 875 4013 500 3803 
L 500 4441 
Q 881 4594 1212 4672 
Q 1544 4750 1819 4750 
Q 2544 4750 2975 4387 
Q 3406 4025 3406 3419 
Q 3406 3131 3298 2873 
Q 3191 2616 2906 2266 
Q 2828 2175 2409 1742 
Q 1991 1309 1228 531 
z
" transform="scale(0.015625)"/>
       </defs>
       <use xlink:href="#DejaVuSans-32"/>
       <use xlink:href="#DejaVuSans-30" x="63.623047"/>
       <use xlink:href="#DejaVuSans-30" x="127.246094"/>
      </g>
     </g>
    </g>
    <g id="xtick_3">
     <g id="line2d_3">
      <g>
       <use xlink:href="#mf22436cbde" x="203.824537" y="307.584" style="stroke: #000000; stroke-width: 0.8"/>
      </g>
     </g>
     <g id="text_3">
      <!-- 400 -->
      <g transform="translate(194.280787 322.182437)scale(0.1 -0.1)">
       <defs>
        <path id="DejaVuSans-34" d="M 2419 4116 
L 825 1625 
L 2419 1625 
L 2419 4116 
z
M 2253 4666 
L 3047 4666 
L 3047 1625 
L 3713 1625 
L 3713 1100 
L 3047 1100 
L 3047 0 
L 2419 0 
L 2419 1100 
L 313 1100 
L 313 1709 
L 2253 4666 
z
" transform="scale(0.015625)"/>
       </defs>
       <use xlink:href="#DejaVuSans-34"/>
       <use xlink:href="#DejaVuSans-30" x="63.623047"/>
       <use xlink:href="#DejaVuSans-30" x="127.246094"/>
      </g>
     </g>
    </g>
    <g id="xtick_4">
     <g id="line2d_4">
      <g>
       <use xlink:href="#mf22436cbde" x="268.820442" y="307.584" style="stroke: #000000; stroke-width: 0.8"/>
      </g>
     </g>
     <g id="text_4">
      <!-- 600 -->
      <g transform="translate(259.276692 322.182437)scale(0.1 -0.1)">
       <defs>
        <path id="DejaVuSans-36" d="M 2113 2584 
Q 1688 2584 1439 2293 
Q 1191 2003 1191 1497 
Q 1191 994 1439 701 
Q 1688 409 2113 409 
Q 2538 409 2786 701 
Q 3034 994 3034 1497 
Q 3034 2003 2786 2293 
Q 2538 2584 2113 2584 
z
M 3366 4563 
L 3366 3988 
Q 3128 4100 2886 4159 
Q 2644 4219 2406 4219 
Q 1781 4219 1451 3797 
Q 1122 3375 1075 2522 
Q 1259 2794 1537 2939 
Q 1816 3084 2150 3084 
Q 2853 3084 3261 2657 
Q 3669 2231 3669 1497 
Q 3669 778 3244 343 
Q 2819 -91 2113 -91 
Q 1303 -91 875 529 
Q 447 1150 447 2328 
Q 447 3434 972 4092 
Q 1497 4750 2381 4750 
Q 2619 4750 2861 4703 
Q 3103 4656 3366 4563 
z
" transform="scale(0.015625)"/>
       </defs>
       <use xlink:href="#DejaVuSans-36"/>
       <use xlink:href="#DejaVuSans-30" x="63.623047"/>
       <use xlink:href="#DejaVuSans-30" x="127.246094"/>
      </g>
     </g>
    </g>
    <g id="xtick_5">
     <g id="line2d_5">
      <g>
       <use xlink:href="#mf22436cbde" x="333.816347" y="307.584" style="stroke: #000000; stroke-width: 0.8"/>
      </g>
     </g>
     <g id="text_5">
      <!-- 800 -->
      <g transform="translate(324.272597 322.182437)scale(0.1 -0.1)">
       <defs>
        <path id="DejaVuSans-38" d="M 2034 2216 
Q 1584 2216 1326 1975 
Q 1069 1734 1069 1313 
Q 1069 891 1326 650 
Q 1584 409 2034 409 
Q 2484 409 2743 651 
Q 3003 894 3003 1313 
Q 3003 1734 2745 1975 
Q 2488 2216 2034 2216 
z
M 1403 2484 
Q 997 2584 770 2862 
Q 544 3141 544 3541 
Q 544 4100 942 4425 
Q 1341 4750 2034 4750 
Q 2731 4750 3128 4425 
Q 3525 4100 3525 3541 
Q 3525 3141 3298 2862 
Q 3072 2584 2669 2484 
Q 3125 2378 3379 2068 
Q 3634 1759 3634 1313 
Q 3634 634 3220 271 
Q 2806 -91 2034 -91 
Q 1263 -91 848 271 
Q 434 634 434 1313 
Q 434 1759 690 2068 
Q 947 2378 1403 2484 
z
M 1172 3481 
Q 1172 3119 1398 2916 
Q 1625 2713 2034 2713 
Q 2441 2713 2670 2916 
Q 2900 3119 2900 3481 
Q 2900 3844 2670 4047 
Q 2441 4250 2034 4250 
Q 1625 4250 1398 4047 
Q 1172 3844 1172 3481 
z
" transform="scale(0.015625)"/>
       </defs>
       <use xlink:href="#DejaVuSans-38"/>
       <use xlink:href="#DejaVuSans-30" x="63.623047"/>
       <use xlink:href="#DejaVuSans-30" x="127.246094"/>
      </g>
     </g>
    </g>
    <g id="xtick_6">
     <g id="line2d_6">
      <g>
       <use xlink:href="#mf22436cbde" x="398.812252" y="307.584" style="stroke: #000000; stroke-width: 0.8"/>
      </g>
     </g>
     <g id="text_6">
      <!-- 1000 -->
      <g transform="translate(386.087252 322.182437)scale(0.1 -0.1)">
       <defs>
        <path id="DejaVuSans-31" d="M 794 531 
L 1825 531 
L 1825 4091 
L 703 3866 
L 703 4441 
L 1819 4666 
L 2450 4666 
L 2450 531 
L 3481 531 
L 3481 0 
L 794 0 
L 794 531 
z
" transform="scale(0.015625)"/>
       </defs>
       <use xlink:href="#DejaVuSans-31"/>
       <use xlink:href="#DejaVuSans-30" x="63.623047"/>
       <use xlink:href="#DejaVuSans-30" x="127.246094"/>
       <use xlink:href="#DejaVuSans-30" x="190.869141"/>
      </g>
     </g>
    </g>
   </g>
   <g id="matplotlib.axis_2">
    <g id="ytick_1">
     <g id="line2d_7">
      <defs>
       <path id="m7bce500779" d="M 0 0 
L -3.5 0 
" style="stroke: #000000; stroke-width: 0.8"/>
      </defs>
      <g>
       <use xlink:href="#m7bce500779" x="57.6" y="296.25447" style="stroke: #000000; stroke-width: 0.8"/>
      </g>
     </g>
     <g id="text_7">
      <!-- 0.000 -->
      <g transform="translate(21.971875 300.053689)scale(0.1 -0.1)">
       <defs>
        <path id="DejaVuSans-2e" d="M 684 794 
L 1344 794 
L 1344 0 
L 684 0 
L 684 794 
z
" transform="scale(0.015625)"/>
       </defs>
       <use xlink:href="#DejaVuSans-30"/>
       <use xlink:href="#DejaVuSans-2e" x="63.623047"/>
       <use xlink:href="#DejaVuSans-30" x="95.410156"/>
       <use xlink:href="#DejaVuSans-30" x="159.033203"/>
       <use xlink:href="#DejaVuSans-30" x="222.65625"/>
      </g>
     </g>
    </g>
    <g id="ytick_2">
     <g id="line2d_8">
      <g>
       <use xlink:href="#m7bce500779" x="57.6" y="266.216991" style="stroke: #000000; stroke-width: 0.8"/>
      </g>
     </g>
     <g id="text_8">
      <!-- 0.002 -->
      <g transform="translate(21.971875 270.016209)scale(0.1 -0.1)">
       <use xlink:href="#DejaVuSans-30"/>
       <use xlink:href="#DejaVuSans-2e" x="63.623047"/>
       <use xlink:href="#DejaVuSans-30" x="95.410156"/>
       <use xlink:href="#DejaVuSans-30" x="159.033203"/>
       <use xlink:href="#DejaVuSans-32" x="222.65625"/>
      </g>
     </g>
    </g>
    <g id="ytick_3">
     <g id="line2d_9">
      <g>
       <use xlink:href="#m7bce500779" x="57.6" y="236.179511" style="stroke: #000000; stroke-width: 0.8"/>
      </g>
     </g>
     <g id="text_9">
      <!-- 0.004 -->
      <g transform="translate(21.971875 239.97873)scale(0.1 -0.1)">
       <use xlink:href="#DejaVuSans-30"/>
       <use xlink:href="#DejaVuSans-2e" x="63.623047"/>
       <use xlink:href="#DejaVuSans-30" x="95.410156"/>
       <use xlink:href="#DejaVuSans-30" x="159.033203"/>
       <use xlink:href="#DejaVuSans-34" x="222.65625"/>
      </g>
     </g>
    </g>
    <g id="ytick_4">
     <g id="line2d_10">
      <g>
       <use xlink:href="#m7bce500779" x="57.6" y="206.142032" style="stroke: #000000; stroke-width: 0.8"/>
      </g>
     </g>
     <g id="text_10">
      <!-- 0.006 -->
      <g transform="translate(21.971875 209.941251)scale(0.1 -0.1)">
       <use xlink:href="#DejaVuSans-30"/>
       <use xlink:href="#DejaVuSans-2e" x="63.623047"/>
       <use xlink:href="#DejaVuSans-30" x="95.410156"/>
       <use xlink:href="#DejaVuSans-30" x="159.033203"/>
       <use xlink:href="#DejaVuSans-36" x="222.65625"/>
      </g>
     </g>
    </g>
    <g id="ytick_5">
     <g id="line2d_11">
      <g>
       <use xlink:href="#m7bce500779" x="57.6" y="176.104552" style="stroke: #000000; stroke-width: 0.8"/>
      </g>
     </g>
     <g id="text_11">
      <!-- 0.008 -->
      <g transform="translate(21.971875 179.903771)scale(0.1 -0.1)">
       <use xlink:href="#DejaVuSans-30"/>
       <use xlink:href="#DejaVuSans-2e" x="63.623047"/>
       <use xlink:href="#DejaVuSans-30" x="95.410156"/>
       <use xlink:href="#DejaVuSans-30" x="159.033203"/>
       <use xlink:href="#DejaVuSans-38" x="222.65625"/>
      </g>
     </g>
    </g>
    <g id="ytick_6">
     <g id="line2d_12">
      <g>
       <use xlink:href="#m7bce500779" x="57.6" y="146.067073" style="stroke: #000000; stroke-width: 0.8"/>
      </g>
     </g>
     <g id="text_12">
      <!-- 0.010 -->
      <g transform="translate(21.971875 149.866292)scale(0.1 -0.1)">
       <use xlink:href="#DejaVuSans-30"/>
       <use xlink:href="#DejaVuSans-2e" x="63.623047"/>
       <use xlink:href="#DejaVuSans-30" x="95.410156"/>
       <use xlink:href="#DejaVuSans-31" x="159.033203"/>
       <use xlink:href="#DejaVuSans-30" x="222.65625"/>
      </g>
     </g>
    </g>
    <g id="ytick_7">
     <g id="line2d_13">
      <g>
       <use xlink:href="#m7bce500779" x="57.6" y="116.029594" style="stroke: #000000; stroke-width: 0.8"/>
      </g>
     </g>
     <g id="text_13">
      <!-- 0.012 -->
      <g transform="translate(21.971875 119.828812)scale(0.1 -0.1)">
       <use xlink:href="#DejaVuSans-30"/>
       <use xlink:href="#DejaVuSans-2e" x="63.623047"/>
       <use xlink:href="#DejaVuSans-30" x="95.410156"/>
       <use xlink:href="#DejaVuSans-31" x="159.033203"/>
       <use xlink:href="#DejaVuSans-32" x="222.65625"/>
      </g>
     </g>
    </g>
    <g id="ytick_8">
     <g id="line2d_14">
      <g>
       <use xlink:href="#m7bce500779" x="57.6" y="85.992114" style="stroke: #000000; stroke-width: 0.8"/>
      </g>
     </g>
     <g id="text_14">
      <!-- 0.014 -->
      <g transform="translate(21.971875 89.791333)scale(0.1 -0.1)">
       <use xlink:href="#DejaVuSans-30"/>
       <use xlink:href="#DejaVuSans-2e" x="63.623047"/>
       <use xlink:href="#DejaVuSans-30" x="95.410156"/>
       <use xlink:href="#DejaVuSans-31" x="159.033203"/>
       <use xlink:href="#DejaVuSans-34" x="222.65625"/>
      </g>
     </g>
    </g>
    <g id="ytick_9">
     <g id="line2d_15">
      <g>
       <use xlink:href="#m7bce500779" x="57.6" y="55.954635" style="stroke: #000000; stroke-width: 0.8"/>
      </g>
     </g>
     <g id="text_15">
      <!-- 0.016 -->
      <g transform="translate(21.971875 59.753854)scale(0.1 -0.1)">
       <use xlink:href="#DejaVuSans-30"/>
       <use xlink:href="#DejaVuSans-2e" x="63.623047"/>
       <use xlink:href="#DejaVuSans-30" x="95.410156"/>
       <use xlink:href="#DejaVuSans-31" x="159.033203"/>
       <use xlink:href="#DejaVuSans-36" x="222.65625"/>
      </g>
     </g>
    </g>
   </g>
   <g id="line2d_16">
    <path d="M 73.832727 294.656293 
L 74.157707 293.286903 
L 74.482686 295.335331 
L 74.807666 295.044749 
L 75.132645 295.332044 
L 75.457625 293.569889 
L 75.782604 294.632806 
L 76.107584 294.446963 
L 76.432563 294.496624 
L 76.757543 294.086295 
L 77.082523 295.188891 
L 77.407502 292.904299 
L 77.732482 293.711363 
L 78.057461 292.547479 
L 78.382441 295.433516 
L 78.70742 293.533636 
L 79.0324 293.398393 
L 79.357379 293.756158 
L 79.682359 294.427279 
L 80.007338 294.308531 
L 80.332318 294.449382 
L 80.657297 293.37602 
L 80.982277 293.502842 
L 81.307256 295.488 
L 81.632236 295.484915 
L 81.957215 293.906371 
L 82.282195 290.934288 
L 82.607174 294.196819 
L 83.257133 292.592052 
L 83.582113 290.809028 
L 83.907093 287.873087 
L 84.232072 293.128748 
L 84.557052 292.428135 
L 84.882031 293.551558 
L 85.207011 288.749716 
L 85.53199 289.276373 
L 85.85697 292.138531 
L 86.181949 290.442618 
L 86.506929 293.514406 
L 86.831908 293.255865 
L 87.156888 291.843269 
L 87.481867 294.865739 
L 88.131826 284.281915 
L 88.781785 290.541473 
L 89.106765 290.750904 
L 89.431744 292.016306 
L 89.756724 289.467733 
L 90.081704 289.797091 
L 90.406683 287.235545 
L 90.731663 290.899364 
L 91.056642 285.826416 
L 91.381622 293.030692 
L 91.706601 288.580064 
L 92.031581 286.138283 
L 92.35656 292.175325 
L 92.68154 289.111577 
L 93.006519 292.640301 
L 93.656478 293.448501 
L 93.981458 293.442381 
L 94.306437 294.714984 
L 94.631417 292.432118 
L 94.956396 293.922424 
L 95.281376 289.911074 
L 95.606355 291.143234 
L 95.931335 290.435332 
L 96.256314 291.431985 
L 96.581294 290.319894 
L 96.906274 290.413194 
L 97.231253 287.694036 
L 97.556233 292.013935 
L 97.881212 293.792263 
L 98.531171 287.851238 
L 98.856151 291.277086 
L 99.18113 284.477539 
L 99.50611 292.107767 
L 99.831089 291.787571 
L 100.156069 286.99815 
L 100.806028 292.313562 
L 101.131007 291.408097 
L 101.455987 292.307435 
L 101.780966 287.167662 
L 102.430925 294.981869 
L 102.755905 291.825731 
L 103.080885 291.090608 
L 103.405864 292.901369 
L 103.730844 293.970635 
L 104.055823 291.929169 
L 104.380803 293.754119 
L 105.030762 286.334683 
L 105.355741 285.279695 
L 105.680721 294.185902 
L 106.0057 289.880705 
L 106.33068 293.409727 
L 106.980639 284.927344 
L 107.305618 292.387824 
L 107.955577 288.714971 
L 108.280557 292.722762 
L 108.605536 291.791845 
L 108.930516 293.151425 
L 109.255495 290.068854 
L 109.580475 289.034399 
L 109.905455 291.655183 
L 110.230434 292.941724 
L 110.555414 290.955097 
L 110.880393 291.924558 
L 111.205373 289.183761 
L 111.530352 284.724402 
L 111.855332 291.262556 
L 112.180311 291.176191 
L 112.505291 292.151695 
L 112.83027 293.894296 
L 113.480229 292.496256 
L 113.805209 292.991674 
L 114.130188 291.267682 
L 114.455168 291.372431 
L 114.780147 294.045569 
L 115.105127 289.527093 
L 115.430106 294.001256 
L 115.755086 287.917063 
L 116.080066 292.91405 
L 116.405045 293.790983 
L 116.730025 291.468094 
L 117.055004 292.773015 
L 117.379984 290.214547 
L 117.704963 288.905452 
L 118.029943 294.007441 
L 118.354922 291.668819 
L 118.679902 290.746262 
L 119.004881 293.470237 
L 119.329861 290.56733 
L 119.65484 293.583331 
L 119.97982 291.684312 
L 120.304799 292.659058 
L 120.629779 293.166126 
L 120.954758 290.327099 
L 121.279738 292.97119 
L 121.604717 291.476405 
L 121.929697 291.957801 
L 122.254676 293.12445 
L 122.904636 291.013395 
L 123.229615 292.650834 
L 123.554595 290.857938 
L 123.879574 293.878402 
L 124.204554 292.445145 
L 124.529533 289.763795 
L 124.854513 292.954916 
L 125.179492 289.504212 
L 125.504472 287.539595 
L 125.829451 294.777004 
L 126.154431 292.968985 
L 126.47941 290.101504 
L 126.80439 290.942237 
L 127.129369 294.212768 
L 127.454349 292.320894 
L 127.779328 294.052916 
L 128.104308 292.216321 
L 128.429287 292.147507 
L 128.754267 291.655123 
L 129.079247 294.470605 
L 129.404226 293.444989 
L 129.729206 291.966085 
L 130.054185 291.518648 
L 130.379165 294.042161 
L 130.704144 292.488092 
L 131.029124 292.540261 
L 131.354103 290.773838 
L 131.679083 293.420575 
L 132.004062 291.525155 
L 132.329042 292.206296 
L 132.654021 293.622772 
L 132.979001 292.307182 
L 133.30398 292.840963 
L 133.62896 291.205275 
L 133.953939 292.472459 
L 134.278919 292.861331 
L 134.603898 292.688433 
L 134.928878 293.786913 
L 135.253857 293.993764 
L 135.903817 291.19089 
L 136.228796 290.615827 
L 136.878755 291.97031 
L 137.203735 294.75378 
L 137.528714 293.411436 
L 137.853694 290.975866 
L 138.178673 292.955396 
L 138.503653 288.250248 
L 138.828632 293.249253 
L 139.153612 290.525463 
L 139.803571 294.80657 
L 140.45353 291.123157 
L 140.778509 292.795081 
L 141.103489 288.607498 
L 141.428468 290.754547 
L 141.753448 291.421729 
L 142.078428 289.473893 
L 142.403407 292.832421 
L 142.728387 289.318313 
L 143.053366 290.02609 
L 143.378346 293.565965 
L 143.703325 292.944556 
L 144.678264 288.851548 
L 145.003243 290.622905 
L 145.328223 291.389806 
L 145.653202 288.603899 
L 145.978182 291.66636 
L 146.303161 290.47786 
L 146.628141 292.871447 
L 146.95312 293.990302 
L 147.2781 293.566042 
L 147.603079 292.595195 
L 147.928059 288.214044 
L 148.253038 288.831196 
L 148.578018 291.351291 
L 148.902998 286.829663 
L 149.227977 291.100699 
L 149.552957 287.324243 
L 149.877936 290.307396 
L 150.202916 291.09733 
L 150.527895 289.058173 
L 150.852875 290.381986 
L 151.177854 293.00761 
L 151.502834 292.240678 
L 152.152793 292.165884 
L 152.802752 288.504851 
L 153.127731 294.214604 
L 153.452711 292.679334 
L 153.77769 292.394255 
L 154.10267 291.578152 
L 154.427649 289.180658 
L 154.752629 293.062863 
L 155.077609 292.042266 
L 155.402588 293.506517 
L 156.052547 287.516575 
L 156.377527 291.786712 
L 156.702506 289.919666 
L 157.352465 294.486479 
L 157.677445 290.475114 
L 158.002424 289.328557 
L 158.327404 289.148329 
L 158.652383 289.19523 
L 158.977363 290.105496 
L 159.302342 281.222029 
L 159.627322 290.689316 
L 159.952301 285.823353 
L 160.277281 289.591274 
L 160.60226 290.482787 
L 160.92724 288.496847 
L 161.577199 290.489849 
L 161.902179 290.736706 
L 162.552138 282.463507 
L 162.877117 289.267373 
L 163.202097 291.095844 
L 163.852056 284.231223 
L 164.177035 283.518862 
L 164.502015 293.162502 
L 164.826994 292.015505 
L 165.151974 286.204761 
L 165.476953 290.291926 
L 165.801933 286.623424 
L 166.126912 289.354508 
L 166.451892 282.943552 
L 166.776871 286.236504 
L 167.101851 283.4831 
L 167.42683 288.313178 
L 167.75181 284.284647 
L 168.07679 287.287406 
L 168.401769 287.398441 
L 168.726749 288.586273 
L 169.376708 291.440674 
L 169.701687 279.683217 
L 170.026667 289.079368 
L 170.351646 290.187288 
L 170.676626 283.400949 
L 171.001605 285.896441 
L 171.326585 281.51311 
L 171.651564 286.456685 
L 171.976544 286.794442 
L 172.301523 288.343259 
L 172.626503 291.723095 
L 172.951482 288.951416 
L 173.276462 288.587411 
L 173.601441 292.556809 
L 173.926421 288.307321 
L 174.2514 291.294874 
L 174.57638 289.554774 
L 174.90136 289.859154 
L 175.226339 291.994236 
L 175.551319 288.473171 
L 175.876298 291.166192 
L 176.201278 287.429425 
L 176.526257 291.283396 
L 176.851237 292.658386 
L 177.176216 289.611536 
L 177.501196 288.421964 
L 177.826175 288.62882 
L 178.151155 285.511799 
L 178.476134 288.314336 
L 178.801114 281.629238 
L 179.126093 280.888747 
L 179.451073 288.311973 
L 179.776052 286.583129 
L 180.101032 286.801814 
L 180.426011 292.166619 
L 180.750991 289.824871 
L 181.075971 290.905494 
L 181.40095 287.061639 
L 181.72593 286.553211 
L 182.050909 289.693166 
L 182.375889 288.032666 
L 182.700868 288.118945 
L 183.025848 289.672614 
L 183.350827 286.261929 
L 184.000786 291.241636 
L 184.325766 288.012441 
L 184.650745 292.508936 
L 185.300704 290.219763 
L 185.625684 291.730171 
L 185.950663 287.246758 
L 186.275643 293.564533 
L 186.600622 290.076041 
L 186.925602 292.108299 
L 187.250581 292.087677 
L 187.575561 292.215545 
L 187.900541 291.993201 
L 188.22552 288.561678 
L 188.5505 290.378598 
L 188.875479 288.072282 
L 189.200459 292.92037 
L 189.525438 293.539891 
L 189.850418 286.834361 
L 190.175397 292.306476 
L 190.500377 294.136371 
L 191.150336 292.920458 
L 192.450254 291.58154 
L 192.775233 294.867164 
L 193.100213 293.647462 
L 193.425192 290.708828 
L 193.750172 284.6842 
L 194.075152 289.889159 
L 194.400131 284.750933 
L 194.725111 294.586126 
L 195.05009 292.000251 
L 195.37507 292.170502 
L 195.700049 293.230642 
L 196.025029 289.715965 
L 196.674988 290.349204 
L 196.999967 289.925599 
L 197.324947 291.610006 
L 197.649926 290.131214 
L 197.974906 294.543601 
L 198.624865 292.160362 
L 198.949844 294.938024 
L 199.274824 290.29753 
L 199.599803 291.746205 
L 199.924783 290.296475 
L 200.249762 292.397471 
L 200.574742 290.999689 
L 200.899722 291.116468 
L 201.224701 290.028818 
L 201.549681 290.24712 
L 201.87466 288.197528 
L 202.19964 294.576347 
L 202.524619 293.827815 
L 203.174578 289.550668 
L 203.499558 293.409306 
L 203.824537 293.907207 
L 204.149517 292.821359 
L 204.474496 293.280338 
L 205.124455 292.834979 
L 205.449435 293.190981 
L 205.774414 291.407386 
L 206.099394 292.250516 
L 206.424373 292.381471 
L 206.749353 289.845222 
L 207.074333 291.291149 
L 207.399312 290.783588 
L 207.724292 282.392972 
L 208.049271 291.755376 
L 208.374251 288.89308 
L 208.69923 287.913201 
L 209.02421 285.565196 
L 209.349189 280.542787 
L 209.674169 289.450541 
L 209.999148 290.786345 
L 210.324128 287.339678 
L 210.974087 290.564918 
L 211.299066 288.03501 
L 211.624046 284.205037 
L 211.949025 277.219022 
L 212.274005 289.465191 
L 212.598984 288.573732 
L 212.923964 286.978342 
L 213.248943 287.260322 
L 213.573923 282.393068 
L 213.898903 282.649047 
L 214.223882 284.007013 
L 214.548862 282.007201 
L 214.873841 289.784191 
L 215.198821 285.616301 
L 215.5238 271.922108 
L 215.84878 278.17309 
L 216.173759 279.17665 
L 216.498739 290.167222 
L 216.823718 282.166851 
L 217.148698 287.751439 
L 217.473677 286.001244 
L 217.798657 288.567466 
L 218.123636 284.87893 
L 218.448616 272.579175 
L 218.773595 278.014365 
L 219.098575 277.396657 
L 219.423554 272.906694 
L 219.748534 274.067863 
L 220.073514 280.711708 
L 220.398493 278.837811 
L 220.723473 251.872368 
L 221.048452 291.196438 
L 221.373432 269.829872 
L 221.698411 288.984177 
L 222.34837 276.985553 
L 222.67335 277.685932 
L 222.998329 277.633596 
L 223.323309 280.17044 
L 223.648288 275.065775 
L 223.973268 288.687143 
L 224.298247 282.013107 
L 224.623227 258.723445 
L 224.948206 255.265048 
L 225.273186 262.524785 
L 225.598165 285.460445 
L 225.923145 245.977249 
L 226.573104 256.59653 
L 226.898084 266.090037 
L 227.223063 260.182658 
L 227.548043 214.868618 
L 227.873022 261.145474 
L 228.198002 237.01699 
L 228.522981 250.248545 
L 228.847961 277.14747 
L 229.49792 265.417056 
L 229.822899 266.911189 
L 230.147879 260.232163 
L 230.472858 265.107577 
L 230.797838 279.857102 
L 231.122817 264.440537 
L 231.447797 273.662419 
L 231.772776 252.471709 
L 232.097756 264.377811 
L 232.422735 248.138586 
L 232.747715 244.456355 
L 233.072695 253.417069 
L 233.397674 252.108257 
L 233.722654 255.088683 
L 234.047633 250.217759 
L 234.372613 269.546344 
L 234.697592 212.923867 
L 235.022572 237.941746 
L 235.347551 276.111125 
L 235.672531 236.501265 
L 235.99751 268.403159 
L 236.32249 259.061175 
L 236.647469 182.800291 
L 236.972449 222.358337 
L 237.297428 166.486619 
L 237.622408 229.249246 
L 237.947387 220.493565 
L 238.272367 202.113432 
L 238.597346 249.264235 
L 238.922326 223.870846 
L 239.247305 256.022897 
L 239.572285 255.370981 
L 239.897265 257.94166 
L 240.222244 270.441639 
L 240.547224 248.355799 
L 240.872203 257.646137 
L 241.197183 212.194052 
L 241.522162 213.360725 
L 241.847142 245.057375 
L 242.172121 251.619495 
L 242.497101 240.478251 
L 242.82208 243.856021 
L 243.14706 258.258654 
L 243.472039 237.737465 
L 243.797019 239.389179 
L 244.121998 218.363091 
L 244.446978 263.085158 
L 244.771957 265.541921 
L 245.096937 189.195938 
L 245.421916 258.317075 
L 245.746896 257.088565 
L 246.396855 149.694317 
L 246.721835 256.429921 
L 247.046814 257.366772 
L 247.371794 218.954215 
L 247.696773 211.635407 
L 248.021753 265.849991 
L 248.346732 234.807054 
L 248.671712 237.196475 
L 248.996691 232.554205 
L 249.321671 253.18068 
L 249.97163 235.12907 
L 250.296609 229.557148 
L 250.621589 241.129667 
L 250.946568 237.263433 
L 251.271548 200.141385 
L 251.596527 236.431238 
L 251.921507 257.910454 
L 252.246486 212.148587 
L 252.896446 270.8 
L 253.221425 265.20503 
L 253.871384 236.846555 
L 254.196364 180.395491 
L 254.521343 229.260009 
L 254.846323 190.567868 
L 255.171302 238.366677 
L 255.496282 206.195428 
L 255.821261 217.98363 
L 256.146241 275.80438 
L 256.7962 248.194973 
L 257.121179 239.235959 
L 257.446159 210.602096 
L 258.096118 233.165884 
L 258.421097 194.941141 
L 258.746077 217.497117 
L 259.071057 223.219045 
L 259.396036 204.363155 
L 259.721016 252.384331 
L 260.045995 249.432656 
L 260.370975 248.617057 
L 260.695954 229.132942 
L 261.020934 233.892775 
L 261.345913 227.706986 
L 261.670893 202.570866 
L 261.995872 209.385761 
L 262.320852 190.868902 
L 262.645831 245.866613 
L 262.970811 205.765885 
L 263.29579 202.958936 
L 263.62077 222.479376 
L 263.945749 274.816017 
L 264.270729 208.233893 
L 264.595708 223.060758 
L 264.920688 230.168904 
L 265.245667 245.841475 
L 265.570647 236.911512 
L 265.895627 219.371771 
L 266.220606 256.587239 
L 266.545586 267.399373 
L 266.870565 234.121055 
L 267.195545 252.319475 
L 267.520524 234.60549 
L 267.845504 241.483461 
L 268.170483 193.15488 
L 268.495463 165.061972 
L 268.820442 240.07499 
L 269.145422 231.304028 
L 269.470401 230.143272 
L 269.795381 237.979442 
L 270.12036 218.748147 
L 270.44534 259.631902 
L 270.770319 251.678966 
L 271.095299 227.212669 
L 271.420278 267.150034 
L 271.745258 224.931628 
L 272.070238 271.678096 
L 272.395217 216.633199 
L 272.720197 219.007968 
L 273.045176 245.211141 
L 273.370156 234.451141 
L 273.695135 245.995254 
L 274.020115 230.995294 
L 274.670074 271.130938 
L 274.995053 266.781772 
L 275.320033 253.265324 
L 275.645012 268.802379 
L 276.294971 231.28709 
L 276.619951 280.336709 
L 276.94493 247.075605 
L 277.26991 265.979384 
L 277.594889 264.312095 
L 277.919869 265.925651 
L 278.244848 284.373676 
L 278.569828 278.321591 
L 278.894808 247.257551 
L 279.219787 289.982314 
L 279.544767 265.907842 
L 279.869746 261.087615 
L 280.194726 276.258952 
L 280.519705 252.48413 
L 280.844685 270.938238 
L 281.494644 281.215696 
L 281.819623 281.109267 
L 282.144603 271.135178 
L 282.469582 280.958386 
L 282.794562 282.497233 
L 283.119541 277.978212 
L 283.444521 283.42721 
L 283.7695 275.229775 
L 284.09448 280.301455 
L 284.419459 281.083553 
L 284.744439 286.574757 
L 285.069419 283.719539 
L 285.394398 287.070494 
L 285.719378 288.618601 
L 286.369337 283.975206 
L 286.694316 285.216241 
L 287.019296 289.093285 
L 287.344275 275.01455 
L 287.669255 277.934715 
L 287.994234 289.067566 
L 288.319214 287.454549 
L 288.644193 277.78535 
L 288.969173 282.511652 
L 289.294152 282.290171 
L 289.619132 280.32761 
L 289.944111 280.42768 
L 290.269091 278.391012 
L 290.59407 288.157849 
L 290.91905 289.234645 
L 291.244029 283.381924 
L 291.569009 285.428052 
L 291.893989 284.643668 
L 292.218968 282.075161 
L 292.543948 283.0475 
L 292.868927 289.850587 
L 293.193907 285.467912 
L 293.518886 285.688544 
L 293.843866 289.233066 
L 294.168845 287.762525 
L 294.493825 283.8321 
L 294.818804 289.210061 
L 295.468763 284.566429 
L 295.793743 290.003633 
L 296.118722 289.934884 
L 296.443702 285.816292 
L 296.768681 291.030359 
L 297.093661 287.57637 
L 297.41864 288.931438 
L 297.74362 280.145887 
L 298.0686 293.420096 
L 298.393579 290.184503 
L 298.718559 291.320279 
L 299.043538 283.537901 
L 299.368518 291.223368 
L 299.693497 288.799166 
L 300.018477 291.586163 
L 300.668436 288.008377 
L 300.993415 289.754233 
L 301.318395 293.543482 
L 301.643374 290.112606 
L 301.968354 293.835491 
L 302.293333 289.829948 
L 302.618313 294.393625 
L 302.943292 292.64295 
L 303.268272 292.309463 
L 303.593251 292.476966 
L 303.918231 290.072015 
L 304.24321 293.229435 
L 304.56819 295.078364 
L 304.89317 293.671614 
L 305.218149 293.49236 
L 305.543129 290.862186 
L 305.868108 294.757267 
L 306.193088 291.524436 
L 306.518067 292.585196 
L 306.843047 293.069824 
L 307.168026 292.531649 
L 307.493006 294.251506 
L 307.817985 293.562534 
L 308.142965 289.610735 
L 308.467944 295.08401 
L 308.792924 291.7634 
L 309.117903 294.131702 
L 309.767862 290.683589 
L 310.092842 293.053858 
L 310.417821 292.930152 
L 310.742801 290.690433 
L 311.067781 292.272681 
L 311.71774 292.953606 
L 312.367699 294.039137 
L 313.017658 291.774983 
L 313.342637 292.616354 
L 313.667617 292.739999 
L 313.992596 291.996134 
L 314.317576 293.435764 
L 314.642555 292.235844 
L 314.967535 292.004553 
L 315.292514 294.13867 
L 315.617494 292.730601 
L 315.942473 292.826909 
L 316.917412 291.260166 
L 317.242391 292.500665 
L 317.567371 292.597885 
L 318.21733 290.276322 
L 318.54231 294.86642 
L 318.867289 292.116078 
L 319.192269 292.154917 
L 319.517248 293.237962 
L 319.842228 286.327288 
L 320.167207 290.493382 
L 320.492187 290.391667 
L 320.817166 291.264523 
L 321.142146 293.817929 
L 321.467125 285.688745 
L 321.792105 291.005927 
L 322.117084 289.049684 
L 322.767043 284.098789 
L 323.092023 287.863262 
L 323.417002 289.783939 
L 323.741982 287.173911 
L 324.066962 289.720973 
L 324.716921 287.883057 
L 325.0419 290.477609 
L 325.36688 288.976832 
L 325.691859 279.319889 
L 326.341818 290.921634 
L 326.666798 290.040764 
L 326.991777 289.484751 
L 327.316757 291.770946 
L 327.641736 287.787478 
L 327.966716 289.583541 
L 328.291695 281.480663 
L 328.616675 291.063196 
L 328.941654 288.38548 
L 329.266634 289.65456 
L 329.591613 286.00998 
L 329.916593 285.471501 
L 330.241572 291.183049 
L 330.566552 291.018376 
L 330.891532 290.412697 
L 331.216511 291.501436 
L 331.541491 286.334622 
L 331.86647 285.496205 
L 332.19145 283.680257 
L 332.516429 288.634194 
L 332.841409 289.655919 
L 333.166388 287.92543 
L 333.491368 289.548954 
L 333.816347 289.545504 
L 334.466306 282.022001 
L 334.791286 281.460657 
L 335.116265 289.661287 
L 335.766224 290.936206 
L 336.091204 282.285254 
L 336.416183 289.79432 
L 336.741163 290.72697 
L 337.066143 290.134596 
L 337.391122 278.71519 
L 337.716102 289.642724 
L 338.041081 283.283084 
L 338.366061 289.983283 
L 338.69104 290.632169 
L 339.340999 286.466607 
L 339.665979 285.016576 
L 339.990958 285.646558 
L 340.315938 286.010387 
L 340.965897 291.497664 
L 341.290876 289.657277 
L 341.615856 292.29353 
L 341.940835 288.724854 
L 342.265815 289.63386 
L 342.590794 289.818086 
L 342.915774 293.021777 
L 343.240753 286.690638 
L 343.565733 292.275093 
L 343.890713 287.887276 
L 344.215692 291.199901 
L 344.540672 292.904368 
L 344.865651 284.332604 
L 345.190631 287.894119 
L 345.51561 294.812715 
L 345.84059 291.247127 
L 346.165569 290.074092 
L 346.490549 288.135371 
L 346.815528 288.668252 
L 347.140508 291.210327 
L 347.465487 289.369721 
L 347.790467 285.138748 
L 348.115446 293.89324 
L 348.440426 291.454353 
L 348.765405 284.695441 
L 349.090385 284.59318 
L 349.415364 289.030254 
L 349.740344 290.072865 
L 350.065324 291.935969 
L 350.390303 288.230416 
L 350.715283 294.58514 
L 351.040262 291.21983 
L 351.365242 290.990194 
L 351.690221 287.821896 
L 352.015201 289.694165 
L 352.34018 290.13271 
L 352.66516 288.545589 
L 352.990139 289.159295 
L 353.315119 293.538534 
L 353.640098 289.629405 
L 353.965078 289.987239 
L 354.290057 291.087587 
L 354.615037 289.632488 
L 354.940016 289.126084 
L 355.264996 291.637497 
L 355.589975 290.475437 
L 355.914955 292.044013 
L 356.239934 291.136236 
L 356.564914 290.710997 
L 356.889894 287.53161 
L 357.214873 292.457051 
L 357.539853 288.457214 
L 357.864832 289.037774 
L 358.189812 281.39487 
L 358.514791 283.317301 
L 358.839771 291.452757 
L 359.16475 291.721572 
L 359.48973 288.548971 
L 359.814709 291.644318 
L 360.139689 291.590031 
L 360.464668 287.294792 
L 360.789648 288.131889 
L 361.114627 289.983747 
L 361.439607 289.865045 
L 361.764586 291.539765 
L 362.089566 290.808273 
L 362.414545 290.77678 
L 362.739525 289.122525 
L 363.064505 292.101811 
L 363.389484 289.794458 
L 363.714464 292.061141 
L 364.039443 289.929523 
L 364.364423 291.10052 
L 364.689402 293.875105 
L 365.014382 291.977619 
L 365.339361 291.579592 
L 365.664341 292.138371 
L 366.3143 288.585094 
L 366.964259 292.802284 
L 367.289238 291.538452 
L 367.614218 293.976002 
L 367.939197 293.292481 
L 368.264177 292.051625 
L 368.589156 292.396904 
L 368.914136 293.828735 
L 369.239115 291.406314 
L 369.564095 292.253938 
L 369.889075 287.681106 
L 370.214054 291.747817 
L 370.539034 288.754119 
L 370.864013 293.113687 
L 371.188993 292.534191 
L 371.513972 293.711102 
L 371.838952 291.753631 
L 372.163931 292.575978 
L 372.488911 288.288432 
L 372.81389 291.150935 
L 373.13887 291.159236 
L 373.463849 293.895449 
L 373.788829 292.650628 
L 374.113808 290.530505 
L 374.438788 293.394079 
L 374.763767 291.30844 
L 375.088747 291.264799 
L 375.413726 289.393891 
L 375.738706 288.284227 
L 376.063686 293.014995 
L 376.388665 290.602131 
L 376.713645 291.904452 
L 377.038624 288.527561 
L 377.363604 293.211916 
L 377.688583 291.185548 
L 378.013563 293.196444 
L 378.338542 291.950906 
L 378.663522 292.335759 
L 378.988501 290.401338 
L 379.313481 292.784025 
L 379.63846 293.006015 
L 379.96344 294.372299 
L 380.288419 290.751038 
L 380.613399 293.645757 
L 380.938378 289.664661 
L 381.263358 289.407088 
L 381.588337 292.424143 
L 381.913317 288.378896 
L 382.238296 291.081499 
L 382.563276 290.571022 
L 383.213235 284.897073 
L 383.538215 289.888164 
L 383.863194 286.970518 
L 384.188174 287.148881 
L 384.513153 290.485963 
L 385.163112 290.246242 
L 385.488092 292.350117 
L 385.813071 284.067778 
L 386.138051 285.749728 
L 386.46303 290.366819 
L 386.78801 283.425298 
L 387.112989 292.736089 
L 387.437969 286.972274 
L 387.762948 287.626318 
L 388.087928 292.837186 
L 388.412907 286.651942 
L 388.737887 289.974018 
L 389.062867 282.503904 
L 389.387846 290.692046 
L 389.712826 292.754649 
L 390.037805 279.147997 
L 390.362785 288.054748 
L 390.687764 287.536377 
L 391.012744 285.230767 
L 391.337723 290.533688 
L 391.662703 290.632068 
L 391.987682 292.333034 
L 392.312662 291.863472 
L 392.637641 290.069191 
L 392.962621 291.991675 
L 393.2876 287.779025 
L 393.61258 289.609853 
L 393.937559 292.12176 
L 394.262539 292.510844 
L 394.587518 281.0122 
L 394.912498 287.559771 
L 395.237477 283.642534 
L 395.887437 281.08863 
L 396.212416 288.757037 
L 396.537396 288.454153 
L 396.862375 290.058889 
L 397.187355 283.774198 
L 397.512334 291.054242 
L 397.837314 292.337131 
L 398.162293 281.970887 
L 398.487273 289.222228 
L 398.487273 289.222228 
" clip-path="url(#p188110a881)" style="fill: none; stroke: #1f77b4; stroke-width: 1.5; stroke-linecap: square"/>
   </g>
   <g id="line2d_17">
    <path d="M 73.832727 293.829789 
L 74.157707 293.644442 
L 74.482686 294.521577 
L 74.807666 294.379085 
L 75.132645 294.472726 
L 75.457625 294.154769 
L 75.782604 294.060486 
L 76.107584 294.461925 
L 76.432563 293.005773 
L 76.757543 294.314735 
L 77.082523 294.396672 
L 77.407502 293.440305 
L 77.732482 294.916622 
L 78.057461 294.650099 
L 78.382441 294.925949 
L 78.70742 294.414583 
L 79.0324 292.575566 
L 79.357379 292.801417 
L 80.007338 294.498889 
L 80.332318 295.019148 
L 80.657297 293.294298 
L 80.982277 294.313129 
L 81.307256 294.711317 
L 81.632236 293.856539 
L 81.957215 294.844951 
L 82.282195 293.403504 
L 82.607174 294.345398 
L 83.257133 293.092272 
L 83.582113 292.89781 
L 83.907093 290.87605 
L 84.232072 291.018237 
L 84.557052 293.604977 
L 84.882031 291.641653 
L 85.207011 293.252183 
L 85.53199 294.200158 
L 85.85697 293.563351 
L 86.506929 293.189286 
L 86.831908 294.617229 
L 87.156888 294.047604 
L 87.481867 294.934198 
L 88.131826 292.136112 
L 88.456806 292.93986 
L 88.781785 294.106153 
L 89.106765 293.486946 
L 89.431744 291.314188 
L 89.756724 293.001968 
L 90.081704 294.014927 
L 90.406683 291.354091 
L 90.731663 291.719461 
L 91.056642 290.72176 
L 91.381622 293.545494 
L 91.706601 291.948273 
L 92.031581 291.754678 
L 92.35656 292.704932 
L 92.68154 289.534643 
L 93.006519 292.663496 
L 93.656478 294.996964 
L 93.981458 294.125348 
L 94.306437 294.74787 
L 94.631417 293.328336 
L 94.956396 293.86272 
L 95.606355 293.360472 
L 95.931335 293.648659 
L 96.256314 291.522868 
L 96.581294 292.924 
L 96.906274 292.294049 
L 97.231253 293.170513 
L 97.556233 292.755372 
L 97.881212 293.802011 
L 98.206192 289.851494 
L 98.531171 292.531236 
L 98.856151 291.342243 
L 99.18113 288.8524 
L 99.50611 294.026292 
L 99.831089 293.283195 
L 100.156069 290.482597 
L 100.481048 290.507598 
L 100.806028 292.406195 
L 101.131007 293.636511 
L 101.455987 292.755634 
L 101.780966 290.950951 
L 102.105946 292.297682 
L 102.430925 294.653465 
L 102.755905 292.60898 
L 103.730844 294.612184 
L 104.055823 291.501036 
L 104.380803 294.623884 
L 104.705782 292.107327 
L 105.030762 292.114275 
L 105.355741 291.390092 
L 105.680721 293.737931 
L 106.33068 294.619229 
L 106.980639 291.620791 
L 107.305618 293.479276 
L 107.630598 293.766898 
L 107.955577 292.470608 
L 108.280557 294.879119 
L 108.605536 293.81476 
L 108.930516 294.213603 
L 109.255495 293.207399 
L 109.580475 294.713506 
L 109.905455 294.531251 
L 110.230434 293.445106 
L 110.555414 294.2998 
L 110.880393 293.831024 
L 111.205373 293.751245 
L 111.530352 293.220962 
L 111.855332 294.238664 
L 112.180311 291.841928 
L 112.505291 291.876825 
L 112.83027 293.793561 
L 113.15525 294.008234 
L 113.480229 294.43 
L 113.805209 294.315118 
L 114.130188 292.691291 
L 114.455168 294.877745 
L 114.780147 294.385474 
L 115.105127 292.984149 
L 115.430106 293.911054 
L 115.755086 293.858682 
L 116.080066 294.462834 
L 116.405045 294.37239 
L 116.730025 293.322852 
L 117.055004 294.11677 
L 117.704963 292.154836 
L 118.029943 293.750736 
L 118.354922 294.058042 
L 118.679902 293.089215 
L 119.004881 293.551129 
L 119.329861 291.970586 
L 119.65484 293.930619 
L 119.97982 293.291624 
L 120.304799 293.523787 
L 120.629779 292.633246 
L 120.954758 292.072722 
L 121.604717 293.325212 
L 121.929697 293.851563 
L 122.254676 293.396618 
L 122.579656 293.748202 
L 122.904636 293.136387 
L 123.229615 292.996354 
L 123.554595 293.420727 
L 123.879574 294.705634 
L 124.204554 291.289983 
L 124.529533 292.139031 
L 124.854513 291.456784 
L 125.179492 292.250465 
L 125.504472 288.53103 
L 125.829451 293.344354 
L 126.154431 293.554374 
L 126.47941 291.172075 
L 126.80439 290.68356 
L 127.129369 293.130555 
L 127.454349 289.519207 
L 128.104308 293.630889 
L 128.429287 293.572954 
L 128.754267 291.365829 
L 129.079247 294.240953 
L 129.404226 292.304257 
L 129.729206 291.313472 
L 130.054185 293.500124 
L 130.379165 290.349327 
L 130.704144 290.990475 
L 131.029124 288.706455 
L 131.354103 292.528387 
L 131.679083 293.270499 
L 132.004062 291.00428 
L 132.654021 292.81511 
L 132.979001 290.060316 
L 133.30398 291.339751 
L 133.62896 290.270575 
L 133.953939 290.786322 
L 134.278919 292.366133 
L 134.603898 292.60551 
L 134.928878 294.248075 
L 135.253857 293.727246 
L 135.578837 290.70345 
L 135.903817 289.746464 
L 136.228796 289.460443 
L 136.553776 287.99381 
L 136.878755 291.996619 
L 137.203735 293.588777 
L 137.528714 290.628196 
L 137.853694 289.094167 
L 138.178673 293.543823 
L 138.503653 292.152372 
L 139.153612 293.15227 
L 139.478591 292.943519 
L 139.803571 293.909954 
L 140.12855 293.111588 
L 140.45353 291.931761 
L 140.778509 293.530349 
L 141.103489 290.900088 
L 141.428468 289.566459 
L 141.753448 290.822884 
L 142.078428 290.530508 
L 142.403407 292.846158 
L 142.728387 292.326844 
L 143.053366 291.176681 
L 143.378346 294.55081 
L 143.703325 294.314759 
L 144.028305 290.769272 
L 144.353284 291.976155 
L 144.678264 291.684007 
L 145.003243 293.884837 
L 145.328223 293.678784 
L 145.653202 293.107895 
L 145.978182 293.066408 
L 146.303161 290.085507 
L 146.628141 292.395112 
L 146.95312 293.062781 
L 147.2781 293.048245 
L 147.603079 293.19549 
L 147.928059 291.945059 
L 148.253038 292.155819 
L 148.578018 293.594168 
L 148.902998 291.54562 
L 149.227977 292.162905 
L 149.552957 289.78155 
L 149.877936 290.46746 
L 150.202916 292.603428 
L 150.527895 291.905493 
L 150.852875 293.371248 
L 151.177854 293.634141 
L 151.502834 288.175716 
L 151.827813 292.943794 
L 152.152793 293.748652 
L 152.477772 293.413756 
L 152.802752 290.806785 
L 153.127731 292.774627 
L 153.452711 292.166366 
L 153.77769 294.035748 
L 154.10267 291.819563 
L 154.427649 292.445335 
L 154.752629 293.773505 
L 155.077609 294.192643 
L 155.402588 294.809036 
L 156.052547 293.132028 
L 156.377527 294.160956 
L 156.702506 293.644071 
L 157.352465 294.59337 
L 157.677445 294.514978 
L 158.002424 293.972319 
L 158.327404 294.30616 
L 158.977363 293.633611 
L 159.302342 292.363622 
L 159.627322 294.041903 
L 160.60226 295.324027 
L 160.92724 295.21916 
L 161.252219 295.301518 
L 161.577199 294.956443 
L 161.902179 295.093967 
L 162.552138 293.086731 
L 163.202097 294.52444 
L 163.527076 293.081289 
L 163.852056 291.124165 
L 164.177035 292.310604 
L 164.502015 294.899228 
L 164.826994 293.73731 
L 165.151974 293.873038 
L 165.476953 294.919501 
L 165.801933 294.401313 
L 166.126912 293.352431 
L 166.451892 294.192579 
L 166.776871 293.874611 
L 167.101851 294.109878 
L 167.42683 293.155838 
L 167.75181 293.967968 
L 168.07679 293.242284 
L 168.401769 292.829567 
L 168.726749 291.758806 
L 169.051728 293.015327 
L 169.376708 292.602894 
L 169.701687 283.846206 
L 170.026667 291.983604 
L 170.351646 288.966706 
L 170.676626 290.986202 
L 171.001605 290.71 
L 171.326585 290.96653 
L 171.651564 290.658922 
L 171.976544 294.185893 
L 172.301523 291.723846 
L 172.626503 292.973614 
L 172.951482 291.644067 
L 173.276462 291.581628 
L 173.601441 292.030569 
L 173.926421 291.737293 
L 174.2514 289.778573 
L 174.57638 285.967259 
L 174.90136 289.5133 
L 175.226339 291.151087 
L 175.551319 288.449338 
L 175.876298 291.944694 
L 176.201278 291.090905 
L 176.526257 285.002519 
L 176.851237 293.017664 
L 177.501196 287.211448 
L 177.826175 287.650471 
L 178.151155 289.589091 
L 178.476134 289.934839 
L 178.801114 291.174225 
L 179.126093 288.163418 
L 179.451073 291.399427 
L 179.776052 289.293027 
L 180.101032 288.967102 
L 180.426011 292.580788 
L 180.750991 287.000399 
L 181.075971 293.19122 
L 181.40095 290.772831 
L 181.72593 287.027304 
L 182.050909 287.068323 
L 182.375889 289.837819 
L 182.700868 282.646736 
L 183.025848 287.90067 
L 183.350827 289.752115 
L 183.675807 289.323732 
L 184.000786 289.85001 
L 184.325766 289.786194 
L 184.650745 287.552903 
L 184.975725 291.797528 
L 185.300704 291.54158 
L 185.625684 290.904235 
L 185.950663 285.468032 
L 186.275643 291.953896 
L 186.600622 288.332552 
L 186.925602 289.748031 
L 187.250581 289.488208 
L 187.575561 290.320429 
L 187.900541 289.5496 
L 188.5505 292.943253 
L 188.875479 288.122232 
L 189.200459 291.896858 
L 189.525438 293.51682 
L 189.850418 288.441938 
L 190.175397 291.843631 
L 190.500377 292.035061 
L 190.825356 291.407767 
L 191.150336 292.393634 
L 191.475315 294.044597 
L 191.800295 293.227215 
L 192.125274 289.268834 
L 192.450254 292.642167 
L 192.775233 294.299034 
L 193.100213 294.577985 
L 193.425192 292.918399 
L 193.750172 289.691529 
L 194.075152 291.80395 
L 194.400131 290.810387 
L 194.725111 292.990467 
L 195.05009 293.949796 
L 195.37507 294.393428 
L 195.700049 293.286757 
L 196.025029 293.122896 
L 196.350008 294.065225 
L 196.999967 292.124069 
L 197.324947 291.923816 
L 197.649926 294.71877 
L 197.974906 294.929437 
L 198.299885 294.497256 
L 198.624865 294.423074 
L 198.949844 294.656423 
L 199.274824 293.319226 
L 199.599803 291.071245 
L 199.924783 293.948771 
L 200.249762 294.108883 
L 200.899722 291.570834 
L 201.224701 294.345811 
L 201.549681 293.014909 
L 201.87466 293.770298 
L 202.19964 294.027931 
L 202.524619 295.02457 
L 202.849599 294.50161 
L 203.174578 293.088383 
L 203.499558 294.83767 
L 203.824537 294.776554 
L 204.149517 294.095911 
L 204.799476 295.137757 
L 205.124455 293.528789 
L 205.449435 294.392942 
L 205.774414 290.905217 
L 206.099394 294.461436 
L 206.424373 295.061201 
L 206.749353 293.431035 
L 207.399312 294.164919 
L 208.049271 293.950369 
L 208.374251 294.50986 
L 208.69923 292.021496 
L 209.02421 294.761761 
L 209.349189 293.816644 
L 209.674169 294.059494 
L 209.999148 293.861386 
L 210.324128 292.920827 
L 210.649107 292.603605 
L 210.974087 292.927677 
L 211.299066 291.699596 
L 211.624046 291.919523 
L 211.949025 289.756925 
L 212.598984 292.281847 
L 212.923964 292.418517 
L 213.248943 290.770441 
L 213.573923 291.726595 
L 213.898903 289.212147 
L 214.223882 288.366493 
L 214.548862 289.313321 
L 214.873841 291.829023 
L 215.198821 291.195853 
L 215.5238 286.230521 
L 215.84878 289.690291 
L 216.173759 286.553051 
L 216.498739 289.877722 
L 216.823718 282.003523 
L 217.473677 287.331443 
L 217.798657 290.82389 
L 218.123636 282.014283 
L 218.448616 280.983831 
L 218.773595 283.269018 
L 219.098575 287.892775 
L 219.423554 283.062618 
L 219.748534 285.87597 
L 220.073514 292.101386 
L 220.723473 280.388504 
L 221.048452 284.985772 
L 221.373432 283.552273 
L 221.698411 283.966225 
L 222.023391 281.463486 
L 222.34837 283.5401 
L 222.67335 288.628673 
L 223.323309 285.909392 
L 223.648288 286.190554 
L 223.973268 286.253905 
L 224.298247 289.104592 
L 224.623227 287.502935 
L 224.948206 269.58523 
L 225.273186 285.516774 
L 225.598165 276.413721 
L 226.248124 275.6776 
L 226.573104 285.16565 
L 226.898084 285.67433 
L 227.223063 275.338065 
L 227.548043 259.11454 
L 227.873022 281.836911 
L 228.198002 261.434458 
L 228.522981 269.58362 
L 228.847961 271.591732 
L 229.17294 254.942851 
L 229.49792 257.906979 
L 229.822899 276.000264 
L 230.147879 273.541763 
L 230.472858 269.774505 
L 230.797838 268.628262 
L 231.122817 254.284858 
L 231.447797 255.861323 
L 231.772776 259.660541 
L 232.097756 277.856945 
L 232.747715 255.331142 
L 233.072695 266.980942 
L 233.397674 263.76828 
L 234.047633 251.675056 
L 234.372613 267.724279 
L 234.697592 217.9576 
L 235.022572 253.735895 
L 235.347551 259.466834 
L 235.672531 256.233543 
L 235.99751 245.687789 
L 236.32249 259.508121 
L 236.647469 214.917693 
L 236.972449 229.30395 
L 237.297428 153.376555 
L 237.947387 212.19401 
L 238.272367 177.223936 
L 238.597346 199.465841 
L 238.922326 179.163896 
L 239.247305 239.155738 
L 239.572285 239.032077 
L 239.897265 266.177087 
L 240.222244 276.528356 
L 240.547224 256.085921 
L 240.872203 252.84324 
L 241.197183 224.662471 
L 241.522162 232.729158 
L 241.847142 228.532712 
L 242.497101 255.026187 
L 242.82208 255.840171 
L 243.14706 217.616436 
L 243.472039 253.371711 
L 243.797019 273.26168 
L 244.121998 186.660658 
L 244.446978 254.902662 
L 244.771957 252.236747 
L 245.096937 225.604081 
L 245.746896 239.325789 
L 246.071876 196.564961 
L 246.396855 207.392474 
L 246.721835 247.162833 
L 247.696773 110.572478 
L 248.021753 233.247681 
L 248.346732 240.650347 
L 248.671712 224.845075 
L 248.996691 254.212952 
L 249.321671 264.042 
L 249.64665 234.203412 
L 249.97163 245.398029 
L 250.296609 252.251868 
L 250.621589 255.162161 
L 251.271548 215.574039 
L 251.596527 250.291724 
L 251.921507 221.427203 
L 252.246486 178.954555 
L 252.571466 201.967909 
L 252.896446 233.574459 
L 253.221425 218.791256 
L 253.546405 235.395059 
L 253.871384 240.740446 
L 254.196364 191.955708 
L 254.521343 89.087649 
L 254.846323 193.686985 
L 255.171302 198.67402 
L 255.496282 231.797815 
L 255.821261 174.977926 
L 256.146241 252.599641 
L 256.7962 195.752271 
L 257.121179 250.901097 
L 258.096118 157.77774 
L 258.421097 208.686431 
L 258.746077 206.965945 
L 259.071057 211.439676 
L 259.396036 205.644622 
L 259.721016 253.04537 
L 260.045995 208.215836 
L 260.370975 209.264659 
L 260.695954 167.540422 
L 261.020934 181.889117 
L 261.345913 171.583029 
L 261.670893 204.369527 
L 261.995872 185.444435 
L 262.320852 53.568 
L 262.645831 165.374238 
L 262.970811 133.973315 
L 263.29579 130.0804 
L 263.62077 217.632857 
L 263.945749 215.812299 
L 264.270729 134.915317 
L 264.595708 183.394219 
L 264.920688 211.755802 
L 265.245667 168.865284 
L 265.570647 186.61508 
L 265.895627 227.764187 
L 266.220606 233.244128 
L 266.545586 246.381527 
L 266.870565 237.725317 
L 267.195545 224.428932 
L 267.520524 196.68544 
L 267.845504 230.675698 
L 268.170483 225.31167 
L 268.495463 58.11359 
L 268.820442 235.164059 
L 269.145422 242.827353 
L 269.470401 226.048786 
L 269.795381 236.259033 
L 270.12036 230.418465 
L 270.44534 232.615218 
L 270.770319 235.902721 
L 271.095299 238.051445 
L 271.420278 263.640813 
L 271.745258 225.280205 
L 272.070238 251.056657 
L 272.395217 220.082633 
L 272.720197 234.423187 
L 273.045176 191.406608 
L 273.370156 227.657213 
L 273.695135 231.857149 
L 274.020115 201.600323 
L 274.345094 243.945305 
L 274.995053 270.468318 
L 275.320033 239.153423 
L 275.645012 242.051845 
L 275.969992 232.796402 
L 276.294971 230.83623 
L 276.619951 254.579189 
L 276.94493 266.131953 
L 277.26991 269.886305 
L 277.594889 254.15323 
L 277.919869 266.720843 
L 278.244848 274.740337 
L 278.569828 268.660564 
L 278.894808 258.79863 
L 279.219787 280.032176 
L 279.544767 259.662342 
L 280.194726 279.186158 
L 280.519705 261.093343 
L 280.844685 270.275015 
L 281.169664 283.557887 
L 281.494644 282.248066 
L 281.819623 284.765511 
L 282.144603 283.509962 
L 282.794562 280.096017 
L 283.119541 279.435228 
L 283.444521 287.263568 
L 283.7695 282.71989 
L 284.09448 286.384384 
L 284.419459 286.58992 
L 284.744439 282.547972 
L 285.069419 286.349741 
L 285.394398 292.431291 
L 285.719378 289.391612 
L 286.044357 289.719461 
L 286.369337 286.585945 
L 287.019296 290.332786 
L 287.344275 280.791785 
L 287.669255 283.926755 
L 287.994234 288.151142 
L 288.319214 290.08033 
L 288.644193 289.901002 
L 288.969173 287.634694 
L 289.294152 287.477437 
L 289.619132 290.334707 
L 289.944111 289.522825 
L 290.269091 290.800145 
L 290.59407 285.92338 
L 290.91905 288.410684 
L 291.244029 288.501146 
L 291.569009 292.560375 
L 291.893989 290.597356 
L 292.218968 289.321597 
L 292.543948 289.818496 
L 292.868927 292.123323 
L 293.193907 291.500089 
L 293.518886 292.2275 
L 293.843866 293.48294 
L 294.168845 291.851013 
L 294.818804 291.540564 
L 295.143784 289.629457 
L 295.468763 288.640456 
L 295.793743 292.160286 
L 296.118722 292.588757 
L 296.443702 291.162375 
L 296.768681 293.286454 
L 297.093661 289.130787 
L 297.41864 290.109122 
L 297.74362 291.927398 
L 298.0686 291.901487 
L 298.393579 292.733381 
L 298.718559 291.822855 
L 299.043538 290.427114 
L 299.368518 293.973652 
L 299.693497 292.433842 
L 300.018477 293.60202 
L 300.343456 290.652969 
L 300.668436 292.550969 
L 300.993415 292.086005 
L 301.318395 290.265084 
L 301.643374 291.421083 
L 301.968354 293.747252 
L 302.293333 292.940654 
L 302.618313 293.540258 
L 302.943292 290.095751 
L 303.268272 293.037281 
L 303.593251 293.364658 
L 303.918231 292.244531 
L 304.24321 292.136216 
L 304.56819 293.041333 
L 304.89317 294.321163 
L 305.218149 293.069585 
L 305.543129 290.463372 
L 305.868108 293.405416 
L 306.193088 293.418167 
L 306.518067 291.35949 
L 306.843047 294.211801 
L 307.168026 291.287378 
L 307.493006 293.474977 
L 307.817985 292.766994 
L 308.142965 292.742487 
L 308.467944 294.040997 
L 308.792924 292.851244 
L 309.117903 292.674158 
L 309.442883 290.856574 
L 309.767862 287.714333 
L 310.092842 292.158311 
L 310.417821 291.855283 
L 310.742801 290.756093 
L 311.067781 292.099827 
L 311.71774 285.86526 
L 312.042719 292.384201 
L 312.367699 292.172474 
L 312.692678 288.740002 
L 313.017658 290.426262 
L 313.342637 288.505165 
L 313.667617 291.118689 
L 313.992596 290.979701 
L 314.317576 292.750451 
L 314.642555 289.057529 
L 314.967535 289.443733 
L 315.292514 290.920798 
L 315.617494 290.399476 
L 315.942473 290.660251 
L 316.592432 289.427337 
L 316.917412 291.872412 
L 317.242391 291.808605 
L 317.567371 289.838077 
L 317.892351 289.26418 
L 318.21733 289.424882 
L 318.54231 294.043272 
L 318.867289 291.158566 
L 319.192269 293.017232 
L 319.517248 293.783956 
L 319.842228 288.154827 
L 320.167207 287.065769 
L 320.817166 292.230288 
L 321.142146 290.717388 
L 321.467125 288.600979 
L 321.792105 288.922983 
L 322.117084 292.243672 
L 322.767043 287.588402 
L 323.092023 291.494735 
L 323.417002 286.272139 
L 323.741982 291.445451 
L 324.066962 293.496138 
L 324.391941 292.645998 
L 324.716921 292.729151 
L 325.0419 291.148749 
L 325.36688 293.194237 
L 325.691859 286.353165 
L 326.016839 293.136674 
L 326.341818 292.152154 
L 326.666798 292.849446 
L 326.991777 292.574367 
L 327.316757 293.633944 
L 327.641736 291.081748 
L 327.966716 290.791347 
L 328.291695 291.474006 
L 328.616675 292.486496 
L 328.941654 292.927799 
L 329.266634 293.675432 
L 329.591613 293.691504 
L 329.916593 292.743833 
L 330.241572 294.246166 
L 330.566552 294.06459 
L 330.891532 294.653562 
L 331.541491 293.222952 
L 331.86647 289.016521 
L 332.19145 293.543113 
L 332.516429 294.2492 
L 333.166388 293.742637 
L 333.491368 291.40047 
L 333.816347 293.95042 
L 334.141327 290.434657 
L 334.466306 292.498523 
L 334.791286 293.680995 
L 335.116265 293.16543 
L 335.441245 294.327331 
L 335.766224 294.898693 
L 336.091204 292.590625 
L 336.416183 293.031437 
L 336.741163 294.938596 
L 337.066143 294.586434 
L 337.391122 292.037018 
L 338.041081 293.322551 
L 338.366061 294.313806 
L 339.01602 294.985678 
L 339.340999 294.216906 
L 339.665979 294.261248 
L 339.990958 294.109143 
L 340.315938 294.107242 
L 340.965897 294.605571 
L 341.290876 294.570165 
L 341.615856 294.080106 
L 341.940835 294.590927 
L 342.590794 294.872177 
L 342.915774 292.664045 
L 343.240753 293.627207 
L 343.565733 294.966883 
L 343.890713 293.787045 
L 344.215692 294.516506 
L 344.540672 294.110614 
L 344.865651 292.711563 
L 345.190631 293.765962 
L 345.51561 294.220951 
L 345.84059 294.943048 
L 346.165569 292.802782 
L 346.490549 293.465937 
L 346.815528 293.182719 
L 347.140508 293.197957 
L 347.790467 292.643845 
L 348.115446 293.892269 
L 348.440426 294.167162 
L 348.765405 292.029273 
L 349.090385 292.376945 
L 349.415364 293.937882 
L 349.740344 294.11541 
L 350.390303 293.338651 
L 350.715283 294.018037 
L 351.040262 293.893727 
L 351.365242 293.279245 
L 351.690221 291.436873 
L 352.015201 294.777519 
L 352.34018 294.607213 
L 352.990139 292.17373 
L 353.315119 294.400748 
L 353.640098 292.311354 
L 353.965078 292.348695 
L 354.290057 294.150331 
L 354.615037 291.932532 
L 354.940016 293.963116 
L 355.264996 293.52424 
L 355.589975 292.382469 
L 355.914955 293.176874 
L 356.239934 294.394262 
L 356.564914 294.222812 
L 356.889894 291.701438 
L 357.214873 293.916748 
L 357.539853 293.191259 
L 357.864832 292.980123 
L 358.189812 290.024038 
L 358.514791 291.091644 
L 358.839771 292.960149 
L 359.16475 293.486605 
L 359.48973 293.422397 
L 360.139689 292.74632 
L 360.789648 290.087596 
L 361.114627 292.938913 
L 361.439607 294.632484 
L 361.764586 293.933447 
L 362.089566 294.427813 
L 362.414545 292.476846 
L 362.739525 288.150203 
L 363.064505 292.694793 
L 363.714464 293.13988 
L 364.039443 293.805404 
L 364.364423 292.023807 
L 365.014382 293.578005 
L 365.339361 293.068955 
L 365.664341 293.21497 
L 365.98932 292.689794 
L 366.3143 292.469741 
L 366.639279 292.854294 
L 366.964259 289.535705 
L 367.289238 293.658971 
L 367.614218 293.550575 
L 367.939197 292.175623 
L 368.589156 294.760427 
L 368.914136 294.081477 
L 369.564095 293.527348 
L 369.889075 292.189875 
L 370.214054 293.350984 
L 370.539034 291.454378 
L 370.864013 290.747799 
L 371.188993 293.430293 
L 371.513972 294.420288 
L 371.838952 292.859173 
L 372.163931 293.589342 
L 372.488911 291.426199 
L 372.81389 291.614046 
L 373.13887 289.999366 
L 373.463849 292.004824 
L 373.788829 291.386114 
L 374.113808 288.527667 
L 374.438788 292.853883 
L 374.763767 289.481149 
L 375.088747 290.832009 
L 375.413726 289.939821 
L 375.738706 291.399787 
L 376.063686 291.145171 
L 376.388665 292.379542 
L 377.038624 288.334201 
L 377.363604 291.232566 
L 377.688583 290.350589 
L 378.013563 292.837258 
L 378.338542 291.840058 
L 378.663522 291.251399 
L 378.988501 287.823378 
L 379.313481 290.972401 
L 379.63846 292.788928 
L 379.96344 293.249314 
L 380.288419 291.400191 
L 380.613399 292.159022 
L 380.938378 290.491152 
L 381.263358 290.64891 
L 381.588337 293.260501 
L 381.913317 286.392836 
L 382.238296 286.268452 
L 382.563276 292.351424 
L 382.888256 291.417127 
L 383.213235 289.690052 
L 383.538215 292.068997 
L 384.188174 292.07797 
L 384.513153 292.687062 
L 384.838133 291.64606 
L 385.163112 293.648649 
L 385.488092 294.200046 
L 386.138051 291.394701 
L 386.46303 292.234157 
L 386.78801 291.765222 
L 387.112989 293.810572 
L 387.437969 293.883441 
L 387.762948 290.704141 
L 388.087928 293.868396 
L 388.412907 293.160975 
L 388.737887 288.892415 
L 389.062867 292.748366 
L 389.387846 292.071862 
L 389.712826 293.585078 
L 390.037805 291.268118 
L 390.362785 293.513617 
L 391.012744 293.541371 
L 391.337723 294.557208 
L 391.662703 294.505272 
L 391.987682 293.557625 
L 392.312662 294.209104 
L 392.637641 292.720014 
L 392.962621 294.18579 
L 393.61258 291.59194 
L 393.937559 294.394594 
L 394.262539 294.149251 
L 394.587518 291.454097 
L 394.912498 292.932467 
L 395.237477 291.936069 
L 395.887437 292.773214 
L 396.212416 292.622312 
L 396.537396 293.072996 
L 396.862375 290.764398 
L 397.187355 291.086656 
L 397.512334 293.841953 
L 397.837314 291.635193 
L 398.487273 293.108057 
L 398.487273 293.108057 
" clip-path="url(#p188110a881)" style="fill: none; stroke: #ff7f0e; stroke-width: 1.5; stroke-linecap: square"/>
   </g>
   <g id="patch_3">
    <path d="M 57.6 307.584 
L 57.6 41.472 
" style="fill: none; stroke: #000000; stroke-width: 0.8; stroke-linejoin: miter; stroke-linecap: square"/>
   </g>
   <g id="patch_4">
    <path d="M 414.72 307.584 
L 414.72 41.472 
" style="fill: none; stroke: #000000; stroke-width: 0.8; stroke-linejoin: miter; stroke-linecap: square"/>
   </g>
   <g id="patch_5">
    <path d="M 57.6 307.584 
L 414.72 307.584 
" style="fill: none; stroke: #000000; stroke-width: 0.8; stroke-linejoin: miter; stroke-linecap: square"/>
   </g>
   <g id="patch_6">
    <path d="M 57.6 41.472 
L 414.72 41.472 
" style="fill: none; stroke: #000000; stroke-width: 0.8; stroke-linejoin: miter; stroke-linecap: square"/>
   </g>
   <g id="legend_1">
    <g id="patch_7">
     <path d="M 303.802813 79.3845 
L 407.72 79.3845 
Q 409.72 79.3845 409.72 77.3845 
L 409.72 48.472 
Q 409.72 46.472 407.72 46.472 
L 303.802813 46.472 
Q 301.802813 46.472 301.802813 48.472 
L 301.802813 77.3845 
Q 301.802813 79.3845 303.802813 79.3845 
z
" style="fill: #ffffff; opacity: 0.8; stroke: #cccccc; stroke-linejoin: miter"/>
    </g>
    <g id="line2d_18">
     <path d="M 305.802813 54.570438 
L 315.802813 54.570438 
L 325.802813 54.570438 
" style="fill: none; stroke: #1f77b4; stroke-width: 1.5; stroke-linecap: square"/>
    </g>
    <g id="text_16">
     <!-- schisto_neural -->
     <g transform="translate(333.802813 58.070438)scale(0.1 -0.1)">
      <defs>
       <path id="DejaVuSans-73" d="M 2834 3397 
L 2834 2853 
Q 2591 2978 2328 3040 
Q 2066 3103 1784 3103 
Q 1356 3103 1142 2972 
Q 928 2841 928 2578 
Q 928 2378 1081 2264 
Q 1234 2150 1697 2047 
L 1894 2003 
Q 2506 1872 2764 1633 
Q 3022 1394 3022 966 
Q 3022 478 2636 193 
Q 2250 -91 1575 -91 
Q 1294 -91 989 -36 
Q 684 19 347 128 
L 347 722 
Q 666 556 975 473 
Q 1284 391 1588 391 
Q 1994 391 2212 530 
Q 2431 669 2431 922 
Q 2431 1156 2273 1281 
Q 2116 1406 1581 1522 
L 1381 1569 
Q 847 1681 609 1914 
Q 372 2147 372 2553 
Q 372 3047 722 3315 
Q 1072 3584 1716 3584 
Q 2034 3584 2315 3537 
Q 2597 3491 2834 3397 
z
" transform="scale(0.015625)"/>
       <path id="DejaVuSans-63" d="M 3122 3366 
L 3122 2828 
Q 2878 2963 2633 3030 
Q 2388 3097 2138 3097 
Q 1578 3097 1268 2742 
Q 959 2388 959 1747 
Q 959 1106 1268 751 
Q 1578 397 2138 397 
Q 2388 397 2633 464 
Q 2878 531 3122 666 
L 3122 134 
Q 2881 22 2623 -34 
Q 2366 -91 2075 -91 
Q 1284 -91 818 406 
Q 353 903 353 1747 
Q 353 2603 823 3093 
Q 1294 3584 2113 3584 
Q 2378 3584 2631 3529 
Q 2884 3475 3122 3366 
z
" transform="scale(0.015625)"/>
       <path id="DejaVuSans-68" d="M 3513 2113 
L 3513 0 
L 2938 0 
L 2938 2094 
Q 2938 2591 2744 2837 
Q 2550 3084 2163 3084 
Q 1697 3084 1428 2787 
Q 1159 2491 1159 1978 
L 1159 0 
L 581 0 
L 581 4863 
L 1159 4863 
L 1159 2956 
Q 1366 3272 1645 3428 
Q 1925 3584 2291 3584 
Q 2894 3584 3203 3211 
Q 3513 2838 3513 2113 
z
" transform="scale(0.015625)"/>
       <path id="DejaVuSans-69" d="M 603 3500 
L 1178 3500 
L 1178 0 
L 603 0 
L 603 3500 
z
M 603 4863 
L 1178 4863 
L 1178 4134 
L 603 4134 
L 603 4863 
z
" transform="scale(0.015625)"/>
       <path id="DejaVuSans-74" d="M 1172 4494 
L 1172 3500 
L 2356 3500 
L 2356 3053 
L 1172 3053 
L 1172 1153 
Q 1172 725 1289 603 
Q 1406 481 1766 481 
L 2356 481 
L 2356 0 
L 1766 0 
Q 1100 0 847 248 
Q 594 497 594 1153 
L 594 3053 
L 172 3053 
L 172 3500 
L 594 3500 
L 594 4494 
L 1172 4494 
z
" transform="scale(0.015625)"/>
       <path id="DejaVuSans-6f" d="M 1959 3097 
Q 1497 3097 1228 2736 
Q 959 2375 959 1747 
Q 959 1119 1226 758 
Q 1494 397 1959 397 
Q 2419 397 2687 759 
Q 2956 1122 2956 1747 
Q 2956 2369 2687 2733 
Q 2419 3097 1959 3097 
z
M 1959 3584 
Q 2709 3584 3137 3096 
Q 3566 2609 3566 1747 
Q 3566 888 3137 398 
Q 2709 -91 1959 -91 
Q 1206 -91 779 398 
Q 353 888 353 1747 
Q 353 2609 779 3096 
Q 1206 3584 1959 3584 
z
" transform="scale(0.015625)"/>
       <path id="DejaVuSans-5f" d="M 3263 -1063 
L 3263 -1509 
L -63 -1509 
L -63 -1063 
L 3263 -1063 
z
" transform="scale(0.015625)"/>
       <path id="DejaVuSans-6e" d="M 3513 2113 
L 3513 0 
L 2938 0 
L 2938 2094 
Q 2938 2591 2744 2837 
Q 2550 3084 2163 3084 
Q 1697 3084 1428 2787 
Q 1159 2491 1159 1978 
L 1159 0 
L 581 0 
L 581 3500 
L 1159 3500 
L 1159 2956 
Q 1366 3272 1645 3428 
Q 1925 3584 2291 3584 
Q 2894 3584 3203 3211 
Q 3513 2838 3513 2113 
z
" transform="scale(0.015625)"/>
       <path id="DejaVuSans-65" d="M 3597 1894 
L 3597 1613 
L 953 1613 
Q 991 1019 1311 708 
Q 1631 397 2203 397 
Q 2534 397 2845 478 
Q 3156 559 3463 722 
L 3463 178 
Q 3153 47 2828 -22 
Q 2503 -91 2169 -91 
Q 1331 -91 842 396 
Q 353 884 353 1716 
Q 353 2575 817 3079 
Q 1281 3584 2069 3584 
Q 2775 3584 3186 3129 
Q 3597 2675 3597 1894 
z
M 3022 2063 
Q 3016 2534 2758 2815 
Q 2500 3097 2075 3097 
Q 1594 3097 1305 2825 
Q 1016 2553 972 2059 
L 3022 2063 
z
" transform="scale(0.015625)"/>
       <path id="DejaVuSans-75" d="M 544 1381 
L 544 3500 
L 1119 3500 
L 1119 1403 
Q 1119 906 1312 657 
Q 1506 409 1894 409 
Q 2359 409 2629 706 
Q 2900 1003 2900 1516 
L 2900 3500 
L 3475 3500 
L 3475 0 
L 2900 0 
L 2900 538 
Q 2691 219 2414 64 
Q 2138 -91 1772 -91 
Q 1169 -91 856 284 
Q 544 659 544 1381 
z
M 1991 3584 
L 1991 3584 
z
" transform="scale(0.015625)"/>
       <path id="DejaVuSans-72" d="M 2631 2963 
Q 2534 3019 2420 3045 
Q 2306 3072 2169 3072 
Q 1681 3072 1420 2755 
Q 1159 2438 1159 1844 
L 1159 0 
L 581 0 
L 581 3500 
L 1159 3500 
L 1159 2956 
Q 1341 3275 1631 3429 
Q 1922 3584 2338 3584 
Q 2397 3584 2469 3576 
Q 2541 3569 2628 3553 
L 2631 2963 
z
" transform="scale(0.015625)"/>
       <path id="DejaVuSans-61" d="M 2194 1759 
Q 1497 1759 1228 1600 
Q 959 1441 959 1056 
Q 959 750 1161 570 
Q 1363 391 1709 391 
Q 2188 391 2477 730 
Q 2766 1069 2766 1631 
L 2766 1759 
L 2194 1759 
z
M 3341 1997 
L 3341 0 
L 2766 0 
L 2766 531 
Q 2569 213 2275 61 
Q 1981 -91 1556 -91 
Q 1019 -91 701 211 
Q 384 513 384 1019 
Q 384 1609 779 1909 
Q 1175 2209 1959 2209 
L 2766 2209 
L 2766 2266 
Q 2766 2663 2505 2880 
Q 2244 3097 1772 3097 
Q 1472 3097 1187 3025 
Q 903 2953 641 2809 
L 641 3341 
Q 956 3463 1253 3523 
Q 1550 3584 1831 3584 
Q 2591 3584 2966 3190 
Q 3341 2797 3341 1997 
z
" transform="scale(0.015625)"/>
       <path id="DejaVuSans-6c" d="M 603 4863 
L 1178 4863 
L 1178 0 
L 603 0 
L 603 4863 
z
" transform="scale(0.015625)"/>
      </defs>
      <use xlink:href="#DejaVuSans-73"/>
      <use xlink:href="#DejaVuSans-63" x="52.099609"/>
      <use xlink:href="#DejaVuSans-68" x="107.080078"/>
      <use xlink:href="#DejaVuSans-69" x="170.458984"/>
      <use xlink:href="#DejaVuSans-73" x="198.242188"/>
      <use xlink:href="#DejaVuSans-74" x="250.341797"/>
      <use xlink:href="#DejaVuSans-6f" x="289.550781"/>
      <use xlink:href="#DejaVuSans-5f" x="350.732422"/>
      <use xlink:href="#DejaVuSans-6e" x="400.732422"/>
      <use xlink:href="#DejaVuSans-65" x="464.111328"/>
      <use xlink:href="#DejaVuSans-75" x="525.634766"/>
      <use xlink:href="#DejaVuSans-72" x="589.013672"/>
      <use xlink:href="#DejaVuSans-61" x="630.126953"/>
      <use xlink:href="#DejaVuSans-6c" x="691.40625"/>
     </g>
    </g>
    <g id="line2d_19">
     <path d="M 305.802813 69.526688 
L 315.802813 69.526688 
L 325.802813 69.526688 
" style="fill: none; stroke: #ff7f0e; stroke-width: 1.5; stroke-linecap: square"/>
    </g>
    <g id="text_17">
     <!-- Smed_neural -->
     <g transform="translate(333.802813 73.026688)scale(0.1 -0.1)">
      <defs>
       <path id="DejaVuSans-53" d="M 3425 4513 
L 3425 3897 
Q 3066 4069 2747 4153 
Q 2428 4238 2131 4238 
Q 1616 4238 1336 4038 
Q 1056 3838 1056 3469 
Q 1056 3159 1242 3001 
Q 1428 2844 1947 2747 
L 2328 2669 
Q 3034 2534 3370 2195 
Q 3706 1856 3706 1288 
Q 3706 609 3251 259 
Q 2797 -91 1919 -91 
Q 1588 -91 1214 -16 
Q 841 59 441 206 
L 441 856 
Q 825 641 1194 531 
Q 1563 422 1919 422 
Q 2459 422 2753 634 
Q 3047 847 3047 1241 
Q 3047 1584 2836 1778 
Q 2625 1972 2144 2069 
L 1759 2144 
Q 1053 2284 737 2584 
Q 422 2884 422 3419 
Q 422 4038 858 4394 
Q 1294 4750 2059 4750 
Q 2388 4750 2728 4690 
Q 3069 4631 3425 4513 
z
" transform="scale(0.015625)"/>
       <path id="DejaVuSans-6d" d="M 3328 2828 
Q 3544 3216 3844 3400 
Q 4144 3584 4550 3584 
Q 5097 3584 5394 3201 
Q 5691 2819 5691 2113 
L 5691 0 
L 5113 0 
L 5113 2094 
Q 5113 2597 4934 2840 
Q 4756 3084 4391 3084 
Q 3944 3084 3684 2787 
Q 3425 2491 3425 1978 
L 3425 0 
L 2847 0 
L 2847 2094 
Q 2847 2600 2669 2842 
Q 2491 3084 2119 3084 
Q 1678 3084 1418 2786 
Q 1159 2488 1159 1978 
L 1159 0 
L 581 0 
L 581 3500 
L 1159 3500 
L 1159 2956 
Q 1356 3278 1631 3431 
Q 1906 3584 2284 3584 
Q 2666 3584 2933 3390 
Q 3200 3197 3328 2828 
z
" transform="scale(0.015625)"/>
       <path id="DejaVuSans-64" d="M 2906 2969 
L 2906 4863 
L 3481 4863 
L 3481 0 
L 2906 0 
L 2906 525 
Q 2725 213 2448 61 
Q 2172 -91 1784 -91 
Q 1150 -91 751 415 
Q 353 922 353 1747 
Q 353 2572 751 3078 
Q 1150 3584 1784 3584 
Q 2172 3584 2448 3432 
Q 2725 3281 2906 2969 
z
M 947 1747 
Q 947 1113 1208 752 
Q 1469 391 1925 391 
Q 2381 391 2643 752 
Q 2906 1113 2906 1747 
Q 2906 2381 2643 2742 
Q 2381 3103 1925 3103 
Q 1469 3103 1208 2742 
Q 947 2381 947 1747 
z
" transform="scale(0.015625)"/>
      </defs>
      <use xlink:href="#DejaVuSans-53"/>
      <use xlink:href="#DejaVuSans-6d" x="63.476562"/>
      <use xlink:href="#DejaVuSans-65" x="160.888672"/>
      <use xlink:href="#DejaVuSans-64" x="222.412109"/>
      <use xlink:href="#DejaVuSans-5f" x="285.888672"/>
      <use xlink:href="#DejaVuSans-6e" x="335.888672"/>
      <use xlink:href="#DejaVuSans-65" x="399.267578"/>
      <use xlink:href="#DejaVuSans-75" x="460.791016"/>
      <use xlink:href="#DejaVuSans-72" x="524.169922"/>
      <use xlink:href="#DejaVuSans-61" x="565.283203"/>
      <use xlink:href="#DejaVuSans-6c" x="626.5625"/>
     </g>
    </g>
   </g>
  </g>
 </g>
 <defs>
  <clipPath id="p188110a881">
   <rect x="57.6" y="41.472" width="357.12" height="266.112"/>
  </clipPath>
 </defs>
</svg>
