<?xml version="1.0" encoding="utf-8" standalone="no"?>
<!DOCTYPE svg PUBLIC "-//W3C//DTD SVG 1.1//EN"
  "http://www.w3.org/Graphics/SVG/1.1/DTD/svg11.dtd">
<svg xmlns:xlink="http://www.w3.org/1999/xlink" width="460.8pt" height="345.6pt" viewBox="0 0 460.8 345.6" xmlns="http://www.w3.org/2000/svg" version="1.1">
 <metadata>
  <rdf:RDF xmlns:dc="http://purl.org/dc/elements/1.1/" xmlns:cc="http://creativecommons.org/ns#" xmlns:rdf="http://www.w3.org/1999/02/22-rdf-syntax-ns#">
   <cc:Work>
    <dc:type rdf:resource="http://purl.org/dc/dcmitype/StillImage"/>
    <dc:date>2024-05-07T00:19:03.525239</dc:date>
    <dc:format>image/svg+xml</dc:format>
    <dc:creator>
     <cc:Agent>
      <dc:title>Matplotlib v3.5.1, https://matplotlib.org/</dc:title>
     </cc:Agent>
    </dc:creator>
   </cc:Work>
  </rdf:RDF>
 </metadata>
 <defs>
  <style type="text/css">*{stroke-linejoin: round; stroke-linecap: butt}</style>
 </defs>
 <g id="figure_1">
  <g id="patch_1">
   <path d="M 0 345.6 
L 460.8 345.6 
L 460.8 0 
L 0 0 
z
" style="fill: #ffffff"/>
  </g>
  <g id="axes_1">
   <g id="patch_2">
    <path d="M 57.6 307.584 
L 414.72 307.584 
L 414.72 41.472 
L 57.6 41.472 
z
" style="fill: #ffffff"/>
   </g>
   <g id="matplotlib.axis_1">
    <g id="xtick_1">
     <g id="line2d_1">
      <defs>
       <path id="mfcc5b54464" d="M 0 0 
L 0 3.5 
" style="stroke: #000000; stroke-width: 0.8"/>
      </defs>
      <g>
       <use xlink:href="#mfcc5b54464" x="73.832727" y="307.584" style="stroke: #000000; stroke-width: 0.8"/>
      </g>
     </g>
     <g id="text_1">
      <!-- 0 -->
      <g transform="translate(70.651477 322.182437)scale(0.1 -0.1)">
       <defs>
        <path id="DejaVuSans-30" d="M 2034 4250 
Q 1547 4250 1301 3770 
Q 1056 3291 1056 2328 
Q 1056 1369 1301 889 
Q 1547 409 2034 409 
Q 2525 409 2770 889 
Q 3016 1369 3016 2328 
Q 3016 3291 2770 3770 
Q 2525 4250 2034 4250 
z
M 2034 4750 
Q 2819 4750 3233 4129 
Q 3647 3509 3647 2328 
Q 3647 1150 3233 529 
Q 2819 -91 2034 -91 
Q 1250 -91 836 529 
Q 422 1150 422 2328 
Q 422 3509 836 4129 
Q 1250 4750 2034 4750 
z
" transform="scale(0.015625)"/>
       </defs>
       <use xlink:href="#DejaVuSans-30"/>
      </g>
     </g>
    </g>
    <g id="xtick_2">
     <g id="line2d_2">
      <g>
       <use xlink:href="#mfcc5b54464" x="138.828632" y="307.584" style="stroke: #000000; stroke-width: 0.8"/>
      </g>
     </g>
     <g id="text_2">
      <!-- 200 -->
      <g transform="translate(129.284882 322.182437)scale(0.1 -0.1)">
       <defs>
        <path id="DejaVuSans-32" d="M 1228 531 
L 3431 531 
L 3431 0 
L 469 0 
L 469 531 
Q 828 903 1448 1529 
Q 2069 2156 2228 2338 
Q 2531 2678 2651 2914 
Q 2772 3150 2772 3378 
Q 2772 3750 2511 3984 
Q 2250 4219 1831 4219 
Q 1534 4219 1204 4116 
Q 875 4013 500 3803 
L 500 4441 
Q 881 4594 1212 4672 
Q 1544 4750 1819 4750 
Q 2544 4750 2975 4387 
Q 3406 4025 3406 3419 
Q 3406 3131 3298 2873 
Q 3191 2616 2906 2266 
Q 2828 2175 2409 1742 
Q 1991 1309 1228 531 
z
" transform="scale(0.015625)"/>
       </defs>
       <use xlink:href="#DejaVuSans-32"/>
       <use xlink:href="#DejaVuSans-30" x="63.623047"/>
       <use xlink:href="#DejaVuSans-30" x="127.246094"/>
      </g>
     </g>
    </g>
    <g id="xtick_3">
     <g id="line2d_3">
      <g>
       <use xlink:href="#mfcc5b54464" x="203.824537" y="307.584" style="stroke: #000000; stroke-width: 0.8"/>
      </g>
     </g>
     <g id="text_3">
      <!-- 400 -->
      <g transform="translate(194.280787 322.182437)scale(0.1 -0.1)">
       <defs>
        <path id="DejaVuSans-34" d="M 2419 4116 
L 825 1625 
L 2419 1625 
L 2419 4116 
z
M 2253 4666 
L 3047 4666 
L 3047 1625 
L 3713 1625 
L 3713 1100 
L 3047 1100 
L 3047 0 
L 2419 0 
L 2419 1100 
L 313 1100 
L 313 1709 
L 2253 4666 
z
" transform="scale(0.015625)"/>
       </defs>
       <use xlink:href="#DejaVuSans-34"/>
       <use xlink:href="#DejaVuSans-30" x="63.623047"/>
       <use xlink:href="#DejaVuSans-30" x="127.246094"/>
      </g>
     </g>
    </g>
    <g id="xtick_4">
     <g id="line2d_4">
      <g>
       <use xlink:href="#mfcc5b54464" x="268.820442" y="307.584" style="stroke: #000000; stroke-width: 0.8"/>
      </g>
     </g>
     <g id="text_4">
      <!-- 600 -->
      <g transform="translate(259.276692 322.182437)scale(0.1 -0.1)">
       <defs>
        <path id="DejaVuSans-36" d="M 2113 2584 
Q 1688 2584 1439 2293 
Q 1191 2003 1191 1497 
Q 1191 994 1439 701 
Q 1688 409 2113 409 
Q 2538 409 2786 701 
Q 3034 994 3034 1497 
Q 3034 2003 2786 2293 
Q 2538 2584 2113 2584 
z
M 3366 4563 
L 3366 3988 
Q 3128 4100 2886 4159 
Q 2644 4219 2406 4219 
Q 1781 4219 1451 3797 
Q 1122 3375 1075 2522 
Q 1259 2794 1537 2939 
Q 1816 3084 2150 3084 
Q 2853 3084 3261 2657 
Q 3669 2231 3669 1497 
Q 3669 778 3244 343 
Q 2819 -91 2113 -91 
Q 1303 -91 875 529 
Q 447 1150 447 2328 
Q 447 3434 972 4092 
Q 1497 4750 2381 4750 
Q 2619 4750 2861 4703 
Q 3103 4656 3366 4563 
z
" transform="scale(0.015625)"/>
       </defs>
       <use xlink:href="#DejaVuSans-36"/>
       <use xlink:href="#DejaVuSans-30" x="63.623047"/>
       <use xlink:href="#DejaVuSans-30" x="127.246094"/>
      </g>
     </g>
    </g>
    <g id="xtick_5">
     <g id="line2d_5">
      <g>
       <use xlink:href="#mfcc5b54464" x="333.816347" y="307.584" style="stroke: #000000; stroke-width: 0.8"/>
      </g>
     </g>
     <g id="text_5">
      <!-- 800 -->
      <g transform="translate(324.272597 322.182437)scale(0.1 -0.1)">
       <defs>
        <path id="DejaVuSans-38" d="M 2034 2216 
Q 1584 2216 1326 1975 
Q 1069 1734 1069 1313 
Q 1069 891 1326 650 
Q 1584 409 2034 409 
Q 2484 409 2743 651 
Q 3003 894 3003 1313 
Q 3003 1734 2745 1975 
Q 2488 2216 2034 2216 
z
M 1403 2484 
Q 997 2584 770 2862 
Q 544 3141 544 3541 
Q 544 4100 942 4425 
Q 1341 4750 2034 4750 
Q 2731 4750 3128 4425 
Q 3525 4100 3525 3541 
Q 3525 3141 3298 2862 
Q 3072 2584 2669 2484 
Q 3125 2378 3379 2068 
Q 3634 1759 3634 1313 
Q 3634 634 3220 271 
Q 2806 -91 2034 -91 
Q 1263 -91 848 271 
Q 434 634 434 1313 
Q 434 1759 690 2068 
Q 947 2378 1403 2484 
z
M 1172 3481 
Q 1172 3119 1398 2916 
Q 1625 2713 2034 2713 
Q 2441 2713 2670 2916 
Q 2900 3119 2900 3481 
Q 2900 3844 2670 4047 
Q 2441 4250 2034 4250 
Q 1625 4250 1398 4047 
Q 1172 3844 1172 3481 
z
" transform="scale(0.015625)"/>
       </defs>
       <use xlink:href="#DejaVuSans-38"/>
       <use xlink:href="#DejaVuSans-30" x="63.623047"/>
       <use xlink:href="#DejaVuSans-30" x="127.246094"/>
      </g>
     </g>
    </g>
    <g id="xtick_6">
     <g id="line2d_6">
      <g>
       <use xlink:href="#mfcc5b54464" x="398.812252" y="307.584" style="stroke: #000000; stroke-width: 0.8"/>
      </g>
     </g>
     <g id="text_6">
      <!-- 1000 -->
      <g transform="translate(386.087252 322.182437)scale(0.1 -0.1)">
       <defs>
        <path id="DejaVuSans-31" d="M 794 531 
L 1825 531 
L 1825 4091 
L 703 3866 
L 703 4441 
L 1819 4666 
L 2450 4666 
L 2450 531 
L 3481 531 
L 3481 0 
L 794 0 
L 794 531 
z
" transform="scale(0.015625)"/>
       </defs>
       <use xlink:href="#DejaVuSans-31"/>
       <use xlink:href="#DejaVuSans-30" x="63.623047"/>
       <use xlink:href="#DejaVuSans-30" x="127.246094"/>
       <use xlink:href="#DejaVuSans-30" x="190.869141"/>
      </g>
     </g>
    </g>
   </g>
   <g id="matplotlib.axis_2">
    <g id="ytick_1">
     <g id="line2d_7">
      <defs>
       <path id="mbac99f4c48" d="M 0 0 
L -3.5 0 
" style="stroke: #000000; stroke-width: 0.8"/>
      </defs>
      <g>
       <use xlink:href="#mbac99f4c48" x="57.6" y="296.460108" style="stroke: #000000; stroke-width: 0.8"/>
      </g>
     </g>
     <g id="text_7">
      <!-- 0.000 -->
      <g transform="translate(21.971875 300.259327)scale(0.1 -0.1)">
       <defs>
        <path id="DejaVuSans-2e" d="M 684 794 
L 1344 794 
L 1344 0 
L 684 0 
L 684 794 
z
" transform="scale(0.015625)"/>
       </defs>
       <use xlink:href="#DejaVuSans-30"/>
       <use xlink:href="#DejaVuSans-2e" x="63.623047"/>
       <use xlink:href="#DejaVuSans-30" x="95.410156"/>
       <use xlink:href="#DejaVuSans-30" x="159.033203"/>
       <use xlink:href="#DejaVuSans-30" x="222.65625"/>
      </g>
     </g>
    </g>
    <g id="ytick_2">
     <g id="line2d_8">
      <g>
       <use xlink:href="#mbac99f4c48" x="57.6" y="257.766365" style="stroke: #000000; stroke-width: 0.8"/>
      </g>
     </g>
     <g id="text_8">
      <!-- 0.002 -->
      <g transform="translate(21.971875 261.565583)scale(0.1 -0.1)">
       <use xlink:href="#DejaVuSans-30"/>
       <use xlink:href="#DejaVuSans-2e" x="63.623047"/>
       <use xlink:href="#DejaVuSans-30" x="95.410156"/>
       <use xlink:href="#DejaVuSans-30" x="159.033203"/>
       <use xlink:href="#DejaVuSans-32" x="222.65625"/>
      </g>
     </g>
    </g>
    <g id="ytick_3">
     <g id="line2d_9">
      <g>
       <use xlink:href="#mbac99f4c48" x="57.6" y="219.072621" style="stroke: #000000; stroke-width: 0.8"/>
      </g>
     </g>
     <g id="text_9">
      <!-- 0.004 -->
      <g transform="translate(21.971875 222.87184)scale(0.1 -0.1)">
       <use xlink:href="#DejaVuSans-30"/>
       <use xlink:href="#DejaVuSans-2e" x="63.623047"/>
       <use xlink:href="#DejaVuSans-30" x="95.410156"/>
       <use xlink:href="#DejaVuSans-30" x="159.033203"/>
       <use xlink:href="#DejaVuSans-34" x="222.65625"/>
      </g>
     </g>
    </g>
    <g id="ytick_4">
     <g id="line2d_10">
      <g>
       <use xlink:href="#mbac99f4c48" x="57.6" y="180.378878" style="stroke: #000000; stroke-width: 0.8"/>
      </g>
     </g>
     <g id="text_10">
      <!-- 0.006 -->
      <g transform="translate(21.971875 184.178096)scale(0.1 -0.1)">
       <use xlink:href="#DejaVuSans-30"/>
       <use xlink:href="#DejaVuSans-2e" x="63.623047"/>
       <use xlink:href="#DejaVuSans-30" x="95.410156"/>
       <use xlink:href="#DejaVuSans-30" x="159.033203"/>
       <use xlink:href="#DejaVuSans-36" x="222.65625"/>
      </g>
     </g>
    </g>
    <g id="ytick_5">
     <g id="line2d_11">
      <g>
       <use xlink:href="#mbac99f4c48" x="57.6" y="141.685134" style="stroke: #000000; stroke-width: 0.8"/>
      </g>
     </g>
     <g id="text_11">
      <!-- 0.008 -->
      <g transform="translate(21.971875 145.484353)scale(0.1 -0.1)">
       <use xlink:href="#DejaVuSans-30"/>
       <use xlink:href="#DejaVuSans-2e" x="63.623047"/>
       <use xlink:href="#DejaVuSans-30" x="95.410156"/>
       <use xlink:href="#DejaVuSans-30" x="159.033203"/>
       <use xlink:href="#DejaVuSans-38" x="222.65625"/>
      </g>
     </g>
    </g>
    <g id="ytick_6">
     <g id="line2d_12">
      <g>
       <use xlink:href="#mbac99f4c48" x="57.6" y="102.991391" style="stroke: #000000; stroke-width: 0.8"/>
      </g>
     </g>
     <g id="text_12">
      <!-- 0.010 -->
      <g transform="translate(21.971875 106.790609)scale(0.1 -0.1)">
       <use xlink:href="#DejaVuSans-30"/>
       <use xlink:href="#DejaVuSans-2e" x="63.623047"/>
       <use xlink:href="#DejaVuSans-30" x="95.410156"/>
       <use xlink:href="#DejaVuSans-31" x="159.033203"/>
       <use xlink:href="#DejaVuSans-30" x="222.65625"/>
      </g>
     </g>
    </g>
    <g id="ytick_7">
     <g id="line2d_13">
      <g>
       <use xlink:href="#mbac99f4c48" x="57.6" y="64.297647" style="stroke: #000000; stroke-width: 0.8"/>
      </g>
     </g>
     <g id="text_13">
      <!-- 0.012 -->
      <g transform="translate(21.971875 68.096866)scale(0.1 -0.1)">
       <use xlink:href="#DejaVuSans-30"/>
       <use xlink:href="#DejaVuSans-2e" x="63.623047"/>
       <use xlink:href="#DejaVuSans-30" x="95.410156"/>
       <use xlink:href="#DejaVuSans-31" x="159.033203"/>
       <use xlink:href="#DejaVuSans-32" x="222.65625"/>
      </g>
     </g>
    </g>
   </g>
   <g id="line2d_14">
    <path d="M 73.832727 291.511738 
L 74.157707 293.400435 
L 74.482686 291.908589 
L 74.807666 293.288281 
L 75.132645 292.137634 
L 75.457625 293.910446 
L 75.782604 294.54238 
L 76.107584 294.850999 
L 76.432563 292.647743 
L 76.757543 294.23511 
L 77.082523 294.080955 
L 77.407502 291.765328 
L 77.732482 293.98538 
L 78.057461 293.81948 
L 78.382441 292.547779 
L 78.70742 293.928248 
L 79.0324 293.110445 
L 79.357379 295.191923 
L 79.682359 293.939614 
L 80.332318 295.182842 
L 80.657297 294.452027 
L 80.982277 294.202671 
L 81.307256 295.455562 
L 81.632236 295.438984 
L 81.957215 295.199504 
L 82.282195 295.213708 
L 82.607174 294.990662 
L 82.932154 294.502395 
L 83.257133 294.563511 
L 83.582113 295.433408 
L 83.907093 293.590342 
L 84.232072 295.368631 
L 84.557052 293.775109 
L 84.882031 294.823329 
L 85.207011 294.134348 
L 85.53199 294.90029 
L 85.85697 294.267854 
L 86.181949 294.611133 
L 86.506929 295.191602 
L 86.831908 295.161581 
L 87.156888 293.786755 
L 87.481867 294.361065 
L 87.806847 295.36458 
L 88.131826 294.458152 
L 88.456806 292.907919 
L 88.781785 295.488 
L 89.106765 295.442276 
L 89.431744 294.807109 
L 89.756724 293.632235 
L 90.081704 294.566595 
L 90.406683 295.107917 
L 90.731663 293.974693 
L 91.056642 293.272738 
L 91.381622 294.337284 
L 91.706601 293.503908 
L 92.35656 293.832245 
L 92.68154 295.407503 
L 93.006519 294.278837 
L 93.331499 294.896918 
L 93.656478 294.775282 
L 93.981458 293.219288 
L 94.631417 294.95961 
L 94.956396 294.581272 
L 95.281376 293.585652 
L 95.606355 294.515389 
L 95.931335 291.975802 
L 96.256314 294.226963 
L 96.581294 293.501243 
L 96.906274 295.166683 
L 97.231253 293.49396 
L 97.556233 290.696381 
L 97.881212 293.76408 
L 98.206192 293.732037 
L 98.531171 294.207437 
L 98.856151 294.237709 
L 99.18113 294.765037 
L 99.50611 294.740613 
L 99.831089 295.447244 
L 100.156069 293.464311 
L 100.481048 294.887391 
L 100.806028 294.195781 
L 101.131007 294.641039 
L 101.455987 293.43929 
L 101.780966 292.800138 
L 102.430925 292.81715 
L 102.755905 294.873373 
L 103.080885 294.534297 
L 103.405864 294.458958 
L 103.730844 291.680202 
L 104.380803 294.026067 
L 104.705782 292.985563 
L 105.030762 293.241842 
L 105.355741 293.068334 
L 105.680721 293.68864 
L 106.0057 293.232702 
L 106.33068 294.706304 
L 106.655659 293.474949 
L 106.980639 293.288662 
L 107.305618 292.652315 
L 107.630598 293.96111 
L 107.955577 292.968912 
L 108.280557 293.636196 
L 108.605536 294.740202 
L 108.930516 294.063845 
L 109.255495 294.088763 
L 109.580475 292.803325 
L 109.905455 294.220173 
L 110.230434 294.486985 
L 110.555414 292.258039 
L 110.880393 293.280612 
L 111.205373 294.720975 
L 111.530352 293.484196 
L 111.855332 291.160605 
L 112.180311 294.534279 
L 112.83027 292.517515 
L 113.15525 293.741984 
L 113.480229 293.887288 
L 113.805209 295.184992 
L 114.455168 292.739133 
L 114.780147 293.057272 
L 115.105127 293.707571 
L 115.430106 292.456383 
L 115.755086 294.867227 
L 116.080066 294.11164 
L 116.405045 293.982028 
L 116.730025 293.450609 
L 117.055004 292.417949 
L 117.379984 292.068634 
L 117.704963 294.229245 
L 118.029943 293.349327 
L 118.354922 293.36424 
L 118.679902 294.197405 
L 119.004881 293.094856 
L 119.329861 293.216104 
L 119.65484 293.141503 
L 119.97982 292.147404 
L 120.304799 294.8396 
L 120.629779 294.968919 
L 120.954758 294.888851 
L 121.279738 293.771009 
L 121.604717 294.17652 
L 122.579656 293.430428 
L 122.904636 293.379963 
L 123.229615 294.534663 
L 123.554595 294.320911 
L 123.879574 294.926675 
L 124.204554 295.097655 
L 124.529533 293.163091 
L 124.854513 293.601133 
L 125.179492 292.918197 
L 125.504472 294.15065 
L 125.829451 294.421573 
L 126.154431 292.8257 
L 126.47941 292.974757 
L 126.80439 292.918253 
L 127.129369 293.61814 
L 127.454349 292.456509 
L 127.779328 291.730956 
L 128.104308 292.301388 
L 128.429287 293.59042 
L 129.079247 292.729237 
L 129.404226 291.834078 
L 130.054185 293.179882 
L 130.704144 293.944509 
L 131.354103 292.145777 
L 132.004062 294.725615 
L 132.329042 294.715744 
L 132.654021 294.835814 
L 132.979001 293.746238 
L 133.30398 293.683921 
L 133.62896 293.472492 
L 133.953939 294.318029 
L 134.278919 293.243467 
L 134.603898 294.697063 
L 134.928878 295.464674 
L 135.253857 295.405876 
L 135.903817 294.750321 
L 136.228796 293.532209 
L 136.553776 293.918299 
L 136.878755 293.680606 
L 137.203735 291.929886 
L 137.528714 293.905891 
L 137.853694 294.086438 
L 138.503653 295.010975 
L 139.153612 293.013628 
L 139.478591 294.487374 
L 139.803571 294.702467 
L 140.12855 294.186974 
L 140.45353 293.079687 
L 140.778509 293.239275 
L 141.753448 294.997327 
L 142.078428 294.556768 
L 142.403407 294.960272 
L 142.728387 294.696337 
L 143.053366 293.919801 
L 143.378346 293.47063 
L 143.703325 292.177784 
L 144.028305 291.356087 
L 144.353284 292.457806 
L 144.678264 291.502493 
L 145.003243 293.878612 
L 145.328223 293.448624 
L 145.653202 292.467118 
L 145.978182 294.350057 
L 146.303161 294.601891 
L 146.628141 291.308764 
L 147.603079 293.806653 
L 147.928059 293.768793 
L 148.253038 290.990552 
L 148.578018 292.179203 
L 148.902998 294.359011 
L 149.552957 292.226253 
L 149.877936 291.38486 
L 150.202916 288.108288 
L 150.527895 289.731271 
L 150.852875 292.49664 
L 151.502834 288.997742 
L 151.827813 291.039783 
L 152.152793 290.883414 
L 152.477772 291.381823 
L 152.802752 293.229717 
L 153.127731 291.552186 
L 153.77769 293.705484 
L 154.10267 291.347552 
L 154.752629 292.516414 
L 155.077609 290.929711 
L 155.402588 291.806641 
L 155.727568 287.91682 
L 156.052547 291.14794 
L 156.377527 291.941935 
L 156.702506 290.752874 
L 157.027486 290.514037 
L 157.352465 292.083158 
L 157.677445 289.50972 
L 158.002424 290.000639 
L 158.327404 287.688559 
L 158.652383 292.306506 
L 158.977363 292.171876 
L 159.302342 288.155892 
L 159.627322 292.658306 
L 159.952301 288.457136 
L 160.277281 288.529692 
L 160.60226 290.647238 
L 160.92724 290.304654 
L 161.252219 287.088203 
L 161.902179 292.560815 
L 162.227158 287.200981 
L 162.552138 289.295436 
L 163.202097 287.507649 
L 163.527076 289.062755 
L 163.852056 289.820882 
L 164.177035 292.235483 
L 164.502015 290.193333 
L 164.826994 286.599048 
L 165.151974 290.221842 
L 165.476953 288.54558 
L 165.801933 293.239748 
L 166.126912 289.646442 
L 166.451892 288.832814 
L 166.776871 291.692673 
L 167.101851 291.083957 
L 167.42683 285.555791 
L 167.75181 289.178088 
L 168.07679 288.385953 
L 168.401769 285.763178 
L 168.726749 284.938534 
L 169.051728 289.929238 
L 169.376708 293.016086 
L 169.701687 290.363396 
L 170.026667 291.822073 
L 170.351646 286.172387 
L 170.676626 287.794161 
L 171.001605 283.579948 
L 171.326585 292.459992 
L 171.651564 289.31316 
L 171.976544 284.607464 
L 172.301523 289.726596 
L 172.626503 291.206636 
L 172.951482 290.846796 
L 173.276462 292.869638 
L 173.601441 289.275255 
L 173.926421 289.674108 
L 174.2514 288.90263 
L 174.90136 292.999022 
L 175.226339 289.47284 
L 175.551319 289.667917 
L 175.876298 288.451006 
L 176.201278 292.144062 
L 176.851237 283.498737 
L 177.176216 287.418757 
L 177.501196 288.244715 
L 177.826175 288.336505 
L 178.151155 292.581466 
L 178.476134 288.778011 
L 178.801114 286.439999 
L 179.126093 288.166092 
L 179.776052 289.745296 
L 180.101032 287.116042 
L 180.426011 293.387507 
L 180.750991 287.466301 
L 181.075971 284.673794 
L 181.40095 290.7383 
L 181.72593 287.837133 
L 182.050909 291.054025 
L 182.375889 287.351668 
L 182.700868 288.893648 
L 183.025848 282.328848 
L 183.350827 288.266077 
L 183.675807 288.265344 
L 184.000786 287.944786 
L 184.325766 292.733398 
L 184.650745 291.786675 
L 184.975725 290.223613 
L 185.300704 289.296899 
L 185.625684 283.301998 
L 185.950663 290.194196 
L 186.600622 290.443967 
L 186.925602 290.88812 
L 187.250581 278.29712 
L 187.575561 285.406266 
L 187.900541 288.204581 
L 188.22552 287.852255 
L 188.5505 292.064445 
L 188.875479 291.457011 
L 189.200459 289.514243 
L 189.525438 291.182151 
L 189.850418 290.512327 
L 190.175397 292.739583 
L 190.500377 293.578482 
L 190.825356 292.853116 
L 191.150336 293.719555 
L 191.800295 292.374505 
L 192.125274 289.111289 
L 192.450254 290.902595 
L 192.775233 289.921254 
L 193.100213 289.677249 
L 193.425192 291.935547 
L 193.750172 291.105163 
L 194.075152 289.733685 
L 194.400131 293.284695 
L 194.725111 291.034433 
L 195.05009 283.617425 
L 195.37507 285.212303 
L 195.700049 292.987539 
L 196.025029 290.425345 
L 196.350008 292.875863 
L 196.674988 287.793573 
L 196.999967 291.836014 
L 197.324947 291.048636 
L 197.974906 291.909191 
L 198.299885 291.500348 
L 198.949844 284.394442 
L 199.274824 286.52173 
L 199.599803 289.392004 
L 199.924783 288.713133 
L 200.249762 288.686939 
L 200.574742 290.951074 
L 200.899722 288.298355 
L 201.224701 291.451014 
L 201.549681 290.689221 
L 201.87466 288.995163 
L 202.19964 290.059308 
L 202.524619 290.678726 
L 202.849599 285.753839 
L 203.174578 286.963018 
L 203.499558 287.374862 
L 203.824537 278.899033 
L 204.149517 275.194002 
L 204.474496 288.319693 
L 204.799476 284.623214 
L 205.124455 290.356115 
L 205.774414 286.057724 
L 206.099394 285.917648 
L 206.424373 285.091255 
L 206.749353 285.540126 
L 207.074333 282.797543 
L 207.399312 284.897747 
L 207.724292 284.972916 
L 208.049271 286.508695 
L 208.374251 282.396315 
L 208.69923 280.792401 
L 209.02421 286.12248 
L 209.349189 286.711095 
L 209.674169 277.73789 
L 209.999148 290.71704 
L 210.324128 290.049453 
L 210.649107 283.767029 
L 210.974087 285.45909 
L 211.299066 286.433093 
L 211.949025 275.293717 
L 212.274005 274.86695 
L 212.598984 283.323269 
L 212.923964 283.454981 
L 213.248943 271.397426 
L 213.573923 279.493849 
L 213.898903 284.780649 
L 214.223882 279.264108 
L 214.548862 280.324007 
L 214.873841 276.581681 
L 215.198821 280.850942 
L 215.5238 281.819483 
L 215.84878 284.927627 
L 216.173759 285.594708 
L 216.823718 276.840582 
L 217.148698 279.491147 
L 217.473677 287.235717 
L 217.798657 283.011645 
L 218.123636 264.120039 
L 218.448616 256.343945 
L 218.773595 270.901439 
L 219.098575 275.139725 
L 219.423554 267.966379 
L 219.748534 288.005573 
L 220.073514 280.200505 
L 220.398493 269.107252 
L 221.048452 284.610293 
L 221.373432 281.9579 
L 221.698411 269.02465 
L 222.023391 272.992965 
L 222.34837 281.082781 
L 222.67335 274.147745 
L 223.323309 283.305025 
L 223.973268 284.758659 
L 224.298247 280.363692 
L 224.623227 282.09896 
L 224.948206 281.751218 
L 225.273186 277.594991 
L 225.598165 284.629673 
L 225.923145 272.099391 
L 226.248124 278.556386 
L 226.573104 288.132398 
L 226.898084 287.231146 
L 227.223063 289.205661 
L 227.548043 286.176535 
L 227.873022 285.718444 
L 228.198002 283.153558 
L 228.522981 273.570321 
L 228.847961 273.765433 
L 229.17294 281.600397 
L 229.49792 285.834304 
L 229.822899 288.074248 
L 230.147879 283.817502 
L 230.472858 274.323166 
L 230.797838 278.527718 
L 231.122817 285.26435 
L 231.447797 279.30528 
L 231.772776 279.474113 
L 232.097756 284.401258 
L 232.422735 287.258452 
L 232.747715 283.089009 
L 233.072695 290.165213 
L 233.397674 281.990461 
L 233.722654 287.803287 
L 234.047633 283.049158 
L 234.372613 281.178963 
L 234.697592 288.625145 
L 235.022572 288.449401 
L 235.347551 286.870711 
L 235.672531 282.430481 
L 235.99751 285.532746 
L 236.32249 286.100917 
L 236.647469 290.392878 
L 236.972449 290.207684 
L 237.297428 292.870763 
L 237.622408 293.849274 
L 237.947387 290.321462 
L 238.272367 280.66 
L 238.597346 281.04271 
L 238.922326 284.07534 
L 239.247305 281.472478 
L 239.572285 279.847669 
L 239.897265 289.703002 
L 240.547224 283.501956 
L 240.872203 287.810025 
L 241.197183 289.253511 
L 241.522162 284.067944 
L 241.847142 275.065927 
L 242.172121 285.259101 
L 242.497101 290.194279 
L 242.82208 285.479596 
L 243.14706 289.828934 
L 243.472039 288.989044 
L 243.797019 282.304161 
L 244.121998 286.455654 
L 244.771957 281.868607 
L 245.096937 283.966463 
L 245.421916 283.237489 
L 245.746896 291.468424 
L 246.071876 285.461052 
L 246.721835 289.356429 
L 247.046814 284.77529 
L 247.371794 282.574358 
L 247.696773 289.54121 
L 248.021753 290.817493 
L 248.346732 289.496394 
L 248.671712 284.298785 
L 248.996691 287.712655 
L 249.321671 287.687625 
L 249.64665 283.859025 
L 249.97163 272.86684 
L 250.296609 279.68772 
L 250.621589 281.876867 
L 250.946568 285.528102 
L 251.271548 276.679506 
L 251.596527 283.817394 
L 251.921507 287.500432 
L 252.246486 280.203187 
L 252.571466 287.180222 
L 253.221425 275.955883 
L 253.546405 277.980448 
L 253.871384 286.429813 
L 254.196364 287.52541 
L 254.521343 285.845866 
L 254.846323 287.385218 
L 255.171302 267.71069 
L 255.496282 272.116436 
L 255.821261 287.206169 
L 256.146241 287.452143 
L 256.47122 276.713146 
L 256.7962 282.449135 
L 257.121179 284.517558 
L 257.446159 278.716624 
L 257.771138 255.035586 
L 258.096118 276.607821 
L 258.421097 270.439104 
L 258.746077 253.995509 
L 259.721016 280.279668 
L 260.045995 274.502388 
L 260.370975 273.888245 
L 260.695954 255.326296 
L 261.020934 270.546033 
L 261.345913 276.519552 
L 261.670893 242.123016 
L 261.995872 236.629594 
L 262.645831 251.517258 
L 262.970811 264.72444 
L 263.29579 264.143962 
L 263.62077 258.679071 
L 263.945749 239.265946 
L 264.270729 266.410762 
L 264.595708 258.82757 
L 264.920688 236.975236 
L 265.245667 254.131087 
L 265.570647 257.918067 
L 265.895627 260.231565 
L 266.220606 264.52193 
L 266.545586 259.465509 
L 266.870565 247.165349 
L 267.195545 269.576587 
L 267.520524 270.29454 
L 267.845504 260.001045 
L 268.170483 212.491847 
L 268.495463 244.880622 
L 268.820442 239.684247 
L 269.145422 263.921055 
L 269.470401 209.138367 
L 269.795381 243.867599 
L 270.12036 229.638567 
L 270.44534 74.080507 
L 270.770319 234.193968 
L 271.095299 222.587815 
L 271.745258 183.280875 
L 272.395217 247.029835 
L 272.720197 249.507078 
L 273.045176 256.955545 
L 273.370156 225.223807 
L 273.695135 179.486166 
L 274.020115 201.774626 
L 274.345094 158.065399 
L 274.670074 153.318122 
L 274.995053 233.099679 
L 275.320033 230.967291 
L 275.645012 118.205837 
L 275.969992 77.846036 
L 276.294971 128.380684 
L 276.619951 148.241464 
L 276.94493 193.174684 
L 277.26991 145.965129 
L 277.594889 208.977158 
L 277.919869 203.032997 
L 278.244848 190.17409 
L 278.569828 151.659198 
L 278.894808 167.745007 
L 279.219787 211.522685 
L 279.544767 202.39273 
L 279.869746 139.866642 
L 280.194726 139.81347 
L 280.519705 221.633438 
L 280.844685 226.891885 
L 281.169664 182.269938 
L 281.494644 202.507884 
L 281.819623 231.152698 
L 282.144603 101.642914 
L 282.469582 171.394058 
L 282.794562 188.413354 
L 283.119541 178.467598 
L 283.444521 242.913726 
L 283.7695 251.34281 
L 284.09448 248.532929 
L 284.419459 169.41704 
L 284.744439 217.95586 
L 285.069419 137.356115 
L 285.394398 172.387869 
L 285.719378 142.952165 
L 286.044357 173.603636 
L 286.369337 236.5848 
L 286.694316 211.964734 
L 287.019296 261.083964 
L 287.344275 243.874843 
L 287.669255 204.737661 
L 287.994234 187.803375 
L 288.319214 248.446649 
L 288.969173 218.617496 
L 289.294152 170.074262 
L 289.619132 256.078893 
L 289.944111 209.649092 
L 290.269091 195.042539 
L 290.59407 218.564631 
L 290.91905 213.023645 
L 291.569009 71.634305 
L 292.218968 191.740951 
L 292.543948 184.725843 
L 292.868927 127.483775 
L 293.518886 253.864364 
L 293.843866 242.033502 
L 294.168845 236.925902 
L 294.493825 159.565124 
L 294.818804 162.128056 
L 295.143784 200.13617 
L 295.468763 153.364744 
L 295.793743 182.016783 
L 296.118722 134.440125 
L 296.443702 182.193731 
L 296.768681 193.290163 
L 297.093661 196.300397 
L 297.41864 224.546004 
L 297.74362 194.947907 
L 298.0686 154.229698 
L 298.393579 175.180596 
L 298.718559 179.900071 
L 299.043538 200.569687 
L 299.693497 147.965282 
L 300.018477 205.762238 
L 300.343456 201.338054 
L 300.668436 250.187322 
L 300.993415 188.724609 
L 301.318395 204.463992 
L 301.643374 53.568 
L 301.968354 191.714626 
L 302.293333 163.398581 
L 302.618313 238.734874 
L 302.943292 235.335555 
L 303.268272 207.634876 
L 303.593251 216.870481 
L 303.918231 218.406422 
L 304.24321 271.854452 
L 304.56819 240.145098 
L 304.89317 232.347691 
L 305.218149 215.073852 
L 305.543129 191.652815 
L 306.193088 213.385116 
L 306.518067 256.086672 
L 306.843047 238.042953 
L 307.168026 258.374647 
L 307.493006 252.259453 
L 307.817985 264.769828 
L 308.142965 271.948669 
L 308.467944 252.30135 
L 308.792924 249.314756 
L 309.117903 256.847954 
L 309.442883 246.061331 
L 309.767862 240.388523 
L 310.417821 251.490983 
L 310.742801 253.27762 
L 311.067781 261.755416 
L 311.39276 259.362255 
L 311.71774 228.738694 
L 312.042719 272.535132 
L 312.367699 260.120008 
L 312.692678 272.763508 
L 313.017658 269.739535 
L 313.342637 277.924362 
L 313.667617 268.828673 
L 313.992596 279.866859 
L 314.317576 276.724207 
L 314.642555 275.015507 
L 314.967535 280.732383 
L 315.617494 275.140076 
L 315.942473 286.796015 
L 316.267453 282.163641 
L 316.592432 283.88486 
L 317.242391 281.411559 
L 317.892351 288.343557 
L 318.21733 282.60116 
L 318.54231 286.960259 
L 318.867289 287.580777 
L 319.192269 286.879459 
L 319.517248 290.452055 
L 319.842228 285.049653 
L 320.167207 291.155037 
L 320.492187 290.533811 
L 320.817166 288.613476 
L 321.142146 291.799348 
L 321.467125 288.95895 
L 321.792105 288.642362 
L 322.117084 292.217219 
L 322.442064 292.93232 
L 322.767043 291.16989 
L 323.092023 293.02407 
L 323.741982 292.028605 
L 324.066962 291.434902 
L 324.391941 294.721683 
L 324.716921 290.622329 
L 325.0419 293.067853 
L 325.36688 291.638878 
L 325.691859 292.192188 
L 326.016839 293.251971 
L 326.341818 292.539869 
L 326.666798 293.359291 
L 326.991777 293.791419 
L 327.316757 290.302817 
L 327.641736 293.209541 
L 327.966716 291.680664 
L 328.291695 290.946819 
L 328.616675 294.138825 
L 328.941654 291.86115 
L 329.266634 293.958703 
L 329.591613 293.52586 
L 329.916593 294.515345 
L 330.241572 293.553482 
L 330.566552 294.51445 
L 330.891532 292.695885 
L 331.216511 294.427229 
L 331.541491 294.982346 
L 331.86647 293.987982 
L 332.19145 293.86101 
L 332.516429 291.954208 
L 333.166388 293.98174 
L 333.491368 293.675034 
L 333.816347 293.578065 
L 334.141327 294.994921 
L 334.466306 293.487747 
L 334.791286 295.083571 
L 335.116265 295.0726 
L 335.766224 292.328606 
L 336.091204 292.904396 
L 336.416183 294.317117 
L 336.741163 294.685007 
L 337.066143 294.041906 
L 337.391122 294.806994 
L 337.716102 294.503028 
L 338.041081 292.664138 
L 338.366061 294.004002 
L 338.69104 292.582375 
L 339.01602 292.712691 
L 339.665979 291.517658 
L 339.990958 294.078647 
L 340.315938 292.99647 
L 340.640917 289.997205 
L 340.965897 293.503063 
L 341.290876 292.603363 
L 341.615856 293.124041 
L 341.940835 291.232549 
L 342.265815 291.466279 
L 342.590794 293.518073 
L 342.915774 288.676829 
L 343.240753 292.732766 
L 343.565733 294.263359 
L 343.890713 291.348534 
L 344.215692 291.154906 
L 344.540672 293.392669 
L 344.865651 286.659959 
L 345.190631 288.999542 
L 345.51561 289.675577 
L 345.84059 288.984515 
L 346.165569 278.626033 
L 346.490549 290.421566 
L 346.815528 291.822679 
L 347.140508 290.523711 
L 347.465487 292.158679 
L 347.790467 289.021696 
L 348.115446 288.633482 
L 348.440426 288.794973 
L 348.765405 289.274652 
L 349.090385 291.77658 
L 349.415364 292.141513 
L 349.740344 287.669466 
L 350.065324 288.683391 
L 350.390303 292.543682 
L 350.715283 291.297894 
L 351.040262 291.831723 
L 351.365242 285.593131 
L 351.690221 290.943402 
L 352.015201 293.754741 
L 352.34018 291.310876 
L 352.66516 290.458098 
L 352.990139 291.909132 
L 353.315119 290.91691 
L 353.640098 292.192005 
L 353.965078 291.951297 
L 354.290057 292.136115 
L 354.615037 292.947869 
L 354.940016 289.347873 
L 355.264996 293.634692 
L 355.589975 291.144965 
L 355.914955 292.408313 
L 356.239934 292.310393 
L 356.889894 291.310245 
L 357.214873 292.493964 
L 357.539853 293.186123 
L 357.864832 288.950448 
L 358.189812 289.119693 
L 358.514791 293.32676 
L 358.839771 292.712001 
L 359.16475 290.950078 
L 359.48973 293.495058 
L 360.139689 287.411125 
L 360.464668 292.091367 
L 360.789648 292.759837 
L 361.439607 291.926438 
L 361.764586 293.38267 
L 362.089566 293.46734 
L 362.414545 294.610389 
L 362.739525 293.123281 
L 363.064505 289.224308 
L 363.389484 294.111538 
L 363.714464 293.663714 
L 364.039443 290.666042 
L 364.364423 290.266469 
L 365.014382 293.876985 
L 365.98932 290.168084 
L 366.3143 293.030221 
L 366.964259 290.677358 
L 367.289238 291.302254 
L 367.614218 293.715602 
L 367.939197 293.035465 
L 368.264177 293.378743 
L 368.589156 293.042979 
L 368.914136 293.470363 
L 369.239115 291.53694 
L 369.564095 290.636404 
L 369.889075 292.172757 
L 370.214054 290.910285 
L 370.864013 292.225595 
L 371.188993 286.260957 
L 371.513972 291.820281 
L 371.838952 293.290631 
L 372.163931 293.45014 
L 372.488911 292.978775 
L 372.81389 294.421583 
L 373.13887 292.740062 
L 373.463849 292.484874 
L 373.788829 292.864811 
L 374.113808 293.978176 
L 374.438788 293.775156 
L 374.763767 294.75866 
L 375.088747 292.941972 
L 375.413726 293.750621 
L 376.063686 294.145881 
L 376.388665 293.515249 
L 376.713645 293.270327 
L 377.038624 292.629461 
L 377.363604 291.03482 
L 377.688583 293.734732 
L 378.013563 295.185355 
L 378.338542 293.77027 
L 378.663522 294.44481 
L 378.988501 294.346291 
L 379.313481 287.316054 
L 379.63846 291.788895 
L 379.96344 293.560388 
L 380.288419 288.378636 
L 380.613399 292.984441 
L 381.263358 290.530114 
L 381.588337 291.656181 
L 381.913317 293.939536 
L 382.238296 294.473198 
L 382.563276 293.086037 
L 382.888256 290.699328 
L 383.213235 293.12002 
L 383.538215 293.883513 
L 383.863194 294.076686 
L 384.188174 291.615711 
L 384.513153 294.465571 
L 385.163112 291.349752 
L 385.488092 293.203911 
L 386.138051 291.85356 
L 386.78801 294.98969 
L 387.112989 291.829218 
L 387.437969 292.8493 
L 387.762948 292.490331 
L 388.412907 290.38241 
L 388.737887 293.288797 
L 389.062867 292.792135 
L 389.387846 292.852155 
L 389.712826 292.592438 
L 390.037805 292.951086 
L 390.362785 292.665281 
L 390.687764 291.488781 
L 391.012744 288.771822 
L 391.337723 292.398482 
L 391.662703 293.516061 
L 391.987682 290.815914 
L 392.312662 292.543174 
L 392.637641 292.499753 
L 392.962621 293.511737 
L 393.61258 291.807119 
L 393.937559 293.779564 
L 394.262539 290.09546 
L 394.587518 288.893112 
L 394.912498 293.951415 
L 395.562457 290.097096 
L 396.212416 293.649536 
L 396.537396 291.292032 
L 396.862375 290.284932 
L 397.187355 290.589319 
L 397.512334 288.341545 
L 397.837314 289.11862 
L 398.487273 293.319056 
L 398.487273 293.319056 
" clip-path="url(#pc61f79120e)" style="fill: none; stroke: #1f77b4; stroke-width: 1.5; stroke-linecap: square"/>
   </g>
   <g id="line2d_15">
    <path d="M 73.832727 284.984039 
L 74.157707 287.80024 
L 74.482686 286.49756 
L 74.807666 290.000291 
L 75.132645 288.830358 
L 75.457625 285.987136 
L 75.782604 285.98514 
L 76.107584 282.762949 
L 76.432563 278.368432 
L 76.757543 285.244549 
L 77.082523 283.786975 
L 77.407502 280.934193 
L 77.732482 284.645922 
L 78.057461 291.480145 
L 78.382441 286.883446 
L 78.70742 289.909737 
L 79.0324 285.990568 
L 79.357379 286.643352 
L 79.682359 289.497061 
L 80.007338 284.032813 
L 80.332318 292.177868 
L 80.657297 286.640616 
L 80.982277 286.855186 
L 81.307256 291.156935 
L 81.632236 287.42551 
L 81.957215 292.991306 
L 82.282195 289.827945 
L 82.607174 290.661189 
L 82.932154 283.694574 
L 83.257133 288.899398 
L 83.582113 291.089273 
L 83.907093 290.039615 
L 84.232072 289.538358 
L 84.557052 285.245818 
L 84.882031 291.635134 
L 85.207011 292.401854 
L 85.53199 293.989646 
L 85.85697 284.993853 
L 86.181949 283.285428 
L 86.506929 291.952539 
L 86.831908 290.903503 
L 87.156888 289.05233 
L 87.806847 294.016033 
L 88.456806 291.216293 
L 88.781785 292.205471 
L 89.106765 292.491313 
L 89.431744 290.217285 
L 89.756724 286.760889 
L 90.081704 287.226133 
L 90.406683 293.79936 
L 90.731663 287.921663 
L 91.056642 290.864693 
L 91.381622 291.075537 
L 91.706601 287.768017 
L 92.031581 288.001919 
L 92.35656 290.300121 
L 92.68154 291.093735 
L 93.006519 288.083856 
L 93.331499 293.138304 
L 93.656478 291.161348 
L 93.981458 285.855578 
L 94.631417 293.250321 
L 94.956396 292.166685 
L 95.281376 292.117595 
L 95.606355 288.578769 
L 95.931335 278.050468 
L 96.256314 291.451672 
L 96.581294 291.474597 
L 96.906274 294.032362 
L 97.231253 292.196132 
L 97.556233 278.371417 
L 97.881212 291.536563 
L 98.206192 287.767406 
L 98.531171 288.798647 
L 98.856151 291.590493 
L 99.18113 287.656938 
L 99.50611 294.878636 
L 99.831089 293.35352 
L 100.156069 288.140032 
L 100.481048 290.810401 
L 101.131007 290.944615 
L 101.455987 286.307531 
L 101.780966 288.02062 
L 102.105946 291.206851 
L 102.430925 293.04986 
L 102.755905 293.799686 
L 103.405864 289.096495 
L 103.730844 289.599236 
L 104.380803 279.884239 
L 104.705782 282.306014 
L 105.030762 283.85152 
L 105.355741 288.408568 
L 105.680721 290.549409 
L 106.0057 289.138171 
L 106.33068 290.319664 
L 106.655659 291.98652 
L 106.980639 291.362951 
L 107.305618 286.812142 
L 107.630598 290.267141 
L 107.955577 288.264151 
L 108.605536 294.12482 
L 108.930516 292.699535 
L 109.255495 284.128605 
L 109.580475 285.054965 
L 109.905455 290.152942 
L 110.230434 289.744379 
L 110.555414 292.449915 
L 110.880393 282.905056 
L 111.205373 291.266472 
L 111.530352 291.344683 
L 111.855332 282.770357 
L 112.180311 292.912531 
L 112.505291 286.352411 
L 112.83027 286.115474 
L 113.15525 289.946634 
L 113.805209 293.992665 
L 114.455168 287.849499 
L 114.780147 292.87947 
L 115.105127 291.64473 
L 115.430106 293.060967 
L 115.755086 291.631776 
L 116.080066 289.485408 
L 116.405045 292.518912 
L 117.055004 291.904277 
L 117.379984 292.330164 
L 117.704963 293.855469 
L 118.029943 294.045076 
L 118.354922 294.006278 
L 118.679902 294.576918 
L 119.004881 293.660866 
L 119.65484 293.609476 
L 119.97982 293.223389 
L 120.304799 293.717279 
L 120.629779 293.983272 
L 121.279738 292.769312 
L 121.604717 293.429287 
L 121.929697 291.378955 
L 122.254676 293.90086 
L 122.579656 294.335144 
L 122.904636 288.211454 
L 123.229615 294.320902 
L 123.554595 291.053552 
L 123.879574 291.112749 
L 124.204554 293.02838 
L 124.529533 286.756364 
L 124.854513 290.424801 
L 125.179492 290.951168 
L 125.504472 291.158046 
L 125.829451 292.728967 
L 126.154431 284.057873 
L 126.80439 283.064095 
L 127.129369 290.137487 
L 127.454349 288.95555 
L 127.779328 285.90756 
L 128.104308 291.248743 
L 128.429287 288.293753 
L 128.754267 289.875002 
L 129.079247 289.868725 
L 129.404226 288.740011 
L 129.729206 288.932648 
L 130.054185 286.577239 
L 130.379165 288.984498 
L 130.704144 289.526237 
L 131.029124 292.096429 
L 131.354103 292.413553 
L 131.679083 290.85043 
L 132.004062 293.355663 
L 132.329042 293.939342 
L 132.654021 291.042021 
L 132.979001 292.506677 
L 133.30398 291.23703 
L 133.62896 291.051603 
L 133.953939 292.416897 
L 134.278919 290.289039 
L 134.603898 293.683777 
L 134.928878 293.846761 
L 135.253857 293.851593 
L 135.578837 294.47042 
L 135.903817 292.077433 
L 136.228796 285.709091 
L 136.553776 291.761467 
L 136.878755 293.302763 
L 137.203735 280.309527 
L 137.528714 293.478305 
L 137.853694 290.099499 
L 138.178673 288.940503 
L 138.503653 293.466582 
L 138.828632 287.917033 
L 139.153612 291.208132 
L 139.803571 290.095084 
L 140.12855 290.814819 
L 140.45353 284.072547 
L 141.103489 290.177132 
L 141.753448 292.695272 
L 142.078428 291.048519 
L 142.403407 293.742438 
L 143.053366 286.578401 
L 143.378346 286.060641 
L 143.703325 288.10202 
L 144.028305 284.816823 
L 144.353284 289.230603 
L 144.678264 288.859198 
L 145.003243 291.660473 
L 145.328223 292.645683 
L 145.653202 290.83052 
L 145.978182 292.526603 
L 146.303161 293.56578 
L 146.628141 284.673686 
L 146.95312 290.748044 
L 147.2781 288.746334 
L 147.603079 290.934121 
L 147.928059 291.381201 
L 148.253038 286.723606 
L 148.578018 287.800591 
L 148.902998 291.267109 
L 149.227977 288.219985 
L 149.552957 289.574584 
L 149.877936 285.56468 
L 150.202916 283.763121 
L 150.527895 286.230519 
L 150.852875 292.556268 
L 151.502834 291.029751 
L 151.827813 292.197781 
L 152.152793 289.810575 
L 152.477772 284.154474 
L 152.802752 288.100234 
L 153.127731 286.463466 
L 153.452711 286.258384 
L 153.77769 283.618312 
L 154.10267 279.702271 
L 154.427649 282.268564 
L 154.752629 289.873374 
L 155.077609 288.691785 
L 155.727568 272.968568 
L 156.052547 287.000175 
L 156.377527 288.017058 
L 156.702506 284.789701 
L 157.027486 287.864378 
L 157.352465 293.743298 
L 157.677445 286.750394 
L 158.002424 291.031004 
L 158.327404 279.859722 
L 158.652383 290.641819 
L 158.977363 278.840564 
L 159.302342 278.194935 
L 159.627322 290.827263 
L 159.952301 290.392533 
L 160.277281 288.928985 
L 160.60226 290.15214 
L 160.92724 284.279581 
L 161.252219 283.946287 
L 161.577199 286.116801 
L 161.902179 291.154835 
L 162.227158 289.008844 
L 162.552138 283.750104 
L 162.877117 283.184481 
L 163.202097 282.202873 
L 163.852056 285.874836 
L 164.177035 286.837856 
L 164.502015 286.986846 
L 164.826994 286.068868 
L 166.126912 292.533191 
L 166.451892 288.210285 
L 166.776871 289.623895 
L 167.101851 292.614697 
L 167.42683 283.697553 
L 167.75181 291.296099 
L 168.07679 282.678905 
L 168.401769 285.379856 
L 168.726749 284.35192 
L 169.051728 291.932024 
L 169.701687 288.913192 
L 170.026667 290.716545 
L 170.351646 287.698426 
L 170.676626 290.36454 
L 171.001605 289.1068 
L 171.326585 286.884495 
L 171.651564 292.247093 
L 171.976544 278.871304 
L 172.626503 287.687465 
L 172.951482 287.716901 
L 173.276462 290.660118 
L 173.601441 283.013806 
L 173.926421 285.751237 
L 174.2514 287.427165 
L 174.57638 284.389829 
L 174.90136 286.921415 
L 175.226339 272.738284 
L 175.551319 288.88187 
L 176.201278 279.780393 
L 176.526257 279.103347 
L 176.851237 277.429979 
L 177.176216 288.707834 
L 177.501196 286.190743 
L 177.826175 285.731478 
L 178.151155 292.683243 
L 178.476134 279.285661 
L 178.801114 288.325627 
L 179.126093 286.959977 
L 179.451073 287.396687 
L 179.776052 287.002872 
L 180.101032 287.709619 
L 180.426011 289.919437 
L 180.750991 286.386182 
L 181.075971 287.315407 
L 181.40095 290.445531 
L 181.72593 287.805555 
L 182.050909 291.224136 
L 182.375889 285.590985 
L 182.700868 282.290243 
L 183.025848 281.717303 
L 183.350827 288.6219 
L 184.000786 278.496352 
L 184.325766 289.222642 
L 184.650745 289.106674 
L 184.975725 288.368874 
L 185.300704 288.574661 
L 185.625684 280.461555 
L 185.950663 289.474507 
L 186.275643 284.100088 
L 186.925602 289.142103 
L 187.250581 280.343516 
L 187.575561 286.03421 
L 187.900541 287.772275 
L 188.22552 287.547287 
L 188.5505 290.453736 
L 188.875479 289.081621 
L 189.200459 291.55949 
L 189.525438 284.779018 
L 189.850418 285.839543 
L 190.175397 287.418715 
L 190.500377 286.523126 
L 190.825356 284.795246 
L 191.150336 280.303281 
L 191.475315 289.830525 
L 191.800295 290.517193 
L 192.125274 275.517426 
L 192.450254 291.042192 
L 192.775233 283.076311 
L 193.100213 279.709726 
L 193.425192 285.853451 
L 193.750172 278.877752 
L 194.075152 285.139335 
L 194.400131 288.471791 
L 194.725111 277.789533 
L 195.05009 283.488016 
L 195.37507 281.670259 
L 195.700049 287.605206 
L 196.025029 272.644216 
L 196.350008 287.307206 
L 196.674988 272.299614 
L 196.999967 287.361075 
L 197.324947 281.052031 
L 197.649926 283.415058 
L 197.974906 284.26704 
L 198.299885 290.125232 
L 198.624865 286.345385 
L 198.949844 286.27938 
L 199.274824 282.614032 
L 199.599803 287.646871 
L 199.924783 284.015622 
L 200.574742 286.907751 
L 200.899722 286.637378 
L 201.224701 286.677264 
L 201.549681 288.056168 
L 201.87466 291.664573 
L 202.19964 290.900737 
L 202.524619 289.766551 
L 202.849599 289.404858 
L 203.499558 285.543304 
L 203.824537 280.108449 
L 204.149517 269.573558 
L 204.474496 279.179371 
L 204.799476 271.229352 
L 205.124455 274.233334 
L 205.449435 288.268352 
L 205.774414 278.385178 
L 206.099394 285.983231 
L 206.424373 281.757215 
L 206.749353 281.802127 
L 207.074333 266.926843 
L 207.399312 287.987253 
L 207.724292 271.58974 
L 208.049271 289.874668 
L 208.374251 270.715568 
L 208.69923 275.067251 
L 209.02421 284.885685 
L 209.349189 281.135732 
L 209.674169 283.093062 
L 209.999148 289.960359 
L 210.324128 288.939859 
L 210.649107 281.756261 
L 210.974087 286.614075 
L 211.299066 280.508796 
L 211.624046 265.080905 
L 211.949025 285.922841 
L 212.274005 259.504139 
L 212.598984 289.157226 
L 212.923964 266.988769 
L 213.248943 259.655028 
L 213.573923 284.319261 
L 213.898903 282.430924 
L 214.223882 279.808638 
L 214.548862 284.478414 
L 214.873841 272.048958 
L 215.198821 279.339822 
L 215.5238 282.368209 
L 215.84878 287.742689 
L 216.173759 273.994782 
L 216.498739 279.304741 
L 216.823718 276.060134 
L 217.148698 285.204828 
L 217.473677 285.064365 
L 217.798657 281.274486 
L 218.123636 282.056217 
L 218.448616 277.588121 
L 218.773595 278.237475 
L 219.098575 275.677898 
L 219.423554 279.250484 
L 219.748534 287.995607 
L 220.073514 285.292063 
L 220.398493 285.864197 
L 220.723473 276.819424 
L 221.048452 285.68334 
L 221.373432 286.852307 
L 221.698411 279.739177 
L 222.023391 284.420088 
L 222.34837 281.885526 
L 222.67335 266.437249 
L 222.998329 282.258274 
L 223.323309 284.458165 
L 223.648288 284.03155 
L 223.973268 288.393908 
L 224.298247 284.337044 
L 224.623227 285.580231 
L 224.948206 284.3514 
L 225.273186 286.799974 
L 225.598165 287.180767 
L 225.923145 287.198276 
L 226.248124 285.538864 
L 226.573104 292.576048 
L 226.898084 290.128462 
L 227.223063 292.832386 
L 227.548043 288.606552 
L 227.873022 286.959876 
L 228.198002 289.418897 
L 228.522981 279.826363 
L 228.847961 277.062762 
L 229.17294 285.660494 
L 229.49792 285.950928 
L 229.822899 289.333525 
L 230.147879 279.947936 
L 230.472858 285.970859 
L 230.797838 281.417874 
L 231.122817 289.720454 
L 231.447797 285.028932 
L 231.772776 271.319756 
L 232.097756 284.441895 
L 232.422735 278.421661 
L 232.747715 285.193903 
L 233.072695 285.879079 
L 233.397674 275.832611 
L 233.722654 292.012179 
L 234.372613 288.029937 
L 234.697592 291.193989 
L 235.022572 291.525083 
L 235.347551 288.217737 
L 235.672531 283.080465 
L 235.99751 288.040288 
L 236.32249 290.201747 
L 236.647469 291.114759 
L 236.972449 288.585567 
L 237.297428 291.958521 
L 237.622408 291.660114 
L 237.947387 277.413434 
L 238.922326 290.417758 
L 239.247305 283.380858 
L 239.572285 269.922962 
L 239.897265 290.024533 
L 240.222244 276.746552 
L 240.547224 278.792559 
L 240.872203 289.077675 
L 241.197183 286.551662 
L 241.847142 265.564743 
L 242.172121 289.383248 
L 242.497101 282.289891 
L 242.82208 283.543486 
L 243.14706 288.511665 
L 243.797019 282.600748 
L 244.121998 280.9018 
L 244.446978 274.24787 
L 244.771957 275.950718 
L 245.096937 283.86905 
L 245.421916 271.458361 
L 245.746896 287.384629 
L 246.071876 280.386265 
L 246.396855 288.232086 
L 246.721835 287.941402 
L 247.046814 288.277045 
L 247.371794 284.134963 
L 247.696773 289.467228 
L 248.021753 282.325946 
L 248.346732 287.148788 
L 248.671712 256.809197 
L 248.996691 278.708114 
L 249.64665 268.137088 
L 249.97163 282.854342 
L 250.296609 270.748375 
L 250.621589 284.422868 
L 251.271548 245.026975 
L 251.596527 276.631452 
L 251.921507 275.532859 
L 252.246486 276.723579 
L 252.571466 269.843295 
L 252.896446 268.749661 
L 253.221425 254.166371 
L 253.546405 246.239882 
L 253.871384 282.979037 
L 254.196364 280.480591 
L 254.521343 265.14348 
L 254.846323 278.095429 
L 255.171302 265.483772 
L 255.821261 286.397646 
L 256.7962 256.949671 
L 257.121179 254.834535 
L 257.446159 250.727467 
L 257.771138 234.349105 
L 258.096118 268.771772 
L 258.421097 244.565588 
L 259.071057 264.703555 
L 259.396036 265.076239 
L 259.721016 251.577465 
L 260.045995 211.418414 
L 260.370975 247.898644 
L 260.695954 216.052329 
L 261.020934 217.392116 
L 261.345913 242.289626 
L 261.670893 242.477218 
L 261.995872 239.767973 
L 262.320852 254.383031 
L 262.645831 226.918025 
L 262.970811 261.068234 
L 263.29579 255.684547 
L 263.62077 265.749461 
L 263.945749 182.656212 
L 264.270729 259.6892 
L 264.595708 243.963659 
L 264.920688 209.18798 
L 265.245667 238.768257 
L 265.570647 256.461031 
L 265.895627 254.026541 
L 266.220606 250.320116 
L 266.545586 256.380657 
L 266.870565 233.82733 
L 267.195545 240.815982 
L 267.520524 231.624576 
L 267.845504 235.261789 
L 268.170483 202.91442 
L 268.495463 238.886758 
L 268.820442 205.022916 
L 269.145422 265.121996 
L 269.470401 245.713737 
L 269.795381 252.738426 
L 270.12036 240.343 
L 270.44534 144.878795 
L 270.770319 240.627305 
L 271.095299 212.507748 
L 271.420278 174.064577 
L 271.745258 230.136657 
L 272.070238 180.291939 
L 272.395217 268.034382 
L 272.720197 240.611548 
L 273.045176 247.379928 
L 273.370156 260.956252 
L 273.695135 230.494944 
L 274.020115 179.546446 
L 274.345094 229.482597 
L 274.670074 246.248603 
L 274.995053 226.246794 
L 275.320033 223.26583 
L 275.645012 222.686911 
L 275.969992 163.668602 
L 276.294971 246.292689 
L 276.619951 228.106621 
L 276.94493 246.091844 
L 277.26991 271.416002 
L 277.594889 236.836366 
L 277.919869 278.211001 
L 278.244848 238.047363 
L 278.569828 139.359647 
L 278.894808 250.941135 
L 279.219787 211.26235 
L 279.544767 111.334911 
L 280.194726 180.430165 
L 280.519705 277.227304 
L 280.844685 253.080925 
L 281.169664 206.454208 
L 281.819623 274.782602 
L 282.469582 212.322197 
L 282.794562 245.239463 
L 283.119541 250.036555 
L 283.444521 248.568303 
L 283.7695 267.696183 
L 284.09448 266.474801 
L 284.419459 229.86856 
L 284.744439 229.057895 
L 285.069419 252.575235 
L 285.394398 254.852296 
L 285.719378 237.517791 
L 286.044357 181.54268 
L 286.369337 226.07613 
L 286.694316 231.485372 
L 287.019296 272.396493 
L 287.344275 259.226939 
L 287.669255 196.444443 
L 287.994234 230.953849 
L 288.319214 251.481401 
L 288.644193 224.884255 
L 288.969173 236.329194 
L 289.294152 163.74462 
L 289.619132 253.404072 
L 289.944111 249.847148 
L 290.269091 198.129692 
L 290.91905 246.956884 
L 291.244029 218.172754 
L 291.569009 240.929271 
L 291.893989 205.175214 
L 292.218968 234.990615 
L 292.543948 164.831288 
L 292.868927 120.553101 
L 293.193907 269.886986 
L 293.518886 271.998203 
L 293.843866 243.977249 
L 294.168845 247.297643 
L 294.493825 244.949172 
L 294.818804 249.650606 
L 295.143784 265.085698 
L 295.468763 204.540641 
L 295.793743 261.309964 
L 296.118722 216.494721 
L 296.443702 146.088535 
L 296.768681 206.95551 
L 297.093661 185.159298 
L 297.41864 215.364945 
L 297.74362 226.500287 
L 298.0686 222.317637 
L 298.393579 254.26344 
L 298.718559 252.212349 
L 299.043538 237.156652 
L 299.368518 240.394321 
L 300.018477 201.038916 
L 300.343456 209.736318 
L 300.993415 236.797311 
L 301.318395 260.919886 
L 301.643374 116.891771 
L 301.968354 229.503454 
L 302.293333 231.747041 
L 302.618313 223.46631 
L 302.943292 263.765367 
L 303.268272 258.369593 
L 303.593251 215.391305 
L 303.918231 268.780443 
L 304.24321 277.800506 
L 304.56819 237.85083 
L 304.89317 256.467838 
L 305.218149 200.438064 
L 305.543129 208.809859 
L 305.868108 235.051877 
L 306.193088 220.265637 
L 306.518067 231.1975 
L 306.843047 198.09907 
L 307.168026 270.138624 
L 307.817985 224.789339 
L 308.142965 238.66194 
L 308.467944 232.240482 
L 308.792924 249.932487 
L 309.442883 196.412956 
L 309.767862 233.935083 
L 310.092842 254.157772 
L 310.417821 228.099653 
L 310.742801 236.20259 
L 311.067781 256.597762 
L 311.39276 249.462717 
L 311.71774 257.501541 
L 312.042719 257.600695 
L 312.367699 235.363551 
L 312.692678 256.663362 
L 313.017658 261.028484 
L 313.342637 259.388821 
L 313.667617 256.955193 
L 313.992596 256.581429 
L 314.317576 280.491416 
L 314.642555 255.877589 
L 314.967535 261.671238 
L 315.292514 280.23319 
L 315.617494 272.088224 
L 315.942473 280.791269 
L 316.267453 280.307458 
L 316.592432 279.014123 
L 316.917412 276.124932 
L 317.242391 283.470479 
L 317.567371 272.949633 
L 317.892351 284.087653 
L 318.21733 260.175569 
L 318.54231 284.436846 
L 318.867289 289.602235 
L 319.192269 282.251074 
L 319.842228 274.019557 
L 320.167207 280.487803 
L 320.492187 281.418781 
L 320.817166 287.65166 
L 321.142146 287.780964 
L 321.467125 274.418795 
L 321.792105 266.669863 
L 322.117084 286.756985 
L 322.442064 286.21641 
L 322.767043 286.371374 
L 323.092023 284.964716 
L 323.417002 285.268885 
L 323.741982 278.481154 
L 324.066962 282.170866 
L 324.391941 289.508159 
L 324.716921 285.586797 
L 325.0419 273.407058 
L 325.36688 284.064519 
L 325.691859 284.373305 
L 326.016839 287.72389 
L 326.341818 287.649956 
L 326.666798 283.378968 
L 326.991777 290.297496 
L 327.316757 272.730219 
L 327.641736 286.56252 
L 328.291695 282.836584 
L 328.616675 291.465311 
L 328.941654 286.93381 
L 329.266634 287.725902 
L 329.591613 291.789351 
L 329.916593 288.437509 
L 330.241572 289.520694 
L 330.566552 291.864551 
L 330.891532 283.823708 
L 331.216511 289.52629 
L 331.541491 291.94801 
L 331.86647 285.059944 
L 332.19145 293.908916 
L 332.841409 280.221001 
L 333.166388 288.208017 
L 333.816347 292.381606 
L 334.141327 292.891136 
L 334.466306 287.241612 
L 334.791286 293.629299 
L 335.116265 291.884265 
L 335.441245 293.433419 
L 335.766224 290.049351 
L 336.091204 290.045151 
L 336.416183 291.797368 
L 336.741163 291.826652 
L 337.066143 294.101374 
L 337.716102 293.252451 
L 338.041081 291.746183 
L 338.366061 294.062827 
L 338.69104 294.250171 
L 339.340999 287.208914 
L 339.665979 288.145579 
L 339.990958 294.855295 
L 340.315938 290.506519 
L 340.640917 291.576239 
L 340.965897 294.101673 
L 341.290876 292.108621 
L 341.615856 292.579274 
L 342.265815 291.193614 
L 342.590794 292.763932 
L 342.915774 289.398487 
L 343.240753 288.44758 
L 343.565733 292.838566 
L 343.890713 290.475072 
L 344.215692 289.872941 
L 344.540672 294.396993 
L 345.190631 291.838248 
L 345.51561 290.816705 
L 345.84059 291.011535 
L 346.165569 290.571891 
L 346.490549 292.350703 
L 346.815528 292.983898 
L 347.465487 290.502357 
L 347.790467 291.200583 
L 348.115446 292.450748 
L 348.440426 285.296387 
L 348.765405 287.338611 
L 349.090385 290.662081 
L 349.415364 292.740839 
L 350.065324 292.053075 
L 350.390303 291.083526 
L 350.715283 293.473342 
L 351.040262 292.109788 
L 351.365242 289.029128 
L 351.690221 291.622326 
L 352.015201 292.236049 
L 352.34018 289.851356 
L 352.66516 289.732198 
L 352.990139 290.452318 
L 353.315119 290.061553 
L 353.640098 294.453761 
L 353.965078 292.233582 
L 354.290057 292.734514 
L 354.615037 290.871965 
L 354.940016 279.76911 
L 355.264996 289.94696 
L 355.589975 292.256735 
L 355.914955 290.799147 
L 356.239934 290.50434 
L 356.564914 290.402948 
L 356.889894 291.173859 
L 357.214873 289.321771 
L 357.539853 290.386262 
L 357.864832 286.682002 
L 358.514791 292.610387 
L 358.839771 290.63831 
L 359.16475 290.591001 
L 359.48973 292.850783 
L 359.814709 289.078 
L 360.139689 291.166497 
L 360.464668 290.177539 
L 360.789648 294.022738 
L 361.114627 285.018327 
L 361.439607 289.215799 
L 361.764586 289.338997 
L 362.089566 287.20374 
L 362.739525 291.654474 
L 363.064505 292.082654 
L 363.389484 293.807386 
L 363.714464 292.074353 
L 364.039443 292.07074 
L 364.364423 282.190857 
L 364.689402 287.020552 
L 365.014382 287.390106 
L 365.339361 290.860113 
L 365.664341 289.185026 
L 365.98932 286.734591 
L 366.3143 287.245837 
L 366.639279 283.220985 
L 367.289238 281.928256 
L 367.939197 286.027621 
L 368.264177 280.544242 
L 368.589156 290.115735 
L 368.914136 283.871758 
L 369.239115 284.174045 
L 370.539034 289.373932 
L 371.188993 285.809901 
L 371.513972 281.202462 
L 371.838952 285.880672 
L 372.163931 286.3917 
L 372.488911 288.388131 
L 372.81389 291.545166 
L 373.13887 289.81624 
L 373.463849 291.66506 
L 373.788829 292.818335 
L 374.113808 291.116002 
L 374.438788 290.813449 
L 374.763767 288.953891 
L 375.088747 289.2356 
L 375.413726 287.333759 
L 375.738706 290.783408 
L 376.063686 291.290587 
L 376.388665 291.024487 
L 376.713645 287.176034 
L 377.038624 288.505255 
L 377.363604 283.969317 
L 377.688583 288.548841 
L 378.013563 288.938635 
L 378.338542 287.476071 
L 378.663522 291.714685 
L 378.988501 288.978819 
L 379.313481 269.323815 
L 379.63846 286.208331 
L 379.96344 289.359699 
L 380.288419 280.990287 
L 380.613399 283.282374 
L 380.938378 283.218747 
L 381.263358 282.63561 
L 381.588337 286.309014 
L 381.913317 287.473824 
L 382.238296 289.914753 
L 382.563276 287.780415 
L 382.888256 283.87276 
L 383.213235 285.367364 
L 383.538215 289.912077 
L 383.863194 289.521113 
L 384.188174 289.337593 
L 384.513153 289.59431 
L 384.838133 287.954081 
L 385.163112 287.088514 
L 385.488092 287.01088 
L 385.813071 288.268029 
L 386.138051 290.836214 
L 386.46303 289.19665 
L 386.78801 292.411688 
L 387.112989 292.816449 
L 387.437969 292.944346 
L 387.762948 287.085231 
L 388.087928 290.561088 
L 388.412907 280.403287 
L 388.737887 292.139331 
L 389.062867 287.489772 
L 389.387846 280.506775 
L 389.712826 292.064499 
L 390.037805 287.704931 
L 390.362785 286.622722 
L 390.687764 291.468535 
L 391.012744 288.409969 
L 391.337723 291.748986 
L 391.662703 291.961167 
L 391.987682 291.941465 
L 392.312662 288.421902 
L 392.637641 289.687212 
L 392.962621 294.023695 
L 393.2876 292.116931 
L 393.61258 294.499807 
L 393.937559 292.152042 
L 394.262539 285.660844 
L 394.587518 291.601206 
L 394.912498 289.858692 
L 395.237477 293.941382 
L 395.562457 287.912866 
L 396.212416 293.158586 
L 396.537396 293.259882 
L 396.862375 291.049731 
L 397.187355 290.604646 
L 397.512334 289.163972 
L 397.837314 294.069826 
L 398.162293 288.830703 
L 398.487273 293.123705 
L 398.487273 293.123705 
" clip-path="url(#pc61f79120e)" style="fill: none; stroke: #ff7f0e; stroke-width: 1.5; stroke-linecap: square"/>
   </g>
   <g id="patch_3">
    <path d="M 57.6 307.584 
L 57.6 41.472 
" style="fill: none; stroke: #000000; stroke-width: 0.8; stroke-linejoin: miter; stroke-linecap: square"/>
   </g>
   <g id="patch_4">
    <path d="M 414.72 307.584 
L 414.72 41.472 
" style="fill: none; stroke: #000000; stroke-width: 0.8; stroke-linejoin: miter; stroke-linecap: square"/>
   </g>
   <g id="patch_5">
    <path d="M 57.6 307.584 
L 414.72 307.584 
" style="fill: none; stroke: #000000; stroke-width: 0.8; stroke-linejoin: miter; stroke-linecap: square"/>
   </g>
   <g id="patch_6">
    <path d="M 57.6 41.472 
L 414.72 41.472 
" style="fill: none; stroke: #000000; stroke-width: 0.8; stroke-linejoin: miter; stroke-linecap: square"/>
   </g>
   <g id="legend_1">
    <g id="patch_7">
     <path d="M 303.802813 79.3845 
L 407.72 79.3845 
Q 409.72 79.3845 409.72 77.3845 
L 409.72 48.472 
Q 409.72 46.472 407.72 46.472 
L 303.802813 46.472 
Q 301.802813 46.472 301.802813 48.472 
L 301.802813 77.3845 
Q 301.802813 79.3845 303.802813 79.3845 
z
" style="fill: #ffffff; opacity: 0.8; stroke: #cccccc; stroke-linejoin: miter"/>
    </g>
    <g id="line2d_16">
     <path d="M 305.802813 54.570438 
L 315.802813 54.570438 
L 325.802813 54.570438 
" style="fill: none; stroke: #1f77b4; stroke-width: 1.5; stroke-linecap: square"/>
    </g>
    <g id="text_14">
     <!-- Smed_neural -->
     <g transform="translate(333.802813 58.070438)scale(0.1 -0.1)">
      <defs>
       <path id="DejaVuSans-53" d="M 3425 4513 
L 3425 3897 
Q 3066 4069 2747 4153 
Q 2428 4238 2131 4238 
Q 1616 4238 1336 4038 
Q 1056 3838 1056 3469 
Q 1056 3159 1242 3001 
Q 1428 2844 1947 2747 
L 2328 2669 
Q 3034 2534 3370 2195 
Q 3706 1856 3706 1288 
Q 3706 609 3251 259 
Q 2797 -91 1919 -91 
Q 1588 -91 1214 -16 
Q 841 59 441 206 
L 441 856 
Q 825 641 1194 531 
Q 1563 422 1919 422 
Q 2459 422 2753 634 
Q 3047 847 3047 1241 
Q 3047 1584 2836 1778 
Q 2625 1972 2144 2069 
L 1759 2144 
Q 1053 2284 737 2584 
Q 422 2884 422 3419 
Q 422 4038 858 4394 
Q 1294 4750 2059 4750 
Q 2388 4750 2728 4690 
Q 3069 4631 3425 4513 
z
" transform="scale(0.015625)"/>
       <path id="DejaVuSans-6d" d="M 3328 2828 
Q 3544 3216 3844 3400 
Q 4144 3584 4550 3584 
Q 5097 3584 5394 3201 
Q 5691 2819 5691 2113 
L 5691 0 
L 5113 0 
L 5113 2094 
Q 5113 2597 4934 2840 
Q 4756 3084 4391 3084 
Q 3944 3084 3684 2787 
Q 3425 2491 3425 1978 
L 3425 0 
L 2847 0 
L 2847 2094 
Q 2847 2600 2669 2842 
Q 2491 3084 2119 3084 
Q 1678 3084 1418 2786 
Q 1159 2488 1159 1978 
L 1159 0 
L 581 0 
L 581 3500 
L 1159 3500 
L 1159 2956 
Q 1356 3278 1631 3431 
Q 1906 3584 2284 3584 
Q 2666 3584 2933 3390 
Q 3200 3197 3328 2828 
z
" transform="scale(0.015625)"/>
       <path id="DejaVuSans-65" d="M 3597 1894 
L 3597 1613 
L 953 1613 
Q 991 1019 1311 708 
Q 1631 397 2203 397 
Q 2534 397 2845 478 
Q 3156 559 3463 722 
L 3463 178 
Q 3153 47 2828 -22 
Q 2503 -91 2169 -91 
Q 1331 -91 842 396 
Q 353 884 353 1716 
Q 353 2575 817 3079 
Q 1281 3584 2069 3584 
Q 2775 3584 3186 3129 
Q 3597 2675 3597 1894 
z
M 3022 2063 
Q 3016 2534 2758 2815 
Q 2500 3097 2075 3097 
Q 1594 3097 1305 2825 
Q 1016 2553 972 2059 
L 3022 2063 
z
" transform="scale(0.015625)"/>
       <path id="DejaVuSans-64" d="M 2906 2969 
L 2906 4863 
L 3481 4863 
L 3481 0 
L 2906 0 
L 2906 525 
Q 2725 213 2448 61 
Q 2172 -91 1784 -91 
Q 1150 -91 751 415 
Q 353 922 353 1747 
Q 353 2572 751 3078 
Q 1150 3584 1784 3584 
Q 2172 3584 2448 3432 
Q 2725 3281 2906 2969 
z
M 947 1747 
Q 947 1113 1208 752 
Q 1469 391 1925 391 
Q 2381 391 2643 752 
Q 2906 1113 2906 1747 
Q 2906 2381 2643 2742 
Q 2381 3103 1925 3103 
Q 1469 3103 1208 2742 
Q 947 2381 947 1747 
z
" transform="scale(0.015625)"/>
       <path id="DejaVuSans-5f" d="M 3263 -1063 
L 3263 -1509 
L -63 -1509 
L -63 -1063 
L 3263 -1063 
z
" transform="scale(0.015625)"/>
       <path id="DejaVuSans-6e" d="M 3513 2113 
L 3513 0 
L 2938 0 
L 2938 2094 
Q 2938 2591 2744 2837 
Q 2550 3084 2163 3084 
Q 1697 3084 1428 2787 
Q 1159 2491 1159 1978 
L 1159 0 
L 581 0 
L 581 3500 
L 1159 3500 
L 1159 2956 
Q 1366 3272 1645 3428 
Q 1925 3584 2291 3584 
Q 2894 3584 3203 3211 
Q 3513 2838 3513 2113 
z
" transform="scale(0.015625)"/>
       <path id="DejaVuSans-75" d="M 544 1381 
L 544 3500 
L 1119 3500 
L 1119 1403 
Q 1119 906 1312 657 
Q 1506 409 1894 409 
Q 2359 409 2629 706 
Q 2900 1003 2900 1516 
L 2900 3500 
L 3475 3500 
L 3475 0 
L 2900 0 
L 2900 538 
Q 2691 219 2414 64 
Q 2138 -91 1772 -91 
Q 1169 -91 856 284 
Q 544 659 544 1381 
z
M 1991 3584 
L 1991 3584 
z
" transform="scale(0.015625)"/>
       <path id="DejaVuSans-72" d="M 2631 2963 
Q 2534 3019 2420 3045 
Q 2306 3072 2169 3072 
Q 1681 3072 1420 2755 
Q 1159 2438 1159 1844 
L 1159 0 
L 581 0 
L 581 3500 
L 1159 3500 
L 1159 2956 
Q 1341 3275 1631 3429 
Q 1922 3584 2338 3584 
Q 2397 3584 2469 3576 
Q 2541 3569 2628 3553 
L 2631 2963 
z
" transform="scale(0.015625)"/>
       <path id="DejaVuSans-61" d="M 2194 1759 
Q 1497 1759 1228 1600 
Q 959 1441 959 1056 
Q 959 750 1161 570 
Q 1363 391 1709 391 
Q 2188 391 2477 730 
Q 2766 1069 2766 1631 
L 2766 1759 
L 2194 1759 
z
M 3341 1997 
L 3341 0 
L 2766 0 
L 2766 531 
Q 2569 213 2275 61 
Q 1981 -91 1556 -91 
Q 1019 -91 701 211 
Q 384 513 384 1019 
Q 384 1609 779 1909 
Q 1175 2209 1959 2209 
L 2766 2209 
L 2766 2266 
Q 2766 2663 2505 2880 
Q 2244 3097 1772 3097 
Q 1472 3097 1187 3025 
Q 903 2953 641 2809 
L 641 3341 
Q 956 3463 1253 3523 
Q 1550 3584 1831 3584 
Q 2591 3584 2966 3190 
Q 3341 2797 3341 1997 
z
" transform="scale(0.015625)"/>
       <path id="DejaVuSans-6c" d="M 603 4863 
L 1178 4863 
L 1178 0 
L 603 0 
L 603 4863 
z
" transform="scale(0.015625)"/>
      </defs>
      <use xlink:href="#DejaVuSans-53"/>
      <use xlink:href="#DejaVuSans-6d" x="63.476562"/>
      <use xlink:href="#DejaVuSans-65" x="160.888672"/>
      <use xlink:href="#DejaVuSans-64" x="222.412109"/>
      <use xlink:href="#DejaVuSans-5f" x="285.888672"/>
      <use xlink:href="#DejaVuSans-6e" x="335.888672"/>
      <use xlink:href="#DejaVuSans-65" x="399.267578"/>
      <use xlink:href="#DejaVuSans-75" x="460.791016"/>
      <use xlink:href="#DejaVuSans-72" x="524.169922"/>
      <use xlink:href="#DejaVuSans-61" x="565.283203"/>
      <use xlink:href="#DejaVuSans-6c" x="626.5625"/>
     </g>
    </g>
    <g id="line2d_17">
     <path d="M 305.802813 69.526688 
L 315.802813 69.526688 
L 325.802813 69.526688 
" style="fill: none; stroke: #ff7f0e; stroke-width: 1.5; stroke-linecap: square"/>
    </g>
    <g id="text_15">
     <!-- schisto_neural -->
     <g transform="translate(333.802813 73.026688)scale(0.1 -0.1)">
      <defs>
       <path id="DejaVuSans-73" d="M 2834 3397 
L 2834 2853 
Q 2591 2978 2328 3040 
Q 2066 3103 1784 3103 
Q 1356 3103 1142 2972 
Q 928 2841 928 2578 
Q 928 2378 1081 2264 
Q 1234 2150 1697 2047 
L 1894 2003 
Q 2506 1872 2764 1633 
Q 3022 1394 3022 966 
Q 3022 478 2636 193 
Q 2250 -91 1575 -91 
Q 1294 -91 989 -36 
Q 684 19 347 128 
L 347 722 
Q 666 556 975 473 
Q 1284 391 1588 391 
Q 1994 391 2212 530 
Q 2431 669 2431 922 
Q 2431 1156 2273 1281 
Q 2116 1406 1581 1522 
L 1381 1569 
Q 847 1681 609 1914 
Q 372 2147 372 2553 
Q 372 3047 722 3315 
Q 1072 3584 1716 3584 
Q 2034 3584 2315 3537 
Q 2597 3491 2834 3397 
z
" transform="scale(0.015625)"/>
       <path id="DejaVuSans-63" d="M 3122 3366 
L 3122 2828 
Q 2878 2963 2633 3030 
Q 2388 3097 2138 3097 
Q 1578 3097 1268 2742 
Q 959 2388 959 1747 
Q 959 1106 1268 751 
Q 1578 397 2138 397 
Q 2388 397 2633 464 
Q 2878 531 3122 666 
L 3122 134 
Q 2881 22 2623 -34 
Q 2366 -91 2075 -91 
Q 1284 -91 818 406 
Q 353 903 353 1747 
Q 353 2603 823 3093 
Q 1294 3584 2113 3584 
Q 2378 3584 2631 3529 
Q 2884 3475 3122 3366 
z
" transform="scale(0.015625)"/>
       <path id="DejaVuSans-68" d="M 3513 2113 
L 3513 0 
L 2938 0 
L 2938 2094 
Q 2938 2591 2744 2837 
Q 2550 3084 2163 3084 
Q 1697 3084 1428 2787 
Q 1159 2491 1159 1978 
L 1159 0 
L 581 0 
L 581 4863 
L 1159 4863 
L 1159 2956 
Q 1366 3272 1645 3428 
Q 1925 3584 2291 3584 
Q 2894 3584 3203 3211 
Q 3513 2838 3513 2113 
z
" transform="scale(0.015625)"/>
       <path id="DejaVuSans-69" d="M 603 3500 
L 1178 3500 
L 1178 0 
L 603 0 
L 603 3500 
z
M 603 4863 
L 1178 4863 
L 1178 4134 
L 603 4134 
L 603 4863 
z
" transform="scale(0.015625)"/>
       <path id="DejaVuSans-74" d="M 1172 4494 
L 1172 3500 
L 2356 3500 
L 2356 3053 
L 1172 3053 
L 1172 1153 
Q 1172 725 1289 603 
Q 1406 481 1766 481 
L 2356 481 
L 2356 0 
L 1766 0 
Q 1100 0 847 248 
Q 594 497 594 1153 
L 594 3053 
L 172 3053 
L 172 3500 
L 594 3500 
L 594 4494 
L 1172 4494 
z
" transform="scale(0.015625)"/>
       <path id="DejaVuSans-6f" d="M 1959 3097 
Q 1497 3097 1228 2736 
Q 959 2375 959 1747 
Q 959 1119 1226 758 
Q 1494 397 1959 397 
Q 2419 397 2687 759 
Q 2956 1122 2956 1747 
Q 2956 2369 2687 2733 
Q 2419 3097 1959 3097 
z
M 1959 3584 
Q 2709 3584 3137 3096 
Q 3566 2609 3566 1747 
Q 3566 888 3137 398 
Q 2709 -91 1959 -91 
Q 1206 -91 779 398 
Q 353 888 353 1747 
Q 353 2609 779 3096 
Q 1206 3584 1959 3584 
z
" transform="scale(0.015625)"/>
      </defs>
      <use xlink:href="#DejaVuSans-73"/>
      <use xlink:href="#DejaVuSans-63" x="52.099609"/>
      <use xlink:href="#DejaVuSans-68" x="107.080078"/>
      <use xlink:href="#DejaVuSans-69" x="170.458984"/>
      <use xlink:href="#DejaVuSans-73" x="198.242188"/>
      <use xlink:href="#DejaVuSans-74" x="250.341797"/>
      <use xlink:href="#DejaVuSans-6f" x="289.550781"/>
      <use xlink:href="#DejaVuSans-5f" x="350.732422"/>
      <use xlink:href="#DejaVuSans-6e" x="400.732422"/>
      <use xlink:href="#DejaVuSans-65" x="464.111328"/>
      <use xlink:href="#DejaVuSans-75" x="525.634766"/>
      <use xlink:href="#DejaVuSans-72" x="589.013672"/>
      <use xlink:href="#DejaVuSans-61" x="630.126953"/>
      <use xlink:href="#DejaVuSans-6c" x="691.40625"/>
     </g>
    </g>
   </g>
  </g>
 </g>
 <defs>
  <clipPath id="pc61f79120e">
   <rect x="57.6" y="41.472" width="357.12" height="266.112"/>
  </clipPath>
 </defs>
</svg>
