<?xml version="1.0" encoding="utf-8" standalone="no"?>
<!DOCTYPE svg PUBLIC "-//W3C//DTD SVG 1.1//EN"
  "http://www.w3.org/Graphics/SVG/1.1/DTD/svg11.dtd">
<svg xmlns:xlink="http://www.w3.org/1999/xlink" width="460.8pt" height="345.6pt" viewBox="0 0 460.8 345.6" xmlns="http://www.w3.org/2000/svg" version="1.1">
 <metadata>
  <rdf:RDF xmlns:dc="http://purl.org/dc/elements/1.1/" xmlns:cc="http://creativecommons.org/ns#" xmlns:rdf="http://www.w3.org/1999/02/22-rdf-syntax-ns#">
   <cc:Work>
    <dc:type rdf:resource="http://purl.org/dc/dcmitype/StillImage"/>
    <dc:date>2024-05-07T04:21:26.638706</dc:date>
    <dc:format>image/svg+xml</dc:format>
    <dc:creator>
     <cc:Agent>
      <dc:title>Matplotlib v3.5.1, https://matplotlib.org/</dc:title>
     </cc:Agent>
    </dc:creator>
   </cc:Work>
  </rdf:RDF>
 </metadata>
 <defs>
  <style type="text/css">*{stroke-linejoin: round; stroke-linecap: butt}</style>
 </defs>
 <g id="figure_1">
  <g id="patch_1">
   <path d="M 0 345.6 
L 460.8 345.6 
L 460.8 0 
L 0 0 
z
" style="fill: #ffffff"/>
  </g>
  <g id="axes_1">
   <g id="patch_2">
    <path d="M 57.6 307.584 
L 414.72 307.584 
L 414.72 41.472 
L 57.6 41.472 
z
" style="fill: #ffffff"/>
   </g>
   <g id="matplotlib.axis_1">
    <g id="xtick_1">
     <g id="line2d_1">
      <defs>
       <path id="m295ac59a70" d="M 0 0 
L 0 3.5 
" style="stroke: #000000; stroke-width: 0.8"/>
      </defs>
      <g>
       <use xlink:href="#m295ac59a70" x="73.832727" y="307.584" style="stroke: #000000; stroke-width: 0.8"/>
      </g>
     </g>
     <g id="text_1">
      <!-- 0 -->
      <g transform="translate(70.651477 322.182437)scale(0.1 -0.1)">
       <defs>
        <path id="DejaVuSans-30" d="M 2034 4250 
Q 1547 4250 1301 3770 
Q 1056 3291 1056 2328 
Q 1056 1369 1301 889 
Q 1547 409 2034 409 
Q 2525 409 2770 889 
Q 3016 1369 3016 2328 
Q 3016 3291 2770 3770 
Q 2525 4250 2034 4250 
z
M 2034 4750 
Q 2819 4750 3233 4129 
Q 3647 3509 3647 2328 
Q 3647 1150 3233 529 
Q 2819 -91 2034 -91 
Q 1250 -91 836 529 
Q 422 1150 422 2328 
Q 422 3509 836 4129 
Q 1250 4750 2034 4750 
z
" transform="scale(0.015625)"/>
       </defs>
       <use xlink:href="#DejaVuSans-30"/>
      </g>
     </g>
    </g>
    <g id="xtick_2">
     <g id="line2d_2">
      <g>
       <use xlink:href="#m295ac59a70" x="138.828632" y="307.584" style="stroke: #000000; stroke-width: 0.8"/>
      </g>
     </g>
     <g id="text_2">
      <!-- 200 -->
      <g transform="translate(129.284882 322.182437)scale(0.1 -0.1)">
       <defs>
        <path id="DejaVuSans-32" d="M 1228 531 
L 3431 531 
L 3431 0 
L 469 0 
L 469 531 
Q 828 903 1448 1529 
Q 2069 2156 2228 2338 
Q 2531 2678 2651 2914 
Q 2772 3150 2772 3378 
Q 2772 3750 2511 3984 
Q 2250 4219 1831 4219 
Q 1534 4219 1204 4116 
Q 875 4013 500 3803 
L 500 4441 
Q 881 4594 1212 4672 
Q 1544 4750 1819 4750 
Q 2544 4750 2975 4387 
Q 3406 4025 3406 3419 
Q 3406 3131 3298 2873 
Q 3191 2616 2906 2266 
Q 2828 2175 2409 1742 
Q 1991 1309 1228 531 
z
" transform="scale(0.015625)"/>
       </defs>
       <use xlink:href="#DejaVuSans-32"/>
       <use xlink:href="#DejaVuSans-30" x="63.623047"/>
       <use xlink:href="#DejaVuSans-30" x="127.246094"/>
      </g>
     </g>
    </g>
    <g id="xtick_3">
     <g id="line2d_3">
      <g>
       <use xlink:href="#m295ac59a70" x="203.824537" y="307.584" style="stroke: #000000; stroke-width: 0.8"/>
      </g>
     </g>
     <g id="text_3">
      <!-- 400 -->
      <g transform="translate(194.280787 322.182437)scale(0.1 -0.1)">
       <defs>
        <path id="DejaVuSans-34" d="M 2419 4116 
L 825 1625 
L 2419 1625 
L 2419 4116 
z
M 2253 4666 
L 3047 4666 
L 3047 1625 
L 3713 1625 
L 3713 1100 
L 3047 1100 
L 3047 0 
L 2419 0 
L 2419 1100 
L 313 1100 
L 313 1709 
L 2253 4666 
z
" transform="scale(0.015625)"/>
       </defs>
       <use xlink:href="#DejaVuSans-34"/>
       <use xlink:href="#DejaVuSans-30" x="63.623047"/>
       <use xlink:href="#DejaVuSans-30" x="127.246094"/>
      </g>
     </g>
    </g>
    <g id="xtick_4">
     <g id="line2d_4">
      <g>
       <use xlink:href="#m295ac59a70" x="268.820442" y="307.584" style="stroke: #000000; stroke-width: 0.8"/>
      </g>
     </g>
     <g id="text_4">
      <!-- 600 -->
      <g transform="translate(259.276692 322.182437)scale(0.1 -0.1)">
       <defs>
        <path id="DejaVuSans-36" d="M 2113 2584 
Q 1688 2584 1439 2293 
Q 1191 2003 1191 1497 
Q 1191 994 1439 701 
Q 1688 409 2113 409 
Q 2538 409 2786 701 
Q 3034 994 3034 1497 
Q 3034 2003 2786 2293 
Q 2538 2584 2113 2584 
z
M 3366 4563 
L 3366 3988 
Q 3128 4100 2886 4159 
Q 2644 4219 2406 4219 
Q 1781 4219 1451 3797 
Q 1122 3375 1075 2522 
Q 1259 2794 1537 2939 
Q 1816 3084 2150 3084 
Q 2853 3084 3261 2657 
Q 3669 2231 3669 1497 
Q 3669 778 3244 343 
Q 2819 -91 2113 -91 
Q 1303 -91 875 529 
Q 447 1150 447 2328 
Q 447 3434 972 4092 
Q 1497 4750 2381 4750 
Q 2619 4750 2861 4703 
Q 3103 4656 3366 4563 
z
" transform="scale(0.015625)"/>
       </defs>
       <use xlink:href="#DejaVuSans-36"/>
       <use xlink:href="#DejaVuSans-30" x="63.623047"/>
       <use xlink:href="#DejaVuSans-30" x="127.246094"/>
      </g>
     </g>
    </g>
    <g id="xtick_5">
     <g id="line2d_5">
      <g>
       <use xlink:href="#m295ac59a70" x="333.816347" y="307.584" style="stroke: #000000; stroke-width: 0.8"/>
      </g>
     </g>
     <g id="text_5">
      <!-- 800 -->
      <g transform="translate(324.272597 322.182437)scale(0.1 -0.1)">
       <defs>
        <path id="DejaVuSans-38" d="M 2034 2216 
Q 1584 2216 1326 1975 
Q 1069 1734 1069 1313 
Q 1069 891 1326 650 
Q 1584 409 2034 409 
Q 2484 409 2743 651 
Q 3003 894 3003 1313 
Q 3003 1734 2745 1975 
Q 2488 2216 2034 2216 
z
M 1403 2484 
Q 997 2584 770 2862 
Q 544 3141 544 3541 
Q 544 4100 942 4425 
Q 1341 4750 2034 4750 
Q 2731 4750 3128 4425 
Q 3525 4100 3525 3541 
Q 3525 3141 3298 2862 
Q 3072 2584 2669 2484 
Q 3125 2378 3379 2068 
Q 3634 1759 3634 1313 
Q 3634 634 3220 271 
Q 2806 -91 2034 -91 
Q 1263 -91 848 271 
Q 434 634 434 1313 
Q 434 1759 690 2068 
Q 947 2378 1403 2484 
z
M 1172 3481 
Q 1172 3119 1398 2916 
Q 1625 2713 2034 2713 
Q 2441 2713 2670 2916 
Q 2900 3119 2900 3481 
Q 2900 3844 2670 4047 
Q 2441 4250 2034 4250 
Q 1625 4250 1398 4047 
Q 1172 3844 1172 3481 
z
" transform="scale(0.015625)"/>
       </defs>
       <use xlink:href="#DejaVuSans-38"/>
       <use xlink:href="#DejaVuSans-30" x="63.623047"/>
       <use xlink:href="#DejaVuSans-30" x="127.246094"/>
      </g>
     </g>
    </g>
    <g id="xtick_6">
     <g id="line2d_6">
      <g>
       <use xlink:href="#m295ac59a70" x="398.812252" y="307.584" style="stroke: #000000; stroke-width: 0.8"/>
      </g>
     </g>
     <g id="text_6">
      <!-- 1000 -->
      <g transform="translate(386.087252 322.182437)scale(0.1 -0.1)">
       <defs>
        <path id="DejaVuSans-31" d="M 794 531 
L 1825 531 
L 1825 4091 
L 703 3866 
L 703 4441 
L 1819 4666 
L 2450 4666 
L 2450 531 
L 3481 531 
L 3481 0 
L 794 0 
L 794 531 
z
" transform="scale(0.015625)"/>
       </defs>
       <use xlink:href="#DejaVuSans-31"/>
       <use xlink:href="#DejaVuSans-30" x="63.623047"/>
       <use xlink:href="#DejaVuSans-30" x="127.246094"/>
       <use xlink:href="#DejaVuSans-30" x="190.869141"/>
      </g>
     </g>
    </g>
   </g>
   <g id="matplotlib.axis_2">
    <g id="ytick_1">
     <g id="line2d_7">
      <defs>
       <path id="m6fb2a92bee" d="M 0 0 
L -3.5 0 
" style="stroke: #000000; stroke-width: 0.8"/>
      </defs>
      <g>
       <use xlink:href="#m6fb2a92bee" x="57.6" y="298.770558" style="stroke: #000000; stroke-width: 0.8"/>
      </g>
     </g>
     <g id="text_7">
      <!-- 0.000 -->
      <g transform="translate(21.971875 302.569777)scale(0.1 -0.1)">
       <defs>
        <path id="DejaVuSans-2e" d="M 684 794 
L 1344 794 
L 1344 0 
L 684 0 
L 684 794 
z
" transform="scale(0.015625)"/>
       </defs>
       <use xlink:href="#DejaVuSans-30"/>
       <use xlink:href="#DejaVuSans-2e" x="63.623047"/>
       <use xlink:href="#DejaVuSans-30" x="95.410156"/>
       <use xlink:href="#DejaVuSans-30" x="159.033203"/>
       <use xlink:href="#DejaVuSans-30" x="222.65625"/>
      </g>
     </g>
    </g>
    <g id="ytick_2">
     <g id="line2d_8">
      <g>
       <use xlink:href="#m6fb2a92bee" x="57.6" y="264.5698" style="stroke: #000000; stroke-width: 0.8"/>
      </g>
     </g>
     <g id="text_8">
      <!-- 0.001 -->
      <g transform="translate(21.971875 268.369019)scale(0.1 -0.1)">
       <use xlink:href="#DejaVuSans-30"/>
       <use xlink:href="#DejaVuSans-2e" x="63.623047"/>
       <use xlink:href="#DejaVuSans-30" x="95.410156"/>
       <use xlink:href="#DejaVuSans-30" x="159.033203"/>
       <use xlink:href="#DejaVuSans-31" x="222.65625"/>
      </g>
     </g>
    </g>
    <g id="ytick_3">
     <g id="line2d_9">
      <g>
       <use xlink:href="#m6fb2a92bee" x="57.6" y="230.369042" style="stroke: #000000; stroke-width: 0.8"/>
      </g>
     </g>
     <g id="text_9">
      <!-- 0.002 -->
      <g transform="translate(21.971875 234.168261)scale(0.1 -0.1)">
       <use xlink:href="#DejaVuSans-30"/>
       <use xlink:href="#DejaVuSans-2e" x="63.623047"/>
       <use xlink:href="#DejaVuSans-30" x="95.410156"/>
       <use xlink:href="#DejaVuSans-30" x="159.033203"/>
       <use xlink:href="#DejaVuSans-32" x="222.65625"/>
      </g>
     </g>
    </g>
    <g id="ytick_4">
     <g id="line2d_10">
      <g>
       <use xlink:href="#m6fb2a92bee" x="57.6" y="196.168284" style="stroke: #000000; stroke-width: 0.8"/>
      </g>
     </g>
     <g id="text_10">
      <!-- 0.003 -->
      <g transform="translate(21.971875 199.967502)scale(0.1 -0.1)">
       <defs>
        <path id="DejaVuSans-33" d="M 2597 2516 
Q 3050 2419 3304 2112 
Q 3559 1806 3559 1356 
Q 3559 666 3084 287 
Q 2609 -91 1734 -91 
Q 1441 -91 1130 -33 
Q 819 25 488 141 
L 488 750 
Q 750 597 1062 519 
Q 1375 441 1716 441 
Q 2309 441 2620 675 
Q 2931 909 2931 1356 
Q 2931 1769 2642 2001 
Q 2353 2234 1838 2234 
L 1294 2234 
L 1294 2753 
L 1863 2753 
Q 2328 2753 2575 2939 
Q 2822 3125 2822 3475 
Q 2822 3834 2567 4026 
Q 2313 4219 1838 4219 
Q 1578 4219 1281 4162 
Q 984 4106 628 3988 
L 628 4550 
Q 988 4650 1302 4700 
Q 1616 4750 1894 4750 
Q 2613 4750 3031 4423 
Q 3450 4097 3450 3541 
Q 3450 3153 3228 2886 
Q 3006 2619 2597 2516 
z
" transform="scale(0.015625)"/>
       </defs>
       <use xlink:href="#DejaVuSans-30"/>
       <use xlink:href="#DejaVuSans-2e" x="63.623047"/>
       <use xlink:href="#DejaVuSans-30" x="95.410156"/>
       <use xlink:href="#DejaVuSans-30" x="159.033203"/>
       <use xlink:href="#DejaVuSans-33" x="222.65625"/>
      </g>
     </g>
    </g>
    <g id="ytick_5">
     <g id="line2d_11">
      <g>
       <use xlink:href="#m6fb2a92bee" x="57.6" y="161.967526" style="stroke: #000000; stroke-width: 0.8"/>
      </g>
     </g>
     <g id="text_11">
      <!-- 0.004 -->
      <g transform="translate(21.971875 165.766744)scale(0.1 -0.1)">
       <use xlink:href="#DejaVuSans-30"/>
       <use xlink:href="#DejaVuSans-2e" x="63.623047"/>
       <use xlink:href="#DejaVuSans-30" x="95.410156"/>
       <use xlink:href="#DejaVuSans-30" x="159.033203"/>
       <use xlink:href="#DejaVuSans-34" x="222.65625"/>
      </g>
     </g>
    </g>
    <g id="ytick_6">
     <g id="line2d_12">
      <g>
       <use xlink:href="#m6fb2a92bee" x="57.6" y="127.766767" style="stroke: #000000; stroke-width: 0.8"/>
      </g>
     </g>
     <g id="text_12">
      <!-- 0.005 -->
      <g transform="translate(21.971875 131.565986)scale(0.1 -0.1)">
       <defs>
        <path id="DejaVuSans-35" d="M 691 4666 
L 3169 4666 
L 3169 4134 
L 1269 4134 
L 1269 2991 
Q 1406 3038 1543 3061 
Q 1681 3084 1819 3084 
Q 2600 3084 3056 2656 
Q 3513 2228 3513 1497 
Q 3513 744 3044 326 
Q 2575 -91 1722 -91 
Q 1428 -91 1123 -41 
Q 819 9 494 109 
L 494 744 
Q 775 591 1075 516 
Q 1375 441 1709 441 
Q 2250 441 2565 725 
Q 2881 1009 2881 1497 
Q 2881 1984 2565 2268 
Q 2250 2553 1709 2553 
Q 1456 2553 1204 2497 
Q 953 2441 691 2322 
L 691 4666 
z
" transform="scale(0.015625)"/>
       </defs>
       <use xlink:href="#DejaVuSans-30"/>
       <use xlink:href="#DejaVuSans-2e" x="63.623047"/>
       <use xlink:href="#DejaVuSans-30" x="95.410156"/>
       <use xlink:href="#DejaVuSans-30" x="159.033203"/>
       <use xlink:href="#DejaVuSans-35" x="222.65625"/>
      </g>
     </g>
    </g>
    <g id="ytick_7">
     <g id="line2d_13">
      <g>
       <use xlink:href="#m6fb2a92bee" x="57.6" y="93.566009" style="stroke: #000000; stroke-width: 0.8"/>
      </g>
     </g>
     <g id="text_13">
      <!-- 0.006 -->
      <g transform="translate(21.971875 97.365228)scale(0.1 -0.1)">
       <use xlink:href="#DejaVuSans-30"/>
       <use xlink:href="#DejaVuSans-2e" x="63.623047"/>
       <use xlink:href="#DejaVuSans-30" x="95.410156"/>
       <use xlink:href="#DejaVuSans-30" x="159.033203"/>
       <use xlink:href="#DejaVuSans-36" x="222.65625"/>
      </g>
     </g>
    </g>
    <g id="ytick_8">
     <g id="line2d_14">
      <g>
       <use xlink:href="#m6fb2a92bee" x="57.6" y="59.365251" style="stroke: #000000; stroke-width: 0.8"/>
      </g>
     </g>
     <g id="text_14">
      <!-- 0.007 -->
      <g transform="translate(21.971875 63.16447)scale(0.1 -0.1)">
       <defs>
        <path id="DejaVuSans-37" d="M 525 4666 
L 3525 4666 
L 3525 4397 
L 1831 0 
L 1172 0 
L 2766 4134 
L 525 4134 
L 525 4666 
z
" transform="scale(0.015625)"/>
       </defs>
       <use xlink:href="#DejaVuSans-30"/>
       <use xlink:href="#DejaVuSans-2e" x="63.623047"/>
       <use xlink:href="#DejaVuSans-30" x="95.410156"/>
       <use xlink:href="#DejaVuSans-30" x="159.033203"/>
       <use xlink:href="#DejaVuSans-37" x="222.65625"/>
      </g>
     </g>
    </g>
   </g>
   <g id="line2d_15">
    <path d="M 73.832727 290.641518 
L 74.157707 292.057442 
L 74.482686 291.522128 
L 74.807666 291.707541 
L 75.132645 292.556984 
L 75.782604 291.799161 
L 76.107584 286.341384 
L 76.432563 291.864342 
L 76.757543 295.065802 
L 77.082523 287.649373 
L 77.407502 292.018586 
L 77.732482 291.522866 
L 78.057461 289.248422 
L 78.382441 291.829966 
L 78.70742 295.488 
L 79.0324 290.441233 
L 79.357379 292.290561 
L 79.682359 287.052481 
L 80.007338 293.253051 
L 80.332318 291.594936 
L 80.657297 293.956362 
L 80.982277 293.162596 
L 81.307256 293.377219 
L 81.632236 289.260646 
L 81.957215 290.690546 
L 82.282195 289.619028 
L 82.607174 292.068266 
L 82.932154 291.483696 
L 83.257133 293.652504 
L 83.582113 292.364142 
L 84.557052 284.167523 
L 84.882031 289.190005 
L 85.207011 292.018389 
L 85.53199 288.973776 
L 85.85697 290.182369 
L 86.181949 285.34607 
L 86.506929 289.581815 
L 86.831908 287.858661 
L 87.156888 289.399383 
L 87.481867 286.437153 
L 87.806847 288.260513 
L 88.131826 292.11406 
L 88.456806 293.256381 
L 88.781785 289.937566 
L 89.106765 288.694664 
L 89.756724 294.440401 
L 90.081704 288.38284 
L 90.731663 288.130833 
L 91.056642 290.652735 
L 91.381622 290.468225 
L 91.706601 291.709936 
L 92.35656 284.419886 
L 92.68154 292.684231 
L 93.006519 288.617859 
L 93.331499 292.273463 
L 93.656478 288.830986 
L 93.981458 282.420939 
L 94.306437 288.354713 
L 94.956396 281.839439 
L 95.281376 290.767147 
L 95.606355 291.448481 
L 95.931335 289.023037 
L 96.256314 288.785298 
L 96.581294 285.274482 
L 96.906274 284.134557 
L 97.231253 284.589217 
L 97.881212 290.619944 
L 98.206192 291.559588 
L 98.856151 279.639018 
L 99.18113 286.662736 
L 99.50611 286.791912 
L 99.831089 282.066402 
L 100.156069 283.369213 
L 100.481048 275.532556 
L 101.131007 290.027533 
L 101.455987 292.635667 
L 102.105946 289.824107 
L 102.430925 290.050609 
L 102.755905 290.950891 
L 103.080885 295.384518 
L 103.405864 292.946045 
L 103.730844 289.148068 
L 104.055823 289.299054 
L 104.380803 293.970302 
L 104.705782 288.877613 
L 105.030762 292.257249 
L 105.355741 284.538583 
L 105.680721 287.09669 
L 106.0057 292.291639 
L 106.33068 284.89655 
L 106.655659 284.917286 
L 106.980639 290.168593 
L 107.305618 287.174362 
L 107.630598 283.13337 
L 107.955577 284.531819 
L 108.280557 279.864388 
L 108.605536 286.097173 
L 108.930516 283.047418 
L 109.255495 289.752492 
L 109.580475 284.805301 
L 109.905455 285.752893 
L 110.230434 290.786619 
L 110.555414 291.614839 
L 110.880393 288.186312 
L 111.205373 289.410497 
L 111.530352 292.169648 
L 111.855332 291.548155 
L 112.180311 288.325339 
L 112.505291 290.662404 
L 112.83027 287.127663 
L 113.15525 280.601715 
L 113.480229 284.093585 
L 113.805209 280.480574 
L 114.130188 285.928867 
L 114.455168 274.614592 
L 115.105127 290.616676 
L 115.430106 264.297078 
L 115.755086 278.46276 
L 116.080066 279.103674 
L 116.405045 274.756848 
L 116.730025 280.809178 
L 117.055004 277.228827 
L 117.379984 278.95619 
L 117.704963 286.694418 
L 118.029943 282.656691 
L 118.354922 288.214528 
L 118.679902 278.242352 
L 119.004881 287.761843 
L 119.65484 281.52703 
L 119.97982 273.975817 
L 120.304799 275.759183 
L 120.629779 275.652503 
L 120.954758 278.034962 
L 121.279738 259.57473 
L 121.604717 284.897341 
L 121.929697 289.085058 
L 122.254676 276.379296 
L 122.579656 277.756417 
L 122.904636 280.648933 
L 123.229615 277.732862 
L 123.554595 284.709145 
L 123.879574 286.690768 
L 124.204554 287.501293 
L 124.529533 274.318948 
L 124.854513 283.001925 
L 125.179492 275.336962 
L 125.829451 291.220798 
L 126.47941 278.991655 
L 126.80439 273.47613 
L 127.129369 256.670864 
L 127.454349 269.98538 
L 127.779328 274.723814 
L 128.104308 271.889372 
L 128.429287 272.489446 
L 128.754267 277.817242 
L 129.079247 276.46972 
L 129.404226 282.862465 
L 129.729206 270.196139 
L 130.054185 269.551995 
L 130.379165 282.764077 
L 130.704144 287.44968 
L 131.029124 267.355075 
L 131.354103 261.333984 
L 132.004062 285.38999 
L 132.329042 259.596464 
L 132.654021 245.21934 
L 133.30398 282.851682 
L 133.62896 265.90051 
L 133.953939 279.59342 
L 134.278919 277.812186 
L 134.603898 273.67357 
L 134.928878 265.405713 
L 135.253857 288.858606 
L 135.578837 283.032617 
L 135.903817 271.622403 
L 136.228796 268.053281 
L 136.553776 282.293153 
L 136.878755 278.703208 
L 137.203735 286.484879 
L 137.528714 275.892712 
L 137.853694 286.092101 
L 138.178673 274.499202 
L 138.503653 283.582661 
L 138.828632 282.873591 
L 139.153612 284.02317 
L 139.478591 282.104711 
L 139.803571 269.171631 
L 140.12855 278.107403 
L 140.45353 268.00711 
L 140.778509 276.541576 
L 141.428468 284.059324 
L 141.753448 285.065259 
L 142.078428 282.597585 
L 142.403407 268.927115 
L 142.728387 269.403921 
L 143.053366 279.215419 
L 143.378346 275.510553 
L 143.703325 281.656956 
L 144.028305 276.456095 
L 144.353284 278.319611 
L 144.678264 277.150665 
L 145.003243 267.827742 
L 145.328223 271.693373 
L 145.653202 269.193639 
L 145.978182 278.324974 
L 146.303161 280.00852 
L 146.628141 269.135461 
L 147.2781 262.308267 
L 147.603079 278.402665 
L 147.928059 287.884994 
L 148.253038 284.259099 
L 148.578018 274.387236 
L 148.902998 273.894334 
L 149.227977 279.414607 
L 149.552957 282.772346 
L 149.877936 272.859072 
L 150.202916 285.75801 
L 150.527895 280.817922 
L 150.852875 285.382877 
L 151.177854 281.322293 
L 151.502834 273.589184 
L 151.827813 271.348376 
L 152.152793 270.756876 
L 152.477772 273.935793 
L 153.127731 257.840961 
L 153.452711 276.768033 
L 153.77769 243.175477 
L 154.10267 270.406594 
L 154.427649 257.883913 
L 154.752629 281.613203 
L 155.077609 262.708132 
L 155.402588 270.863417 
L 155.727568 266.418385 
L 156.052547 268.510731 
L 156.377527 276.817639 
L 157.027486 258.786167 
L 157.352465 260.021087 
L 158.002424 278.441084 
L 158.327404 280.672203 
L 158.652383 247.535955 
L 158.977363 273.021346 
L 159.627322 261.355954 
L 159.952301 266.862606 
L 160.277281 227.419812 
L 160.60226 264.548979 
L 160.92724 256.317447 
L 161.252219 269.87654 
L 161.577199 268.755101 
L 161.902179 253.284999 
L 162.227158 259.319205 
L 162.552138 221.323685 
L 162.877117 255.423606 
L 163.202097 259.799963 
L 163.527076 269.881706 
L 163.852056 222.359678 
L 164.177035 263.617995 
L 164.502015 273.52889 
L 164.826994 276.255661 
L 165.151974 268.771298 
L 165.476953 277.360259 
L 165.801933 280.130668 
L 166.126912 271.494422 
L 166.451892 272.4323 
L 166.776871 278.237622 
L 167.101851 276.874015 
L 167.42683 246.700025 
L 167.75181 265.118631 
L 168.07679 251.146424 
L 168.401769 275.779811 
L 168.726749 249.77781 
L 169.051728 253.449654 
L 169.376708 265.33579 
L 170.676626 205.833698 
L 171.001605 221.797658 
L 171.326585 229.79345 
L 171.651564 256.229786 
L 171.976544 264.64375 
L 172.301523 254.748627 
L 172.626503 210.905944 
L 172.951482 272.06098 
L 173.276462 264.740007 
L 173.601441 264.725558 
L 173.926421 261.358753 
L 174.2514 263.124465 
L 174.57638 279.994872 
L 174.90136 275.361806 
L 175.226339 251.680685 
L 175.551319 269.268387 
L 176.201278 235.024884 
L 176.526257 267.29932 
L 176.851237 255.307199 
L 177.176216 273.815422 
L 177.501196 231.049109 
L 177.826175 244.0773 
L 178.151155 281.128062 
L 178.476134 251.400276 
L 178.801114 259.18393 
L 179.126093 277.581934 
L 179.451073 269.514836 
L 179.776052 235.542355 
L 180.101032 272.973944 
L 180.426011 269.309665 
L 180.750991 280.596762 
L 181.075971 262.774301 
L 181.40095 266.840565 
L 181.72593 245.096941 
L 182.050909 270.617729 
L 182.375889 263.363956 
L 182.700868 273.223882 
L 183.025848 221.430668 
L 183.350827 240.512428 
L 183.675807 277.916983 
L 184.325766 251.855659 
L 184.650745 253.201101 
L 185.300704 214.620023 
L 185.625684 244.834043 
L 185.950663 237.708904 
L 186.600622 272.949541 
L 186.925602 235.143887 
L 187.250581 274.944498 
L 187.575561 199.411869 
L 187.900541 222.330175 
L 188.22552 226.840616 
L 188.5505 243.154363 
L 188.875479 239.612694 
L 189.525438 265.773734 
L 189.850418 248.767299 
L 190.175397 257.953291 
L 190.500377 247.928379 
L 190.825356 228.248114 
L 191.150336 252.670559 
L 191.475315 254.396871 
L 191.800295 236.530645 
L 192.125274 241.615412 
L 192.450254 239.115601 
L 192.775233 262.283725 
L 193.100213 236.517824 
L 193.425192 259.434541 
L 193.750172 253.763176 
L 194.400131 228.903555 
L 194.725111 241.288181 
L 195.37507 270.060531 
L 195.700049 264.530943 
L 196.025029 233.58489 
L 196.674988 270.550446 
L 196.999967 259.784952 
L 197.324947 253.939122 
L 197.649926 262.434456 
L 197.974906 190.640697 
L 198.299885 249.191209 
L 198.624865 260.883569 
L 198.949844 259.638589 
L 199.274824 246.660349 
L 199.599803 270.465363 
L 199.924783 252.77225 
L 200.249762 245.003778 
L 200.574742 245.378062 
L 200.899722 256.470169 
L 201.224701 199.489508 
L 201.549681 230.69568 
L 201.87466 207.422584 
L 202.19964 205.257233 
L 202.524619 260.980288 
L 202.849599 241.418563 
L 203.174578 235.459695 
L 203.499558 237.732832 
L 203.824537 182.921436 
L 204.149517 232.700871 
L 204.474496 231.891864 
L 204.799476 226.047344 
L 205.124455 199.011745 
L 205.449435 219.386984 
L 205.774414 190.143138 
L 206.099394 230.683672 
L 206.424373 157.027522 
L 206.749353 211.582327 
L 207.074333 146.499549 
L 207.399312 253.784804 
L 207.724292 233.056948 
L 208.049271 236.189287 
L 208.374251 206.406818 
L 208.69923 242.934684 
L 209.02421 230.646174 
L 209.349189 223.859068 
L 209.674169 240.722188 
L 209.999148 207.909895 
L 210.324128 227.504116 
L 210.649107 196.438212 
L 210.974087 204.120581 
L 211.299066 201.269291 
L 211.624046 207.845227 
L 211.949025 267.069236 
L 212.274005 241.020275 
L 212.598984 248.820285 
L 212.923964 211.160393 
L 213.248943 248.045781 
L 213.573923 186.082199 
L 213.898903 249.933275 
L 214.223882 215.087848 
L 214.548862 244.060849 
L 214.873841 159.436246 
L 215.198821 249.483506 
L 215.5238 245.751514 
L 215.84878 228.255997 
L 216.173759 185.204471 
L 216.498739 229.718925 
L 216.823718 225.434011 
L 217.148698 228.532376 
L 217.473677 241.559098 
L 217.798657 248.83551 
L 218.448616 218.173975 
L 218.773595 250.998663 
L 219.098575 255.71709 
L 219.423554 239.131515 
L 219.748534 210.633793 
L 220.398493 251.017022 
L 221.048452 176.891275 
L 221.373432 236.526345 
L 222.34837 168.148292 
L 223.323309 237.00826 
L 223.648288 244.425824 
L 223.973268 257.032113 
L 224.623227 185.889487 
L 224.948206 219.280853 
L 225.273186 220.552032 
L 225.598165 242.98724 
L 225.923145 216.407299 
L 226.248124 251.648737 
L 226.573104 190.321875 
L 226.898084 228.228883 
L 227.223063 151.769277 
L 227.548043 187.894009 
L 227.873022 185.421694 
L 228.198002 235.217688 
L 228.522981 199.640455 
L 228.847961 185.645469 
L 229.17294 199.180242 
L 229.49792 194.749717 
L 229.822899 184.729782 
L 230.147879 182.163097 
L 230.472858 226.585888 
L 231.122817 134.827884 
L 231.447797 144.352697 
L 231.772776 168.881277 
L 232.097756 238.686384 
L 232.422735 153.293344 
L 232.747715 252.431721 
L 233.397674 129.187686 
L 233.722654 172.339991 
L 234.047633 231.10352 
L 234.372613 214.171341 
L 234.697592 220.92126 
L 235.022572 193.844923 
L 235.347551 223.700063 
L 235.672531 209.252939 
L 235.99751 181.216641 
L 236.32249 217.417427 
L 236.647469 221.282238 
L 236.972449 244.293826 
L 237.297428 248.063439 
L 237.622408 248.264934 
L 237.947387 205.535396 
L 238.272367 234.130557 
L 238.597346 250.175907 
L 238.922326 241.607903 
L 239.247305 228.339114 
L 239.897265 128.732936 
L 240.222244 165.198333 
L 240.547224 232.801304 
L 240.872203 199.398029 
L 241.197183 201.067883 
L 241.522162 204.113948 
L 241.847142 233.020601 
L 242.172121 148.138443 
L 242.497101 183.73941 
L 242.82208 156.125221 
L 243.472039 252.309645 
L 243.797019 239.569976 
L 244.121998 210.87492 
L 244.446978 205.569534 
L 245.096937 244.849125 
L 245.421916 251.076724 
L 245.746896 211.725645 
L 246.071876 239.377376 
L 246.396855 254.068975 
L 246.721835 215.1448 
L 247.046814 229.735097 
L 247.371794 260.035277 
L 247.696773 225.369272 
L 248.021753 143.421808 
L 248.346732 131.659269 
L 248.671712 112.799928 
L 248.996691 219.513205 
L 249.321671 202.044926 
L 249.64665 201.366073 
L 250.296609 86.998456 
L 250.621589 107.992801 
L 250.946568 105.769106 
L 251.271548 207.958453 
L 251.596527 233.368567 
L 251.921507 146.69985 
L 252.571466 251.788702 
L 252.896446 243.915043 
L 253.221425 255.876401 
L 253.546405 207.128168 
L 253.871384 256.646688 
L 254.196364 218.113002 
L 254.521343 251.823704 
L 254.846323 238.422005 
L 255.171302 249.252014 
L 255.496282 242.135766 
L 255.821261 167.917254 
L 256.146241 236.587413 
L 256.7962 268.24292 
L 257.121179 231.791036 
L 257.446159 252.748469 
L 257.771138 238.368374 
L 258.096118 270.286618 
L 258.421097 261.090364 
L 258.746077 236.543935 
L 259.071057 269.101871 
L 259.396036 274.473513 
L 259.721016 263.79019 
L 260.045995 264.216819 
L 260.370975 250.565735 
L 260.695954 272.56857 
L 261.020934 258.547636 
L 261.670893 264.954757 
L 261.995872 274.362894 
L 262.320852 260.965859 
L 262.645831 270.667177 
L 262.970811 256.948207 
L 263.29579 269.413815 
L 263.62077 217.525039 
L 263.945749 259.78803 
L 264.595708 274.327908 
L 264.920688 270.60277 
L 265.245667 225.038203 
L 265.570647 256.560919 
L 265.895627 236.876035 
L 266.220606 256.637411 
L 266.545586 249.330258 
L 266.870565 225.501879 
L 267.195545 262.353477 
L 267.520524 256.47855 
L 267.845504 262.368809 
L 268.170483 261.576453 
L 268.495463 272.108487 
L 268.820442 240.144916 
L 269.145422 270.256476 
L 269.470401 255.65331 
L 269.795381 254.748719 
L 270.12036 228.354754 
L 270.44534 219.243109 
L 270.770319 274.202491 
L 271.095299 273.384119 
L 271.420278 276.749032 
L 271.745258 273.540082 
L 272.070238 274.545883 
L 272.720197 269.467977 
L 273.045176 278.270095 
L 273.695135 280.077322 
L 274.020115 271.104313 
L 274.345094 265.384873 
L 274.670074 268.209595 
L 274.995053 274.964957 
L 275.320033 225.97504 
L 275.645012 270.778706 
L 275.969992 250.827423 
L 276.294971 267.561581 
L 276.619951 262.715868 
L 276.94493 267.702379 
L 277.26991 283.670556 
L 277.594889 281.170813 
L 277.919869 266.296295 
L 278.244848 279.449158 
L 278.569828 273.525016 
L 278.894808 262.485447 
L 279.219787 260.65406 
L 279.544767 276.378679 
L 279.869746 279.259962 
L 280.194726 272.470654 
L 280.844685 263.347289 
L 281.169664 211.237068 
L 281.494644 272.609225 
L 281.819623 274.631178 
L 282.144603 260.933955 
L 282.469582 285.386836 
L 282.794562 285.950878 
L 283.119541 280.120528 
L 283.444521 283.154979 
L 283.7695 280.195636 
L 284.09448 286.970855 
L 284.419459 279.002897 
L 284.744439 280.822329 
L 285.069419 260.50903 
L 285.394398 280.463161 
L 285.719378 272.463129 
L 286.044357 283.751762 
L 286.369337 282.444098 
L 286.694316 277.038739 
L 287.019296 265.478747 
L 287.344275 280.389806 
L 287.669255 269.718971 
L 287.994234 263.276379 
L 288.319214 267.316407 
L 288.644193 282.698082 
L 289.294152 276.831484 
L 289.619132 266.931621 
L 289.944111 284.949363 
L 290.269091 280.212785 
L 290.59407 259.247534 
L 290.91905 269.55593 
L 291.244029 259.220022 
L 291.569009 270.944205 
L 291.893989 275.611209 
L 292.218968 267.428613 
L 292.543948 283.576375 
L 292.868927 268.767189 
L 293.193907 282.90074 
L 293.518886 277.735861 
L 293.843866 275.362085 
L 294.168845 257.746373 
L 294.818804 279.161611 
L 295.143784 276.334608 
L 295.468763 280.663926 
L 295.793743 268.572806 
L 296.118722 264.032866 
L 296.443702 273.235711 
L 296.768681 278.194562 
L 297.093661 275.507602 
L 297.41864 279.575499 
L 297.74362 275.853053 
L 298.0686 279.794559 
L 298.393579 265.270171 
L 298.718559 270.774996 
L 299.043538 270.334565 
L 299.368518 272.36256 
L 299.693497 266.823586 
L 300.018477 278.464326 
L 300.343456 275.78744 
L 300.668436 267.230028 
L 300.993415 271.528097 
L 301.318395 277.461789 
L 301.643374 266.654828 
L 301.968354 279.22032 
L 302.293333 270.753864 
L 302.618313 275.190377 
L 302.943292 237.007389 
L 303.268272 249.534577 
L 303.593251 272.158509 
L 303.918231 276.24173 
L 304.24321 272.855379 
L 304.56819 275.794937 
L 304.89317 271.43363 
L 305.218149 261.951477 
L 305.868108 281.90822 
L 306.193088 273.138933 
L 306.518067 240.988905 
L 306.843047 273.149506 
L 307.168026 280.481691 
L 307.817985 287.897398 
L 308.142965 281.389857 
L 308.467944 284.137983 
L 308.792924 275.111165 
L 309.117903 284.044299 
L 309.442883 285.690645 
L 309.767862 280.020049 
L 310.092842 290.285462 
L 310.417821 291.856616 
L 310.742801 287.948824 
L 311.067781 278.279286 
L 311.39276 280.894615 
L 311.71774 275.827975 
L 312.042719 281.384536 
L 312.367699 268.266548 
L 312.692678 281.869985 
L 313.017658 277.90602 
L 313.342637 286.0556 
L 313.667617 280.242439 
L 313.992596 280.084023 
L 314.317576 278.793805 
L 314.642555 286.204658 
L 314.967535 290.925136 
L 315.292514 287.08712 
L 315.617494 285.425935 
L 315.942473 278.770045 
L 316.267453 283.834849 
L 316.592432 275.379914 
L 316.917412 286.652441 
L 317.242391 289.195034 
L 317.567371 288.715312 
L 317.892351 289.282971 
L 318.54231 285.355419 
L 318.867289 265.835337 
L 319.192269 288.176587 
L 319.517248 283.008759 
L 320.167207 279.157799 
L 320.492187 280.658897 
L 320.817166 276.775951 
L 321.142146 285.018771 
L 321.467125 282.605074 
L 321.792105 285.172586 
L 322.117084 281.764046 
L 322.442064 285.995671 
L 322.767043 288.359684 
L 323.092023 285.025529 
L 323.417002 290.670851 
L 323.741982 290.423511 
L 324.066962 288.373129 
L 324.391941 290.248917 
L 324.716921 285.455835 
L 325.0419 288.063091 
L 325.36688 285.759615 
L 325.691859 291.607757 
L 326.016839 289.815231 
L 326.341818 288.813472 
L 326.666798 282.156895 
L 326.991777 279.284651 
L 327.316757 283.480098 
L 327.641736 283.959057 
L 327.966716 282.053237 
L 328.291695 287.232273 
L 328.616675 281.464685 
L 328.941654 282.259165 
L 329.266634 281.01224 
L 329.591613 283.943494 
L 329.916593 280.70435 
L 330.241572 287.026839 
L 330.566552 288.304059 
L 331.216511 279.002779 
L 331.541491 286.385026 
L 331.86647 282.061071 
L 332.19145 286.230754 
L 332.516429 287.946754 
L 333.166388 289.644585 
L 333.491368 291.671663 
L 333.816347 290.015814 
L 334.141327 284.85122 
L 334.466306 276.93711 
L 335.116265 289.485392 
L 335.441245 283.624514 
L 335.766224 281.068372 
L 336.091204 281.461096 
L 336.416183 263.537592 
L 336.741163 274.558482 
L 337.066143 279.965494 
L 337.391122 280.411879 
L 337.716102 270.69739 
L 338.041081 280.057823 
L 338.366061 282.610543 
L 338.69104 286.935034 
L 339.340999 291.786886 
L 339.665979 290.646624 
L 339.990958 285.01326 
L 340.315938 284.961038 
L 340.640917 282.91525 
L 340.965897 283.358637 
L 341.290876 282.267667 
L 341.615856 271.952642 
L 341.940835 274.68555 
L 342.265815 282.71873 
L 342.915774 288.353817 
L 343.240753 289.402895 
L 343.565733 287.151846 
L 343.890713 290.145977 
L 344.215692 283.381778 
L 344.540672 279.445692 
L 344.865651 285.576476 
L 345.190631 289.108029 
L 345.51561 283.85388 
L 345.84059 292.151034 
L 346.165569 285.091593 
L 346.490549 286.139997 
L 346.815528 290.548817 
L 347.140508 286.98821 
L 347.465487 285.263213 
L 347.790467 289.929321 
L 348.115446 288.511636 
L 348.440426 284.058539 
L 348.765405 284.505988 
L 349.090385 283.434406 
L 349.415364 288.243606 
L 349.740344 283.184316 
L 350.065324 282.410171 
L 350.390303 283.565899 
L 350.715283 272.979791 
L 351.040262 281.252139 
L 351.365242 280.764606 
L 351.690221 282.398002 
L 352.015201 272.327638 
L 352.34018 274.97037 
L 352.66516 286.664592 
L 352.990139 289.97437 
L 353.640098 274.86099 
L 353.965078 281.564959 
L 354.290057 282.404583 
L 354.615037 286.115292 
L 354.940016 292.884842 
L 355.264996 288.314199 
L 355.589975 289.976711 
L 355.914955 279.840475 
L 356.239934 288.953696 
L 356.564914 289.846286 
L 356.889894 289.18018 
L 357.539853 274.846677 
L 357.864832 275.749823 
L 358.189812 285.171864 
L 358.514791 280.52492 
L 358.839771 287.111242 
L 359.16475 287.665135 
L 359.48973 287.985374 
L 359.814709 289.294357 
L 360.139689 283.79923 
L 360.464668 283.766061 
L 360.789648 275.874461 
L 361.114627 281.35224 
L 361.439607 281.706786 
L 361.764586 285.131802 
L 362.089566 286.6958 
L 362.414545 291.281402 
L 362.739525 283.20035 
L 363.064505 286.323273 
L 363.389484 291.649122 
L 363.714464 282.774195 
L 364.039443 284.610946 
L 364.364423 280.516264 
L 364.689402 292.156618 
L 365.014382 290.794045 
L 365.339361 277.60736 
L 365.664341 281.91625 
L 365.98932 290.682616 
L 366.3143 283.729337 
L 366.639279 286.814797 
L 366.964259 286.012339 
L 367.289238 277.078427 
L 367.939197 288.278732 
L 368.264177 280.970009 
L 368.589156 264.05134 
L 368.914136 286.036644 
L 369.239115 280.243554 
L 369.564095 265.319601 
L 369.889075 281.448049 
L 370.214054 285.332676 
L 370.539034 275.947711 
L 370.864013 278.904884 
L 371.838952 291.225163 
L 372.163931 288.816051 
L 372.488911 283.602445 
L 372.81389 286.292151 
L 373.13887 287.113328 
L 373.463849 283.670002 
L 373.788829 282.598015 
L 374.113808 285.650079 
L 374.438788 290.275078 
L 374.763767 287.594503 
L 375.088747 289.076309 
L 375.413726 287.276574 
L 376.063686 273.914432 
L 376.388665 288.327152 
L 376.713645 279.249759 
L 377.038624 285.826885 
L 377.688583 281.446414 
L 378.013563 280.017025 
L 378.338542 282.61477 
L 378.663522 289.60621 
L 378.988501 288.804758 
L 379.313481 290.907666 
L 379.63846 288.276003 
L 379.96344 293.156671 
L 380.288419 288.43911 
L 380.613399 290.37123 
L 380.938378 286.089207 
L 381.263358 287.659015 
L 381.588337 291.554024 
L 381.913317 290.837444 
L 382.238296 291.348319 
L 382.563276 282.609533 
L 382.888256 289.275248 
L 383.213235 289.641534 
L 383.538215 284.168823 
L 383.863194 285.046427 
L 384.188174 280.739994 
L 384.513153 282.226052 
L 384.838133 288.932114 
L 385.163112 285.129345 
L 385.488092 285.884405 
L 385.813071 287.671412 
L 386.138051 287.538129 
L 386.46303 276.707889 
L 386.78801 285.603695 
L 387.112989 286.805923 
L 387.437969 278.997456 
L 388.087928 290.598183 
L 388.412907 288.982244 
L 388.737887 290.021029 
L 389.062867 283.372856 
L 389.387846 289.289771 
L 389.712826 283.406767 
L 390.037805 284.201381 
L 390.362785 280.34623 
L 390.687764 281.536591 
L 391.012744 285.192311 
L 391.337723 283.566638 
L 391.662703 284.530462 
L 391.987682 290.556376 
L 392.312662 278.267627 
L 392.637641 284.933854 
L 392.962621 285.668165 
L 393.2876 271.281698 
L 393.61258 281.098507 
L 393.937559 275.098464 
L 394.262539 266.37916 
L 394.587518 279.577711 
L 394.912498 273.836921 
L 395.237477 291.493616 
L 395.562457 270.133928 
L 395.887437 281.103851 
L 396.212416 274.253108 
L 396.537396 272.80231 
L 396.862375 275.073046 
L 397.512334 288.897314 
L 398.487273 273.257221 
L 398.487273 273.257221 
" clip-path="url(#pf56a203ee1)" style="fill: none; stroke: #1f77b4; stroke-width: 1.5; stroke-linecap: square"/>
   </g>
   <g id="line2d_16">
    <path d="M 73.832727 277.591965 
L 74.157707 271.237824 
L 74.482686 277.427446 
L 74.807666 273.693517 
L 75.132645 266.56057 
L 75.457625 285.305517 
L 75.782604 281.692775 
L 76.107584 256.918772 
L 76.432563 285.168832 
L 76.757543 291.065472 
L 77.407502 273.378382 
L 77.732482 285.507394 
L 78.057461 285.411201 
L 78.382441 282.682706 
L 78.70742 281.3175 
L 79.0324 278.128784 
L 79.357379 278.35643 
L 79.682359 265.804186 
L 80.007338 280.654975 
L 80.332318 283.796555 
L 80.657297 271.146328 
L 80.982277 284.326015 
L 81.307256 286.022972 
L 81.632236 285.987357 
L 81.957215 283.389541 
L 82.282195 274.980893 
L 82.607174 283.330748 
L 82.932154 272.870879 
L 83.257133 281.615564 
L 83.907093 278.764877 
L 84.232072 279.890021 
L 84.557052 265.319688 
L 84.882031 276.481788 
L 85.207011 281.562941 
L 85.53199 267.169832 
L 85.85697 275.732242 
L 86.181949 262.217967 
L 86.506929 275.624509 
L 86.831908 276.080014 
L 87.156888 277.569275 
L 87.481867 274.705127 
L 87.806847 288.992151 
L 88.131826 273.440539 
L 88.456806 280.508016 
L 88.781785 262.101333 
L 89.431744 287.488426 
L 89.756724 288.275674 
L 90.081704 287.374961 
L 90.406683 273.674906 
L 90.731663 284.640527 
L 91.056642 285.541356 
L 91.381622 291.037706 
L 92.031581 286.608952 
L 92.35656 285.232828 
L 92.68154 288.261304 
L 93.006519 287.758212 
L 93.331499 285.291808 
L 93.656478 280.763791 
L 93.981458 263.301251 
L 94.306437 271.560321 
L 94.631417 283.137846 
L 94.956396 269.921043 
L 95.281376 277.473635 
L 95.606355 281.334887 
L 95.931335 278.781002 
L 96.256314 279.036098 
L 96.581294 272.372273 
L 97.231253 281.03903 
L 97.556233 272.859807 
L 97.881212 282.080897 
L 98.206192 281.18392 
L 98.531171 276.269081 
L 98.856151 275.440425 
L 99.18113 275.286162 
L 99.50611 279.185862 
L 99.831089 274.411358 
L 100.156069 273.151616 
L 100.481048 261.173195 
L 100.806028 276.800512 
L 101.131007 273.956718 
L 101.780966 291.689403 
L 102.105946 284.281025 
L 102.430925 285.554146 
L 102.755905 289.478012 
L 103.080885 291.994734 
L 103.730844 277.835547 
L 104.055823 272.787339 
L 104.380803 289.236372 
L 104.705782 283.393003 
L 105.030762 286.881475 
L 105.355741 278.287795 
L 105.680721 278.967014 
L 106.0057 283.581145 
L 106.33068 271.265424 
L 106.980639 290.462575 
L 107.305618 275.235977 
L 107.630598 265.724574 
L 107.955577 275.296022 
L 108.280557 280.728681 
L 108.605536 277.125364 
L 109.255495 281.935869 
L 109.580475 270.312567 
L 109.905455 273.582085 
L 110.230434 279.995284 
L 110.555414 268.443 
L 110.880393 277.025499 
L 111.530352 285.469993 
L 111.855332 288.275449 
L 112.180311 282.150038 
L 112.505291 292.590538 
L 112.83027 279.885333 
L 113.15525 282.308772 
L 113.480229 287.257397 
L 113.805209 282.650504 
L 114.130188 287.95009 
L 114.455168 269.5538 
L 114.780147 261.689893 
L 115.105127 282.881405 
L 115.430106 247.598683 
L 115.755086 281.10009 
L 116.080066 270.403053 
L 116.405045 234.663643 
L 116.730025 280.931906 
L 117.055004 269.109108 
L 117.379984 280.326042 
L 117.704963 272.533191 
L 118.029943 277.510888 
L 118.354922 285.96419 
L 118.679902 280.776785 
L 119.004881 278.880432 
L 119.329861 278.77597 
L 119.65484 271.951109 
L 119.97982 243.594202 
L 120.304799 285.137372 
L 120.629779 266.119168 
L 120.954758 284.538871 
L 121.279738 268.924985 
L 121.604717 286.8615 
L 121.929697 289.295498 
L 122.254676 289.445641 
L 122.579656 282.558989 
L 122.904636 291.804936 
L 123.229615 280.780076 
L 123.554595 284.203479 
L 123.879574 283.48465 
L 124.204554 285.02963 
L 124.529533 275.786614 
L 124.854513 260.380671 
L 125.179492 272.120298 
L 125.504472 278.385614 
L 125.829451 288.799167 
L 126.154431 286.054239 
L 126.80439 266.012651 
L 127.129369 266.308239 
L 127.454349 284.081104 
L 127.779328 283.134715 
L 128.104308 277.021093 
L 128.754267 283.259918 
L 129.079247 280.001089 
L 129.729206 269.707016 
L 130.054185 273.071831 
L 130.704144 287.194852 
L 131.029124 243.915505 
L 131.679083 274.925584 
L 132.004062 286.820683 
L 132.654021 260.800245 
L 132.979001 264.854738 
L 133.30398 285.202158 
L 133.62896 278.286642 
L 133.953939 278.262684 
L 134.278919 272.142407 
L 134.603898 270.065641 
L 134.928878 272.139312 
L 135.253857 291.10803 
L 135.903817 263.998749 
L 136.228796 263.541204 
L 136.553776 281.859233 
L 136.878755 287.44692 
L 137.203735 277.757755 
L 137.528714 282.542017 
L 137.853694 279.74964 
L 138.178673 289.518637 
L 138.503653 292.341516 
L 138.828632 277.725381 
L 139.153612 290.466871 
L 139.478591 280.940709 
L 139.803571 255.214669 
L 140.12855 276.468432 
L 140.45353 259.024121 
L 140.778509 284.780439 
L 141.103489 290.861298 
L 141.428468 291.154283 
L 141.753448 289.896006 
L 142.403407 271.33598 
L 142.728387 271.281153 
L 143.053366 268.722112 
L 143.378346 279.894066 
L 143.703325 273.549379 
L 144.028305 277.059453 
L 144.353284 283.893165 
L 145.003243 255.056918 
L 145.328223 284.739783 
L 145.653202 274.097599 
L 145.978182 268.811644 
L 146.303161 276.031071 
L 146.628141 247.897574 
L 146.95312 273.424014 
L 147.2781 271.516881 
L 147.928059 287.484566 
L 148.578018 274.430087 
L 148.902998 281.402248 
L 149.227977 282.042722 
L 149.552957 284.66952 
L 149.877936 290.51133 
L 150.202916 284.03439 
L 150.527895 281.521593 
L 150.852875 285.443641 
L 151.177854 278.990887 
L 151.502834 268.118228 
L 151.827813 274.347416 
L 152.152793 273.542834 
L 152.477772 285.508761 
L 152.802752 247.940077 
L 153.127731 277.459141 
L 153.452711 267.64698 
L 153.77769 244.074705 
L 154.10267 266.072242 
L 154.427649 259.572691 
L 154.752629 279.56575 
L 155.077609 252.57742 
L 155.402588 280.6518 
L 155.727568 275.992254 
L 156.052547 266.300939 
L 156.377527 273.168902 
L 156.702506 249.300811 
L 157.027486 243.544266 
L 157.352465 261.833542 
L 157.677445 270.77416 
L 158.327404 282.181175 
L 158.652383 229.330825 
L 158.977363 281.213063 
L 159.302342 251.557533 
L 159.952301 280.771701 
L 160.277281 263.546045 
L 160.92724 279.667412 
L 161.252219 275.075445 
L 161.577199 282.782981 
L 161.902179 257.930751 
L 162.227158 274.638001 
L 162.552138 225.911814 
L 162.877117 264.659589 
L 163.202097 275.769969 
L 163.527076 277.585806 
L 163.852056 267.834725 
L 164.177035 275.422787 
L 164.502015 287.894508 
L 164.826994 278.335563 
L 165.151974 289.346642 
L 165.476953 294.423249 
L 165.801933 285.393287 
L 166.126912 285.995579 
L 166.451892 287.955483 
L 166.776871 287.911773 
L 167.101851 288.738508 
L 167.42683 282.531073 
L 167.75181 285.586712 
L 168.401769 282.5709 
L 168.726749 274.544846 
L 169.051728 272.965768 
L 169.376708 285.733389 
L 169.701687 285.477271 
L 170.026667 276.211421 
L 170.351646 274.568193 
L 170.676626 283.289781 
L 171.001605 285.086451 
L 171.326585 283.876316 
L 171.651564 280.755018 
L 171.976544 287.001779 
L 172.301523 265.560089 
L 172.626503 232.210526 
L 172.951482 278.941158 
L 173.276462 264.753337 
L 173.601441 238.121458 
L 173.926421 241.587052 
L 174.2514 261.432964 
L 174.57638 291.615037 
L 175.226339 279.27852 
L 175.551319 285.139299 
L 176.201278 267.330274 
L 176.851237 268.199615 
L 177.176216 284.39489 
L 177.501196 252.582377 
L 177.826175 271.244085 
L 178.151155 269.061192 
L 178.476134 249.806413 
L 178.801114 253.842687 
L 179.126093 269.302819 
L 179.451073 258.272782 
L 179.776052 252.180549 
L 180.101032 268.830702 
L 180.426011 252.725376 
L 180.750991 272.016164 
L 181.075971 263.785209 
L 181.40095 266.766571 
L 181.72593 227.580409 
L 182.050909 270.22417 
L 182.375889 261.962669 
L 182.700868 280.378031 
L 183.025848 192.345334 
L 183.675807 279.378156 
L 184.000786 254.630946 
L 184.325766 268.414556 
L 184.650745 262.365461 
L 184.975725 248.7887 
L 185.300704 266.305267 
L 185.625684 249.282361 
L 185.950663 273.834565 
L 186.275643 255.989551 
L 187.250581 274.325561 
L 187.575561 254.480705 
L 187.900541 264.472789 
L 188.22552 269.542893 
L 188.5505 246.964838 
L 188.875479 242.085846 
L 189.200459 234.717385 
L 189.525438 244.384572 
L 189.850418 246.724396 
L 190.175397 255.369732 
L 190.500377 243.186179 
L 190.825356 255.732785 
L 191.150336 253.520835 
L 191.475315 266.607713 
L 191.800295 255.201888 
L 192.125274 249.063932 
L 192.450254 229.593555 
L 192.775233 249.449667 
L 193.100213 241.18858 
L 193.425192 240.628826 
L 193.750172 227.65382 
L 194.075152 259.609962 
L 194.400131 252.920788 
L 194.725111 239.105281 
L 195.05009 249.152405 
L 195.37507 273.999658 
L 195.700049 250.233352 
L 196.025029 258.524973 
L 196.350008 230.655467 
L 196.674988 259.693251 
L 196.999967 274.093892 
L 197.324947 270.134129 
L 197.649926 216.285473 
L 197.974906 223.343887 
L 198.299885 266.068876 
L 198.624865 270.611924 
L 198.949844 272.395712 
L 199.274824 255.727676 
L 199.599803 268.509509 
L 199.924783 247.991605 
L 200.249762 240.745038 
L 200.574742 256.58644 
L 200.899722 255.469015 
L 201.224701 240.509489 
L 201.549681 236.786531 
L 201.87466 270.282121 
L 202.19964 238.312892 
L 202.524619 282.790324 
L 202.849599 262.534236 
L 203.499558 258.662598 
L 203.824537 240.083979 
L 204.149517 273.821614 
L 204.474496 269.300536 
L 204.799476 240.501789 
L 205.124455 130.091915 
L 205.449435 186.317275 
L 205.774414 208.895186 
L 206.099394 252.844053 
L 206.749353 224.134985 
L 207.074333 257.91547 
L 207.399312 251.049992 
L 207.724292 224.183233 
L 208.049271 231.681171 
L 208.374251 231.052048 
L 209.02421 242.93757 
L 209.349189 229.811446 
L 209.674169 259.676047 
L 209.999148 223.771809 
L 210.324128 259.648913 
L 210.649107 230.566608 
L 210.974087 221.062348 
L 211.299066 204.791088 
L 211.949025 246.807338 
L 212.274005 246.898566 
L 212.598984 214.393787 
L 212.923964 241.751185 
L 213.248943 259.323342 
L 213.573923 235.301733 
L 213.898903 274.91403 
L 214.223882 180.149386 
L 214.548862 251.85077 
L 214.873841 203.690309 
L 215.198821 258.876722 
L 215.5238 267.129195 
L 215.84878 233.18477 
L 216.173759 211.532965 
L 216.498739 218.154704 
L 216.823718 252.957613 
L 217.148698 265.183 
L 217.473677 226.267879 
L 217.798657 254.095069 
L 218.123636 251.424969 
L 218.448616 206.79311 
L 218.773595 241.029934 
L 219.098575 256.693057 
L 219.423554 257.404215 
L 219.748534 204.698327 
L 220.073514 268.885608 
L 220.398493 252.085766 
L 220.723473 243.438434 
L 221.048452 185.146883 
L 221.373432 222.399485 
L 221.698411 213.013053 
L 222.023391 227.923924 
L 222.34837 160.08069 
L 222.67335 242.757886 
L 222.998329 210.863039 
L 223.323309 53.568 
L 223.648288 224.516699 
L 223.973268 230.774458 
L 224.298247 242.359342 
L 224.623227 228.294323 
L 224.948206 252.271857 
L 225.273186 239.51117 
L 225.598165 269.650509 
L 225.923145 245.562158 
L 226.248124 269.366533 
L 226.573104 239.791268 
L 226.898084 228.585218 
L 227.223063 235.974554 
L 227.548043 185.081897 
L 228.198002 278.252123 
L 228.847961 112.501141 
L 229.17294 131.820679 
L 229.49792 193.944922 
L 229.822899 223.423254 
L 230.147879 210.107822 
L 230.472858 235.687492 
L 230.797838 237.253616 
L 231.122817 136.532616 
L 231.447797 223.685292 
L 231.772776 229.505564 
L 232.097756 263.574453 
L 232.422735 245.757008 
L 232.747715 253.257439 
L 233.072695 224.01097 
L 233.397674 262.563082 
L 233.722654 237.082543 
L 234.047633 254.057946 
L 234.372613 239.857739 
L 234.697592 243.976178 
L 235.022572 258.683875 
L 235.347551 257.413882 
L 235.672531 263.777027 
L 235.99751 241.099331 
L 236.32249 273.8302 
L 236.647469 256.304901 
L 236.972449 253.322278 
L 237.297428 269.507097 
L 237.622408 261.540368 
L 237.947387 260.966042 
L 238.272367 252.257021 
L 238.597346 212.178452 
L 238.922326 244.742879 
L 239.247305 249.283735 
L 239.572285 247.106268 
L 239.897265 151.2653 
L 240.547224 254.452926 
L 240.872203 243.609742 
L 241.197183 246.464631 
L 241.522162 220.283903 
L 241.847142 237.656129 
L 242.172121 209.515137 
L 242.497101 201.447025 
L 242.82208 213.398939 
L 243.472039 273.161705 
L 244.121998 225.028185 
L 244.446978 223.422792 
L 244.771957 218.5445 
L 245.096937 243.16049 
L 245.421916 255.164279 
L 245.746896 207.667549 
L 246.071876 269.151964 
L 246.396855 274.081687 
L 247.046814 240.321077 
L 247.371794 256.647385 
L 247.696773 203.413532 
L 248.021753 239.746842 
L 248.346732 206.575896 
L 248.671712 192.655802 
L 248.996691 213.534222 
L 249.321671 192.386486 
L 249.64665 195.562371 
L 249.97163 188.986451 
L 250.296609 209.047033 
L 250.621589 198.426076 
L 250.946568 161.77206 
L 251.596527 230.346463 
L 251.921507 234.367237 
L 252.246486 234.275257 
L 252.571466 199.050461 
L 253.221425 227.599927 
L 253.546405 211.163252 
L 253.871384 242.627798 
L 254.196364 218.920958 
L 254.521343 245.01616 
L 254.846323 227.31298 
L 255.171302 248.054931 
L 255.496282 224.564978 
L 255.821261 222.778976 
L 256.47122 243.759104 
L 256.7962 266.002178 
L 257.121179 266.79114 
L 257.446159 261.499701 
L 257.771138 259.680466 
L 258.096118 265.749831 
L 258.421097 278.793056 
L 258.746077 253.881128 
L 259.071057 270.207707 
L 259.396036 267.827491 
L 259.721016 267.135358 
L 260.045995 276.707097 
L 260.370975 267.274143 
L 260.695954 270.735153 
L 261.020934 278.424292 
L 261.345913 280.32268 
L 261.670893 270.001726 
L 261.995872 282.026335 
L 262.645831 286.042929 
L 262.970811 274.229659 
L 263.29579 276.792358 
L 263.62077 275.482029 
L 263.945749 282.940803 
L 264.270729 285.628551 
L 264.920688 278.465748 
L 265.245667 270.675444 
L 265.570647 272.823577 
L 266.220606 249.172129 
L 266.545586 252.76328 
L 266.870565 238.650081 
L 267.195545 261.728374 
L 267.520524 275.471881 
L 267.845504 272.34968 
L 268.170483 264.273523 
L 268.495463 267.604697 
L 268.820442 265.494185 
L 269.470401 252.803215 
L 269.795381 227.914902 
L 270.12036 212.861087 
L 270.44534 230.811542 
L 270.770319 263.425414 
L 271.095299 275.60617 
L 271.420278 275.818593 
L 271.745258 268.835306 
L 272.070238 247.655113 
L 272.395217 237.993998 
L 273.045176 265.923689 
L 274.020115 239.673846 
L 274.345094 208.929212 
L 274.670074 233.512757 
L 274.995053 243.379353 
L 275.320033 217.493394 
L 275.645012 257.618005 
L 275.969992 233.7669 
L 276.294971 255.962572 
L 276.619951 232.12017 
L 276.94493 237.710743 
L 277.26991 252.493821 
L 277.594889 279.701087 
L 277.919869 245.384592 
L 278.244848 259.438017 
L 278.569828 253.147012 
L 278.894808 264.219654 
L 279.219787 263.259943 
L 279.544767 252.839653 
L 279.869746 281.569478 
L 280.194726 273.778008 
L 280.519705 276.641219 
L 280.844685 271.536657 
L 281.169664 237.549409 
L 281.494644 281.611204 
L 281.819623 285.900264 
L 282.144603 284.887119 
L 282.469582 288.803351 
L 282.794562 288.45825 
L 283.119541 287.49376 
L 283.444521 284.18856 
L 283.7695 288.406929 
L 284.09448 281.10269 
L 284.419459 278.034576 
L 284.744439 273.348598 
L 285.069419 272.531391 
L 285.719378 282.343094 
L 286.044357 288.662989 
L 286.369337 285.992465 
L 286.694316 276.435015 
L 287.019296 276.685312 
L 287.344275 263.256212 
L 287.669255 254.953093 
L 287.994234 223.455121 
L 288.319214 263.735934 
L 288.644193 269.12533 
L 288.969173 269.092696 
L 289.294152 263.653633 
L 289.619132 247.933216 
L 289.944111 276.883065 
L 290.269091 254.854177 
L 290.59407 247.932464 
L 290.91905 255.863597 
L 291.244029 233.889398 
L 291.569009 219.473191 
L 291.893989 259.644641 
L 292.218968 227.086991 
L 292.543948 266.577078 
L 292.868927 266.805743 
L 293.193907 277.393611 
L 293.518886 272.018233 
L 293.843866 246.729456 
L 294.168845 257.872817 
L 294.493825 254.754592 
L 294.818804 248.839492 
L 295.143784 233.914275 
L 295.468763 265.017553 
L 296.118722 241.993686 
L 296.443702 253.3527 
L 296.768681 260.342931 
L 297.093661 270.671979 
L 297.41864 271.680443 
L 297.74362 278.855544 
L 298.0686 281.542589 
L 298.393579 226.746287 
L 298.718559 269.167508 
L 299.043538 275.827378 
L 299.368518 248.762836 
L 299.693497 260.1197 
L 300.018477 256.933017 
L 300.343456 261.6403 
L 300.668436 256.41233 
L 300.993415 259.563151 
L 301.318395 286.083592 
L 301.643374 239.279654 
L 301.968354 260.300221 
L 302.293333 264.56342 
L 302.618313 241.658452 
L 302.943292 229.065753 
L 303.268272 245.799005 
L 303.918231 232.070955 
L 304.24321 265.788752 
L 304.56819 279.047527 
L 304.89317 262.845414 
L 305.218149 273.244357 
L 305.543129 274.155185 
L 305.868108 276.476554 
L 306.193088 262.354472 
L 306.518067 261.971003 
L 306.843047 266.708351 
L 307.168026 268.396211 
L 307.493006 280.754821 
L 307.817985 276.461737 
L 308.142965 259.087821 
L 308.467944 272.546212 
L 308.792924 274.589691 
L 309.117903 270.672283 
L 309.442883 256.645378 
L 310.092842 282.627582 
L 310.417821 277.387645 
L 310.742801 274.164239 
L 311.39276 196.210391 
L 311.71774 244.176165 
L 312.042719 267.120601 
L 312.367699 277.608616 
L 312.692678 279.325684 
L 313.017658 266.250034 
L 313.342637 264.854121 
L 313.667617 246.917633 
L 313.992596 214.166929 
L 314.317576 221.063128 
L 314.642555 263.07808 
L 314.967535 277.553124 
L 315.292514 267.337031 
L 315.617494 272.344357 
L 315.942473 262.139702 
L 316.267453 280.857571 
L 316.592432 271.85626 
L 316.917412 276.931147 
L 317.242391 269.281771 
L 317.567371 273.567224 
L 317.892351 272.588303 
L 318.21733 276.43405 
L 318.54231 267.680902 
L 318.867289 244.326817 
L 319.192269 269.320778 
L 319.842228 241.136499 
L 320.167207 270.738049 
L 320.492187 245.235943 
L 320.817166 287.630418 
L 321.467125 253.915385 
L 321.792105 270.81538 
L 322.117084 260.725962 
L 322.442064 262.884735 
L 322.767043 268.722487 
L 323.092023 265.835829 
L 323.417002 258.931376 
L 323.741982 281.231804 
L 324.066962 270.547342 
L 324.391941 277.425521 
L 324.716921 280.031093 
L 325.0419 273.829957 
L 325.36688 261.613405 
L 325.691859 279.792329 
L 326.016839 276.634858 
L 326.341818 277.44946 
L 326.666798 267.351303 
L 326.991777 246.162894 
L 327.316757 258.656725 
L 327.641736 249.801743 
L 327.966716 285.177426 
L 328.291695 277.432351 
L 328.616675 252.596121 
L 328.941654 253.383007 
L 329.266634 266.39923 
L 329.591613 271.26462 
L 329.916593 267.355969 
L 330.241572 261.117379 
L 330.566552 280.06016 
L 330.891532 274.237266 
L 331.216511 256.882054 
L 331.541491 277.803036 
L 331.86647 285.4103 
L 332.19145 271.847158 
L 332.841409 285.576166 
L 333.166388 285.703786 
L 333.491368 286.903954 
L 334.141327 268.205984 
L 334.466306 265.440662 
L 334.791286 284.71609 
L 335.116265 285.854049 
L 335.766224 275.543109 
L 336.091204 239.023887 
L 336.416183 242.749584 
L 336.741163 266.464419 
L 337.391122 279.740705 
L 338.041081 272.652094 
L 338.366061 278.053054 
L 338.69104 268.804945 
L 339.01602 284.240338 
L 339.340999 282.227578 
L 339.665979 284.89135 
L 339.990958 255.521809 
L 340.315938 275.965942 
L 340.965897 267.878779 
L 341.290876 271.250758 
L 341.615856 267.369472 
L 341.940835 276.645549 
L 342.265815 273.453545 
L 342.590794 272.42839 
L 342.915774 278.486412 
L 343.240753 278.068697 
L 343.565733 275.678773 
L 343.890713 288.106037 
L 344.215692 267.939773 
L 344.540672 276.109863 
L 344.865651 264.988906 
L 345.190631 280.599471 
L 345.51561 263.921595 
L 345.84059 278.849546 
L 346.165569 273.639122 
L 346.490549 276.537688 
L 346.815528 276.999125 
L 347.140508 267.338313 
L 347.465487 280.771502 
L 347.790467 284.403992 
L 348.115446 271.046587 
L 348.440426 289.498752 
L 348.765405 278.55642 
L 349.090385 259.915183 
L 349.415364 281.655604 
L 349.740344 274.343532 
L 350.065324 285.142582 
L 350.390303 274.77023 
L 350.715283 272.668448 
L 351.040262 285.456551 
L 351.365242 279.58351 
L 351.690221 278.313493 
L 352.015201 272.05669 
L 352.34018 251.089544 
L 352.66516 285.505956 
L 352.990139 283.202849 
L 353.315119 268.684772 
L 353.640098 277.989667 
L 353.965078 279.567476 
L 354.290057 285.07252 
L 354.615037 284.197531 
L 354.940016 291.725569 
L 355.264996 287.1227 
L 355.589975 285.296084 
L 355.914955 273.528618 
L 356.239934 267.750596 
L 356.564914 286.248701 
L 356.889894 268.017625 
L 357.214873 262.663396 
L 357.539853 229.201267 
L 357.864832 272.687436 
L 358.189812 283.783286 
L 358.514791 277.982231 
L 359.16475 287.650384 
L 359.48973 281.455962 
L 359.814709 281.060616 
L 360.139689 274.665234 
L 360.464668 262.332168 
L 360.789648 272.3031 
L 361.114627 273.260347 
L 361.764586 277.352341 
L 362.414545 289.005883 
L 362.739525 275.793975 
L 363.064505 277.230956 
L 363.389484 288.99513 
L 363.714464 279.840655 
L 364.039443 285.738212 
L 364.364423 287.894575 
L 364.689402 288.581736 
L 365.014382 287.69508 
L 365.339361 281.036976 
L 365.98932 290.073333 
L 366.3143 288.035409 
L 367.289238 271.984979 
L 367.614218 287.000857 
L 367.939197 267.737748 
L 368.264177 260.976565 
L 368.589156 246.443649 
L 368.914136 273.241588 
L 369.564095 283.156845 
L 369.889075 264.637655 
L 370.214054 279.928837 
L 370.539034 282.700185 
L 370.864013 279.670153 
L 371.188993 285.216296 
L 371.513972 281.172541 
L 371.838952 284.381852 
L 372.163931 281.495166 
L 372.488911 263.543748 
L 372.81389 288.855533 
L 373.463849 261.173088 
L 373.788829 268.784405 
L 374.113808 271.039206 
L 374.763767 289.690199 
L 375.088747 285.444592 
L 375.413726 285.648002 
L 375.738706 275.54978 
L 376.063686 257.056714 
L 376.388665 279.571774 
L 376.713645 284.511487 
L 377.038624 282.194616 
L 377.363604 285.618642 
L 378.013563 276.619502 
L 378.338542 287.137331 
L 378.663522 285.706128 
L 378.988501 287.864662 
L 379.313481 285.161176 
L 379.63846 283.921585 
L 379.96344 289.915804 
L 380.288419 285.320997 
L 380.613399 269.890629 
L 380.938378 243.092431 
L 381.263358 274.970766 
L 381.588337 287.10786 
L 381.913317 290.287901 
L 382.238296 280.292088 
L 382.888256 289.520665 
L 384.188174 284.50725 
L 384.513153 288.521795 
L 384.838133 294.064969 
L 385.163112 285.504537 
L 385.488092 286.184571 
L 385.813071 278.249415 
L 386.138051 291.756499 
L 386.46303 284.43796 
L 386.78801 282.153016 
L 387.112989 288.780503 
L 387.437969 279.698525 
L 387.762948 291.359622 
L 388.087928 285.678565 
L 388.412907 286.573932 
L 389.062867 285.965804 
L 389.387846 284.27456 
L 389.712826 280.501925 
L 390.037805 288.808268 
L 390.362785 275.433622 
L 390.687764 279.537058 
L 391.012744 288.763552 
L 391.337723 281.91253 
L 391.662703 291.126064 
L 391.987682 284.189463 
L 392.312662 287.583124 
L 392.637641 292.173853 
L 392.962621 283.460237 
L 393.2876 283.493168 
L 393.61258 285.168701 
L 393.937559 288.140448 
L 394.262539 286.709629 
L 394.587518 282.2974 
L 394.912498 284.003387 
L 395.237477 290.677809 
L 395.562457 285.712232 
L 395.887437 290.645895 
L 396.212416 288.082104 
L 396.862375 280.607548 
L 397.512334 295.208534 
L 397.837314 280.578075 
L 398.162293 287.025782 
L 398.487273 270.965058 
L 398.487273 270.965058 
" clip-path="url(#pf56a203ee1)" style="fill: none; stroke: #ff7f0e; stroke-width: 1.5; stroke-linecap: square"/>
   </g>
   <g id="patch_3">
    <path d="M 57.6 307.584 
L 57.6 41.472 
" style="fill: none; stroke: #000000; stroke-width: 0.8; stroke-linejoin: miter; stroke-linecap: square"/>
   </g>
   <g id="patch_4">
    <path d="M 414.72 307.584 
L 414.72 41.472 
" style="fill: none; stroke: #000000; stroke-width: 0.8; stroke-linejoin: miter; stroke-linecap: square"/>
   </g>
   <g id="patch_5">
    <path d="M 57.6 307.584 
L 414.72 307.584 
" style="fill: none; stroke: #000000; stroke-width: 0.8; stroke-linejoin: miter; stroke-linecap: square"/>
   </g>
   <g id="patch_6">
    <path d="M 57.6 41.472 
L 414.72 41.472 
" style="fill: none; stroke: #000000; stroke-width: 0.8; stroke-linejoin: miter; stroke-linecap: square"/>
   </g>
   <g id="legend_1">
    <g id="patch_7">
     <path d="M 303.802813 79.3845 
L 407.72 79.3845 
Q 409.72 79.3845 409.72 77.3845 
L 409.72 48.472 
Q 409.72 46.472 407.72 46.472 
L 303.802813 46.472 
Q 301.802813 46.472 301.802813 48.472 
L 301.802813 77.3845 
Q 301.802813 79.3845 303.802813 79.3845 
z
" style="fill: #ffffff; opacity: 0.8; stroke: #cccccc; stroke-linejoin: miter"/>
    </g>
    <g id="line2d_17">
     <path d="M 305.802813 54.570438 
L 315.802813 54.570438 
L 325.802813 54.570438 
" style="fill: none; stroke: #1f77b4; stroke-width: 1.5; stroke-linecap: square"/>
    </g>
    <g id="text_15">
     <!-- Smed_neural -->
     <g transform="translate(333.802813 58.070438)scale(0.1 -0.1)">
      <defs>
       <path id="DejaVuSans-53" d="M 3425 4513 
L 3425 3897 
Q 3066 4069 2747 4153 
Q 2428 4238 2131 4238 
Q 1616 4238 1336 4038 
Q 1056 3838 1056 3469 
Q 1056 3159 1242 3001 
Q 1428 2844 1947 2747 
L 2328 2669 
Q 3034 2534 3370 2195 
Q 3706 1856 3706 1288 
Q 3706 609 3251 259 
Q 2797 -91 1919 -91 
Q 1588 -91 1214 -16 
Q 841 59 441 206 
L 441 856 
Q 825 641 1194 531 
Q 1563 422 1919 422 
Q 2459 422 2753 634 
Q 3047 847 3047 1241 
Q 3047 1584 2836 1778 
Q 2625 1972 2144 2069 
L 1759 2144 
Q 1053 2284 737 2584 
Q 422 2884 422 3419 
Q 422 4038 858 4394 
Q 1294 4750 2059 4750 
Q 2388 4750 2728 4690 
Q 3069 4631 3425 4513 
z
" transform="scale(0.015625)"/>
       <path id="DejaVuSans-6d" d="M 3328 2828 
Q 3544 3216 3844 3400 
Q 4144 3584 4550 3584 
Q 5097 3584 5394 3201 
Q 5691 2819 5691 2113 
L 5691 0 
L 5113 0 
L 5113 2094 
Q 5113 2597 4934 2840 
Q 4756 3084 4391 3084 
Q 3944 3084 3684 2787 
Q 3425 2491 3425 1978 
L 3425 0 
L 2847 0 
L 2847 2094 
Q 2847 2600 2669 2842 
Q 2491 3084 2119 3084 
Q 1678 3084 1418 2786 
Q 1159 2488 1159 1978 
L 1159 0 
L 581 0 
L 581 3500 
L 1159 3500 
L 1159 2956 
Q 1356 3278 1631 3431 
Q 1906 3584 2284 3584 
Q 2666 3584 2933 3390 
Q 3200 3197 3328 2828 
z
" transform="scale(0.015625)"/>
       <path id="DejaVuSans-65" d="M 3597 1894 
L 3597 1613 
L 953 1613 
Q 991 1019 1311 708 
Q 1631 397 2203 397 
Q 2534 397 2845 478 
Q 3156 559 3463 722 
L 3463 178 
Q 3153 47 2828 -22 
Q 2503 -91 2169 -91 
Q 1331 -91 842 396 
Q 353 884 353 1716 
Q 353 2575 817 3079 
Q 1281 3584 2069 3584 
Q 2775 3584 3186 3129 
Q 3597 2675 3597 1894 
z
M 3022 2063 
Q 3016 2534 2758 2815 
Q 2500 3097 2075 3097 
Q 1594 3097 1305 2825 
Q 1016 2553 972 2059 
L 3022 2063 
z
" transform="scale(0.015625)"/>
       <path id="DejaVuSans-64" d="M 2906 2969 
L 2906 4863 
L 3481 4863 
L 3481 0 
L 2906 0 
L 2906 525 
Q 2725 213 2448 61 
Q 2172 -91 1784 -91 
Q 1150 -91 751 415 
Q 353 922 353 1747 
Q 353 2572 751 3078 
Q 1150 3584 1784 3584 
Q 2172 3584 2448 3432 
Q 2725 3281 2906 2969 
z
M 947 1747 
Q 947 1113 1208 752 
Q 1469 391 1925 391 
Q 2381 391 2643 752 
Q 2906 1113 2906 1747 
Q 2906 2381 2643 2742 
Q 2381 3103 1925 3103 
Q 1469 3103 1208 2742 
Q 947 2381 947 1747 
z
" transform="scale(0.015625)"/>
       <path id="DejaVuSans-5f" d="M 3263 -1063 
L 3263 -1509 
L -63 -1509 
L -63 -1063 
L 3263 -1063 
z
" transform="scale(0.015625)"/>
       <path id="DejaVuSans-6e" d="M 3513 2113 
L 3513 0 
L 2938 0 
L 2938 2094 
Q 2938 2591 2744 2837 
Q 2550 3084 2163 3084 
Q 1697 3084 1428 2787 
Q 1159 2491 1159 1978 
L 1159 0 
L 581 0 
L 581 3500 
L 1159 3500 
L 1159 2956 
Q 1366 3272 1645 3428 
Q 1925 3584 2291 3584 
Q 2894 3584 3203 3211 
Q 3513 2838 3513 2113 
z
" transform="scale(0.015625)"/>
       <path id="DejaVuSans-75" d="M 544 1381 
L 544 3500 
L 1119 3500 
L 1119 1403 
Q 1119 906 1312 657 
Q 1506 409 1894 409 
Q 2359 409 2629 706 
Q 2900 1003 2900 1516 
L 2900 3500 
L 3475 3500 
L 3475 0 
L 2900 0 
L 2900 538 
Q 2691 219 2414 64 
Q 2138 -91 1772 -91 
Q 1169 -91 856 284 
Q 544 659 544 1381 
z
M 1991 3584 
L 1991 3584 
z
" transform="scale(0.015625)"/>
       <path id="DejaVuSans-72" d="M 2631 2963 
Q 2534 3019 2420 3045 
Q 2306 3072 2169 3072 
Q 1681 3072 1420 2755 
Q 1159 2438 1159 1844 
L 1159 0 
L 581 0 
L 581 3500 
L 1159 3500 
L 1159 2956 
Q 1341 3275 1631 3429 
Q 1922 3584 2338 3584 
Q 2397 3584 2469 3576 
Q 2541 3569 2628 3553 
L 2631 2963 
z
" transform="scale(0.015625)"/>
       <path id="DejaVuSans-61" d="M 2194 1759 
Q 1497 1759 1228 1600 
Q 959 1441 959 1056 
Q 959 750 1161 570 
Q 1363 391 1709 391 
Q 2188 391 2477 730 
Q 2766 1069 2766 1631 
L 2766 1759 
L 2194 1759 
z
M 3341 1997 
L 3341 0 
L 2766 0 
L 2766 531 
Q 2569 213 2275 61 
Q 1981 -91 1556 -91 
Q 1019 -91 701 211 
Q 384 513 384 1019 
Q 384 1609 779 1909 
Q 1175 2209 1959 2209 
L 2766 2209 
L 2766 2266 
Q 2766 2663 2505 2880 
Q 2244 3097 1772 3097 
Q 1472 3097 1187 3025 
Q 903 2953 641 2809 
L 641 3341 
Q 956 3463 1253 3523 
Q 1550 3584 1831 3584 
Q 2591 3584 2966 3190 
Q 3341 2797 3341 1997 
z
" transform="scale(0.015625)"/>
       <path id="DejaVuSans-6c" d="M 603 4863 
L 1178 4863 
L 1178 0 
L 603 0 
L 603 4863 
z
" transform="scale(0.015625)"/>
      </defs>
      <use xlink:href="#DejaVuSans-53"/>
      <use xlink:href="#DejaVuSans-6d" x="63.476562"/>
      <use xlink:href="#DejaVuSans-65" x="160.888672"/>
      <use xlink:href="#DejaVuSans-64" x="222.412109"/>
      <use xlink:href="#DejaVuSans-5f" x="285.888672"/>
      <use xlink:href="#DejaVuSans-6e" x="335.888672"/>
      <use xlink:href="#DejaVuSans-65" x="399.267578"/>
      <use xlink:href="#DejaVuSans-75" x="460.791016"/>
      <use xlink:href="#DejaVuSans-72" x="524.169922"/>
      <use xlink:href="#DejaVuSans-61" x="565.283203"/>
      <use xlink:href="#DejaVuSans-6c" x="626.5625"/>
     </g>
    </g>
    <g id="line2d_18">
     <path d="M 305.802813 69.526688 
L 315.802813 69.526688 
L 325.802813 69.526688 
" style="fill: none; stroke: #ff7f0e; stroke-width: 1.5; stroke-linecap: square"/>
    </g>
    <g id="text_16">
     <!-- schisto_neural -->
     <g transform="translate(333.802813 73.026688)scale(0.1 -0.1)">
      <defs>
       <path id="DejaVuSans-73" d="M 2834 3397 
L 2834 2853 
Q 2591 2978 2328 3040 
Q 2066 3103 1784 3103 
Q 1356 3103 1142 2972 
Q 928 2841 928 2578 
Q 928 2378 1081 2264 
Q 1234 2150 1697 2047 
L 1894 2003 
Q 2506 1872 2764 1633 
Q 3022 1394 3022 966 
Q 3022 478 2636 193 
Q 2250 -91 1575 -91 
Q 1294 -91 989 -36 
Q 684 19 347 128 
L 347 722 
Q 666 556 975 473 
Q 1284 391 1588 391 
Q 1994 391 2212 530 
Q 2431 669 2431 922 
Q 2431 1156 2273 1281 
Q 2116 1406 1581 1522 
L 1381 1569 
Q 847 1681 609 1914 
Q 372 2147 372 2553 
Q 372 3047 722 3315 
Q 1072 3584 1716 3584 
Q 2034 3584 2315 3537 
Q 2597 3491 2834 3397 
z
" transform="scale(0.015625)"/>
       <path id="DejaVuSans-63" d="M 3122 3366 
L 3122 2828 
Q 2878 2963 2633 3030 
Q 2388 3097 2138 3097 
Q 1578 3097 1268 2742 
Q 959 2388 959 1747 
Q 959 1106 1268 751 
Q 1578 397 2138 397 
Q 2388 397 2633 464 
Q 2878 531 3122 666 
L 3122 134 
Q 2881 22 2623 -34 
Q 2366 -91 2075 -91 
Q 1284 -91 818 406 
Q 353 903 353 1747 
Q 353 2603 823 3093 
Q 1294 3584 2113 3584 
Q 2378 3584 2631 3529 
Q 2884 3475 3122 3366 
z
" transform="scale(0.015625)"/>
       <path id="DejaVuSans-68" d="M 3513 2113 
L 3513 0 
L 2938 0 
L 2938 2094 
Q 2938 2591 2744 2837 
Q 2550 3084 2163 3084 
Q 1697 3084 1428 2787 
Q 1159 2491 1159 1978 
L 1159 0 
L 581 0 
L 581 4863 
L 1159 4863 
L 1159 2956 
Q 1366 3272 1645 3428 
Q 1925 3584 2291 3584 
Q 2894 3584 3203 3211 
Q 3513 2838 3513 2113 
z
" transform="scale(0.015625)"/>
       <path id="DejaVuSans-69" d="M 603 3500 
L 1178 3500 
L 1178 0 
L 603 0 
L 603 3500 
z
M 603 4863 
L 1178 4863 
L 1178 4134 
L 603 4134 
L 603 4863 
z
" transform="scale(0.015625)"/>
       <path id="DejaVuSans-74" d="M 1172 4494 
L 1172 3500 
L 2356 3500 
L 2356 3053 
L 1172 3053 
L 1172 1153 
Q 1172 725 1289 603 
Q 1406 481 1766 481 
L 2356 481 
L 2356 0 
L 1766 0 
Q 1100 0 847 248 
Q 594 497 594 1153 
L 594 3053 
L 172 3053 
L 172 3500 
L 594 3500 
L 594 4494 
L 1172 4494 
z
" transform="scale(0.015625)"/>
       <path id="DejaVuSans-6f" d="M 1959 3097 
Q 1497 3097 1228 2736 
Q 959 2375 959 1747 
Q 959 1119 1226 758 
Q 1494 397 1959 397 
Q 2419 397 2687 759 
Q 2956 1122 2956 1747 
Q 2956 2369 2687 2733 
Q 2419 3097 1959 3097 
z
M 1959 3584 
Q 2709 3584 3137 3096 
Q 3566 2609 3566 1747 
Q 3566 888 3137 398 
Q 2709 -91 1959 -91 
Q 1206 -91 779 398 
Q 353 888 353 1747 
Q 353 2609 779 3096 
Q 1206 3584 1959 3584 
z
" transform="scale(0.015625)"/>
      </defs>
      <use xlink:href="#DejaVuSans-73"/>
      <use xlink:href="#DejaVuSans-63" x="52.099609"/>
      <use xlink:href="#DejaVuSans-68" x="107.080078"/>
      <use xlink:href="#DejaVuSans-69" x="170.458984"/>
      <use xlink:href="#DejaVuSans-73" x="198.242188"/>
      <use xlink:href="#DejaVuSans-74" x="250.341797"/>
      <use xlink:href="#DejaVuSans-6f" x="289.550781"/>
      <use xlink:href="#DejaVuSans-5f" x="350.732422"/>
      <use xlink:href="#DejaVuSans-6e" x="400.732422"/>
      <use xlink:href="#DejaVuSans-65" x="464.111328"/>
      <use xlink:href="#DejaVuSans-75" x="525.634766"/>
      <use xlink:href="#DejaVuSans-72" x="589.013672"/>
      <use xlink:href="#DejaVuSans-61" x="630.126953"/>
      <use xlink:href="#DejaVuSans-6c" x="691.40625"/>
     </g>
    </g>
   </g>
  </g>
 </g>
 <defs>
  <clipPath id="pf56a203ee1">
   <rect x="57.6" y="41.472" width="357.12" height="266.112"/>
  </clipPath>
 </defs>
</svg>
