<svg width="1020" height="779" version="1.1" xmlns="http://www.w3.org/2000/svg" id="Tree_12" xmlns:xlink="http://www.w3.org/1999/xlink"><g transform="translate(141.54766012752418,119.76053842854745) scale(0.5532762516043908)"><path class="link" id="Tree_12_node_37_Tree_12_node_35" d="M1488.9847291913136,444.4744744744744L1488.9847291913136,432.77777777777766L1488.9853057561295,432.77777777777766" style="stroke-width: 3; stroke: grey; fill: none;"/><path class="link" id="Tree_12_node_37_Tree_12_node_36" d="M1488.9847291913136,444.4744744744744L1488.9847291913136,456.17117117117107L1488.9853057561295,456.17117117117107" style="stroke-width: 3; stroke: grey; fill: none;"/><path class="link" id="Tree_12_node_39_Tree_12_node_37" d="M1488.9841526264975,462.0195195195194L1488.9841526264975,444.4744744744744L1488.9847291913136,444.4744744744744" style="stroke-width: 3; stroke: grey; fill: none;"/><path class="link" id="Tree_12_node_39_Tree_12_node_38" d="M1488.9841526264975,462.0195195195194L1488.9841526264975,479.5645645645644L1488.9847291913136,479.5645645645644" style="stroke-width: 3; stroke: grey; fill: none;"/><path class="link" id="Tree_12_node_41_Tree_12_node_39" d="M1336.073397788928,482.4887387387386L1336.073397788928,462.0195195195194L1488.9841526264975,462.0195195195194" style="stroke-width: 3; stroke: grey; fill: none;"/><path class="link" id="Tree_12_node_41_Tree_12_node_40" d="M1336.073397788928,482.4887387387386L1336.073397788928,502.95795795795783L1498.922400358993,502.95795795795783" style="stroke-width: 3; stroke: grey; fill: none;"/><path class="link" id="Tree_12_node_43_Tree_12_node_41" d="M1277.997177008118,504.42004504504496L1277.997177008118,482.4887387387386L1336.073397788928,482.4887387387386" style="stroke-width: 3; stroke: grey; fill: none;"/><path class="link" id="Tree_12_node_43_Tree_12_node_42" d="M1277.997177008118,504.42004504504496L1277.997177008118,526.3513513513512L1473.9375406247023,526.3513513513512" style="stroke-width: 3; stroke: grey; fill: none;"/><path class="link" id="Tree_12_node_62_Tree_12_node_60" d="M952.3839268959327,748.5885885885884L952.3839268959327,736.8918918918918L952.3845034607486,736.8918918918918" style="stroke-width: 3; stroke: grey; fill: none;"/><path class="link" id="Tree_12_node_62_Tree_12_node_61" d="M952.3839268959327,748.5885885885884L952.3839268959327,760.2852852852851L952.3845034607486,760.2852852852851" style="stroke-width: 3; stroke: grey; fill: none;"/><path class="link" id="Tree_12_node_63_Tree_12_node_59" d="M952.3833503311168,731.0435435435434L952.3833503311168,713.4984984984984L957.8007533417642,713.4984984984984" style="stroke-width: 3; stroke: grey; fill: none;"/><path class="link" id="Tree_12_node_63_Tree_12_node_62" d="M952.3833503311168,731.0435435435434L952.3833503311168,748.5885885885884L952.3839268959327,748.5885885885884" style="stroke-width: 3; stroke: grey; fill: none;"/><path class="link" id="Tree_12_node_65_Tree_12_node_63" d="M878.79119378833,757.361111111111L878.79119378833,731.0435435435434L952.3833503311168,731.0435435435434" style="stroke-width: 3; stroke: grey; fill: none;"/><path class="link" id="Tree_12_node_65_Tree_12_node_64" d="M878.79119378833,757.361111111111L878.79119378833,783.6786786786786L1087.5301431893279,783.6786786786786" style="stroke-width: 3; stroke: grey; fill: none;"/><path class="link" id="Tree_12_node_67_Tree_12_node_65" d="M810.5628197283074,782.2165915915914L810.5628197283074,757.361111111111L878.79119378833,757.361111111111" style="stroke-width: 3; stroke: grey; fill: none;"/><path class="link" id="Tree_12_node_67_Tree_12_node_66" d="M810.5628197283074,782.2165915915914L810.5628197283074,807.0720720720719L994.993796488938,807.0720720720719" style="stroke-width: 3; stroke: grey; fill: none;"/><path class="link" id="Tree_12_node_54_Tree_12_node_52" d="M1310.9340186839638,655.0150150150148L1310.9340186839638,643.3183183183181L1312.7398196875129,643.3183183183181" style="stroke-width: 3; stroke: grey; fill: none;"/><path class="link" id="Tree_12_node_54_Tree_12_node_53" d="M1310.9340186839638,655.0150150150148L1310.9340186839638,666.7117117117115L1314.5588816818288,666.7117117117115" style="stroke-width: 3; stroke: grey; fill: none;"/><path class="link" id="Tree_12_node_56_Tree_12_node_54" d="M1307.2964712601479,672.5600600600599L1307.2964712601479,655.0150150150148L1310.9340186839638,655.0150150150148" style="stroke-width: 3; stroke: grey; fill: none;"/><path class="link" id="Tree_12_node_56_Tree_12_node_55" d="M1307.2964712601479,672.5600600600599L1307.2964712601479,690.1051051051049L1307.297047824964,690.1051051051049" style="stroke-width: 3; stroke: grey; fill: none;"/><path class="link" id="Tree_12_node_57_Tree_12_node_51" d="M943.6437808509772,646.2424924924924L943.6437808509772,619.9249249249248L1048.2118821305703,619.9249249249248" style="stroke-width: 3; stroke: grey; fill: none;"/><path class="link" id="Tree_12_node_57_Tree_12_node_56" d="M943.6437808509772,646.2424924924924L943.6437808509772,672.5600600600599L1307.2964712601479,672.5600600600599" style="stroke-width: 3; stroke: grey; fill: none;"/><path class="link" id="Tree_12_node_58_Tree_12_node_50" d="M935.0650729544868,621.3870120120118L935.0650729544868,596.5315315315314L975.5451121173801,596.5315315315314" style="stroke-width: 3; stroke: grey; fill: none;"/><path class="link" id="Tree_12_node_58_Tree_12_node_57" d="M935.0650729544868,621.3870120120118L935.0650729544868,646.2424924924924L943.6437808509772,646.2424924924924" style="stroke-width: 3; stroke: grey; fill: none;"/><path class="link" id="Tree_12_node_68_Tree_12_node_58" d="M637.1505731652593,701.8018018018016L637.1505731652593,621.3870120120118L935.0650729544868,621.3870120120118" style="stroke-width: 3; stroke: grey; fill: none;"/><path class="link" id="Tree_12_node_68_Tree_12_node_67" d="M637.1505731652593,701.8018018018016L637.1505731652593,782.2165915915914L810.5628197283074,782.2165915915914" style="stroke-width: 3; stroke: grey; fill: none;"/><path class="link" id="Tree_12_node_49_Tree_12_node_47" d="M656.9722949727355,561.4414414414413L656.9722949727355,549.7447447447446L970.3352724404738,549.7447447447446" style="stroke-width: 3; stroke: grey; fill: none;"/><path class="link" id="Tree_12_node_49_Tree_12_node_48" d="M656.9722949727355,561.4414414414413L656.9722949727355,573.138138138138L1068.805047661785,573.138138138138" style="stroke-width: 3; stroke: grey; fill: none;"/><path class="link" id="Tree_12_node_69_Tree_12_node_49" d="M488.3017174560438,631.6216216216214L488.3017174560438,561.4414414414413L656.9722949727355,561.4414414414413" style="stroke-width: 3; stroke: grey; fill: none;"/><path class="link" id="Tree_12_node_69_Tree_12_node_68" d="M488.3017174560438,631.6216216216214L488.3017174560438,701.8018018018016L637.1505731652593,701.8018018018016" style="stroke-width: 3; stroke: grey; fill: none;"/><path class="link" id="Tree_12_node_6_Tree_12_node_4" d="M277.596105467847,93.57357357357355L277.596105467847,81.87687687687686L277.59668203266295,81.87687687687686" style="stroke-width: 3; stroke: grey; fill: none;"/><path class="link" id="Tree_12_node_6_Tree_12_node_5" d="M277.596105467847,93.57357357357355L277.596105467847,105.27027027027025L277.59668203266295,105.27027027027025" style="stroke-width: 3; stroke: grey; fill: none;"/><path class="link" id="Tree_12_node_3_Tree_12_node_1" d="M277.596105467847,46.78678678678678L277.596105467847,35.09009009009009L277.59668203266295,35.09009009009009" style="stroke-width: 3; stroke: grey; fill: none;"/><path class="link" id="Tree_12_node_3_Tree_12_node_2" d="M277.596105467847,46.78678678678678L277.596105467847,58.48348348348347L277.59668203266295,58.48348348348347" style="stroke-width: 3; stroke: grey; fill: none;"/><path class="link" id="Tree_12_node_7_Tree_12_node_3" d="M277.59552890303104,70.18018018018017L277.59552890303104,46.78678678678678L277.596105467847,46.78678678678678" style="stroke-width: 3; stroke: grey; fill: none;"/><path class="link" id="Tree_12_node_7_Tree_12_node_6" d="M277.59552890303104,70.18018018018017L277.59552890303104,93.57357357357355L277.596105467847,93.57357357357355" style="stroke-width: 3; stroke: grey; fill: none;"/><path class="link" id="Tree_12_node_8_Tree_12_node_0" d="M118.96236826717796,40.93843843843844L118.96236826717796,11.696696696696694L495.7007737391044,11.696696696696694" style="stroke-width: 3; stroke: grey; fill: none;"/><path class="link" id="Tree_12_node_8_Tree_12_node_7" d="M118.96236826717796,40.93843843843844L118.96236826717796,70.18018018018017L277.59552890303104,70.18018018018017" style="stroke-width: 3; stroke: grey; fill: none;"/><path class="link" id="Tree_12_node_14_Tree_12_node_12" d="M1194.8899713077415,210.54054054054046L1194.8899713077415,198.84384384384379L1420.2080419913245,198.84384384384379" style="stroke-width: 3; stroke: grey; fill: none;"/><path class="link" id="Tree_12_node_14_Tree_12_node_13" d="M1194.8899713077415,210.54054054054046L1194.8899713077415,222.23723723723717L1381.196513414651,222.23723723723717" style="stroke-width: 3; stroke: grey; fill: none;"/><path class="link" id="Tree_12_node_15_Tree_12_node_11" d="M711.785735460096,192.99549549549545L711.785735460096,175.4504504504504L927.0836862073187,175.4504504504504" style="stroke-width: 3; stroke: grey; fill: none;"/><path class="link" id="Tree_12_node_15_Tree_12_node_14" d="M711.785735460096,192.99549549549545L711.785735460096,210.54054054054046L1194.8899713077415,210.54054054054046" style="stroke-width: 3; stroke: grey; fill: none;"/><path class="link" id="Tree_12_node_16_Tree_12_node_10" d="M427.4591386883151,172.52627627627623L427.4591386883151,152.05705705705702L761.5254055671141,152.05705705705702" style="stroke-width: 3; stroke: grey; fill: none;"/><path class="link" id="Tree_12_node_16_Tree_12_node_15" d="M427.4591386883151,172.52627627627623L427.4591386883151,192.99549549549545L711.785735460096,192.99549549549545" style="stroke-width: 3; stroke: grey; fill: none;"/><path class="link" id="Tree_12_node_17_Tree_12_node_9" d="M240.65848053413833,150.59496996996995L240.65848053413833,128.66366366366364L546.3197051904431,128.66366366366364" style="stroke-width: 3; stroke: grey; fill: none;"/><path class="link" id="Tree_12_node_17_Tree_12_node_16" d="M240.65848053413833,150.59496996996995L240.65848053413833,172.52627627627623L427.4591386883151,172.52627627627623" style="stroke-width: 3; stroke: grey; fill: none;"/><path class="link" id="Tree_12_node_71_Tree_12_node_17" d="M118.96236826717796,314.02889217342334L118.96236826717796,150.59496996996995L240.65848053413833,150.59496996996995" style="stroke-width: 3; stroke: grey; fill: none;"/><path class="link" id="Tree_12_node_72_Tree_12_node_8" d="M-90,177.4836653059309L-90,40.93843843843844L118.96236826717796,40.93843843843844" style="stroke-width: 3; stroke: grey; fill: none;"/><path class="link" id="Tree_12_node_72_Tree_12_node_71" d="M-90,177.4836653059309L-90,314.02889217342334L118.96236826717796,314.02889217342334" style="stroke-width: 3; stroke: grey; fill: none;"/><path class="link" id="Tree_12_node_70_Tree_12_node_69" d="M246.86174138892284,477.46281437687674L246.86174138892284,631.6216216216214L488.3017174560438,631.6216216216214" style="stroke-width: 3; stroke: grey; fill: none;"/><path class="link" id="Tree_12_node_20_Tree_12_node_18" d="M810.1200179496593,257.3273273273273L810.1200179496593,245.63063063063058L811.9004501013068,245.63063063063058" style="stroke-width: 3; stroke: grey; fill: none;"/><path class="link" id="Tree_12_node_20_Tree_12_node_19" d="M810.1200179496593,257.3273273273273L810.1200179496593,269.02402402402396L810.1205945144752,269.02402402402396" style="stroke-width: 3; stroke: grey; fill: none;"/><path class="link" id="Tree_12_node_46_Tree_12_node_20" d="M323.2456247705299,323.304007132132L323.2456247705299,257.3273273273273L810.1200179496593,257.3273273273273" style="stroke-width: 3; stroke: grey; fill: none;"/><path class="link" id="Tree_12_node_71_Tree_12_node_70" d="M118.96236826717796,314.02889217342334L118.96236826717796,477.46281437687674L246.86174138892284,477.46281437687674" style="stroke-width: 3; stroke: grey; fill: none;"/><path class="link" id="Tree_12_node_29_Tree_12_node_27" d="M936.5260881980989,350.90090090090075L936.5260881980989,339.2042042042041L983.0312296876486,339.2042042042041" style="stroke-width: 3; stroke: grey; fill: none;"/><path class="link" id="Tree_12_node_29_Tree_12_node_28" d="M936.5260881980989,350.90090090090075L936.5260881980989,362.5975975975975L1071.1101537959448,362.5975975975975" style="stroke-width: 3; stroke: grey; fill: none;"/><path class="link" id="Tree_12_node_31_Tree_12_node_29" d="M517.1812725220631,327.5075075075074L517.1812725220631,350.90090090090075L936.5260881980989,350.90090090090075" style="stroke-width: 3; stroke: grey; fill: none;"/><path class="link" id="Tree_12_node_23_Tree_12_node_21" d="M1183.5593195447314,304.11411411411405L1183.5593195447314,292.4174174174173L1183.5598961095473,292.4174174174173" style="stroke-width: 3; stroke: grey; fill: none;"/><path class="link" id="Tree_12_node_23_Tree_12_node_22" d="M1183.5593195447314,304.11411411411405L1183.5593195447314,315.8108108108107L1202.4279797114455,315.8108108108107" style="stroke-width: 3; stroke: grey; fill: none;"/><path class="link" id="Tree_12_node_31_Tree_12_node_23" d="M517.1812725220631,327.5075075075074L517.1812725220631,304.11411411411405L1183.5593195447314,304.11411411411405" style="stroke-width: 3; stroke: grey; fill: none;"/><path class="link" id="Tree_12_node_45_Tree_12_node_31" d="M396.878717415249,389.28068693693683L396.878717415249,327.5075075075074L517.1812725220631,327.5075075075074" style="stroke-width: 3; stroke: grey; fill: none;"/><path class="link" id="Tree_12_node_70_Tree_12_node_46" d="M246.86174138892284,477.46281437687674L246.86174138892284,323.304007132132L323.2456247705299,323.304007132132" style="stroke-width: 3; stroke: grey; fill: none;"/><path class="link" id="Tree_12_node_46_Tree_12_node_45" d="M323.2456247705299,323.304007132132L323.2456247705299,389.28068693693683L396.878717415249,389.28068693693683" style="stroke-width: 3; stroke: grey; fill: none;"/><path class="link" id="Tree_12_node_44_Tree_12_node_43" d="M484.9184351160608,451.05386636636626L484.9184351160608,504.42004504504496L1277.997177008118,504.42004504504496" style="stroke-width: 3; stroke: grey; fill: none;"/><path class="link" id="Tree_12_node_34_Tree_12_node_32" d="M937.811827737663,397.68768768768757L937.811827737663,385.9909909909909L1049.6740505038142,385.9909909909909" style="stroke-width: 3; stroke: grey; fill: none;"/><path class="link" id="Tree_12_node_34_Tree_12_node_33" d="M937.811827737663,397.68768768768757L937.811827737663,409.3843843843843L1225.7471436924623,409.3843843843843" style="stroke-width: 3; stroke: grey; fill: none;"/><path class="link" id="Tree_12_node_44_Tree_12_node_34" d="M484.9184351160608,451.05386636636626L484.9184351160608,397.68768768768757L937.811827737663,397.68768768768757" style="stroke-width: 3; stroke: grey; fill: none;"/><path class="link" id="Tree_12_node_45_Tree_12_node_44" d="M396.878717415249,389.28068693693683L396.878717415249,451.05386636636626L484.9184351160608,451.05386636636626" style="stroke-width: 3; stroke: grey; fill: none;"/><g class="node" transform="translate(1473.9375,526.3513793945312)" id="Tree_12_node_42"><circle class="node" r="4"/><rect class="node" y="-4px" x="-4px" width="0px" height="0px"/><text class="node" x="13" dy=".3em" dx="-.3em" text-anchor="start" font-size="15px" style="fill-opacity: 1;">Mhtx024792.g.t1</text><text class="triangleText" dy=".35em" font-size="15px"/><path class="triangle" d="M0,0L0,0L0,0L0,0"/></g><g class="node" transform="translate(1498.92236328125,502.95794677734375)" id="Tree_12_node_40"><circle class="node" r="4"/><rect class="node" y="-4px" x="-4px" width="0px" height="0px"/><text class="node" x="13" dy=".3em" dx="-.3em" text-anchor="start" font-size="15px" style="fill-opacity: 1;">Mcli014751.g.t1</text><text class="triangleText" dy=".35em" font-size="15px"/><path class="triangle" d="M0,0L0,0L0,0L0,0"/></g><g class="node" transform="translate(1488.9847412109375,479.5645751953125)" id="Tree_12_node_38"><circle class="node" r="4"/><rect class="node" y="-4px" x="-4px" width="0px" height="0px"/><text class="node" x="13" dy=".3em" dx="-.3em" text-anchor="start" font-size="15px" style="fill-opacity: 1;">Mlig455_024541</text><text class="triangleText" dy=".35em" font-size="15px"/><path class="triangle" d="M0,0L0,0L0,0L0,0"/></g><g class="node" transform="translate(1488.9853515625,456.1711730957031)" id="Tree_12_node_36"><circle class="node" r="4"/><rect class="node" y="-4px" x="-4px" width="0px" height="0px"/><text class="node" x="13" dy=".3em" dx="-.3em" text-anchor="start" font-size="15px" style="fill-opacity: 1;">Mlig455_024577</text><text class="triangleText" dy=".35em" font-size="15px"/><path class="triangle" d="M0,0L0,0L0,0L0,0"/></g><g class="node" transform="translate(1488.9853515625,432.77777099609375)" id="Tree_12_node_35"><circle class="node" r="4"/><rect class="node" y="-4px" x="-4px" width="0px" height="0px"/><text class="node" x="13" dy=".3em" dx="-.3em" text-anchor="start" font-size="15px" style="fill-opacity: 1;">Mlig455_024423</text><text class="triangleText" dy=".35em" font-size="15px"/><path class="triangle" d="M0,0L0,0L0,0L0,0"/></g><g class="node" transform="translate(1488.9847412109375,444.4744873046875)" id="Tree_12_node_37"><circle class="node" r="4"/><rect class="node" y="-4px" x="-4px" width="0px" height="0px"/><text class="node" x="-13" dy="-.3em" dx=".3em" text-anchor="end" font-size="15px" style="fill-opacity: 1;"/><text class="triangleText" dy=".35em" font-size="15px" x="0"/><path class="triangle" d="M0,0L0,0L0,0L0,0"/></g><g class="node" transform="translate(1488.984130859375,462.01953125)" id="Tree_12_node_39"><circle class="node" r="4"/><rect class="node" y="-4px" x="-4px" width="0px" height="0px"/><text class="node" x="-13" dy="-.3em" dx=".3em" text-anchor="end" font-size="15px" style="fill-opacity: 1;"/><text class="triangleText" dy=".35em" font-size="15px" x="0"/><path class="triangle" d="M0,0L0,0L0,0L0,0"/></g><g class="node" transform="translate(1336.0733642578125,482.4887390136719)" id="Tree_12_node_41"><circle class="node" r="4"/><rect class="node" y="-4px" x="-4px" width="0px" height="0px"/><text class="node" x="-13" dy="-.3em" dx=".3em" text-anchor="end" font-size="15px" style="fill-opacity: 1;"/><text class="triangleText" dy=".35em" font-size="15px" x="0"/><path class="triangle" d="M0,0L0,0L0,0L0,0"/></g><g class="node" transform="translate(1277.9971923828125,504.4200439453125)" id="Tree_12_node_43"><circle class="node" r="4"/><rect class="node" y="-4px" x="-4px" width="0px" height="0px"/><text class="node" x="-13" dy="-.3em" dx=".3em" text-anchor="end" font-size="15px" style="fill-opacity: 1;"/><text class="triangleText" dy=".35em" font-size="15px" x="0"/><path class="triangle" d="M0,0L0,0L0,0L0,0"/></g><g class="node" transform="translate(994.9937744140625,807.0720825195312)" id="Tree_12_node_66"><circle class="node" r="4"/><rect class="node" y="-4px" x="-4px" width="0px" height="0px"/><text class="node" x="13" dy=".3em" dx="-.3em" text-anchor="start" font-size="15px" style="fill-opacity: 1;">Mhtx024980.g.t1</text><text class="triangleText" dy=".35em" font-size="15px"/><path class="triangle" d="M0,0L0,0L0,0L0,0"/></g><g class="node" transform="translate(1087.5301513671875,783.6786499023438)" id="Tree_12_node_64"><circle class="node" r="4"/><rect class="node" y="-4px" x="-4px" width="0px" height="0px"/><text class="node" x="13" dy=".3em" dx="-.3em" text-anchor="start" font-size="15px" style="fill-opacity: 1;">Mcli014766.g.t1</text><text class="triangleText" dy=".35em" font-size="15px"/><path class="triangle" d="M0,0L0,0L0,0L0,0"/></g><g class="node" transform="translate(952.384521484375,760.2852783203125)" id="Tree_12_node_61"><circle class="node" r="4"/><rect class="node" y="-4px" x="-4px" width="0px" height="0px"/><text class="node" x="13" dy=".3em" dx="-.3em" text-anchor="start" font-size="15px" style="fill-opacity: 1;">Mlig455_024540</text><text class="triangleText" dy=".35em" font-size="15px"/><path class="triangle" d="M0,0L0,0L0,0L0,0"/></g><g class="node" transform="translate(952.384521484375,736.8919067382812)" id="Tree_12_node_60"><circle class="node" r="4"/><rect class="node" y="-4px" x="-4px" width="0px" height="0px"/><text class="node" x="13" dy=".3em" dx="-.3em" text-anchor="start" font-size="15px" style="fill-opacity: 1;">Mlig455_024422</text><text class="triangleText" dy=".35em" font-size="15px"/><path class="triangle" d="M0,0L0,0L0,0L0,0"/></g><g class="node" transform="translate(952.3839111328125,748.5885620117188)" id="Tree_12_node_62"><circle class="node" r="4"/><rect class="node" y="-4px" x="-4px" width="0px" height="0px"/><text class="node" x="-13" dy="-.3em" dx=".3em" text-anchor="end" font-size="15px" style="fill-opacity: 1;"/><text class="triangleText" dy=".35em" font-size="15px" x="0"/><path class="triangle" d="M0,0L0,0L0,0L0,0"/></g><g class="node" transform="translate(957.80078125,713.4984741210938)" id="Tree_12_node_59"><circle class="node" r="4"/><rect class="node" y="-4px" x="-4px" width="0px" height="0px"/><text class="node" x="13" dy=".3em" dx="-.3em" text-anchor="start" font-size="15px" style="fill-opacity: 1;">Mlig455_024576</text><text class="triangleText" dy=".35em" font-size="15px"/><path class="triangle" d="M0,0L0,0L0,0L0,0"/></g><g class="node" transform="translate(952.3833618164062,731.0435180664062)" id="Tree_12_node_63"><circle class="node" r="4"/><rect class="node" y="-4px" x="-4px" width="0px" height="0px"/><text class="node" x="-13" dy="-.3em" dx=".3em" text-anchor="end" font-size="15px" style="fill-opacity: 1;"/><text class="triangleText" dy=".35em" font-size="15px" x="0"/><path class="triangle" d="M0,0L0,0L0,0L0,0"/></g><g class="node" transform="translate(878.7911987304688,757.361083984375)" id="Tree_12_node_65"><circle class="node" r="4"/><rect class="node" y="-4px" x="-4px" width="0px" height="0px"/><text class="node" x="-13" dy="-.3em" dx=".3em" text-anchor="end" font-size="15px" style="fill-opacity: 1;"/><text class="triangleText" dy=".35em" font-size="15px" x="0"/><path class="triangle" d="M0,0L0,0L0,0L0,0"/></g><g class="node" transform="translate(810.5628051757812,782.2166137695312)" id="Tree_12_node_67"><circle class="node" r="4"/><rect class="node" y="-4px" x="-4px" width="0px" height="0px"/><text class="node" x="-13" dy="-.3em" dx=".3em" text-anchor="end" font-size="15px" style="fill-opacity: 1;"/><text class="triangleText" dy=".35em" font-size="15px" x="0"/><path class="triangle" d="M0,0L0,0L0,0L0,0"/></g><g class="node" transform="translate(1307.2969970703125,690.1051025390625)" id="Tree_12_node_55"><circle class="node" r="4"/><rect class="node" y="-4px" x="-4px" width="0px" height="0px"/><text class="node" x="13" dy=".3em" dx="-.3em" text-anchor="start" font-size="15px" style="fill-opacity: 1;">Mlig455_014178</text><text class="triangleText" dy=".35em" font-size="15px"/><path class="triangle" d="M0,0L0,0L0,0L0,0"/></g><g class="node" transform="translate(1314.558837890625,666.7117309570312)" id="Tree_12_node_53"><circle class="node" r="4"/><rect class="node" y="-4px" x="-4px" width="0px" height="0px"/><text class="node" x="13" dy=".3em" dx="-.3em" text-anchor="start" font-size="15px" style="fill-opacity: 1;">Mlig455_003124</text><text class="triangleText" dy=".35em" font-size="15px"/><path class="triangle" d="M0,0L0,0L0,0L0,0"/></g><g class="node" transform="translate(1312.7398681640625,643.3182983398438)" id="Tree_12_node_52"><circle class="node" r="4"/><rect class="node" y="-4px" x="-4px" width="0px" height="0px"/><text class="node" x="13" dy=".3em" dx="-.3em" text-anchor="start" font-size="15px" style="fill-opacity: 1;">Mlig455_062761</text><text class="triangleText" dy=".35em" font-size="15px"/><path class="triangle" d="M0,0L0,0L0,0L0,0"/></g><g class="node" transform="translate(1310.9339599609375,655.0150146484375)" id="Tree_12_node_54"><circle class="node" r="4"/><rect class="node" y="-4px" x="-4px" width="0px" height="0px"/><text class="node" x="-13" dy="-.3em" dx=".3em" text-anchor="end" font-size="15px" style="fill-opacity: 1;"/><text class="triangleText" dy=".35em" font-size="15px" x="0"/><path class="triangle" d="M0,0L0,0L0,0L0,0"/></g><g class="node" transform="translate(1307.2965087890625,672.56005859375)" id="Tree_12_node_56"><circle class="node" r="4"/><rect class="node" y="-4px" x="-4px" width="0px" height="0px"/><text class="node" x="-13" dy="-.3em" dx=".3em" text-anchor="end" font-size="15px" style="fill-opacity: 1;"/><text class="triangleText" dy=".35em" font-size="15px" x="0"/><path class="triangle" d="M0,0L0,0L0,0L0,0"/></g><g class="node" transform="translate(1048.2119140625,619.9249267578125)" id="Tree_12_node_51"><circle class="node" r="4"/><rect class="node" y="-4px" x="-4px" width="0px" height="0px"/><text class="node" x="13" dy=".3em" dx="-.3em" text-anchor="start" font-size="15px" style="fill-opacity: 1;">Mcli021471.g.t1</text><text class="triangleText" dy=".35em" font-size="15px"/><path class="triangle" d="M0,0L0,0L0,0L0,0"/></g><g class="node" transform="translate(943.643798828125,646.2424926757812)" id="Tree_12_node_57"><circle class="node" r="4"/><rect class="node" y="-4px" x="-4px" width="0px" height="0px"/><text class="node" x="-13" dy="-.3em" dx=".3em" text-anchor="end" font-size="15px" style="fill-opacity: 1;"/><text class="triangleText" dy=".35em" font-size="15px" x="0"/><path class="triangle" d="M0,0L0,0L0,0L0,0"/></g><g class="node" transform="translate(975.5451049804688,596.5315551757812)" id="Tree_12_node_50"><circle class="node" r="4"/><rect class="node" y="-4px" x="-4px" width="0px" height="0px"/><text class="node" x="13" dy=".3em" dx="-.3em" text-anchor="start" font-size="15px" style="fill-opacity: 1;">Mhtx020303.g.t1</text><text class="triangleText" dy=".35em" font-size="15px"/><path class="triangle" d="M0,0L0,0L0,0L0,0"/></g><g class="node" transform="translate(935.0650634765625,621.3870239257812)" id="Tree_12_node_58"><circle class="node" r="4"/><rect class="node" y="-4px" x="-4px" width="0px" height="0px"/><text class="node" x="-13" dy="-.3em" dx=".3em" text-anchor="end" font-size="15px" style="fill-opacity: 1;"/><text class="triangleText" dy=".35em" font-size="15px" x="0"/><path class="triangle" d="M0,0L0,0L0,0L0,0"/></g><g class="node" transform="translate(637.1505737304688,701.8018188476562)" id="Tree_12_node_68"><circle class="node" r="4"/><rect class="node" y="-4px" x="-4px" width="0px" height="0px"/><text class="node" x="-13" dy="-.3em" dx=".3em" text-anchor="end" font-size="15px" style="fill-opacity: 1;"/><text class="triangleText" dy=".35em" font-size="15px" x="0"/><path class="triangle" d="M0,0L0,0L0,0L0,0"/></g><g class="node" transform="translate(1068.8050537109375,573.1381225585938)" id="Tree_12_node_48"><circle class="node" r="4"/><rect class="node" y="-4px" x="-4px" width="0px" height="0px"/><text class="node" x="13" dy=".3em" dx="-.3em" text-anchor="start" font-size="15px" style="fill-opacity: 1;">Pcro_g15787.t1</text><text class="triangleText" dy=".35em" font-size="15px"/><path class="triangle" d="M0,0L0,0L0,0L0,0"/></g><g class="node" transform="translate(970.3352661132812,549.7447509765625)" id="Tree_12_node_47"><circle class="node" r="4"/><rect class="node" y="-4px" x="-4px" width="0px" height="0px"/><text class="node" x="13" dy=".3em" dx="-.3em" text-anchor="start" font-size="15px" style="fill-opacity: 1;">Pcro_g42885.t1</text><text class="triangleText" dy=".35em" font-size="15px"/><path class="triangle" d="M0,0L0,0L0,0L0,0"/></g><g class="node" transform="translate(656.9722900390625,561.4414672851562)" id="Tree_12_node_49"><circle class="node" r="4"/><rect class="node" y="-4px" x="-4px" width="0px" height="0px"/><text class="node" x="-13" dy="-.3em" dx=".3em" text-anchor="end" font-size="15px" style="fill-opacity: 1;"/><text class="triangleText" dy=".35em" font-size="15px" x="0"/><path class="triangle" d="M0,0L0,0L0,0L0,0"/></g><g class="node" transform="translate(488.3017272949219,631.6216430664062)" id="Tree_12_node_69"><circle class="node" r="4"/><rect class="node" y="-4px" x="-4px" width="0px" height="0px"/><text class="node" x="-13" dy="-.3em" dx=".3em" text-anchor="end" font-size="15px" style="fill-opacity: 1;"/><text class="triangleText" dy=".35em" font-size="15px" x="0"/><path class="triangle" d="M0,0L0,0L0,0L0,0"/></g><g class="node" transform="translate(277.5966796875,105.27027130126953)" id="Tree_12_node_5"><circle class="node" r="4"/><rect class="node" y="-4px" x="-4px" width="0px" height="0px"/><text class="node" x="13" dy=".3em" dx="-.3em" text-anchor="start" font-size="15px" style="fill-opacity: 1;">NV2t002966004.1</text><text class="triangleText" dy=".35em" font-size="15px"/><path class="triangle" d="M0,0L0,0L0,0L0,0"/></g><g class="node" transform="translate(277.5966796875,81.87687683105469)" id="Tree_12_node_4"><circle class="node" r="4"/><rect class="node" y="-4px" x="-4px" width="0px" height="0px"/><text class="node" x="13" dy=".3em" dx="-.3em" text-anchor="start" font-size="15px" style="fill-opacity: 1;">NV2t002966003.1</text><text class="triangleText" dy=".35em" font-size="15px"/><path class="triangle" d="M0,0L0,0L0,0L0,0"/></g><g class="node" transform="translate(277.5960998535156,93.57357025146484)" id="Tree_12_node_6"><circle class="node" r="4"/><rect class="node" y="-4px" x="-4px" width="0px" height="0px"/><text class="node" x="-13" dy="-.3em" dx=".3em" text-anchor="end" font-size="15px" style="fill-opacity: 1;"/><text class="triangleText" dy=".35em" font-size="15px" x="0"/><path class="triangle" d="M0,0L0,0L0,0L0,0"/></g><g class="node" transform="translate(277.5966796875,58.483482360839844)" id="Tree_12_node_2"><circle class="node" r="4"/><rect class="node" y="-4px" x="-4px" width="0px" height="0px"/><text class="node" x="13" dy=".3em" dx="-.3em" text-anchor="start" font-size="15px" style="fill-opacity: 1;">NV2t002966001.1</text><text class="triangleText" dy=".35em" font-size="15px"/><path class="triangle" d="M0,0L0,0L0,0L0,0"/></g><g class="node" transform="translate(277.5966796875,35.090091705322266)" id="Tree_12_node_1"><circle class="node" r="4"/><rect class="node" y="-4px" x="-4px" width="0px" height="0px"/><text class="node" x="13" dy=".3em" dx="-.3em" text-anchor="start" font-size="15px" style="fill-opacity: 1;">NV2t002966002.1</text><text class="triangleText" dy=".35em" font-size="15px"/><path class="triangle" d="M0,0L0,0L0,0L0,0"/></g><g class="node" transform="translate(277.5960998535156,46.78678512573242)" id="Tree_12_node_3"><circle class="node" r="4"/><rect class="node" y="-4px" x="-4px" width="0px" height="0px"/><text class="node" x="-13" dy="-.3em" dx=".3em" text-anchor="end" font-size="15px" style="fill-opacity: 1;"/><text class="triangleText" dy=".35em" font-size="15px" x="0"/><path class="triangle" d="M0,0L0,0L0,0L0,0"/></g><g class="node" transform="translate(277.59552001953125,70.18018341064453)" id="Tree_12_node_7"><circle class="node" r="4"/><rect class="node" y="-4px" x="-4px" width="0px" height="0px"/><text class="node" x="-13" dy="-.3em" dx=".3em" text-anchor="end" font-size="15px" style="fill-opacity: 1;"/><text class="triangleText" dy=".35em" font-size="15px" x="0"/><path class="triangle" d="M0,0L0,0L0,0L0,0"/></g><g class="node" transform="translate(495.7007751464844,11.696697235107422)" id="Tree_12_node_0"><circle class="node" r="4"/><rect class="node" y="-4px" x="-4px" width="0px" height="0px"/><text class="node" x="13" dy=".3em" dx="-.3em" text-anchor="start" font-size="15px" style="fill-opacity: 1;">HVAEP12.G023106</text><text class="triangleText" dy=".35em" font-size="15px"/><path class="triangle" d="M0,0L0,0L0,0L0,0"/></g><g class="node" transform="translate(118.96237182617188,40.938438415527344)" id="Tree_12_node_8"><circle class="node" r="4"/><rect class="node" y="-4px" x="-4px" width="0px" height="0px"/><text class="node" x="-13" dy="-.3em" dx=".3em" text-anchor="end" font-size="15px" style="fill-opacity: 1;"/><text class="triangleText" dy=".35em" font-size="15px" x="0"/><path class="triangle" d="M0,0L0,0L0,0L0,0"/></g><g class="node" transform="translate(1381.196533203125,222.23724365234375)" id="Tree_12_node_13"><circle class="node" r="4"/><rect class="node" y="-4px" x="-4px" width="0px" height="0px"/><text class="node" x="13" dy=".3em" dx="-.3em" text-anchor="start" font-size="15px" style="fill-opacity: 1;">HMIM018156-PA</text><text class="triangleText" dy=".35em" font-size="15px"/><path class="triangle" d="M0,0L0,0L0,0L0,0"/></g><g class="node" transform="translate(1420.2080078125,198.84384155273438)" id="Tree_12_node_12"><circle class="node" r="4"/><rect class="node" y="-4px" x="-4px" width="0px" height="0px"/><text class="node" x="13" dy=".3em" dx="-.3em" text-anchor="start" font-size="15px" style="fill-opacity: 1;">cluster_18640_pilon</text><text class="triangleText" dy=".35em" font-size="15px"/><path class="triangle" d="M0,0L0,0L0,0L0,0"/></g><g class="node" transform="translate(1194.8900146484375,210.54054260253906)" id="Tree_12_node_14"><circle class="node" r="4"/><rect class="node" y="-4px" x="-4px" width="0px" height="0px"/><text class="node" x="-13" dy="-.3em" dx=".3em" text-anchor="end" font-size="15px" style="fill-opacity: 1;"/><text class="triangleText" dy=".35em" font-size="15px" x="0"/><path class="triangle" d="M0,0L0,0L0,0L0,0"/></g><g class="node" transform="translate(927.0836791992188,175.45045471191406)" id="Tree_12_node_11"><circle class="node" r="4"/><rect class="node" y="-4px" x="-4px" width="0px" height="0px"/><text class="node" x="13" dy=".3em" dx="-.3em" text-anchor="start" font-size="15px" style="fill-opacity: 1;">comp209913_c1_seq1.p1</text><text class="triangleText" dy=".35em" font-size="15px"/><path class="triangle" d="M0,0L0,0L0,0L0,0"/></g><g class="node" transform="translate(711.7857055664062,192.99549865722656)" id="Tree_12_node_15"><circle class="node" r="4"/><rect class="node" y="-4px" x="-4px" width="0px" height="0px"/><text class="node" x="-13" dy="-.3em" dx=".3em" text-anchor="end" font-size="15px" style="fill-opacity: 1;"/><text class="triangleText" dy=".35em" font-size="15px" x="0"/><path class="triangle" d="M0,0L0,0L0,0L0,0"/></g><g class="node" transform="translate(761.525390625,152.0570526123047)" id="Tree_12_node_10"><circle class="node" r="4"/><rect class="node" y="-4px" x="-4px" width="0px" height="0px"/><text class="node" x="13" dy=".3em" dx="-.3em" text-anchor="start" font-size="15px" style="fill-opacity: 1;">PrileiEVm010928t1.p1</text><text class="triangleText" dy=".35em" font-size="15px"/><path class="triangle" d="M0,0L0,0L0,0L0,0"/></g><g class="node" transform="translate(427.4591369628906,172.52627563476562)" id="Tree_12_node_16"><circle class="node" r="4"/><rect class="node" y="-4px" x="-4px" width="0px" height="0px"/><text class="node" x="-13" dy="-.3em" dx=".3em" text-anchor="end" font-size="15px" style="fill-opacity: 1;"/><text class="triangleText" dy=".35em" font-size="15px" x="0"/><path class="triangle" d="M0,0L0,0L0,0L0,0"/></g><g class="node" transform="translate(546.3197021484375,128.66366577148438)" id="Tree_12_node_9"><circle class="node" r="4"/><rect class="node" y="-4px" x="-4px" width="0px" height="0px"/><text class="node" x="13" dy=".3em" dx="-.3em" text-anchor="start" font-size="15px" style="fill-opacity: 1;">PrileiEVm007162t1.p1</text><text class="triangleText" dy=".35em" font-size="15px"/><path class="triangle" d="M0,0L0,0L0,0L0,0"/></g><g class="node" transform="translate(240.65847778320312,150.594970703125)" id="Tree_12_node_17"><circle class="node" r="4"/><rect class="node" y="-4px" x="-4px" width="0px" height="0px"/><text class="node" x="-13" dy="-.3em" dx=".3em" text-anchor="end" font-size="15px" style="fill-opacity: 1;"/><text class="triangleText" dy=".35em" font-size="15px" x="0"/><path class="triangle" d="M0,0L0,0L0,0L0,0"/></g><g class="node" transform="translate(118.96237182617188,314.0289001464844)" id="Tree_12_node_71"><circle class="node" r="4"/><rect class="node" y="-4px" x="-4px" width="0px" height="0px"/><text class="node" x="-13" dy="-.3em" dx=".3em" text-anchor="end" font-size="15px" style="fill-opacity: 1;"/><text class="triangleText" dy=".35em" font-size="15px" x="0"/><path class="triangle" d="M0,0L0,0L0,0L0,0"/></g><g class="node" transform="translate(246.8617401123047,477.46282958984375)" id="Tree_12_node_70"><circle class="node" r="4"/><rect class="node" y="-4px" x="-4px" width="0px" height="0px"/><text class="node" x="-13" dy="-.3em" dx=".3em" text-anchor="end" font-size="15px" style="fill-opacity: 1;"/><text class="triangleText" dy=".35em" font-size="15px" x="0"/><path class="triangle" d="M0,0L0,0L0,0L0,0"/></g><g class="node" transform="translate(810.12060546875,269.0240173339844)" id="Tree_12_node_19"><circle class="node" r="4"/><rect class="node" y="-4px" x="-4px" width="0px" height="0px"/><text class="node" x="13" dy=".3em" dx="-.3em" text-anchor="start" font-size="15px" style="fill-opacity: 1;">dd_Spol_v4_47595_1_1.p1</text><text class="triangleText" dy=".35em" font-size="15px"/><path class="triangle" d="M0,0L0,0L0,0L0,0"/></g><g class="node" transform="translate(811.9004516601562,245.63063049316406)" id="Tree_12_node_18"><circle class="node" r="4"/><rect class="node" y="-4px" x="-4px" width="0px" height="0px"/><text class="node" x="13" dy=".3em" dx="-.3em" text-anchor="start" font-size="15px" style="fill-opacity: 1;">SMESG000013430.1</text><text class="triangleText" dy=".35em" font-size="15px"/><path class="triangle" d="M0,0L0,0L0,0L0,0"/></g><g class="node" transform="translate(810.1199951171875,257.32733154296875)" id="Tree_12_node_20"><circle class="node" r="4"/><rect class="node" y="-4px" x="-4px" width="0px" height="0px"/><text class="node" x="-13" dy="-.3em" dx=".3em" text-anchor="end" font-size="15px" style="fill-opacity: 1;"/><text class="triangleText" dy=".35em" font-size="15px" x="0"/><path class="triangle" d="M0,0L0,0L0,0L0,0"/></g><g class="node" transform="translate(323.2456359863281,323.30401611328125)" id="Tree_12_node_46"><circle class="node" r="4"/><rect class="node" y="-4px" x="-4px" width="0px" height="0px"/><text class="node" x="-13" dy="-.3em" dx=".3em" text-anchor="end" font-size="15px" style="fill-opacity: 1;"/><text class="triangleText" dy=".35em" font-size="15px" x="0"/><path class="triangle" d="M0,0L0,0L0,0L0,0"/></g><g class="node" transform="translate(1071.110107421875,362.59759521484375)" id="Tree_12_node_28"><circle class="node" r="4"/><rect class="node" y="-4px" x="-4px" width="0px" height="0px"/><text class="node" x="13" dy=".3em" dx="-.3em" text-anchor="start" font-size="15px" style="fill-opacity: 1;">EWB00_010919</text><text class="triangleText" dy=".35em" font-size="15px"/><path class="triangle" d="M0,0L0,0L0,0L0,0"/></g><g class="node" transform="translate(983.03125,339.2041931152344)" id="Tree_12_node_27"><circle class="node" r="4"/><rect class="node" y="-4px" x="-4px" width="0px" height="0px"/><text class="node" x="13" dy=".3em" dx="-.3em" text-anchor="start" font-size="15px" style="fill-opacity: 1;">Smp_340200.1</text><text class="triangleText" dy=".35em" font-size="15px"/><path class="triangle" d="M0,0L0,0L0,0L0,0"/></g><g class="node" transform="translate(936.5260620117188,350.9009094238281)" id="Tree_12_node_29"><circle class="node" r="4"/><rect class="node" y="-4px" x="-4px" width="0px" height="0px"/><text class="node" x="-13" dy="-.3em" dx=".3em" text-anchor="end" font-size="15px" style="fill-opacity: 1;"/><text class="triangleText" dy=".35em" font-size="15px" x="0"/><path class="triangle" d="M0,0L0,0L0,0L0,0"/></g><g class="node" transform="translate(1202.427978515625,315.8108215332031)" id="Tree_12_node_22"><circle class="node" r="4"/><rect class="node" y="-4px" x="-4px" width="0px" height="0px"/><text class="node" x="13" dy=".3em" dx="-.3em" text-anchor="start" font-size="15px" style="fill-opacity: 1;">dd_Spol_v4_29934_1_1.p1</text><text class="triangleText" dy=".35em" font-size="15px"/><path class="triangle" d="M0,0L0,0L0,0L0,0"/></g><g class="node" transform="translate(1183.5599365234375,292.41741943359375)" id="Tree_12_node_21"><circle class="node" r="4"/><rect class="node" y="-4px" x="-4px" width="0px" height="0px"/><text class="node" x="13" dy=".3em" dx="-.3em" text-anchor="start" font-size="15px" style="fill-opacity: 1;">SMESG000030759.1</text><text class="triangleText" dy=".35em" font-size="15px"/><path class="triangle" d="M0,0L0,0L0,0L0,0"/></g><g class="node" transform="translate(1183.559326171875,304.1141052246094)" id="Tree_12_node_23"><circle class="node" r="4"/><rect class="node" y="-4px" x="-4px" width="0px" height="0px"/><text class="node" x="-13" dy="-.3em" dx=".3em" text-anchor="end" font-size="15px" style="fill-opacity: 1;"/><text class="triangleText" dy=".35em" font-size="15px" x="0"/><path class="triangle" d="M0,0L0,0L0,0L0,0"/></g><g class="node" transform="translate(517.1812744140625,327.50750732421875)" id="Tree_12_node_31"><circle class="node" r="4"/><rect class="node" y="-4px" x="-4px" width="0px" height="0px"/><text class="node" x="-13" dy="-.3em" dx=".3em" text-anchor="end" font-size="15px" style="fill-opacity: 1;"/><text class="triangleText" dy=".35em" font-size="15px" x="0"/><path class="triangle" d="M0,0L0,0L0,0L0,0"/></g><g class="node" transform="translate(396.87872314453125,389.28070068359375)" id="Tree_12_node_45"><circle class="node" r="4"/><rect class="node" y="-4px" x="-4px" width="0px" height="0px"/><text class="node" x="-13" dy="-.3em" dx=".3em" text-anchor="end" font-size="15px" style="fill-opacity: 1;"/><text class="triangleText" dy=".35em" font-size="15px" x="0"/><path class="triangle" d="M0,0L0,0L0,0L0,0"/></g><g class="node" transform="translate(484.9184265136719,451.0538635253906)" id="Tree_12_node_44"><circle class="node" r="4"/><rect class="node" y="-4px" x="-4px" width="0px" height="0px"/><text class="node" x="-13" dy="-.3em" dx=".3em" text-anchor="end" font-size="15px" style="fill-opacity: 1;"/><text class="triangleText" dy=".35em" font-size="15px" x="0"/><path class="triangle" d="M0,0L0,0L0,0L0,0"/></g><g class="node" transform="translate(1225.7471923828125,409.3843994140625)" id="Tree_12_node_33"><circle class="node" r="4"/><rect class="node" y="-4px" x="-4px" width="0px" height="0px"/><text class="node" x="13" dy=".3em" dx="-.3em" text-anchor="start" font-size="15px" style="fill-opacity: 1;">go_Sbre_v1_52384_1_2.p1</text><text class="triangleText" dy=".35em" font-size="15px"/><path class="triangle" d="M0,0L0,0L0,0L0,0"/></g><g class="node" transform="translate(1049.674072265625,385.9909973144531)" id="Tree_12_node_32"><circle class="node" r="4"/><rect class="node" y="-4px" x="-4px" width="0px" height="0px"/><text class="node" x="13" dy=".3em" dx="-.3em" text-anchor="start" font-size="15px" style="fill-opacity: 1;">go_Sbre_v1_50724_1_1.p1</text><text class="triangleText" dy=".35em" font-size="15px"/><path class="triangle" d="M0,0L0,0L0,0L0,0"/></g><g class="node" transform="translate(937.8118286132812,397.68768310546875)" id="Tree_12_node_34"><circle class="node" r="4"/><rect class="node" y="-4px" x="-4px" width="0px" height="0px"/><text class="node" x="-13" dy="-.3em" dx=".3em" text-anchor="end" font-size="15px" style="fill-opacity: 1;"/><text class="triangleText" dy=".35em" font-size="15px" x="0"/><path class="triangle" d="M0,0L0,0L0,0L0,0"/></g><g transform="translate(-90,185.1596221923828)"/><g transform="translate(-90,177.48365783691406)"/><g transform="translate(-90,185.1596221923828)"/><g transform="translate(-90,177.48365783691406)"/></g><g transform="translate(100,679)"><path d="M10,20L265,20" stroke-width="1" stroke="black"/></g><text transform="translate(100,679)" x="137.5" y="36" font-family="sans-serif" font-size="14px" fill="black" text-anchor="middle">0.80</text><g><svg id="exportLogo" data-name="Layer 1" xmlns="http://www.w3.org/2000/svg" viewBox="0 0 107.35 22.23" width="75px" x="20" y="-270.0311279296875" style="position: absolute; bottom: 5px; right: 27px;"><defs><style>.cls-1{fill:#808285;}.cls-2{fill:#939598;}.cls-3{fill:#bcbec0;}</style></defs><path class="cls-1" d="M17.17,22.23V5.72H21a6.55,6.55,0,0,1,4.53,1.45,5.16,5.16,0,0,1,1.62,4.05,5.58,5.58,0,0,1-1.52,4,5.16,5.16,0,0,1-3.88,1.58,6.81,6.81,0,0,1-2.31-.46v5.84H17.17ZM20.91,7.74H19.38v6.72a4.51,4.51,0,0,0,2.09.51A3.21,3.21,0,0,0,24,13.92a3.88,3.88,0,0,0,1-2.72,3.82,3.82,0,0,0-.46-1.89,2.76,2.76,0,0,0-1.24-1.19A5.54,5.54,0,0,0,20.91,7.74Z"/><path class="cls-1" d="M29.43,0.06H31.6v7.1A4.18,4.18,0,0,1,35,5.51a3.6,3.6,0,0,1,2,.55,3.31,3.31,0,0,1,1.29,1.51,7.46,7.46,0,0,1,.42,2.86v6.22H36.47V9.89A3,3,0,0,0,35.88,8a1.9,1.9,0,0,0-1.55-.73A2.62,2.62,0,0,0,33,7.6,6.1,6.1,0,0,0,31.6,8.83v7.83H29.43V0.06Z"/><path class="cls-1" d="M47.5,5.72h2.43l-7.74,16.5H39.77l3.71-7.92L39.26,5.72h2.46l3,6.17Z"/><path class="cls-1" d="M51.49,0.06h2.16v16.6H51.49V0.06Z"/><path class="cls-1" d="M62,5.7a5.7,5.7,0,0,1,4.15,1.61,5.41,5.41,0,0,1,1.65,4,5.14,5.14,0,0,1-1.68,3.93,5.94,5.94,0,0,1-4.22,1.56,5.7,5.7,0,0,1-4.11-1.59,5.26,5.26,0,0,1-1.65-4,5.31,5.31,0,0,1,1.67-4A5.82,5.82,0,0,1,62,5.7ZM61.89,7.65a3.42,3.42,0,0,0-2.55,1,3.57,3.57,0,0,0-1,2.6,3.41,3.41,0,0,0,1,2.56,3.61,3.61,0,0,0,2.63,1,3.55,3.55,0,0,0,2.61-1,3.46,3.46,0,0,0,1-2.57,3.43,3.43,0,0,0-1.06-2.58A3.68,3.68,0,0,0,61.89,7.65Z"/><path class="cls-1" d="M71.62,14.29v2.36H70V14.29h1.58Z"/><path class="cls-1" d="M75.85,0.06v2H74.67v-2h1.18Zm0,5.67V16.65H74.67V5.72h1.18Z"/><path class="cls-1" d="M84.14,5.51a5.3,5.3,0,0,1,4,1.63,5.59,5.59,0,0,1,1.59,4.06,5.56,5.56,0,0,1-1.59,4,5.67,5.67,0,0,1-7.94,0,5.54,5.54,0,0,1-1.6-4,5.57,5.57,0,0,1,1.6-4.06A5.34,5.34,0,0,1,84.14,5.51Zm0,10.22a4.09,4.09,0,0,0,3.08-1.29,4.49,4.49,0,0,0,1.24-3.24A4.53,4.53,0,0,0,87.21,8a4.07,4.07,0,0,0-3.07-1.31A4.11,4.11,0,0,0,81,7.95,4.52,4.52,0,0,0,79.8,11.2,4.48,4.48,0,0,0,81,14.44,4.12,4.12,0,0,0,84.14,15.73Z"/><polygon class="cls-2" points="101.29 12.33 94.93 12.33 94.93 10.91 99.87 10.91 99.87 6.46 94.93 6.46 94.93 5.04 101.29 5.04 101.29 12.33"/><polygon class="cls-2" points="106.29 17.36 94.72 17.36 94.72 15.94 104.87 15.94 104.9 5.41 102.74 5.41 102.74 3.99 106.32 3.99 106.29 17.36"/><polygon class="cls-2" points="103.45 4.7 102.03 4.7 102.03 1.42 95.51 1.42 95.51 0 103.45 0 103.45 4.7"/><polygon class="cls-3" points="103.45 9.39 100.65 9.39 100.65 7.97 102.03 7.97 102.03 4.7 103.45 4.7 103.45 9.39"/><polygon class="cls-2" points="11.86 7.46 5.7 7.46 5.7 0.23 11.86 0.23 11.86 1.65 7.12 1.65 7.12 6.04 11.86 6.04 11.86 7.46"/><polygon class="cls-2" points="12.68 17.26 0.04 17.26 0 7.08 3.51 7.08 3.51 8.49 1.43 8.49 1.45 15.84 12.68 15.84 12.68 17.26"/><polygon class="cls-2" points="10.49 12.44 2.84 12.44 2.84 7.79 4.26 7.79 4.26 11.02 10.49 11.02 10.49 12.44"/><polygon class="cls-3" points="4.26 7.79 2.84 7.79 2.84 3.13 6.41 3.13 6.41 4.55 4.26 4.55 4.26 7.79"/></svg></g></svg>