<svg width="1020" height="779" version="1.1" xmlns="http://www.w3.org/2000/svg" id="Tree_10" xmlns:xlink="http://www.w3.org/1999/xlink"><g transform="translate(223.5790585417127,30.432945739102763) scale(0.6897148360140761)"><path class="link" id="Tree_10_node_2_Tree_10_node_0" d="M-34.802913697754754,41.216931216931215L-34.802913697754754,20.608465608465607L288.04714564044417,20.608465608465607" style="stroke-width: 3; stroke: grey; fill: none;"/><path class="link" id="Tree_10_node_2_Tree_10_node_1" d="M-34.802913697754754,41.216931216931215L-34.802913697754754,61.82539682539682L185.303925089728,61.82539682539682" style="stroke-width: 3; stroke: grey; fill: none;"/><path class="link" id="Tree_10_node_5_Tree_10_node_3" d="M24.71892131802872,123.65079365079364L24.71892131802872,103.04232804232804L283.2307637330694,103.04232804232804" style="stroke-width: 3; stroke: grey; fill: none;"/><path class="link" id="Tree_10_node_5_Tree_10_node_4" d="M24.71892131802872,123.65079365079364L24.71892131802872,144.25925925925924L281.23908429387546,144.25925925925924" style="stroke-width: 3; stroke: grey; fill: none;"/><path class="link" id="Tree_10_node_39_Tree_10_node_5" d="M-34.802913697754754,208.0972015542328L-34.802913697754754,123.65079365079364L24.71892131802872,123.65079365079364" style="stroke-width: 3; stroke: grey; fill: none;"/><path class="link" id="Tree_10_node_40_Tree_10_node_2" d="M-90,124.65706638558201L-90,41.216931216931215L-34.802913697754754,41.216931216931215" style="stroke-width: 3; stroke: grey; fill: none;"/><path class="link" id="Tree_10_node_40_Tree_10_node_39" d="M-90,124.65706638558201L-90,208.0972015542328L-34.802913697754754,208.0972015542328" style="stroke-width: 3; stroke: grey; fill: none;"/><path class="link" id="Tree_10_node_38_Tree_10_node_37" d="M12.942006519994806,292.54360945767195L12.942006519994806,185.47619047619048L358.655794603347,185.47619047619048" style="stroke-width: 3; stroke: grey; fill: none;"/><path class="link" id="Tree_10_node_39_Tree_10_node_38" d="M-34.802913697754754,208.0972015542328L-34.802913697754754,292.54360945767195L12.942006519994806,292.54360945767195" style="stroke-width: 3; stroke: grey; fill: none;"/><path class="link" id="Tree_10_node_36_Tree_10_node_35" d="M95.49181937644443,399.6110284391534L95.49181937644443,226.69312169312167L412.9216585627183,226.69312169312167" style="stroke-width: 3; stroke: grey; fill: none;"/><path class="link" id="Tree_10_node_15_Tree_10_node_13" d="M631.1011169755296,453.38624338624334L631.1011169755296,432.77777777777777L732.7837212738254,432.77777777777777" style="stroke-width: 3; stroke: grey; fill: none;"/><path class="link" id="Tree_10_node_15_Tree_10_node_14" d="M631.1011169755296,453.38624338624334L631.1011169755296,473.99470899470896L739.5007453310208,473.99470899470896" style="stroke-width: 3; stroke: grey; fill: none;"/><path class="link" id="Tree_10_node_17_Tree_10_node_15" d="M345.1988280105127,484.29894179894177L345.1988280105127,453.38624338624334L631.1011169755296,453.38624338624334" style="stroke-width: 3; stroke: grey; fill: none;"/><path class="link" id="Tree_10_node_17_Tree_10_node_16" d="M345.1988280105127,484.29894179894177L345.1988280105127,515.2116402116402L834.8406607200342,515.2116402116402" style="stroke-width: 3; stroke: grey; fill: none;"/><path class="link" id="Tree_10_node_11_Tree_10_node_9" d="M738.2437304508262,370.95238095238096L738.2437304508262,350.34391534391534L751.0748952572684,350.34391534391534" style="stroke-width: 3; stroke: grey; fill: none;"/><path class="link" id="Tree_10_node_11_Tree_10_node_10" d="M738.2437304508262,370.95238095238096L738.2437304508262,391.5608465608466L773.0486230895262,391.5608465608466" style="stroke-width: 3; stroke: grey; fill: none;"/><path class="link" id="Tree_10_node_8_Tree_10_node_6" d="M846.4975718184396,288.5185185185185L846.4975718184396,267.9100529100529L853.7273968308117,267.9100529100529" style="stroke-width: 3; stroke: grey; fill: none;"/><path class="link" id="Tree_10_node_8_Tree_10_node_7" d="M846.4975718184396,288.5185185185185L846.4975718184396,309.1269841269841L846.4978901306403,309.1269841269841" style="stroke-width: 3; stroke: grey; fill: none;"/><path class="link" id="Tree_10_node_12_Tree_10_node_8" d="M400.1299644691514,329.7354497354497L400.1299644691514,288.5185185185185L846.4975718184396,288.5185185185185" style="stroke-width: 3; stroke: grey; fill: none;"/><path class="link" id="Tree_10_node_12_Tree_10_node_11" d="M400.1299644691514,329.7354497354497L400.1299644691514,370.95238095238096L738.2437304508262,370.95238095238096" style="stroke-width: 3; stroke: grey; fill: none;"/><path class="link" id="Tree_10_node_18_Tree_10_node_12" d="M293.11499418629796,407.01719576719574L293.11499418629796,329.7354497354497L400.1299644691514,329.7354497354497" style="stroke-width: 3; stroke: grey; fill: none;"/><path class="link" id="Tree_10_node_18_Tree_10_node_17" d="M293.11499418629796,407.01719576719574L293.11499418629796,484.29894179894177L345.1988280105127,484.29894179894177" style="stroke-width: 3; stroke: grey; fill: none;"/><path class="link" id="Tree_10_node_34_Tree_10_node_18" d="M193.4450779324361,572.5289351851851L193.4450779324361,407.01719576719574L293.11499418629796,407.01719576719574" style="stroke-width: 3; stroke: grey; fill: none;"/><path class="link" id="Tree_10_node_38_Tree_10_node_36" d="M12.942006519994806,292.54360945767195L12.942006519994806,399.6110284391534L95.49181937644443,399.6110284391534" style="stroke-width: 3; stroke: grey; fill: none;"/><path class="link" id="Tree_10_node_22_Tree_10_node_20" d="M1274.4046630935622,824.3386243386243L1274.4046630935622,803.7301587301587L1395.2553914879713,803.7301587301587" style="stroke-width: 3; stroke: grey; fill: none;"/><path class="link" id="Tree_10_node_22_Tree_10_node_21" d="M1274.4046630935622,824.3386243386243L1274.4046630935622,844.9470899470899L1412.0406304503458,844.9470899470899" style="stroke-width: 3; stroke: grey; fill: none;"/><path class="link" id="Tree_10_node_23_Tree_10_node_19" d="M1274.4043447813615,793.4259259259259L1274.4043447813615,762.5132275132274L1424.556984490388,762.5132275132274" style="stroke-width: 3; stroke: grey; fill: none;"/><path class="link" id="Tree_10_node_23_Tree_10_node_22" d="M1274.4043447813615,793.4259259259259L1274.4043447813615,824.3386243386243L1274.4046630935622,824.3386243386243" style="stroke-width: 3; stroke: grey; fill: none;"/><path class="link" id="Tree_10_node_33_Tree_10_node_23" d="M193.44539624463675,738.0406746031745L193.44539624463675,793.4259259259259L1274.4043447813615,793.4259259259259" style="stroke-width: 3; stroke: grey; fill: none;"/><path class="link" id="Tree_10_node_36_Tree_10_node_34" d="M95.49181937644443,399.6110284391534L95.49181937644443,572.5289351851851L193.4450779324361,572.5289351851851" style="stroke-width: 3; stroke: grey; fill: none;"/><path class="link" id="Tree_10_node_34_Tree_10_node_33" d="M193.4450779324361,572.5289351851851L193.4450779324361,738.0406746031745L193.44539624463675,738.0406746031745" style="stroke-width: 3; stroke: grey; fill: none;"/><path class="link" id="Tree_10_node_32_Tree_10_node_31" d="M261.4301977379414,682.6554232804232L261.4301977379414,721.2962962962962L576.7152493165297,721.2962962962962" style="stroke-width: 3; stroke: grey; fill: none;"/><path class="link" id="Tree_10_node_33_Tree_10_node_32" d="M193.44539624463675,738.0406746031745L193.44539624463675,682.6554232804232L261.4301977379414,682.6554232804232" style="stroke-width: 3; stroke: grey; fill: none;"/><path class="link" id="Tree_10_node_30_Tree_10_node_29" d="M522.8323149344878,644.0145502645502L522.8323149344878,680.079365079365L554.8662998669095,680.079365079365" style="stroke-width: 3; stroke: grey; fill: none;"/><path class="link" id="Tree_10_node_26_Tree_10_node_24" d="M698.3143296945645,577.037037037037L698.3143296945645,556.4285714285713L700.1837772487256,556.4285714285713" style="stroke-width: 3; stroke: grey; fill: none;"/><path class="link" id="Tree_10_node_26_Tree_10_node_25" d="M698.3143296945645,577.037037037037L698.3143296945645,597.6455026455026L699.1947812414417,597.6455026455026" style="stroke-width: 3; stroke: grey; fill: none;"/><path class="link" id="Tree_10_node_28_Tree_10_node_26" d="M612.0494951448381,607.9497354497354L612.0494951448381,577.037037037037L698.3143296945645,577.037037037037" style="stroke-width: 3; stroke: grey; fill: none;"/><path class="link" id="Tree_10_node_32_Tree_10_node_30" d="M261.4301977379414,682.6554232804232L261.4301977379414,644.0145502645502L522.8323149344878,644.0145502645502" style="stroke-width: 3; stroke: grey; fill: none;"/><path class="link" id="Tree_10_node_28_Tree_10_node_27" d="M612.0494951448381,607.9497354497354L612.0494951448381,638.8624338624338L716.677123923144,638.8624338624338" style="stroke-width: 3; stroke: grey; fill: none;"/><path class="link" id="Tree_10_node_30_Tree_10_node_28" d="M522.8323149344878,644.0145502645502L522.8323149344878,607.9497354497354L612.0494951448381,607.9497354497354" style="stroke-width: 3; stroke: grey; fill: none;"/><g class="node" transform="translate(554.8662719726562,680.079345703125)" id="Tree_10_node_29"><circle class="node" r="4"/><rect class="node" y="-4px" x="-4px" width="0px" height="0px"/><text class="node" x="13" dy=".3em" dx="-.3em" text-anchor="start" font-size="15px" style="fill-opacity: 1;">Mcli003206.g.t2</text><text class="triangleText" dy=".35em" font-size="15px"/><path class="triangle" d="M0,0L0,0L0,0L0,0"/></g><g class="node" transform="translate(576.7152709960938,721.2963256835938)" id="Tree_10_node_31"><circle class="node" r="4"/><rect class="node" y="-4px" x="-4px" width="0px" height="0px"/><text class="node" x="13" dy=".3em" dx="-.3em" text-anchor="start" font-size="15px" style="fill-opacity: 1;">go_Sbre_v1_46450_1_1.p1</text><text class="triangleText" dy=".35em" font-size="15px"/><path class="triangle" d="M0,0L0,0L0,0L0,0"/></g><g class="node" transform="translate(412.9216613769531,226.693115234375)" id="Tree_10_node_35"><circle class="node" r="4"/><rect class="node" y="-4px" x="-4px" width="0px" height="0px"/><text class="node" x="13" dy=".3em" dx="-.3em" text-anchor="start" font-size="15px" style="fill-opacity: 1;">Pcro_g32949.t1</text><text class="triangleText" dy=".35em" font-size="15px"/><path class="triangle" d="M0,0L0,0L0,0L0,0"/></g><g class="node" transform="translate(358.6557922363281,185.4761962890625)" id="Tree_10_node_37"><circle class="node" r="4"/><rect class="node" y="-4px" x="-4px" width="0px" height="0px"/><text class="node" x="13" dy=".3em" dx="-.3em" text-anchor="start" font-size="15px" style="fill-opacity: 1;">HMIM022324-PA</text><text class="triangleText" dy=".35em" font-size="15px"/><path class="triangle" d="M0,0L0,0L0,0L0,0"/></g><g class="node" transform="translate(185.30392456054688,61.82539749145508)" id="Tree_10_node_1"><circle class="node" r="4"/><rect class="node" y="-4px" x="-4px" width="0px" height="0px"/><text class="node" x="13" dy=".3em" dx="-.3em" text-anchor="start" font-size="15px" style="fill-opacity: 1;">NV2t012676002.1</text><text class="triangleText" dy=".35em" font-size="15px"/><path class="triangle" d="M0,0L0,0L0,0L0,0"/></g><g class="node" transform="translate(288.0471496582031,20.60846519470215)" id="Tree_10_node_0"><circle class="node" r="4"/><rect class="node" y="-4px" x="-4px" width="0px" height="0px"/><text class="node" x="13" dy=".3em" dx="-.3em" text-anchor="start" font-size="15px" style="fill-opacity: 1;">HVAEP11.G020207</text><text class="triangleText" dy=".35em" font-size="15px"/><path class="triangle" d="M0,0L0,0L0,0L0,0"/></g><g class="node" transform="translate(-34.802913665771484,41.2169303894043)" id="Tree_10_node_2"><circle class="node" r="4"/><rect class="node" y="-4px" x="-4px" width="0px" height="0px"/><text class="node" x="-13" dy="-.3em" dx=".3em" text-anchor="end" font-size="15px" style="fill-opacity: 1;"/><text class="triangleText" dy=".35em" font-size="15px" x="0"/><path class="triangle" d="M0,0L0,0L0,0L0,0"/></g><g class="node" transform="translate(281.23907470703125,144.25926208496094)" id="Tree_10_node_4"><circle class="node" r="4"/><rect class="node" y="-4px" x="-4px" width="0px" height="0px"/><text class="node" x="13" dy=".3em" dx="-.3em" text-anchor="start" font-size="15px" style="fill-opacity: 1;">PrileiEVm007695t1.p1</text><text class="triangleText" dy=".35em" font-size="15px"/><path class="triangle" d="M0,0L0,0L0,0L0,0"/></g><g class="node" transform="translate(283.23077392578125,103.04232788085938)" id="Tree_10_node_3"><circle class="node" r="4"/><rect class="node" y="-4px" x="-4px" width="0px" height="0px"/><text class="node" x="13" dy=".3em" dx="-.3em" text-anchor="start" font-size="15px" style="fill-opacity: 1;">comp135579_c0_seq1.p1</text><text class="triangleText" dy=".35em" font-size="15px"/><path class="triangle" d="M0,0L0,0L0,0L0,0"/></g><g class="node" transform="translate(24.718921661376953,123.65079498291016)" id="Tree_10_node_5"><circle class="node" r="4"/><rect class="node" y="-4px" x="-4px" width="0px" height="0px"/><text class="node" x="-13" dy="-.3em" dx=".3em" text-anchor="end" font-size="15px" style="fill-opacity: 1;"/><text class="triangleText" dy=".35em" font-size="15px" x="0"/><path class="triangle" d="M0,0L0,0L0,0L0,0"/></g><g class="node" transform="translate(-34.802913665771484,208.09719848632812)" id="Tree_10_node_39"><circle class="node" r="4"/><rect class="node" y="-4px" x="-4px" width="0px" height="0px"/><text class="node" x="-13" dy="-.3em" dx=".3em" text-anchor="end" font-size="15px" style="fill-opacity: 1;"/><text class="triangleText" dy=".35em" font-size="15px" x="0"/><path class="triangle" d="M0,0L0,0L0,0L0,0"/></g><g class="node" transform="translate(12.94200611114502,292.5436096191406)" id="Tree_10_node_38"><circle class="node" r="4"/><rect class="node" y="-4px" x="-4px" width="0px" height="0px"/><text class="node" x="-13" dy="-.3em" dx=".3em" text-anchor="end" font-size="15px" style="fill-opacity: 1;"/><text class="triangleText" dy=".35em" font-size="15px" x="0"/><path class="triangle" d="M0,0L0,0L0,0L0,0"/></g><g class="node" transform="translate(95.4918212890625,399.61102294921875)" id="Tree_10_node_36"><circle class="node" r="4"/><rect class="node" y="-4px" x="-4px" width="0px" height="0px"/><text class="node" x="-13" dy="-.3em" dx=".3em" text-anchor="end" font-size="15px" style="fill-opacity: 1;"/><text class="triangleText" dy=".35em" font-size="15px" x="0"/><path class="triangle" d="M0,0L0,0L0,0L0,0"/></g><g class="node" transform="translate(834.8406372070312,515.211669921875)" id="Tree_10_node_16"><circle class="node" r="4"/><rect class="node" y="-4px" x="-4px" width="0px" height="0px"/><text class="node" x="13" dy=".3em" dx="-.3em" text-anchor="start" font-size="15px" style="fill-opacity: 1;">go_Sbre_v1_44189_2_1.p1</text><text class="triangleText" dy=".35em" font-size="15px"/><path class="triangle" d="M0,0L0,0L0,0L0,0"/></g><g class="node" transform="translate(739.500732421875,473.9947204589844)" id="Tree_10_node_14"><circle class="node" r="4"/><rect class="node" y="-4px" x="-4px" width="0px" height="0px"/><text class="node" x="13" dy=".3em" dx="-.3em" text-anchor="start" font-size="15px" style="fill-opacity: 1;">EWB00_003444</text><text class="triangleText" dy=".35em" font-size="15px"/><path class="triangle" d="M0,0L0,0L0,0L0,0"/></g><g class="node" transform="translate(732.78369140625,432.77777099609375)" id="Tree_10_node_13"><circle class="node" r="4"/><rect class="node" y="-4px" x="-4px" width="0px" height="0px"/><text class="node" x="13" dy=".3em" dx="-.3em" text-anchor="start" font-size="15px" style="fill-opacity: 1;">Smp_342280.1</text><text class="triangleText" dy=".35em" font-size="15px"/><path class="triangle" d="M0,0L0,0L0,0L0,0"/></g><g class="node" transform="translate(631.1011352539062,453.38623046875)" id="Tree_10_node_15"><circle class="node" r="4"/><rect class="node" y="-4px" x="-4px" width="0px" height="0px"/><text class="node" x="-13" dy="-.3em" dx=".3em" text-anchor="end" font-size="15px" style="fill-opacity: 1;"/><text class="triangleText" dy=".35em" font-size="15px" x="0"/><path class="triangle" d="M0,0L0,0L0,0L0,0"/></g><g class="node" transform="translate(345.1988220214844,484.2989501953125)" id="Tree_10_node_17"><circle class="node" r="4"/><rect class="node" y="-4px" x="-4px" width="0px" height="0px"/><text class="node" x="-13" dy="-.3em" dx=".3em" text-anchor="end" font-size="15px" style="fill-opacity: 1;"/><text class="triangleText" dy=".35em" font-size="15px" x="0"/><path class="triangle" d="M0,0L0,0L0,0L0,0"/></g><g class="node" transform="translate(773.0486450195312,391.56085205078125)" id="Tree_10_node_10"><circle class="node" r="4"/><rect class="node" y="-4px" x="-4px" width="0px" height="0px"/><text class="node" x="13" dy=".3em" dx="-.3em" text-anchor="start" font-size="15px" style="fill-opacity: 1;">dd_Spol_v4_16811_1_1.p1</text><text class="triangleText" dy=".35em" font-size="15px"/><path class="triangle" d="M0,0L0,0L0,0L0,0"/></g><g class="node" transform="translate(751.0748901367188,350.3439025878906)" id="Tree_10_node_9"><circle class="node" r="4"/><rect class="node" y="-4px" x="-4px" width="0px" height="0px"/><text class="node" x="13" dy=".3em" dx="-.3em" text-anchor="start" font-size="15px" style="fill-opacity: 1;">SMESG000033317.1</text><text class="triangleText" dy=".35em" font-size="15px"/><path class="triangle" d="M0,0L0,0L0,0L0,0"/></g><g class="node" transform="translate(738.2437133789062,370.952392578125)" id="Tree_10_node_11"><circle class="node" r="4"/><rect class="node" y="-4px" x="-4px" width="0px" height="0px"/><text class="node" x="-13" dy="-.3em" dx=".3em" text-anchor="end" font-size="15px" style="fill-opacity: 1;"/><text class="triangleText" dy=".35em" font-size="15px" x="0"/><path class="triangle" d="M0,0L0,0L0,0L0,0"/></g><g class="node" transform="translate(846.4978637695312,309.1269836425781)" id="Tree_10_node_7"><circle class="node" r="4"/><rect class="node" y="-4px" x="-4px" width="0px" height="0px"/><text class="node" x="13" dy=".3em" dx="-.3em" text-anchor="start" font-size="15px" style="fill-opacity: 1;">dd_Spol_v4_43403_1_1.p1</text><text class="triangleText" dy=".35em" font-size="15px"/><path class="triangle" d="M0,0L0,0L0,0L0,0"/></g><g class="node" transform="translate(853.7274169921875,267.9100646972656)" id="Tree_10_node_6"><circle class="node" r="4"/><rect class="node" y="-4px" x="-4px" width="0px" height="0px"/><text class="node" x="13" dy=".3em" dx="-.3em" text-anchor="start" font-size="15px" style="fill-opacity: 1;">SMESG000008885.1</text><text class="triangleText" dy=".35em" font-size="15px"/><path class="triangle" d="M0,0L0,0L0,0L0,0"/></g><g class="node" transform="translate(846.49755859375,288.5185241699219)" id="Tree_10_node_8"><circle class="node" r="4"/><rect class="node" y="-4px" x="-4px" width="0px" height="0px"/><text class="node" x="-13" dy="-.3em" dx=".3em" text-anchor="end" font-size="15px" style="fill-opacity: 1;"/><text class="triangleText" dy=".35em" font-size="15px" x="0"/><path class="triangle" d="M0,0L0,0L0,0L0,0"/></g><g class="node" transform="translate(400.1299743652344,329.7354431152344)" id="Tree_10_node_12"><circle class="node" r="4"/><rect class="node" y="-4px" x="-4px" width="0px" height="0px"/><text class="node" x="-13" dy="-.3em" dx=".3em" text-anchor="end" font-size="15px" style="fill-opacity: 1;"/><text class="triangleText" dy=".35em" font-size="15px" x="0"/><path class="triangle" d="M0,0L0,0L0,0L0,0"/></g><g class="node" transform="translate(293.114990234375,407.0171813964844)" id="Tree_10_node_18"><circle class="node" r="4"/><rect class="node" y="-4px" x="-4px" width="0px" height="0px"/><text class="node" x="-13" dy="-.3em" dx=".3em" text-anchor="end" font-size="15px" style="fill-opacity: 1;"/><text class="triangleText" dy=".35em" font-size="15px" x="0"/><path class="triangle" d="M0,0L0,0L0,0L0,0"/></g><g class="node" transform="translate(193.44508361816406,572.5289306640625)" id="Tree_10_node_34"><circle class="node" r="4"/><rect class="node" y="-4px" x="-4px" width="0px" height="0px"/><text class="node" x="-13" dy="-.3em" dx=".3em" text-anchor="end" font-size="15px" style="fill-opacity: 1;"/><text class="triangleText" dy=".35em" font-size="15px" x="0"/><path class="triangle" d="M0,0L0,0L0,0L0,0"/></g><g class="node" transform="translate(1412.0406494140625,844.9470825195312)" id="Tree_10_node_21"><circle class="node" r="4"/><rect class="node" y="-4px" x="-4px" width="0px" height="0px"/><text class="node" x="13" dy=".3em" dx="-.3em" text-anchor="start" font-size="15px" style="fill-opacity: 1;">Mcli038571.g.t1</text><text class="triangleText" dy=".35em" font-size="15px"/><path class="triangle" d="M0,0L0,0L0,0L0,0"/></g><g class="node" transform="translate(1395.25537109375,803.7301635742188)" id="Tree_10_node_20"><circle class="node" r="4"/><rect class="node" y="-4px" x="-4px" width="0px" height="0px"/><text class="node" x="13" dy=".3em" dx="-.3em" text-anchor="start" font-size="15px" style="fill-opacity: 1;">Mlig455_054310</text><text class="triangleText" dy=".35em" font-size="15px"/><path class="triangle" d="M0,0L0,0L0,0L0,0"/></g><g class="node" transform="translate(1274.4046630859375,824.338623046875)" id="Tree_10_node_22"><circle class="node" r="4"/><rect class="node" y="-4px" x="-4px" width="0px" height="0px"/><text class="node" x="-13" dy="-.3em" dx=".3em" text-anchor="end" font-size="15px" style="fill-opacity: 1;"/><text class="triangleText" dy=".35em" font-size="15px" x="0"/><path class="triangle" d="M0,0L0,0L0,0L0,0"/></g><g class="node" transform="translate(1424.5570068359375,762.5132446289062)" id="Tree_10_node_19"><circle class="node" r="4"/><rect class="node" y="-4px" x="-4px" width="0px" height="0px"/><text class="node" x="13" dy=".3em" dx="-.3em" text-anchor="start" font-size="15px" style="fill-opacity: 1;">Mhtx015632.g.t1</text><text class="triangleText" dy=".35em" font-size="15px"/><path class="triangle" d="M0,0L0,0L0,0L0,0"/></g><g class="node" transform="translate(1274.404296875,793.4259033203125)" id="Tree_10_node_23"><circle class="node" r="4"/><rect class="node" y="-4px" x="-4px" width="0px" height="0px"/><text class="node" x="-13" dy="-.3em" dx=".3em" text-anchor="end" font-size="15px" style="fill-opacity: 1;"/><text class="triangleText" dy=".35em" font-size="15px" x="0"/><path class="triangle" d="M0,0L0,0L0,0L0,0"/></g><g class="node" transform="translate(193.4453887939453,738.0406494140625)" id="Tree_10_node_33"><circle class="node" r="4"/><rect class="node" y="-4px" x="-4px" width="0px" height="0px"/><text class="node" x="-13" dy="-.3em" dx=".3em" text-anchor="end" font-size="15px" style="fill-opacity: 1;"/><text class="triangleText" dy=".35em" font-size="15px" x="0"/><path class="triangle" d="M0,0L0,0L0,0L0,0"/></g><g class="node" transform="translate(261.4302062988281,682.6553955078125)" id="Tree_10_node_32"><circle class="node" r="4"/><rect class="node" y="-4px" x="-4px" width="0px" height="0px"/><text class="node" x="-13" dy="-.3em" dx=".3em" text-anchor="end" font-size="15px" style="fill-opacity: 1;"/><text class="triangleText" dy=".35em" font-size="15px" x="0"/><path class="triangle" d="M0,0L0,0L0,0L0,0"/></g><g class="node" transform="translate(522.8323364257812,644.0145263671875)" id="Tree_10_node_30"><circle class="node" r="4"/><rect class="node" y="-4px" x="-4px" width="0px" height="0px"/><text class="node" x="-13" dy="-.3em" dx=".3em" text-anchor="end" font-size="15px" style="fill-opacity: 1;"/><text class="triangleText" dy=".35em" font-size="15px" x="0"/><path class="triangle" d="M0,0L0,0L0,0L0,0"/></g><g class="node" transform="translate(699.1947631835938,597.6455078125)" id="Tree_10_node_25"><circle class="node" r="4"/><rect class="node" y="-4px" x="-4px" width="0px" height="0px"/><text class="node" x="13" dy=".3em" dx="-.3em" text-anchor="start" font-size="15px" style="fill-opacity: 1;">Mlig455_009762</text><text class="triangleText" dy=".35em" font-size="15px"/><path class="triangle" d="M0,0L0,0L0,0L0,0"/></g><g class="node" transform="translate(700.1837768554688,556.4285888671875)" id="Tree_10_node_24"><circle class="node" r="4"/><rect class="node" y="-4px" x="-4px" width="0px" height="0px"/><text class="node" x="13" dy=".3em" dx="-.3em" text-anchor="start" font-size="15px" style="fill-opacity: 1;">Mlig455_070121</text><text class="triangleText" dy=".35em" font-size="15px"/><path class="triangle" d="M0,0L0,0L0,0L0,0"/></g><g class="node" transform="translate(698.3143310546875,577.0370483398438)" id="Tree_10_node_26"><circle class="node" r="4"/><rect class="node" y="-4px" x="-4px" width="0px" height="0px"/><text class="node" x="-13" dy="-.3em" dx=".3em" text-anchor="end" font-size="15px" style="fill-opacity: 1;"/><text class="triangleText" dy=".35em" font-size="15px" x="0"/><path class="triangle" d="M0,0L0,0L0,0L0,0"/></g><g class="node" transform="translate(612.0494995117188,607.94970703125)" id="Tree_10_node_28"><circle class="node" r="4"/><rect class="node" y="-4px" x="-4px" width="0px" height="0px"/><text class="node" x="-13" dy="-.3em" dx=".3em" text-anchor="end" font-size="15px" style="fill-opacity: 1;"/><text class="triangleText" dy=".35em" font-size="15px" x="0"/><path class="triangle" d="M0,0L0,0L0,0L0,0"/></g><g class="node" transform="translate(716.6771240234375,638.8624267578125)" id="Tree_10_node_27"><circle class="node" r="4"/><rect class="node" y="-4px" x="-4px" width="0px" height="0px"/><text class="node" x="13" dy=".3em" dx="-.3em" text-anchor="start" font-size="15px" style="fill-opacity: 1;">Mhtx013194.g.t1</text><text class="triangleText" dy=".35em" font-size="15px"/><path class="triangle" d="M0,0L0,0L0,0L0,0"/></g><g transform="translate(-90,236.71559143066406)"/><g transform="translate(-90,236.71559143066406)"/><g transform="translate(-90,159.43385314941406)"/><g transform="translate(-90,159.43385314941406)"/><g transform="translate(-90,123.36903381347656)"/><g transform="translate(-90,123.36903381347656)"/><g transform="translate(-90,124.65706634521484)"/></g><g transform="translate(100,679)"><path d="M10,20L265,20" stroke-width="1" stroke="black"/></g><text transform="translate(100,679)" x="137.5" y="36" font-family="sans-serif" font-size="14px" fill="black" text-anchor="middle"><span xmlns="http://www.w3.org/1999/xhtml" data-tb="replaced"><a href="http://textbooksearch.mit.edu/go/1.16" style="text-decoration:none;" target="_blank">1.16</a></span></text><g><svg id="exportLogo" data-name="Layer 1" xmlns="http://www.w3.org/2000/svg" viewBox="0 0 107.35 22.23" width="75px" x="20" y="-335.3603820800781" style="position: absolute; bottom: 5px; right: 27px;"><defs><style>.cls-1{fill:#808285;}.cls-2{fill:#939598;}.cls-3{fill:#bcbec0;}</style></defs><path class="cls-1" d="M17.17,22.23V5.72H21a6.55,6.55,0,0,1,4.53,1.45,5.16,5.16,0,0,1,1.62,4.05,5.58,5.58,0,0,1-1.52,4,5.16,5.16,0,0,1-3.88,1.58,6.81,6.81,0,0,1-2.31-.46v5.84H17.17ZM20.91,7.74H19.38v6.72a4.51,4.51,0,0,0,2.09.51A3.21,3.21,0,0,0,24,13.92a3.88,3.88,0,0,0,1-2.72,3.82,3.82,0,0,0-.46-1.89,2.76,2.76,0,0,0-1.24-1.19A5.54,5.54,0,0,0,20.91,7.74Z"/><path class="cls-1" d="M29.43,0.06H31.6v7.1A4.18,4.18,0,0,1,35,5.51a3.6,3.6,0,0,1,2,.55,3.31,3.31,0,0,1,1.29,1.51,7.46,7.46,0,0,1,.42,2.86v6.22H36.47V9.89A3,3,0,0,0,35.88,8a1.9,1.9,0,0,0-1.55-.73A2.62,2.62,0,0,0,33,7.6,6.1,6.1,0,0,0,31.6,8.83v7.83H29.43V0.06Z"/><path class="cls-1" d="M47.5,5.72h2.43l-7.74,16.5H39.77l3.71-7.92L39.26,5.72h2.46l3,6.17Z"/><path class="cls-1" d="M51.49,0.06h2.16v16.6H51.49V0.06Z"/><path class="cls-1" d="M62,5.7a5.7,5.7,0,0,1,4.15,1.61,5.41,5.41,0,0,1,1.65,4,5.14,5.14,0,0,1-1.68,3.93,5.94,5.94,0,0,1-4.22,1.56,5.7,5.7,0,0,1-4.11-1.59,5.26,5.26,0,0,1-1.65-4,5.31,5.31,0,0,1,1.67-4A5.82,5.82,0,0,1,62,5.7ZM61.89,7.65a3.42,3.42,0,0,0-2.55,1,3.57,3.57,0,0,0-1,2.6,3.41,3.41,0,0,0,1,2.56,3.61,3.61,0,0,0,2.63,1,3.55,3.55,0,0,0,2.61-1,3.46,3.46,0,0,0,1-2.57,3.43,3.43,0,0,0-1.06-2.58A3.68,3.68,0,0,0,61.89,7.65Z"/><path class="cls-1" d="M71.62,14.29v2.36H70V14.29h1.58Z"/><path class="cls-1" d="M75.85,0.06v2H74.67v-2h1.18Zm0,5.67V16.65H74.67V5.72h1.18Z"/><path class="cls-1" d="M84.14,5.51a5.3,5.3,0,0,1,4,1.63,5.59,5.59,0,0,1,1.59,4.06,5.56,5.56,0,0,1-1.59,4,5.67,5.67,0,0,1-7.94,0,5.54,5.54,0,0,1-1.6-4,5.57,5.57,0,0,1,1.6-4.06A5.34,5.34,0,0,1,84.14,5.51Zm0,10.22a4.09,4.09,0,0,0,3.08-1.29,4.49,4.49,0,0,0,1.24-3.24A4.53,4.53,0,0,0,87.21,8a4.07,4.07,0,0,0-3.07-1.31A4.11,4.11,0,0,0,81,7.95,4.52,4.52,0,0,0,79.8,11.2,4.48,4.48,0,0,0,81,14.44,4.12,4.12,0,0,0,84.14,15.73Z"/><polygon class="cls-2" points="101.29 12.33 94.93 12.33 94.93 10.91 99.87 10.91 99.87 6.46 94.93 6.46 94.93 5.04 101.29 5.04 101.29 12.33"/><polygon class="cls-2" points="106.29 17.36 94.72 17.36 94.72 15.94 104.87 15.94 104.9 5.41 102.74 5.41 102.74 3.99 106.32 3.99 106.29 17.36"/><polygon class="cls-2" points="103.45 4.7 102.03 4.7 102.03 1.42 95.51 1.42 95.51 0 103.45 0 103.45 4.7"/><polygon class="cls-3" points="103.45 9.39 100.65 9.39 100.65 7.97 102.03 7.97 102.03 4.7 103.45 4.7 103.45 9.39"/><polygon class="cls-2" points="11.86 7.46 5.7 7.46 5.7 0.23 11.86 0.23 11.86 1.65 7.12 1.65 7.12 6.04 11.86 6.04 11.86 7.46"/><polygon class="cls-2" points="12.68 17.26 0.04 17.26 0 7.08 3.51 7.08 3.51 8.49 1.43 8.49 1.45 15.84 12.68 15.84 12.68 17.26"/><polygon class="cls-2" points="10.49 12.44 2.84 12.44 2.84 7.79 4.26 7.79 4.26 11.02 10.49 11.02 10.49 12.44"/><polygon class="cls-3" points="4.26 7.79 2.84 7.79 2.84 3.13 6.41 3.13 6.41 4.55 4.26 4.55 4.26 7.79"/></svg></g></svg>