<?xml version="1.0" encoding="UTF-8" standalone="no"?>
<!DOCTYPE svg PUBLIC "-//W3C//DTD SVG 1.1//EN" "http://www.w3.org/Graphics/SVG/1.1/DTD/svg11.dtd">
<svg xmlns:xlink="http://www.w3.org/1999/xlink" width="432pt" height="288pt" viewBox="0 0 432 288" xmlns="http://www.w3.org/2000/svg" version="1.1">
 <metadata>
  <rdf:RDF xmlns:dc="http://purl.org/dc/elements/1.1/" xmlns:cc="http://creativecommons.org/ns#" xmlns:rdf="http://www.w3.org/1999/02/22-rdf-syntax-ns#">
   <cc:Work>
    <dc:type rdf:resource="http://purl.org/dc/dcmitype/StillImage"/>
    <dc:date>2024-08-07T01:54:04.781912</dc:date>
    <dc:format>image/svg+xml</dc:format>
    <dc:creator>
     <cc:Agent>
      <dc:title>Matplotlib v3.5.1, https://matplotlib.org/</dc:title>
     </cc:Agent>
    </dc:creator>
   </cc:Work>
  </rdf:RDF>
 </metadata>
 <defs>
  <style type="text/css">*{stroke-linejoin: round; stroke-linecap: butt}</style>
 </defs>
 <g id="figure_1">
  <g id="patch_1">
   <path d="M 0 288  L 432 288  L 432 0  L 0 0  z " style="fill: #ffffff"/>
  </g>
  <g id="axes_1">
   <g id="patch_2">
    <path d="M 54 256.32  L 388.8 256.32  L 388.8 34.56  L 54 34.56  z " style="fill: #ffffff"/>
   </g>
   <g id="matplotlib.axis_1">
    <g id="xtick_1">
     <g id="line2d_1">
      <defs>
       <path id="m08d3e52bb9" d="M 0 0  L 0 3.5  " style="stroke: #000000; stroke-width: 0.8"/>
      </defs>
      <g>
       <use xlink:href="#m08d3e52bb9" x="69.218182" y="256.32" style="stroke: #000000; stroke-width: 0.8"/>
      </g>
     </g>
     <g id="text_1">
      <!-- 0 -->
      <g transform="translate(66.036932 270.918437)scale(0.1 -0.1)">
       <defs>
        <path id="DejaVuSans-30" d="M 2034 4250  Q 1547 4250 1301 3770  Q 1056 3291 1056 2328  Q 1056 1369 1301 889  Q 1547 409 2034 409  Q 2525 409 2770 889  Q 3016 1369 3016 2328  Q 3016 3291 2770 3770  Q 2525 4250 2034 4250  z M 2034 4750  Q 2819 4750 3233 4129  Q 3647 3509 3647 2328  Q 3647 1150 3233 529  Q 2819 -91 2034 -91  Q 1250 -91 836 529  Q 422 1150 422 2328  Q 422 3509 836 4129  Q 1250 4750 2034 4750  z " transform="scale(0.015625)"/>
       </defs>
       <use xlink:href="#DejaVuSans-30"/>
      </g>
     </g>
    </g>
    <g id="xtick_2">
     <g id="line2d_2">
      <g>
       <use xlink:href="#m08d3e52bb9" x="107.358988" y="256.32" style="stroke: #000000; stroke-width: 0.8"/>
      </g>
     </g>
     <g id="text_2">
      <!-- 50 -->
      <g transform="translate(100.996488 270.918437)scale(0.1 -0.1)">
       <defs>
        <path id="DejaVuSans-35" d="M 691 4666  L 3169 4666  L 3169 4134  L 1269 4134  L 1269 2991  Q 1406 3038 1543 3061  Q 1681 3084 1819 3084  Q 2600 3084 3056 2656  Q 3513 2228 3513 1497  Q 3513 744 3044 326  Q 2575 -91 1722 -91  Q 1428 -91 1123 -41  Q 819 9 494 109  L 494 744  Q 775 591 1075 516  Q 1375 441 1709 441  Q 2250 441 2565 725  Q 2881 1009 2881 1497  Q 2881 1984 2565 2268  Q 2250 2553 1709 2553  Q 1456 2553 1204 2497  Q 953 2441 691 2322  L 691 4666  z " transform="scale(0.015625)"/>
       </defs>
       <use xlink:href="#DejaVuSans-35"/>
       <use xlink:href="#DejaVuSans-30" x="63.623047"/>
      </g>
     </g>
    </g>
    <g id="xtick_3">
     <g id="line2d_3">
      <g>
       <use xlink:href="#m08d3e52bb9" x="145.499795" y="256.32" style="stroke: #000000; stroke-width: 0.8"/>
      </g>
     </g>
     <g id="text_3">
      <!-- 100 -->
      <g transform="translate(135.956045 270.918437)scale(0.1 -0.1)">
       <defs>
        <path id="DejaVuSans-31" d="M 794 531  L 1825 531  L 1825 4091  L 703 3866  L 703 4441  L 1819 4666  L 2450 4666  L 2450 531  L 3481 531  L 3481 0  L 794 0  L 794 531  z " transform="scale(0.015625)"/>
       </defs>
       <use xlink:href="#DejaVuSans-31"/>
       <use xlink:href="#DejaVuSans-30" x="63.623047"/>
       <use xlink:href="#DejaVuSans-30" x="127.246094"/>
      </g>
     </g>
    </g>
    <g id="xtick_4">
     <g id="line2d_4">
      <g>
       <use xlink:href="#m08d3e52bb9" x="183.640602" y="256.32" style="stroke: #000000; stroke-width: 0.8"/>
      </g>
     </g>
     <g id="text_4">
      <!-- 150 -->
      <g transform="translate(174.096852 270.918437)scale(0.1 -0.1)">
       <use xlink:href="#DejaVuSans-31"/>
       <use xlink:href="#DejaVuSans-35" x="63.623047"/>
       <use xlink:href="#DejaVuSans-30" x="127.246094"/>
      </g>
     </g>
    </g>
    <g id="xtick_5">
     <g id="line2d_5">
      <g>
       <use xlink:href="#m08d3e52bb9" x="221.781408" y="256.32" style="stroke: #000000; stroke-width: 0.8"/>
      </g>
     </g>
     <g id="text_5">
      <!-- 200 -->
      <g transform="translate(212.237658 270.918437)scale(0.1 -0.1)">
       <defs>
        <path id="DejaVuSans-32" d="M 1228 531  L 3431 531  L 3431 0  L 469 0  L 469 531  Q 828 903 1448 1529  Q 2069 2156 2228 2338  Q 2531 2678 2651 2914  Q 2772 3150 2772 3378  Q 2772 3750 2511 3984  Q 2250 4219 1831 4219  Q 1534 4219 1204 4116  Q 875 4013 500 3803  L 500 4441  Q 881 4594 1212 4672  Q 1544 4750 1819 4750  Q 2544 4750 2975 4387  Q 3406 4025 3406 3419  Q 3406 3131 3298 2873  Q 3191 2616 2906 2266  Q 2828 2175 2409 1742  Q 1991 1309 1228 531  z " transform="scale(0.015625)"/>
       </defs>
       <use xlink:href="#DejaVuSans-32"/>
       <use xlink:href="#DejaVuSans-30" x="63.623047"/>
       <use xlink:href="#DejaVuSans-30" x="127.246094"/>
      </g>
     </g>
    </g>
    <g id="xtick_6">
     <g id="line2d_6">
      <g>
       <use xlink:href="#m08d3e52bb9" x="259.922215" y="256.32" style="stroke: #000000; stroke-width: 0.8"/>
      </g>
     </g>
     <g id="text_6">
      <!-- 250 -->
      <g transform="translate(250.378465 270.918437)scale(0.1 -0.1)">
       <use xlink:href="#DejaVuSans-32"/>
       <use xlink:href="#DejaVuSans-35" x="63.623047"/>
       <use xlink:href="#DejaVuSans-30" x="127.246094"/>
      </g>
     </g>
    </g>
    <g id="xtick_7">
     <g id="line2d_7">
      <g>
       <use xlink:href="#m08d3e52bb9" x="298.063021" y="256.32" style="stroke: #000000; stroke-width: 0.8"/>
      </g>
     </g>
     <g id="text_7">
      <!-- 300 -->
      <g transform="translate(288.519271 270.918437)scale(0.1 -0.1)">
       <defs>
        <path id="DejaVuSans-33" d="M 2597 2516  Q 3050 2419 3304 2112  Q 3559 1806 3559 1356  Q 3559 666 3084 287  Q 2609 -91 1734 -91  Q 1441 -91 1130 -33  Q 819 25 488 141  L 488 750  Q 750 597 1062 519  Q 1375 441 1716 441  Q 2309 441 2620 675  Q 2931 909 2931 1356  Q 2931 1769 2642 2001  Q 2353 2234 1838 2234  L 1294 2234  L 1294 2753  L 1863 2753  Q 2328 2753 2575 2939  Q 2822 3125 2822 3475  Q 2822 3834 2567 4026  Q 2313 4219 1838 4219  Q 1578 4219 1281 4162  Q 984 4106 628 3988  L 628 4550  Q 988 4650 1302 4700  Q 1616 4750 1894 4750  Q 2613 4750 3031 4423  Q 3450 4097 3450 3541  Q 3450 3153 3228 2886  Q 3006 2619 2597 2516  z " transform="scale(0.015625)"/>
       </defs>
       <use xlink:href="#DejaVuSans-33"/>
       <use xlink:href="#DejaVuSans-30" x="63.623047"/>
       <use xlink:href="#DejaVuSans-30" x="127.246094"/>
      </g>
     </g>
    </g>
    <g id="xtick_8">
     <g id="line2d_8">
      <g>
       <use xlink:href="#m08d3e52bb9" x="336.203828" y="256.32" style="stroke: #000000; stroke-width: 0.8"/>
      </g>
     </g>
     <g id="text_8">
      <!-- 350 -->
      <g transform="translate(326.660078 270.918437)scale(0.1 -0.1)">
       <use xlink:href="#DejaVuSans-33"/>
       <use xlink:href="#DejaVuSans-35" x="63.623047"/>
       <use xlink:href="#DejaVuSans-30" x="127.246094"/>
      </g>
     </g>
    </g>
    <g id="xtick_9">
     <g id="line2d_9">
      <g>
       <use xlink:href="#m08d3e52bb9" x="374.344634" y="256.32" style="stroke: #000000; stroke-width: 0.8"/>
      </g>
     </g>
     <g id="text_9">
      <!-- 400 -->
      <g transform="translate(364.800884 270.918437)scale(0.1 -0.1)">
       <defs>
        <path id="DejaVuSans-34" d="M 2419 4116  L 825 1625  L 2419 1625  L 2419 4116  z M 2253 4666  L 3047 4666  L 3047 1625  L 3713 1625  L 3713 1100  L 3047 1100  L 3047 0  L 2419 0  L 2419 1100  L 313 1100  L 313 1709  L 2253 4666  z " transform="scale(0.015625)"/>
       </defs>
       <use xlink:href="#DejaVuSans-34"/>
       <use xlink:href="#DejaVuSans-30" x="63.623047"/>
       <use xlink:href="#DejaVuSans-30" x="127.246094"/>
      </g>
     </g>
    </g>
   </g>
   <g id="matplotlib.axis_2">
    <g id="ytick_1">
     <g id="line2d_10">
      <defs>
       <path id="mbd71dc0807" d="M 0 0  L -3.5 0  " style="stroke: #000000; stroke-width: 0.8"/>
      </defs>
      <g>
       <use xlink:href="#mbd71dc0807" x="54" y="236.16" style="stroke: #000000; stroke-width: 0.8"/>
      </g>
     </g>
     <g id="text_10">
      <!-- 0.0005 -->
      <g transform="translate(12.009375 239.959219)scale(0.1 -0.1)">
       <defs>
        <path id="DejaVuSans-2e" d="M 684 794  L 1344 794  L 1344 0  L 684 0  L 684 794  z " transform="scale(0.015625)"/>
       </defs>
       <use xlink:href="#DejaVuSans-30"/>
       <use xlink:href="#DejaVuSans-2e" x="63.623047"/>
       <use xlink:href="#DejaVuSans-30" x="95.410156"/>
       <use xlink:href="#DejaVuSans-30" x="159.033203"/>
       <use xlink:href="#DejaVuSans-30" x="222.65625"/>
       <use xlink:href="#DejaVuSans-35" x="286.279297"/>
      </g>
     </g>
    </g>
    <g id="ytick_2">
     <g id="line2d_11">
      <g>
       <use xlink:href="#mbd71dc0807" x="54" y="195.84" style="stroke: #000000; stroke-width: 0.8"/>
      </g>
     </g>
     <g id="text_11">
      <!-- 0.0010 -->
      <g transform="translate(12.009375 199.639219)scale(0.1 -0.1)">
       <use xlink:href="#DejaVuSans-30"/>
       <use xlink:href="#DejaVuSans-2e" x="63.623047"/>
       <use xlink:href="#DejaVuSans-30" x="95.410156"/>
       <use xlink:href="#DejaVuSans-30" x="159.033203"/>
       <use xlink:href="#DejaVuSans-31" x="222.65625"/>
       <use xlink:href="#DejaVuSans-30" x="286.279297"/>
      </g>
     </g>
    </g>
    <g id="ytick_3">
     <g id="line2d_12">
      <g>
       <use xlink:href="#mbd71dc0807" x="54" y="155.52" style="stroke: #000000; stroke-width: 0.8"/>
      </g>
     </g>
     <g id="text_12">
      <!-- 0.0015 -->
      <g transform="translate(12.009375 159.319219)scale(0.1 -0.1)">
       <use xlink:href="#DejaVuSans-30"/>
       <use xlink:href="#DejaVuSans-2e" x="63.623047"/>
       <use xlink:href="#DejaVuSans-30" x="95.410156"/>
       <use xlink:href="#DejaVuSans-30" x="159.033203"/>
       <use xlink:href="#DejaVuSans-31" x="222.65625"/>
       <use xlink:href="#DejaVuSans-35" x="286.279297"/>
      </g>
     </g>
    </g>
    <g id="ytick_4">
     <g id="line2d_13">
      <g>
       <use xlink:href="#mbd71dc0807" x="54" y="115.2" style="stroke: #000000; stroke-width: 0.8"/>
      </g>
     </g>
     <g id="text_13">
      <!-- 0.0020 -->
      <g transform="translate(12.009375 118.999219)scale(0.1 -0.1)">
       <use xlink:href="#DejaVuSans-30"/>
       <use xlink:href="#DejaVuSans-2e" x="63.623047"/>
       <use xlink:href="#DejaVuSans-30" x="95.410156"/>
       <use xlink:href="#DejaVuSans-30" x="159.033203"/>
       <use xlink:href="#DejaVuSans-32" x="222.65625"/>
       <use xlink:href="#DejaVuSans-30" x="286.279297"/>
      </g>
     </g>
    </g>
    <g id="ytick_5">
     <g id="line2d_14">
      <g>
       <use xlink:href="#mbd71dc0807" x="54" y="74.88" style="stroke: #000000; stroke-width: 0.8"/>
      </g>
     </g>
     <g id="text_14">
      <!-- 0.0025 -->
      <g transform="translate(12.009375 78.679219)scale(0.1 -0.1)">
       <use xlink:href="#DejaVuSans-30"/>
       <use xlink:href="#DejaVuSans-2e" x="63.623047"/>
       <use xlink:href="#DejaVuSans-30" x="95.410156"/>
       <use xlink:href="#DejaVuSans-30" x="159.033203"/>
       <use xlink:href="#DejaVuSans-32" x="222.65625"/>
       <use xlink:href="#DejaVuSans-35" x="286.279297"/>
      </g>
     </g>
    </g>
    <g id="ytick_6">
     <g id="line2d_15">
      <g>
       <use xlink:href="#mbd71dc0807" x="54" y="34.56" style="stroke: #000000; stroke-width: 0.8"/>
      </g>
     </g>
     <g id="text_15">
      <!-- 0.0030 -->
      <g transform="translate(12.009375 38.359219)scale(0.1 -0.1)">
       <use xlink:href="#DejaVuSans-30"/>
       <use xlink:href="#DejaVuSans-2e" x="63.623047"/>
       <use xlink:href="#DejaVuSans-30" x="95.410156"/>
       <use xlink:href="#DejaVuSans-30" x="159.033203"/>
       <use xlink:href="#DejaVuSans-33" x="222.65625"/>
       <use xlink:href="#DejaVuSans-30" x="286.279297"/>
      </g>
     </g>
    </g>
   </g>
   <g id="line2d_16">
    <path d="M 69.218182 195.097173  L 69.980998 192.667262  L 70.743814 195.877294  L 71.50663 194.785435  L 72.269446 195.382917  L 73.032262 195.803797  L 73.795079 195.116972  L 74.557895 196.359279  L 75.320711 196.767072  L 76.083527 195.166567  L 76.846343 194.835359  L 78.371975 195.731803  L 79.134792 195.622276  L 79.897608 194.969002  L 80.660424 194.73645  L 81.42324 195.563574  L 82.186056 193.861081  L 82.948872 195.564128  L 83.711688 193.101576  L 85.237321 194.350454  L 86.000137 194.354472  L 86.762953 195.091099  L 87.525769 194.270752  L 88.288585 198.806679  L 89.051401 196.531553  L 89.814217 197.91446  L 90.577033 195.100356  L 91.33985 195.56334  L 92.102666 195.662934  L 92.865482 197.25638  L 93.628298 195.619103  L 94.391114 196.680489  L 95.15393 198.727296  L 95.916746 197.296475  L 96.679563 196.711844  L 97.442379 197.126557  L 98.205195 197.006478  L 98.968011 196.473199  L 99.730827 201.576914  L 100.493643 195.458066  L 101.256459 202.053571  L 102.019275 196.014279  L 102.782092 202.037518  L 103.544908 201.304914  L 104.307724 198.738148  L 105.07054 198.95562  L 105.833356 199.465839  L 106.596172 197.749292  L 107.358988 201.074013  L 108.121805 199.668092  L 108.884621 204.081908  L 109.647437 200.876636  L 110.410253 203.190867  L 111.173069 205.864343  L 111.935885 203.832828  L 112.698701 201.002892  L 113.461517 202.696495  L 114.224334 202.633818  L 114.98715 199.497593  L 115.749966 202.404597  L 116.512782 200.305435  L 117.275598 204.034782  L 118.038414 201.120356  L 118.80123 200.930536  L 119.564046 205.055608  L 120.326863 199.126937  L 121.089679 203.917806  L 121.852495 199.391366  L 122.615311 202.831918  L 123.378127 202.278774  L 124.140943 205.92395  L 124.903759 207.374092  L 125.666576 209.311062  L 127.192208 202.422223  L 127.955024 204.343356  L 128.71784 200.636263  L 129.480656 202.902058  L 130.243472 199.565752  L 131.006288 200.358551  L 131.769105 201.668712  L 132.531921 201.775159  L 133.294737 202.286059  L 134.057553 203.81923  L 134.820369 201.598276  L 135.583185 200.821141  L 136.346001 197.299469  L 137.108817 199.230868  L 137.871634 199.314114  L 138.63445 198.981812  L 140.160082 202.759449  L 140.922898 202.273348  L 141.685714 203.268048  L 142.44853 202.77753  L 143.211347 203.550196  L 143.974163 201.764777  L 144.736979 203.074248  L 145.499795 201.742101  L 146.262611 200.163549  L 147.025427 202.940271  L 147.788243 203.495105  L 148.551059 202.736261  L 149.313876 206.170467  L 150.076692 202.379175  L 150.839508 203.573314  L 151.602324 201.272414  L 152.36514 196.074201  L 153.127956 201.121318  L 153.890772 195.944407  L 154.653589 198.841554  L 155.416405 199.613423  L 156.179221 201.541142  L 156.942037 200.834495  L 157.704853 200.349238  L 158.467669 199.351102  L 159.230485 200.10389  L 159.993301 195.097239  L 160.756118 198.276544  L 161.518934 197.84707  L 162.28175 199.372783  L 163.044566 200.292259  L 163.807382 197.110344  L 164.570198 198.143253  L 165.333014 196.859983  L 166.09583 197.891272  L 166.858647 195.392708  L 167.621463 197.517039  L 168.384279 194.576548  L 169.147095 199.748578  L 169.909911 197.164248  L 170.672727 201.464313  L 171.435543 200.016208  L 172.19836 194.93576  L 172.961176 194.107669  L 173.723992 197.851332  L 174.486808 196.036594  L 175.249624 196.505427  L 176.01244 192.715562  L 176.775256 186.466881  L 177.538072 191.394098  L 178.300889 190.136123  L 179.063705 187.514665  L 179.826521 194.699537  L 180.589337 181.669009  L 181.352153 186.825953  L 182.114969 180.690723  L 182.877785 183.594001  L 183.640602 176.335829  L 184.403418 177.942624  L 185.166234 186.803065  L 185.92905 182.787473  L 186.691866 181.458273  L 187.454682 183.886429  L 188.217498 182.393207  L 188.980314 179.189831  L 189.743131 183.189174  L 190.505947 171.563501  L 191.268763 166.904116  L 192.031579 168.37707  L 192.794395 155.287371  L 193.557211 170.430824  L 194.320027 162.798608  L 195.082843 168.690188  L 195.84566 167.239117  L 196.608476 166.549898  L 197.371292 161.566205  L 198.134108 170.397742  L 198.896924 151.266192  L 199.65974 156.469512  L 200.422556 159.473586  L 201.185373 158.212616  L 201.948189 148.494568  L 202.711005 165.694028  L 203.473821 156.445704  L 204.236637 167.964104  L 204.999453 163.333211  L 205.762269 154.848983  L 206.525085 170.066946  L 207.287902 163.054217  L 208.050718 176.364199  L 208.813534 186.882758  L 209.57635 171.887293  L 210.339166 160.001937  L 211.101982 182.526625  L 211.864798 149.119237  L 212.627614 194.451222  L 213.390431 161.263075  L 214.153247 199.788054  L 214.916063 145.271572  L 215.678879 184.858725  L 216.441695 185.705987  L 217.967327 196.183925  L 218.730144 163.987001  L 219.49296 121.66414  L 220.255776 64.317192  L 221.018592 218.85272  L 221.781408 200.422627  L 222.544224 177.585458  L 223.30704 164.644621  L 224.069856 145.641026  L 224.832673 159.476552  L 225.595489 185.110908  L 226.358305 123.412718  L 227.121121 142.100875  L 227.883937 137.022  L 228.646753 140.23895  L 229.409569 176.426956  L 230.172386 182.360115  L 230.935202 175.063763  L 231.698018 170.044444  L 232.460834 174.159734  L 233.22365 180.803563  L 233.986466 166.475576  L 234.749282 168.676661  L 235.512098 156.211171  L 236.274915 174.583834  L 237.037731 168.094424  L 237.800547 173.281634  L 238.563363 177.090706  L 239.326179 178.366912  L 240.088995 166.598921  L 240.851811 181.912292  L 241.614627 160.082643  L 242.377444 181.135936  L 243.14026 170.785333  L 243.903076 174.273476  L 244.665892 178.94636  L 245.428708 175.760361  L 246.191524 179.717863  L 246.95434 181.623047  L 247.717157 174.102788  L 248.479973 184.279502  L 249.242789 172.774621  L 250.005605 183.92167  L 250.768421 169.988643  L 251.531237 179.161565  L 252.294053 174.509117  L 253.056869 179.279061  L 253.819686 178.723664  L 254.582502 182.541261  L 255.345318 182.121113  L 256.108134 183.08497  L 256.87095 180.320771  L 257.633766 182.647154  L 258.396582 182.614644  L 259.159398 183.095569  L 259.922215 179.207311  L 260.685031 182.411053  L 261.447847 186.745857  L 262.210663 188.815833  L 262.973479 195.394924  L 263.736295 188.978775  L 264.499111 193.181062  L 265.261928 187.681607  L 266.024744 193.743537  L 266.78756 181.962882  L 267.550376 187.751555  L 268.313192 185.708324  L 269.076008 194.897055  L 269.838824 194.906255  L 270.60164 199.324206  L 272.127273 191.397111  L 272.890089 197.558458  L 273.652905 193.24289  L 274.415721 186.936052  L 275.178537 192.769175  L 275.941353 189.140075  L 276.70417 195.495344  L 277.466986 194.943637  L 278.229802 200.178203  L 278.992618 196.069226  L 279.755434 196.662606  L 280.51825 198.346197  L 281.281066 192.281858  L 282.043882 198.982849  L 282.806699 194.429105  L 283.569515 198.771437  L 284.332331 199.595676  L 285.095147 201.62581  L 285.857963 200.613916  L 286.620779 199.206723  L 287.383595 201.61937  L 288.146411 201.349482  L 288.909228 195.521592  L 289.672044 198.90172  L 290.43486 198.680827  L 291.197676 200.803783  L 291.960492 197.505783  L 292.723308 199.755473  L 293.486124 198.48214  L 294.248941 201.59683  L 295.011757 199.718462  L 295.774573 200.64835  L 296.537389 197.543062  L 297.300205 196.975799  L 298.063021 200.916215  L 298.825837 199.968983  L 299.588653 202.115371  L 300.35147 199.926072  L 301.114286 200.291382  L 301.877102 202.791686  L 302.639918 200.765706  L 303.402734 202.976752  L 304.16555 199.28359  L 304.928366 201.984346  L 305.691183 201.356514  L 306.453999 204.79516  L 307.216815 204.345868  L 307.979631 200.99986  L 308.742447 204.563949  L 309.505263 199.892746  L 310.268079 205.78013  L 311.030895 200.691064  L 311.793712 202.601388  L 312.556528 203.182385  L 313.319344 203.255328  L 314.08216 201.806881  L 314.844976 204.447781  L 315.607792 203.486397  L 316.370608 203.04271  L 317.133424 201.845018  L 318.659057 198.084133  L 319.421873 201.199663  L 320.184689 198.053999  L 320.947505 203.536927  L 321.710321 195.227644  L 322.473137 200.495912  L 323.235954 195.542452  L 323.99877 200.516222  L 324.761586 199.953447  L 325.524402 199.865249  L 326.287218 200.72639  L 327.050034 195.708333  L 327.81285 202.899814  L 328.575666 194.675589  L 329.338483 202.736149  L 330.101299 194.773343  L 330.864115 200.75123  L 331.626931 198.291302  L 332.389747 199.985107  L 333.152563 196.547052  L 333.915379 198.969833  L 334.678195 198.589222  L 335.441012 195.784045  L 336.203828 194.396989  L 336.966644 198.757346  L 337.72946 194.476071  L 338.492276 195.397008  L 339.255092 196.789274  L 340.017908 194.776075  L 340.780725 195.018279  L 342.306357 194.337912  L 343.069173 196.192975  L 343.831989 194.875679  L 344.594805 197.88869  L 345.357621 196.238092  L 346.120437 195.525958  L 346.883254 196.186901  L 347.64607 196.360189  L 348.408886 195.333378  L 349.171702 195.055407  L 349.934518 195.336532  L 350.697334 192.487018  L 351.46015 193.093803  L 352.222967 191.854331  L 352.985783 192.303187  L 353.748599 192.946791  L 354.511415 193.323089  L 355.274231 194.569263  L 356.037047 191.350201  L 356.799863 191.391469  L 357.562679 191.834617  L 358.325496 193.559125  L 359.088312 191.945928  L 359.851128 193.81387  L 360.613944 193.26956  L 361.37676 193.193698  L 362.139576 193.746081  L 362.902392 195.21727  L 363.665208 193.213459  L 364.428025 193.129092  L 365.190841 193.565987  L 365.953657 192.462713  L 366.716473 194.516148  L 368.242105 194.944397  L 369.004921 194.870666  L 369.767738 194.376721  L 370.530554 194.641568  L 371.29337 193.141521  L 372.056186 194.071488  L 372.819002 193.091278  L 373.581818 194.479057  L 373.581818 194.479057  " clip-path="url(#pb938fda2c3)" style="fill: none; stroke: #1f77b4; stroke-width: 1.5; stroke-linecap: square"/>
   </g>
   <g id="line2d_17">
    <path d="M 69.218182 194.477714  L 69.980998 195.953362  L 70.743814 195.744898  L 71.50663 204.807017  L 72.269446 194.167929  L 73.032262 195.951447  L 73.795079 195.746325  L 74.557895 194.093362  L 75.320711 203.061387  L 76.083527 196.05076  L 76.846343 197.912821  L 77.609159 195.069836  L 78.371975 196.595098  L 79.134792 194.870703  L 79.897608 196.77584  L 80.660424 200.096042  L 81.42324 197.645858  L 82.186056 191.962074  L 82.948872 198.062513  L 83.711688 192.889291  L 84.474504 199.279708  L 85.237321 196.881537  L 86.000137 197.4304  L 86.762953 196.560843  L 87.525769 196.869389  L 88.288585 201.331706  L 89.051401 196.822047  L 89.814217 197.808092  L 90.577033 190.623027  L 91.33985 195.52577  L 92.102666 194.736234  L 92.865482 187.427303  L 93.628298 199.491763  L 94.391114 194.863081  L 95.15393 201.079299  L 95.916746 198.187844  L 96.679563 200.390882  L 97.442379 205.276713  L 98.205195 187.052751  L 98.968011 200.976723  L 99.730827 194.856519  L 100.493643 194.147107  L 101.256459 200.119234  L 102.019275 191.013303  L 102.782092 193.918215  L 103.544908 194.981939  L 104.307724 192.073554  L 105.833356 198.831998  L 106.596172 197.59507  L 107.358988 195.013641  L 108.884621 199.10358  L 109.647437 197.100365  L 110.410253 195.410714  L 111.173069 194.513651  L 111.935885 199.831359  L 112.698701 197.643548  L 113.461517 203.521982  L 114.224334 195.579149  L 114.98715 199.667675  L 115.749966 195.423932  L 116.512782 198.413187  L 117.275598 204.269297  L 118.038414 198.062945  L 118.80123 197.692524  L 119.564046 198.494147  L 120.326863 191.855533  L 121.089679 202.282937  L 121.852495 193.769701  L 122.615311 204.335715  L 123.378127 189.464788  L 124.140943 195.056552  L 124.903759 202.659991  L 125.666576 203.781637  L 126.429392 200.549652  L 127.192208 194.129645  L 127.955024 199.880922  L 128.71784 197.973508  L 129.480656 194.861785  L 130.243472 201.500381  L 131.006288 199.811218  L 131.769105 193.187878  L 132.531921 198.226442  L 133.294737 193.778816  L 134.057553 198.38387  L 134.820369 194.028774  L 135.583185 197.621994  L 136.346001 193.875022  L 137.108817 193.848107  L 137.871634 191.790288  L 138.63445 196.229474  L 139.397266 192.816593  L 140.160082 192.554262  L 140.922898 197.999203  L 141.685714 195.741003  L 142.44853 191.27003  L 143.211347 202.365122  L 143.974163 200.266903  L 144.736979 194.033966  L 145.499795 196.194655  L 146.262611 197.713168  L 147.025427 192.911165  L 147.788243 196.820028  L 148.551059 195.278798  L 149.313876 195.96659  L 150.076692 190.911531  L 150.839508 198.712543  L 151.602324 196.898472  L 152.36514 189.235887  L 153.127956 201.192524  L 153.890772 190.207385  L 154.653589 194.866845  L 155.416405 197.354678  L 156.179221 196.982295  L 156.942037 200.857607  L 157.704853 196.063499  L 158.467669 201.953897  L 159.230485 194.696233  L 159.993301 199.941595  L 160.756118 197.053558  L 161.518934 195.491683  L 162.28175 195.580454  L 163.044566 194.830167  L 163.807382 198.252117  L 164.570198 193.920008  L 165.333014 197.286833  L 166.09583 194.333181  L 166.858647 189.900059  L 167.621463 199.506182  L 168.384279 188.899749  L 169.147095 196.569967  L 169.909911 196.238083  L 170.672727 192.159855  L 171.435543 193.60091  L 172.19836 195.7964  L 172.961176 197.158137  L 173.723992 194.179701  L 174.486808 189.408452  L 175.249624 182.282375  L 176.01244 197.412929  L 176.775256 200.245612  L 177.538072 192.789453  L 178.300889 201.102913  L 179.063705 192.49986  L 179.826521 195.322056  L 180.589337 191.275728  L 181.352153 197.886263  L 182.114969 195.07392  L 182.877785 198.080364  L 183.640602 199.670247  L 184.403418 199.622318  L 185.166234 193.299995  L 185.92905 204.185563  L 186.691866 198.397078  L 187.454682 202.690369  L 188.217498 194.398322  L 188.980314 195.027253  L 189.743131 197.22386  L 190.505947 195.927734  L 191.268763 198.395928  L 192.031579 198.739801  L 192.794395 195.899148  L 193.557211 198.495621  L 194.320027 190.134593  L 195.082843 193.461558  L 195.84566 194.146956  L 196.608476 201.790865  L 197.371292 193.404396  L 198.134108 200.402701  L 198.896924 201.267513  L 199.65974 196.448481  L 200.422556 196.448349  L 201.185373 200.038927  L 201.948189 198.011979  L 202.711005 198.408376  L 203.473821 195.623233  L 204.236637 197.035608  L 204.999453 191.032539  L 205.762269 193.865587  L 206.525085 194.8614  L 207.287902 195.464412  L 208.050718 194.178236  L 208.813534 199.93301  L 209.57635 203.875796  L 210.339166 201.670097  L 211.101982 197.137484  L 211.864798 197.210445  L 212.627614 189.940211  L 213.390431 199.762139  L 214.153247 197.969336  L 214.916063 193.533844  L 215.678879 205.031618  L 216.441695 197.054083  L 217.204511 203.13056  L 217.967327 198.785801  L 218.730144 199.175607  L 219.49296 204.178128  L 220.255776 192.415727  L 221.018592 198.650542  L 221.781408 199.658475  L 222.544224 202.109137  L 223.30704 196.917426  L 224.069856 194.890934  L 224.832673 201.109532  L 225.595489 195.634649  L 226.358305 203.83249  L 227.121121 194.434578  L 227.883937 194.818658  L 228.646753 196.914422  L 229.409569 200.196176  L 230.172386 201.360691  L 230.935202 194.947486  L 231.698018 194.419501  L 232.460834 196.888427  L 233.22365 200.671345  L 233.986466 197.053614  L 234.749282 190.205085  L 235.512098 195.848239  L 236.274915 199.197077  L 237.037731 197.015688  L 237.800547 199.783482  L 238.563363 194.584659  L 239.326179 194.044583  L 240.088995 201.208492  L 240.851811 200.554121  L 241.614627 192.036726  L 242.377444 198.473316  L 243.14026 198.361569  L 243.903076 203.576773  L 244.665892 194.882372  L 245.428708 200.220387  L 246.191524 194.244251  L 246.95434 194.642422  L 247.717157 197.881161  L 248.479973 198.16161  L 249.242789 190.062627  L 250.005605 199.499982  L 250.768421 201.123942  L 253.056869 189.16392  L 253.819686 192.524071  L 254.582502 197.564982  L 255.345318 193.920674  L 256.87095 193.020954  L 257.633766 200.876509  L 258.396582 195.471143  L 259.159398 197.52976  L 259.922215 195.205827  L 260.685031 190.611555  L 261.447847 198.841071  L 262.210663 196.562016  L 262.973479 203.236918  L 263.736295 193.307731  L 264.499111 197.068569  L 265.261928 192.810622  L 266.024744 199.799408  L 266.78756 200.840357  L 267.550376 194.42457  L 268.313192 201.472494  L 269.076008 190.654176  L 269.838824 200.760393  L 270.60164 198.766584  L 271.364457 194.885358  L 272.127273 199.105796  L 272.890089 198.908869  L 274.415721 201.880654  L 275.178537 193.602534  L 275.941353 200.041978  L 276.70417 204.959023  L 277.466986 204.605603  L 278.229802 200.279591  L 278.992618 193.835349  L 279.755434 194.25637  L 280.51825 202.590019  L 281.281066 192.837424  L 282.043882 199.224287  L 282.806699 194.180348  L 283.569515 200.607452  L 284.332331 193.589466  L 285.095147 196.886738  L 285.857963 201.264288  L 286.620779 191.852726  L 287.383595 201.337841  L 288.146411 196.629251  L 288.909228 189.833829  L 289.672044 199.85573  L 290.43486 193.047493  L 291.197676 196.35281  L 291.960492 194.807562  L 292.723308 191.010759  L 293.486124 198.791353  L 294.248941 196.370037  L 295.011757 200.409963  L 295.774573 193.33611  L 296.537389 195.775418  L 297.300205 194.22495  L 298.063021 190.912939  L 298.825837 201.570854  L 299.588653 197.030774  L 300.35147 190.006788  L 301.114286 195.007868  L 301.877102 190.861466  L 302.639918 193.220941  L 303.402734 195.028737  L 304.16555 192.985854  L 304.928366 200.980849  L 305.691183 188.4367  L 306.453999 198.781994  L 307.216815 196.407776  L 307.979631 195.113264  L 309.505263 190.360941  L 310.268079 193.012346  L 311.030895 194.937957  L 311.793712 194.398379  L 312.556528 196.069601  L 313.319344 189.583852  L 314.08216 195.514308  L 314.844976 189.953166  L 315.607792 201.191989  L 316.370608 196.232272  L 317.133424 195.481253  L 317.896241 197.809397  L 318.659057 194.821624  L 319.421873 193.407982  L 320.184689 197.415211  L 320.947505 193.3427  L 321.710321 198.009172  L 322.473137 192.631251  L 323.235954 200.335147  L 323.99877 201.517537  L 324.761586 195.629016  L 325.524402 199.908141  L 326.287218 192.603641  L 327.050034 192.00753  L 327.81285 205.097135  L 328.575666 192.746786  L 329.338483 203.857119  L 330.101299 192.175138  L 331.626931 198.946969  L 332.389747 198.020381  L 333.152563 199.800751  L 333.915379 193.314659  L 334.678195 197.482699  L 335.441012 190.806323  L 336.203828 190.013012  L 336.966644 203.80029  L 337.72946 196.733483  L 338.492276 199.167863  L 339.255092 196.866807  L 340.017908 196.77171  L 340.780725 194.881697  L 341.543541 192.032323  L 342.306357 196.707779  L 343.069173 191.506685  L 343.831989 197.000939  L 344.594805 195.909212  L 345.357621 196.464017  L 346.120437 195.962703  L 346.883254 196.504366  L 347.64607 199.253239  L 348.408886 198.043076  L 349.171702 200.346211  L 349.934518 200.295465  L 350.697334 198.235022  L 351.46015 192.876975  L 352.222967 199.540532  L 352.985783 195.062795  L 353.748599 197.863836  L 354.511415 208.27998  L 355.274231 199.996954  L 356.037047 197.167863  L 356.799863 198.924927  L 357.562679 194.987675  L 358.325496 204.843652  L 359.088312 204.39452  L 359.851128 206.949489  L 361.37676 191.409794  L 362.139576 200.238388  L 362.902392 201.113137  L 363.665208 202.387883  L 364.428025 189.742815  L 365.190841 196.268649  L 365.953657 199.244772  L 366.716473 194.35404  L 367.479289 205.98704  L 368.242105 197.361973  L 369.004921 198.930888  L 369.767738 194.399665  L 370.530554 195.7757  L 371.29337 196.6127  L 372.056186 202.146149  L 372.819002 197.354059  L 373.581818 202.738937  L 373.581818 202.738937  " clip-path="url(#pb938fda2c3)" style="fill: none; stroke-dasharray: 5.55,2.4; stroke-dashoffset: 0; stroke: #ff7f0e; stroke-width: 1.5"/>
   </g>
   <g id="patch_3">
    <path d="M 54 256.32  L 54 34.56  " style="fill: none; stroke: #000000; stroke-width: 0.8; stroke-linejoin: miter; stroke-linecap: square"/>
   </g>
   <g id="patch_4">
    <path d="M 388.8 256.32  L 388.8 34.56  " style="fill: none; stroke: #000000; stroke-width: 0.8; stroke-linejoin: miter; stroke-linecap: square"/>
   </g>
   <g id="patch_5">
    <path d="M 54 256.32  L 388.8 256.32  " style="fill: none; stroke: #000000; stroke-width: 0.8; stroke-linejoin: miter; stroke-linecap: square"/>
   </g>
   <g id="patch_6">
    <path d="M 54 34.56  L 388.8 34.56  " style="fill: none; stroke: #000000; stroke-width: 0.8; stroke-linejoin: miter; stroke-linecap: square"/>
   </g>
  </g>
 </g>
 <defs>
  <clipPath id="pb938fda2c3">
   <rect x="54" y="34.56" width="334.8" height="221.76"/>
  </clipPath>
 </defs>
</svg>