<?xml version="1.0" encoding="utf-8" standalone="no"?>
<!DOCTYPE svg PUBLIC "-//W3C//DTD SVG 1.1//EN"
  "http://www.w3.org/Graphics/SVG/1.1/DTD/svg11.dtd">
<svg xmlns:xlink="http://www.w3.org/1999/xlink" width="360pt" height="360pt" viewBox="0 0 360 360" xmlns="http://www.w3.org/2000/svg" version="1.1">
 <metadata>
  <rdf:RDF xmlns:dc="http://purl.org/dc/elements/1.1/" xmlns:cc="http://creativecommons.org/ns#" xmlns:rdf="http://www.w3.org/1999/02/22-rdf-syntax-ns#">
   <cc:Work>
    <dc:type rdf:resource="http://purl.org/dc/dcmitype/StillImage"/>
    <dc:date>2024-05-20T18:36:58.015354</dc:date>
    <dc:format>image/svg+xml</dc:format>
    <dc:creator>
     <cc:Agent>
      <dc:title>Matplotlib v3.5.2, https://matplotlib.org/</dc:title>
     </cc:Agent>
    </dc:creator>
   </cc:Work>
  </rdf:RDF>
 </metadata>
 <defs>
  <style type="text/css">*{stroke-linejoin: round; stroke-linecap: butt}</style>
 </defs>
 <g id="figure_1">
  <g id="patch_1">
   <path d="M 0 360 
L 360 360 
L 360 0 
L 0 0 
L 0 360 
z
" style="fill: none"/>
  </g>
  <g id="axes_1">
   <g id="patch_2">
    <path d="M 46.55 318.2 
L 349.2 318.2 
L 349.2 10.8 
L 46.55 10.8 
z
" style="fill: #ffffff"/>
   </g>
   <g id="patch_3">
    <path d="M 96.991667 235.182036 
L 96.991667 235.182036 
L 96.991667 235.182036 
L 96.991667 235.182036 
z
" clip-path="url(#p7954e11d32)" style="fill: #3274a1; stroke: #3f3f3f; stroke-width: 0.75; stroke-linejoin: miter"/>
   </g>
   <g id="PolyCollection_1">
    <defs>
     <path id="m9f7ccdad7a" d="M 77.732264 -107.625081 
L 75.897736 -107.625081 
L 75.747511 -107.760144 
L 75.579507 -107.895208 
L 75.392867 -108.030272 
L 75.186901 -108.165336 
L 74.961123 -108.300399 
L 74.715276 -108.435463 
L 74.449358 -108.570527 
L 74.163644 -108.70559 
L 73.858695 -108.840654 
L 73.53536 -108.975718 
L 73.194773 -109.110782 
L 72.838333 -109.245845 
L 72.467675 -109.380909 
L 72.084637 -109.515973 
L 71.691208 -109.651037 
L 71.289475 -109.7861 
L 70.88156 -109.921164 
L 70.469558 -110.056228 
L 70.055467 -110.191291 
L 69.641125 -110.326355 
L 69.228152 -110.461419 
L 68.817899 -110.596483 
L 68.411403 -110.731546 
L 68.009364 -110.86661 
L 67.612133 -111.001674 
L 67.219709 -111.136737 
L 66.831767 -111.271801 
L 66.447685 -111.406865 
L 66.066601 -111.541929 
L 65.687469 -111.676992 
L 65.309133 -111.812056 
L 64.930406 -111.94712 
L 64.550148 -112.082183 
L 64.167344 -112.217247 
L 63.781182 -112.352311 
L 63.391112 -112.487375 
L 62.996906 -112.622438 
L 62.598696 -112.757502 
L 62.196999 -112.892566 
L 61.792725 -113.027629 
L 61.387174 -113.162693 
L 60.982013 -113.297757 
L 60.579246 -113.432821 
L 60.181166 -113.567884 
L 59.790308 -113.702948 
L 59.409391 -113.838012 
L 59.041264 -113.973075 
L 58.688849 -114.108139 
L 58.355093 -114.243203 
L 58.042917 -114.378267 
L 57.755184 -114.51333 
L 57.494663 -114.648394 
L 57.264012 -114.783458 
L 57.065755 -114.918522 
L 56.902273 -115.053585 
L 56.775799 -115.188649 
L 56.688406 -115.323713 
L 56.642006 -115.458776 
L 56.638333 -115.59384 
L 56.678938 -115.728904 
L 56.765161 -115.863968 
L 56.898115 -115.999031 
L 57.078649 -116.134095 
L 57.307316 -116.269159 
L 57.584333 -116.404222 
L 57.909544 -116.539286 
L 58.282377 -116.67435 
L 58.701809 -116.809414 
L 59.166341 -116.944477 
L 59.673971 -117.079541 
L 60.222189 -117.214605 
L 60.807979 -117.349668 
L 61.427837 -117.484732 
L 62.077802 -117.619796 
L 62.753508 -117.75486 
L 63.45024 -117.889923 
L 64.163011 -118.024987 
L 64.886643 -118.160051 
L 65.615858 -118.295114 
L 66.345376 -118.430178 
L 67.070007 -118.565242 
L 67.784746 -118.700306 
L 68.484864 -118.835369 
L 69.165981 -118.970433 
L 69.824142 -119.105497 
L 70.455869 -119.24056 
L 71.058204 -119.375624 
L 71.628735 -119.510688 
L 72.165611 -119.645752 
L 72.667538 -119.780815 
L 73.133762 -119.915879 
L 73.564043 -120.050943 
L 73.958616 -120.186007 
L 74.318145 -120.32107 
L 74.64367 -120.456134 
L 74.936549 -120.591198 
L 75.198403 -120.726261 
L 75.431055 -120.861325 
L 75.636474 -120.996389 
L 77.993526 -120.996389 
L 77.993526 -120.996389 
L 78.198945 -120.861325 
L 78.431597 -120.726261 
L 78.693451 -120.591198 
L 78.98633 -120.456134 
L 79.311855 -120.32107 
L 79.671384 -120.186007 
L 80.065957 -120.050943 
L 80.496238 -119.915879 
L 80.962462 -119.780815 
L 81.464389 -119.645752 
L 82.001265 -119.510688 
L 82.571796 -119.375624 
L 83.174131 -119.24056 
L 83.805858 -119.105497 
L 84.464019 -118.970433 
L 85.145136 -118.835369 
L 85.845254 -118.700306 
L 86.559993 -118.565242 
L 87.284624 -118.430178 
L 88.014142 -118.295114 
L 88.743357 -118.160051 
L 89.466989 -118.024987 
L 90.17976 -117.889923 
L 90.876492 -117.75486 
L 91.552198 -117.619796 
L 92.202163 -117.484732 
L 92.822021 -117.349668 
L 93.407811 -117.214605 
L 93.956029 -117.079541 
L 94.463659 -116.944477 
L 94.928191 -116.809414 
L 95.347623 -116.67435 
L 95.720456 -116.539286 
L 96.045667 -116.404222 
L 96.322684 -116.269159 
L 96.551351 -116.134095 
L 96.731885 -115.999031 
L 96.864839 -115.863968 
L 96.951062 -115.728904 
L 96.991667 -115.59384 
L 96.987994 -115.458776 
L 96.941594 -115.323713 
L 96.854201 -115.188649 
L 96.727727 -115.053585 
L 96.564245 -114.918522 
L 96.365988 -114.783458 
L 96.135337 -114.648394 
L 95.874816 -114.51333 
L 95.587083 -114.378267 
L 95.274907 -114.243203 
L 94.941151 -114.108139 
L 94.588736 -113.973075 
L 94.220609 -113.838012 
L 93.839692 -113.702948 
L 93.448834 -113.567884 
L 93.050754 -113.432821 
L 92.647987 -113.297757 
L 92.242826 -113.162693 
L 91.837275 -113.027629 
L 91.433001 -112.892566 
L 91.031304 -112.757502 
L 90.633094 -112.622438 
L 90.238888 -112.487375 
L 89.848818 -112.352311 
L 89.462656 -112.217247 
L 89.079852 -112.082183 
L 88.699594 -111.94712 
L 88.320867 -111.812056 
L 87.942531 -111.676992 
L 87.563399 -111.541929 
L 87.182315 -111.406865 
L 86.798233 -111.271801 
L 86.410291 -111.136737 
L 86.017867 -111.001674 
L 85.620636 -110.86661 
L 85.218597 -110.731546 
L 84.812101 -110.596483 
L 84.401848 -110.461419 
L 83.988875 -110.326355 
L 83.574533 -110.191291 
L 83.160442 -110.056228 
L 82.74844 -109.921164 
L 82.340525 -109.7861 
L 81.938792 -109.651037 
L 81.545363 -109.515973 
L 81.162325 -109.380909 
L 80.791667 -109.245845 
L 80.435227 -109.110782 
L 80.09464 -108.975718 
L 79.771305 -108.840654 
L 79.466356 -108.70559 
L 79.180642 -108.570527 
L 78.914724 -108.435463 
L 78.668877 -108.300399 
L 78.443099 -108.165336 
L 78.237133 -108.030272 
L 78.050493 -107.895208 
L 77.882489 -107.760144 
L 77.732264 -107.625081 
z
" style="stroke: #3f3f3f; stroke-width: 1.5"/>
    </defs>
    <g clip-path="url(#p7954e11d32)">
     <use xlink:href="#m9f7ccdad7a" x="0" y="360" style="fill: #3274a1; stroke: #3f3f3f; stroke-width: 1.5"/>
    </g>
   </g>
   <g id="patch_4">
    <path d="M 96.991667 235.182036 
L 96.991667 235.182036 
L 96.991667 235.182036 
L 96.991667 235.182036 
z
" clip-path="url(#p7954e11d32)" style="fill: #e1812c; stroke: #3f3f3f; stroke-width: 0.75; stroke-linejoin: miter"/>
   </g>
   <g id="PolyCollection_2">
    <defs>
     <path id="m87714d68e6" d="M 117.172647 -70.41596 
L 117.16402 -70.41596 
L 117.161484 -71.458934 
L 117.157962 -72.501908 
L 117.15332 -73.544882 
L 117.14748 -74.587856 
L 117.140406 -75.63083 
L 117.13206 -76.673804 
L 117.122311 -77.716778 
L 117.11083 -78.759752 
L 117.096984 -79.802726 
L 117.079756 -80.8457 
L 117.057696 -81.888674 
L 117.028934 -82.931648 
L 116.991259 -83.974622 
L 116.942284 -85.017596 
L 116.879727 -86.06057 
L 116.801781 -87.103544 
L 116.707528 -88.146518 
L 116.597302 -89.189492 
L 116.472855 -90.232466 
L 116.337246 -91.27544 
L 116.194411 -92.318414 
L 116.04849 -93.361388 
L 115.90307 -94.404362 
L 115.760531 -95.447336 
L 115.621651 -96.49031 
L 115.485531 -97.533284 
L 115.34985 -98.576258 
L 115.211343 -99.619232 
L 115.066436 -100.662206 
L 114.911917 -101.70518 
L 114.745576 -102.748154 
L 114.566712 -103.791128 
L 114.376434 -104.834102 
L 114.177689 -105.877076 
L 113.975055 -106.92005 
L 113.774326 -107.963024 
L 113.582045 -109.005998 
L 113.405046 -110.048972 
L 113.250082 -111.091946 
L 113.123473 -112.13492 
L 113.030691 -113.177894 
L 112.975785 -114.220868 
L 112.96067 -115.263842 
L 112.984421 -116.306816 
L 113.042905 -117.34979 
L 113.129074 -118.392764 
L 113.234089 -119.435738 
L 113.349166 -120.478712 
L 113.46767 -121.521686 
L 113.586744 -122.56466 
L 113.707846 -123.607634 
L 113.835884 -124.650608 
L 113.977165 -125.693582 
L 114.136863 -126.736556 
L 114.316876 -127.77953 
L 114.514796 -128.822504 
L 114.724251 -129.865478 
L 114.936397 -130.908452 
L 115.141957 -131.951426 
L 115.333143 -132.9944 
L 115.504946 -134.037374 
L 115.655548 -135.080348 
L 115.785911 -136.123322 
L 115.898795 -137.166296 
L 115.997532 -138.20927 
L 116.084947 -139.252244 
L 116.162694 -140.295218 
L 116.231156 -141.338192 
L 116.289874 -142.381166 
L 116.338285 -143.42414 
L 116.376471 -144.467114 
L 116.405658 -145.510088 
L 116.42829 -146.553062 
L 116.447708 -147.596036 
L 116.46757 -148.63901 
L 116.491198 -149.681984 
L 116.52104 -150.724958 
L 116.558316 -151.767932 
L 116.602903 -152.810906 
L 116.653412 -153.85388 
L 116.707458 -154.896854 
L 116.762067 -155.939828 
L 116.814198 -156.982802 
L 116.861282 -158.025776 
L 116.9017 -159.06875 
L 116.935044 -160.111724 
L 116.962096 -161.154698 
L 116.98451 -162.197672 
L 117.004281 -163.240646 
L 117.023184 -164.28362 
L 117.042333 -165.326594 
L 117.06201 -166.369568 
L 117.081757 -167.412542 
L 117.100671 -168.455516 
L 117.117774 -169.49849 
L 117.132306 -170.541464 
L 117.143895 -171.584438 
L 117.152572 -172.627412 
L 117.158676 -173.670386 
L 117.177991 -173.670386 
L 117.177991 -173.670386 
L 117.184095 -172.627412 
L 117.192772 -171.584438 
L 117.204361 -170.541464 
L 117.218893 -169.49849 
L 117.235995 -168.455516 
L 117.25491 -167.412542 
L 117.274656 -166.369568 
L 117.294333 -165.326594 
L 117.313483 -164.28362 
L 117.332386 -163.240646 
L 117.352157 -162.197672 
L 117.37457 -161.154698 
L 117.401622 -160.111724 
L 117.434966 -159.06875 
L 117.475385 -158.025776 
L 117.522469 -156.982802 
L 117.574599 -155.939828 
L 117.629209 -154.896854 
L 117.683255 -153.85388 
L 117.733764 -152.810906 
L 117.77835 -151.767932 
L 117.815627 -150.724958 
L 117.845469 -149.681984 
L 117.869097 -148.63901 
L 117.888958 -147.596036 
L 117.908377 -146.553062 
L 117.931009 -145.510088 
L 117.960196 -144.467114 
L 117.998382 -143.42414 
L 118.046792 -142.381166 
L 118.10551 -141.338192 
L 118.173973 -140.295218 
L 118.251719 -139.252244 
L 118.339134 -138.20927 
L 118.437872 -137.166296 
L 118.550755 -136.123322 
L 118.681119 -135.080348 
L 118.83172 -134.037374 
L 119.003523 -132.9944 
L 119.19471 -131.951426 
L 119.40027 -130.908452 
L 119.612415 -129.865478 
L 119.82187 -128.822504 
L 120.01979 -127.77953 
L 120.199804 -126.736556 
L 120.359502 -125.693582 
L 120.500783 -124.650608 
L 120.62882 -123.607634 
L 120.749923 -122.56466 
L 120.868997 -121.521686 
L 120.987501 -120.478712 
L 121.102578 -119.435738 
L 121.207592 -118.392764 
L 121.293761 -117.34979 
L 121.352246 -116.306816 
L 121.375996 -115.263842 
L 121.360881 -114.220868 
L 121.305976 -113.177894 
L 121.213193 -112.13492 
L 121.086584 -111.091946 
L 120.93162 -110.048972 
L 120.754622 -109.005998 
L 120.56234 -107.963024 
L 120.361612 -106.92005 
L 120.158977 -105.877076 
L 119.960233 -104.834102 
L 119.769954 -103.791128 
L 119.591091 -102.748154 
L 119.42475 -101.70518 
L 119.270231 -100.662206 
L 119.125323 -99.619232 
L 118.986817 -98.576258 
L 118.851136 -97.533284 
L 118.715016 -96.49031 
L 118.576135 -95.447336 
L 118.433597 -94.404362 
L 118.288177 -93.361388 
L 118.142256 -92.318414 
L 117.999421 -91.27544 
L 117.863812 -90.232466 
L 117.739365 -89.189492 
L 117.629139 -88.146518 
L 117.534886 -87.103544 
L 117.456939 -86.06057 
L 117.394382 -85.017596 
L 117.345408 -83.974622 
L 117.307732 -82.931648 
L 117.278971 -81.888674 
L 117.256911 -80.8457 
L 117.239682 -79.802726 
L 117.225837 -78.759752 
L 117.214355 -77.716778 
L 117.204606 -76.673804 
L 117.19626 -75.63083 
L 117.189187 -74.587856 
L 117.183346 -73.544882 
L 117.178704 -72.501908 
L 117.175183 -71.458934 
L 117.172647 -70.41596 
z
" style="stroke: #3f3f3f; stroke-width: 1.5"/>
    </defs>
    <g clip-path="url(#p7954e11d32)">
     <use xlink:href="#m87714d68e6" x="0" y="360" style="fill: #e1812c; stroke: #3f3f3f; stroke-width: 1.5"/>
    </g>
   </g>
   <g id="PolyCollection_3">
    <defs>
     <path id="m9053981139" d="M 178.186223 -65.27382 
L 177.210443 -65.27382 
L 177.091854 -66.198555 
L 176.950465 -67.12329 
L 176.783334 -68.048024 
L 176.587427 -68.972759 
L 176.359662 -69.897494 
L 176.096962 -70.822229 
L 175.796314 -71.746964 
L 175.454827 -72.671699 
L 175.069797 -73.596433 
L 174.638773 -74.521168 
L 174.159638 -75.445903 
L 173.630682 -76.370638 
L 173.050696 -77.295373 
L 172.419074 -78.220108 
L 171.735924 -79.144842 
L 171.002191 -80.069577 
L 170.219799 -80.994312 
L 169.391784 -81.919047 
L 168.52244 -82.843782 
L 167.617445 -83.768517 
L 166.683969 -84.693251 
L 165.730741 -85.617986 
L 164.768069 -86.542721 
L 163.807788 -87.467456 
L 162.863132 -88.392191 
L 161.94852 -89.316925 
L 161.079252 -90.24166 
L 160.271115 -91.166395 
L 159.53992 -92.09113 
L 158.900977 -93.015865 
L 158.368541 -93.9406 
L 157.955247 -94.865334 
L 157.671587 -95.790069 
L 157.525433 -96.714804 
L 157.521667 -97.639539 
L 157.661919 -98.564274 
L 157.944444 -99.489009 
L 158.364147 -100.413743 
L 158.912749 -101.338478 
L 159.579092 -102.263213 
L 160.349557 -103.187948 
L 161.208578 -104.112683 
L 162.139211 -105.037418 
L 163.123734 -105.962152 
L 164.144235 -106.886887 
L 165.18317 -107.811622 
L 166.223853 -108.736357 
L 167.250873 -109.661092 
L 168.250406 -110.585826 
L 169.210441 -111.510561 
L 170.120899 -112.435296 
L 170.973671 -113.360031 
L 171.762571 -114.284766 
L 172.483238 -115.209501 
L 173.132976 -116.134235 
L 173.710582 -117.05897 
L 174.216154 -117.983705 
L 174.650892 -118.90844 
L 175.016925 -119.833175 
L 175.317144 -120.75791 
L 175.555069 -121.682644 
L 175.734733 -122.607379 
L 175.860594 -123.532114 
L 175.937472 -124.456849 
L 175.970495 -125.381584 
L 175.965057 -126.306318 
L 175.926779 -127.231053 
L 175.861467 -128.155788 
L 175.775057 -129.080523 
L 175.673549 -130.005258 
L 175.562927 -130.929993 
L 175.449054 -131.854727 
L 175.337564 -132.779462 
L 175.233735 -133.704197 
L 175.142364 -134.628932 
L 175.067641 -135.553667 
L 175.01304 -136.478402 
L 174.981222 -137.403136 
L 174.973971 -138.327871 
L 174.992162 -139.252606 
L 175.035761 -140.177341 
L 175.103866 -141.102076 
L 175.194782 -142.026811 
L 175.306127 -142.951545 
L 175.434967 -143.87628 
L 175.577968 -144.801015 
L 175.731551 -145.72575 
L 175.892056 -146.650485 
L 176.055892 -147.575219 
L 176.21967 -148.499954 
L 176.38032 -149.424689 
L 176.535174 -150.349424 
L 176.682022 -151.274159 
L 176.819146 -152.198894 
L 176.945321 -153.123628 
L 177.059793 -154.048363 
L 177.16224 -154.973098 
L 177.252721 -155.897833 
L 177.331609 -156.822568 
L 178.065057 -156.822568 
L 178.065057 -156.822568 
L 178.143946 -155.897833 
L 178.234427 -154.973098 
L 178.336874 -154.048363 
L 178.451346 -153.123628 
L 178.577521 -152.198894 
L 178.714645 -151.274159 
L 178.861493 -150.349424 
L 179.016346 -149.424689 
L 179.176997 -148.499954 
L 179.340775 -147.575219 
L 179.504611 -146.650485 
L 179.665116 -145.72575 
L 179.818699 -144.801015 
L 179.961699 -143.87628 
L 180.09054 -142.951545 
L 180.201885 -142.026811 
L 180.2928 -141.102076 
L 180.360905 -140.177341 
L 180.404504 -139.252606 
L 180.422696 -138.327871 
L 180.415445 -137.403136 
L 180.383627 -136.478402 
L 180.329025 -135.553667 
L 180.254303 -134.628932 
L 180.162932 -133.704197 
L 180.059103 -132.779462 
L 179.947612 -131.854727 
L 179.83374 -130.929993 
L 179.723117 -130.005258 
L 179.62161 -129.080523 
L 179.5352 -128.155788 
L 179.469888 -127.231053 
L 179.43161 -126.306318 
L 179.426172 -125.381584 
L 179.459195 -124.456849 
L 179.536073 -123.532114 
L 179.661934 -122.607379 
L 179.841597 -121.682644 
L 180.079522 -120.75791 
L 180.379742 -119.833175 
L 180.745775 -118.90844 
L 181.180513 -117.983705 
L 181.686084 -117.05897 
L 182.263691 -116.134235 
L 182.913429 -115.209501 
L 183.634095 -114.284766 
L 184.422996 -113.360031 
L 185.275768 -112.435296 
L 186.186226 -111.510561 
L 187.146261 -110.585826 
L 188.145794 -109.661092 
L 189.172814 -108.736357 
L 190.213497 -107.811622 
L 191.252432 -106.886887 
L 192.272933 -105.962152 
L 193.257456 -105.037418 
L 194.188089 -104.112683 
L 195.04711 -103.187948 
L 195.817575 -102.263213 
L 196.483917 -101.338478 
L 197.032519 -100.413743 
L 197.452223 -99.489009 
L 197.734748 -98.564274 
L 197.875 -97.639539 
L 197.871234 -96.714804 
L 197.72508 -95.790069 
L 197.441419 -94.865334 
L 197.028126 -93.9406 
L 196.495689 -93.015865 
L 195.856747 -92.09113 
L 195.125552 -91.166395 
L 194.317415 -90.24166 
L 193.448147 -89.316925 
L 192.533535 -88.392191 
L 191.588879 -87.467456 
L 190.628598 -86.542721 
L 189.665926 -85.617986 
L 188.712698 -84.693251 
L 187.779222 -83.768517 
L 186.874227 -82.843782 
L 186.004883 -81.919047 
L 185.176868 -80.994312 
L 184.394475 -80.069577 
L 183.660743 -79.144842 
L 182.977592 -78.220108 
L 182.34597 -77.295373 
L 181.765985 -76.370638 
L 181.237028 -75.445903 
L 180.757893 -74.521168 
L 180.32687 -73.596433 
L 179.941839 -72.671699 
L 179.600352 -71.746964 
L 179.299705 -70.822229 
L 179.037005 -69.897494 
L 178.809239 -68.972759 
L 178.613332 -68.048024 
L 178.446202 -67.12329 
L 178.304813 -66.198555 
L 178.186223 -65.27382 
z
" style="stroke: #3f3f3f; stroke-width: 1.5"/>
    </defs>
    <g clip-path="url(#p7954e11d32)">
     <use xlink:href="#m9053981139" x="0" y="360" style="fill: #3274a1; stroke: #3f3f3f; stroke-width: 1.5"/>
    </g>
   </g>
   <g id="PolyCollection_4">
    <defs>
     <path id="m27973fdc0f" d="M 218.06966 -55.772727 
L 218.033673 -55.772727 
L 218.023487 -57.272887 
L 218.008686 -58.773047 
L 217.987708 -60.273207 
L 217.958628 -61.773367 
L 217.919112 -63.273528 
L 217.866351 -64.773688 
L 217.797003 -66.273848 
L 217.707139 -67.774008 
L 217.592226 -69.274168 
L 217.447163 -70.774328 
L 217.266376 -72.274488 
L 217.043994 -73.774648 
L 216.774098 -75.274808 
L 216.451034 -76.774968 
L 216.069804 -78.275128 
L 215.626532 -79.775288 
L 215.119033 -81.275448 
L 214.5475 -82.775608 
L 213.915287 -84.275768 
L 213.229688 -85.775928 
L 212.502572 -87.276088 
L 211.750616 -88.776248 
L 210.994922 -90.276408 
L 210.259818 -91.776568 
L 209.570859 -93.276729 
L 208.952204 -94.776889 
L 208.423773 -96.277049 
L 207.998743 -97.777209 
L 207.68189 -99.277369 
L 207.469178 -100.777529 
L 207.348702 -102.277689 
L 207.302806 -103.777849 
L 207.31095 -105.278009 
L 207.352792 -106.778169 
L 207.410989 -108.278329 
L 207.473321 -109.778489 
L 207.533975 -111.278649 
L 207.59391 -112.778809 
L 207.660379 -114.278969 
L 207.745685 -115.779129 
L 207.865281 -117.279289 
L 208.03539 -118.779449 
L 208.270366 -120.279609 
L 208.580125 -121.77977 
L 208.968038 -123.27993 
L 209.429669 -124.78009 
L 209.952644 -126.28025 
L 210.517745 -127.78041 
L 211.101102 -129.28057 
L 211.677119 -130.78073 
L 212.221612 -132.28089 
L 212.714621 -133.78105 
L 213.142407 -135.28121 
L 213.498387 -136.78137 
L 213.782927 -138.28153 
L 214.002186 -139.78169 
L 214.166333 -141.28185 
L 214.28752 -142.78201 
L 214.377977 -144.28217 
L 214.448506 -145.78233 
L 214.507522 -147.28249 
L 214.560684 -148.78265 
L 214.611056 -150.28281 
L 214.659675 -151.782971 
L 214.706376 -153.283131 
L 214.750713 -154.783291 
L 214.792815 -156.283451 
L 214.834034 -157.783611 
L 214.877271 -159.283771 
L 214.926887 -160.783931 
L 214.988206 -162.284091 
L 215.066668 -163.784251 
L 215.166787 -165.284411 
L 215.291128 -166.784571 
L 215.439544 -168.284731 
L 215.608841 -169.784891 
L 215.793004 -171.285051 
L 215.98395 -172.785211 
L 216.172696 -174.285371 
L 216.350716 -175.785531 
L 216.511248 -177.285691 
L 216.650285 -178.785851 
L 216.767078 -180.286011 
L 216.864044 -181.786172 
L 216.946107 -183.286332 
L 217.019603 -184.786492 
L 217.090983 -186.286652 
L 217.165576 -187.786812 
L 217.246676 -189.286972 
L 217.335114 -190.787132 
L 217.42937 -192.287292 
L 217.526143 -193.787452 
L 217.62121 -195.287612 
L 217.71033 -196.787772 
L 217.790007 -198.287932 
L 217.857965 -199.788092 
L 217.9133 -201.288252 
L 217.95635 -202.788412 
L 217.988374 -204.288572 
L 218.114959 -204.288572 
L 218.114959 -204.288572 
L 218.146983 -202.788412 
L 218.190033 -201.288252 
L 218.245369 -199.788092 
L 218.313327 -198.287932 
L 218.393003 -196.787772 
L 218.482123 -195.287612 
L 218.57719 -193.787452 
L 218.673964 -192.287292 
L 218.768219 -190.787132 
L 218.856657 -189.286972 
L 218.937758 -187.786812 
L 219.012351 -186.286652 
L 219.08373 -184.786492 
L 219.157226 -183.286332 
L 219.239289 -181.786172 
L 219.336255 -180.286011 
L 219.453048 -178.785851 
L 219.592085 -177.285691 
L 219.752617 -175.785531 
L 219.930637 -174.285371 
L 220.119383 -172.785211 
L 220.31033 -171.285051 
L 220.494493 -169.784891 
L 220.66379 -168.284731 
L 220.812205 -166.784571 
L 220.936547 -165.284411 
L 221.036665 -163.784251 
L 221.115127 -162.284091 
L 221.176447 -160.783931 
L 221.226062 -159.283771 
L 221.269299 -157.783611 
L 221.310518 -156.283451 
L 221.35262 -154.783291 
L 221.396957 -153.283131 
L 221.443658 -151.782971 
L 221.492277 -150.28281 
L 221.542649 -148.78265 
L 221.595811 -147.28249 
L 221.654827 -145.78233 
L 221.725356 -144.28217 
L 221.815813 -142.78201 
L 221.937 -141.28185 
L 222.101147 -139.78169 
L 222.320406 -138.28153 
L 222.604946 -136.78137 
L 222.960926 -135.28121 
L 223.388713 -133.78105 
L 223.881721 -132.28089 
L 224.426215 -130.78073 
L 225.002231 -129.28057 
L 225.585589 -127.78041 
L 226.150689 -126.28025 
L 226.673664 -124.78009 
L 227.135296 -123.27993 
L 227.523209 -121.77977 
L 227.832967 -120.279609 
L 228.067943 -118.779449 
L 228.238052 -117.279289 
L 228.357648 -115.779129 
L 228.442954 -114.278969 
L 228.509423 -112.778809 
L 228.569358 -111.278649 
L 228.630012 -109.778489 
L 228.692345 -108.278329 
L 228.750541 -106.778169 
L 228.792384 -105.278009 
L 228.800527 -103.777849 
L 228.754631 -102.277689 
L 228.634156 -100.777529 
L 228.421444 -99.277369 
L 228.10459 -97.777209 
L 227.67956 -96.277049 
L 227.151129 -94.776889 
L 226.532474 -93.276729 
L 225.843516 -91.776568 
L 225.108412 -90.276408 
L 224.352717 -88.776248 
L 223.600762 -87.276088 
L 222.873645 -85.775928 
L 222.188047 -84.275768 
L 221.555833 -82.775608 
L 220.984301 -81.275448 
L 220.476801 -79.775288 
L 220.033529 -78.275128 
L 219.6523 -76.774968 
L 219.329236 -75.274808 
L 219.059339 -73.774648 
L 218.836957 -72.274488 
L 218.65617 -70.774328 
L 218.511107 -69.274168 
L 218.396195 -67.774008 
L 218.30633 -66.273848 
L 218.236982 -64.773688 
L 218.184222 -63.273528 
L 218.144706 -61.773367 
L 218.115626 -60.273207 
L 218.094647 -58.773047 
L 218.079846 -57.272887 
L 218.06966 -55.772727 
z
" style="stroke: #3f3f3f; stroke-width: 1.5"/>
    </defs>
    <g clip-path="url(#p7954e11d32)">
     <use xlink:href="#m27973fdc0f" x="0" y="360" style="fill: #e1812c; stroke: #3f3f3f; stroke-width: 1.5"/>
    </g>
   </g>
   <g id="PolyCollection_5">
    <defs>
     <path id="mb42ce9f705" d="M 279.519615 -199.363655 
L 277.643718 -199.363655 
L 277.509164 -200.736015 
L 277.360123 -202.108375 
L 277.19583 -203.480735 
L 277.015603 -204.853094 
L 276.818867 -206.225454 
L 276.605179 -207.597814 
L 276.374245 -208.970174 
L 276.12595 -210.342533 
L 275.860372 -211.714893 
L 275.577806 -213.087253 
L 275.278782 -214.459613 
L 274.964075 -215.831973 
L 274.634719 -217.204332 
L 274.292009 -218.576692 
L 273.937506 -219.949052 
L 273.573027 -221.321412 
L 273.200639 -222.693771 
L 272.822641 -224.066131 
L 272.441537 -225.438491 
L 272.060012 -226.810851 
L 271.680895 -228.183211 
L 271.307119 -229.55557 
L 270.941675 -230.92793 
L 270.587567 -232.30029 
L 270.247756 -233.67265 
L 269.925112 -235.045009 
L 269.622359 -236.417369 
L 269.342021 -237.789729 
L 269.086376 -239.162089 
L 268.857409 -240.534448 
L 268.656773 -241.906808 
L 268.48575 -243.279168 
L 268.345232 -244.651528 
L 268.235695 -246.023888 
L 268.157197 -247.396247 
L 268.109373 -248.768607 
L 268.091447 -250.140967 
L 268.102252 -251.513327 
L 268.140258 -252.885686 
L 268.203609 -254.258046 
L 268.290169 -255.630406 
L 268.397573 -257.002766 
L 268.52328 -258.375126 
L 268.664637 -259.747485 
L 268.818937 -261.119845 
L 268.983485 -262.492205 
L 269.155652 -263.864565 
L 269.332937 -265.236924 
L 269.513016 -266.609284 
L 269.693792 -267.981644 
L 269.873428 -269.354004 
L 270.050383 -270.726363 
L 270.223429 -272.098723 
L 270.391667 -273.471083 
L 270.554528 -274.843443 
L 270.711764 -276.215803 
L 270.863438 -277.588162 
L 271.009895 -278.960522 
L 271.151735 -280.332882 
L 271.289773 -281.705242 
L 271.425 -283.077601 
L 271.558539 -284.449961 
L 271.691596 -285.822321 
L 271.825411 -287.194681 
L 271.961219 -288.56704 
L 272.1002 -289.9394 
L 272.243441 -291.31176 
L 272.391902 -292.68412 
L 272.546386 -294.05648 
L 272.707511 -295.428839 
L 272.875699 -296.801199 
L 273.051163 -298.173559 
L 273.233903 -299.545919 
L 273.423708 -300.918278 
L 273.620166 -302.290638 
L 273.82268 -303.662998 
L 274.030483 -305.035358 
L 274.242663 -306.407718 
L 274.458189 -307.780077 
L 274.675938 -309.152437 
L 274.894725 -310.524797 
L 275.113327 -311.897157 
L 275.33052 -313.269516 
L 275.545096 -314.641876 
L 275.755894 -316.014236 
L 275.961821 -317.386596 
L 276.161868 -318.758955 
L 276.355126 -320.131315 
L 276.540804 -321.503675 
L 276.718226 -322.876035 
L 276.886846 -324.248395 
L 277.046247 -325.620754 
L 277.196134 -326.993114 
L 277.336338 -328.365474 
L 277.466804 -329.737834 
L 277.587584 -331.110193 
L 277.698827 -332.482553 
L 277.80077 -333.854913 
L 277.893721 -335.227273 
L 279.269613 -335.227273 
L 279.269613 -335.227273 
L 279.362564 -333.854913 
L 279.464506 -332.482553 
L 279.57575 -331.110193 
L 279.696529 -329.737834 
L 279.826995 -328.365474 
L 279.967199 -326.993114 
L 280.117086 -325.620754 
L 280.276487 -324.248395 
L 280.445108 -322.876035 
L 280.62253 -321.503675 
L 280.808207 -320.131315 
L 281.001466 -318.758955 
L 281.201512 -317.386596 
L 281.407439 -316.014236 
L 281.618238 -314.641876 
L 281.832814 -313.269516 
L 282.050006 -311.897157 
L 282.268609 -310.524797 
L 282.487395 -309.152437 
L 282.705144 -307.780077 
L 282.920671 -306.407718 
L 283.132851 -305.035358 
L 283.340653 -303.662998 
L 283.543167 -302.290638 
L 283.739626 -300.918278 
L 283.92943 -299.545919 
L 284.11217 -298.173559 
L 284.287634 -296.801199 
L 284.455823 -295.428839 
L 284.616948 -294.05648 
L 284.771431 -292.68412 
L 284.919892 -291.31176 
L 285.063134 -289.9394 
L 285.202114 -288.56704 
L 285.337922 -287.194681 
L 285.471738 -285.822321 
L 285.604794 -284.449961 
L 285.738333 -283.077601 
L 285.873561 -281.705242 
L 286.011599 -280.332882 
L 286.153438 -278.960522 
L 286.299895 -277.588162 
L 286.451569 -276.215803 
L 286.608805 -274.843443 
L 286.771666 -273.471083 
L 286.939904 -272.098723 
L 287.11295 -270.726363 
L 287.289905 -269.354004 
L 287.469541 -267.981644 
L 287.650317 -266.609284 
L 287.830397 -265.236924 
L 288.007681 -263.864565 
L 288.179848 -262.492205 
L 288.344396 -261.119845 
L 288.498697 -259.747485 
L 288.640054 -258.375126 
L 288.76576 -257.002766 
L 288.873164 -255.630406 
L 288.959724 -254.258046 
L 289.023076 -252.885686 
L 289.061081 -251.513327 
L 289.071886 -250.140967 
L 289.05396 -248.768607 
L 289.006136 -247.396247 
L 288.927638 -246.023888 
L 288.818101 -244.651528 
L 288.677583 -243.279168 
L 288.506561 -241.906808 
L 288.305924 -240.534448 
L 288.076958 -239.162089 
L 287.821313 -237.789729 
L 287.540975 -236.417369 
L 287.238221 -235.045009 
L 286.915577 -233.67265 
L 286.575766 -232.30029 
L 286.221658 -230.92793 
L 285.856214 -229.55557 
L 285.482438 -228.183211 
L 285.103321 -226.810851 
L 284.721797 -225.438491 
L 284.340693 -224.066131 
L 283.962694 -222.693771 
L 283.590306 -221.321412 
L 283.225828 -219.949052 
L 282.871324 -218.576692 
L 282.528614 -217.204332 
L 282.199258 -215.831973 
L 281.884551 -214.459613 
L 281.585527 -213.087253 
L 281.302962 -211.714893 
L 281.037384 -210.342533 
L 280.789088 -208.970174 
L 280.558154 -207.597814 
L 280.344466 -206.225454 
L 280.147731 -204.853094 
L 279.967503 -203.480735 
L 279.80321 -202.108375 
L 279.654169 -200.736015 
L 279.519615 -199.363655 
z
" style="stroke: #3f3f3f; stroke-width: 1.5"/>
    </defs>
    <g clip-path="url(#p7954e11d32)">
     <use xlink:href="#mb42ce9f705" x="0" y="360" style="fill: #3274a1; stroke: #3f3f3f; stroke-width: 1.5"/>
    </g>
   </g>
   <g id="PolyCollection_6">
    <defs>
     <path id="mbfaafb9e98" d="M 318.97671 -73.198677 
L 318.89329 -73.198677 
L 318.867292 -74.471158 
L 318.82777 -75.743639 
L 318.769235 -77.01612 
L 318.684764 -78.288601 
L 318.565974 -79.561082 
L 318.403174 -80.833562 
L 318.185733 -82.106043 
L 317.90269 -83.378524 
L 317.543608 -84.651005 
L 317.099584 -85.923486 
L 316.564327 -87.195967 
L 315.935122 -88.468448 
L 315.213494 -89.740929 
L 314.405401 -91.01341 
L 313.520834 -92.285891 
L 312.572809 -93.558372 
L 311.575874 -94.830853 
L 310.544393 -96.103334 
L 309.490973 -97.375815 
L 308.425437 -98.648296 
L 307.354685 -99.920777 
L 306.283584 -101.193258 
L 305.216813 -102.465739 
L 304.161305 -103.73822 
L 303.12871 -105.010701 
L 302.137245 -106.283182 
L 301.212362 -107.555663 
L 300.385879 -108.828144 
L 299.693566 -110.100625 
L 299.171498 -111.373106 
L 298.851769 -112.645587 
L 298.758333 -113.918068 
L 298.903674 -115.190549 
L 299.286895 -116.46303 
L 299.893503 -117.735511 
L 300.696823 -119.007992 
L 301.660725 -120.280473 
L 302.743098 -121.552953 
L 303.899482 -122.825434 
L 305.086335 -124.097915 
L 306.263604 -125.370396 
L 307.396468 -126.642877 
L 308.456352 -127.915358 
L 309.421364 -129.187839 
L 310.276406 -130.46032 
L 311.013085 -131.732801 
L 311.629514 -133.005282 
L 312.129948 -134.277763 
L 312.524184 -135.550244 
L 312.82663 -136.822725 
L 313.055003 -138.095206 
L 313.228714 -139.367687 
L 313.367093 -140.640168 
L 313.487669 -141.912649 
L 313.604744 -143.18513 
L 313.728467 -144.457611 
L 313.86452 -145.730092 
L 314.014422 -147.002573 
L 314.17635 -148.275054 
L 314.346287 -149.547535 
L 314.519287 -150.820016 
L 314.690608 -152.092497 
L 314.856569 -153.364978 
L 315.014997 -154.637459 
L 315.165261 -155.90994 
L 315.307938 -157.182421 
L 315.444229 -158.454902 
L 315.575269 -159.727383 
L 315.701491 -160.999864 
L 315.82215 -162.272345 
L 315.935128 -163.544825 
L 316.03706 -164.817306 
L 316.123782 -166.089787 
L 316.191085 -167.362268 
L 316.235649 -168.634749 
L 316.256048 -169.90723 
L 316.253597 -171.179711 
L 316.232875 -172.452192 
L 316.201731 -173.724673 
L 316.170704 -174.997154 
L 316.151879 -176.269635 
L 316.157344 -177.542116 
L 316.197521 -178.814597 
L 316.279655 -180.087078 
L 316.406765 -181.359559 
L 316.577216 -182.63204 
L 316.784994 -183.904521 
L 317.020582 -185.177002 
L 317.272271 -186.449483 
L 317.527655 -187.721964 
L 317.775055 -188.994445 
L 318.00468 -190.266926 
L 318.209378 -191.539407 
L 318.384934 -192.811888 
L 318.529959 -194.084369 
L 318.645446 -195.35685 
L 318.734146 -196.629331 
L 318.799874 -197.901812 
L 318.846875 -199.174293 
L 319.023125 -199.174293 
L 319.023125 -199.174293 
L 319.070126 -197.901812 
L 319.135854 -196.629331 
L 319.224554 -195.35685 
L 319.340041 -194.084369 
L 319.485066 -192.811888 
L 319.660622 -191.539407 
L 319.86532 -190.266926 
L 320.094945 -188.994445 
L 320.342345 -187.721964 
L 320.597729 -186.449483 
L 320.849418 -185.177002 
L 321.085006 -183.904521 
L 321.292784 -182.63204 
L 321.463235 -181.359559 
L 321.590345 -180.087078 
L 321.672479 -178.814597 
L 321.712656 -177.542116 
L 321.718121 -176.269635 
L 321.699296 -174.997154 
L 321.668269 -173.724673 
L 321.637125 -172.452192 
L 321.616403 -171.179711 
L 321.613952 -169.90723 
L 321.634351 -168.634749 
L 321.678915 -167.362268 
L 321.746218 -166.089787 
L 321.83294 -164.817306 
L 321.934872 -163.544825 
L 322.04785 -162.272345 
L 322.168509 -160.999864 
L 322.294731 -159.727383 
L 322.425771 -158.454902 
L 322.562062 -157.182421 
L 322.704739 -155.90994 
L 322.855003 -154.637459 
L 323.013431 -153.364978 
L 323.179392 -152.092497 
L 323.350713 -150.820016 
L 323.523713 -149.547535 
L 323.69365 -148.275054 
L 323.855578 -147.002573 
L 324.00548 -145.730092 
L 324.141533 -144.457611 
L 324.265256 -143.18513 
L 324.382331 -141.912649 
L 324.502907 -140.640168 
L 324.641286 -139.367687 
L 324.814997 -138.095206 
L 325.04337 -136.822725 
L 325.345816 -135.550244 
L 325.740052 -134.277763 
L 326.240486 -133.005282 
L 326.856915 -131.732801 
L 327.593594 -130.46032 
L 328.448636 -129.187839 
L 329.413648 -127.915358 
L 330.473532 -126.642877 
L 331.606396 -125.370396 
L 332.783665 -124.097915 
L 333.970518 -122.825434 
L 335.126902 -121.552953 
L 336.209275 -120.280473 
L 337.173177 -119.007992 
L 337.976497 -117.735511 
L 338.583105 -116.46303 
L 338.966326 -115.190549 
L 339.111667 -113.918068 
L 339.018231 -112.645587 
L 338.698502 -111.373106 
L 338.176434 -110.100625 
L 337.484121 -108.828144 
L 336.657638 -107.555663 
L 335.732755 -106.283182 
L 334.74129 -105.010701 
L 333.708695 -103.73822 
L 332.653187 -102.465739 
L 331.586416 -101.193258 
L 330.515315 -99.920777 
L 329.444563 -98.648296 
L 328.379027 -97.375815 
L 327.325607 -96.103334 
L 326.294126 -94.830853 
L 325.297191 -93.558372 
L 324.349166 -92.285891 
L 323.464599 -91.01341 
L 322.656506 -89.740929 
L 321.934878 -88.468448 
L 321.305673 -87.195967 
L 320.770416 -85.923486 
L 320.326392 -84.651005 
L 319.96731 -83.378524 
L 319.684267 -82.106043 
L 319.466826 -80.833562 
L 319.304026 -79.561082 
L 319.185236 -78.288601 
L 319.100765 -77.01612 
L 319.04223 -75.743639 
L 319.002708 -74.471158 
L 318.97671 -73.198677 
z
" style="stroke: #3f3f3f; stroke-width: 1.5"/>
    </defs>
    <g clip-path="url(#p7954e11d32)">
     <use xlink:href="#mbfaafb9e98" x="0" y="360" style="fill: #e1812c; stroke: #3f3f3f; stroke-width: 1.5"/>
    </g>
   </g>
   <g id="PathCollection_1"/>
   <g id="PathCollection_2"/>
   <g id="matplotlib.axis_1">
    <g id="xtick_1">
     <g id="line2d_1">
      <defs>
       <path id="mb912526440" d="M 0 0 
L 0 3.5 
" style="stroke: #000000; stroke-width: 0.8"/>
      </defs>
      <g>
       <use xlink:href="#mb912526440" x="96.991667" y="318.2" style="stroke: #000000; stroke-width: 0.8"/>
      </g>
     </g>
     <g id="text_1">
      <!-- Mlig -->
      <g transform="translate(86.72526 332.798437)scale(0.1 -0.1)">
       <defs>
        <path id="DejaVuSans-4d" d="M 628 4666 
L 1569 4666 
L 2759 1491 
L 3956 4666 
L 4897 4666 
L 4897 0 
L 4281 0 
L 4281 4097 
L 3078 897 
L 2444 897 
L 1241 4097 
L 1241 0 
L 628 0 
L 628 4666 
z
" transform="scale(0.015625)"/>
        <path id="DejaVuSans-6c" d="M 603 4863 
L 1178 4863 
L 1178 0 
L 603 0 
L 603 4863 
z
" transform="scale(0.015625)"/>
        <path id="DejaVuSans-69" d="M 603 3500 
L 1178 3500 
L 1178 0 
L 603 0 
L 603 3500 
z
M 603 4863 
L 1178 4863 
L 1178 4134 
L 603 4134 
L 603 4863 
z
" transform="scale(0.015625)"/>
        <path id="DejaVuSans-67" d="M 2906 1791 
Q 2906 2416 2648 2759 
Q 2391 3103 1925 3103 
Q 1463 3103 1205 2759 
Q 947 2416 947 1791 
Q 947 1169 1205 825 
Q 1463 481 1925 481 
Q 2391 481 2648 825 
Q 2906 1169 2906 1791 
z
M 3481 434 
Q 3481 -459 3084 -895 
Q 2688 -1331 1869 -1331 
Q 1566 -1331 1297 -1286 
Q 1028 -1241 775 -1147 
L 775 -588 
Q 1028 -725 1275 -790 
Q 1522 -856 1778 -856 
Q 2344 -856 2625 -561 
Q 2906 -266 2906 331 
L 2906 616 
Q 2728 306 2450 153 
Q 2172 0 1784 0 
Q 1141 0 747 490 
Q 353 981 353 1791 
Q 353 2603 747 3093 
Q 1141 3584 1784 3584 
Q 2172 3584 2450 3431 
Q 2728 3278 2906 2969 
L 2906 3500 
L 3481 3500 
L 3481 434 
z
" transform="scale(0.015625)"/>
       </defs>
       <use xlink:href="#DejaVuSans-4d"/>
       <use xlink:href="#DejaVuSans-6c" x="86.279297"/>
       <use xlink:href="#DejaVuSans-69" x="114.0625"/>
       <use xlink:href="#DejaVuSans-67" x="141.845703"/>
      </g>
     </g>
    </g>
    <g id="xtick_2">
     <g id="line2d_2">
      <g>
       <use xlink:href="#mb912526440" x="197.875" y="318.2" style="stroke: #000000; stroke-width: 0.8"/>
      </g>
     </g>
     <g id="text_2">
      <!-- Smed -->
      <g transform="translate(183.579688 332.798437)scale(0.1 -0.1)">
       <defs>
        <path id="DejaVuSans-53" d="M 3425 4513 
L 3425 3897 
Q 3066 4069 2747 4153 
Q 2428 4238 2131 4238 
Q 1616 4238 1336 4038 
Q 1056 3838 1056 3469 
Q 1056 3159 1242 3001 
Q 1428 2844 1947 2747 
L 2328 2669 
Q 3034 2534 3370 2195 
Q 3706 1856 3706 1288 
Q 3706 609 3251 259 
Q 2797 -91 1919 -91 
Q 1588 -91 1214 -16 
Q 841 59 441 206 
L 441 856 
Q 825 641 1194 531 
Q 1563 422 1919 422 
Q 2459 422 2753 634 
Q 3047 847 3047 1241 
Q 3047 1584 2836 1778 
Q 2625 1972 2144 2069 
L 1759 2144 
Q 1053 2284 737 2584 
Q 422 2884 422 3419 
Q 422 4038 858 4394 
Q 1294 4750 2059 4750 
Q 2388 4750 2728 4690 
Q 3069 4631 3425 4513 
z
" transform="scale(0.015625)"/>
        <path id="DejaVuSans-6d" d="M 3328 2828 
Q 3544 3216 3844 3400 
Q 4144 3584 4550 3584 
Q 5097 3584 5394 3201 
Q 5691 2819 5691 2113 
L 5691 0 
L 5113 0 
L 5113 2094 
Q 5113 2597 4934 2840 
Q 4756 3084 4391 3084 
Q 3944 3084 3684 2787 
Q 3425 2491 3425 1978 
L 3425 0 
L 2847 0 
L 2847 2094 
Q 2847 2600 2669 2842 
Q 2491 3084 2119 3084 
Q 1678 3084 1418 2786 
Q 1159 2488 1159 1978 
L 1159 0 
L 581 0 
L 581 3500 
L 1159 3500 
L 1159 2956 
Q 1356 3278 1631 3431 
Q 1906 3584 2284 3584 
Q 2666 3584 2933 3390 
Q 3200 3197 3328 2828 
z
" transform="scale(0.015625)"/>
        <path id="DejaVuSans-65" d="M 3597 1894 
L 3597 1613 
L 953 1613 
Q 991 1019 1311 708 
Q 1631 397 2203 397 
Q 2534 397 2845 478 
Q 3156 559 3463 722 
L 3463 178 
Q 3153 47 2828 -22 
Q 2503 -91 2169 -91 
Q 1331 -91 842 396 
Q 353 884 353 1716 
Q 353 2575 817 3079 
Q 1281 3584 2069 3584 
Q 2775 3584 3186 3129 
Q 3597 2675 3597 1894 
z
M 3022 2063 
Q 3016 2534 2758 2815 
Q 2500 3097 2075 3097 
Q 1594 3097 1305 2825 
Q 1016 2553 972 2059 
L 3022 2063 
z
" transform="scale(0.015625)"/>
        <path id="DejaVuSans-64" d="M 2906 2969 
L 2906 4863 
L 3481 4863 
L 3481 0 
L 2906 0 
L 2906 525 
Q 2725 213 2448 61 
Q 2172 -91 1784 -91 
Q 1150 -91 751 415 
Q 353 922 353 1747 
Q 353 2572 751 3078 
Q 1150 3584 1784 3584 
Q 2172 3584 2448 3432 
Q 2725 3281 2906 2969 
z
M 947 1747 
Q 947 1113 1208 752 
Q 1469 391 1925 391 
Q 2381 391 2643 752 
Q 2906 1113 2906 1747 
Q 2906 2381 2643 2742 
Q 2381 3103 1925 3103 
Q 1469 3103 1208 2742 
Q 947 2381 947 1747 
z
" transform="scale(0.015625)"/>
       </defs>
       <use xlink:href="#DejaVuSans-53"/>
       <use xlink:href="#DejaVuSans-6d" x="63.476562"/>
       <use xlink:href="#DejaVuSans-65" x="160.888672"/>
       <use xlink:href="#DejaVuSans-64" x="222.412109"/>
      </g>
     </g>
    </g>
    <g id="xtick_3">
     <g id="line2d_3">
      <g>
       <use xlink:href="#mb912526440" x="298.758333" y="318.2" style="stroke: #000000; stroke-width: 0.8"/>
      </g>
     </g>
     <g id="text_3">
      <!-- Sman -->
      <g transform="translate(284.48099 332.798437)scale(0.1 -0.1)">
       <defs>
        <path id="DejaVuSans-61" d="M 2194 1759 
Q 1497 1759 1228 1600 
Q 959 1441 959 1056 
Q 959 750 1161 570 
Q 1363 391 1709 391 
Q 2188 391 2477 730 
Q 2766 1069 2766 1631 
L 2766 1759 
L 2194 1759 
z
M 3341 1997 
L 3341 0 
L 2766 0 
L 2766 531 
Q 2569 213 2275 61 
Q 1981 -91 1556 -91 
Q 1019 -91 701 211 
Q 384 513 384 1019 
Q 384 1609 779 1909 
Q 1175 2209 1959 2209 
L 2766 2209 
L 2766 2266 
Q 2766 2663 2505 2880 
Q 2244 3097 1772 3097 
Q 1472 3097 1187 3025 
Q 903 2953 641 2809 
L 641 3341 
Q 956 3463 1253 3523 
Q 1550 3584 1831 3584 
Q 2591 3584 2966 3190 
Q 3341 2797 3341 1997 
z
" transform="scale(0.015625)"/>
        <path id="DejaVuSans-6e" d="M 3513 2113 
L 3513 0 
L 2938 0 
L 2938 2094 
Q 2938 2591 2744 2837 
Q 2550 3084 2163 3084 
Q 1697 3084 1428 2787 
Q 1159 2491 1159 1978 
L 1159 0 
L 581 0 
L 581 3500 
L 1159 3500 
L 1159 2956 
Q 1366 3272 1645 3428 
Q 1925 3584 2291 3584 
Q 2894 3584 3203 3211 
Q 3513 2838 3513 2113 
z
" transform="scale(0.015625)"/>
       </defs>
       <use xlink:href="#DejaVuSans-53"/>
       <use xlink:href="#DejaVuSans-6d" x="63.476562"/>
       <use xlink:href="#DejaVuSans-61" x="160.888672"/>
       <use xlink:href="#DejaVuSans-6e" x="222.167969"/>
      </g>
     </g>
    </g>
    <g id="text_4">
     <!-- Cell type -->
     <g transform="translate(175.769531 346.476562)scale(0.1 -0.1)">
      <defs>
       <path id="DejaVuSans-43" d="M 4122 4306 
L 4122 3641 
Q 3803 3938 3442 4084 
Q 3081 4231 2675 4231 
Q 1875 4231 1450 3742 
Q 1025 3253 1025 2328 
Q 1025 1406 1450 917 
Q 1875 428 2675 428 
Q 3081 428 3442 575 
Q 3803 722 4122 1019 
L 4122 359 
Q 3791 134 3420 21 
Q 3050 -91 2638 -91 
Q 1578 -91 968 557 
Q 359 1206 359 2328 
Q 359 3453 968 4101 
Q 1578 4750 2638 4750 
Q 3056 4750 3426 4639 
Q 3797 4528 4122 4306 
z
" transform="scale(0.015625)"/>
       <path id="DejaVuSans-20" transform="scale(0.015625)"/>
       <path id="DejaVuSans-74" d="M 1172 4494 
L 1172 3500 
L 2356 3500 
L 2356 3053 
L 1172 3053 
L 1172 1153 
Q 1172 725 1289 603 
Q 1406 481 1766 481 
L 2356 481 
L 2356 0 
L 1766 0 
Q 1100 0 847 248 
Q 594 497 594 1153 
L 594 3053 
L 172 3053 
L 172 3500 
L 594 3500 
L 594 4494 
L 1172 4494 
z
" transform="scale(0.015625)"/>
       <path id="DejaVuSans-79" d="M 2059 -325 
Q 1816 -950 1584 -1140 
Q 1353 -1331 966 -1331 
L 506 -1331 
L 506 -850 
L 844 -850 
Q 1081 -850 1212 -737 
Q 1344 -625 1503 -206 
L 1606 56 
L 191 3500 
L 800 3500 
L 1894 763 
L 2988 3500 
L 3597 3500 
L 2059 -325 
z
" transform="scale(0.015625)"/>
       <path id="DejaVuSans-70" d="M 1159 525 
L 1159 -1331 
L 581 -1331 
L 581 3500 
L 1159 3500 
L 1159 2969 
Q 1341 3281 1617 3432 
Q 1894 3584 2278 3584 
Q 2916 3584 3314 3078 
Q 3713 2572 3713 1747 
Q 3713 922 3314 415 
Q 2916 -91 2278 -91 
Q 1894 -91 1617 61 
Q 1341 213 1159 525 
z
M 3116 1747 
Q 3116 2381 2855 2742 
Q 2594 3103 2138 3103 
Q 1681 3103 1420 2742 
Q 1159 2381 1159 1747 
Q 1159 1113 1420 752 
Q 1681 391 2138 391 
Q 2594 391 2855 752 
Q 3116 1113 3116 1747 
z
" transform="scale(0.015625)"/>
      </defs>
      <use xlink:href="#DejaVuSans-43"/>
      <use xlink:href="#DejaVuSans-65" x="69.824219"/>
      <use xlink:href="#DejaVuSans-6c" x="131.347656"/>
      <use xlink:href="#DejaVuSans-6c" x="159.130859"/>
      <use xlink:href="#DejaVuSans-20" x="186.914062"/>
      <use xlink:href="#DejaVuSans-74" x="218.701172"/>
      <use xlink:href="#DejaVuSans-79" x="257.910156"/>
      <use xlink:href="#DejaVuSans-70" x="317.089844"/>
      <use xlink:href="#DejaVuSans-65" x="380.566406"/>
     </g>
    </g>
   </g>
   <g id="matplotlib.axis_2">
    <g id="ytick_1">
     <g id="line2d_4">
      <defs>
       <path id="m8988376467" d="M 0 0 
L -3.5 0 
" style="stroke: #000000; stroke-width: 0.8"/>
      </defs>
      <g>
       <use xlink:href="#m8988376467" x="46.55" y="291.760799" style="stroke: #000000; stroke-width: 0.8"/>
      </g>
     </g>
     <g id="text_5">
      <!-- −2 -->
      <g transform="translate(24.807813 295.560018)scale(0.1 -0.1)">
       <defs>
        <path id="DejaVuSans-2212" d="M 678 2272 
L 4684 2272 
L 4684 1741 
L 678 1741 
L 678 2272 
z
" transform="scale(0.015625)"/>
        <path id="DejaVuSans-32" d="M 1228 531 
L 3431 531 
L 3431 0 
L 469 0 
L 469 531 
Q 828 903 1448 1529 
Q 2069 2156 2228 2338 
Q 2531 2678 2651 2914 
Q 2772 3150 2772 3378 
Q 2772 3750 2511 3984 
Q 2250 4219 1831 4219 
Q 1534 4219 1204 4116 
Q 875 4013 500 3803 
L 500 4441 
Q 881 4594 1212 4672 
Q 1544 4750 1819 4750 
Q 2544 4750 2975 4387 
Q 3406 4025 3406 3419 
Q 3406 3131 3298 2873 
Q 3191 2616 2906 2266 
Q 2828 2175 2409 1742 
Q 1991 1309 1228 531 
z
" transform="scale(0.015625)"/>
       </defs>
       <use xlink:href="#DejaVuSans-2212"/>
       <use xlink:href="#DejaVuSans-32" x="83.789062"/>
      </g>
     </g>
    </g>
    <g id="ytick_2">
     <g id="line2d_5">
      <g>
       <use xlink:href="#m8988376467" x="46.55" y="235.182036" style="stroke: #000000; stroke-width: 0.8"/>
      </g>
     </g>
     <g id="text_6">
      <!-- 0 -->
      <g transform="translate(33.1875 238.981255)scale(0.1 -0.1)">
       <defs>
        <path id="DejaVuSans-30" d="M 2034 4250 
Q 1547 4250 1301 3770 
Q 1056 3291 1056 2328 
Q 1056 1369 1301 889 
Q 1547 409 2034 409 
Q 2525 409 2770 889 
Q 3016 1369 3016 2328 
Q 3016 3291 2770 3770 
Q 2525 4250 2034 4250 
z
M 2034 4750 
Q 2819 4750 3233 4129 
Q 3647 3509 3647 2328 
Q 3647 1150 3233 529 
Q 2819 -91 2034 -91 
Q 1250 -91 836 529 
Q 422 1150 422 2328 
Q 422 3509 836 4129 
Q 1250 4750 2034 4750 
z
" transform="scale(0.015625)"/>
       </defs>
       <use xlink:href="#DejaVuSans-30"/>
      </g>
     </g>
    </g>
    <g id="ytick_3">
     <g id="line2d_6">
      <g>
       <use xlink:href="#m8988376467" x="46.55" y="178.603273" style="stroke: #000000; stroke-width: 0.8"/>
      </g>
     </g>
     <g id="text_7">
      <!-- 2 -->
      <g transform="translate(33.1875 182.402492)scale(0.1 -0.1)">
       <use xlink:href="#DejaVuSans-32"/>
      </g>
     </g>
    </g>
    <g id="ytick_4">
     <g id="line2d_7">
      <g>
       <use xlink:href="#m8988376467" x="46.55" y="122.02451" style="stroke: #000000; stroke-width: 0.8"/>
      </g>
     </g>
     <g id="text_8">
      <!-- 4 -->
      <g transform="translate(33.1875 125.823729)scale(0.1 -0.1)">
       <defs>
        <path id="DejaVuSans-34" d="M 2419 4116 
L 825 1625 
L 2419 1625 
L 2419 4116 
z
M 2253 4666 
L 3047 4666 
L 3047 1625 
L 3713 1625 
L 3713 1100 
L 3047 1100 
L 3047 0 
L 2419 0 
L 2419 1100 
L 313 1100 
L 313 1709 
L 2253 4666 
z
" transform="scale(0.015625)"/>
       </defs>
       <use xlink:href="#DejaVuSans-34"/>
      </g>
     </g>
    </g>
    <g id="ytick_5">
     <g id="line2d_8">
      <g>
       <use xlink:href="#m8988376467" x="46.55" y="65.445747" style="stroke: #000000; stroke-width: 0.8"/>
      </g>
     </g>
     <g id="text_9">
      <!-- 6 -->
      <g transform="translate(33.1875 69.244965)scale(0.1 -0.1)">
       <defs>
        <path id="DejaVuSans-36" d="M 2113 2584 
Q 1688 2584 1439 2293 
Q 1191 2003 1191 1497 
Q 1191 994 1439 701 
Q 1688 409 2113 409 
Q 2538 409 2786 701 
Q 3034 994 3034 1497 
Q 3034 2003 2786 2293 
Q 2538 2584 2113 2584 
z
M 3366 4563 
L 3366 3988 
Q 3128 4100 2886 4159 
Q 2644 4219 2406 4219 
Q 1781 4219 1451 3797 
Q 1122 3375 1075 2522 
Q 1259 2794 1537 2939 
Q 1816 3084 2150 3084 
Q 2853 3084 3261 2657 
Q 3669 2231 3669 1497 
Q 3669 778 3244 343 
Q 2819 -91 2113 -91 
Q 1303 -91 875 529 
Q 447 1150 447 2328 
Q 447 3434 972 4092 
Q 1497 4750 2381 4750 
Q 2619 4750 2861 4703 
Q 3103 4656 3366 4563 
z
" transform="scale(0.015625)"/>
       </defs>
       <use xlink:href="#DejaVuSans-36"/>
      </g>
     </g>
    </g>
    <g id="text_10">
     <!-- Motif Deviations -->
     <g transform="translate(18.728125 205.092969)rotate(-90)scale(0.1 -0.1)">
      <defs>
       <path id="DejaVuSans-6f" d="M 1959 3097 
Q 1497 3097 1228 2736 
Q 959 2375 959 1747 
Q 959 1119 1226 758 
Q 1494 397 1959 397 
Q 2419 397 2687 759 
Q 2956 1122 2956 1747 
Q 2956 2369 2687 2733 
Q 2419 3097 1959 3097 
z
M 1959 3584 
Q 2709 3584 3137 3096 
Q 3566 2609 3566 1747 
Q 3566 888 3137 398 
Q 2709 -91 1959 -91 
Q 1206 -91 779 398 
Q 353 888 353 1747 
Q 353 2609 779 3096 
Q 1206 3584 1959 3584 
z
" transform="scale(0.015625)"/>
       <path id="DejaVuSans-66" d="M 2375 4863 
L 2375 4384 
L 1825 4384 
Q 1516 4384 1395 4259 
Q 1275 4134 1275 3809 
L 1275 3500 
L 2222 3500 
L 2222 3053 
L 1275 3053 
L 1275 0 
L 697 0 
L 697 3053 
L 147 3053 
L 147 3500 
L 697 3500 
L 697 3744 
Q 697 4328 969 4595 
Q 1241 4863 1831 4863 
L 2375 4863 
z
" transform="scale(0.015625)"/>
       <path id="DejaVuSans-44" d="M 1259 4147 
L 1259 519 
L 2022 519 
Q 2988 519 3436 956 
Q 3884 1394 3884 2338 
Q 3884 3275 3436 3711 
Q 2988 4147 2022 4147 
L 1259 4147 
z
M 628 4666 
L 1925 4666 
Q 3281 4666 3915 4102 
Q 4550 3538 4550 2338 
Q 4550 1131 3912 565 
Q 3275 0 1925 0 
L 628 0 
L 628 4666 
z
" transform="scale(0.015625)"/>
       <path id="DejaVuSans-76" d="M 191 3500 
L 800 3500 
L 1894 563 
L 2988 3500 
L 3597 3500 
L 2284 0 
L 1503 0 
L 191 3500 
z
" transform="scale(0.015625)"/>
       <path id="DejaVuSans-73" d="M 2834 3397 
L 2834 2853 
Q 2591 2978 2328 3040 
Q 2066 3103 1784 3103 
Q 1356 3103 1142 2972 
Q 928 2841 928 2578 
Q 928 2378 1081 2264 
Q 1234 2150 1697 2047 
L 1894 2003 
Q 2506 1872 2764 1633 
Q 3022 1394 3022 966 
Q 3022 478 2636 193 
Q 2250 -91 1575 -91 
Q 1294 -91 989 -36 
Q 684 19 347 128 
L 347 722 
Q 666 556 975 473 
Q 1284 391 1588 391 
Q 1994 391 2212 530 
Q 2431 669 2431 922 
Q 2431 1156 2273 1281 
Q 2116 1406 1581 1522 
L 1381 1569 
Q 847 1681 609 1914 
Q 372 2147 372 2553 
Q 372 3047 722 3315 
Q 1072 3584 1716 3584 
Q 2034 3584 2315 3537 
Q 2597 3491 2834 3397 
z
" transform="scale(0.015625)"/>
      </defs>
      <use xlink:href="#DejaVuSans-4d"/>
      <use xlink:href="#DejaVuSans-6f" x="86.279297"/>
      <use xlink:href="#DejaVuSans-74" x="147.460938"/>
      <use xlink:href="#DejaVuSans-69" x="186.669922"/>
      <use xlink:href="#DejaVuSans-66" x="214.453125"/>
      <use xlink:href="#DejaVuSans-20" x="249.658203"/>
      <use xlink:href="#DejaVuSans-44" x="281.445312"/>
      <use xlink:href="#DejaVuSans-65" x="358.447266"/>
      <use xlink:href="#DejaVuSans-76" x="419.970703"/>
      <use xlink:href="#DejaVuSans-69" x="479.150391"/>
      <use xlink:href="#DejaVuSans-61" x="506.933594"/>
      <use xlink:href="#DejaVuSans-74" x="568.212891"/>
      <use xlink:href="#DejaVuSans-69" x="607.421875"/>
      <use xlink:href="#DejaVuSans-6f" x="635.205078"/>
      <use xlink:href="#DejaVuSans-6e" x="696.386719"/>
      <use xlink:href="#DejaVuSans-73" x="759.765625"/>
     </g>
    </g>
   </g>
   <g id="line2d_9">
    <path d="M 76.815 248.826295 
L 76.815 242.552236 
" clip-path="url(#p7954e11d32)" style="fill: none; stroke: #3f3f3f; stroke-width: 1.5; stroke-linecap: square"/>
   </g>
   <g id="line2d_10">
    <path d="M 76.815 246.203099 
L 76.815 243.525598 
" clip-path="url(#p7954e11d32)" style="fill: none; stroke: #3f3f3f; stroke-width: 4.5; stroke-linecap: square"/>
   </g>
   <g id="line2d_11">
    <path d="M 117.168333 274.921791 
L 117.168333 207.260491 
" clip-path="url(#p7954e11d32)" style="fill: none; stroke: #3f3f3f; stroke-width: 1.5; stroke-linecap: square"/>
   </g>
   <g id="line2d_12">
    <path d="M 117.168333 251.243427 
L 117.168333 233.373205 
" clip-path="url(#p7954e11d32)" style="fill: none; stroke: #3f3f3f; stroke-width: 4.5; stroke-linecap: square"/>
   </g>
   <g id="line2d_13">
    <path d="M 177.698333 270.350072 
L 177.698333 259.141639 
" clip-path="url(#p7954e11d32)" style="fill: none; stroke: #3f3f3f; stroke-width: 1.5; stroke-linecap: square"/>
   </g>
   <g id="line2d_14">
    <path d="M 177.698333 264.063973 
L 177.698333 259.635993 
" clip-path="url(#p7954e11d32)" style="fill: none; stroke: #3f3f3f; stroke-width: 4.5; stroke-linecap: square"/>
   </g>
   <g id="line2d_15">
    <path d="M 218.051667 289.005226 
L 218.051667 182.969993 
" clip-path="url(#p7954e11d32)" style="fill: none; stroke: #3f3f3f; stroke-width: 1.5; stroke-linecap: square"/>
   </g>
   <g id="line2d_16">
    <path d="M 218.051667 259.639964 
L 218.051667 228.114628 
" clip-path="url(#p7954e11d32)" style="fill: none; stroke: #3f3f3f; stroke-width: 4.5; stroke-linecap: square"/>
   </g>
   <g id="line2d_17">
    <path d="M 278.581667 117.822472 
L 278.581667 67.5866 
" clip-path="url(#p7954e11d32)" style="fill: none; stroke: #3f3f3f; stroke-width: 1.5; stroke-linecap: square"/>
   </g>
   <g id="line2d_18">
    <path d="M 278.581667 113.020755 
L 278.581667 87.902819 
" clip-path="url(#p7954e11d32)" style="fill: none; stroke: #3f3f3f; stroke-width: 4.5; stroke-linecap: square"/>
   </g>
   <g id="line2d_19">
    <path d="M 318.935 273.468868 
L 318.935 192.060323 
" clip-path="url(#p7954e11d32)" style="fill: none; stroke: #3f3f3f; stroke-width: 1.5; stroke-linecap: square"/>
   </g>
   <g id="line2d_20">
    <path d="M 318.935 251.472767 
L 318.935 227.361419 
" clip-path="url(#p7954e11d32)" style="fill: none; stroke: #3f3f3f; stroke-width: 4.5; stroke-linecap: square"/>
   </g>
   <g id="line2d_21">
    <path d="M 46.55 235.182036 
L 349.2 235.182036 
" clip-path="url(#p7954e11d32)" style="fill: none; stroke: #1f77b4; stroke-width: 1.5; stroke-linecap: square"/>
   </g>
   <g id="PathCollection_3">
    <defs>
     <path id="mfddfa1780d" d="M 0 1.5 
C 0.397805 1.5 0.77937 1.341951 1.06066 1.06066 
C 1.341951 0.77937 1.5 0.397805 1.5 0 
C 1.5 -0.397805 1.341951 -0.77937 1.06066 -1.06066 
C 0.77937 -1.341951 0.397805 -1.5 0 -1.5 
C -0.397805 -1.5 -0.77937 -1.341951 -1.06066 -1.06066 
C -1.341951 -0.77937 -1.5 -0.397805 -1.5 0 
C -1.5 0.397805 -1.341951 0.77937 -1.06066 1.06066 
C -0.77937 1.341951 -0.397805 1.5 0 1.5 
z
" style="stroke: #3f3f3f"/>
    </defs>
    <g clip-path="url(#p7954e11d32)">
     <use xlink:href="#mfddfa1780d" x="76.815" y="245.098918" style="fill: #ffffff; stroke: #3f3f3f"/>
    </g>
   </g>
   <g id="PathCollection_4">
    <g clip-path="url(#p7954e11d32)">
     <use xlink:href="#mfddfa1780d" x="117.168333" y="243.142639" style="fill: #ffffff; stroke: #3f3f3f"/>
    </g>
   </g>
   <g id="PathCollection_5">
    <g clip-path="url(#p7954e11d32)">
     <use xlink:href="#mfddfa1780d" x="177.698333" y="261.968718" style="fill: #ffffff; stroke: #3f3f3f"/>
    </g>
   </g>
   <g id="PathCollection_6">
    <g clip-path="url(#p7954e11d32)">
     <use xlink:href="#mfddfa1780d" x="218.051667" y="243.867999" style="fill: #ffffff; stroke: #3f3f3f"/>
    </g>
   </g>
   <g id="PathCollection_7">
    <g clip-path="url(#p7954e11d32)">
     <use xlink:href="#mfddfa1780d" x="278.581667" y="108.219038" style="fill: #ffffff; stroke: #3f3f3f"/>
    </g>
   </g>
   <g id="PathCollection_8">
    <g clip-path="url(#p7954e11d32)">
     <use xlink:href="#mfddfa1780d" x="318.935" y="243.140293" style="fill: #ffffff; stroke: #3f3f3f"/>
    </g>
   </g>
   <g id="PathCollection_9">
    <path d="M 0.767767 361 
L 1.767767 360 
L 0 358.232233 
L -1 359.232233 
M -1 360.767767 
L -0.767767 361 
" clip-path="url(#p7954e11d32)" style="fill: none"/>
   </g>
   <g id="PathCollection_10">
    <defs>
     <path id="C0_0_4680b0023b" d="M -0 1.767767 
L 1.767767 -0 
L 0 -1.767767 
L -1.767767 -0 
z
"/>
    </defs>
    <g clip-path="url(#p7954e11d32)">
     <use xlink:href="#C0_0_4680b0023b" x="117.168333" y="162.610241" style="fill: #ff7f0e"/>
    </g>
    <g clip-path="url(#p7954e11d32)">
     <use xlink:href="#C0_0_4680b0023b" x="117.168333" y="135.966765" style="fill: #ff7f0e"/>
    </g>
    <g clip-path="url(#p7954e11d32)">
     <use xlink:href="#C0_0_4680b0023b" x="117.168333" y="161.030305" style="fill: #ff7f0e"/>
    </g>
    <g clip-path="url(#p7954e11d32)">
     <use xlink:href="#C0_0_4680b0023b" x="117.168333" y="190.905598" style="fill: #ff7f0e"/>
    </g>
    <g clip-path="url(#p7954e11d32)">
     <use xlink:href="#C0_0_4680b0023b" x="117.168333" y="166.9749" style="fill: #ff7f0e"/>
    </g>
    <g clip-path="url(#p7954e11d32)">
     <use xlink:href="#C0_0_4680b0023b" x="117.168333" y="136.43588" style="fill: #ff7f0e"/>
    </g>
    <g clip-path="url(#p7954e11d32)">
     <use xlink:href="#C0_0_4680b0023b" x="117.168333" y="156.710545" style="fill: #ff7f0e"/>
    </g>
    <g clip-path="url(#p7954e11d32)">
     <use xlink:href="#C0_0_4680b0023b" x="117.168333" y="178.314572" style="fill: #ff7f0e"/>
    </g>
    <g clip-path="url(#p7954e11d32)">
     <use xlink:href="#C0_0_4680b0023b" x="117.168333" y="194.180177" style="fill: #ff7f0e"/>
    </g>
    <g clip-path="url(#p7954e11d32)">
     <use xlink:href="#C0_0_4680b0023b" x="117.168333" y="179.252971" style="fill: #ff7f0e"/>
    </g>
    <g clip-path="url(#p7954e11d32)">
     <use xlink:href="#C0_0_4680b0023b" x="117.168333" y="161.258242" style="fill: #ff7f0e"/>
    </g>
    <g clip-path="url(#p7954e11d32)">
     <use xlink:href="#C0_0_4680b0023b" x="117.168333" y="152.307676" style="fill: #ff7f0e"/>
    </g>
    <g clip-path="url(#p7954e11d32)">
     <use xlink:href="#C0_0_4680b0023b" x="117.168333" y="134.436457" style="fill: #ff7f0e"/>
    </g>
    <g clip-path="url(#p7954e11d32)">
     <use xlink:href="#C0_0_4680b0023b" x="117.168333" y="191.595677" style="fill: #ff7f0e"/>
    </g>
    <g clip-path="url(#p7954e11d32)">
     <use xlink:href="#C0_0_4680b0023b" x="117.168333" y="177.256037" style="fill: #ff7f0e"/>
    </g>
    <g clip-path="url(#p7954e11d32)">
     <use xlink:href="#C0_0_4680b0023b" x="117.168333" y="171.595016" style="fill: #ff7f0e"/>
    </g>
    <g clip-path="url(#p7954e11d32)">
     <use xlink:href="#C0_0_4680b0023b" x="117.168333" y="149.476083" style="fill: #ff7f0e"/>
    </g>
    <g clip-path="url(#p7954e11d32)">
     <use xlink:href="#C0_0_4680b0023b" x="117.168333" y="188.093612" style="fill: #ff7f0e"/>
    </g>
    <g clip-path="url(#p7954e11d32)">
     <use xlink:href="#C0_0_4680b0023b" x="117.168333" y="168.94323" style="fill: #ff7f0e"/>
    </g>
    <g clip-path="url(#p7954e11d32)">
     <use xlink:href="#C0_0_4680b0023b" x="117.168333" y="178.801588" style="fill: #ff7f0e"/>
    </g>
    <g clip-path="url(#p7954e11d32)">
     <use xlink:href="#C0_0_4680b0023b" x="117.168333" y="169.149875" style="fill: #ff7f0e"/>
    </g>
    <g clip-path="url(#p7954e11d32)">
     <use xlink:href="#C0_0_4680b0023b" x="117.168333" y="138.109007" style="fill: #ff7f0e"/>
    </g>
    <g clip-path="url(#p7954e11d32)">
     <use xlink:href="#C0_0_4680b0023b" x="117.168333" y="171.174982" style="fill: #ff7f0e"/>
    </g>
    <g clip-path="url(#p7954e11d32)">
     <use xlink:href="#C0_0_4680b0023b" x="117.168333" y="166.728118" style="fill: #ff7f0e"/>
    </g>
    <g clip-path="url(#p7954e11d32)">
     <use xlink:href="#C0_0_4680b0023b" x="117.168333" y="175.707093" style="fill: #ff7f0e"/>
    </g>
    <g clip-path="url(#p7954e11d32)">
     <use xlink:href="#C0_0_4680b0023b" x="117.168333" y="193.681716" style="fill: #ff7f0e"/>
    </g>
    <g clip-path="url(#p7954e11d32)">
     <use xlink:href="#C0_0_4680b0023b" x="117.168333" y="159.453168" style="fill: #ff7f0e"/>
    </g>
    <g clip-path="url(#p7954e11d32)">
     <use xlink:href="#C0_0_4680b0023b" x="117.168333" y="159.613261" style="fill: #ff7f0e"/>
    </g>
    <g clip-path="url(#p7954e11d32)">
     <use xlink:href="#C0_0_4680b0023b" x="117.168333" y="151.352119" style="fill: #ff7f0e"/>
    </g>
    <g clip-path="url(#p7954e11d32)">
     <use xlink:href="#C0_0_4680b0023b" x="117.168333" y="172.079226" style="fill: #ff7f0e"/>
    </g>
    <g clip-path="url(#p7954e11d32)">
     <use xlink:href="#C0_0_4680b0023b" x="117.168333" y="166.866169" style="fill: #ff7f0e"/>
    </g>
    <g clip-path="url(#p7954e11d32)">
     <use xlink:href="#C0_0_4680b0023b" x="117.168333" y="186.457982" style="fill: #ff7f0e"/>
    </g>
    <g clip-path="url(#p7954e11d32)">
     <use xlink:href="#C0_0_4680b0023b" x="117.168333" y="179.661934" style="fill: #ff7f0e"/>
    </g>
    <g clip-path="url(#p7954e11d32)">
     <use xlink:href="#C0_0_4680b0023b" x="117.168333" y="178.121505" style="fill: #ff7f0e"/>
    </g>
    <g clip-path="url(#p7954e11d32)">
     <use xlink:href="#C0_0_4680b0023b" x="117.168333" y="181.050529" style="fill: #ff7f0e"/>
    </g>
    <g clip-path="url(#p7954e11d32)">
     <use xlink:href="#C0_0_4680b0023b" x="117.168333" y="125.8917" style="fill: #ff7f0e"/>
    </g>
    <g clip-path="url(#p7954e11d32)">
     <use xlink:href="#C0_0_4680b0023b" x="117.168333" y="188.606102" style="fill: #ff7f0e"/>
    </g>
    <g clip-path="url(#p7954e11d32)">
     <use xlink:href="#C0_0_4680b0023b" x="117.168333" y="189.541608" style="fill: #ff7f0e"/>
    </g>
    <g clip-path="url(#p7954e11d32)">
     <use xlink:href="#C0_0_4680b0023b" x="117.168333" y="156.520189" style="fill: #ff7f0e"/>
    </g>
    <g clip-path="url(#p7954e11d32)">
     <use xlink:href="#C0_0_4680b0023b" x="117.168333" y="185.519519" style="fill: #ff7f0e"/>
    </g>
    <g clip-path="url(#p7954e11d32)">
     <use xlink:href="#C0_0_4680b0023b" x="117.168333" y="135.705825" style="fill: #ff7f0e"/>
    </g>
    <g clip-path="url(#p7954e11d32)">
     <use xlink:href="#C0_0_4680b0023b" x="117.168333" y="184.167382" style="fill: #ff7f0e"/>
    </g>
    <g clip-path="url(#p7954e11d32)">
     <use xlink:href="#C0_0_4680b0023b" x="117.168333" y="142.055778" style="fill: #ff7f0e"/>
    </g>
    <g clip-path="url(#p7954e11d32)">
     <use xlink:href="#C0_0_4680b0023b" x="117.168333" y="152.883567" style="fill: #ff7f0e"/>
    </g>
    <g clip-path="url(#p7954e11d32)">
     <use xlink:href="#C0_0_4680b0023b" x="117.168333" y="172.785418" style="fill: #ff7f0e"/>
    </g>
    <g clip-path="url(#p7954e11d32)">
     <use xlink:href="#C0_0_4680b0023b" x="117.168333" y="115.074136" style="fill: #ff7f0e"/>
    </g>
    <g clip-path="url(#p7954e11d32)">
     <use xlink:href="#C0_0_4680b0023b" x="117.168333" y="189.204868" style="fill: #ff7f0e"/>
    </g>
    <g clip-path="url(#p7954e11d32)">
     <use xlink:href="#C0_0_4680b0023b" x="117.168333" y="177.771211" style="fill: #ff7f0e"/>
    </g>
    <g clip-path="url(#p7954e11d32)">
     <use xlink:href="#C0_0_4680b0023b" x="117.168333" y="150.788719" style="fill: #ff7f0e"/>
    </g>
    <g clip-path="url(#p7954e11d32)">
     <use xlink:href="#C0_0_4680b0023b" x="117.168333" y="165.027958" style="fill: #ff7f0e"/>
    </g>
    <g clip-path="url(#p7954e11d32)">
     <use xlink:href="#C0_0_4680b0023b" x="117.168333" y="139.715976" style="fill: #ff7f0e"/>
    </g>
    <g clip-path="url(#p7954e11d32)">
     <use xlink:href="#C0_0_4680b0023b" x="117.168333" y="164.230523" style="fill: #ff7f0e"/>
    </g>
    <g clip-path="url(#p7954e11d32)">
     <use xlink:href="#C0_0_4680b0023b" x="117.168333" y="183.049419" style="fill: #ff7f0e"/>
    </g>
    <g clip-path="url(#p7954e11d32)">
     <use xlink:href="#C0_0_4680b0023b" x="117.168333" y="190.954244" style="fill: #ff7f0e"/>
    </g>
    <g clip-path="url(#p7954e11d32)">
     <use xlink:href="#C0_0_4680b0023b" x="117.168333" y="173.524888" style="fill: #ff7f0e"/>
    </g>
    <g clip-path="url(#p7954e11d32)">
     <use xlink:href="#C0_0_4680b0023b" x="117.168333" y="163.800474" style="fill: #ff7f0e"/>
    </g>
    <g clip-path="url(#p7954e11d32)">
     <use xlink:href="#C0_0_4680b0023b" x="117.168333" y="190.094317" style="fill: #ff7f0e"/>
    </g>
   </g>
   <g id="PathCollection_11">
    <path d="M 177.698333 216.78822 
L 179.4661 215.020453 
L 177.698333 213.252686 
L 175.930566 215.020453 
z
" clip-path="url(#p7954e11d32)" style="fill: #1f77b4"/>
    <path d="M 177.698333 210.632492 
L 179.4661 208.864725 
L 177.698333 207.096958 
L 175.930566 208.864725 
z
" clip-path="url(#p7954e11d32)" style="fill: #1f77b4"/>
   </g>
   <g id="PathCollection_12">
    <defs>
     <path id="C1_0_3ed55edf83" d="M -0 1.767767 
L 1.767767 -0 
L 0 -1.767767 
L -1.767767 -0 
z
"/>
    </defs>
    <g clip-path="url(#p7954e11d32)">
     <use xlink:href="#C1_0_3ed55edf83" x="218.051667" y="167.956539" style="fill: #ff7f0e"/>
    </g>
    <g clip-path="url(#p7954e11d32)">
     <use xlink:href="#C1_0_3ed55edf83" x="218.051667" y="166.05484" style="fill: #ff7f0e"/>
    </g>
    <g clip-path="url(#p7954e11d32)">
     <use xlink:href="#C1_0_3ed55edf83" x="218.051667" y="150.513049" style="fill: #ff7f0e"/>
    </g>
    <g clip-path="url(#p7954e11d32)">
     <use xlink:href="#C1_0_3ed55edf83" x="218.051667" y="154.73466" style="fill: #ff7f0e"/>
    </g>
    <g clip-path="url(#p7954e11d32)">
     <use xlink:href="#C1_0_3ed55edf83" x="218.051667" y="168.722274" style="fill: #ff7f0e"/>
    </g>
    <g clip-path="url(#p7954e11d32)">
     <use xlink:href="#C1_0_3ed55edf83" x="218.051667" y="163.662962" style="fill: #ff7f0e"/>
    </g>
    <g clip-path="url(#p7954e11d32)">
     <use xlink:href="#C1_0_3ed55edf83" x="218.051667" y="163.869688" style="fill: #ff7f0e"/>
    </g>
    <g clip-path="url(#p7954e11d32)">
     <use xlink:href="#C1_0_3ed55edf83" x="218.051667" y="151.384102" style="fill: #ff7f0e"/>
    </g>
    <g clip-path="url(#p7954e11d32)">
     <use xlink:href="#C1_0_3ed55edf83" x="218.051667" y="149.417539" style="fill: #ff7f0e"/>
    </g>
    <g clip-path="url(#p7954e11d32)">
     <use xlink:href="#C1_0_3ed55edf83" x="218.051667" y="169.047875" style="fill: #ff7f0e"/>
    </g>
    <g clip-path="url(#p7954e11d32)">
     <use xlink:href="#C1_0_3ed55edf83" x="218.051667" y="154.453096" style="fill: #ff7f0e"/>
    </g>
    <g clip-path="url(#p7954e11d32)">
     <use xlink:href="#C1_0_3ed55edf83" x="218.051667" y="147.214931" style="fill: #ff7f0e"/>
    </g>
   </g>
   <g id="PathCollection_13">
    <path d="M 0.767767 361 
L 1.767767 360 
L 0 358.232233 
L -1 359.232233 
M -1 360.767767 
L -0.767767 361 
" clip-path="url(#p7954e11d32)" style="fill: none"/>
   </g>
   <g id="PathCollection_14">
    <defs>
     <path id="C2_0_f9338d828d" d="M -0 1.767767 
L 1.767767 -0 
L 0 -1.767767 
L -1.767767 -0 
z
"/>
    </defs>
    <g clip-path="url(#p7954e11d32)">
     <use xlink:href="#C2_0_f9338d828d" x="318.935" y="172.086989" style="fill: #ff7f0e"/>
    </g>
    <g clip-path="url(#p7954e11d32)">
     <use xlink:href="#C2_0_f9338d828d" x="318.935" y="167.641076" style="fill: #ff7f0e"/>
    </g>
    <g clip-path="url(#p7954e11d32)">
     <use xlink:href="#C2_0_f9338d828d" x="318.935" y="164.184794" style="fill: #ff7f0e"/>
    </g>
    <g clip-path="url(#p7954e11d32)">
     <use xlink:href="#C2_0_f9338d828d" x="318.935" y="160.477555" style="fill: #ff7f0e"/>
    </g>
    <g clip-path="url(#p7954e11d32)">
     <use xlink:href="#C2_0_f9338d828d" x="318.935" y="167.999308" style="fill: #ff7f0e"/>
    </g>
    <g clip-path="url(#p7954e11d32)">
     <use xlink:href="#C2_0_f9338d828d" x="318.935" y="171.299004" style="fill: #ff7f0e"/>
    </g>
    <g clip-path="url(#p7954e11d32)">
     <use xlink:href="#C2_0_f9338d828d" x="318.935" y="163.05871" style="fill: #ff7f0e"/>
    </g>
    <g clip-path="url(#p7954e11d32)">
     <use xlink:href="#C2_0_f9338d828d" x="318.935" y="164.177341" style="fill: #ff7f0e"/>
    </g>
    <g clip-path="url(#p7954e11d32)">
     <use xlink:href="#C2_0_f9338d828d" x="318.935" y="160.830162" style="fill: #ff7f0e"/>
    </g>
    <g clip-path="url(#p7954e11d32)">
     <use xlink:href="#C2_0_f9338d828d" x="318.935" y="165.813299" style="fill: #ff7f0e"/>
    </g>
    <g clip-path="url(#p7954e11d32)">
     <use xlink:href="#C2_0_f9338d828d" x="318.935" y="170.007857" style="fill: #ff7f0e"/>
    </g>
    <g clip-path="url(#p7954e11d32)">
     <use xlink:href="#C2_0_f9338d828d" x="318.935" y="173.824899" style="fill: #ff7f0e"/>
    </g>
    <g clip-path="url(#p7954e11d32)">
     <use xlink:href="#C2_0_f9338d828d" x="318.935" y="168.5062" style="fill: #ff7f0e"/>
    </g>
    <g clip-path="url(#p7954e11d32)">
     <use xlink:href="#C2_0_f9338d828d" x="318.935" y="169.959618" style="fill: #ff7f0e"/>
    </g>
    <g clip-path="url(#p7954e11d32)">
     <use xlink:href="#C2_0_f9338d828d" x="318.935" y="172.092944" style="fill: #ff7f0e"/>
    </g>
    <g clip-path="url(#p7954e11d32)">
     <use xlink:href="#C2_0_f9338d828d" x="318.935" y="166.572632" style="fill: #ff7f0e"/>
    </g>
    <g clip-path="url(#p7954e11d32)">
     <use xlink:href="#C2_0_f9338d828d" x="318.935" y="169.054808" style="fill: #ff7f0e"/>
    </g>
    <g clip-path="url(#p7954e11d32)">
     <use xlink:href="#C2_0_f9338d828d" x="318.935" y="168.580716" style="fill: #ff7f0e"/>
    </g>
    <g clip-path="url(#p7954e11d32)">
     <use xlink:href="#C2_0_f9338d828d" x="318.935" y="162.22876" style="fill: #ff7f0e"/>
    </g>
   </g>
   <g id="legend_1">
    <g id="patch_5">
     <path d="M 53.55 92.190625 
L 145.204688 92.190625 
Q 147.204688 92.190625 147.204688 90.190625 
L 147.204688 17.8 
Q 147.204688 15.8 145.204688 15.8 
L 53.55 15.8 
Q 51.55 15.8 51.55 17.8 
L 51.55 90.190625 
Q 51.55 92.190625 53.55 92.190625 
z
" style="fill: #ffffff; opacity: 0.8; stroke: #cccccc; stroke-linejoin: miter"/>
    </g>
    <g id="text_11">
     <!-- GroupFigure -->
     <g transform="translate(68.892969 27.398438)scale(0.1 -0.1)">
      <defs>
       <path id="DejaVuSans-47" d="M 3809 666 
L 3809 1919 
L 2778 1919 
L 2778 2438 
L 4434 2438 
L 4434 434 
Q 4069 175 3628 42 
Q 3188 -91 2688 -91 
Q 1594 -91 976 548 
Q 359 1188 359 2328 
Q 359 3472 976 4111 
Q 1594 4750 2688 4750 
Q 3144 4750 3555 4637 
Q 3966 4525 4313 4306 
L 4313 3634 
Q 3963 3931 3569 4081 
Q 3175 4231 2741 4231 
Q 1884 4231 1454 3753 
Q 1025 3275 1025 2328 
Q 1025 1384 1454 906 
Q 1884 428 2741 428 
Q 3075 428 3337 486 
Q 3600 544 3809 666 
z
" transform="scale(0.015625)"/>
       <path id="DejaVuSans-72" d="M 2631 2963 
Q 2534 3019 2420 3045 
Q 2306 3072 2169 3072 
Q 1681 3072 1420 2755 
Q 1159 2438 1159 1844 
L 1159 0 
L 581 0 
L 581 3500 
L 1159 3500 
L 1159 2956 
Q 1341 3275 1631 3429 
Q 1922 3584 2338 3584 
Q 2397 3584 2469 3576 
Q 2541 3569 2628 3553 
L 2631 2963 
z
" transform="scale(0.015625)"/>
       <path id="DejaVuSans-75" d="M 544 1381 
L 544 3500 
L 1119 3500 
L 1119 1403 
Q 1119 906 1312 657 
Q 1506 409 1894 409 
Q 2359 409 2629 706 
Q 2900 1003 2900 1516 
L 2900 3500 
L 3475 3500 
L 3475 0 
L 2900 0 
L 2900 538 
Q 2691 219 2414 64 
Q 2138 -91 1772 -91 
Q 1169 -91 856 284 
Q 544 659 544 1381 
z
M 1991 3584 
L 1991 3584 
z
" transform="scale(0.015625)"/>
       <path id="DejaVuSans-46" d="M 628 4666 
L 3309 4666 
L 3309 4134 
L 1259 4134 
L 1259 2759 
L 3109 2759 
L 3109 2228 
L 1259 2228 
L 1259 0 
L 628 0 
L 628 4666 
z
" transform="scale(0.015625)"/>
      </defs>
      <use xlink:href="#DejaVuSans-47"/>
      <use xlink:href="#DejaVuSans-72" x="77.490234"/>
      <use xlink:href="#DejaVuSans-6f" x="116.353516"/>
      <use xlink:href="#DejaVuSans-75" x="177.535156"/>
      <use xlink:href="#DejaVuSans-70" x="240.914062"/>
      <use xlink:href="#DejaVuSans-46" x="304.390625"/>
      <use xlink:href="#DejaVuSans-69" x="354.660156"/>
      <use xlink:href="#DejaVuSans-67" x="382.443359"/>
      <use xlink:href="#DejaVuSans-75" x="445.919922"/>
      <use xlink:href="#DejaVuSans-72" x="509.298828"/>
      <use xlink:href="#DejaVuSans-65" x="548.162109"/>
     </g>
    </g>
    <g id="patch_6">
     <path d="M 55.55 42.076563 
L 75.55 42.076563 
L 75.55 35.076563 
L 55.55 35.076563 
z
" style="fill: #3274a1; stroke: #3f3f3f; stroke-width: 0.75; stroke-linejoin: miter"/>
    </g>
    <g id="text_12">
     <!-- GSC -->
     <g transform="translate(83.55 42.076563)scale(0.1 -0.1)">
      <use xlink:href="#DejaVuSans-47"/>
      <use xlink:href="#DejaVuSans-53" x="77.490234"/>
      <use xlink:href="#DejaVuSans-43" x="140.966797"/>
     </g>
    </g>
    <g id="patch_7">
     <path d="M 55.55 56.754688 
L 75.55 56.754688 
L 75.55 49.754688 
L 55.55 49.754688 
z
" style="fill: #e1812c; stroke: #3f3f3f; stroke-width: 0.75; stroke-linejoin: miter"/>
    </g>
    <g id="text_13">
     <!-- Background -->
     <g transform="translate(83.55 56.754688)scale(0.1 -0.1)">
      <defs>
       <path id="DejaVuSans-42" d="M 1259 2228 
L 1259 519 
L 2272 519 
Q 2781 519 3026 730 
Q 3272 941 3272 1375 
Q 3272 1813 3026 2020 
Q 2781 2228 2272 2228 
L 1259 2228 
z
M 1259 4147 
L 1259 2741 
L 2194 2741 
Q 2656 2741 2882 2914 
Q 3109 3088 3109 3444 
Q 3109 3797 2882 3972 
Q 2656 4147 2194 4147 
L 1259 4147 
z
M 628 4666 
L 2241 4666 
Q 2963 4666 3353 4366 
Q 3744 4066 3744 3513 
Q 3744 3084 3544 2831 
Q 3344 2578 2956 2516 
Q 3422 2416 3680 2098 
Q 3938 1781 3938 1306 
Q 3938 681 3513 340 
Q 3088 0 2303 0 
L 628 0 
L 628 4666 
z
" transform="scale(0.015625)"/>
       <path id="DejaVuSans-63" d="M 3122 3366 
L 3122 2828 
Q 2878 2963 2633 3030 
Q 2388 3097 2138 3097 
Q 1578 3097 1268 2742 
Q 959 2388 959 1747 
Q 959 1106 1268 751 
Q 1578 397 2138 397 
Q 2388 397 2633 464 
Q 2878 531 3122 666 
L 3122 134 
Q 2881 22 2623 -34 
Q 2366 -91 2075 -91 
Q 1284 -91 818 406 
Q 353 903 353 1747 
Q 353 2603 823 3093 
Q 1294 3584 2113 3584 
Q 2378 3584 2631 3529 
Q 2884 3475 3122 3366 
z
" transform="scale(0.015625)"/>
       <path id="DejaVuSans-6b" d="M 581 4863 
L 1159 4863 
L 1159 1991 
L 2875 3500 
L 3609 3500 
L 1753 1863 
L 3688 0 
L 2938 0 
L 1159 1709 
L 1159 0 
L 581 0 
L 581 4863 
z
" transform="scale(0.015625)"/>
      </defs>
      <use xlink:href="#DejaVuSans-42"/>
      <use xlink:href="#DejaVuSans-61" x="68.603516"/>
      <use xlink:href="#DejaVuSans-63" x="129.882812"/>
      <use xlink:href="#DejaVuSans-6b" x="184.863281"/>
      <use xlink:href="#DejaVuSans-67" x="242.773438"/>
      <use xlink:href="#DejaVuSans-72" x="306.25"/>
      <use xlink:href="#DejaVuSans-6f" x="345.113281"/>
      <use xlink:href="#DejaVuSans-75" x="406.294922"/>
      <use xlink:href="#DejaVuSans-6e" x="469.673828"/>
      <use xlink:href="#DejaVuSans-64" x="533.052734"/>
     </g>
    </g>
    <g id="PathCollection_15">
     <defs>
      <path id="maa450671ee" d="M 0 3.872983 
C 1.027127 3.872983 2.012324 3.464901 2.738613 2.738613 
C 3.464901 2.012324 3.872983 1.027127 3.872983 0 
C 3.872983 -1.027127 3.464901 -2.012324 2.738613 -2.738613 
C 2.012324 -3.464901 1.027127 -3.872983 0 -3.872983 
C -1.027127 -3.872983 -2.012324 -3.464901 -2.738613 -2.738613 
C -3.464901 -2.012324 -3.872983 -1.027127 -3.872983 0 
C -3.872983 1.027127 -3.464901 2.012324 -2.738613 2.738613 
C -2.012324 3.464901 -1.027127 3.872983 0 3.872983 
z
" style="stroke: #1f77b4"/>
     </defs>
     <g>
      <use xlink:href="#maa450671ee" x="65.55" y="68.807813" style="fill: #1f77b4; stroke: #1f77b4"/>
     </g>
    </g>
    <g id="text_14">
     <!-- GSC -->
     <g transform="translate(83.55 71.432813)scale(0.1 -0.1)">
      <use xlink:href="#DejaVuSans-47"/>
      <use xlink:href="#DejaVuSans-53" x="77.490234"/>
      <use xlink:href="#DejaVuSans-43" x="140.966797"/>
     </g>
    </g>
    <g id="PathCollection_16">
     <defs>
      <path id="m58a7c9030b" d="M 0 3.872983 
C 1.027127 3.872983 2.012324 3.464901 2.738613 2.738613 
C 3.464901 2.012324 3.872983 1.027127 3.872983 0 
C 3.872983 -1.027127 3.464901 -2.012324 2.738613 -2.738613 
C 2.012324 -3.464901 1.027127 -3.872983 0 -3.872983 
C -1.027127 -3.872983 -2.012324 -3.464901 -2.738613 -2.738613 
C -3.464901 -2.012324 -3.872983 -1.027127 -3.872983 0 
C -3.872983 1.027127 -3.464901 2.012324 -2.738613 2.738613 
C -2.012324 3.464901 -1.027127 3.872983 0 3.872983 
z
" style="stroke: #ff7f0e"/>
     </defs>
     <g>
      <use xlink:href="#m58a7c9030b" x="65.55" y="83.485938" style="fill: #ff7f0e; stroke: #ff7f0e"/>
     </g>
    </g>
    <g id="text_15">
     <!-- Background -->
     <g transform="translate(83.55 86.110938)scale(0.1 -0.1)">
      <use xlink:href="#DejaVuSans-42"/>
      <use xlink:href="#DejaVuSans-61" x="68.603516"/>
      <use xlink:href="#DejaVuSans-63" x="129.882812"/>
      <use xlink:href="#DejaVuSans-6b" x="184.863281"/>
      <use xlink:href="#DejaVuSans-67" x="242.773438"/>
      <use xlink:href="#DejaVuSans-72" x="306.25"/>
      <use xlink:href="#DejaVuSans-6f" x="345.113281"/>
      <use xlink:href="#DejaVuSans-75" x="406.294922"/>
      <use xlink:href="#DejaVuSans-6e" x="469.673828"/>
      <use xlink:href="#DejaVuSans-64" x="533.052734"/>
     </g>
    </g>
   </g>
  </g>
 </g>
 <defs>
  <clipPath id="p7954e11d32">
   <rect x="46.55" y="10.8" width="302.65" height="307.4"/>
  </clipPath>
 </defs>
</svg>
