<?xml version="1.0" encoding="UTF-8" standalone="no"?>
<!DOCTYPE svg PUBLIC "-//W3C//DTD SVG 1.1//EN" "http://www.w3.org/Graphics/SVG/1.1/DTD/svg11.dtd">
<svg xmlns:xlink="http://www.w3.org/1999/xlink" width="432pt" height="288pt" viewBox="0 0 432 288" xmlns="http://www.w3.org/2000/svg" version="1.1">
 <metadata>
  <rdf:RDF xmlns:dc="http://purl.org/dc/elements/1.1/" xmlns:cc="http://creativecommons.org/ns#" xmlns:rdf="http://www.w3.org/1999/02/22-rdf-syntax-ns#">
   <cc:Work>
    <dc:type rdf:resource="http://purl.org/dc/dcmitype/StillImage"/>
    <dc:date>2024-08-07T01:44:29.458559</dc:date>
    <dc:format>image/svg+xml</dc:format>
    <dc:creator>
     <cc:Agent>
      <dc:title>Matplotlib v3.5.1, https://matplotlib.org/</dc:title>
     </cc:Agent>
    </dc:creator>
   </cc:Work>
  </rdf:RDF>
 </metadata>
 <defs>
  <style type="text/css">*{stroke-linejoin: round; stroke-linecap: butt}</style>
 </defs>
 <g id="figure_1">
  <g id="patch_1">
   <path d="M 0 288  L 432 288  L 432 0  L 0 0  z " style="fill: #ffffff"/>
  </g>
  <g id="axes_1">
   <g id="patch_2">
    <path d="M 54 256.32  L 388.8 256.32  L 388.8 34.56  L 54 34.56  z " style="fill: #ffffff"/>
   </g>
   <g id="matplotlib.axis_1">
    <g id="xtick_1">
     <g id="line2d_1">
      <defs>
       <path id="mfb016328dd" d="M 0 0  L 0 3.5  " style="stroke: #000000; stroke-width: 0.8"/>
      </defs>
      <g>
       <use xlink:href="#mfb016328dd" x="69.218182" y="256.32" style="stroke: #000000; stroke-width: 0.8"/>
      </g>
     </g>
     <g id="text_1">
      <!-- 0 -->
      <g transform="translate(66.036932 270.918437)scale(0.1 -0.1)">
       <defs>
        <path id="DejaVuSans-30" d="M 2034 4250  Q 1547 4250 1301 3770  Q 1056 3291 1056 2328  Q 1056 1369 1301 889  Q 1547 409 2034 409  Q 2525 409 2770 889  Q 3016 1369 3016 2328  Q 3016 3291 2770 3770  Q 2525 4250 2034 4250  z M 2034 4750  Q 2819 4750 3233 4129  Q 3647 3509 3647 2328  Q 3647 1150 3233 529  Q 2819 -91 2034 -91  Q 1250 -91 836 529  Q 422 1150 422 2328  Q 422 3509 836 4129  Q 1250 4750 2034 4750  z " transform="scale(0.015625)"/>
       </defs>
       <use xlink:href="#DejaVuSans-30"/>
      </g>
     </g>
    </g>
    <g id="xtick_2">
     <g id="line2d_2">
      <g>
       <use xlink:href="#mfb016328dd" x="107.358988" y="256.32" style="stroke: #000000; stroke-width: 0.8"/>
      </g>
     </g>
     <g id="text_2">
      <!-- 50 -->
      <g transform="translate(100.996488 270.918437)scale(0.1 -0.1)">
       <defs>
        <path id="DejaVuSans-35" d="M 691 4666  L 3169 4666  L 3169 4134  L 1269 4134  L 1269 2991  Q 1406 3038 1543 3061  Q 1681 3084 1819 3084  Q 2600 3084 3056 2656  Q 3513 2228 3513 1497  Q 3513 744 3044 326  Q 2575 -91 1722 -91  Q 1428 -91 1123 -41  Q 819 9 494 109  L 494 744  Q 775 591 1075 516  Q 1375 441 1709 441  Q 2250 441 2565 725  Q 2881 1009 2881 1497  Q 2881 1984 2565 2268  Q 2250 2553 1709 2553  Q 1456 2553 1204 2497  Q 953 2441 691 2322  L 691 4666  z " transform="scale(0.015625)"/>
       </defs>
       <use xlink:href="#DejaVuSans-35"/>
       <use xlink:href="#DejaVuSans-30" x="63.623047"/>
      </g>
     </g>
    </g>
    <g id="xtick_3">
     <g id="line2d_3">
      <g>
       <use xlink:href="#mfb016328dd" x="145.499795" y="256.32" style="stroke: #000000; stroke-width: 0.8"/>
      </g>
     </g>
     <g id="text_3">
      <!-- 100 -->
      <g transform="translate(135.956045 270.918437)scale(0.1 -0.1)">
       <defs>
        <path id="DejaVuSans-31" d="M 794 531  L 1825 531  L 1825 4091  L 703 3866  L 703 4441  L 1819 4666  L 2450 4666  L 2450 531  L 3481 531  L 3481 0  L 794 0  L 794 531  z " transform="scale(0.015625)"/>
       </defs>
       <use xlink:href="#DejaVuSans-31"/>
       <use xlink:href="#DejaVuSans-30" x="63.623047"/>
       <use xlink:href="#DejaVuSans-30" x="127.246094"/>
      </g>
     </g>
    </g>
    <g id="xtick_4">
     <g id="line2d_4">
      <g>
       <use xlink:href="#mfb016328dd" x="183.640602" y="256.32" style="stroke: #000000; stroke-width: 0.8"/>
      </g>
     </g>
     <g id="text_4">
      <!-- 150 -->
      <g transform="translate(174.096852 270.918437)scale(0.1 -0.1)">
       <use xlink:href="#DejaVuSans-31"/>
       <use xlink:href="#DejaVuSans-35" x="63.623047"/>
       <use xlink:href="#DejaVuSans-30" x="127.246094"/>
      </g>
     </g>
    </g>
    <g id="xtick_5">
     <g id="line2d_5">
      <g>
       <use xlink:href="#mfb016328dd" x="221.781408" y="256.32" style="stroke: #000000; stroke-width: 0.8"/>
      </g>
     </g>
     <g id="text_5">
      <!-- 200 -->
      <g transform="translate(212.237658 270.918437)scale(0.1 -0.1)">
       <defs>
        <path id="DejaVuSans-32" d="M 1228 531  L 3431 531  L 3431 0  L 469 0  L 469 531  Q 828 903 1448 1529  Q 2069 2156 2228 2338  Q 2531 2678 2651 2914  Q 2772 3150 2772 3378  Q 2772 3750 2511 3984  Q 2250 4219 1831 4219  Q 1534 4219 1204 4116  Q 875 4013 500 3803  L 500 4441  Q 881 4594 1212 4672  Q 1544 4750 1819 4750  Q 2544 4750 2975 4387  Q 3406 4025 3406 3419  Q 3406 3131 3298 2873  Q 3191 2616 2906 2266  Q 2828 2175 2409 1742  Q 1991 1309 1228 531  z " transform="scale(0.015625)"/>
       </defs>
       <use xlink:href="#DejaVuSans-32"/>
       <use xlink:href="#DejaVuSans-30" x="63.623047"/>
       <use xlink:href="#DejaVuSans-30" x="127.246094"/>
      </g>
     </g>
    </g>
    <g id="xtick_6">
     <g id="line2d_6">
      <g>
       <use xlink:href="#mfb016328dd" x="259.922215" y="256.32" style="stroke: #000000; stroke-width: 0.8"/>
      </g>
     </g>
     <g id="text_6">
      <!-- 250 -->
      <g transform="translate(250.378465 270.918437)scale(0.1 -0.1)">
       <use xlink:href="#DejaVuSans-32"/>
       <use xlink:href="#DejaVuSans-35" x="63.623047"/>
       <use xlink:href="#DejaVuSans-30" x="127.246094"/>
      </g>
     </g>
    </g>
    <g id="xtick_7">
     <g id="line2d_7">
      <g>
       <use xlink:href="#mfb016328dd" x="298.063021" y="256.32" style="stroke: #000000; stroke-width: 0.8"/>
      </g>
     </g>
     <g id="text_7">
      <!-- 300 -->
      <g transform="translate(288.519271 270.918437)scale(0.1 -0.1)">
       <defs>
        <path id="DejaVuSans-33" d="M 2597 2516  Q 3050 2419 3304 2112  Q 3559 1806 3559 1356  Q 3559 666 3084 287  Q 2609 -91 1734 -91  Q 1441 -91 1130 -33  Q 819 25 488 141  L 488 750  Q 750 597 1062 519  Q 1375 441 1716 441  Q 2309 441 2620 675  Q 2931 909 2931 1356  Q 2931 1769 2642 2001  Q 2353 2234 1838 2234  L 1294 2234  L 1294 2753  L 1863 2753  Q 2328 2753 2575 2939  Q 2822 3125 2822 3475  Q 2822 3834 2567 4026  Q 2313 4219 1838 4219  Q 1578 4219 1281 4162  Q 984 4106 628 3988  L 628 4550  Q 988 4650 1302 4700  Q 1616 4750 1894 4750  Q 2613 4750 3031 4423  Q 3450 4097 3450 3541  Q 3450 3153 3228 2886  Q 3006 2619 2597 2516  z " transform="scale(0.015625)"/>
       </defs>
       <use xlink:href="#DejaVuSans-33"/>
       <use xlink:href="#DejaVuSans-30" x="63.623047"/>
       <use xlink:href="#DejaVuSans-30" x="127.246094"/>
      </g>
     </g>
    </g>
    <g id="xtick_8">
     <g id="line2d_8">
      <g>
       <use xlink:href="#mfb016328dd" x="336.203828" y="256.32" style="stroke: #000000; stroke-width: 0.8"/>
      </g>
     </g>
     <g id="text_8">
      <!-- 350 -->
      <g transform="translate(326.660078 270.918437)scale(0.1 -0.1)">
       <use xlink:href="#DejaVuSans-33"/>
       <use xlink:href="#DejaVuSans-35" x="63.623047"/>
       <use xlink:href="#DejaVuSans-30" x="127.246094"/>
      </g>
     </g>
    </g>
    <g id="xtick_9">
     <g id="line2d_9">
      <g>
       <use xlink:href="#mfb016328dd" x="374.344634" y="256.32" style="stroke: #000000; stroke-width: 0.8"/>
      </g>
     </g>
     <g id="text_9">
      <!-- 400 -->
      <g transform="translate(364.800884 270.918437)scale(0.1 -0.1)">
       <defs>
        <path id="DejaVuSans-34" d="M 2419 4116  L 825 1625  L 2419 1625  L 2419 4116  z M 2253 4666  L 3047 4666  L 3047 1625  L 3713 1625  L 3713 1100  L 3047 1100  L 3047 0  L 2419 0  L 2419 1100  L 313 1100  L 313 1709  L 2253 4666  z " transform="scale(0.015625)"/>
       </defs>
       <use xlink:href="#DejaVuSans-34"/>
       <use xlink:href="#DejaVuSans-30" x="63.623047"/>
       <use xlink:href="#DejaVuSans-30" x="127.246094"/>
      </g>
     </g>
    </g>
   </g>
   <g id="matplotlib.axis_2">
    <g id="ytick_1">
     <g id="line2d_10">
      <defs>
       <path id="m03fa30770a" d="M 0 0  L -3.5 0  " style="stroke: #000000; stroke-width: 0.8"/>
      </defs>
      <g>
       <use xlink:href="#m03fa30770a" x="54" y="256.32" style="stroke: #000000; stroke-width: 0.8"/>
      </g>
     </g>
     <g id="text_10">
      <!-- 0.00025 -->
      <g transform="translate(5.646875 260.119219)scale(0.1 -0.1)">
       <defs>
        <path id="DejaVuSans-2e" d="M 684 794  L 1344 794  L 1344 0  L 684 0  L 684 794  z " transform="scale(0.015625)"/>
       </defs>
       <use xlink:href="#DejaVuSans-30"/>
       <use xlink:href="#DejaVuSans-2e" x="63.623047"/>
       <use xlink:href="#DejaVuSans-30" x="95.410156"/>
       <use xlink:href="#DejaVuSans-30" x="159.033203"/>
       <use xlink:href="#DejaVuSans-30" x="222.65625"/>
       <use xlink:href="#DejaVuSans-32" x="286.279297"/>
       <use xlink:href="#DejaVuSans-35" x="349.902344"/>
      </g>
     </g>
    </g>
    <g id="ytick_2">
     <g id="line2d_11">
      <g>
       <use xlink:href="#m03fa30770a" x="54" y="227.889231" style="stroke: #000000; stroke-width: 0.8"/>
      </g>
     </g>
     <g id="text_11">
      <!-- 0.00050 -->
      <g transform="translate(5.646875 231.68845)scale(0.1 -0.1)">
       <use xlink:href="#DejaVuSans-30"/>
       <use xlink:href="#DejaVuSans-2e" x="63.623047"/>
       <use xlink:href="#DejaVuSans-30" x="95.410156"/>
       <use xlink:href="#DejaVuSans-30" x="159.033203"/>
       <use xlink:href="#DejaVuSans-30" x="222.65625"/>
       <use xlink:href="#DejaVuSans-35" x="286.279297"/>
       <use xlink:href="#DejaVuSans-30" x="349.902344"/>
      </g>
     </g>
    </g>
    <g id="ytick_3">
     <g id="line2d_12">
      <g>
       <use xlink:href="#m03fa30770a" x="54" y="199.458462" style="stroke: #000000; stroke-width: 0.8"/>
      </g>
     </g>
     <g id="text_12">
      <!-- 0.00075 -->
      <g transform="translate(5.646875 203.25768)scale(0.1 -0.1)">
       <defs>
        <path id="DejaVuSans-37" d="M 525 4666  L 3525 4666  L 3525 4397  L 1831 0  L 1172 0  L 2766 4134  L 525 4134  L 525 4666  z " transform="scale(0.015625)"/>
       </defs>
       <use xlink:href="#DejaVuSans-30"/>
       <use xlink:href="#DejaVuSans-2e" x="63.623047"/>
       <use xlink:href="#DejaVuSans-30" x="95.410156"/>
       <use xlink:href="#DejaVuSans-30" x="159.033203"/>
       <use xlink:href="#DejaVuSans-30" x="222.65625"/>
       <use xlink:href="#DejaVuSans-37" x="286.279297"/>
       <use xlink:href="#DejaVuSans-35" x="349.902344"/>
      </g>
     </g>
    </g>
    <g id="ytick_4">
     <g id="line2d_13">
      <g>
       <use xlink:href="#m03fa30770a" x="54" y="171.027692" style="stroke: #000000; stroke-width: 0.8"/>
      </g>
     </g>
     <g id="text_13">
      <!-- 0.00100 -->
      <g transform="translate(5.646875 174.826911)scale(0.1 -0.1)">
       <use xlink:href="#DejaVuSans-30"/>
       <use xlink:href="#DejaVuSans-2e" x="63.623047"/>
       <use xlink:href="#DejaVuSans-30" x="95.410156"/>
       <use xlink:href="#DejaVuSans-30" x="159.033203"/>
       <use xlink:href="#DejaVuSans-31" x="222.65625"/>
       <use xlink:href="#DejaVuSans-30" x="286.279297"/>
       <use xlink:href="#DejaVuSans-30" x="349.902344"/>
      </g>
     </g>
    </g>
    <g id="ytick_5">
     <g id="line2d_14">
      <g>
       <use xlink:href="#m03fa30770a" x="54" y="142.596923" style="stroke: #000000; stroke-width: 0.8"/>
      </g>
     </g>
     <g id="text_14">
      <!-- 0.00125 -->
      <g transform="translate(5.646875 146.396142)scale(0.1 -0.1)">
       <use xlink:href="#DejaVuSans-30"/>
       <use xlink:href="#DejaVuSans-2e" x="63.623047"/>
       <use xlink:href="#DejaVuSans-30" x="95.410156"/>
       <use xlink:href="#DejaVuSans-30" x="159.033203"/>
       <use xlink:href="#DejaVuSans-31" x="222.65625"/>
       <use xlink:href="#DejaVuSans-32" x="286.279297"/>
       <use xlink:href="#DejaVuSans-35" x="349.902344"/>
      </g>
     </g>
    </g>
    <g id="ytick_6">
     <g id="line2d_15">
      <g>
       <use xlink:href="#m03fa30770a" x="54" y="114.166154" style="stroke: #000000; stroke-width: 0.8"/>
      </g>
     </g>
     <g id="text_15">
      <!-- 0.00150 -->
      <g transform="translate(5.646875 117.965373)scale(0.1 -0.1)">
       <use xlink:href="#DejaVuSans-30"/>
       <use xlink:href="#DejaVuSans-2e" x="63.623047"/>
       <use xlink:href="#DejaVuSans-30" x="95.410156"/>
       <use xlink:href="#DejaVuSans-30" x="159.033203"/>
       <use xlink:href="#DejaVuSans-31" x="222.65625"/>
       <use xlink:href="#DejaVuSans-35" x="286.279297"/>
       <use xlink:href="#DejaVuSans-30" x="349.902344"/>
      </g>
     </g>
    </g>
    <g id="ytick_7">
     <g id="line2d_16">
      <g>
       <use xlink:href="#m03fa30770a" x="54" y="85.735385" style="stroke: #000000; stroke-width: 0.8"/>
      </g>
     </g>
     <g id="text_16">
      <!-- 0.00175 -->
      <g transform="translate(5.646875 89.534603)scale(0.1 -0.1)">
       <use xlink:href="#DejaVuSans-30"/>
       <use xlink:href="#DejaVuSans-2e" x="63.623047"/>
       <use xlink:href="#DejaVuSans-30" x="95.410156"/>
       <use xlink:href="#DejaVuSans-30" x="159.033203"/>
       <use xlink:href="#DejaVuSans-31" x="222.65625"/>
       <use xlink:href="#DejaVuSans-37" x="286.279297"/>
       <use xlink:href="#DejaVuSans-35" x="349.902344"/>
      </g>
     </g>
    </g>
    <g id="ytick_8">
     <g id="line2d_17">
      <g>
       <use xlink:href="#m03fa30770a" x="54" y="57.304615" style="stroke: #000000; stroke-width: 0.8"/>
      </g>
     </g>
     <g id="text_17">
      <!-- 0.00200 -->
      <g transform="translate(5.646875 61.103834)scale(0.1 -0.1)">
       <use xlink:href="#DejaVuSans-30"/>
       <use xlink:href="#DejaVuSans-2e" x="63.623047"/>
       <use xlink:href="#DejaVuSans-30" x="95.410156"/>
       <use xlink:href="#DejaVuSans-30" x="159.033203"/>
       <use xlink:href="#DejaVuSans-32" x="222.65625"/>
       <use xlink:href="#DejaVuSans-30" x="286.279297"/>
       <use xlink:href="#DejaVuSans-30" x="349.902344"/>
      </g>
     </g>
    </g>
   </g>
   <g id="line2d_18">
    <path d="M 69.218182 171.785613  L 69.980998 173.318079  L 70.743814 172.350909  L 71.50663 174.018276  L 72.269446 171.134844  L 73.032262 173.317311  L 73.795079 173.931871  L 75.320711 173.209902  L 76.083527 174.529974  L 77.609159 173.725758  L 78.371975 174.841053  L 79.134792 173.541383  L 79.897608 173.252638  L 80.660424 174.347685  L 81.42324 172.385199  L 82.186056 175.037535  L 82.948872 174.580494  L 83.711688 175.549538  L 84.474504 173.150287  L 85.237321 173.467575  L 86.000137 176.184949  L 86.762953 175.508291  L 87.525769 175.843624  L 88.288585 174.25748  L 89.051401 174.851909  L 90.577033 173.364072  L 91.33985 173.764601  L 92.102666 174.506839  L 92.865482 174.823617  L 93.628298 174.954261  L 94.391114 176.042363  L 95.15393 174.28697  L 96.679563 172.472683  L 97.442379 175.17217  L 98.205195 176.601643  L 98.968011 174.377082  L 99.730827 176.505567  L 100.493643 176.296309  L 101.256459 175.846411  L 102.019275 175.759576  L 102.782092 176.235965  L 103.544908 175.611106  L 104.307724 173.62336  L 105.07054 174.958597  L 105.833356 175.730212  L 106.596172 176.92567  L 107.358988 176.712448  L 108.121805 176.330069  L 108.884621 176.631881  L 109.647437 177.411314  L 110.410253 174.790586  L 111.173069 175.282134  L 111.935885 173.353534  L 112.698701 175.342981  L 113.461517 175.728093  L 114.224334 176.644187  L 114.98715 177.122575  L 115.749966 176.537552  L 116.512782 176.828634  L 118.038414 173.888374  L 118.80123 173.930494  L 119.564046 175.111548  L 120.326863 174.970598  L 121.089679 175.635592  L 121.852495 177.773939  L 122.615311 174.867267  L 123.378127 175.557488  L 124.140943 178.525411  L 124.903759 177.703706  L 125.666576 175.940992  L 126.429392 178.72464  L 127.192208 176.091745  L 127.955024 175.331523  L 128.71784 175.403722  L 129.480656 174.647795  L 130.243472 177.344946  L 131.006288 173.959852  L 131.769105 175.439137  L 133.294737 173.779025  L 134.057553 176.693039  L 134.820369 173.025137  L 135.583185 174.888045  L 136.346001 171.433135  L 137.108817 171.211816  L 137.871634 173.362377  L 138.63445 171.293555  L 139.397266 172.454704  L 140.160082 172.431443  L 140.922898 173.436688  L 141.685714 170.979404  L 142.44853 172.631751  L 143.211347 169.562065  L 143.974163 170.557513  L 144.736979 169.119349  L 145.499795 169.770461  L 146.262611 169.131833  L 147.025427 169.302512  L 147.788243 171.061619  L 148.551059 169.773493  L 149.313876 173.70294  L 150.076692 168.821072  L 150.839508 169.041318  L 151.602324 168.766288  L 152.36514 167.469862  L 153.127956 171.122611  L 153.890772 168.380858  L 154.653589 170.042035  L 155.416405 172.226912  L 156.942037 169.314401  L 157.704853 167.111016  L 158.467669 165.37423  L 159.230485 168.800207  L 159.993301 169.89953  L 160.756118 166.018233  L 161.518934 166.84912  L 162.28175 167.112141  L 163.044566 167.754781  L 163.807382 166.242093  L 164.570198 165.095216  L 165.333014 167.20271  L 166.09583 165.237219  L 166.858647 163.620512  L 167.621463 165.138362  L 168.384279 165.394473  L 169.147095 167.184241  L 169.909911 163.673931  L 170.672727 164.607871  L 171.435543 161.545758  L 172.19836 163.584501  L 172.961176 161.930261  L 173.723992 160.629056  L 174.486808 164.53536  L 175.249624 159.378569  L 176.01244 163.158321  L 176.775256 162.690636  L 177.538072 161.713895  L 178.300889 161.428089  L 179.063705 158.021798  L 179.826521 160.715454  L 180.589337 158.47308  L 181.352153 163.227151  L 182.114969 150.36124  L 182.877785 156.484884  L 183.640602 156.813491  L 184.403418 166.892266  L 185.166234 161.438375  L 185.92905 152.598993  L 186.691866 163.204552  L 187.454682 153.107746  L 188.217498 161.402272  L 188.980314 141.763498  L 189.743131 161.05468  L 190.505947 161.663546  L 191.268763 160.037479  L 192.794395 148.027357  L 193.557211 163.813233  L 194.320027 158.873351  L 195.082843 146.850572  L 195.84566 148.702075  L 196.608476 140.777807  L 197.371292 161.522033  L 198.134108 152.918784  L 198.896924 170.233857  L 199.65974 143.605852  L 200.422556 135.728411  L 201.185373 140.810428  L 202.711005 165.872087  L 203.473821 116.639377  L 204.236637 161.240438  L 204.999453 160.184076  L 205.762269 162.797648  L 206.525085 140.779673  L 207.287902 139.336518  L 208.050718 157.680018  L 208.813534 154.911376  L 209.57635 158.177742  L 210.339166 148.117489  L 211.101982 185.30913  L 211.864798 179.676194  L 212.627614 181.525307  L 213.390431 161.253438  L 214.153247 187.146825  L 214.916063 229.775238  L 215.678879 171.378603  L 216.441695 181.381166  L 217.204511 163.719156  L 217.967327 208.041931  L 218.730144 218.342507  L 219.49296 176.988675  L 220.255776 184.619432  L 221.018592 189.219784  L 221.781408 199.710024  L 222.544224 163.117359  L 223.30704 184.463681  L 224.069856 173.069144  L 224.832673 173.33623  L 225.595489 235.69687  L 226.358305 162.844183  L 227.121121 216.629194  L 227.883937 148.356905  L 228.646753 177.179921  L 229.409569 179.86466  L 230.172386 140.008945  L 231.698018 138.13528  L 232.460834 174.007916  L 233.22365 93.12672  L 233.986466 143.959045  L 234.749282 118.478924  L 235.512098 148.314434  L 236.274915 122.00242  L 237.037731 105.371426  L 237.800547 125.333671  L 238.563363 114.064277  L 239.326179 117.395992  L 240.088995 77.154794  L 240.851811 133.578379  L 241.614627 148.674114  L 242.377444 133.361801  L 243.14026 129.330452  L 243.903076 130.654827  L 244.665892 157.652917  L 245.428708 150.595585  L 246.191524 129.648045  L 246.95434 131.910132  L 247.717157 154.120908  L 248.479973 163.678088  L 249.242789 152.648216  L 250.005605 157.826257  L 250.768421 148.876897  L 251.531237 161.638167  L 252.294053 161.323434  L 253.056869 159.685041  L 253.819686 158.898201  L 254.582502 164.578824  L 255.345318 168.501572  L 256.108134 157.458686  L 256.87095 163.15423  L 257.633766 160.544312  L 258.396582 171.305258  L 259.159398 164.331928  L 260.685031 164.974727  L 261.447847 166.647568  L 262.210663 166.387062  L 262.973479 163.667497  L 263.736295 163.961313  L 264.499111 165.400218  L 265.261928 166.172866  L 266.024744 167.682071  L 266.78756 165.009493  L 267.550376 162.949606  L 268.313192 164.241598  L 269.076008 164.923822  L 269.838824 162.177647  L 270.60164 163.138105  L 271.364457 165.039175  L 272.127273 163.05315  L 272.890089 162.014436  L 274.415721 164.946117  L 275.178537 165.807268  L 275.941353 162.601656  L 276.70417 166.417048  L 277.466986 166.029076  L 278.229802 164.270327  L 278.992618 164.780403  L 279.755434 164.810827  L 280.51825 166.109318  L 281.281066 169.119071  L 282.043882 165.928988  L 282.806699 169.779067  L 283.569515 166.55733  L 284.332331 165.796359  L 285.095147 168.52772  L 285.857963 166.8669  L 286.620779 169.232808  L 287.383595 169.819658  L 288.146411 169.511756  L 288.909228 169.019049  L 289.672044 168.998794  L 290.43486 166.592453  L 291.197676 167.375427  L 291.960492 165.231407  L 292.723308 168.183622  L 293.486124 167.407651  L 294.248941 167.254965  L 295.011757 173.044625  L 295.774573 170.797631  L 296.537389 170.01095  L 297.300205 168.206142  L 298.825837 171.61455  L 299.588653 168.178353  L 300.35147 169.194441  L 301.114286 171.38701  L 301.877102 171.895749  L 302.639918 173.33758  L 303.402734 173.198252  L 304.16555 171.703821  L 304.928366 170.553396  L 305.691183 171.896093  L 306.453999 170.146637  L 307.216815 170.302223  L 307.979631 172.37703  L 308.742447 171.300545  L 309.505263 173.340427  L 310.268079 172.893567  L 311.030895 172.289771  L 311.793712 172.471544  L 312.556528 172.206206  L 313.319344 171.812845  L 314.08216 170.940335  L 314.844976 173.999437  L 315.607792 175.378687  L 316.370608 173.65332  L 317.133424 175.7206  L 317.896241 174.419209  L 318.659057 173.793992  L 319.421873 175.349958  L 320.184689 174.242718  L 320.947505 176.462089  L 321.710321 172.846184  L 322.473137 173.941436  L 323.235954 173.864464  L 323.99877 174.846177  L 324.761586 176.448116  L 325.524402 176.155253  L 326.287218 176.204913  L 327.050034 175.939184  L 327.81285 176.226347  L 328.575666 173.849702  L 329.338483 175.305369  L 330.101299 174.788315  L 330.864115 174.788395  L 331.626931 177.120649  L 332.389747 176.164792  L 333.152563 175.800915  L 333.915379 176.640784  L 334.678195 174.582242  L 335.441012 173.437536  L 336.203828 174.67336  L 336.966644 174.538315  L 337.72946 174.020308  L 338.492276 175.009633  L 339.255092 175.561618  L 340.017908 176.285235  L 340.780725 178.69378  L 341.543541 174.366034  L 342.306357 178.298519  L 343.069173 174.480499  L 344.594805 176.630564  L 345.357621 174.479123  L 346.120437 174.882048  L 346.883254 176.459779  L 347.64607 177.417662  L 348.408886 174.502907  L 349.171702 174.292166  L 349.934518 174.316646  L 350.697334 175.659363  L 351.46015 172.703321  L 352.222967 174.580137  L 352.985783 174.608482  L 353.748599 176.658929  L 355.274231 172.991523  L 356.799863 176.699394  L 357.562679 175.403457  L 358.325496 174.761923  L 359.088312 172.537131  L 359.851128 174.759222  L 360.613944 175.060147  L 361.37676 175.125482  L 362.139576 174.058112  L 362.902392 178.061109  L 363.665208 174.254117  L 364.428025 174.173114  L 365.190841 174.454577  L 365.953657 175.060412  L 366.716473 174.665734  L 367.479289 174.409968  L 368.242105 176.254427  L 369.004921 175.001227  L 369.767738 175.614786  L 370.530554 175.728828  L 371.29337 176.833764  L 372.819002 175.111111  L 373.581818 176.61095  L 373.581818 176.61095  " clip-path="url(#pf99301df68)" style="fill: none; stroke: #1f77b4; stroke-width: 1.5; stroke-linecap: square"/>
   </g>
   <g id="line2d_19">
    <path d="M 69.218182 172.798166  L 69.980998 171.767502  L 70.743814 169.286281  L 71.50663 170.151576  L 72.269446 173.27725  L 73.032262 180.232343  L 73.795079 182.494642  L 74.557895 174.952182  L 75.320711 182.378217  L 76.083527 169.284149  L 76.846343 170.13226  L 77.609159 169.761816  L 78.371975 170.892211  L 79.134792 168.355783  L 79.897608 171.831261  L 80.660424 171.78924  L 81.42324 167.587372  L 82.186056 182.470613  L 82.948872 176.956683  L 83.711688 176.340786  L 84.474504 168.551656  L 85.237321 176.04466  L 86.000137 169.899318  L 86.762953 176.435863  L 87.525769 173.339354  L 88.288585 176.12148  L 89.051401 176.062924  L 89.814217 170.220247  L 90.577033 166.622082  L 91.33985 181.764862  L 92.102666 165.949761  L 92.865482 180.632051  L 93.628298 178.933301  L 94.391114 170.223583  L 95.15393 174.94449  L 95.916746 167.146232  L 96.679563 166.061022  L 97.442379 182.009091  L 98.205195 173.241795  L 98.968011 175.711412  L 99.730827 175.886963  L 100.493643 175.547439  L 101.256459 172.342608  L 102.019275 167.970909  L 102.782092 165.784828  L 103.544908 176.379716  L 104.307724 172.287256  L 105.07054 179.691492  L 105.833356 171.546475  L 106.596172 174.156889  L 107.358988 165.81218  L 108.121805 179.306737  L 108.884621 166.38963  L 109.647437 185.708859  L 110.410253 171.918811  L 111.173069 177.697298  L 111.935885 166.097747  L 112.698701 174.224998  L 113.461517 177.478747  L 114.224334 166.389683  L 114.98715 184.28347  L 115.749966 174.824829  L 116.512782 181.246286  L 117.275598 176.765768  L 118.038414 164.75276  L 118.80123 173.644251  L 119.564046 172.501332  L 120.326863 174.637747  L 121.089679 173.932632  L 121.852495 175.031921  L 122.615311 186.774964  L 123.378127 173.156575  L 124.140943 177.648876  L 124.903759 174.73571  L 125.666576 173.301438  L 126.429392 178.607388  L 127.192208 173.133658  L 127.955024 178.50448  L 128.71784 175.207009  L 129.480656 174.099041  L 130.243472 180.0173  L 131.769105 168.22698  L 132.531921 163.146816  L 133.294737 176.562938  L 134.057553 166.676694  L 134.820369 162.878089  L 135.583185 174.132509  L 136.346001 177.232069  L 137.108817 171.680468  L 137.871634 178.57521  L 138.63445 163.165497  L 139.397266 174.925817  L 140.160082 175.575473  L 140.922898 178.862346  L 141.685714 183.20014  L 142.44853 175.050688  L 143.211347 173.757671  L 143.974163 179.570917  L 144.736979 163.624033  L 145.499795 172.473834  L 146.262611 169.82637  L 147.025427 170.87835  L 147.788243 171.603059  L 148.551059 170.298119  L 149.313876 184.740895  L 150.076692 178.535923  L 150.839508 167.88982  L 151.602324 175.599945  L 152.36514 172.820461  L 153.127956 181.057722  L 153.890772 173.472394  L 154.653589 177.156772  L 155.416405 184.703653  L 156.179221 163.964596  L 156.942037 184.23949  L 157.704853 177.044041  L 158.467669 171.414295  L 159.230485 172.463839  L 159.993301 174.407982  L 160.756118 178.252738  L 161.518934 167.591728  L 162.28175 170.972096  L 163.044566 175.430915  L 163.807382 188.406532  L 164.570198 184.003033  L 165.333014 186.913697  L 166.09583 178.514985  L 166.858647 175.101751  L 167.621463 178.843871  L 168.384279 173.238883  L 169.147095 177.789323  L 169.909911 169.890249  L 170.672727 179.190147  L 171.435543 178.372691  L 172.19836 173.650831  L 172.961176 170.852772  L 173.723992 170.049131  L 174.486808 175.478953  L 175.249624 179.244487  L 176.01244 179.750426  L 176.775256 185.022636  L 177.538072 168.599859  L 178.300889 178.986774  L 179.063705 173.710579  L 179.826521 182.045584  L 180.589337 169.788493  L 181.352153 176.979944  L 182.114969 175.071487  L 182.877785 167.699878  L 183.640602 180.83412  L 184.403418 187.287854  L 185.166234 182.369744  L 185.92905 163.846291  L 186.691866 173.366879  L 187.454682 169.448261  L 188.217498 167.281774  L 188.980314 171.792272  L 189.743131 173.402253  L 190.505947 176.408537  L 191.268763 177.394447  L 192.031579 171.818459  L 192.794395 172.090946  L 193.557211 166.185854  L 194.320027 180.977652  L 195.082843 173.207016  L 195.84566 176.001474  L 196.608476 170.485373  L 197.371292 170.206491  L 198.134108 176.026179  L 198.896924 179.156486  L 199.65974 178.175303  L 200.422556 181.088536  L 201.185373 168.698438  L 201.948189 177.595437  L 202.711005 176.692066  L 203.473821 180.482098  L 204.236637 173.457209  L 204.999453 180.652903  L 205.762269 177.141514  L 206.525085 174.770912  L 207.287902 174.562099  L 208.050718 178.363523  L 208.813534 177.29477  L 209.57635 171.388638  L 210.339166 166.998404  L 211.101982 183.031706  L 211.864798 172.003528  L 212.627614 180.635646  L 213.390431 174.814145  L 214.153247 174.219603  L 214.916063 180.770241  L 215.678879 176.853821  L 216.441695 180.434484  L 217.204511 175.745907  L 217.967327 175.537272  L 218.730144 184.971791  L 219.49296 189.319031  L 220.255776 178.553107  L 221.018592 180.442639  L 221.781408 176.325018  L 222.544224 174.973815  L 223.30704 169.660974  L 224.069856 180.143786  L 224.832673 176.182791  L 225.595489 173.716887  L 226.358305 176.857442  L 227.121121 177.647685  L 227.883937 182.086897  L 228.646753 182.542143  L 229.409569 178.93497  L 230.172386 183.352681  L 230.935202 172.861343  L 231.698018 173.882217  L 232.460834 182.790483  L 233.22365 169.006658  L 233.986466 174.409723  L 234.749282 170.803258  L 235.512098 178.535989  L 236.274915 176.87417  L 237.037731 176.288743  L 237.800547 182.447775  L 238.563363 184.369352  L 239.326179 175.481601  L 240.088995 182.7112  L 240.851811 172.806017  L 241.614627 174.634225  L 242.377444 180.044917  L 243.14026 167.702102  L 243.903076 176.117648  L 244.665892 179.822758  L 245.428708 174.337027  L 246.191524 180.609829  L 246.95434 176.276907  L 247.717157 181.273102  L 248.479973 177.396764  L 249.242789 175.427758  L 250.005605 170.944837  L 250.768421 182.278414  L 251.531237 169.066445  L 252.294053 182.541812  L 253.056869 171.642392  L 253.819686 182.107358  L 254.582502 180.165624  L 255.345318 172.27816  L 256.108134 175.420383  L 256.87095 180.714968  L 257.633766 173.881589  L 258.396582 178.955775  L 259.159398 169.961197  L 259.922215 180.844473  L 260.685031 170.48021  L 261.447847 173.900117  L 262.210663 172.171692  L 262.973479 181.259923  L 263.736295 176.508334  L 264.499111 181.057232  L 265.261928 179.680537  L 266.024744 185.523385  L 266.78756 183.111743  L 267.550376 169.935527  L 268.313192 178.604694  L 269.076008 169.395503  L 269.838824 172.150112  L 270.60164 169.087006  L 271.364457 171.67218  L 272.127273 177.118875  L 272.890089 173.458387  L 273.652905 163.472498  L 274.415721 179.868009  L 275.178537 170.197529  L 275.941353 176.969028  L 276.70417 171.665216  L 277.466986 167.355516  L 278.229802 178.845771  L 278.992618 168.9642  L 279.755434 177.67276  L 280.51825 171.524815  L 281.281066 178.809556  L 282.043882 174.408704  L 282.806699 187.982279  L 283.569515 183.083232  L 284.332331 171.47317  L 285.095147 184.3233  L 285.857963 182.524608  L 286.620779 175.383691  L 287.383595 182.861815  L 288.146411 175.292288  L 288.909228 175.440123  L 289.672044 178.542351  L 290.43486 182.181431  L 291.197676 180.181081  L 291.960492 164.633661  L 292.723308 172.283059  L 293.486124 172.945478  L 294.248941 165.092581  L 295.011757 172.398967  L 295.774573 168.547168  L 296.537389 173.902599  L 297.300205 166.603905  L 298.063021 175.054196  L 298.825837 181.084822  L 299.588653 174.459734  L 301.114286 179.652913  L 301.877102 176.381119  L 302.639918 185.111206  L 303.402734 176.917614  L 304.16555 179.923918  L 304.928366 179.067672  L 305.691183 174.567474  L 306.453999 178.171695  L 307.216815 178.3555  L 307.979631 181.175623  L 308.742447 169.253104  L 309.505263 166.55308  L 310.268079 177.399273  L 311.030895 175.849086  L 311.793712 173.381442  L 312.556528 171.306026  L 313.319344 180.128157  L 314.08216 164.937485  L 314.844976 181.882895  L 315.607792 177.452957  L 316.370608 171.639704  L 317.133424 176.82075  L 317.896241 173.636003  L 318.659057 169.3679  L 319.421873 171.147699  L 320.184689 173.90532  L 320.947505 183.377121  L 321.710321 175.33609  L 322.473137 170.836594  L 323.235954 171.068185  L 323.99877 169.557418  L 324.761586 173.490439  L 325.524402 166.375716  L 326.287218 180.141026  L 327.050034 178.130012  L 327.81285 185.401222  L 328.575666 166.096  L 329.338483 173.569966  L 330.101299 175.543884  L 330.864115 176.543689  L 331.626931 180.14932  L 332.389747 167.821943  L 333.915379 180.596603  L 334.678195 178.604495  L 335.441012 180.604938  L 336.203828 165.953163  L 336.966644 174.575821  L 337.72946 173.607115  L 338.492276 172.048462  L 339.255092 189.063318  L 340.017908 172.017469  L 340.780725 171.6712  L 341.543541 176.682441  L 342.306357 174.954208  L 343.069173 181.160848  L 343.831989 175.114361  L 344.594805 184.065846  L 345.357621 174.458403  L 346.120437 174.569433  L 346.883254 181.980348  L 347.64607 182.824805  L 348.408886 177.451157  L 349.171702 175.07851  L 349.934518 168.552874  L 350.697334 170.926924  L 351.46015 169.03867  L 352.222967 175.840149  L 352.985783 176.61377  L 353.748599 178.685677  L 354.511415 176.423643  L 355.274231 176.513662  L 356.037047 170.450329  L 356.799863 186.843172  L 357.562679 175.623921  L 358.325496 176.329685  L 359.088312 167.222132  L 359.851128 184.46341  L 360.613944 175.363303  L 362.139576 168.162082  L 362.902392 169.977839  L 363.665208 178.212518  L 364.428025 180.914852  L 365.190841 175.733184  L 365.953657 176.407068  L 366.716473 171.803949  L 367.479289 174.10615  L 368.242105 185.252156  L 369.004921 168.902453  L 369.767738 174.909367  L 370.530554 177.154925  L 371.29337 181.755184  L 372.056186 175.98713  L 372.819002 166.61578  L 373.581818 175.318052  L 373.581818 175.318052  " clip-path="url(#pf99301df68)" style="fill: none; stroke-dasharray: 5.55,2.4; stroke-dashoffset: 0; stroke: #ff7f0e; stroke-width: 1.5"/>
   </g>
   <g id="patch_3">
    <path d="M 54 256.32  L 54 34.56  " style="fill: none; stroke: #000000; stroke-width: 0.8; stroke-linejoin: miter; stroke-linecap: square"/>
   </g>
   <g id="patch_4">
    <path d="M 388.8 256.32  L 388.8 34.56  " style="fill: none; stroke: #000000; stroke-width: 0.8; stroke-linejoin: miter; stroke-linecap: square"/>
   </g>
   <g id="patch_5">
    <path d="M 54 256.32  L 388.8 256.32  " style="fill: none; stroke: #000000; stroke-width: 0.8; stroke-linejoin: miter; stroke-linecap: square"/>
   </g>
   <g id="patch_6">
    <path d="M 54 34.56  L 388.8 34.56  " style="fill: none; stroke: #000000; stroke-width: 0.8; stroke-linejoin: miter; stroke-linecap: square"/>
   </g>
  </g>
 </g>
 <defs>
  <clipPath id="pf99301df68">
   <rect x="54" y="34.56" width="334.8" height="221.76"/>
  </clipPath>
 </defs>
</svg>