<?xml version="1.0" encoding="utf-8" standalone="no"?>
<!DOCTYPE svg PUBLIC "-//W3C//DTD SVG 1.1//EN"
  "http://www.w3.org/Graphics/SVG/1.1/DTD/svg11.dtd">
<svg xmlns:xlink="http://www.w3.org/1999/xlink" width="180pt" height="180pt" viewBox="0 0 180 180" xmlns="http://www.w3.org/2000/svg" version="1.1">
 <metadata>
  <rdf:RDF xmlns:dc="http://purl.org/dc/elements/1.1/" xmlns:cc="http://creativecommons.org/ns#" xmlns:rdf="http://www.w3.org/1999/02/22-rdf-syntax-ns#">
   <cc:Work>
    <dc:type rdf:resource="http://purl.org/dc/dcmitype/StillImage"/>
    <dc:date>2024-03-18T00:48:52.663136</dc:date>
    <dc:format>image/svg+xml</dc:format>
    <dc:creator>
     <cc:Agent>
      <dc:title>Matplotlib v3.5.1, https://matplotlib.org/</dc:title>
     </cc:Agent>
    </dc:creator>
   </cc:Work>
  </rdf:RDF>
 </metadata>
 <defs>
  <style type="text/css">*{stroke-linejoin: round; stroke-linecap: butt}</style>
 </defs>
 <g id="figure_1">
  <g id="patch_1">
   <path d="M 0 180 
L 180 180 
L 180 0 
L 0 0 
z
" style="fill: #ffffff"/>
  </g>
  <g id="axes_1">
   <g id="patch_2">
    <path d="M 22.5 160.2 
L 162 160.2 
L 162 21.6 
L 22.5 21.6 
z
" style="fill: #ffffff"/>
   </g>
   <g id="matplotlib.axis_1">
    <g id="xtick_1">
     <g id="line2d_1">
      <defs>
       <path id="m0a6ac69742" d="M 0 0 
L 0 3.5 
" style="stroke: #000000; stroke-width: 0.8"/>
      </defs>
      <g>
       <use xlink:href="#m0a6ac69742" x="28.840909" y="160.2" style="stroke: #000000; stroke-width: 0.8"/>
      </g>
     </g>
     <g id="text_1">
      <!-- 0 -->
      <g transform="translate(25.659659 174.798438)scale(0.1 -0.1)">
       <defs>
        <path id="DejaVuSans-30" d="M 2034 4250 
Q 1547 4250 1301 3770 
Q 1056 3291 1056 2328 
Q 1056 1369 1301 889 
Q 1547 409 2034 409 
Q 2525 409 2770 889 
Q 3016 1369 3016 2328 
Q 3016 3291 2770 3770 
Q 2525 4250 2034 4250 
z
M 2034 4750 
Q 2819 4750 3233 4129 
Q 3647 3509 3647 2328 
Q 3647 1150 3233 529 
Q 2819 -91 2034 -91 
Q 1250 -91 836 529 
Q 422 1150 422 2328 
Q 422 3509 836 4129 
Q 1250 4750 2034 4750 
z
" transform="scale(0.015625)"/>
       </defs>
       <use xlink:href="#DejaVuSans-30"/>
      </g>
     </g>
    </g>
    <g id="xtick_2">
     <g id="line2d_2">
      <g>
       <use xlink:href="#m0a6ac69742" x="92.568639" y="160.2" style="stroke: #000000; stroke-width: 0.8"/>
      </g>
     </g>
     <g id="text_2">
      <!-- 100 -->
      <g transform="translate(83.024889 174.798438)scale(0.1 -0.1)">
       <defs>
        <path id="DejaVuSans-31" d="M 794 531 
L 1825 531 
L 1825 4091 
L 703 3866 
L 703 4441 
L 1819 4666 
L 2450 4666 
L 2450 531 
L 3481 531 
L 3481 0 
L 794 0 
L 794 531 
z
" transform="scale(0.015625)"/>
       </defs>
       <use xlink:href="#DejaVuSans-31"/>
       <use xlink:href="#DejaVuSans-30" x="63.623047"/>
       <use xlink:href="#DejaVuSans-30" x="127.246094"/>
      </g>
     </g>
    </g>
    <g id="xtick_3">
     <g id="line2d_3">
      <g>
       <use xlink:href="#m0a6ac69742" x="156.296368" y="160.2" style="stroke: #000000; stroke-width: 0.8"/>
      </g>
     </g>
     <g id="text_3">
      <!-- 200 -->
      <g transform="translate(146.752618 174.798438)scale(0.1 -0.1)">
       <defs>
        <path id="DejaVuSans-32" d="M 1228 531 
L 3431 531 
L 3431 0 
L 469 0 
L 469 531 
Q 828 903 1448 1529 
Q 2069 2156 2228 2338 
Q 2531 2678 2651 2914 
Q 2772 3150 2772 3378 
Q 2772 3750 2511 3984 
Q 2250 4219 1831 4219 
Q 1534 4219 1204 4116 
Q 875 4013 500 3803 
L 500 4441 
Q 881 4594 1212 4672 
Q 1544 4750 1819 4750 
Q 2544 4750 2975 4387 
Q 3406 4025 3406 3419 
Q 3406 3131 3298 2873 
Q 3191 2616 2906 2266 
Q 2828 2175 2409 1742 
Q 1991 1309 1228 531 
z
" transform="scale(0.015625)"/>
       </defs>
       <use xlink:href="#DejaVuSans-32"/>
       <use xlink:href="#DejaVuSans-30" x="63.623047"/>
       <use xlink:href="#DejaVuSans-30" x="127.246094"/>
      </g>
     </g>
    </g>
   </g>
   <g id="matplotlib.axis_2">
    <g id="ytick_1">
     <g id="line2d_4">
      <defs>
       <path id="m6db8c833e5" d="M 0 0 
L -3.5 0 
" style="stroke: #000000; stroke-width: 0.8"/>
      </defs>
      <g>
       <use xlink:href="#m6db8c833e5" x="22.5" y="122.4" style="stroke: #000000; stroke-width: 0.8"/>
      </g>
     </g>
     <g id="text_4">
      <!-- 0.0 -->
      <g transform="translate(-0.403125 126.199219)scale(0.1 -0.1)">
       <defs>
        <path id="DejaVuSans-2e" d="M 684 794 
L 1344 794 
L 1344 0 
L 684 0 
L 684 794 
z
" transform="scale(0.015625)"/>
       </defs>
       <use xlink:href="#DejaVuSans-30"/>
       <use xlink:href="#DejaVuSans-2e" x="63.623047"/>
       <use xlink:href="#DejaVuSans-30" x="95.410156"/>
      </g>
     </g>
    </g>
    <g id="ytick_2">
     <g id="line2d_5">
      <g>
       <use xlink:href="#m6db8c833e5" x="22.5" y="80.4" style="stroke: #000000; stroke-width: 0.8"/>
      </g>
     </g>
     <g id="text_5">
      <!-- 0.5 -->
      <g transform="translate(-0.403125 84.199219)scale(0.1 -0.1)">
       <defs>
        <path id="DejaVuSans-35" d="M 691 4666 
L 3169 4666 
L 3169 4134 
L 1269 4134 
L 1269 2991 
Q 1406 3038 1543 3061 
Q 1681 3084 1819 3084 
Q 2600 3084 3056 2656 
Q 3513 2228 3513 1497 
Q 3513 744 3044 326 
Q 2575 -91 1722 -91 
Q 1428 -91 1123 -41 
Q 819 9 494 109 
L 494 744 
Q 775 591 1075 516 
Q 1375 441 1709 441 
Q 2250 441 2565 725 
Q 2881 1009 2881 1497 
Q 2881 1984 2565 2268 
Q 2250 2553 1709 2553 
Q 1456 2553 1204 2497 
Q 953 2441 691 2322 
L 691 4666 
z
" transform="scale(0.015625)"/>
       </defs>
       <use xlink:href="#DejaVuSans-30"/>
       <use xlink:href="#DejaVuSans-2e" x="63.623047"/>
       <use xlink:href="#DejaVuSans-35" x="95.410156"/>
      </g>
     </g>
    </g>
    <g id="ytick_3">
     <g id="line2d_6">
      <g>
       <use xlink:href="#m6db8c833e5" x="22.5" y="38.4" style="stroke: #000000; stroke-width: 0.8"/>
      </g>
     </g>
     <g id="text_6">
      <!-- 1.0 -->
      <g transform="translate(-0.403125 42.199219)scale(0.1 -0.1)">
       <use xlink:href="#DejaVuSans-31"/>
       <use xlink:href="#DejaVuSans-2e" x="63.623047"/>
       <use xlink:href="#DejaVuSans-30" x="95.410156"/>
      </g>
     </g>
    </g>
   </g>
   <g id="line2d_7">
    <path d="M 28.840909 113.857938 
L 29.478186 111.220341 
L 30.115464 111.967192 
L 30.752741 110.960396 
L 31.390018 111.372929 
L 32.664573 103.961118 
L 33.30185 105.37271 
L 33.939127 108.861404 
L 34.576405 110.169967 
L 35.213682 112.485427 
L 35.850959 112.041246 
L 36.488237 110.157743 
L 37.125514 107.886801 
L 37.762791 105.034763 
L 38.400069 102.920222 
L 39.037346 106.498398 
L 39.674623 106.353388 
L 40.3119 110.242208 
L 40.949178 107.215591 
L 41.586455 108.509303 
L 42.223732 107.756126 
L 42.86101 100.055684 
L 43.498287 94.889015 
L 44.135564 102.120371 
L 44.772841 101.240043 
L 45.410119 105.738897 
L 46.047396 107.735755 
L 46.684673 106.012805 
L 47.959228 101.693608 
L 48.596505 95.672297 
L 49.233783 99.560205 
L 49.87106 100.289609 
L 50.508337 100.491771 
L 51.145614 101.892718 
L 51.782892 102.608614 
L 52.420169 100.079422 
L 53.057446 94.155921 
L 53.694724 92.17365 
L 54.332001 98.587691 
L 54.969278 101.444636 
L 55.606556 101.02205 
L 56.243833 98.688958 
L 56.88111 103.622601 
L 57.518387 99.411734 
L 58.155665 97.388497 
L 58.792942 93.815544 
L 60.067497 99.15497 
L 60.704774 95.689473 
L 61.342051 98.747 
L 61.979328 97.646224 
L 62.616606 95.586473 
L 63.253883 89.727585 
L 64.528438 93.328661 
L 65.165715 98.510128 
L 65.802992 98.446667 
L 66.44027 84.728778 
L 67.077547 93.950174 
L 67.714824 92.064584 
L 68.352101 91.557009 
L 68.989379 95.171761 
L 69.626656 83.982731 
L 70.263933 96.687529 
L 70.901211 92.593707 
L 71.538488 80.750348 
L 72.175765 95.60608 
L 72.813042 81.194292 
L 73.45032 90.801662 
L 74.087597 88.188816 
L 74.724874 92.765195 
L 75.362152 90.901873 
L 75.999429 94.128709 
L 76.636706 74.695879 
L 77.273984 97.21575 
L 77.911261 80.839131 
L 78.548538 94.319285 
L 79.185815 85.785924 
L 79.823093 95.603952 
L 80.46037 107.645793 
L 81.097647 96.055447 
L 81.734925 92.657343 
L 82.372202 80.769383 
L 83.009479 88.367015 
L 83.646757 85.504833 
L 84.284034 63.764219 
L 84.921311 67.80209 
L 85.558588 82.497046 
L 86.195866 126.857734 
L 86.833143 109.81603 
L 87.47042 76.860174 
L 88.107698 117.424376 
L 88.744975 101.739349 
L 89.382252 38.4 
L 90.019529 105.762336 
L 90.656807 130.369461 
L 91.294084 138.106907 
L 92.568639 102.25895 
L 93.205916 128.585953 
L 93.843193 108.039466 
L 94.480471 79.945939 
L 95.117748 110.510603 
L 95.755025 120.653634 
L 96.392302 137.465146 
L 97.02958 103.172232 
L 98.304134 138.052697 
L 98.941412 91.508102 
L 99.578689 79.715387 
L 100.215966 110.250591 
L 100.853243 103.613794 
L 101.490521 103.341813 
L 102.127798 79.003166 
L 102.765075 81.06727 
L 103.402353 104.056463 
L 104.03963 80.092949 
L 104.676907 87.60769 
L 105.314185 93.715506 
L 105.951462 86.336218 
L 106.588739 93.977176 
L 107.863294 83.162456 
L 108.500571 94.89073 
L 109.137848 85.997243 
L 109.775126 96.398998 
L 110.412403 86.734894 
L 111.04968 91.058084 
L 112.324235 94.6179 
L 112.961512 89.968857 
L 113.598789 91.352016 
L 114.236067 87.819905 
L 114.873344 98.99434 
L 115.510621 83.308522 
L 116.147899 90.3319 
L 117.422453 100.771958 
L 118.05973 101.521302 
L 118.697008 104.291336 
L 119.334285 99.46045 
L 119.971562 102.22321 
L 120.60884 97.173716 
L 121.246117 88.378928 
L 121.883394 96.384481 
L 122.520672 97.877538 
L 123.157949 99.960788 
L 123.795226 104.567985 
L 124.432503 101.761345 
L 125.069781 100.861375 
L 125.707058 101.225063 
L 126.344335 96.263707 
L 126.981613 98.133565 
L 127.61889 95.708872 
L 128.256167 102.887709 
L 128.893444 102.1734 
L 129.530722 102.31157 
L 130.167999 99.132723 
L 130.805276 103.157897 
L 131.442554 101.139156 
L 132.079831 104.400508 
L 132.717108 103.305686 
L 133.354386 101.752492 
L 133.991663 100.936491 
L 134.62894 99.578277 
L 135.266217 98.776104 
L 135.903495 103.346673 
L 136.540772 105.533674 
L 137.178049 110.850343 
L 137.815327 104.458669 
L 138.452604 105.078598 
L 139.089881 100.086589 
L 139.727159 101.364029 
L 140.364436 105.14521 
L 141.63899 107.744578 
L 142.276268 113.539376 
L 142.913545 104.668319 
L 143.550822 107.333996 
L 144.1881 103.305002 
L 144.825377 107.192228 
L 145.462654 106.785185 
L 146.099931 109.309798 
L 146.737209 107.780318 
L 147.374486 112.181967 
L 148.011763 107.653356 
L 148.649041 113.140996 
L 149.286318 107.108736 
L 149.923595 112.037541 
L 150.560873 109.630754 
L 151.19815 112.474987 
L 151.835427 110.888338 
L 152.472704 114.878228 
L 153.109982 109.252229 
L 153.747259 113.753505 
L 154.384536 110.462206 
L 155.021814 115.362492 
L 155.659091 112.803694 
L 155.659091 112.803694 
" clip-path="url(#pc30f3dbf30)" style="fill: none; stroke: #1f77b4; stroke-linecap: square"/>
   </g>
   <g id="line2d_8">
    <path d="M 28.840909 123.958266 
L 29.478186 119.00019 
L 30.115464 124.940514 
L 30.752741 116.956399 
L 31.390018 122.41713 
L 32.027296 126.092542 
L 32.664573 118.982908 
L 33.30185 122.36839 
L 33.939127 122.111065 
L 34.576405 117.186102 
L 35.213682 123.97584 
L 35.850959 120.725311 
L 36.488237 122.898994 
L 37.125514 124.312409 
L 37.762791 121.733026 
L 38.400069 121.179621 
L 39.037346 117.678536 
L 39.674623 119.477476 
L 40.3119 124.724423 
L 40.949178 120.181275 
L 41.586455 126.85666 
L 42.223732 123.658014 
L 42.86101 115.610418 
L 43.498287 119.43371 
L 44.135564 127.196836 
L 44.772841 125.854453 
L 45.410119 122.679303 
L 46.047396 125.596186 
L 47.321951 121.690407 
L 47.959228 120.889494 
L 48.596505 123.579525 
L 49.233783 122.791592 
L 49.87106 119.690754 
L 50.508337 120.002894 
L 51.145614 123.171707 
L 51.782892 120.83383 
L 52.420169 118.990835 
L 53.057446 123.183594 
L 53.694724 121.977285 
L 54.332001 123.918999 
L 54.969278 122.38287 
L 55.606556 123.102831 
L 56.243833 125.029204 
L 56.88111 120.149461 
L 57.518387 119.818635 
L 58.155665 117.106998 
L 58.792942 121.128338 
L 59.430219 123.390707 
L 60.067497 120.031846 
L 60.704774 124.247429 
L 61.342051 122.128377 
L 61.979328 121.080343 
L 62.616606 120.599617 
L 63.253883 118.906523 
L 63.89116 123.578754 
L 64.528438 126.241106 
L 65.165715 121.895941 
L 65.802992 122.640575 
L 66.44027 122.449491 
L 67.077547 121.613202 
L 67.714824 127.695682 
L 68.352101 120.239468 
L 68.989379 120.391608 
L 69.626656 120.202133 
L 70.263933 120.449421 
L 70.901211 120.169764 
L 71.538488 120.225968 
L 72.175765 125.311947 
L 72.813042 121.279514 
L 73.45032 131.214972 
L 74.087597 122.724109 
L 74.724874 119.559108 
L 75.362152 119.663321 
L 75.999429 118.3168 
L 76.636706 124.591394 
L 77.911261 121.884347 
L 78.548538 124.479136 
L 79.185815 122.730203 
L 79.823093 118.727769 
L 80.46037 120.999926 
L 81.097647 119.215617 
L 81.734925 127.386671 
L 82.372202 123.741217 
L 83.009479 123.702527 
L 83.646757 124.836062 
L 84.284034 124.621982 
L 84.921311 122.577144 
L 85.558588 121.992402 
L 86.195866 122.791144 
L 86.833143 124.214897 
L 87.47042 122.125674 
L 88.107698 119.396474 
L 88.744975 121.164792 
L 89.382252 124.118068 
L 90.019529 125.970735 
L 90.656807 117.29541 
L 91.294084 120.113022 
L 91.931361 121.53343 
L 92.568639 118.467786 
L 93.205916 125.331412 
L 93.843193 119.24829 
L 95.117748 125.904426 
L 95.755025 122.519528 
L 96.392302 126.881181 
L 97.02958 116.994417 
L 97.666857 122.251482 
L 98.304134 122.223205 
L 98.941412 121.74642 
L 99.578689 119.158321 
L 100.215966 119.357629 
L 100.853243 120.47734 
L 101.490521 125.643073 
L 102.127798 126.157936 
L 102.765075 119.638211 
L 103.402353 124.849205 
L 104.03963 124.042776 
L 104.676907 122.764701 
L 105.314185 126.184933 
L 105.951462 123.181692 
L 106.588739 124.065467 
L 107.226016 116.433426 
L 107.863294 129.362675 
L 108.500571 121.93793 
L 109.137848 125.556372 
L 109.775126 121.446589 
L 110.412403 118.914086 
L 111.04968 117.548377 
L 111.686958 119.447734 
L 112.324235 123.094794 
L 112.961512 124.602776 
L 113.598789 123.39893 
L 114.236067 122.598389 
L 114.873344 122.986295 
L 115.510621 122.999909 
L 116.147899 120.13896 
L 116.785176 121.617712 
L 117.422453 123.994059 
L 118.05973 124.641716 
L 118.697008 119.249315 
L 119.334285 118.240514 
L 119.971562 126.672781 
L 120.60884 118.013386 
L 121.246117 123.924728 
L 121.883394 121.975576 
L 122.520672 122.657094 
L 123.157949 127.437829 
L 123.795226 120.377075 
L 124.432503 124.507423 
L 125.707058 124.546622 
L 126.344335 127.673089 
L 126.981613 119.668082 
L 127.61889 117.730145 
L 128.256167 125.960371 
L 128.893444 119.37267 
L 129.530722 124.109556 
L 130.167999 120.320583 
L 130.805276 123.429002 
L 131.442554 123.273324 
L 132.079831 117.604087 
L 132.717108 125.47455 
L 133.354386 120.821362 
L 133.991663 126.943428 
L 134.62894 125.837798 
L 135.266217 121.264685 
L 135.903495 121.671622 
L 136.540772 124.038679 
L 137.178049 120.338989 
L 137.815327 120.937906 
L 138.452604 116.424489 
L 139.089881 122.729576 
L 139.727159 123.43248 
L 140.364436 120.724263 
L 141.001713 119.660793 
L 141.63899 114.51432 
L 142.276268 122.757086 
L 142.913545 119.622691 
L 143.550822 123.486891 
L 144.1881 124.08415 
L 144.825377 123.068503 
L 145.462654 125.485006 
L 146.099931 119.335085 
L 146.737209 124.641534 
L 147.374486 122.716684 
L 148.011763 122.323562 
L 148.649041 122.134785 
L 149.286318 123.120063 
L 149.923595 116.832376 
L 150.560873 124.288378 
L 151.19815 118.518948 
L 151.835427 125.941366 
L 152.472704 120.154449 
L 153.109982 121.067048 
L 153.747259 127.449408 
L 154.384536 117.869218 
L 155.021814 123.054825 
L 155.659091 122.456894 
L 155.659091 122.456894 
" clip-path="url(#pc30f3dbf30)" style="fill: none; stroke-dasharray: 3.7,1.6; stroke-dashoffset: 0; stroke: #ff7f0e"/>
   </g>
   <g id="patch_3">
    <path d="M 22.5 160.2 
L 22.5 21.6 
" style="fill: none; stroke: #000000; stroke-width: 0.8; stroke-linejoin: miter; stroke-linecap: square"/>
   </g>
   <g id="patch_4">
    <path d="M 162 160.2 
L 162 21.6 
" style="fill: none; stroke: #000000; stroke-width: 0.8; stroke-linejoin: miter; stroke-linecap: square"/>
   </g>
   <g id="patch_5">
    <path d="M 22.5 160.2 
L 162 160.2 
" style="fill: none; stroke: #000000; stroke-width: 0.8; stroke-linejoin: miter; stroke-linecap: square"/>
   </g>
   <g id="patch_6">
    <path d="M 22.5 21.6 
L 162 21.6 
" style="fill: none; stroke: #000000; stroke-width: 0.8; stroke-linejoin: miter; stroke-linecap: square"/>
   </g>
   <g id="legend_1">
    <g id="patch_7">
     <path d="M 56.153125 58.95625 
L 155 58.95625 
Q 157 58.95625 157 56.95625 
L 157 28.6 
Q 157 26.6 155 26.6 
L 56.153125 26.6 
Q 54.153125 26.6 54.153125 28.6 
L 54.153125 56.95625 
Q 54.153125 58.95625 56.153125 58.95625 
z
" style="fill: #ffffff; opacity: 0.8; stroke: #cccccc; stroke-linejoin: miter"/>
    </g>
    <g id="line2d_9">
     <path d="M 58.153125 34.698437 
L 68.153125 34.698437 
L 78.153125 34.698437 
" style="fill: none; stroke: #1f77b4; stroke-linecap: square"/>
    </g>
    <g id="text_7">
     <!-- with motif -->
     <g transform="translate(86.153125 38.198437)scale(0.1 -0.1)">
      <defs>
       <path id="DejaVuSans-77" d="M 269 3500 
L 844 3500 
L 1563 769 
L 2278 3500 
L 2956 3500 
L 3675 769 
L 4391 3500 
L 4966 3500 
L 4050 0 
L 3372 0 
L 2619 2869 
L 1863 0 
L 1184 0 
L 269 3500 
z
" transform="scale(0.015625)"/>
       <path id="DejaVuSans-69" d="M 603 3500 
L 1178 3500 
L 1178 0 
L 603 0 
L 603 3500 
z
M 603 4863 
L 1178 4863 
L 1178 4134 
L 603 4134 
L 603 4863 
z
" transform="scale(0.015625)"/>
       <path id="DejaVuSans-74" d="M 1172 4494 
L 1172 3500 
L 2356 3500 
L 2356 3053 
L 1172 3053 
L 1172 1153 
Q 1172 725 1289 603 
Q 1406 481 1766 481 
L 2356 481 
L 2356 0 
L 1766 0 
Q 1100 0 847 248 
Q 594 497 594 1153 
L 594 3053 
L 172 3053 
L 172 3500 
L 594 3500 
L 594 4494 
L 1172 4494 
z
" transform="scale(0.015625)"/>
       <path id="DejaVuSans-68" d="M 3513 2113 
L 3513 0 
L 2938 0 
L 2938 2094 
Q 2938 2591 2744 2837 
Q 2550 3084 2163 3084 
Q 1697 3084 1428 2787 
Q 1159 2491 1159 1978 
L 1159 0 
L 581 0 
L 581 4863 
L 1159 4863 
L 1159 2956 
Q 1366 3272 1645 3428 
Q 1925 3584 2291 3584 
Q 2894 3584 3203 3211 
Q 3513 2838 3513 2113 
z
" transform="scale(0.015625)"/>
       <path id="DejaVuSans-20" transform="scale(0.015625)"/>
       <path id="DejaVuSans-6d" d="M 3328 2828 
Q 3544 3216 3844 3400 
Q 4144 3584 4550 3584 
Q 5097 3584 5394 3201 
Q 5691 2819 5691 2113 
L 5691 0 
L 5113 0 
L 5113 2094 
Q 5113 2597 4934 2840 
Q 4756 3084 4391 3084 
Q 3944 3084 3684 2787 
Q 3425 2491 3425 1978 
L 3425 0 
L 2847 0 
L 2847 2094 
Q 2847 2600 2669 2842 
Q 2491 3084 2119 3084 
Q 1678 3084 1418 2786 
Q 1159 2488 1159 1978 
L 1159 0 
L 581 0 
L 581 3500 
L 1159 3500 
L 1159 2956 
Q 1356 3278 1631 3431 
Q 1906 3584 2284 3584 
Q 2666 3584 2933 3390 
Q 3200 3197 3328 2828 
z
" transform="scale(0.015625)"/>
       <path id="DejaVuSans-6f" d="M 1959 3097 
Q 1497 3097 1228 2736 
Q 959 2375 959 1747 
Q 959 1119 1226 758 
Q 1494 397 1959 397 
Q 2419 397 2687 759 
Q 2956 1122 2956 1747 
Q 2956 2369 2687 2733 
Q 2419 3097 1959 3097 
z
M 1959 3584 
Q 2709 3584 3137 3096 
Q 3566 2609 3566 1747 
Q 3566 888 3137 398 
Q 2709 -91 1959 -91 
Q 1206 -91 779 398 
Q 353 888 353 1747 
Q 353 2609 779 3096 
Q 1206 3584 1959 3584 
z
" transform="scale(0.015625)"/>
       <path id="DejaVuSans-66" d="M 2375 4863 
L 2375 4384 
L 1825 4384 
Q 1516 4384 1395 4259 
Q 1275 4134 1275 3809 
L 1275 3500 
L 2222 3500 
L 2222 3053 
L 1275 3053 
L 1275 0 
L 697 0 
L 697 3053 
L 147 3053 
L 147 3500 
L 697 3500 
L 697 3744 
Q 697 4328 969 4595 
Q 1241 4863 1831 4863 
L 2375 4863 
z
" transform="scale(0.015625)"/>
      </defs>
      <use xlink:href="#DejaVuSans-77"/>
      <use xlink:href="#DejaVuSans-69" x="81.787109"/>
      <use xlink:href="#DejaVuSans-74" x="109.570312"/>
      <use xlink:href="#DejaVuSans-68" x="148.779297"/>
      <use xlink:href="#DejaVuSans-20" x="212.158203"/>
      <use xlink:href="#DejaVuSans-6d" x="243.945312"/>
      <use xlink:href="#DejaVuSans-6f" x="341.357422"/>
      <use xlink:href="#DejaVuSans-74" x="402.539062"/>
      <use xlink:href="#DejaVuSans-69" x="441.748047"/>
      <use xlink:href="#DejaVuSans-66" x="469.53125"/>
     </g>
    </g>
    <g id="line2d_10">
     <path d="M 58.153125 49.376562 
L 68.153125 49.376562 
L 78.153125 49.376562 
" style="fill: none; stroke-dasharray: 3.7,1.6; stroke-dashoffset: 0; stroke: #ff7f0e"/>
    </g>
    <g id="text_8">
     <!-- without motif -->
     <g transform="translate(86.153125 52.876562)scale(0.1 -0.1)">
      <defs>
       <path id="DejaVuSans-75" d="M 544 1381 
L 544 3500 
L 1119 3500 
L 1119 1403 
Q 1119 906 1312 657 
Q 1506 409 1894 409 
Q 2359 409 2629 706 
Q 2900 1003 2900 1516 
L 2900 3500 
L 3475 3500 
L 3475 0 
L 2900 0 
L 2900 538 
Q 2691 219 2414 64 
Q 2138 -91 1772 -91 
Q 1169 -91 856 284 
Q 544 659 544 1381 
z
M 1991 3584 
L 1991 3584 
z
" transform="scale(0.015625)"/>
      </defs>
      <use xlink:href="#DejaVuSans-77"/>
      <use xlink:href="#DejaVuSans-69" x="81.787109"/>
      <use xlink:href="#DejaVuSans-74" x="109.570312"/>
      <use xlink:href="#DejaVuSans-68" x="148.779297"/>
      <use xlink:href="#DejaVuSans-6f" x="212.158203"/>
      <use xlink:href="#DejaVuSans-75" x="273.339844"/>
      <use xlink:href="#DejaVuSans-74" x="336.71875"/>
      <use xlink:href="#DejaVuSans-20" x="375.927734"/>
      <use xlink:href="#DejaVuSans-6d" x="407.714844"/>
      <use xlink:href="#DejaVuSans-6f" x="505.126953"/>
      <use xlink:href="#DejaVuSans-74" x="566.308594"/>
      <use xlink:href="#DejaVuSans-69" x="605.517578"/>
      <use xlink:href="#DejaVuSans-66" x="633.300781"/>
     </g>
    </g>
   </g>
  </g>
 </g>
 <defs>
  <clipPath id="pc30f3dbf30">
   <rect x="22.5" y="21.6" width="139.5" height="138.6"/>
  </clipPath>
 </defs>
</svg>
