<svg class="main-svg" xmlns="http://www.w3.org/2000/svg" xmlns:xlink="http://www.w3.org/1999/xlink" width="750" height="550" style="" viewBox="0 0 750 550"><rect x="0" y="0" width="750" height="550" style="fill: rgb(255, 255, 255); fill-opacity: 1;"/><defs id="defs-da295a"><g class="clips"/><g class="gradients"/></defs><g class="bglayer"/><g class="layer-below"><g class="imagelayer"/><g class="shapelayer"/></g><g class="cartesianlayer"/><g class="polarlayer"/><g class="ternarylayer"/><g class="geolayer"/><g class="funnelarealayer"/><g class="pielayer"/><g class="sunburstlayer"/><g class="glimages"/><g class="sankey" transform="translate(80,100)matrix(1 0 0 1 0 0)" style="box-sizing: content-box; position: absolute; left: 0px; shape-rendering: geometricprecision; pointer-events: auto;"><g class="sankey-links" style="fill: none;"><path class="sankey-link" d="M39.5,0C118,0 118,0 196.5,0L196.5,31.988883156114728C118,31.988883156114728 118,31.988883156114728 39.5,31.988883156114728Z" style="stroke: rgb(68, 68, 68); stroke-opacity: 1; fill: rgb(0, 0, 0); fill-opacity: 0.2; stroke-width: 0; opacity: 1;"/><path class="sankey-link" d="M39.5,276.0337726011738C118,276.0337726011738 118,294.23322374857776 196.5,294.23322374857776L196.5,316.7523126251115C118,316.7523126251115 118,298.5528614777075 39.5,298.5528614777075Z" style="stroke: rgb(68, 68, 68); stroke-opacity: 1; fill: rgb(0, 0, 0); fill-opacity: 0.2; stroke-width: 0; opacity: 1;"/><path class="sankey-link" d="M39.5,91.44496634207363C118,91.44496634207363 118,93.48946901360253 196.5,93.48946901360253L196.5,123.7381772128488C118,123.7381772128488 118,121.6936745413199 39.5,121.6936745413199Z" style="stroke: rgb(68, 68, 68); stroke-opacity: 1; fill: rgb(0, 0, 0); fill-opacity: 0.2; stroke-width: 0; opacity: 1;"/><path class="sankey-link" d="M39.5,46.988883156114724C118,46.988883156114724 118,47.460142771002296 196.5,47.460142771002296L196.5,76.91622595696121C118,76.91622595696121 118,76.44496634207364 39.5,76.44496634207364Z" style="stroke: rgb(68, 68, 68); stroke-opacity: 1; fill: rgb(0, 0, 0); fill-opacity: 0.2; stroke-width: 0; opacity: 1;"/><path class="sankey-link" d="M39.5,226.45720985073592C118,226.45720985073592 118,244.65666099813978 196.5,244.65666099813978L196.5,279.2332237485777C118,279.2332237485777 118,261.03377260117384 39.5,261.03377260117384Z" style="stroke: rgb(68, 68, 68); stroke-opacity: 1; fill: rgb(0, 0, 0); fill-opacity: 0.2; stroke-width: 0; opacity: 1;"/><path class="sankey-link" d="M39.5,136.6936745413199C118,136.6936745413199 118,138.73817721284877 196.5,138.73817721284877L196.5,171.23303926369067C118,171.23303926369067 118,169.1885365921618 39.5,169.1885365921618Z" style="stroke: rgb(68, 68, 68); stroke-opacity: 1; fill: rgb(0, 0, 0); fill-opacity: 0.2; stroke-width: 0; opacity: 1;"/><path class="sankey-link" d="M39.5,184.1885365921618C118,184.1885365921618 118,202.38798773956603 196.5,202.38798773956603L196.5,229.65666099814007C118,229.65666099814007 118,211.45720985073584 39.5,211.45720985073584Z" style="stroke: rgb(68, 68, 68); stroke-opacity: 1; fill: rgb(0, 0, 0); fill-opacity: 0.2; stroke-width: 0; opacity: 1;"/><path class="sankey-link" d="M39.5,313.5528614777075C118,313.5528614777075 118,331.7523126251115 196.5,331.7523126251115L196.5,357.7756123506879C118,357.7756123506879 118,339.5761612032839 39.5,339.5761612032839Z" style="stroke: rgb(68, 68, 68); stroke-opacity: 1; fill: rgb(0, 0, 0); fill-opacity: 0.2; stroke-width: 0; opacity: 1;"/><path class="sankey-link" d="M39.5,354.57616120328385C118,354.57616120328385 118,372.7756123506879 196.5,372.7756123506879L196.5,377.1315593636183C118,377.1315593636183 118,358.93210821621426 39.5,358.93210821621426Z" style="stroke: rgb(68, 68, 68); stroke-opacity: 1; fill: rgb(0, 0, 0); fill-opacity: 0.2; stroke-width: 0; opacity: 1;"/><path class="sankey-link" d="M216.5,0C295,0 295,0 373.5,0L373.5,32.46014277100229C295,32.46014277100229 295,32.46014277100229 216.5,32.46014277100229Z" style="stroke: rgb(68, 68, 68); stroke-opacity: 1; fill: rgb(0, 0, 0); fill-opacity: 0.2; stroke-width: 0; opacity: 1;"/><path class="sankey-link" d="M216.5,294.23322374857776C295,294.23322374857776 295,266.75596635474216 373.5,266.75596635474216L373.5,283.0446538633378C295,283.0446538633378 295,310.52191125717343 216.5,310.52191125717343Z" style="stroke: rgb(68, 68, 68); stroke-opacity: 1; fill: rgb(0, 0, 0); fill-opacity: 0.2; stroke-width: 0; opacity: 1;"/><path class="sankey-link" d="M216.5,47.460142771002296C295,47.460142771002296 295,50.571900513847055 373.5,50.571900513847055L373.5,81.60122675644726C295,81.60122675644726 295,78.4894690136025 216.5,78.4894690136025Z" style="stroke: rgb(68, 68, 68); stroke-opacity: 1; fill: rgb(0, 0, 0); fill-opacity: 0.2; stroke-width: 0; opacity: 1;"/><path class="sankey-link" d="M216.5,244.65666099813978C295,244.65666099813978 295,215.2438697863741 373.5,215.2438697863741L373.5,242.7266907269705C295,242.7266907269705 295,272.1394819387362 216.5,272.1394819387362Z" style="stroke: rgb(68, 68, 68); stroke-opacity: 1; fill: rgb(0, 0, 0); fill-opacity: 0.2; stroke-width: 0; opacity: 1;"/><path class="sankey-link" d="M216.5,138.73817721284877C295,138.73817721284877 295,96.60122675644723 373.5,96.60122675644723L373.5,114.29629975099616C295,114.29629975099616 295,156.4332502073977 216.5,156.4332502073977Z" style="stroke: rgb(68, 68, 68); stroke-opacity: 1; fill: rgb(0, 0, 0); fill-opacity: 0.2; stroke-width: 0; opacity: 1;"/><path class="sankey-link" d="M216.5,156.4332502073977C295,156.4332502073977 295,129.29629975099618 373.5,129.29629975099618L373.5,160.25103728316452C295,160.25103728316452 295,187.38798773956603 216.5,187.38798773956603Z" style="stroke: rgb(68, 68, 68); stroke-opacity: 1; fill: rgb(0, 0, 0); fill-opacity: 0.2; stroke-width: 0; opacity: 1;"/><path class="sankey-link" d="M216.5,202.38798773956603C295,202.38798773956603 295,175.25103728316452 373.5,175.25103728316452L373.5,196.3242661099132C295,196.3242661099132 295,223.4612165663147 216.5,223.4612165663147Z" style="stroke: rgb(68, 68, 68); stroke-opacity: 1; fill: rgb(0, 0, 0); fill-opacity: 0.2; stroke-width: 0; opacity: 1;"/><path class="sankey-link" d="M216.5,372.7756123506879C295,372.7756123506879 295,308.287763164404 373.5,308.287763164404L373.5,312.6437101773344C295,312.6437101773344 295,377.1315593636183 216.5,377.1315593636183Z" style="stroke: rgb(68, 68, 68); stroke-opacity: 1; fill: rgb(0, 0, 0); fill-opacity: 0.2; stroke-width: 0; opacity: 1;"/><path class="sankey-link" d="M393.5,0C472,0 472,0 550.5,0L550.5,35.57190051384706C472,35.57190051384706 472,35.57190051384706 393.5,35.57190051384706Z" style="stroke: rgb(68, 68, 68); stroke-opacity: 1; fill: rgb(0, 0, 0); fill-opacity: 0.2; stroke-width: 0; opacity: 1;"/><path class="sankey-link" d="M393.5,266.75596635474216C472,266.75596635474216 472,237.84024825258467 550.5,237.84024825258467L550.5,264.3720450622465C472,264.3720450622465 472,293.287763164404 393.5,293.287763164404Z" style="stroke: rgb(68, 68, 68); stroke-opacity: 1; fill: rgb(0, 0, 0); fill-opacity: 0.2; stroke-width: 0; opacity: 1;"/><path class="sankey-link" d="M393.5,96.60122675644725C472,96.60122675644725 472,85.34196695124487 550.5,85.34196695124487L550.5,102.08122355508681C472,102.08122355508681 472,113.34048336028918 393.5,113.34048336028918Z" style="stroke: rgb(68, 68, 68); stroke-opacity: 1; fill: rgb(0, 0, 0); fill-opacity: 0.2; stroke-width: 0; opacity: 1;"/><path class="sankey-link" d="M393.5,50.571900513847055C472,50.571900513847055 472,50.571900513847055 550.5,50.571900513847055L550.5,70.34196695124487C472,70.34196695124487 472,70.34196695124487 393.5,70.34196695124487Z" style="stroke: rgb(68, 68, 68); stroke-opacity: 1; fill: rgb(0, 0, 0); fill-opacity: 0.2; stroke-width: 0; opacity: 1;"/><path class="sankey-link" d="M393.5,215.2438697863741C472,215.2438697863741 472,186.3281516842166 550.5,186.3281516842166L550.5,222.84024825258467C472,222.84024825258467 472,251.75596635474216 393.5,251.75596635474216Z" style="stroke: rgb(68, 68, 68); stroke-opacity: 1; fill: rgb(0, 0, 0); fill-opacity: 0.2; stroke-width: 0; opacity: 1;"/><path class="sankey-link" d="M393.5,129.29629975099618C472,129.29629975099618 472,102.08122355508681 550.5,102.08122355508681L550.5,131.33531918100712C472,131.33531918100712 472,158.55039537691647 393.5,158.55039537691647Z" style="stroke: rgb(68, 68, 68); stroke-opacity: 1; fill: rgb(0, 0, 0); fill-opacity: 0.2; stroke-width: 0; opacity: 1;"/><path class="sankey-link" d="M393.5,175.25103728316452C472,175.25103728316452 472,146.33531918100712 550.5,146.33531918100712L550.5,171.3281516842171C472,171.3281516842171 472,200.2438697863745 393.5,200.2438697863745Z" style="stroke: rgb(68, 68, 68); stroke-opacity: 1; fill: rgb(0, 0, 0); fill-opacity: 0.2; stroke-width: 0; opacity: 1;"/><path class="sankey-link" d="M393.5,308.287763164404C472,308.287763164404 472,279.37204506224657 550.5,279.37204506224657L550.5,283.727992075177C472,283.727992075177 472,312.6437101773344 393.5,312.6437101773344Z" style="stroke: rgb(68, 68, 68); stroke-opacity: 1; fill: rgb(0, 0, 0); fill-opacity: 0.2; stroke-width: 0; opacity: 1;"/></g><g class="sankey-node-set" style="cursor: move;"><g class="sankey-node" transform="translate(19.500, 0.000)" style="opacity: 1;"><rect class="node-rect" width="20" height="31.988883156114724" style="stroke-width: 1; stroke: rgb(0, 0, 0); stroke-opacity: 1; fill: rgb(26, 112, 164); fill-opacity: 1;"/><rect class="node-capture" x="-10" y="-7.5" width="40" height="46.988883156114724" style="fill-opacity: 0;"/><g class="node-entered" transform="translate(0 16.994441578057362)"><path class="node-label-guide" id="9206f5_0_node_0" d="M24,0L590,0" transform="matrix(1 0 0 1 0 0)"/><text class="node-label" transform="scale(1 1)" style="user-select: none; cursor: default; fill: rgb(0, 0, 0); text-shadow: rgb(255, 255, 255) -1px 1px 1px, rgb(255, 255, 255) 1px 1px 1px, rgb(255, 255, 255) 1px -1px 1px, rgb(255, 255, 255) -1px -1px 1px; font-family: Arial; font-size: 10px; fill-opacity: 1;"><textPath class="node-label-text-path" alignment-baseline="middle" xlink:href="#9206f5_0_node_0" startOffset="0%" text-anchor="start" style="fill: rgb(0, 0, 0);">Ml_Cathepsin</textPath></text></g></g><g class="sankey-node" transform="translate(19.500, 46.989)" style="opacity: 1;"><rect class="node-rect" width="20" height="29.456083185958903" style="stroke-width: 1; stroke: rgb(0, 0, 0); stroke-opacity: 1; fill: rgb(214, 39, 40); fill-opacity: 1;"/><rect class="node-capture" x="-10" y="-7.5" width="40" height="44.4560831859589" style="fill-opacity: 0;"/><g class="node-entered" transform="translate(0 15.728041592979451)"><path class="node-label-guide" id="9206f5_0_node_1" d="M24,0L590,0" transform="matrix(1 0 0 1 0 0)"/><text class="node-label" transform="scale(1 1)" style="user-select: none; cursor: default; fill: rgb(0, 0, 0); text-shadow: rgb(255, 255, 255) -1px 1px 1px, rgb(255, 255, 255) 1px 1px 1px, rgb(255, 255, 255) 1px -1px 1px, rgb(255, 255, 255) -1px -1px 1px; font-family: Arial; font-size: 10px; fill-opacity: 1;"><textPath class="node-label-text-path" alignment-baseline="middle" xlink:href="#9206f5_0_node_1" startOffset="0%" text-anchor="start" style="fill: rgb(0, 0, 0);">Ml_Intestine</textPath></text></g></g><g class="sankey-node" transform="translate(19.500, 91.445)" style="opacity: 1;"><rect class="node-rect" width="20" height="30.248708199246266" style="stroke-width: 1; stroke: rgb(0, 0, 0); stroke-opacity: 1; fill: rgb(24, 128, 21); fill-opacity: 1;"/><rect class="node-capture" x="-10" y="-7.5" width="40" height="45.248708199246266" style="fill-opacity: 0;"/><g class="node-entered" transform="translate(0 16.124354099623133)"><path class="node-label-guide" id="9206f5_0_node_2" d="M24,0L590,0" transform="matrix(1 0 0 1 0 0)"/><text class="node-label" transform="scale(1 1)" style="user-select: none; cursor: default; fill: rgb(0, 0, 0); text-shadow: rgb(255, 255, 255) -1px 1px 1px, rgb(255, 255, 255) 1px 1px 1px, rgb(255, 255, 255) 1px -1px 1px, rgb(255, 255, 255) -1px -1px 1px; font-family: Arial; font-size: 10px; fill-opacity: 1;"><textPath class="node-label-text-path" alignment-baseline="middle" xlink:href="#9206f5_0_node_2" startOffset="0%" text-anchor="start" style="fill: rgb(0, 0, 0);">Ml_Germline</textPath></text></g></g><g class="sankey-node" transform="translate(19.500, 136.694)" style="opacity: 1;"><rect class="node-rect" width="20" height="32.4948620508419" style="stroke-width: 1; stroke: rgb(0, 0, 0); stroke-opacity: 1; fill: rgb(140, 86, 75); fill-opacity: 1;"/><rect class="node-capture" x="-10" y="-7.5" width="40" height="47.4948620508419" style="fill-opacity: 0;"/><g class="node-entered" transform="translate(0 17.24743102542095)"><path class="node-label-guide" id="9206f5_0_node_3" d="M24,0L590,0" transform="matrix(1 0 0 1 0 0)"/><text class="node-label" transform="scale(1 1)" style="user-select: none; cursor: default; fill: rgb(0, 0, 0); text-shadow: rgb(255, 255, 255) -1px 1px 1px, rgb(255, 255, 255) 1px 1px 1px, rgb(255, 255, 255) 1px -1px 1px, rgb(255, 255, 255) -1px -1px 1px; font-family: Arial; font-size: 10px; fill-opacity: 1;"><textPath class="node-label-text-path" alignment-baseline="middle" xlink:href="#9206f5_0_node_3" startOffset="0%" text-anchor="start" style="fill: rgb(0, 0, 0);">Ml_Neoblast</textPath></text></g></g><g class="sankey-node" transform="translate(19.500, 184.189)" style="opacity: 1;"><rect class="node-rect" width="20" height="27.268673258574097" style="stroke-width: 1; stroke: rgb(0, 0, 0); stroke-opacity: 1; fill: rgb(224, 112, 192); fill-opacity: 1;"/><rect class="node-capture" x="-10" y="-7.5" width="40" height="42.2686732585741" style="fill-opacity: 0;"/><g class="node-entered" transform="translate(0 14.634336629287048)"><path class="node-label-guide" id="9206f5_0_node_4" d="M24,0L590,0" transform="matrix(1 0 0 1 0 0)"/><text class="node-label" transform="scale(1 1)" style="user-select: none; cursor: default; fill: rgb(0, 0, 0); text-shadow: rgb(255, 255, 255) -1px 1px 1px, rgb(255, 255, 255) 1px 1px 1px, rgb(255, 255, 255) 1px -1px 1px, rgb(255, 255, 255) -1px -1px 1px; font-family: Arial; font-size: 10px; fill-opacity: 1;"><textPath class="node-label-text-path" alignment-baseline="middle" xlink:href="#9206f5_0_node_4" startOffset="0%" text-anchor="start" style="fill: rgb(0, 0, 0);">Ml_Neural</textPath></text></g></g><g class="sankey-node" transform="translate(19.500, 226.457)" style="opacity: 1;"><rect class="node-rect" width="20" height="34.57656275043786" style="stroke-width: 1; stroke: rgb(0, 0, 0); stroke-opacity: 1; fill: rgb(128, 80, 176); fill-opacity: 1;"/><rect class="node-capture" x="-10" y="-7.5" width="40" height="49.57656275043786" style="fill-opacity: 0;"/><g class="node-entered" transform="translate(0 18.28828137521893)"><path class="node-label-guide" id="9206f5_0_node_5" d="M24,0L590,0" transform="matrix(1 0 0 1 0 0)"/><text class="node-label" transform="scale(1 1)" style="user-select: none; cursor: default; fill: rgb(0, 0, 0); text-shadow: rgb(255, 255, 255) -1px 1px 1px, rgb(255, 255, 255) 1px 1px 1px, rgb(255, 255, 255) 1px -1px 1px, rgb(255, 255, 255) -1px -1px 1px; font-family: Arial; font-size: 10px; fill-opacity: 1;"><textPath class="node-label-text-path" alignment-baseline="middle" xlink:href="#9206f5_0_node_5" startOffset="0%" text-anchor="start" style="fill: rgb(0, 0, 0);">Ml_Muscle</textPath></text></g></g><g class="sankey-node" transform="translate(19.500, 276.034)" style="opacity: 1;"><rect class="node-rect" width="20" height="22.519088876533715" style="stroke-width: 1; stroke: rgb(0, 0, 0); stroke-opacity: 1; fill: rgb(240, 112, 0); fill-opacity: 1;"/><rect class="node-capture" x="-10" y="-7.5" width="40" height="37.519088876533715" style="fill-opacity: 0;"/><g class="node-entered" transform="translate(0 12.259544438266857)"><path class="node-label-guide" id="9206f5_0_node_6" d="M24,0L590,0" transform="matrix(1 0 0 1 0 0)"/><text class="node-label" transform="scale(1 1)" style="user-select: none; cursor: default; fill: rgb(0, 0, 0); text-shadow: rgb(255, 255, 255) -1px 1px 1px, rgb(255, 255, 255) 1px 1px 1px, rgb(255, 255, 255) 1px -1px 1px, rgb(255, 255, 255) -1px -1px 1px; font-family: Arial; font-size: 10px; fill-opacity: 1;"><textPath class="node-label-text-path" alignment-baseline="middle" xlink:href="#9206f5_0_node_6" startOffset="0%" text-anchor="start" style="fill: rgb(0, 0, 0);">Ml_Epidermal</textPath></text></g></g><g class="sankey-node" transform="translate(19.500, 313.553)" style="opacity: 1;"><rect class="node-rect" width="20" height="26.02329972557635" style="stroke-width: 1; stroke: rgb(0, 0, 0); stroke-opacity: 1; fill: rgb(188, 189, 34); fill-opacity: 1;"/><rect class="node-capture" x="-10" y="-7.5" width="40" height="41.02329972557635" style="fill-opacity: 0;"/><g class="node-entered" transform="translate(0 14.011649862788175)"><path class="node-label-guide" id="9206f5_0_node_7" d="M24,0L590,0" transform="matrix(1 0 0 1 0 0)"/><text class="node-label" transform="scale(1 1)" style="user-select: none; cursor: default; fill: rgb(0, 0, 0); text-shadow: rgb(255, 255, 255) -1px 1px 1px, rgb(255, 255, 255) 1px 1px 1px, rgb(255, 255, 255) 1px -1px 1px, rgb(255, 255, 255) -1px -1px 1px; font-family: Arial; font-size: 10px; fill-opacity: 1;"><textPath class="node-label-text-path" alignment-baseline="middle" xlink:href="#9206f5_0_node_7" startOffset="0%" text-anchor="start" style="fill: rgb(0, 0, 0);">Ml_Parenchymal</textPath></text></g></g><g class="sankey-node" transform="translate(19.500, 354.576)" style="opacity: 1;"><rect class="node-rect" width="20" height="4.355947012930358" style="stroke-width: 1; stroke: rgb(0, 0, 0); stroke-opacity: 1; fill: rgb(240, 112, 0); fill-opacity: 1;"/><rect class="node-capture" x="-10" y="-7.5" width="40" height="19.355947012930358" style="fill-opacity: 0;"/><g class="node-entered" transform="translate(0 3.177973506465179)"><path class="node-label-guide" id="9206f5_0_node_8" d="M24,0L590,0" transform="matrix(1 0 0 1 0 0)"/><text class="node-label" transform="scale(1 1)" style="user-select: none; cursor: default; fill: rgb(0, 0, 0); text-shadow: rgb(255, 255, 255) -1px 1px 1px, rgb(255, 255, 255) 1px 1px 1px, rgb(255, 255, 255) 1px -1px 1px, rgb(255, 255, 255) -1px -1px 1px; font-family: Arial; font-size: 10px; fill-opacity: 1;"><textPath class="node-label-text-path" alignment-baseline="middle" xlink:href="#9206f5_0_node_8" startOffset="0%" text-anchor="start" style="fill: rgb(0, 0, 0);">Ml_Protonephridia</textPath></text></g></g><g class="sankey-node" transform="translate(196.500, 0.000)" style="opacity: 1;"><rect class="node-rect" width="20" height="32.460142771002296" style="stroke-width: 1; stroke: rgb(0, 0, 0); stroke-opacity: 1; fill: rgb(26, 112, 164); fill-opacity: 1;"/><rect class="node-capture" x="-10" y="-7.5" width="40" height="47.460142771002296" style="fill-opacity: 0;"/><g class="node-entered" transform="translate(0 17.230071385501148)"><path class="node-label-guide" id="9206f5_0_node_9" d="M24,0L590,0" transform="matrix(1 0 0 1 0 0)"/><text class="node-label" transform="scale(1 1)" style="user-select: none; cursor: default; fill: rgb(0, 0, 0); text-shadow: rgb(255, 255, 255) -1px 1px 1px, rgb(255, 255, 255) 1px 1px 1px, rgb(255, 255, 255) 1px -1px 1px, rgb(255, 255, 255) -1px -1px 1px; font-family: Arial; font-size: 10px; fill-opacity: 1;"><textPath class="node-label-text-path" alignment-baseline="middle" xlink:href="#9206f5_0_node_9" startOffset="0%" text-anchor="start" style="fill: rgb(0, 0, 0);">Pl_Cathepsin</textPath></text></g></g><g class="sankey-node" transform="translate(196.500, 47.460)" style="opacity: 1;"><rect class="node-rect" width="20" height="31.029326242600234" style="stroke-width: 1; stroke: rgb(0, 0, 0); stroke-opacity: 1; fill: rgb(214, 39, 40); fill-opacity: 1;"/><rect class="node-capture" x="-10" y="-7.5" width="40" height="46.029326242600234" style="fill-opacity: 0;"/><g class="node-entered" transform="translate(0 16.514663121300117)"><path class="node-label-guide" id="9206f5_0_node_10" d="M24,0L590,0" transform="matrix(1 0 0 1 0 0)"/><text class="node-label" transform="scale(1 1)" style="user-select: none; cursor: default; fill: rgb(0, 0, 0); text-shadow: rgb(255, 255, 255) -1px 1px 1px, rgb(255, 255, 255) 1px 1px 1px, rgb(255, 255, 255) 1px -1px 1px, rgb(255, 255, 255) -1px -1px 1px; font-family: Arial; font-size: 10px; fill-opacity: 1;"><textPath class="node-label-text-path" alignment-baseline="middle" xlink:href="#9206f5_0_node_10" startOffset="0%" text-anchor="start" style="fill: rgb(0, 0, 0);">Pl_Intestine</textPath></text></g></g><g class="sankey-node" transform="translate(196.500, 93.489)" style="opacity: 1;"><rect class="node-rect" width="20" height="30.248708199246238" style="stroke-width: 1; stroke: rgb(0, 0, 0); stroke-opacity: 1; fill: rgb(24, 128, 21); fill-opacity: 1;"/><rect class="node-capture" x="-10" y="-7.5" width="40" height="45.24870819924624" style="fill-opacity: 0;"/><g class="node-entered" transform="translate(0 16.12435409962312)"><path class="node-label-guide" id="9206f5_0_node_11" d="M24,0L590,0" transform="matrix(1 0 0 1 0 0)"/><text class="node-label" transform="scale(1 1)" style="user-select: none; cursor: default; fill: rgb(0, 0, 0); text-shadow: rgb(255, 255, 255) -1px 1px 1px, rgb(255, 255, 255) 1px 1px 1px, rgb(255, 255, 255) 1px -1px 1px, rgb(255, 255, 255) -1px -1px 1px; font-family: Arial; font-size: 10px; fill-opacity: 1;"><textPath class="node-label-text-path" alignment-baseline="middle" xlink:href="#9206f5_0_node_11" startOffset="0%" text-anchor="start" style="fill: rgb(0, 0, 0);">Pl_Germline</textPath></text></g></g><g class="sankey-node" transform="translate(196.500, 138.738)" style="opacity: 1;"><rect class="node-rect" width="20" height="48.64981052671726" style="stroke-width: 1; stroke: rgb(0, 0, 0); stroke-opacity: 1; fill: rgb(140, 86, 75); fill-opacity: 1;"/><rect class="node-capture" x="-10" y="-7.5" width="40" height="63.64981052671726" style="fill-opacity: 0;"/><g class="node-entered" transform="translate(0 25.32490526335863)"><path class="node-label-guide" id="9206f5_0_node_12" d="M24,0L590,0" transform="matrix(1 0 0 1 0 0)"/><text class="node-label" transform="scale(1 1)" style="user-select: none; cursor: default; fill: rgb(0, 0, 0); text-shadow: rgb(255, 255, 255) -1px 1px 1px, rgb(255, 255, 255) 1px 1px 1px, rgb(255, 255, 255) 1px -1px 1px, rgb(255, 255, 255) -1px -1px 1px; font-family: Arial; font-size: 10px; fill-opacity: 1;"><textPath class="node-label-text-path" alignment-baseline="middle" xlink:href="#9206f5_0_node_12" startOffset="0%" text-anchor="start" style="fill: rgb(0, 0, 0);">Pl_Neoblast</textPath></text></g></g><g class="sankey-node" transform="translate(196.500, 202.388)" style="opacity: 1;"><rect class="node-rect" width="20" height="27.268673258573784" style="stroke-width: 1; stroke: rgb(0, 0, 0); stroke-opacity: 1; fill: rgb(224, 112, 192); fill-opacity: 1;"/><rect class="node-capture" x="-10" y="-7.5" width="40" height="42.268673258573784" style="fill-opacity: 0;"/><g class="node-entered" transform="translate(0 14.634336629286892)"><path class="node-label-guide" id="9206f5_0_node_13" d="M24,0L590,0" transform="matrix(1 0 0 1 0 0)"/><text class="node-label" transform="scale(1 1)" style="user-select: none; cursor: default; fill: rgb(0, 0, 0); text-shadow: rgb(255, 255, 255) -1px 1px 1px, rgb(255, 255, 255) 1px 1px 1px, rgb(255, 255, 255) 1px -1px 1px, rgb(255, 255, 255) -1px -1px 1px; font-family: Arial; font-size: 10px; fill-opacity: 1;"><textPath class="node-label-text-path" alignment-baseline="middle" xlink:href="#9206f5_0_node_13" startOffset="0%" text-anchor="start" style="fill: rgb(0, 0, 0);">Pl_Neural</textPath></text></g></g><g class="sankey-node" transform="translate(196.500, 244.657)" style="opacity: 1;"><rect class="node-rect" width="20" height="34.576562750437944" style="stroke-width: 1; stroke: rgb(0, 0, 0); stroke-opacity: 1; fill: rgb(128, 80, 176); fill-opacity: 1;"/><rect class="node-capture" x="-10" y="-7.5" width="40" height="49.576562750437944" style="fill-opacity: 0;"/><g class="node-entered" transform="translate(0 18.288281375218972)"><path class="node-label-guide" id="9206f5_0_node_14" d="M24,0L590,0" transform="matrix(1 0 0 1 0 0)"/><text class="node-label" transform="scale(1 1)" style="user-select: none; cursor: default; fill: rgb(0, 0, 0); text-shadow: rgb(255, 255, 255) -1px 1px 1px, rgb(255, 255, 255) 1px 1px 1px, rgb(255, 255, 255) 1px -1px 1px, rgb(255, 255, 255) -1px -1px 1px; font-family: Arial; font-size: 10px; fill-opacity: 1;"><textPath class="node-label-text-path" alignment-baseline="middle" xlink:href="#9206f5_0_node_14" startOffset="0%" text-anchor="start" style="fill: rgb(0, 0, 0);">Pl_Muscle</textPath></text></g></g><g class="sankey-node" transform="translate(196.500, 294.233)" style="opacity: 1;"><rect class="node-rect" width="20" height="22.519088876533715" style="stroke-width: 1; stroke: rgb(0, 0, 0); stroke-opacity: 1; fill: rgb(240, 112, 0); fill-opacity: 1;"/><rect class="node-capture" x="-10" y="-7.5" width="40" height="37.519088876533715" style="fill-opacity: 0;"/><g class="node-entered" transform="translate(0 12.259544438266857)"><path class="node-label-guide" id="9206f5_0_node_15" d="M24,0L590,0" transform="matrix(1 0 0 1 0 0)"/><text class="node-label" transform="scale(1 1)" style="user-select: none; cursor: default; fill: rgb(0, 0, 0); text-shadow: rgb(255, 255, 255) -1px 1px 1px, rgb(255, 255, 255) 1px 1px 1px, rgb(255, 255, 255) 1px -1px 1px, rgb(255, 255, 255) -1px -1px 1px; font-family: Arial; font-size: 10px; fill-opacity: 1;"><textPath class="node-label-text-path" alignment-baseline="middle" xlink:href="#9206f5_0_node_15" startOffset="0%" text-anchor="start" style="fill: rgb(0, 0, 0);">Pl_Epidermal</textPath></text></g></g><g class="sankey-node" transform="translate(196.500, 331.752)" style="opacity: 1;"><rect class="node-rect" width="20" height="26.023299725576408" style="stroke-width: 1; stroke: rgb(0, 0, 0); stroke-opacity: 1; fill: rgb(188, 189, 34); fill-opacity: 1;"/><rect class="node-capture" x="-10" y="-7.5" width="40" height="41.02329972557641" style="fill-opacity: 0;"/><g class="node-entered" transform="translate(0 14.011649862788204)"><path class="node-label-guide" id="9206f5_0_node_16" d="M24,0L590,0" transform="matrix(1 0 0 1 0 0)"/><text class="node-label" transform="scale(1 1)" style="user-select: none; cursor: default; fill: rgb(0, 0, 0); text-shadow: rgb(255, 255, 255) -1px 1px 1px, rgb(255, 255, 255) 1px 1px 1px, rgb(255, 255, 255) 1px -1px 1px, rgb(255, 255, 255) -1px -1px 1px; font-family: Arial; font-size: 10px; fill-opacity: 1;"><textPath class="node-label-text-path" alignment-baseline="middle" xlink:href="#9206f5_0_node_16" startOffset="0%" text-anchor="start" style="fill: rgb(0, 0, 0);">Pl_Parenchymal</textPath></text></g></g><g class="sankey-node" transform="translate(196.500, 372.776)" style="opacity: 1;"><rect class="node-rect" width="20" height="4.355947012930358" style="stroke-width: 1; stroke: rgb(0, 0, 0); stroke-opacity: 1; fill: rgb(240, 112, 0); fill-opacity: 1;"/><rect class="node-capture" x="-10" y="-7.5" width="40" height="19.355947012930358" style="fill-opacity: 0;"/><g class="node-entered" transform="translate(0 3.177973506465179)"><path class="node-label-guide" id="9206f5_0_node_17" d="M24,0L590,0" transform="matrix(1 0 0 1 0 0)"/><text class="node-label" transform="scale(1 1)" style="user-select: none; cursor: default; fill: rgb(0, 0, 0); text-shadow: rgb(255, 255, 255) -1px 1px 1px, rgb(255, 255, 255) 1px 1px 1px, rgb(255, 255, 255) 1px -1px 1px, rgb(255, 255, 255) -1px -1px 1px; font-family: Arial; font-size: 10px; fill-opacity: 1;"><textPath class="node-label-text-path" alignment-baseline="middle" xlink:href="#9206f5_0_node_17" startOffset="0%" text-anchor="start" style="fill: rgb(0, 0, 0);">Pl_Protonephridia</textPath></text></g></g><g class="sankey-node" transform="translate(373.500, 0.000)" style="opacity: 1;"><rect class="node-rect" width="20" height="35.571900513847055" style="stroke-width: 1; stroke: rgb(0, 0, 0); stroke-opacity: 1; fill: rgb(26, 112, 164); fill-opacity: 1;"/><rect class="node-capture" x="-10" y="-7.5" width="40" height="50.571900513847055" style="fill-opacity: 0;"/><g class="node-entered" transform="translate(0 18.785950256923527)"><path class="node-label-guide" id="9206f5_0_node_18" d="M24,0L590,0" transform="matrix(1 0 0 1 0 0)"/><text class="node-label" transform="scale(1 1)" style="user-select: none; cursor: default; fill: rgb(0, 0, 0); text-shadow: rgb(255, 255, 255) -1px 1px 1px, rgb(255, 255, 255) 1px 1px 1px, rgb(255, 255, 255) 1px -1px 1px, rgb(255, 255, 255) -1px -1px 1px; font-family: Arial; font-size: 10px; fill-opacity: 1;"><textPath class="node-label-text-path" alignment-baseline="middle" xlink:href="#9206f5_0_node_18" startOffset="0%" text-anchor="start" style="fill: rgb(0, 0, 0);">Sm_Cathepsin</textPath></text></g></g><g class="sankey-node" transform="translate(373.500, 50.572)" style="opacity: 1;"><rect class="node-rect" width="20" height="31.02932624260019" style="stroke-width: 1; stroke: rgb(0, 0, 0); stroke-opacity: 1; fill: rgb(214, 39, 40); fill-opacity: 1;"/><rect class="node-capture" x="-10" y="-7.5" width="40" height="46.02932624260019" style="fill-opacity: 0;"/><g class="node-entered" transform="translate(0 16.514663121300096)"><path class="node-label-guide" id="9206f5_0_node_19" d="M24,0L590,0" transform="matrix(1 0 0 1 0 0)"/><text class="node-label" transform="scale(1 1)" style="user-select: none; cursor: default; fill: rgb(0, 0, 0); text-shadow: rgb(255, 255, 255) -1px 1px 1px, rgb(255, 255, 255) 1px 1px 1px, rgb(255, 255, 255) 1px -1px 1px, rgb(255, 255, 255) -1px -1px 1px; font-family: Arial; font-size: 10px; fill-opacity: 1;"><textPath class="node-label-text-path" alignment-baseline="middle" xlink:href="#9206f5_0_node_19" startOffset="0%" text-anchor="start" style="fill: rgb(0, 0, 0);">Sm_Intestine</textPath></text></g></g><g class="sankey-node" transform="translate(373.500, 96.601)" style="opacity: 1;"><rect class="node-rect" width="20" height="17.695072994548923" style="stroke-width: 1; stroke: rgb(0, 0, 0); stroke-opacity: 1; fill: rgb(24, 128, 21); fill-opacity: 1;"/><rect class="node-capture" x="-10" y="-7.5" width="40" height="32.69507299454892" style="fill-opacity: 0;"/><g class="node-entered" transform="translate(0 9.847536497274461)"><path class="node-label-guide" id="9206f5_0_node_20" d="M24,0L590,0" transform="matrix(1 0 0 1 0 0)"/><text class="node-label" transform="scale(1 1)" style="user-select: none; cursor: default; fill: rgb(0, 0, 0); text-shadow: rgb(255, 255, 255) -1px 1px 1px, rgb(255, 255, 255) 1px 1px 1px, rgb(255, 255, 255) 1px -1px 1px, rgb(255, 255, 255) -1px -1px 1px; font-family: Arial; font-size: 10px; fill-opacity: 1;"><textPath class="node-label-text-path" alignment-baseline="middle" xlink:href="#9206f5_0_node_20" startOffset="0%" text-anchor="start" style="fill: rgb(0, 0, 0);">Sm_Germline</textPath></text></g></g><g class="sankey-node" transform="translate(373.500, 129.296)" style="opacity: 1;"><rect class="node-rect" width="20" height="30.954737532168338" style="stroke-width: 1; stroke: rgb(0, 0, 0); stroke-opacity: 1; fill: rgb(140, 86, 75); fill-opacity: 1;"/><rect class="node-capture" x="-10" y="-7.5" width="40" height="45.95473753216834" style="fill-opacity: 0;"/><g class="node-entered" transform="translate(0 16.47736876608417)"><path class="node-label-guide" id="9206f5_0_node_21" d="M24,0L590,0" transform="matrix(1 0 0 1 0 0)"/><text class="node-label" transform="scale(1 1)" style="user-select: none; cursor: default; fill: rgb(0, 0, 0); text-shadow: rgb(255, 255, 255) -1px 1px 1px, rgb(255, 255, 255) 1px 1px 1px, rgb(255, 255, 255) 1px -1px 1px, rgb(255, 255, 255) -1px -1px 1px; font-family: Arial; font-size: 10px; fill-opacity: 1;"><textPath class="node-label-text-path" alignment-baseline="middle" xlink:href="#9206f5_0_node_21" startOffset="0%" text-anchor="start" style="fill: rgb(0, 0, 0);">Sm_Neoblast</textPath></text></g></g><g class="sankey-node" transform="translate(373.500, 175.251)" style="opacity: 1;"><rect class="node-rect" width="20" height="24.99283250320957" style="stroke-width: 1; stroke: rgb(0, 0, 0); stroke-opacity: 1; fill: rgb(224, 112, 192); fill-opacity: 1;"/><rect class="node-capture" x="-10" y="-7.5" width="40" height="39.99283250320957" style="fill-opacity: 0;"/><g class="node-entered" transform="translate(0 13.496416251604785)"><path class="node-label-guide" id="9206f5_0_node_22" d="M24,0L590,0" transform="matrix(1 0 0 1 0 0)"/><text class="node-label" transform="scale(1 1)" style="user-select: none; cursor: default; fill: rgb(0, 0, 0); text-shadow: rgb(255, 255, 255) -1px 1px 1px, rgb(255, 255, 255) 1px 1px 1px, rgb(255, 255, 255) 1px -1px 1px, rgb(255, 255, 255) -1px -1px 1px; font-family: Arial; font-size: 10px; fill-opacity: 1;"><textPath class="node-label-text-path" alignment-baseline="middle" xlink:href="#9206f5_0_node_22" startOffset="0%" text-anchor="start" style="fill: rgb(0, 0, 0);">Sm_Neural</textPath></text></g></g><g class="sankey-node" transform="translate(373.500, 215.244)" style="opacity: 1;"><rect class="node-rect" width="20" height="36.512096568368065" style="stroke-width: 1; stroke: rgb(0, 0, 0); stroke-opacity: 1; fill: rgb(128, 80, 176); fill-opacity: 1;"/><rect class="node-capture" x="-10" y="-7.5" width="40" height="51.512096568368065" style="fill-opacity: 0;"/><g class="node-entered" transform="translate(0 19.256048284184033)"><path class="node-label-guide" id="9206f5_0_node_23" d="M24,0L590,0" transform="matrix(1 0 0 1 0 0)"/><text class="node-label" transform="scale(1 1)" style="user-select: none; cursor: default; fill: rgb(0, 0, 0); text-shadow: rgb(255, 255, 255) -1px 1px 1px, rgb(255, 255, 255) 1px 1px 1px, rgb(255, 255, 255) 1px -1px 1px, rgb(255, 255, 255) -1px -1px 1px; font-family: Arial; font-size: 10px; fill-opacity: 1;"><textPath class="node-label-text-path" alignment-baseline="middle" xlink:href="#9206f5_0_node_23" startOffset="0%" text-anchor="start" style="fill: rgb(0, 0, 0);">Sm_Muscle</textPath></text></g></g><g class="sankey-node" transform="translate(373.500, 266.756)" style="opacity: 1;"><rect class="node-rect" width="20" height="26.53179680966184" style="stroke-width: 1; stroke: rgb(0, 0, 0); stroke-opacity: 1; fill: rgb(240, 112, 0); fill-opacity: 1;"/><rect class="node-capture" x="-10" y="-7.5" width="40" height="41.53179680966184" style="fill-opacity: 0;"/><g class="node-entered" transform="translate(0 14.26589840483092)"><path class="node-label-guide" id="9206f5_0_node_24" d="M24,0L590,0" transform="matrix(1 0 0 1 0 0)"/><text class="node-label" transform="scale(1 1)" style="user-select: none; cursor: default; fill: rgb(0, 0, 0); text-shadow: rgb(255, 255, 255) -1px 1px 1px, rgb(255, 255, 255) 1px 1px 1px, rgb(255, 255, 255) 1px -1px 1px, rgb(255, 255, 255) -1px -1px 1px; font-family: Arial; font-size: 10px; fill-opacity: 1;"><textPath class="node-label-text-path" alignment-baseline="middle" xlink:href="#9206f5_0_node_24" startOffset="0%" text-anchor="start" style="fill: rgb(0, 0, 0);">Sm_Epidermal</textPath></text></g></g><g class="sankey-node" transform="translate(373.500, 308.288)" style="opacity: 1;"><rect class="node-rect" width="20" height="4.355947012930358" style="stroke-width: 1; stroke: rgb(0, 0, 0); stroke-opacity: 1; fill: rgb(240, 112, 0); fill-opacity: 1;"/><rect class="node-capture" x="-10" y="-7.5" width="40" height="19.355947012930358" style="fill-opacity: 0;"/><g class="node-entered" transform="translate(0 3.177973506465179)"><path class="node-label-guide" id="9206f5_0_node_25" d="M24,0L590,0" transform="matrix(1 0 0 1 0 0)"/><text class="node-label" transform="scale(1 1)" style="user-select: none; cursor: default; fill: rgb(0, 0, 0); text-shadow: rgb(255, 255, 255) -1px 1px 1px, rgb(255, 255, 255) 1px 1px 1px, rgb(255, 255, 255) 1px -1px 1px, rgb(255, 255, 255) -1px -1px 1px; font-family: Arial; font-size: 10px; fill-opacity: 1;"><textPath class="node-label-text-path" alignment-baseline="middle" xlink:href="#9206f5_0_node_25" startOffset="0%" text-anchor="start" style="fill: rgb(0, 0, 0);">Sm_Protonephridia</textPath></text></g></g><g class="sankey-node" transform="translate(550.500, 0.000)" style="opacity: 1;"><rect class="node-rect" width="20" height="35.571900513847055" style="stroke-width: 1; stroke: rgb(0, 0, 0); stroke-opacity: 1; fill: rgb(26, 112, 164); fill-opacity: 1;"/><rect class="node-capture" x="-10" y="-7.5" width="40" height="50.571900513847055" style="fill-opacity: 0;"/><g class="node-entered" transform="translate(0 18.785950256923527)"><path class="node-label-guide" id="9206f5_0_node_26" d="M-590,0L-4,0" transform="matrix(1 0 0 1 0 0)"/><text class="node-label" transform="scale(1 1)" style="user-select: none; cursor: default; fill: rgb(0, 0, 0); text-shadow: rgb(255, 255, 255) -1px 1px 1px, rgb(255, 255, 255) 1px 1px 1px, rgb(255, 255, 255) 1px -1px 1px, rgb(255, 255, 255) -1px -1px 1px; font-family: Arial; font-size: 10px; fill-opacity: 1;"><textPath class="node-label-text-path" alignment-baseline="middle" xlink:href="#9206f5_0_node_26" startOffset="100%" text-anchor="end" style="fill: rgb(0, 0, 0);">Ml2_Cathepsin</textPath></text></g></g><g class="sankey-node" transform="translate(550.500, 50.572)" style="opacity: 1;"><rect class="node-rect" width="20" height="19.770066437397816" style="stroke-width: 1; stroke: rgb(0, 0, 0); stroke-opacity: 1; fill: rgb(214, 39, 40); fill-opacity: 1;"/><rect class="node-capture" x="-10" y="-7.5" width="40" height="34.770066437397816" style="fill-opacity: 0;"/><g class="node-entered" transform="translate(0 10.885033218698908)"><path class="node-label-guide" id="9206f5_0_node_27" d="M-590,0L-4,0" transform="matrix(1 0 0 1 0 0)"/><text class="node-label" transform="scale(1 1)" style="user-select: none; cursor: default; fill: rgb(0, 0, 0); text-shadow: rgb(255, 255, 255) -1px 1px 1px, rgb(255, 255, 255) 1px 1px 1px, rgb(255, 255, 255) 1px -1px 1px, rgb(255, 255, 255) -1px -1px 1px; font-family: Arial; font-size: 10px; fill-opacity: 1;"><textPath class="node-label-text-path" alignment-baseline="middle" xlink:href="#9206f5_0_node_27" startOffset="100%" text-anchor="end" style="fill: rgb(0, 0, 0);">Ml2_Intestine</textPath></text></g></g><g class="sankey-node" transform="translate(550.500, 85.342)" style="opacity: 1;"><rect class="node-rect" width="20" height="45.99335222976225" style="stroke-width: 1; stroke: rgb(0, 0, 0); stroke-opacity: 1; fill: rgb(140, 86, 75); fill-opacity: 1;"/><rect class="node-capture" x="-10" y="-7.5" width="40" height="60.99335222976225" style="fill-opacity: 0;"/><g class="node-entered" transform="translate(0 23.996676114881126)"><path class="node-label-guide" id="9206f5_0_node_28" d="M-590,0L-4,0" transform="matrix(1 0 0 1 0 0)"/><text class="node-label" transform="scale(1 1)" style="user-select: none; cursor: default; fill: rgb(0, 0, 0); text-shadow: rgb(255, 255, 255) -1px 1px 1px, rgb(255, 255, 255) 1px 1px 1px, rgb(255, 255, 255) 1px -1px 1px, rgb(255, 255, 255) -1px -1px 1px; font-family: Arial; font-size: 10px; fill-opacity: 1;"><textPath class="node-label-text-path" alignment-baseline="middle" xlink:href="#9206f5_0_node_28" startOffset="100%" text-anchor="end" style="fill: rgb(0, 0, 0);">Ml2_Neoblast</textPath></text></g></g><g class="sankey-node" transform="translate(550.500, 146.335)" style="opacity: 1;"><rect class="node-rect" width="20" height="24.992832503209485" style="stroke-width: 1; stroke: rgb(0, 0, 0); stroke-opacity: 1; fill: rgb(224, 112, 192); fill-opacity: 1;"/><rect class="node-capture" x="-10" y="-7.5" width="40" height="39.992832503209485" style="fill-opacity: 0;"/><g class="node-entered" transform="translate(0 13.496416251604742)"><path class="node-label-guide" id="9206f5_0_node_29" d="M-590,0L-4,0" transform="matrix(1 0 0 1 0 0)"/><text class="node-label" transform="scale(1 1)" style="user-select: none; cursor: default; fill: rgb(0, 0, 0); text-shadow: rgb(255, 255, 255) -1px 1px 1px, rgb(255, 255, 255) 1px 1px 1px, rgb(255, 255, 255) 1px -1px 1px, rgb(255, 255, 255) -1px -1px 1px; font-family: Arial; font-size: 10px; fill-opacity: 1;"><textPath class="node-label-text-path" alignment-baseline="middle" xlink:href="#9206f5_0_node_29" startOffset="100%" text-anchor="end" style="fill: rgb(0, 0, 0);">Ml2_Neural</textPath></text></g></g><g class="sankey-node" transform="translate(550.500, 186.328)" style="opacity: 1;"><rect class="node-rect" width="20" height="36.512096568368065" style="stroke-width: 1; stroke: rgb(0, 0, 0); stroke-opacity: 1; fill: rgb(128, 80, 176); fill-opacity: 1;"/><rect class="node-capture" x="-10" y="-7.5" width="40" height="51.512096568368065" style="fill-opacity: 0;"/><g class="node-entered" transform="translate(0 19.256048284184033)"><path class="node-label-guide" id="9206f5_0_node_30" d="M-590,0L-4,0" transform="matrix(1 0 0 1 0 0)"/><text class="node-label" transform="scale(1 1)" style="user-select: none; cursor: default; fill: rgb(0, 0, 0); text-shadow: rgb(255, 255, 255) -1px 1px 1px, rgb(255, 255, 255) 1px 1px 1px, rgb(255, 255, 255) 1px -1px 1px, rgb(255, 255, 255) -1px -1px 1px; font-family: Arial; font-size: 10px; fill-opacity: 1;"><textPath class="node-label-text-path" alignment-baseline="middle" xlink:href="#9206f5_0_node_30" startOffset="100%" text-anchor="end" style="fill: rgb(0, 0, 0);">Ml2_Muscle</textPath></text></g></g><g class="sankey-node" transform="translate(550.500, 237.840)" style="opacity: 1;"><rect class="node-rect" width="20" height="26.5317968096619" style="stroke-width: 1; stroke: rgb(0, 0, 0); stroke-opacity: 1; fill: rgb(240, 112, 0); fill-opacity: 1;"/><rect class="node-capture" x="-10" y="-7.5" width="40" height="41.5317968096619" style="fill-opacity: 0;"/><g class="node-entered" transform="translate(0 14.26589840483095)"><path class="node-label-guide" id="9206f5_0_node_31" d="M-590,0L-4,0" transform="matrix(1 0 0 1 0 0)"/><text class="node-label" transform="scale(1 1)" style="user-select: none; cursor: default; fill: rgb(0, 0, 0); text-shadow: rgb(255, 255, 255) -1px 1px 1px, rgb(255, 255, 255) 1px 1px 1px, rgb(255, 255, 255) 1px -1px 1px, rgb(255, 255, 255) -1px -1px 1px; font-family: Arial; font-size: 10px; fill-opacity: 1;"><textPath class="node-label-text-path" alignment-baseline="middle" xlink:href="#9206f5_0_node_31" startOffset="100%" text-anchor="end" style="fill: rgb(0, 0, 0);">Ml2_Epidermal</textPath></text></g></g><g class="sankey-node" transform="translate(550.500, 279.372)" style="opacity: 1;"><rect class="node-rect" width="20" height="4.355947012930358" style="stroke-width: 1; stroke: rgb(0, 0, 0); stroke-opacity: 1; fill: rgb(240, 112, 0); fill-opacity: 1;"/><rect class="node-capture" x="-10" y="-7.5" width="40" height="19.355947012930358" style="fill-opacity: 0;"/><g class="node-entered" transform="translate(0 3.177973506465179)"><path class="node-label-guide" id="9206f5_0_node_32" d="M-590,0L-4,0" transform="matrix(1 0 0 1 0 0)"/><text class="node-label" transform="scale(1 1)" style="user-select: none; cursor: default; fill: rgb(0, 0, 0); text-shadow: rgb(255, 255, 255) -1px 1px 1px, rgb(255, 255, 255) 1px 1px 1px, rgb(255, 255, 255) 1px -1px 1px, rgb(255, 255, 255) -1px -1px 1px; font-family: Arial; font-size: 10px; fill-opacity: 1;"><textPath class="node-label-text-path" alignment-baseline="middle" xlink:href="#9206f5_0_node_32" startOffset="100%" text-anchor="end" style="fill: rgb(0, 0, 0);">Ml2_Protonephridia</textPath></text></g></g></g></g><defs id="topdefs-da295a"><g class="clips"/></defs><g class="layer-above"><g class="imagelayer"/><g class="shapelayer"/></g><g class="infolayer"><g class="g-gtitle"/><g class="first-render"/></g></svg>